<svg width="404" height="122" viewBox="0 0 404 122" fill="none" xmlns="http://www.w3.org/2000/svg">
  <path d="M149.998 8.06403C146.504 3.22967 140.785 1.07471 135.572 1.07471C128.211 1.07471 121.356 4.84113 118.329 12.9175C114.835 4.85066 109.946 1.07471 102.146 1.07471C94.4602 1.07471 88.7603 4.84113 85.7146 12.9175H85.5046V4.5646C85.4282 3.41084 84.4544 2.47639 83.2418 2.42871H71.6129C70.2858 2.42871 69.2069 3.44898 69.2069 4.7267V68.6509C69.2928 69.7951 70.2476 70.6819 71.441 70.7582H83.9197C85.2468 70.7582 86.3161 69.7188 86.3161 68.4506V34.5529C86.3161 27.1631 85.9533 16.9318 94.9089 16.9318C103.769 16.9318 102.614 27.4205 102.614 34.5529V68.4411C102.614 69.6712 103.607 70.6533 104.867 70.7486H117.317C118.663 70.7486 119.723 69.7093 119.723 68.4411V34.5529C119.723 30.92 119.608 25.523 120.878 22.3001C122.158 19.0772 125.318 17.0653 128.335 17.0653C131.953 17.0653 134.741 18.2763 135.667 22.5671C136.259 25.1321 136.021 31.8544 136.021 34.5529V68.4411C136.021 69.6712 137.023 70.6533 138.264 70.7486H150.724C152.051 70.7486 153.12 69.7093 153.12 68.4411L153.139 28.1071C153.139 21.2512 153.941 13.4419 149.998 8.06403Z" fill="#37474F"/>
  <path d="M314.39 1.0835C296.345 1.0835 286.339 16.5592 286.339 36.4497C286.339 56.2258 296.221 72.0924 314.39 72.0924C331.843 72.0924 342.908 56.6263 342.908 37.1267C342.956 16.9501 332.912 1.0835 314.39 1.0835ZM314.39 58.9147C304.613 58.9147 304.718 42.2376 304.718 34.4282C304.718 26.6379 305.31 14.1277 314.485 14.1277C318.438 14.1277 321.254 15.8631 322.639 20.3161C324.281 25.427 324.51 31.8728 324.51 37.2697C324.548 45.47 324.08 58.9147 314.39 58.9147Z" fill="#37474F"/>
  <path d="M222.957 59.0679C220.685 55.9022 218.279 53.3468 218.279 47.5207V28.107C218.279 19.8971 218.842 12.3452 212.779 6.68131C207.996 2.09486 200.062 0.483398 193.999 0.483398C182.141 0.483398 168.88 4.89822 166.111 19.5444C165.815 21.1081 166.941 21.9282 167.963 22.157L180.05 23.4538C181.177 23.4061 182.007 22.3 182.227 21.1749C183.249 16.1307 187.497 13.6992 192.252 13.6992C194.82 13.6992 197.732 14.6432 199.231 16.9412C200.998 19.4967 200.759 23.0056 200.759 25.9616L200.749 27.5444C193.522 28.374 184.07 28.8984 177.3 31.8734C169.481 35.2393 164.01 42.1238 164.01 52.2312C164.01 65.1705 172.164 71.6449 182.657 71.6449C191.517 71.6449 196.386 69.5567 203.222 62.5864C205.475 65.8666 206.23 67.4685 210.373 70.9012C211.318 71.397 212.512 71.3398 213.333 70.6151L213.352 70.6342C215.844 68.4411 220.36 64.4839 222.9 62.3671C223.902 61.5375 223.759 60.1836 222.957 59.0679ZM200.749 40.2358C200.749 45.0893 200.883 49.1322 198.41 53.4421C196.443 56.9511 193.283 59.0965 189.808 59.0965C185.005 59.0965 182.198 55.4636 182.198 50.0762C182.198 39.4635 191.727 37.5373 200.749 37.5373V40.2358Z" fill="#37474F"/>
  <path d="M400.235 8.60732C396.731 3.09595 391.241 1.07448 385.656 1.06494C377.053 1.06494 372.136 5.23185 368.661 13.9757H368.461V4.20204C368.222 3.20084 367.305 2.45709 366.226 2.40942H354.664C353.394 2.40942 352.373 3.3248 352.258 4.49763L352.277 68.441C352.277 69.671 353.261 70.6722 354.531 70.7676H366.933C368.279 70.7676 369.358 69.7282 369.377 68.441V34.0378C369.377 29.7184 369.597 25.8375 371.373 21.9281C372.757 18.8482 375.535 16.8172 378.59 16.8172C387.183 16.8172 386.362 27.0485 386.362 34.0378V68.7556C386.458 69.8331 387.441 70.6722 388.558 70.7771H401.075C402.326 70.7771 403.328 69.8713 403.5 68.7556V28.5169C403.5 22.3285 403.5 13.7373 400.235 8.60732Z" fill="#37474F"/>
  <path d="M278.155 53.4522C270.994 49.4283 262.678 48.246 254.773 48.4462L276.045 18.1623C278.002 15.4352 279.119 13.7284 279.119 12.4126V4.58415C279.119 3.21108 278.079 2.26709 276.752 2.26709H235.764C234.485 2.26709 233.453 3.19201 233.453 4.58415V13.7284C233.453 15.092 234.485 16.0264 235.821 16.0264H257.246L232.632 51.2686C231.143 53.5285 231.124 56.0649 231.124 57.5524V66.8301C231.124 68.1651 232.642 69.7002 234.055 68.9183C248.004 61.5285 264.731 62.2627 277.334 68.8611C278.9 69.6621 280.351 68.0983 280.351 66.7634V56.9993C280.208 55.693 279.778 54.3485 278.155 53.4522Z" fill="#37474F"/>
  <path d="M270.232 76.5938C267.682 73.4376 245.723 70.7201 232.328 80.1123C230.285 81.5522 230.619 83.545 232.92 83.2781C240.453 82.3913 257.256 80.3793 260.235 84.1934C263.224 88.0171 256.903 103.808 254.068 110.845C253.199 112.98 255.051 113.839 256.98 112.237C269.573 101.767 272.8 79.7786 270.232 76.5938Z" fill="#FFC107"/>
  <path d="M247.124 89.829C220.887 100.957 192.349 106.315 166.38 106.315C127.932 106.315 90.668 95.7981 60.5645 78.2914C57.9389 76.7467 55.9817 79.4452 58.1681 81.4189C86.0756 106.602 122.958 121.744 163.926 121.744C193.161 121.744 227.083 112.561 250.513 95.3213C254.38 92.4608 251.086 88.1699 247.124 89.829Z" fill="#FFC107"/>
  <path d="M59.4562 59.0678C57.1743 55.9021 54.7588 53.3467 54.7588 47.5206V28.1069C54.7588 19.8971 55.3412 12.3452 49.2785 6.6813C44.4856 2.09486 36.5611 0.483398 30.4793 0.483398C18.6213 0.483398 5.38835 4.89821 2.59092 19.5443C2.30449 21.1081 3.4502 21.9281 4.44314 22.157L16.5685 23.4538C17.6761 23.4061 18.5067 22.3 18.7263 21.1748C19.7479 16.1307 24.0061 13.6992 28.7608 13.6992C31.3195 13.6992 34.222 14.6432 35.7496 16.9412C37.4873 19.4966 37.2486 23.0056 37.2486 25.9615V27.5634C30.0306 28.4025 20.5785 28.927 13.7998 31.902C6.00894 35.2488 0.5 42.1332 0.5 52.2406C0.5 65.1799 8.67271 71.6543 19.1655 71.6543C28.0447 71.6543 32.8949 69.5661 39.7309 62.5958C41.9937 65.8759 42.7384 67.4779 46.8821 70.9105C47.8177 71.4064 49.0016 71.3492 49.8323 70.6245L49.8704 70.6436C52.3528 68.4505 56.8688 64.4933 59.4276 62.3765C60.4396 61.5184 60.2677 60.1834 59.4562 59.0678ZM37.2486 40.2357C37.2486 45.0892 37.3822 49.1321 34.919 53.442C32.9426 56.951 29.8015 59.0964 26.288 59.0964C21.5046 59.0964 18.7263 55.4635 18.7263 50.0761C18.7263 39.4634 28.2452 37.5373 37.2486 37.5373V40.2357Z" fill="#37474F"/>
</svg>
