<svg width="69" height="69" viewBox="0 0 69 69" fill="none" xmlns="http://www.w3.org/2000/svg">
  <circle cx="34.3213" cy="34.2227" r="34" fill="#F2F2F2"/>
  <path d="M23.9173 24.1009H12.3897V25.54C12.3897 31.0948 16.9144 35.6138 22.4763 35.6138H23.9173V37.6492L24.3394 38.0704C25.3751 39.1052 25.3751 40.8531 24.3394 41.8878L21.8793 44.3444H18.1535V47.2227H53.371V44.3444H49.6452L46.3805 41.0839C44.2187 38.9249 44.2187 35.2769 46.3805 33.1178C47.9134 31.5869 47.1059 31.871 50.5465 31.006C54.1924 30.0893 55.3343 29.7636 56.2529 29.523V21.2227H23.9173V24.1009ZM22.4763 32.7356C18.997 32.7356 16.0859 30.2595 15.4164 26.9791H23.9173V32.7356H22.4763ZM45.5692 44.3444H25.9552L26.377 43.9228C27.4191 42.8825 27.9928 41.4816 27.9928 39.9791C27.9928 39.4683 27.9253 38.9695 27.7969 38.492H41.9793C42.2618 40.2448 43.075 41.8533 44.3426 43.1193L45.5692 44.3444ZM53.371 24.1009V27.3112C51.882 27.7024 50.7289 27.9921 49.8429 28.2151C45.7542 29.2427 46.218 29.209 44.3426 31.0825C43.0982 32.3252 42.2922 33.8981 41.9958 35.6138H26.7992V24.1009H53.371Z" fill="black"/>
</svg>
