<svg width="18" height="20" viewBox="0 0 18 20" fill="none" xmlns="http://www.w3.org/2000/svg">
<path fill-rule="evenodd" clip-rule="evenodd" d="M15.4286 8.125C15.4286 12.3484 16.5389 13.43 17.4328 14.2992C18.6466 15.4793 17.7823 17.5 16.0691 17.5H11.5714C11.5714 18.8807 10.4201 20 9 20C7.57984 20 6.42857 18.8807 6.42857 17.5H1.9305C0.213946 17.5 -0.644549 15.4769 0.566795 14.2992C1.46077 13.43 2.57142 12.3484 2.57142 8.125C2.57142 5.02367 4.89499 2.45043 7.94181 1.95977C7.79846 1.75813 7.71428 1.51367 7.71428 1.25C7.71428 0.559648 8.28992 0 9 0C9.71007 0 10.2857 0.559648 10.2857 1.25C10.2861 1.50361 10.2067 1.75126 10.0582 1.95977C13.105 2.45043 15.4286 5.02367 15.4286 8.125ZM9.32142 18.75C9.32142 18.5774 9.17752 18.4375 9 18.4375C8.46827 18.4375 8.03571 18.017 8.03571 17.5H7.39285C7.39285 18.3616 8.11382 19.0625 9 19.0625C9.17752 19.0625 9.32142 18.9226 9.32142 18.75Z" fill="#aaaaaa"/>
</svg>
