<svg width="69" height="69" viewBox="0 0 69 69" fill="none" xmlns="http://www.w3.org/2000/svg">
  <circle cx="34.0898" cy="34.9741" r="34" fill="#F2F2F2"/>
  <path d="M50.6462 25.4735C50.6462 25.3369 50.6158 25.2003 50.555 25.0713C50.4335 24.8133 50.1979 24.6388 49.9396 24.5857L34.4622 17.0884C34.2114 16.967 33.9151 16.967 33.6644 17.0884L18.035 24.654C17.7311 24.7981 17.5335 25.1017 17.5183 25.4432V25.4507C17.5183 25.4583 17.5183 25.4659 17.5183 25.4811V44.4671C17.5183 44.8162 17.7159 45.1349 18.035 45.2867L33.6644 52.8523C33.672 52.8523 33.672 52.8523 33.6796 52.8599C33.7024 52.8675 33.7251 52.875 33.7479 52.8902C33.7555 52.8902 33.7631 52.8978 33.7783 52.8978C33.8011 52.9054 33.8239 52.913 33.8467 52.9206C33.8543 52.9206 33.8619 52.9282 33.8695 52.9282C33.8923 52.9357 33.9227 52.9358 33.9455 52.9433C33.9531 52.9433 33.9607 52.9433 33.9683 52.9433C33.9987 52.9433 34.0367 52.9509 34.0671 52.9509C34.0975 52.9509 34.1354 52.9509 34.1658 52.9433C34.1734 52.9433 34.181 52.9433 34.1886 52.9433C34.2114 52.9433 34.2418 52.9357 34.2646 52.9282C34.2722 52.9282 34.2798 52.9206 34.2874 52.9206C34.3102 52.913 34.333 52.9054 34.3558 52.8978C34.3634 52.8978 34.371 52.8902 34.3862 52.8902C34.409 52.8826 34.4318 52.875 34.4546 52.8599C34.4622 52.8599 34.4622 52.8599 34.4698 52.8523L50.1447 45.2639C50.4563 45.1122 50.6614 44.7934 50.6614 44.4444V25.4963C50.6462 25.4887 50.6462 25.4811 50.6462 25.4735ZM34.0595 18.9172L47.6146 25.4811L42.6226 27.9018L29.0675 21.3379L34.0595 18.9172ZM34.0595 32.045L20.5044 25.4811L26.978 22.3471L40.5331 28.911L34.0595 32.045ZM19.3419 26.9456L33.1477 33.631V50.5758L19.3419 43.8904V26.9456ZM34.9712 50.5758V33.631L41.4525 30.4894V34.921C41.4525 35.4218 41.8628 35.8316 42.3642 35.8316C42.8657 35.8316 43.276 35.4218 43.276 34.921V29.6016L48.8227 26.9153V43.8601L34.9712 50.5758Z" fill="black" stroke="#1D1D1B"/>
</svg>
