<svg width="624" height="401" viewBox="0 0 624 401" fill="none" xmlns="http://www.w3.org/2000/svg">
<g opacity="0.2">
<path d="M511.842 400.096C511.32 400.096 511.32 400.096 510.798 400.096L148.385 400.096H144.73C94.598 398.01 54.9102 356.809 54.9102 306.741C54.9102 255.631 96.6868 213.908 148.385 213.908C148.908 213.908 149.43 213.908 150.474 213.908C149.43 208.693 148.385 203.478 148.385 198.262C148.385 160.712 178.673 130.985 215.75 130.985C236.639 130.985 255.438 140.894 267.971 156.018C285.204 97.0849 338.991 54.8406 402.701 54.8406C476.332 54.8406 536.386 111.166 542.652 183.138C589.129 196.176 622.55 238.942 622.55 289.531C622.55 350.55 572.94 400.096 511.842 400.096Z" stroke="#F2F2F2" stroke-miterlimit="10"/>
<path d="M504.141 392.404C503.618 392.404 503.618 392.404 503.096 392.404L140.684 392.404H137.028C86.8965 390.318 47.2087 349.117 47.2087 299.05C47.2087 247.939 88.9854 206.217 140.684 206.217C141.206 206.217 141.728 206.217 142.773 206.217C141.728 201.001 140.684 195.786 140.684 190.571C140.684 153.02 170.972 123.293 208.049 123.293C228.937 123.293 247.737 133.202 260.27 148.327C277.502 89.3932 331.29 47.149 394.999 47.149C468.63 47.149 528.684 103.475 534.951 175.446C581.427 188.485 614.849 231.25 614.849 281.839C614.849 342.859 565.239 392.404 504.141 392.404Z" stroke="#F2F2F2" stroke-miterlimit="10"/>
<path d="M496.439 384.713C495.917 384.713 495.917 384.713 495.395 384.713L132.983 384.713H129.327C79.1951 382.627 39.5073 341.426 39.5073 291.359C39.5073 240.248 81.284 198.525 132.983 198.525C133.505 198.525 134.027 198.525 135.071 198.525C134.027 193.31 132.983 188.095 132.983 182.879C132.983 145.329 163.271 115.602 200.347 115.602C221.236 115.602 240.035 125.511 252.568 140.635C269.801 81.7019 323.588 39.4576 387.298 39.4576C460.929 39.4576 520.983 95.7833 527.249 167.755C573.726 180.793 607.147 223.559 607.147 274.148C607.147 335.167 557.538 384.713 496.439 384.713Z" stroke="#E0E0E0" stroke-miterlimit="10"/>
<path d="M488.738 377.021C488.216 377.021 488.216 377.021 487.693 377.021L125.281 377.021H121.626C71.4936 374.935 31.8058 333.734 31.8058 283.667C31.8058 232.557 73.5825 190.834 125.281 190.834C125.803 190.834 126.325 190.834 127.37 190.834C126.325 185.618 125.281 180.403 125.281 175.188C125.281 137.637 155.569 107.91 192.646 107.91C213.534 107.91 232.334 117.819 244.867 132.944C262.1 74.0102 315.887 31.766 379.596 31.766C453.228 31.766 513.282 88.0916 519.548 160.063C566.025 173.102 599.446 215.867 599.446 266.456C599.446 327.476 549.836 377.021 488.738 377.021Z" stroke="#E0E0E0" stroke-miterlimit="10"/>
<path d="M481.036 369.33C480.514 369.33 480.514 369.33 479.992 369.33L117.58 369.33H113.924C63.7922 367.244 24.1044 326.043 24.1044 275.976C24.1044 224.865 65.881 183.143 117.58 183.143C118.102 183.143 118.624 183.143 119.668 183.143C118.624 177.927 117.58 172.712 117.58 167.496C117.58 129.946 147.868 100.219 184.944 100.219C205.833 100.219 224.632 110.128 237.165 125.252C254.398 66.3189 308.185 24.0747 371.895 24.0747C445.526 24.0747 505.58 80.4003 511.847 152.372C558.323 165.41 591.744 208.176 591.744 258.765C591.744 319.784 542.135 369.33 481.036 369.33Z" stroke="#BDBDBD" stroke-miterlimit="10"/>
<path d="M473.335 361.638C472.813 361.638 472.813 361.638 472.29 361.638L109.878 361.638H106.223C56.0907 359.552 16.4029 318.351 16.4029 268.284C16.4029 217.174 58.1795 175.451 109.878 175.451C110.4 175.451 110.923 175.451 111.967 175.451C110.923 170.235 109.878 165.02 109.878 159.805C109.878 122.254 140.166 92.5269 177.243 92.5269C198.131 92.5269 216.931 102.436 229.464 117.561C246.697 58.6272 300.484 16.383 364.193 16.383C437.825 16.383 497.879 72.7087 504.145 144.68C550.622 157.719 584.043 200.484 584.043 251.073C584.043 312.093 534.433 361.638 473.335 361.638Z" stroke="#BDBDBD" stroke-miterlimit="10"/>
<path d="M465.633 353.947C465.111 353.947 465.111 353.947 464.589 353.947L102.177 353.947H98.5212C48.3893 351.861 8.70148 310.66 8.70148 260.593C8.70148 209.482 50.4781 167.76 102.177 167.76C102.699 167.76 103.221 167.76 104.266 167.76C103.221 162.544 102.177 157.329 102.177 152.114C102.177 114.563 132.465 84.8356 169.542 84.8356C190.43 84.8356 209.229 94.7448 221.762 109.869C238.995 50.9359 292.783 8.69168 356.492 8.69168C430.123 8.69168 490.177 65.0173 496.444 136.989C542.92 150.027 576.341 192.793 576.341 243.382C576.341 304.401 526.732 353.947 465.633 353.947Z" stroke="#828282" stroke-miterlimit="10"/>
<path d="M457.932 346.255C457.41 346.255 457.41 346.255 456.887 346.255L94.4752 346.255H90.8198C40.6878 344.169 1 302.968 1 252.901C1 201.791 42.7766 160.068 94.4752 160.068C94.9974 160.068 95.5196 160.068 96.564 160.068C95.5196 154.853 94.4752 149.637 94.4752 144.422C94.4752 106.871 124.763 77.144 161.84 77.144C182.728 77.144 201.528 87.0531 214.061 102.178C231.294 43.2442 285.081 1 348.79 1C422.422 1 482.476 57.3257 488.742 129.297C535.219 142.336 568.64 185.101 568.64 235.69C568.64 296.71 519.03 346.255 457.932 346.255Z" stroke="#828282" stroke-miterlimit="10"/>
</g>
</svg>
