<svg width="373" height="236" viewBox="0 0 373 236" fill="none" xmlns="http://www.w3.org/2000/svg">
  <path d="M303.759 234.652C303.436 234.652 303.436 234.652 303.113 234.652H78.8445H76.5824C45.5597 233.361 21 207.864 21 176.882C21 145.254 46.8523 119.435 78.8445 119.435C79.1677 119.435 79.4908 119.435 80.1371 119.435C79.4908 116.207 78.8445 112.98 78.8445 109.753C78.8445 86.5155 97.5874 68.1195 120.531 68.1195C133.457 68.1195 145.091 74.2515 152.847 83.6109C163.511 47.1417 196.796 21 236.22 21C281.785 21 318.948 55.8556 322.826 100.393C351.586 108.462 372.268 134.926 372.268 166.231C372.268 203.992 341.568 234.652 303.759 234.652Z" stroke="#F2F2F2" stroke-miterlimit="10"/>
  <rect x="163.384" y="135.826" width="83.5" height="67.8782" rx="9.5" stroke="#F2F2F2"/>
  <path d="M234.603 135.858V121.479C234.603 105.204 221.409 92.0103 205.134 92.0103V92.0103C188.859 92.0103 175.666 105.204 175.666 121.479V135.858" stroke="#F2F2F2"/>
  <path d="M299.759 230.652C299.436 230.652 299.436 230.652 299.113 230.652H74.8445H72.5824C41.5597 229.361 17 203.864 17 172.882C17 141.254 42.8523 115.435 74.8445 115.435C75.1677 115.435 75.4908 115.435 76.1371 115.435C75.4908 112.207 74.8445 108.98 74.8445 105.753C74.8445 82.5155 93.5874 64.1195 116.531 64.1195C129.457 64.1195 141.091 70.2515 148.847 79.6109C159.511 43.1417 192.796 17 232.22 17C277.785 17 314.948 51.8556 318.826 96.3932C347.586 104.462 368.268 130.926 368.268 162.231C368.268 199.992 337.568 230.652 299.759 230.652Z" stroke="#E0E0E0" stroke-miterlimit="10"/>
  <rect x="159.384" y="131.826" width="83.5" height="67.8782" rx="9.5" stroke="#E0E0E0"/>
  <path d="M230.603 131.858V117.479C230.603 101.204 217.409 88.0103 201.134 88.0103V88.0103C184.859 88.0103 171.666 101.204 171.666 117.479V131.858" stroke="#E0E0E0"/>
  <path d="M295.759 226.652C295.436 226.652 295.436 226.652 295.113 226.652H70.8445H68.5824C37.5597 225.361 13 199.864 13 168.882C13 137.254 38.8523 111.435 70.8445 111.435C71.1677 111.435 71.4908 111.435 72.1371 111.435C71.4908 108.207 70.8445 104.98 70.8445 101.753C70.8445 78.5155 89.5874 60.1195 112.531 60.1195C125.457 60.1195 137.091 66.2515 144.847 75.6109C155.511 39.1417 188.796 13 228.22 13C273.785 13 310.948 47.8556 314.826 92.3932C343.586 100.462 364.268 126.926 364.268 158.231C364.268 195.992 333.568 226.652 295.759 226.652Z" stroke="#BDBDBD" stroke-miterlimit="10"/>
  <rect x="155.384" y="127.826" width="83.5" height="67.8782" rx="9.5" stroke="#BDBDBD"/>
  <path d="M226.603 127.858V113.479C226.603 97.2037 213.409 84.0103 197.134 84.0103V84.0103C180.859 84.0103 167.666 97.2037 167.666 113.479V127.858" stroke="#BDBDBD"/>
  <path d="M291.759 222.652C291.436 222.652 291.436 222.652 291.113 222.652H66.8445H64.5824C33.5597 221.361 9 195.864 9 164.882C9 133.254 34.8523 107.435 66.8445 107.435C67.1677 107.435 67.4908 107.435 68.1371 107.435C67.4908 104.207 66.8445 100.98 66.8445 97.7526C66.8445 74.5155 85.5874 56.1195 108.531 56.1195C121.457 56.1195 133.091 62.2515 140.847 71.6109C151.511 35.1417 184.796 9 224.22 9C269.785 9 306.948 43.8556 310.826 88.3932C339.586 96.4616 360.268 122.926 360.268 154.231C360.268 191.992 329.568 222.652 291.759 222.652Z" stroke="#BDBDBD" stroke-miterlimit="10"/>
  <rect x="151.384" y="123.826" width="83.5" height="67.8782" rx="9.5" stroke="#BDBDBD"/>
  <path d="M222.603 123.858V109.479C222.603 93.2037 209.409 80.0103 193.134 80.0103V80.0103C176.859 80.0103 163.666 93.2037 163.666 109.479V123.858" stroke="#BDBDBD"/>
  <path d="M287.759 218.652C287.436 218.652 287.436 218.652 287.113 218.652H62.8445H60.5824C29.5597 217.361 5 191.864 5 160.882C5 129.254 30.8523 103.435 62.8445 103.435C63.1677 103.435 63.4908 103.435 64.1371 103.435C63.4908 100.207 62.8445 96.9799 62.8445 93.7526C62.8445 70.5155 81.5874 52.1195 104.531 52.1195C117.457 52.1195 129.091 58.2515 136.847 67.6109C147.511 31.1417 180.796 5 220.22 5C265.785 5 302.948 39.8556 306.826 84.3932C335.586 92.4616 356.268 118.926 356.268 150.231C356.268 187.992 325.568 218.652 287.759 218.652Z" stroke="#828282" stroke-miterlimit="10"/>
  <rect x="147.384" y="119.826" width="83.5" height="67.8782" rx="9.5" stroke="#828282"/>
  <path d="M218.603 119.858V105.479C218.603 89.2037 205.409 76.0103 189.134 76.0103V76.0103C172.859 76.0103 159.666 89.2037 159.666 105.479V119.858" stroke="#828282"/>
  <path d="M283.759 214.652C283.436 214.652 283.436 214.652 283.113 214.652H58.8445H56.5824C25.5597 213.361 1 187.864 1 156.882C1 125.254 26.8523 99.4347 58.8445 99.4347C59.1677 99.4347 59.4908 99.4347 60.1371 99.4347C59.4908 96.2073 58.8445 92.9799 58.8445 89.7526C58.8445 66.5155 77.5874 48.1195 100.531 48.1195C113.457 48.1195 125.091 54.2515 132.847 63.6109C143.511 27.1417 176.796 1 216.22 1C261.785 1 298.948 35.8556 302.826 80.3932C331.586 88.4616 352.268 114.926 352.268 146.231C352.268 183.992 321.568 214.652 283.759 214.652Z" stroke="#828282" stroke-miterlimit="10"/>
  <rect x="143.384" y="115.826" width="83.5" height="67.8782" rx="9.5" stroke="#828282"/>
  <path d="M214.603 115.858V101.479C214.603 85.2037 201.409 72.0103 185.134 72.0103V72.0103C168.859 72.0103 155.666 85.2037 155.666 101.479V115.858" stroke="#828282"/>
</svg>
