<svg width="247" height="251" viewBox="0 0 247 251" fill="none" xmlns="http://www.w3.org/2000/svg">
<path d="M46.1907 162.705L46.1164 162.451L45.8528 162.42L30.0058 160.584C24.978 159.996 21.2099 155.76 21.2099 150.742V126.389C21.2099 121.372 24.9774 117.137 30.0046 116.548C30.005 116.548 30.0054 116.548 30.0058 116.548L45.0356 114.834L45.311 114.803L45.3783 114.534C47.2486 107.062 50.0949 99.8748 53.8358 93.1334L53.9652 92.9003L53.7997 92.6911L44.4054 80.8205L44.4051 80.8202C41.2631 76.8586 41.5781 71.2132 45.1504 67.6455L62.3855 50.4326C62.3858 50.4323 62.3861 50.432 62.3864 50.4317C65.9612 46.9016 71.6154 46.5503 75.5802 49.6867L86.8125 58.5793L87.0287 58.7505L87.2656 58.6093C94.4228 54.3449 102.108 51.096 110.16 48.9435L110.422 48.8734L110.454 48.6035L112.088 34.6119C112.677 29.5917 116.918 25.8277 121.943 25.8277H146.327C151.352 25.8277 155.593 29.5917 156.182 34.6117L157.816 48.6035L157.847 48.8729L158.109 48.9434C165.958 51.0553 173.44 54.1826 180.435 58.2844L180.671 58.4228L180.885 58.253L191.709 49.6867C195.676 46.5484 201.33 46.8631 204.902 50.431L222.097 67.6031C225.632 71.1731 225.984 76.8198 222.844 80.7794L222.843 80.7795L214.021 91.9159L213.854 92.1262L213.986 92.3602C217.727 99.0219 220.654 106.129 222.606 113.56L222.676 113.824L222.947 113.855L237.283 115.528C237.283 115.528 237.283 115.528 237.283 115.528C242.311 116.116 246.079 120.352 246.079 125.369V149.723C246.079 154.74 242.311 158.976 237.283 159.564L222.743 161.237L222.474 161.268L222.403 161.529C220.37 169.041 217.321 176.229 213.416 182.972L213.28 183.207L213.448 183.42L222.883 195.372L222.884 195.373C226.026 199.335 225.711 204.98 222.139 208.548L204.904 225.761C201.329 229.292 195.674 229.643 191.709 226.507L191.709 226.507L179.578 216.92L179.367 216.754L179.134 216.885C172.261 220.744 164.94 223.709 157.295 225.699L157.03 225.768L156.998 226.04L155.201 241.581C154.612 246.601 150.372 250.366 145.346 250.366H120.962C115.937 250.366 111.696 246.602 111.107 241.581L109.228 225.469L109.197 225.204L108.941 225.13C101.824 223.1 94.9921 220.216 88.5669 216.52L88.332 216.385L88.1194 216.553L75.5799 226.466L75.5798 226.466C71.6126 229.604 65.9592 229.29 62.3867 225.722L45.1516 208.509C41.6163 204.939 41.2644 199.293 44.4046 195.333C44.4046 195.333 44.4046 195.333 44.4047 195.333L54.4116 182.728L54.5793 182.517L54.4464 182.282C50.9492 176.109 48.1837 169.529 46.1907 162.705ZM174.869 137.2C174.869 114.787 156.595 96.5374 134.155 96.5374C111.715 96.5374 93.4407 114.787 93.4407 137.2C93.4407 159.612 111.715 177.862 134.155 177.862C156.595 177.862 174.869 159.612 174.869 137.2Z" stroke="#F2F2F2" stroke-width="0.8"/>
<path d="M43.2282 159.211L43.1538 158.957L42.8903 158.926L27.0432 157.09C22.0155 156.502 18.2474 152.266 18.2474 147.249V122.896C18.2474 117.879 22.0149 113.643 27.042 113.054C27.0424 113.054 27.0428 113.054 27.0432 113.054L42.0731 111.341L42.3485 111.309L42.4158 111.041C44.2861 103.569 47.1323 96.3813 50.8733 89.64L51.0027 89.4068L50.8372 89.1977L41.4428 77.3271L41.4426 77.3268C38.3006 73.3652 38.6156 67.7198 42.1879 64.1521L59.423 46.9393C59.4234 46.9389 59.4238 46.9385 59.4242 46.9381C62.999 43.4083 68.6529 43.0571 72.6176 46.1933C72.6176 46.1933 72.6177 46.1934 72.6177 46.1934L83.85 55.086L84.0662 55.2572L84.303 55.116C91.4603 50.8516 99.1459 47.6027 107.197 45.4503L107.46 45.3801L107.491 45.1102L109.125 31.1187C109.714 26.0985 113.955 22.3346 118.98 22.3346H143.365C148.39 22.3346 152.63 26.0985 153.219 31.1184L154.853 45.1102L154.885 45.3796L155.147 45.4501C162.995 47.5621 170.478 50.6893 177.472 54.7911L177.708 54.9295L177.923 54.7597L188.747 46.1934C192.714 43.0552 198.367 43.3698 201.94 46.9378L219.134 64.1098C222.669 67.6797 223.021 73.3264 219.881 77.286L219.881 77.2861L211.058 88.4225L210.892 88.6328L211.023 88.8667C214.765 95.5284 217.692 102.636 219.644 110.066L219.713 110.33L219.984 110.362L234.321 112.034C234.321 112.034 234.321 112.034 234.321 112.034C239.349 112.623 243.117 116.858 243.117 121.876V146.229C243.117 151.246 239.349 155.482 234.321 156.07L219.781 157.743L219.511 157.774L219.44 158.036C217.408 165.547 214.358 172.735 210.453 179.478L210.317 179.713L210.486 179.926L219.921 191.879L219.921 191.879C223.063 195.841 222.748 201.486 219.176 205.054L201.941 222.267C198.366 225.798 192.711 226.149 188.746 223.013L188.746 223.013L176.615 213.426L176.405 213.26L176.171 213.391C169.298 217.25 161.978 220.215 154.333 222.205L154.067 222.274L154.036 222.546L152.239 238.087C151.65 243.107 147.409 246.871 142.384 246.871H117.999C112.974 246.871 108.734 243.108 108.145 238.087L106.266 221.975L106.235 221.71L105.978 221.636C98.8614 219.606 92.0295 216.722 85.6044 213.026L85.3695 212.891L85.1569 213.059L72.6174 222.972L72.6173 222.972C68.6501 226.11 62.9967 225.796 59.4241 222.228L42.189 205.015C38.6537 201.445 38.3018 195.798 41.4422 191.839L51.4491 179.234L51.6168 179.023L51.4839 178.788C47.9867 172.615 45.2211 166.035 43.2282 159.211ZM171.907 133.706C171.907 111.294 153.633 93.044 131.192 93.044C108.752 93.044 90.4782 111.294 90.4782 133.706C90.4782 156.118 108.753 174.368 131.192 174.368C153.633 174.368 171.907 156.118 171.907 133.706Z" stroke="#F2F2F2" stroke-width="0.8"/>
<path d="M40.2657 155.718L40.1913 155.463L39.9278 155.433L24.0807 153.597C19.053 153.008 15.2849 148.772 15.2849 143.755V119.402C15.2849 114.385 19.0524 110.149 24.0795 109.56C24.0799 109.56 24.0803 109.56 24.0807 109.56L39.1105 107.847L39.386 107.816L39.4533 107.547C41.3236 100.075 44.1698 92.8875 47.9108 86.1461L48.0402 85.9129L47.8747 85.7038L38.4803 73.8332L38.48 73.8329C35.3381 69.8712 35.653 64.2259 39.2254 60.6582L56.4605 43.4453C56.4607 43.445 56.461 43.4447 56.4613 43.4444C60.0361 39.9143 65.6904 39.563 69.6552 42.6994L80.8875 51.592L81.1036 51.7632L81.3405 51.622C88.4977 47.3576 96.1834 44.1087 104.235 41.9562L104.497 41.886L104.529 41.6162L106.163 27.6246C106.752 22.6044 110.993 18.8404 116.018 18.8404H140.402C145.427 18.8404 149.668 22.6044 150.257 27.6243L151.891 41.6162L151.922 41.8856L152.184 41.956C160.033 44.068 167.515 47.1953 174.51 51.2971L174.746 51.4355L174.96 51.2657L185.784 42.6994C189.751 39.5611 195.405 39.8758 198.977 43.4437L216.172 60.6158C219.707 64.1858 220.059 69.8325 216.919 73.7921L216.918 73.7922L208.096 84.9286L207.929 85.1389L208.061 85.3729C211.802 92.0346 214.729 99.1418 216.681 106.572L216.751 106.836L217.022 106.868L231.358 108.54C231.358 108.54 231.358 108.54 231.358 108.54C236.386 109.129 240.154 113.365 240.154 118.382V142.735C240.154 147.753 236.386 151.988 231.358 152.577L216.818 154.249L216.549 154.28L216.478 154.542C214.445 162.053 211.396 169.241 207.491 175.985L207.355 176.22L207.523 176.433L216.958 188.385L216.959 188.386C220.101 192.347 219.786 197.993 216.214 201.561L198.979 218.773C195.404 222.304 189.749 222.656 185.784 219.519L185.784 219.519L173.653 209.933L173.442 209.767L173.209 209.898C166.336 213.757 159.015 216.722 151.37 218.712L151.105 218.781L151.073 219.053L149.276 234.594C148.687 239.614 144.446 243.378 139.421 243.378H115.037C110.012 243.378 105.771 239.614 105.182 234.594L103.303 218.481L103.272 218.216L103.016 218.143C95.8989 216.112 89.067 213.229 82.6419 209.533L82.4069 209.398L82.1943 209.566L69.6549 219.479L69.6548 219.479C65.6876 222.617 60.0341 222.303 56.4616 218.735L39.2265 201.522C35.6912 197.952 35.3393 192.305 38.4795 188.346C38.4796 188.346 38.4796 188.346 38.4796 188.345L48.4866 175.741L48.6543 175.53L48.5213 175.295C45.0241 169.122 42.2586 162.542 40.2657 155.718ZM168.944 130.212C168.944 107.8 150.67 89.5501 128.23 89.5501C105.79 89.5501 87.5157 107.8 87.5157 130.212C87.5157 152.625 105.79 170.875 128.23 170.875C150.67 170.875 168.944 152.625 168.944 130.212Z" stroke="#E0E0E0" stroke-width="0.8"/>
<path d="M37.3032 152.225L37.2288 151.97L36.9652 151.94L21.1182 150.104C16.0905 149.515 12.3224 145.279 12.3224 140.262V115.909C12.3224 110.892 16.0899 106.656 21.117 106.067C21.1174 106.067 21.1178 106.067 21.1182 106.067L36.148 104.354L36.4234 104.323L36.4907 104.054C38.3611 96.582 41.2073 89.3943 44.9483 82.653L45.0777 82.4198L44.9122 82.2107L35.5178 70.34L35.5175 70.3397C32.3755 66.3781 32.6905 60.7327 36.2628 57.165L53.4979 39.9521C53.4982 39.9518 53.4985 39.9516 53.4988 39.9513C57.0736 36.4211 62.7279 36.0698 66.6927 39.2062L77.925 48.0989L78.1411 48.27L78.378 48.1289C85.5352 43.8644 93.2208 40.6155 101.272 38.4631L101.535 38.3929L101.566 38.123L103.2 24.1314C103.789 19.1112 108.03 15.3473 113.055 15.3473H137.44C142.465 15.3473 146.705 19.1112 147.294 24.1312L148.928 38.123L148.96 38.3924L149.222 38.4629C157.07 40.5749 164.553 43.7021 171.547 47.8039L171.783 47.9424L171.998 47.7726L182.822 39.2062C186.789 36.0679 192.442 36.3826 196.015 39.9506L213.209 57.1226C216.744 60.6926 217.096 66.3393 213.956 70.2989L213.956 70.2991L205.133 81.4354L204.967 81.6458L205.098 81.8797C208.84 88.5415 211.767 95.6486 213.719 103.079L213.788 103.343L214.059 103.375L228.396 105.047C228.396 105.047 228.396 105.047 228.396 105.047C233.424 105.636 237.192 109.872 237.192 114.889V139.242C237.192 144.26 233.424 148.495 228.396 149.084L213.856 150.756L213.586 150.787L213.515 151.049C211.483 158.56 208.433 165.748 204.528 172.492L204.392 172.727L204.561 172.94L213.996 184.892L213.996 184.893C217.138 188.854 216.823 194.5 213.251 198.067L196.016 215.28C192.441 218.811 186.786 219.163 182.821 216.026L182.821 216.026L170.69 206.44L170.48 206.274L170.246 206.405C163.373 210.264 156.053 213.228 148.407 215.219L148.142 215.288L148.111 215.56L146.314 231.101C145.725 236.121 141.484 239.885 136.459 239.885H112.074C107.049 239.885 102.809 236.121 102.219 231.101L100.341 214.988L100.31 214.723L100.053 214.65C92.9364 212.619 86.1045 209.736 79.6793 206.04L79.4444 205.905L79.2318 206.073L66.6924 215.985L66.6922 215.985C62.7251 219.124 57.0716 218.809 53.4991 215.241L36.264 198.029C32.7287 194.459 32.3768 188.812 35.517 184.852C35.517 184.852 35.5171 184.852 35.5171 184.852L45.5241 172.248L45.6917 172.036L45.5588 171.802C42.0616 165.629 39.2961 159.049 37.3032 152.225ZM165.982 126.719C165.982 104.307 147.708 86.057 125.267 86.057C102.827 86.057 84.5531 104.307 84.5531 126.719C84.5531 149.132 102.828 167.381 125.267 167.381C147.708 167.381 165.982 149.132 165.982 126.719Z" stroke="#E0E0E0" stroke-width="0.8"/>
<path d="M34.3406 148.731L34.2663 148.476L34.0027 148.446L18.1557 146.61C13.1279 146.021 9.35984 141.786 9.35984 136.768V112.415C9.35984 107.398 13.1273 103.163 18.1545 102.574C18.1549 102.574 18.1553 102.574 18.1557 102.574L33.1855 100.86L33.4609 100.829L33.5282 100.56C35.3985 93.0885 38.2448 85.9008 41.9857 79.1595L42.1151 78.9263L41.9496 78.7172L32.5553 66.8466L32.555 66.8463C29.413 62.8847 29.728 57.2394 33.3003 53.6717L50.5354 36.4588C50.5358 36.4585 50.5362 36.4581 50.5366 36.4577C54.1114 32.9279 59.7653 32.5767 63.73 35.7128C63.73 35.7129 63.7301 35.7129 63.7301 35.7129L74.9624 44.6056L75.1786 44.7767L75.4155 44.6356C82.5727 40.3712 90.2583 37.1222 98.3099 34.9698L98.5723 34.8996L98.6039 34.6298L100.238 20.6382C100.827 15.618 105.067 11.8541 110.092 11.8541H134.477C139.502 11.8541 143.743 15.618 144.332 20.638L145.966 34.6298L145.997 34.8991L146.259 34.9696C154.108 37.0816 161.59 40.2088 168.585 44.3106L168.821 44.4491L169.035 44.2793L179.859 35.7129C183.826 32.5747 189.48 32.8894 193.052 36.4573L210.247 53.6293C213.782 57.1993 214.134 62.846 210.993 66.8055L210.993 66.8057L202.171 77.942L202.004 78.1523L202.136 78.3863C205.877 85.048 208.804 92.1551 210.756 99.5856L210.826 99.8496L211.097 99.8813L225.433 101.554C225.433 101.554 225.433 101.554 225.433 101.554C230.461 102.142 234.229 106.378 234.229 111.395V135.748C234.229 140.766 230.461 145.002 225.433 145.59L210.893 147.262L210.624 147.293L210.553 147.555C208.52 155.066 205.471 162.254 201.566 168.998L201.43 169.233L201.598 169.446L211.033 181.398L211.034 181.399C214.176 185.36 213.861 191.006 210.289 194.573L193.053 211.786C189.479 215.317 183.824 215.669 179.859 212.532L179.859 212.532L167.728 202.946L167.517 202.78L167.284 202.911C160.41 206.77 153.09 209.734 145.445 211.725L145.18 211.794L145.148 212.066L143.351 227.607C142.762 232.627 138.521 236.391 133.496 236.391H109.112C104.087 236.391 99.846 232.627 99.257 227.607L97.3781 211.494L97.3472 211.229L97.0905 211.156C89.9738 209.125 83.142 206.242 76.7168 202.546L76.4819 202.411L76.2693 202.579L63.7298 212.491L63.7297 212.491C59.7625 215.63 54.1091 215.315 50.5366 211.747L33.3015 194.535C29.7662 190.965 29.4142 185.318 32.5546 181.358L42.5615 168.754L42.7292 168.543L42.5963 168.308C39.0991 162.135 36.3336 155.555 34.3406 148.731ZM163.019 123.226C163.019 100.813 144.745 82.5635 122.305 82.5635C99.8646 82.5635 81.5906 100.813 81.5906 123.226C81.5906 145.638 99.865 163.888 122.305 163.888C144.745 163.888 163.019 145.638 163.019 123.226Z" stroke="#BDBDBD" stroke-width="0.8"/>
<path d="M31.3781 145.237L31.3037 144.983L31.0402 144.952L15.1931 143.116C10.1654 142.528 6.39731 138.292 6.39731 133.275V108.921C6.39731 103.904 10.1648 99.6689 15.1919 99.0799C15.1923 99.0799 15.1927 99.0798 15.1931 99.0798L30.223 97.3667L30.4984 97.3353L30.5657 97.0664C32.436 89.5947 35.2822 82.407 39.0232 75.6657L39.1526 75.4325L38.9871 75.2234L29.5927 63.3527L29.5925 63.3524C26.4505 59.3908 26.7655 53.7454 30.3378 50.1777L47.5729 32.9648C47.5732 32.9645 47.5735 32.9643 47.5737 32.964C51.1486 29.4338 56.8028 29.0825 60.7676 32.2189L71.9999 41.1116L72.2161 41.2827L72.4529 41.1416C79.6102 36.8771 87.2958 33.6282 95.3473 31.4757L95.6098 31.4056L95.6413 31.1357L97.2751 17.1441C97.8642 12.1239 102.105 8.35996 107.13 8.35996H131.515C136.54 8.35996 140.78 12.1239 141.369 17.1439L143.003 31.1357L143.035 31.4051L143.297 31.4756C151.145 33.5876 158.628 36.7148 165.622 40.8166L165.858 40.9551L166.073 40.7853L176.897 32.2189C180.864 29.0806 186.517 29.3953 190.09 32.9633L207.284 50.1353C210.819 53.7053 211.171 59.352 208.031 63.3116L208.031 63.3118L199.208 74.4481L199.042 74.6585L199.173 74.8924C202.915 81.5541 205.842 88.6613 207.794 96.0919L207.863 96.3559L208.134 96.3875L222.471 98.06C222.471 98.06 222.471 98.06 222.471 98.06C227.499 98.6485 231.267 102.884 231.267 107.902V132.255C231.267 137.272 227.499 141.508 222.471 142.096L207.931 143.769L207.661 143.8L207.59 144.062C205.558 151.573 202.508 158.761 198.603 165.504L198.467 165.739L198.636 165.952L208.071 177.905L208.071 177.905C211.213 181.867 210.898 187.512 207.326 191.08L190.091 208.293C186.516 211.824 180.861 212.176 176.896 209.039L176.896 209.039L164.765 199.453L164.555 199.286L164.321 199.418C157.448 203.276 150.128 206.241 142.482 208.231L142.217 208.3L142.186 208.572L140.389 224.114C139.8 229.134 135.559 232.898 130.534 232.898H106.149C101.124 232.898 96.8835 229.134 96.2944 224.114L94.4156 208.001L94.3847 207.736L94.128 207.663C87.0113 205.632 80.1795 202.749 73.7543 199.053L73.5194 198.917L73.3068 199.085L60.7673 208.998L60.7672 208.998C56.8 212.136 51.1466 211.822 47.5741 208.254L30.3389 191.041C26.8037 187.471 26.4517 181.825 29.5919 177.865C29.592 177.865 29.592 177.865 29.5921 177.865L39.599 165.26L39.7667 165.049L39.6338 164.814C36.1366 158.641 33.371 152.061 31.3781 145.237ZM160.056 119.732C160.056 97.3193 141.783 79.0696 119.342 79.0696C96.9021 79.0696 78.6281 97.3193 78.6281 119.732C78.6281 142.144 96.9025 160.394 119.342 160.394C141.783 160.394 160.056 142.144 160.056 119.732Z" stroke="#BDBDBD" stroke-width="0.8"/>
<path d="M28.4155 141.745L28.3412 141.491L28.0776 141.46L12.2305 139.624C7.20284 139.036 3.43473 134.8 3.43473 129.782V105.429C3.43473 100.412 7.20224 96.1767 12.2293 95.5878C12.2297 95.5877 12.2301 95.5877 12.2305 95.5876L27.2604 93.8745L27.5358 93.8431L27.6031 93.5742C29.4734 86.1025 32.3197 78.9148 36.0606 72.1735L36.19 71.9403L36.0245 71.7312L26.6301 59.8605L26.6299 59.8602C23.4879 55.8986 23.8029 50.2532 27.3752 46.6855L44.6103 29.4726C44.6106 29.4723 44.6109 29.4721 44.6112 29.4718C48.186 25.9416 53.8402 25.5903 57.805 28.7267L69.0373 37.6194L69.2535 37.7905L69.4904 37.6494C76.6476 33.385 84.3332 30.136 92.3848 27.9836L92.6472 27.9134L92.6788 27.6435L94.3125 13.6519C94.9016 8.63169 99.1424 4.86777 104.167 4.86777H128.552C133.577 4.86777 137.818 8.63169 138.407 13.6517L140.041 27.6435L140.072 27.9129L140.334 27.9834C148.182 30.0954 155.665 33.2226 162.66 37.3245L162.896 37.4629L163.11 37.2931L173.934 28.7267C177.901 25.5884 183.555 25.9031 187.127 29.4711L204.321 46.6432C207.857 50.2131 208.209 55.8598 205.068 59.8194L205.068 59.8196L196.246 70.9559L196.079 71.1663L196.21 71.4002C199.952 78.062 202.879 85.1691 204.831 92.5997L204.9 92.8637L205.172 92.8953L219.508 94.5678C219.508 94.5678 219.508 94.5678 219.508 94.5678C224.536 95.1563 228.304 99.3921 228.304 104.409V128.763C228.304 133.78 224.536 138.016 219.508 138.604L204.968 140.277L204.699 140.308L204.628 140.57C202.595 148.081 199.545 155.269 195.641 162.012L195.505 162.247L195.673 162.46L205.108 174.413L205.109 174.413C208.251 178.375 207.936 184.02 204.363 187.588L187.128 204.801C183.554 208.332 177.899 208.683 173.934 205.547L173.933 205.547L161.802 195.96L161.592 195.794L161.359 195.925C154.485 199.784 147.165 202.749 139.52 204.739L139.255 204.808L139.223 205.08L137.426 220.622C136.837 225.641 132.596 229.406 127.571 229.406H103.187C98.1617 229.406 93.9209 225.642 93.3318 220.622L91.453 204.509L91.4221 204.244L91.1654 204.17C84.0487 202.14 77.2169 199.257 70.7917 195.56L70.5568 195.425L70.3442 195.593L57.8047 205.506L57.8046 205.506C53.8374 208.644 48.184 208.33 44.6115 204.762L27.3764 187.549C23.8411 183.979 23.4891 178.333 26.6294 174.373C26.6294 174.373 26.6294 174.373 26.6295 174.373L36.6364 161.768L36.8041 161.557L36.6712 161.322C33.174 155.149 30.4084 148.569 28.4155 141.745ZM157.094 116.24C157.094 93.8272 138.82 75.5775 116.38 75.5775C93.9395 75.5775 75.6655 93.8272 75.6655 116.24C75.6655 138.652 93.9399 156.902 116.38 156.902C138.82 156.902 157.094 138.652 157.094 116.24Z" stroke="#828282" stroke-width="0.8"/>
<path d="M25.4531 138.251L25.3787 137.996L25.1151 137.966L9.26808 136.13C4.24037 135.541 0.472266 131.306 0.472266 126.288V101.935C0.472266 96.9181 4.23977 92.6826 9.26689 92.0936C9.26729 92.0936 9.26768 92.0935 9.26808 92.0935L24.2979 90.3803L24.5733 90.3489L24.6406 90.08C26.511 82.6084 29.3572 75.4207 33.0982 68.6793L33.2276 68.4462L33.0621 68.237L23.6677 56.3664L23.6674 56.3661C20.5255 52.4044 20.8404 46.7591 24.4127 43.1914L41.6478 25.9785C41.6481 25.9782 41.6484 25.9779 41.6487 25.9776C45.2235 22.4475 50.8778 22.0962 54.8426 25.2326L66.0749 34.1252L66.291 34.2964L66.5279 34.1552C73.6851 29.8908 81.3708 26.6419 89.4223 24.4894L89.6848 24.4193L89.7163 24.1494L91.3501 10.1578C91.9391 5.13755 96.1799 1.37363 101.205 1.37363H125.59C130.615 1.37363 134.855 5.13755 135.444 10.1575L137.078 24.1494L137.11 24.4188L137.372 24.4893C145.22 26.6012 152.703 29.7285 159.697 33.8303L159.933 33.9687L160.148 33.7989L170.972 25.2326C174.939 22.0943 180.592 22.409 184.165 25.9769L201.359 43.149C204.894 46.719 205.246 52.3657 202.106 56.3253L202.106 56.3254L193.283 67.4618L193.117 67.6721L193.248 67.9061C196.989 74.5678 199.917 81.675 201.869 89.1055L201.938 89.3696L202.209 89.4012L216.546 91.0737C216.546 91.0737 216.546 91.0737 216.546 91.0737C221.573 91.6622 225.342 95.8979 225.342 100.915V125.268C225.342 130.286 221.574 134.522 216.546 135.11L202.006 136.782L201.736 136.813L201.665 137.075C199.632 144.587 196.583 151.774 192.678 158.518L192.542 158.753L192.711 158.966L202.146 170.918L202.146 170.919C205.288 174.881 204.973 180.526 201.401 184.094L184.166 201.307C180.591 204.838 174.936 205.189 170.971 202.053L170.971 202.052L158.84 192.466L158.63 192.3L158.396 192.431C151.523 196.29 144.203 199.255 136.557 201.245L136.292 201.314L136.261 201.586L134.464 217.127C133.875 222.147 129.634 225.912 124.609 225.912H100.224C95.1992 225.912 90.9585 222.148 90.3694 217.127L88.4905 201.015L88.4596 200.75L88.203 200.676C81.0863 198.646 74.2544 195.762 67.8292 192.066L67.5943 191.931L67.3817 192.099L54.8423 202.012L54.8422 202.012C50.875 205.15 45.2215 204.836 41.649 201.268L24.4139 184.055C20.8786 180.485 20.5267 174.838 23.6669 170.879C23.6669 170.879 23.667 170.879 23.667 170.879L33.674 158.274L33.8417 158.063L33.7087 157.828C30.2115 151.655 27.446 145.075 25.4531 138.251ZM154.131 112.746C154.131 90.333 135.857 72.0833 113.417 72.0833C90.977 72.0833 72.703 90.333 72.703 112.746C72.703 135.158 90.9775 153.408 113.417 153.408C135.857 153.408 154.131 135.158 154.131 112.746Z" stroke="#828282" stroke-width="0.8"/>
</svg>
