<svg width="69" height="69" viewBox="0 0 69 69" fill="none" xmlns="http://www.w3.org/2000/svg">
  <circle cx="34.832" cy="34.9741" r="34" fill="#F2F2F2"/>
  <path d="M45.0041 32.1498C45.7576 31.3973 46.7623 30.9792 47.832 30.9792C48.9018 30.9792 49.8971 31.3973 50.6599 32.1498C51.4134 32.9024 51.832 33.9057 51.832 34.9741C51.832 36.0425 51.4134 37.0459 50.6599 37.7984C49.9064 38.5509 48.9018 38.969 47.832 38.969C46.7623 38.969 45.7576 38.5509 45.0041 37.7984C44.2506 37.0459 43.832 36.0425 43.832 34.9741C43.832 33.9057 44.2506 32.9024 45.0041 32.1498Z" fill="#1D1D1B"/>
  <path d="M32.0041 32.1498C32.7576 31.3973 33.7623 30.9792 34.832 30.9792C35.9018 30.9792 36.8971 31.3973 37.6599 32.1498C38.4134 32.9024 38.832 33.9057 38.832 34.9741C38.832 36.0425 38.4134 37.0459 37.6599 37.7984C36.9064 38.5509 35.9018 38.969 34.832 38.969C33.7623 38.969 32.7576 38.5509 32.0041 37.7984C31.2506 37.0459 30.832 36.0425 30.832 34.9741C30.832 33.9057 31.2506 32.9024 32.0041 32.1498Z" fill="#1D1D1B"/>
  <path d="M19.0041 32.1498C19.7576 31.3973 20.7623 30.9792 21.832 30.9792C22.9018 30.9792 23.8971 31.3973 24.6599 32.1498C25.4134 32.9024 25.832 33.9057 25.832 34.9741C25.832 36.0425 25.4134 37.0459 24.6599 37.7984C23.9064 38.5509 22.9018 38.969 21.832 38.969C20.7623 38.969 19.7576 38.5509 19.0041 37.7984C18.2506 37.0459 17.832 36.0425 17.832 34.9741C17.832 33.9057 18.2506 32.9024 19.0041 32.1498Z" fill="#1D1D1B"/>
</svg>
