<svg width="68" height="68" viewBox="0 0 68 68" fill="none" xmlns="http://www.w3.org/2000/svg">
  <circle cx="34" cy="34" r="34" fill="#F2F2F2"/>
  <path d="M54 23.7571H52.6667V16.4332H45.3333V15.1016H54V23.7571Z" fill="#1D1D1B" stroke="#1D1D1B" stroke-width="0.6"/>
  <path d="M15.3333 23.7571H14V15.1016H22.6667V16.4332H15.3333V23.7571Z" fill="#1D1D1B" stroke="#1D1D1B" stroke-width="0.6"/>
  <path d="M54 47.0603H45.3333V45.7287H52.6667V38.4048H54V47.0603Z" fill="#1D1D1B" stroke="#1D1D1B" stroke-width="0.6"/>
  <path d="M22.6667 47.0603H14V38.4048H15.3333V45.7287H22.6667V47.0603Z" fill="#1D1D1B" stroke="#1D1D1B" stroke-width="0.6"/>
  <path d="M53.8173 30.6231C53.3954 30.1797 43.3827 19.7627 34 19.7627C24.6173 19.7627 14.6046 30.1797 14.1833 30.6231L13.7473 31.0812L14.1833 31.5392C14.6046 31.9827 24.6167 42.3997 34 42.3997C43.3833 42.3997 53.3954 31.9827 53.8173 31.5392L54.2527 31.0812L53.8173 30.6231ZM34 41.0681C31.4656 41.064 29.0272 40.0995 27.1773 38.3693C25.3275 36.6392 24.2041 34.2724 24.034 31.747H28.0393C28.2077 33.2079 28.9081 34.5561 30.0072 35.5347C31.1064 36.5133 32.5275 37.0541 34 37.0541C35.4725 37.0541 36.8936 36.5133 37.9928 35.5347C39.0919 34.5561 39.7923 33.2079 39.9607 31.747H43.966C43.7961 34.2724 42.6727 36.6393 40.8228 38.3695C38.9729 40.0997 36.5345 41.0642 34 41.0681ZM33.3333 25.1283C32.2083 25.2539 31.1422 25.6963 30.2593 26.404L27.426 23.5744C29.0716 22.1315 31.1482 21.2716 33.3333 21.1282V25.1283ZM34 26.4206C34.923 26.4206 35.8252 26.694 36.5927 27.2061C37.3601 27.7182 37.9582 28.4461 38.3114 29.2977C38.6646 30.1493 38.7571 31.0863 38.577 31.9904C38.3969 32.8945 37.9525 33.7249 37.2998 34.3767C36.6472 35.0285 35.8157 35.4723 34.9104 35.6522C34.0052 35.832 33.0669 35.7397 32.2141 35.387C31.3614 35.0342 30.6326 34.4369 30.1198 33.6704C29.607 32.904 29.3333 32.0029 29.3333 31.0812C29.3347 29.8456 29.8269 28.6609 30.7017 27.7872C31.5766 26.9135 32.7628 26.422 34 26.4206ZM37.7407 26.404C36.8578 25.6963 35.7917 25.2539 34.6667 25.1283V21.1282C36.8518 21.2716 38.9284 22.1315 40.574 23.5744L37.7407 26.404ZM26.4833 24.5158L29.3167 27.3454C28.6081 28.2271 28.1651 29.2918 28.0393 30.4154H24.034C24.1775 28.2331 25.0385 26.1592 26.4833 24.5158ZM39.9607 30.4154C39.8349 29.2918 39.3919 28.2271 38.6833 27.3454L41.5167 24.5158C42.9615 26.1592 43.8225 28.2331 43.966 30.4154H39.9607ZM25.484 23.6369C23.6679 25.6926 22.6657 28.3398 22.6657 31.0812C22.6657 33.8226 23.6679 36.4697 25.484 38.5254C21.8803 36.4852 18.5596 33.9825 15.6066 31.0812C18.5596 28.1798 21.8803 25.6771 25.484 23.6369ZM42.5127 38.5294C44.3303 36.4739 45.3337 33.8261 45.3344 31.0838C45.335 28.3415 44.3327 25.6933 42.516 23.6369C46.1198 25.6774 49.4406 28.18 52.394 31.0812C49.4405 33.9848 46.1184 36.4889 42.5127 38.5294Z" fill="#1D1D1B" stroke="#1D1D1B" stroke-width="0.6"/>
  <path d="M36 31.0808H37.3333C37.3323 30.1983 36.9807 29.3522 36.3558 28.7281C35.731 28.1041 34.8837 27.753 34 27.752V29.0835C34.5304 29.0835 35.0391 29.2939 35.4142 29.6685C35.7893 30.0431 36 30.5511 36 31.0808Z" fill="#1D1D1B" stroke="#1D1D1B" stroke-width="0.6"/>
  <path d="M30.3914 38.9525C30.8295 39.1534 31.2837 39.3171 31.7493 39.4419L32.0947 38.1554C31.7013 38.0489 31.3175 37.9097 30.9473 37.7393L30.3914 38.9525Z" fill="#1D1D1B" stroke="#1D1D1B" stroke-width="0.6"/>
  <path d="M27.4773 34.4307L26.2913 35.0398C26.5121 35.4675 26.7681 35.8761 27.0567 36.2615L28.1234 35.4626C27.8797 35.1371 27.6636 34.792 27.4773 34.4307Z" fill="#1D1D1B" stroke="#1D1D1B" stroke-width="0.6"/>
  <path d="M39.762 35.6125L40.8074 36.438C41.1073 36.0617 41.3749 35.6609 41.6074 35.2397L40.438 34.6006C40.2412 34.956 40.0151 35.2945 39.762 35.6125Z" fill="#1D1D1B" stroke="#1D1D1B" stroke-width="0.6"/>
  <path d="M35.7233 38.2048L36.036 39.4998C36.5043 39.3868 36.9624 39.2349 37.4053 39.0457L36.8807 37.8213C36.5064 37.9816 36.1193 38.1099 35.7233 38.2048Z" fill="#1D1D1B" stroke="#1D1D1B" stroke-width="0.6"/>
</svg>
