<svg width="27" height="14" viewBox="0 0 27 14" fill="none" xmlns="http://www.w3.org/2000/svg">
<path d="M25.0188 2.61999C23.8482 1.45228 22.2936 0.808716 20.6421 0.808716C18.9906 0.808716 17.4462 1.44193 16.2936 2.59176L16.283 2.60209L15.3372 3.50991C14.8879 3.9412 14.8884 4.65994 15.3383 5.09066L15.5519 5.29521C15.9757 5.70091 16.6439 5.70052 17.0672 5.29431L18.0278 4.3725C18.6999 3.70363 19.6528 3.32017 20.6435 3.32017C21.6353 3.32017 22.589 3.70453 23.2602 4.37469C23.9608 5.07936 24.3456 6.0093 24.3456 6.99522C24.3456 7.98504 23.9597 8.91611 23.259 9.61688C22.5843 10.2934 21.6331 10.6819 20.6498 10.6819C19.6456 10.6819 18.7044 10.2955 17.9988 9.59377L10.7359 2.62258C9.56902 1.4529 8.01433 0.808716 6.35807 0.808716C4.70549 0.808716 3.15169 1.453 1.98324 2.62292C0.811609 3.7931 0.166748 5.34795 0.166748 7.00167C0.166748 8.6558 0.810952 10.2094 1.98063 11.3762C3.14877 12.5472 4.70297 13.1914 6.35807 13.1914C8.01326 13.1914 9.55704 12.5575 10.7052 11.4065L10.7174 11.3946L11.6982 10.4538C12.1478 10.0226 12.1475 9.30357 11.6974 8.87274L11.4825 8.66699C11.059 8.26154 10.3912 8.26167 9.96786 8.66734L8.97071 9.62282C8.29956 10.2914 7.34806 10.6747 6.35873 10.6747C5.36646 10.6747 4.41187 10.2891 3.73967 9.6169C3.03988 8.9172 2.65458 7.98782 2.65458 7.00002C2.65458 6.01222 3.04102 5.08173 3.74276 4.3799C4.43798 3.68077 5.36738 3.29478 6.35811 3.29478C7.34354 3.29478 8.2819 3.68826 9.0013 4.40295L16.264 11.3772C17.4325 12.5471 18.9873 13.1914 20.6421 13.1914C22.2961 13.1914 23.8498 12.5472 25.0166 11.3775C26.1888 10.2096 26.8334 8.65499 26.8334 6.99841C26.8334 5.34509 26.189 3.79015 25.0188 2.61999Z" fill="#08DC1B"/>
</svg>
