<svg width="50" height="55" viewBox="0 0 50 55" fill="none" xmlns="http://www.w3.org/2000/svg">
<g clip-path="url(#clip0)">
<path d="M22.3453 1.67346C23.6784 0.910375 25.4148 0.906928 26.7468 1.67346C33.448 5.45998 40.1513 9.24056 46.8513 13.0294C48.1115 13.7392 48.9544 15.1417 48.9416 16.5938V39.3749C48.951 40.8871 48.0248 42.3231 46.6952 43.0169C40.0161 46.7825 33.3404 50.5528 26.6624 54.3184C25.3017 55.0964 23.5304 55.0365 22.2122 54.1947C20.2098 53.0339 18.2039 51.8788 16.2013 50.7192C15.7921 50.4752 15.3308 50.281 15.0419 49.8843C15.2973 49.54 15.754 49.4971 16.1251 49.3468C16.961 49.081 17.7287 48.6543 18.4965 48.2403C18.6907 48.1074 18.9278 48.1584 19.1139 48.2773C20.8262 49.2591 22.5234 50.2694 24.2414 51.2417C24.6079 51.4533 24.979 51.1724 25.2923 50.9978C31.8466 47.2934 38.4089 43.603 44.9621 39.8975C45.2049 39.7807 45.3391 39.5229 45.3194 39.257C45.324 31.742 45.3205 24.2256 45.3217 16.7106C45.3495 16.4088 45.1748 16.1313 44.9019 16.0078C38.246 12.2594 31.5934 8.50524 24.9386 4.75587C24.8233 4.67661 24.6867 4.63407 24.5468 4.63387C24.4069 4.63366 24.2702 4.67579 24.1547 4.75472C17.4998 8.50524 10.8484 12.2628 4.19361 16.0111C3.9217 16.1348 3.73921 16.4076 3.77157 16.7106C3.77272 24.2256 3.77157 31.7419 3.77157 39.2581C3.76003 39.3879 3.78853 39.5181 3.85324 39.6312C3.91795 39.7443 4.01575 39.8348 4.13348 39.8906C5.90936 40.8977 7.68753 41.8976 9.46455 42.9012C10.4657 43.4401 11.6948 43.7602 12.7978 43.3474C13.7711 42.9983 14.4534 42.005 14.4348 40.9716C14.444 33.5004 14.4302 26.0281 14.4417 18.5581C14.4174 18.2264 14.732 17.9524 15.0545 17.9836C15.9078 17.9779 16.7622 17.9721 17.6155 17.9859C17.9717 17.9779 18.2168 18.335 18.1727 18.6691C18.1693 26.1876 18.1819 33.7063 18.167 41.2247C18.1693 43.2285 17.3461 45.4088 15.4926 46.3892C13.2093 47.572 10.3871 47.3212 8.1314 46.187C6.17859 45.2123 4.31502 44.062 2.39687 43.0178C1.06391 42.3279 0.142271 40.8862 0.151654 39.3751V16.5938C0.137675 15.1116 1.01412 13.6837 2.31357 12.9842C8.99157 9.21548 15.6684 5.4439 22.3453 1.67346Z" fill="#676767"/>
<path d="M28.1711 17.4541C31.0837 17.2667 34.2017 17.3431 36.8226 18.7779C38.8518 19.8774 39.9768 22.1851 40.0126 24.4395C39.956 24.7436 39.6381 24.9113 39.3478 24.8904C38.5027 24.8893 37.6575 24.9019 36.8125 24.8847C36.454 24.8985 36.2457 24.568 36.2007 24.2511C35.9578 23.1724 35.3696 22.1041 34.3543 21.5838C32.7958 20.8035 30.9887 20.8427 29.2892 20.859C28.0486 20.9249 26.7144 21.0323 25.6634 21.7619C24.8564 22.3145 24.6113 23.4301 24.8993 24.3286C25.1708 24.9737 25.9155 25.1819 26.5249 25.3738C30.0349 26.2918 33.7544 26.2004 37.1974 27.4085C38.6228 27.901 40.0172 28.8585 40.5052 30.3509C41.1434 32.3512 40.8636 34.7422 39.4405 36.348C38.2864 37.6695 36.6055 38.3887 34.929 38.7794C32.6987 39.2767 30.3842 39.2893 28.1192 39.0685C25.9895 38.8257 23.7732 38.2662 22.129 36.8151C20.7231 35.5943 20.0364 33.6922 20.1046 31.8564C20.1209 31.5464 20.4296 31.3302 20.7266 31.3557C21.5775 31.3488 22.4285 31.3465 23.2795 31.3568C23.6194 31.3325 23.8714 31.6263 23.8888 31.9466C24.0458 32.9744 24.4321 34.053 25.3282 34.6623C27.0578 35.7781 29.2279 35.7017 31.2083 35.733C32.849 35.6602 34.6908 35.6382 36.0297 34.5538C36.7361 33.9352 36.9454 32.9004 36.7544 32.0102C36.5476 31.2586 35.7614 30.9084 35.0862 30.6794C31.6212 29.5833 27.8601 29.981 24.4286 28.7415C23.0355 28.2492 21.6884 27.3183 21.1532 25.8871C20.4064 23.8616 20.7486 21.3561 22.3209 19.8045C23.854 18.2611 26.067 17.6667 28.1711 17.4539V17.4541Z" fill="#676767"/>
</g>
<defs>
<clipPath id="clip0">
<rect width="49.032" height="54" fill="white" transform="translate(0.0358887 0.988037)"/>
</clipPath>
</defs>
</svg>
