<svg width="71" height="42" viewBox="0 0 71 42" fill="none" xmlns="http://www.w3.org/2000/svg">
<g clip-path="url(#clip0)">
<path d="M20.1161 15.2613C20.1161 16.1226 20.2092 16.8209 20.3722 17.3331C20.5584 17.8452 20.7912 18.4039 21.1171 19.0092C21.2335 19.1954 21.2801 19.3816 21.2801 19.5446C21.2801 19.7774 21.1404 20.0102 20.8378 20.243L19.3712 21.2207C19.1617 21.3604 18.9522 21.4302 18.7659 21.4302C18.5332 21.4302 18.3004 21.3138 18.0676 21.1043C17.7417 20.7551 17.4623 20.3826 17.2295 20.0102C16.9967 19.6144 16.7639 19.1721 16.5079 18.6367C14.6921 20.7784 12.4108 21.8492 9.66385 21.8492C7.70841 21.8492 6.14872 21.2905 5.00805 20.1731C3.86738 19.0557 3.2854 17.5659 3.2854 15.7036C3.2854 13.7248 3.98377 12.1186 5.40379 10.9081C6.82381 9.69757 8.70941 9.09232 11.1071 9.09232C11.8986 9.09232 12.7134 9.16215 13.5747 9.27855C14.436 9.39494 15.3207 9.58118 16.2518 9.79069V8.09132C16.2518 6.32211 15.8793 5.08833 15.1577 4.36668C14.4128 3.64503 13.1557 3.29584 11.3632 3.29584C10.5485 3.29584 9.71041 3.38896 8.84908 3.59847C7.98776 3.80798 7.14972 4.06405 6.33495 4.38996C5.96249 4.55291 5.68314 4.64602 5.52019 4.69258C5.35723 4.73914 5.24084 4.76242 5.14772 4.76242C4.82182 4.76242 4.65886 4.52963 4.65886 4.04077V2.9001C4.65886 2.52763 4.70542 2.24829 4.82182 2.08533C4.93821 1.92238 5.14772 1.75943 5.47363 1.59647C6.28839 1.17745 7.26611 0.828266 8.40678 0.548918C9.54746 0.246291 10.758 0.106617 12.0383 0.106617C14.8085 0.106617 16.8338 0.73515 18.1374 1.99222C19.4178 3.24928 20.0696 5.15816 20.0696 7.71885V15.2613H20.1161ZM10.6648 18.7997C11.4331 18.7997 12.2245 18.66 13.0626 18.3806C13.9006 18.1013 14.6456 17.5892 15.2741 16.8908C15.6466 16.4485 15.9259 15.9596 16.0656 15.4009C16.2053 14.8422 16.2984 14.1671 16.2984 13.3757V12.3979C15.6233 12.235 14.9016 12.0953 14.1567 12.0022C13.4118 11.9091 12.6901 11.8625 11.9685 11.8625C10.4088 11.8625 9.26811 12.1651 8.4999 12.7937C7.73169 13.4222 7.35923 14.3068 7.35923 15.4708C7.35923 16.5649 7.63858 17.3796 8.22055 17.9383C8.77925 18.5203 9.59401 18.7997 10.6648 18.7997ZM29.3579 21.3138C28.9389 21.3138 28.6595 21.244 28.4733 21.081C28.2871 20.9413 28.1241 20.6154 27.9844 20.1731L22.5139 2.17845C22.3742 1.71287 22.3044 1.41024 22.3044 1.24729C22.3044 0.874824 22.4906 0.665313 22.8631 0.665313H25.1444C25.5867 0.665313 25.8893 0.73515 26.0523 0.898103C26.2385 1.03778 26.3782 1.36368 26.5179 1.80598L30.4287 17.2167L34.0603 1.80598C34.1767 1.3404 34.3163 1.03778 34.5026 0.898103C34.6888 0.758429 35.0147 0.665313 35.4337 0.665313H37.296C37.7383 0.665313 38.041 0.73515 38.2272 0.898103C38.4134 1.03778 38.5764 1.36368 38.6695 1.80598L42.3476 17.4029L46.3749 1.80598C46.5145 1.3404 46.6775 1.03778 46.8404 0.898103C47.0267 0.758429 47.3293 0.665313 47.7483 0.665313H49.9133C50.2857 0.665313 50.4952 0.851545 50.4952 1.24729C50.4952 1.36368 50.472 1.48008 50.4487 1.61975C50.4254 1.75943 50.3789 1.94566 50.2857 2.20173L44.6755 20.1964C44.5358 20.662 44.3729 20.9646 44.1866 21.1043C44.0004 21.244 43.6978 21.3371 43.302 21.3371H41.3C40.8577 21.3371 40.5551 21.2672 40.3689 21.1043C40.1826 20.9413 40.0197 20.6387 39.9266 20.1731L36.3183 5.15816L32.7334 20.1498C32.617 20.6154 32.4773 20.9181 32.2911 21.081C32.1048 21.244 31.7789 21.3138 31.3599 21.3138H29.3579ZM59.2714 21.9423C58.0609 21.9423 56.8504 21.8027 55.6865 21.5233C54.5225 21.244 53.6146 20.9413 53.0094 20.5921C52.6369 20.3826 52.3808 20.1498 52.2877 19.9403C52.1946 19.7308 52.1481 19.498 52.1481 19.2885V18.1013C52.1481 17.6124 52.3343 17.3796 52.6835 17.3796C52.8231 17.3796 52.9628 17.4029 53.1025 17.4495C53.2422 17.496 53.4517 17.5892 53.6845 17.6823C54.476 18.0315 55.3373 18.3108 56.2452 18.497C57.1763 18.6833 58.0842 18.7764 59.0154 18.7764C60.4819 18.7764 61.6226 18.5203 62.4141 18.0082C63.2056 17.496 63.6246 16.7511 63.6246 15.7967C63.6246 15.1449 63.4151 14.6094 62.9961 14.1671C62.5771 13.7248 61.7856 13.3291 60.6449 12.9566L57.2694 11.9091C55.5701 11.3737 54.313 10.5822 53.5448 9.53462C52.7766 8.51034 52.3808 7.36967 52.3808 6.15916C52.3808 5.18144 52.5904 4.32012 53.0094 3.57519C53.4284 2.83026 53.9871 2.17845 54.6855 1.66631C55.3838 1.13089 56.1753 0.73515 57.1065 0.455802C58.0376 0.176454 59.0154 0.0600586 60.0396 0.0600586C60.5518 0.0600586 61.0872 0.0833376 61.5993 0.153175C62.1348 0.223012 62.6236 0.316128 63.1125 0.409244C63.5781 0.525639 64.0204 0.642034 64.4394 0.781708C64.8584 0.921382 65.1843 1.06106 65.4171 1.20073C65.743 1.38696 65.9758 1.57319 66.1155 1.78271C66.2551 1.96894 66.325 2.22501 66.325 2.55091V3.64503C66.325 4.13389 66.1387 4.38996 65.7896 4.38996C65.6033 4.38996 65.3007 4.29684 64.905 4.11061C63.5781 3.50535 62.0882 3.20273 60.4354 3.20273C59.1085 3.20273 58.0609 3.41224 57.3393 3.85454C56.6176 4.29684 56.2452 4.97193 56.2452 5.92637C56.2452 6.57818 56.478 7.13688 56.9435 7.57918C57.4091 8.02148 58.2704 8.46378 59.5042 8.85953L62.8098 9.90708C64.4859 10.4425 65.6964 11.1874 66.4181 12.1419C67.1397 13.0963 67.4889 14.1904 67.4889 15.4009C67.4889 16.4019 67.2794 17.3098 66.8837 18.1013C66.4647 18.8928 65.906 19.5912 65.1843 20.1498C64.4627 20.7318 63.6013 21.1508 62.6003 21.4535C61.5528 21.7794 60.4587 21.9423 59.2714 21.9423Z" fill="#676767"/>
<path d="M63.6711 33.256C56.0123 38.9128 44.8849 41.9158 35.3172 41.9158C21.9085 41.9158 9.82669 36.9574 0.701316 28.7166C-0.0203337 28.0648 0.631479 27.1802 1.4928 27.6923C11.3631 33.419 23.538 36.8875 36.132 36.8875C44.6288 36.8875 53.9637 35.1183 62.5537 31.4868C63.834 30.9048 64.9281 32.3248 63.6711 33.256Z" fill="#676767"/>
<path d="M66.8604 29.6244C65.8827 28.3674 60.3889 29.0192 57.898 29.3218C57.1531 29.4149 57.0367 28.7631 57.7118 28.2742C62.0882 25.2014 69.2814 26.086 70.1194 27.1103C70.9575 28.1578 69.8866 35.351 65.7895 38.7963C65.161 39.3317 64.5558 39.0524 64.8351 38.354C65.7663 36.0494 67.8381 30.8582 66.8604 29.6244Z" fill="#676767"/>
</g>
<defs>
<clipPath id="clip0">
<rect width="70" height="41.86" fill="white" transform="translate(0.398804 0.0578613)"/>
</clipPath>
</defs>
</svg>
