<svg width="45" height="55" viewBox="0 0 45 55" fill="none" xmlns="http://www.w3.org/2000/svg">
<g clip-path="url(#clip0)">
<path d="M3.59757 9.72192L0.00500488 11.5186V43.051L3.59757 44.8371L3.61917 44.8112V9.74666L3.59757 9.72192Z" fill="#404040"/>
<path d="M22.8247 40.2604L3.5979 44.8371V9.72192L22.8247 14.1989V40.2604Z" fill="#676767"/>
<path d="M14.1459 33.095L22.3013 34.1332L22.3525 34.0151L22.3983 20.6424L22.3013 20.5378L14.1459 21.561V33.095Z" fill="#404040"/>
<path d="M22.3013 40.3118L41.0046 44.8469L41.034 44.8L41.0335 9.75328L41.0039 9.72192L22.3013 14.2502V40.3118Z" fill="#404040"/>
<path d="M30.4589 33.095L22.3013 34.1332V20.5378L30.4589 21.561V33.095Z" fill="#676767"/>
<path d="M30.4589 15.9833L22.3012 17.47L14.1459 15.9833L22.291 13.8484L30.4589 15.9833Z" fill="#282828"/>
<path d="M30.4589 38.6578L22.3012 37.1614L14.1459 38.6578L22.2913 40.9315L30.4589 38.6578Z" fill="#AAAAAA"/>
<path d="M14.1459 15.9833L22.3012 13.9651L22.3673 13.9447V0.42464L22.3012 0.370117L14.1459 4.44852V15.9833Z" fill="#404040"/>
<path d="M30.4589 15.9833L22.3013 13.9651V0.370117L30.4589 4.44852V15.9833Z" fill="#676767"/>
<path d="M22.3013 54.2706L14.1451 50.1936V38.6589L22.3013 40.6765L22.4213 40.8128L22.3888 54.0352L22.3013 54.2706Z" fill="#404040"/>
<path d="M22.3013 54.2705L30.4582 50.1935V38.659L22.3013 40.6765V54.2705ZM41.0046 9.72192L44.5987 11.5186V43.0511L41.0046 44.847V9.72192Z" fill="#676767"/>
</g>
<defs>
<clipPath id="clip0">
<rect width="44.604" height="54" fill="white" transform="translate(0 0.370117)"/>
</clipPath>
</defs>
</svg>
