<svg width="150" height="25" viewBox="0 0 150 25" fill="none" xmlns="http://www.w3.org/2000/svg">
<path d="M124.963 15.5055C126.537 13.7011 127.935 12.0132 129.451 10.3252C132.015 7.47319 134.638 4.67936 137.668 2.35116C138.601 1.65271 139.591 0.837838 140.932 1.01245C142.797 1.30348 144.079 2.29296 144.837 4.0391C145.07 4.62115 145.011 5.08679 144.603 5.61063C142.039 8.98651 139.883 12.6534 138.775 16.786C138.659 17.1934 138.601 17.659 138.601 18.1247C138.601 18.7067 139.009 18.9395 139.533 18.6485C140.174 18.2411 140.815 17.8336 141.34 17.3098C143.321 15.3308 145.244 13.2937 147.168 11.2565C147.751 10.6745 148.1 10.558 148.625 11.0237C149.266 11.5475 149.441 12.3042 149.033 12.828C146.294 16.0875 143.613 19.4052 140.174 22.0244C139.125 22.8393 137.901 23.5377 136.619 24.0616C134.171 25.1092 132.073 23.7705 131.84 21.1513C131.665 18.9977 132.365 17.0188 133.122 15.098C134.579 11.6057 136.502 8.34626 138.601 5.14499C137.726 5.95986 136.794 6.71652 135.978 7.53139C131.549 11.8385 127.353 16.4367 123.681 21.3841C123.215 22.0244 122.807 22.6646 122.457 23.3631C121.874 24.4108 120.883 24.7018 119.834 24.0616C118.552 23.2467 118.144 21.908 118.028 20.5111C117.969 19.8708 118.086 19.2306 118.086 18.5903C116.862 19.6962 115.697 20.8603 114.356 21.8498C113.249 22.6646 112.025 23.4213 110.743 24.0034C108.178 25.1092 106.08 23.7705 105.905 20.9767C105.789 18.8813 106.488 16.9606 107.246 15.0398C108.645 11.5475 110.568 8.34626 112.666 5.14499C111.792 5.95986 110.859 6.71652 110.043 7.53139C105.614 11.8385 101.418 16.4367 97.7463 21.3841C97.28 22.0244 96.8721 22.6646 96.5224 23.3631C95.9396 24.4108 94.9488 24.7018 93.8998 24.0616C92.6176 23.2467 92.2097 21.908 92.0931 20.5111C92.0348 19.8708 92.1514 19.2306 92.1514 18.5903C90.9275 19.6962 89.7619 20.8603 88.4215 21.8498C87.3141 22.6646 86.0903 23.4213 84.8081 24.0034C82.2438 25.1092 80.1457 23.7123 79.9709 20.9767C79.8543 18.8813 80.4954 16.9024 81.3113 15.0398C82.0689 13.3519 82.8849 11.6057 83.8173 9.97599C84.7498 8.34626 85.7989 6.77473 86.7313 5.14499C85.8571 5.95986 84.9247 6.71652 84.1087 7.53139C79.6795 11.8385 75.4833 16.4367 71.8117 21.3841C71.3454 22.0244 70.9375 22.6646 70.5878 23.3631C70.005 24.4108 69.0142 24.7018 67.9652 24.0616C66.683 23.2467 66.2751 21.908 66.1585 20.5111C66.1002 19.8708 66.2168 19.2888 66.2751 18.4739C65.9254 18.8231 65.6922 19.0559 65.4008 19.347C63.4776 21.2095 61.5544 23.0139 58.99 24.0034C56.3092 25.051 54.2111 23.7123 54.0362 20.8603C53.9197 18.8231 54.619 16.9024 55.3767 15.0398C56.7171 11.7221 58.5238 8.63728 60.5636 5.78525C60.6802 5.61063 60.7967 5.43602 60.7967 5.14499C59.9225 5.95986 58.9901 6.71652 58.1741 7.53139C53.9197 11.8385 49.7235 16.4367 46.0519 21.3841C45.5856 22.0244 45.1777 22.6646 44.828 23.3631C44.2452 24.4108 43.2544 24.7018 42.2054 24.0616C40.9232 23.2467 40.5153 21.908 40.457 20.5111C40.3987 19.7544 40.5736 18.9395 40.6318 18.1247C39.8742 18.7649 39.1166 19.4052 38.3006 20.0454C35.7363 22.0244 32.9972 23.7123 29.7335 24.178C28.3348 24.4108 26.8195 24.4108 25.4208 24.0616C22.0405 23.2467 20.2338 20.2782 20.9332 16.7278C22.2154 10.0924 25.8287 5.02859 31.6567 1.5945C32.7058 0.954248 34.0462 0.605019 35.2701 0.488609C39.7576 0.0229708 42.6716 3.86449 40.9232 7.99703C39.2331 12.0714 33.8131 15.4472 29.3838 14.9816C28.801 14.9234 28.2765 14.807 27.6354 14.6906C27.2857 15.7965 27.1109 16.9024 27.344 18.0665C27.5188 18.9395 28.0434 19.4634 28.9758 19.638C30.8991 19.9872 32.6475 19.4634 34.3376 18.7067C37.8344 17.077 40.6901 14.6906 43.1379 11.7803C44.1869 10.4998 44.828 8.8119 45.7605 7.41498C47.0426 5.49422 48.4414 3.57346 49.8401 1.76912C50.5977 0.779633 51.2971 0.721429 52.4044 1.41989C52.8124 1.65271 53.162 2.00193 53.4534 2.35116C54.3276 3.34065 54.3276 3.80628 53.5117 4.79577C51.1222 7.99703 49.0824 11.4893 47.3923 15.098C47.334 15.1562 47.334 15.2726 47.2758 15.4472C48.8493 13.6429 50.248 11.955 51.7633 10.267C54.3276 7.41498 56.9502 4.62115 59.9808 2.29296C60.9133 1.5945 61.904 0.779633 63.2445 0.954248C65.1095 1.24527 66.3916 2.23475 67.1493 3.9809C67.3824 4.56295 67.3241 5.02858 66.9161 5.55243C64.3518 8.92831 62.1955 12.5952 61.0881 16.7278C60.9133 17.3098 60.855 18.2411 61.2047 18.5321C61.7875 18.9977 62.4286 18.2993 62.8365 17.8918C64.9346 15.8547 67.091 13.8175 69.0725 11.6057C70.1215 10.3834 70.6461 8.75369 71.5785 7.41498C72.8607 5.43602 74.2594 3.57346 75.7164 1.71091C76.4741 0.721429 77.1734 0.663224 78.2225 1.36168C78.6304 1.5945 79.0384 1.94373 79.3881 2.35116C80.2623 3.34065 80.2623 3.74808 79.4463 4.79577C76.9403 7.99703 74.9588 11.4893 73.2687 15.1562C73.2104 15.2144 73.2104 15.3308 73.1521 15.5055C74.7257 13.7011 76.1244 12.0132 77.6397 10.3252C80.204 7.47319 82.8266 4.67936 85.8571 2.35116C86.7896 1.65271 87.7804 0.837838 89.1208 1.01245C90.9858 1.30348 92.2679 2.29296 93.0256 4.0391C93.2587 4.62115 93.2004 5.08679 92.7925 5.61063C90.2281 8.98651 88.0718 12.6534 86.9645 16.786C86.8479 17.1934 86.7896 17.6008 86.7896 17.9501C86.7896 18.7067 87.1976 18.9395 87.7804 18.5321C88.3632 18.1829 88.946 17.7754 89.4122 17.3098C91.2189 15.5055 93.0839 13.7593 94.7157 11.8385C95.823 10.558 96.4641 8.8701 97.3966 7.41498C98.6787 5.49422 100.077 3.57346 101.534 1.71091C102.292 0.721429 102.991 0.721429 104.041 1.36168C104.448 1.5945 104.856 1.94373 105.206 2.35116C106.08 3.34065 106.08 3.74808 105.264 4.79577C102.817 7.99703 100.835 11.4893 99.145 15.1562C99.0867 15.2144 99.0867 15.3308 99.0867 15.5055C100.835 13.5265 102.409 11.5475 104.215 9.68497C106.605 7.24037 109.169 4.85397 111.675 2.46757C112.025 2.11834 112.433 1.94373 112.841 1.65271C115.114 -0.0934389 118.494 1.94373 119.077 4.33013C119.193 4.67936 119.018 5.2614 118.785 5.55243C116.221 8.98651 114.065 12.6534 112.899 16.786C112.783 17.1352 112.724 17.5426 112.724 17.8918C112.666 18.7067 113.132 18.9977 113.773 18.5321C114.356 18.1829 114.939 17.7754 115.463 17.2516C117.212 15.5055 119.077 13.8175 120.65 11.8968C121.758 10.558 122.399 8.8701 123.389 7.41498C124.672 5.49422 126.07 3.57346 127.527 1.71091C128.285 0.721429 128.984 0.663224 130.033 1.36168C130.441 1.5945 130.849 1.94373 131.199 2.35116C132.073 3.34065 132.073 3.80628 131.257 4.79577C128.81 7.99703 126.828 11.4893 125.138 15.098C125.021 15.2144 124.963 15.3308 124.963 15.5055ZM28.2765 12.8862C29.0924 12.7116 29.7335 12.7116 30.3163 12.4206C33.6382 10.9655 35.6198 8.22985 37.0185 4.97038C37.2516 4.38833 37.6596 3.63167 37.0185 3.16603C36.4357 2.7586 35.7363 3.16603 35.2701 3.63167C34.0462 4.73756 32.8806 5.84345 31.8316 7.06575C30.3746 8.69549 29.209 10.6162 28.2765 12.8862Z" fill="#1D1D1B"/>
<path d="M15.5132 5.37776C13.5317 5.72699 11.6084 5.9016 9.80175 6.30904C8.92755 6.48365 5.37247 7.1239 4.67311 5.9016C4.09031 5.08674 4.61483 3.86443 4.67311 3.51521C4.78967 2.93316 4.73139 2.2929 4.90623 1.76906C5.08107 1.30342 5.48903 1.24522 5.95527 1.41983C6.47979 1.65265 7.06259 1.94368 7.58711 2.00188C11.6667 2.2929 15.7463 2.2347 19.7676 1.41983C19.8259 1.41983 19.9425 1.36163 20.0008 1.36163C21.7492 0.954194 22.1571 1.12881 23.0313 2.75854C23.2644 3.22418 23.4393 3.68982 23.4976 4.15546C23.5558 4.44648 23.381 4.91212 23.0896 5.08674C18.0775 9.10287 13.3568 13.5846 8.63615 18.0082C8.40303 18.241 8.11163 18.4156 7.82023 18.6485C7.87851 18.7067 7.93679 18.7067 7.99507 18.7649C8.86927 18.7649 9.74347 18.7067 10.676 18.7649C11.9581 18.8231 13.2986 18.8813 14.5807 19.0559C16.1543 19.3469 17.3199 20.8602 17.3199 22.3736C17.3199 23.3048 17.0868 23.4213 16.3291 23.0138C15.9794 22.8392 15.6298 22.781 15.2218 22.781C12.5409 22.6064 9.91831 23.072 7.29571 23.5959C6.36323 23.7705 5.37247 24.0033 4.43999 24.2361C3.68235 24.4107 2.92471 24.3525 2.28363 23.8287C1.05975 22.8392 0.24383 21.6169 0.0107099 20.0454C-0.0475701 19.4051 0.12727 18.8813 0.65179 18.3574C4.61483 14.8069 8.51959 11.2564 12.4826 7.70595C13.4151 6.94929 14.4642 6.25083 15.5132 5.37776Z" fill="#1D1D1B"/>
</svg>
