<svg width="176" height="51" viewBox="0 0 176 51" fill="none" xmlns="http://www.w3.org/2000/svg">
<g clip-path="url(#clip0)">
<path fill-rule="evenodd" clip-rule="evenodd" d="M163.575 21.0772C163.417 21.1087 163.259 21.4563 163.259 21.6456C163.228 22.9098 163.196 26.2593 163.196 28.5343C163.196 28.5976 163.291 28.724 163.386 28.724C163.86 28.7555 164.997 28.787 165.977 28.787C167.335 28.787 168.125 28.5976 168.568 28.4083C169.705 27.8392 170.242 26.6068 170.242 25.2478C170.242 22.1832 168.094 21.0139 164.902 21.0139C164.681 20.9824 164.05 20.9824 163.575 21.0772ZM171.728 35.2017C171.728 32.0735 169.421 30.3354 165.25 30.3354C165.06 30.3354 163.733 30.3039 163.417 30.3669C163.322 30.3987 163.196 30.4621 163.196 30.5569C163.196 32.8001 163.164 36.3711 163.259 37.7613C163.322 38.3615 163.765 39.2148 164.302 39.4675C164.871 39.7836 166.166 39.8466 167.051 39.8466C169.547 39.8466 171.728 38.4564 171.728 35.2017ZM157.129 19.3395C157.445 19.3395 158.393 19.434 160.826 19.434C163.133 19.434 164.966 19.371 167.209 19.371C169.958 19.371 173.75 20.3503 173.75 24.4582C173.75 26.4805 172.328 28.0922 170.464 28.8822C170.369 28.9137 170.369 28.9767 170.464 29.0082C173.118 29.6721 175.456 31.315 175.456 34.4115C175.456 37.4452 173.56 39.3727 170.811 40.5735C169.136 41.3001 167.051 41.5528 164.934 41.5528C163.322 41.5528 158.994 41.3635 156.592 41.4268C156.339 41.3316 156.813 40.1941 157.034 40.0048C157.603 39.9729 158.045 39.9414 158.646 39.7517C159.499 39.5309 159.594 39.2778 159.72 37.9825C159.783 36.8765 159.783 32.9579 159.783 30.1775C159.783 26.3541 159.815 23.7631 159.783 22.4992C159.752 21.5199 159.404 21.2036 158.709 21.0139C158.172 20.9193 157.287 20.7927 156.56 20.6981C156.402 20.54 156.939 19.4655 157.129 19.3395ZM138.897 38.9936C139.655 39.5935 141.14 39.8462 142.468 39.8462C144.174 39.8462 145.88 39.5309 147.523 38.0451C149.198 36.5289 150.367 34.1906 150.367 30.4621C150.367 26.891 149.008 23.9839 146.228 22.278C144.648 21.2981 142.625 20.8878 140.287 20.8878C139.592 20.8878 138.928 20.9193 138.518 21.1087C138.423 21.172 138.202 21.4563 138.202 21.6141C138.139 22.2462 138.139 27.1122 138.139 29.9563C138.139 32.8949 138.139 37.0028 138.202 37.4767C138.202 37.951 138.423 38.6776 138.897 38.9936H138.897ZM131.724 19.3391C132.324 19.3391 134.631 19.434 135.737 19.434C137.728 19.434 139.15 19.3395 142.91 19.3395C146.069 19.3395 148.724 20.1924 150.62 21.8038C152.926 23.7946 154.127 26.5438 154.127 29.893C154.127 34.6645 151.947 37.4137 149.767 38.9936C147.587 40.605 144.743 41.5528 140.698 41.5528C138.549 41.5528 134.852 41.4898 131.787 41.458H131.756C131.598 41.1738 132.008 40.0678 132.261 40.0363C133.083 39.9414 133.304 39.9096 133.715 39.7521C134.378 39.499 134.505 39.1515 134.6 37.9825C134.694 35.802 134.663 33.1795 134.663 30.209C134.663 28.0922 134.694 23.9524 134.631 22.6253C134.536 21.5196 134.062 21.2351 133.114 21.0454C132.64 20.9508 132.008 20.8242 131.124 20.7297C130.997 20.5081 131.566 19.5288 131.724 19.3395V19.3391Z" fill="#404040"/>
<path fill-rule="evenodd" clip-rule="evenodd" d="M93.4899 40.2256C92.6999 40.1308 92.1312 40.0048 91.4361 39.6887C91.3412 39.6254 91.183 39.3097 91.183 39.183C91.12 38.077 91.12 34.9172 91.12 32.8004C91.12 31.0938 90.8358 29.6088 90.1089 28.5661C89.2556 27.3649 88.0236 26.6702 86.4434 26.6702C85.0532 26.6702 83.1887 27.618 81.6404 28.9452C81.6088 28.9767 81.3561 29.1982 81.3876 28.8503C81.3876 28.5028 81.451 27.8077 81.4825 27.3334C81.5143 26.891 81.2613 26.6702 81.2613 26.6702C80.2502 27.1756 77.4064 27.8392 76.3634 27.9337C75.6053 28.0922 75.4156 28.8188 76.2059 29.0715H76.2374C77.09 29.3242 77.6591 29.6088 78.1012 29.8933C78.4172 30.146 78.3857 30.4936 78.3857 30.7781C78.4172 33.1476 78.4172 36.7816 78.3227 38.7724C78.2912 39.5624 78.07 39.8466 77.5009 39.9729L77.5643 39.9414C77.1219 40.0363 76.7743 40.1308 76.2371 40.1941C76.0474 40.3838 76.0474 41.395 76.2371 41.6162C76.5846 41.6162 78.4172 41.5213 79.9344 41.5213C82.0197 41.5213 83.0942 41.6162 83.6311 41.6162C83.8523 41.3635 83.9157 40.4153 83.7893 40.1941C83.1887 40.1626 82.7463 40.0996 82.3358 39.9729C81.767 39.8462 81.6088 39.5624 81.577 38.8988C81.5143 37.2237 81.5143 33.6848 81.5143 31.2835C81.5143 30.6199 81.7037 30.3039 81.893 30.1142C82.62 29.4824 83.7893 29.04 84.832 29.04C85.8431 29.04 86.5064 29.3561 87.0121 29.767C87.7072 30.3354 87.9284 31.1571 88.0233 31.7574C88.1811 33.1161 88.1181 35.802 88.1181 38.1403C88.1181 39.4042 88.0233 39.7202 87.5497 39.8781C87.3282 39.9729 86.7594 40.0996 86.0958 40.1623C85.8746 40.3838 85.938 41.3635 86.0958 41.5847C87.0121 41.5847 88.0866 41.4898 89.6665 41.4898C91.6255 41.4898 92.8896 41.5847 93.3954 41.5847C93.5529 41.395 93.6162 40.4787 93.4899 40.2256ZM102.243 28.1556C100.568 28.1556 99.5253 29.4509 99.5253 31.4729C99.5253 33.527 100.442 35.8968 103.033 35.8968C103.475 35.8968 104.297 35.7071 104.675 35.2647C105.276 34.6963 105.687 33.5585 105.687 32.3577C105.687 29.7351 104.391 28.1552 102.243 28.1552V28.1556ZM102.021 42.1216C101.39 42.1216 100.947 42.3113 100.663 42.4695C99.3356 43.3221 98.7353 44.1439 98.7353 45.1238C98.7353 46.0398 99.0829 46.7664 99.8413 47.3985C100.758 48.1884 102.021 48.5678 103.633 48.5678C106.856 48.5678 108.278 46.8297 108.278 45.1238C108.278 43.9227 107.677 43.1327 106.445 42.6907C105.561 42.3113 103.949 42.1216 102.021 42.1216ZM102.243 50.3374C100.315 50.3374 98.9247 49.9265 97.7242 49.0102C96.5548 48.1254 96.0494 46.7982 96.0494 45.882C96.0494 45.6292 96.1128 44.9338 96.6815 44.302C97.0287 43.9227 97.7875 43.1961 99.5886 41.9637C99.6516 41.9322 99.6831 41.9007 99.6831 41.837C99.6831 41.774 99.6198 41.7107 99.5568 41.6795C98.0717 41.1108 97.6293 40.1941 97.5026 39.6887V39.6254C97.4715 39.4357 97.4081 39.2463 97.6927 39.0566C97.9139 38.8988 98.2299 38.7091 98.5771 38.4882C99.1144 38.1718 99.6831 37.8243 100.031 37.5397C100.094 37.4767 100.094 37.4137 100.094 37.3504C100.094 37.287 100.031 37.2237 99.9673 37.1925C97.756 36.4656 96.65 34.8223 96.65 32.3577C96.65 30.7463 97.3766 29.2927 98.672 28.3764C99.5568 27.6813 101.769 26.828 103.222 26.828H103.317C104.802 26.8595 105.624 27.1756 106.793 27.5865C107.425 27.8077 108.025 27.9022 108.847 27.9022C110.079 27.9022 110.616 27.5231 111.058 27.0811C111.09 27.1441 111.154 27.3023 111.185 27.7128C111.217 28.1237 111.09 28.724 110.774 29.1664C110.521 29.5139 109.953 29.767 109.384 29.767H109.226C108.657 29.7036 108.404 29.6403 108.404 29.6403L108.278 29.7036C108.247 29.767 108.278 29.83 108.31 29.9248L108.341 29.9882C108.404 30.2724 108.531 31.1253 108.531 31.3468C108.531 33.9379 107.488 35.075 106.382 35.9283C105.308 36.7183 104.076 37.2237 102.685 37.3504C102.654 37.3504 102.528 37.3504 102.243 37.3819C102.085 37.3819 101.864 37.4137 101.832 37.4137H101.8C101.548 37.4767 100.916 37.7928 100.916 38.3297C100.916 38.8036 101.2 39.3727 102.559 39.4675C102.843 39.499 103.127 39.499 103.443 39.5309C105.245 39.6569 107.488 39.8151 108.531 40.1626C109.984 40.6995 110.901 41.9952 110.901 43.5436C110.901 45.8823 109.226 48.0624 106.445 49.4208C105.087 50.0214 103.728 50.3374 102.243 50.3374ZM120.254 28.3134C119.59 28.3134 118.99 28.4709 118.547 28.787C117.315 29.5454 116.683 31.0623 116.683 33.2739C116.683 37.4137 118.769 40.3208 121.739 40.3208C122.624 40.3208 123.319 40.0678 123.919 39.5624C124.835 38.8036 125.31 37.287 125.31 35.1699C125.31 31.0623 123.256 28.3131 120.254 28.3131L120.254 28.3134ZM120.823 41.8374C115.451 41.8374 113.523 37.8876 113.523 34.1906C113.523 31.5995 114.566 29.6088 116.651 28.1867C118.137 27.2704 119.906 26.765 121.486 26.765C125.594 26.765 128.469 29.7036 128.469 33.9379C128.469 36.8131 127.332 39.0881 125.151 40.4787C124.109 41.1738 122.308 41.8374 120.822 41.8374H120.823ZM64.5142 28.3131C63.8506 28.3131 63.2504 28.4709 62.8076 28.787C61.5756 29.5454 60.9435 31.0623 60.9435 33.2739C60.9435 37.4137 63.0288 40.3208 65.9993 40.3208C66.8841 40.3208 67.5792 40.0678 68.1798 39.5624C69.0957 38.8036 69.5699 37.287 69.5699 35.1699C69.5699 31.0623 67.5477 28.3131 64.5142 28.3131ZM65.083 41.8374C59.7112 41.8374 57.7838 37.8876 57.7838 34.1906C57.7838 31.5995 58.8264 29.6088 60.9117 28.1867C62.3971 27.2704 64.1667 26.765 65.7466 26.765C69.8545 26.765 72.7297 29.7036 72.7297 33.9379C72.7297 36.8131 71.5922 39.0881 69.4118 40.4787C68.4006 41.1738 66.5995 41.8374 65.083 41.8374ZM28.9659 41.5213C28.9026 41.4268 28.8393 41.1423 28.8711 40.7947C28.8711 40.5417 28.9344 40.3838 28.9659 40.3208C29.6295 40.2256 29.9771 40.1308 30.3561 40.0363C30.9882 39.8781 31.2409 39.5309 31.2724 38.7409C31.3676 36.845 31.3676 33.2424 31.3358 30.7463V30.6829C31.3358 30.3987 31.3358 30.0508 30.9882 29.7981C30.4825 29.4824 29.8822 29.1982 29.0923 28.9763C28.8081 28.8822 28.6184 28.724 28.6499 28.5346C28.6499 28.3449 28.8396 28.1237 29.2505 28.0604C30.2931 27.9655 33.0102 27.3023 34.0847 26.828C34.148 26.891 34.2429 27.0811 34.2429 27.3338L34.2114 27.681C34.1795 28.0289 34.148 28.4398 34.148 28.8503C34.148 28.9767 34.2747 29.0715 34.4007 29.0715C34.4641 29.0715 34.5274 29.04 34.5904 29.0082C36.6127 27.4283 38.4453 26.8595 39.3931 26.8595C40.9418 26.8595 42.1427 27.5865 43.059 29.103C43.122 29.1982 43.1853 29.2297 43.2802 29.2297C43.3432 29.2297 43.4377 29.1982 43.4695 29.1349C45.334 27.7128 47.1984 26.8595 48.4304 26.8595C51.369 26.8595 53.1071 29.04 53.1071 32.737C53.1071 33.7797 53.1071 35.1384 53.0756 36.3711C53.0756 37.4767 53.0441 38.4879 53.0441 39.2148C53.0441 39.3723 53.2649 39.8781 53.6125 39.9729C54.0549 40.1941 54.6555 40.289 55.4454 40.4153H55.4769C55.5403 40.6365 55.4139 41.458 55.2876 41.6162C55.0979 41.6162 54.8133 41.6162 54.4976 41.5847C53.6977 41.5429 52.8969 41.5218 52.0959 41.5213C50.137 41.5213 49.1258 41.5528 48.1459 41.6162C48.0832 41.3635 48.0514 40.605 48.1459 40.4153C48.715 40.3208 48.9992 40.2256 49.347 40.1311C49.9791 39.9414 50.137 39.6569 50.1688 38.8354C50.1688 38.2352 50.2948 33.1161 50.1051 31.8838C49.9158 30.6199 48.9677 29.1349 46.882 29.1349C46.0921 29.1349 44.8601 29.4509 43.6592 30.3669C43.5962 30.4302 43.5325 30.5881 43.5325 30.6829V30.7148C43.6592 31.378 43.6592 32.1368 43.6592 33.3058V35.3596C43.6592 36.7816 43.6274 38.1088 43.6592 39.1196C43.6592 39.8151 44.0701 39.9729 44.4177 40.0996C44.6074 40.1308 44.7334 40.1626 44.8916 40.1941C45.1758 40.2575 45.4603 40.3208 45.9027 40.4153C45.9661 40.542 45.9661 40.9526 45.8712 41.3001C45.8394 41.4898 45.776 41.5843 45.7445 41.6162C44.6704 41.5847 43.5644 41.5528 41.953 41.5528C41.4791 41.5528 40.6573 41.5847 39.9622 41.5847C39.3931 41.5847 38.8562 41.6162 38.5405 41.6162C38.5086 41.5528 38.4453 41.332 38.4453 40.9841C38.4453 40.6999 38.5086 40.4787 38.572 40.4153C38.7298 40.3838 38.8562 40.3523 39.0144 40.3523C39.3931 40.289 39.7095 40.2256 40.0252 40.1626C40.5628 40.0048 40.7521 39.7202 40.7836 39.0251C40.8785 37.4452 40.9733 32.9267 40.7521 31.7889C40.3731 29.9563 39.3304 29.04 37.6554 29.04C36.6761 29.04 35.4434 29.5139 34.4326 30.2727C34.2744 30.3987 34.148 30.7144 34.148 30.999V32.8634C34.148 35.1384 34.148 37.9825 34.1795 39.2148C34.2114 39.5935 34.3374 40.0363 35.0643 40.1941C35.2225 40.2256 35.4752 40.289 35.7913 40.3208L36.3597 40.4153C36.4234 40.605 36.3915 41.3635 36.2652 41.6162C35.9491 41.6162 35.5701 41.5847 35.1273 41.5847C34.4641 41.5528 33.6108 41.5213 32.663 41.5213C31.557 41.5213 30.767 41.5528 30.1349 41.5847C29.6925 41.5213 29.345 41.5213 28.9659 41.5213Z" fill="#676767"/>
<path fill-rule="evenodd" clip-rule="evenodd" d="M12.3449 49.105L11.0495 48.6623C11.0495 48.6623 11.2077 42.0585 8.83755 41.5846C7.25799 39.7517 9.09093 -36.1476 14.7784 41.3316C14.7784 41.3316 12.8191 42.3109 12.4716 43.986C12.0922 45.6292 12.3449 49.105 12.3449 49.105Z" fill="white"/>
<path fill-rule="evenodd" clip-rule="evenodd" d="M12.3449 49.105L11.0495 48.6623C11.0495 48.6623 11.2077 42.0585 8.83755 41.5846C7.25799 39.7517 9.09093 -36.1476 14.7784 41.3316C14.7784 41.3316 12.8191 42.3109 12.4716 43.986C12.0922 45.6292 12.3449 49.105 12.3449 49.105Z" fill="#676767"/>
<path fill-rule="evenodd" clip-rule="evenodd" d="M13.0402 42.7222C13.0402 42.7222 24.3844 35.2647 21.7296 19.7497C19.1704 8.46954 13.1351 4.77251 12.4715 3.35046C11.7449 2.33932 11.0494 0.570068 11.0494 0.570068L11.5237 31.9468C11.5237 31.9786 10.544 41.5528 13.0406 42.7225" fill="white"/>
<path fill-rule="evenodd" clip-rule="evenodd" d="M13.0402 42.7222C13.0402 42.7222 24.3844 35.2647 21.7296 19.7497C19.1704 8.46954 13.1351 4.77251 12.4715 3.35046C11.7449 2.33932 11.0494 0.570068 11.0494 0.570068L11.5237 31.9468C11.5237 31.9786 10.544 41.5528 13.0406 42.7225" fill="#404040"/>
<path fill-rule="evenodd" clip-rule="evenodd" d="M10.3862 43.1327C10.3862 43.1327 -0.262865 35.865 0.369229 23.068C0.969479 10.2706 8.48989 3.98254 9.94343 2.84505C10.8916 1.8339 10.9231 1.45451 10.9864 0.443359C11.65 1.8654 11.5237 21.7093 11.6182 24.0473C11.9024 33.0527 11.1128 41.4268 10.3862 43.1327Z" fill="white"/>
<path fill-rule="evenodd" clip-rule="evenodd" d="M10.3862 43.1327C10.3862 43.1327 -0.262865 35.865 0.369229 23.068C0.969479 10.2706 8.48989 3.98254 9.94343 2.84505C10.8916 1.8339 10.9231 1.45451 10.9864 0.443359C11.65 1.8654 11.5237 21.7093 11.6182 24.0473C11.9024 33.0527 11.1128 41.4268 10.3862 43.1327Z" fill="#676767"/>
</g>
<defs>
<clipPath id="clip0">
<rect width="175.316" height="50" fill="white" transform="translate(0.342163 0.370117)"/>
</clipPath>
</defs>
</svg>
