<svg width="47" height="55" viewBox="0 0 47 55" fill="none" xmlns="http://www.w3.org/2000/svg">
<g clip-path="url(#clip0)">
<path d="M37.6928 10.8596L42.3461 9.66138L42.3808 9.71248L42.4983 37.8092L42.3461 37.962L41.3873 38.003L37.7473 37.4364L37.6928 37.293V10.8596ZM10.7805 39.9139L10.7977 39.9151L23.0808 43.4843L23.112 43.5083L23.1655 43.5509L23.1481 54.246L23.112 54.2915L10.7805 48.3008V39.9139Z" fill="#353535"/>
<path d="M37.6928 37.2932L23.1323 40.7803L15.8216 39.0156L10.7805 39.9141L23.112 43.5086L42.1442 38.3558L42.3461 37.9622L37.6928 37.2932Z" fill="#AAAAAA"/>
<path d="M35.4436 14.7536L35.325 14.6184L23.2446 11.1082L23.1121 11.1593L22.9908 11.0974L3.98188 16.5787L3.87805 16.7057L4.03063 16.7893L8.37767 17.4266L8.53133 17.3745L23.0919 13.8876L30.4025 15.6523L35.4436 14.7536Z" fill="#2F2F2F"/>
<path d="M8.5312 43.808L3.87792 44.9313L3.86979 44.9044L3.68652 16.9125L3.87792 16.7056L8.5312 17.3744V43.808Z" fill="#676767"/>
<path d="M14.8132 32.9501L23.1119 33.9235L23.1742 33.8305L23.2079 20.8505L23.1119 20.7441L14.8132 21.7177V32.9501Z" fill="#353535"/>
<path d="M31.4107 32.95L23.1121 33.9234V20.744L31.4107 21.7176V32.95ZM35.4436 14.7534L23.1121 11.1592V0.375977L35.4436 6.3665V14.7534Z" fill="#676767"/>
<path d="M23.112 0.375244L0 11.5327V43.1332L3.87794 44.9305V16.7048L23.112 11.1584V0.375244Z" fill="#353535"/>
<path d="M42.3461 9.66138V37.962L23.1121 43.5083V54.2915L46.2241 43.1338V11.5334L42.3461 9.66138Z" fill="#676767"/>
</g>
<defs>
<clipPath id="clip0">
<rect width="46.224" height="54" fill="white" transform="translate(0 0.370117)"/>
</clipPath>
</defs>
</svg>
