<svg width="69" height="69" viewBox="0 0 69 69" fill="none" xmlns="http://www.w3.org/2000/svg">
  <circle cx="34.0898" cy="34.9741" r="34" fill="#F2F2F2"/>
  <path d="M43.1214 23.5075L22.2022 44.3856C21.5352 45.0518 21.5352 46.129 22.2022 46.7952C22.5287 47.1212 22.9686 47.2913 23.4086 47.2913C23.8485 47.2913 24.2743 47.1212 24.6149 46.7952L45.5341 25.9029C46.2011 25.2367 46.2011 24.1595 45.5341 23.4933C44.8671 22.8413 43.7885 22.8413 43.1214 23.5075Z" fill="#1D1D1B"/>
  <path d="M37.6432 37.5683C35.2731 39.9352 35.2731 43.8045 37.6432 46.1714C38.7928 47.3195 40.3256 47.9573 41.9576 47.9573C43.5897 47.9573 45.1225 47.3195 46.2721 46.1714C48.6422 43.8045 48.6422 39.9352 46.2721 37.5683C45.1225 36.4203 43.5897 35.7825 41.9576 35.7825C40.3256 35.7825 38.807 36.4203 37.6432 37.5683ZM43.8594 43.7762C43.3485 44.2864 42.6814 44.5557 41.9576 44.5557C41.2338 44.5557 40.5668 44.2722 40.0559 43.7762C39.0057 42.7274 39.0057 41.0266 40.0559 39.9777C40.5668 39.4675 41.2338 39.1982 41.9576 39.1982C42.6814 39.1982 43.3485 39.4817 43.8594 39.9777C44.9096 41.0266 44.9096 42.7274 43.8594 43.7762Z" fill="#1D1D1B"/>
  <path d="M26.2327 21.991C24.6006 21.991 23.0678 22.6288 21.9183 23.7769C20.7687 24.9249 20.1301 26.4557 20.1301 28.0857C20.1301 29.7157 20.7687 31.2464 21.9183 32.3945C23.0678 33.5426 24.6006 34.1804 26.2327 34.1804C27.8648 34.1804 29.3975 33.5426 30.5471 32.3945C31.6967 31.2464 32.3353 29.7157 32.3353 28.0857C32.3353 26.4557 31.6967 24.9249 30.5471 23.7769C29.3834 22.6288 27.8648 21.991 26.2327 21.991ZM28.1344 29.985C27.6235 30.4952 26.9565 30.7645 26.2327 30.7645C25.5089 30.7645 24.8419 30.4811 24.3309 29.985C23.82 29.4747 23.5504 28.8086 23.5504 28.0857C23.5504 27.3628 23.8342 26.6967 24.3309 26.1864C24.8419 25.6762 25.5089 25.4068 26.2327 25.4068C26.9565 25.4068 27.6235 25.6903 28.1344 26.1864C28.6454 26.6967 28.915 27.3628 28.915 28.0857C28.915 28.7944 28.6454 29.4747 28.1344 29.985Z" fill="#1D1D1B"/>
</svg>
