<svg width="249" height="204" viewBox="0 0 249 204" fill="none" xmlns="http://www.w3.org/2000/svg">
  <path d="M248.2 107.995H190.1C191.3 79.5318 214.8 56.7613 243.6 56.7613H248.2V20.3086H243.6C194.6 20.3086 154.8 59.358 153.6 107.995V202.472H248.2V107.995ZM21 107.995V110.292V202.572H115.6V108.095H57.5C58.7 79.5318 82.2 56.7613 111.1 56.7613H115.7V20.3086H111.1C62.1 20.3086 22.2 59.358 21 107.995Z" stroke="#F2F2F2" stroke-miterlimit="10"/>
  <path d="M245.3 105.297H187.2C188.4 76.8339 211.9 54.0633 240.7 54.0633H245.3V17.6104H240.7C191.7 17.6104 151.9 56.6599 150.7 105.297V199.775H245.3V105.297ZM18.1 105.297V107.594V199.875H112.7V105.397H54.7C55.9 76.9337 79.4 54.1632 108.2 54.1632H112.8V17.6104H108.2C59.2 17.6104 19.4 56.6599 18.1 105.297Z" stroke="#F2F2F2" stroke-miterlimit="10"/>
  <path d="M242.5 102.601H184.4C185.6 74.1376 209.1 51.367 237.9 51.367H242.5V14.9141H237.9C188.9 14.9141 149.1 53.9636 147.9 102.601V197.079H242.5V102.601ZM15.3 102.601V104.898V197.179H109.9V102.701H51.8C53 74.2375 76.5 51.4669 105.3 51.4669H109.9V14.9141H105.3C56.4 14.9141 16.5 53.9636 15.3 102.601Z" stroke="#E0E0E0" stroke-miterlimit="10"/>
  <path d="M239.6 99.8048H181.5C182.7 71.3415 206.2 48.5709 235 48.5709H239.6V12.2178H235C186 12.2178 146.2 51.2674 145 99.9047V194.383H239.6V99.8048ZM12.4 99.8048V102.102V194.383H107V99.8048H49C50.2 71.3415 73.7 48.5709 102.5 48.5709H107.1V12.2178H102.5C53.5 12.2178 13.7 51.2674 12.4 99.8048Z" stroke="#E0E0E0" stroke-miterlimit="10"/>
  <path d="M236.8 97.1077H178.7C179.9 68.6444 203.4 45.8738 232.2 45.8738H236.8V9.4209H232.2C183.2 9.4209 143.4 48.4705 142.2 97.1077V191.586H236.8V97.1077ZM9.59998 97.1077V99.4047V191.686H104.2V97.1077H46.1C47.3 68.6444 70.8 45.8738 99.6 45.8738H104.2V9.4209H99.6C50.7 9.4209 10.8 48.4705 9.59998 97.1077Z" stroke="#BDBDBD" stroke-miterlimit="10"/>
  <path d="M233.9 94.4124H175.8C177 65.9491 200.5 43.1785 229.3 43.1785H233.9V6.72559H229.3C180.3 6.72559 140.5 45.7752 139.3 94.4124V188.89H233.9V94.4124ZM6.69995 94.4124V96.7094V188.99H101.3V94.4124H43.3C44.5 65.9491 68 43.1785 96.8 43.1785H101.4V6.72559H96.8C47.8 6.72559 7.99995 45.7752 6.69995 94.4124Z" stroke="#BDBDBD" stroke-miterlimit="10"/>
  <path d="M231 91.7151H172.9C174.1 63.2518 197.6 40.4812 226.4 40.4812H231V4.02832H226.5C177.5 4.02832 137.7 43.0779 136.5 91.7151V186.193H231.1V91.7151H231ZM3.90002 91.7151V94.0121V186.293H98.5V91.7151H40.4C41.6 63.2518 65.1 40.4812 93.9 40.4812H98.5V4.02832H93.9C44.9 4.02832 5.10002 43.0779 3.90002 91.7151Z" stroke="#828282" stroke-miterlimit="10"/>
  <path d="M228.2 89.0188H170.1C171.3 60.5556 194.8 37.785 223.6 37.785H228.2V1.33203H223.6C174.6 1.33203 134.8 40.3816 133.6 89.0188V183.497H228.2V89.0188ZM1 89.0188V91.3158V183.597H95.6V89.0188H37.5C38.7 60.5556 62.2 37.785 91.1 37.785H95.7V1.33203H91.1C42.1 1.33203 2.2 40.3816 1 89.0188Z" stroke="#828282" stroke-miterlimit="10"/>
</svg>
