<svg width="181" height="117" viewBox="0 0 181 117" fill="none" xmlns="http://www.w3.org/2000/svg">
<path d="M143.655 116.358H143.655L38.2153 116.46V116.275L37.5997 116.363C36.9221 116.46 36.2386 116.461 35.5108 116.461C16.6323 116.461 1.30805 101.172 1.30805 82.3429C1.30805 67.2595 11.0494 54.6038 24.4474 50.0475L24.9237 49.8855L24.7954 49.3991C24.2909 47.4867 23.9885 45.3733 23.9885 43.2634C23.9885 29.372 35.2907 18.1956 49.1191 18.1956C54.9722 18.1956 60.32 20.2084 64.5595 23.5313L65.0267 23.8974L65.3467 23.3975C73.8085 10.1763 88.5893 1.43256 105.408 1.43256C131.302 1.43256 152.399 22.0759 152.806 47.797L152.813 48.2223L153.228 48.315C168.659 51.758 180.229 65.5309 180.229 81.9315C180.229 100.966 164.699 116.461 145.614 116.461C145.277 116.461 144.962 116.437 144.639 116.411L144.595 116.407C144.292 116.383 143.975 116.358 143.655 116.358Z" fill="white" stroke="white" stroke-width="1.07899"/>
<path d="M56.5752 80.1442C54.6312 80.1442 52.7472 79.8682 50.9232 79.3162C49.1232 78.7642 47.6952 78.0322 46.6392 77.1202L48.2592 73.4842C49.2912 74.3002 50.5512 74.9722 52.0392 75.5002C53.5512 76.0042 55.0632 76.2562 56.5752 76.2562C58.4472 76.2562 59.8392 75.9562 60.7512 75.3562C61.6872 74.7562 62.1552 73.9642 62.1552 72.9802C62.1552 72.2602 61.8912 71.6722 61.3632 71.2162C60.8592 70.7362 60.2112 70.3642 59.4192 70.1002C58.6272 69.8362 57.5472 69.5362 56.1792 69.2002C54.2592 68.7442 52.6992 68.2882 51.4992 67.8322C50.3232 67.3762 49.3032 66.6682 48.4392 65.7082C47.5992 64.7242 47.1792 63.4042 47.1792 61.7482C47.1792 60.3562 47.5512 59.0962 48.2952 57.9682C49.0632 56.8162 50.2032 55.9042 51.7152 55.2322C53.2512 54.5602 55.1232 54.2242 57.3312 54.2242C58.8672 54.2242 60.3792 54.4162 61.8672 54.8002C63.3552 55.1842 64.6392 55.7362 65.7192 56.4562L64.2432 60.0922C63.1392 59.4442 61.9872 58.9522 60.7872 58.6162C59.5872 58.2802 58.4232 58.1122 57.2952 58.1122C55.4472 58.1122 54.0672 58.4242 53.1552 59.0482C52.2672 59.6722 51.8232 60.5002 51.8232 61.5322C51.8232 62.2522 52.0752 62.8402 52.5792 63.2962C53.1072 63.7522 53.7672 64.1122 54.5592 64.3762C55.3512 64.6402 56.4312 64.9402 57.7992 65.2762C59.6712 65.7082 61.2072 66.1642 62.4072 66.6442C63.6072 67.1002 64.6272 67.8082 65.4672 68.7682C66.3312 69.7282 66.7632 71.0242 66.7632 72.6562C66.7632 74.0482 66.3792 75.3082 65.6112 76.4362C64.8672 77.5642 63.7272 78.4642 62.1912 79.1362C60.6552 79.8082 58.7832 80.1442 56.5752 80.1442ZM78.3158 60.3442C81.1478 60.3442 83.3078 61.0282 84.7958 62.3962C86.3078 63.7402 87.0638 65.7802 87.0638 68.5162V79.7842H82.8158V77.4442C82.2638 78.2842 81.4718 78.9322 80.4398 79.3882C79.4318 79.8202 78.2078 80.0362 76.7678 80.0362C75.3278 80.0362 74.0678 79.7962 72.9878 79.3162C71.9078 78.8122 71.0678 78.1282 70.4678 77.2642C69.8918 76.3762 69.6038 75.3802 69.6038 74.2762C69.6038 72.5482 70.2398 71.1682 71.5118 70.1362C72.8078 69.0802 74.8358 68.5522 77.5958 68.5522H82.5638V68.2642C82.5638 66.9202 82.1558 65.8882 81.3398 65.1682C80.5478 64.4482 79.3598 64.0882 77.7758 64.0882C76.6958 64.0882 75.6278 64.2562 74.5718 64.5922C73.5398 64.9282 72.6638 65.3962 71.9438 65.9962L70.1798 62.7202C71.1878 61.9522 72.3998 61.3642 73.8158 60.9562C75.2318 60.5482 76.7318 60.3442 78.3158 60.3442ZM77.7038 76.7602C78.8318 76.7602 79.8278 76.5082 80.6918 76.0042C81.5798 75.4762 82.2038 74.7322 82.5638 73.7722V71.5402H77.9198C75.3278 71.5402 74.0318 72.3922 74.0318 74.0962C74.0318 74.9122 74.3558 75.5602 75.0038 76.0402C75.6518 76.5202 76.5518 76.7602 77.7038 76.7602ZM100.183 60.3442C103.015 60.3442 105.175 61.0282 106.663 62.3962C108.175 63.7402 108.931 65.7802 108.931 68.5162V79.7842H104.683V77.4442C104.131 78.2842 103.339 78.9322 102.307 79.3882C101.299 79.8202 100.075 80.0362 98.635 80.0362C97.195 80.0362 95.935 79.7962 94.855 79.3162C93.775 78.8122 92.935 78.1282 92.335 77.2642C91.759 76.3762 91.471 75.3802 91.471 74.2762C91.471 72.5482 92.107 71.1682 93.379 70.1362C94.675 69.0802 96.703 68.5522 99.463 68.5522H104.431V68.2642C104.431 66.9202 104.023 65.8882 103.207 65.1682C102.415 64.4482 101.227 64.0882 99.643 64.0882C98.563 64.0882 97.495 64.2562 96.439 64.5922C95.407 64.9282 94.531 65.3962 93.811 65.9962L92.047 62.7202C93.055 61.9522 94.267 61.3642 95.683 60.9562C97.099 60.5482 98.599 60.3442 100.183 60.3442ZM99.571 76.7602C100.699 76.7602 101.695 76.5082 102.559 76.0042C103.447 75.4762 104.071 74.7322 104.431 73.7722V71.5402H99.787C97.195 71.5402 95.899 72.3922 95.899 74.0962C95.899 74.9122 96.223 75.5602 96.871 76.0402C97.519 76.5202 98.419 76.7602 99.571 76.7602ZM122.95 80.1442C121.006 80.1442 119.122 79.8682 117.298 79.3162C115.498 78.7642 114.07 78.0322 113.014 77.1202L114.634 73.4842C115.666 74.3002 116.926 74.9722 118.414 75.5002C119.926 76.0042 121.438 76.2562 122.95 76.2562C124.822 76.2562 126.214 75.9562 127.126 75.3562C128.062 74.7562 128.53 73.9642 128.53 72.9802C128.53 72.2602 128.266 71.6722 127.738 71.2162C127.234 70.7362 126.586 70.3642 125.794 70.1002C125.002 69.8362 123.922 69.5362 122.554 69.2002C120.634 68.7442 119.074 68.2882 117.874 67.8322C116.698 67.3762 115.678 66.6682 114.814 65.7082C113.974 64.7242 113.554 63.4042 113.554 61.7482C113.554 60.3562 113.926 59.0962 114.67 57.9682C115.438 56.8162 116.578 55.9042 118.09 55.2322C119.626 54.5602 121.498 54.2242 123.706 54.2242C125.242 54.2242 126.754 54.4162 128.242 54.8002C129.73 55.1842 131.014 55.7362 132.094 56.4562L130.618 60.0922C129.514 59.4442 128.362 58.9522 127.162 58.6162C125.962 58.2802 124.798 58.1122 123.67 58.1122C121.822 58.1122 120.442 58.4242 119.53 59.0482C118.642 59.6722 118.198 60.5002 118.198 61.5322C118.198 62.2522 118.45 62.8402 118.954 63.2962C119.482 63.7522 120.142 64.1122 120.934 64.3762C121.726 64.6402 122.806 64.9402 124.174 65.2762C126.046 65.7082 127.582 66.1642 128.782 66.6442C129.982 67.1002 131.002 67.8082 131.842 68.7682C132.706 69.7282 133.138 71.0242 133.138 72.6562C133.138 74.0482 132.754 75.3082 131.986 76.4362C131.242 77.5642 130.102 78.4642 128.566 79.1362C127.03 79.8082 125.158 80.1442 122.95 80.1442Z" fill="black"/>
<path d="M142.164 61.6248L146.177 63.8907L145.433 65.2502L141.387 62.8872V67.4837H139.898L139.93 62.8872L135.884 65.2502L135.107 63.8907L139.153 61.6248L135.107 59.3589L135.884 57.967L139.93 60.3624L139.898 55.7659H141.387V60.3624L145.433 57.967L146.177 59.3589L142.164 61.6248Z" fill="#BDBDBD"/>
</svg>
