<svg width="68" height="68" viewBox="0 0 68 68" fill="none" xmlns="http://www.w3.org/2000/svg">
  <circle cx="34" cy="34" r="34" fill="#F2F2F2"/>
  <path d="M28.0116 42.7002H22.1324C21.3206 42.7002 20.6625 43.3574 20.6625 44.1682C20.6625 44.979 21.3206 45.6362 22.1324 45.6362H28.0116C28.8234 45.6362 29.4814 44.979 29.4814 44.1682C29.4814 43.3574 28.8234 42.7002 28.0116 42.7002Z" fill="#1D1D1B"/>
  <path d="M45.6494 45.6362C46.4612 45.6362 47.1193 44.979 47.1193 44.1682C47.1193 43.3574 46.4612 42.7002 45.6494 42.7002C44.8377 42.7002 44.1796 43.3574 44.1796 44.1682C44.1796 44.979 44.8377 45.6362 45.6494 45.6362Z" fill="#1D1D1B"/>
  <path d="M28.0116 32.7236H22.1324C21.3206 32.7236 20.6625 33.3808 20.6625 34.1915C20.6625 35.0022 21.3206 35.6594 22.1324 35.6594H28.0116C28.8234 35.6594 29.4814 35.0022 29.4814 34.1915C29.4814 33.3808 28.8234 32.7236 28.0116 32.7236Z" fill="#1D1D1B"/>
  <path d="M45.6494 35.6594C46.4612 35.6594 47.1193 35.0022 47.1193 34.1915C47.1193 33.3808 46.4612 32.7236 45.6494 32.7236C44.8377 32.7236 44.1796 33.3808 44.1796 34.1915C44.1796 35.0022 44.8377 35.6594 45.6494 35.6594Z" fill="#1D1D1B"/>
  <path d="M22.1324 25.4614H28.0116C28.8234 25.4614 29.4814 24.8043 29.4814 23.9937C29.4814 23.183 28.8234 22.5259 28.0116 22.5259H22.1324C21.3206 22.5259 20.6625 23.183 20.6625 23.9937C20.6625 24.8043 21.3206 25.4614 22.1324 25.4614Z" fill="#1D1D1B"/>
  <path d="M45.6494 25.4614C46.4612 25.4614 47.1193 24.8043 47.1193 23.9937C47.1193 23.183 46.4612 22.5259 45.6494 22.5259C44.8377 22.5259 44.1796 23.183 44.1796 23.9937C44.1796 24.8043 44.8377 25.4614 45.6494 25.4614Z" fill="#1D1D1B"/>
  <rect x="17.6918" y="19.1" width="32.6163" height="9.59875" rx="2.9" stroke="#1D1D1B" stroke-width="2.2"/>
  <rect x="17.6918" y="29.3109" width="32.6163" height="9.59875" rx="2.9" stroke="#1D1D1B" stroke-width="2.2"/>
  <rect x="17.6918" y="39.3012" width="32.6163" height="9.59875" rx="2.9" stroke="#1D1D1B" stroke-width="2.2"/>
</svg>
