<svg width="69" height="69" viewBox="0 0 69 69" fill="none" xmlns="http://www.w3.org/2000/svg">
  <circle cx="34.3213" cy="34.2227" r="34" fill="#F2F2F2"/>
  <path d="M47.4344 24.0663L49.5321 22.0905L50.7399 23.2968L52.2314 21.807L48.3243 17.905L46.8327 19.3947L48.0405 20.601L45.9428 22.5767C43.2681 20.2279 39.9366 18.8497 36.3822 18.6216V15.9036H40.1088V13.7969H30.5461V15.9036H34.2728L34.2727 18.6216C30.3688 18.8721 26.7329 20.5091 23.9416 23.2968C20.9004 26.3341 19.2255 30.3724 19.2255 34.6678C19.2255 38.9633 20.9004 43.0016 23.9416 46.0389C26.9829 49.0762 31.0265 50.749 35.3275 50.749C39.6285 50.749 43.6721 49.0763 46.7133 46.0389C49.7546 43.0016 51.4295 38.9633 51.4295 34.6678C51.4294 30.7256 50.0176 27.0004 47.4344 24.0663ZM35.3274 48.6424C27.6119 48.6424 21.3348 42.3735 21.3348 34.6679C21.3348 26.9624 27.6119 20.6934 35.3274 20.6934C43.0429 20.6934 49.32 26.9624 49.32 34.6679C49.32 42.3735 43.0429 48.6424 35.3274 48.6424Z" fill="#1D1D1B" stroke="#1D1D1B" stroke-width="1.00003"/>
  <path d="M34.8759 32.935C34.7745 32.9622 34.6777 32.9978 34.5853 33.0402L28.9539 30.0678L27.8992 31.8923L33.5307 34.8646C33.5401 34.9656 33.5576 35.0672 33.5848 35.1684C33.8453 36.1397 34.8485 36.7182 35.821 36.4579C36.7936 36.1977 37.3728 35.1957 37.1122 34.2244C36.8517 33.2531 35.8485 32.6748 34.8759 32.935Z" fill="#1D1D1B" stroke="#1D1D1B" stroke-width="1.00003"/>
  <path d="M36.6185 33.3697C36.5443 33.2956 36.465 33.2297 36.382 33.171L36.1438 25.4098L34.0343 25.4098L34.2727 33.171C34.1899 33.2296 34.1105 33.2956 34.0363 33.3696C33.3244 34.0807 33.3244 35.2375 34.0363 35.9485C34.7483 36.6596 35.9067 36.6596 36.6186 35.9486C37.3306 35.2376 37.3305 34.0808 36.6185 33.3697Z" fill="#1D1D1B" stroke="#1D1D1B" stroke-width="1.00003"/>
</svg>
