<svg width="69" height="69" viewBox="0 0 69 69" fill="none" xmlns="http://www.w3.org/2000/svg">
  <circle cx="34.5635" cy="34.2227" r="34" fill="#F2F2F2"/>
  <path d="M54.0507 30.3452C51.6812 29.1464 48.4205 28.1941 44.5971 27.5811C43.7326 22.8338 39.5624 19.2227 34.5633 19.2227C29.5642 19.2227 25.3941 22.8338 24.5297 27.5811C20.7069 28.1939 17.4467 29.146 15.0776 30.3444C11.5662 32.1205 10.8293 34.0395 10.8293 35.3366C10.8293 37.8299 13.3584 39.9895 18.1434 41.5818C19.5761 42.0586 21.1615 42.4651 22.8608 42.7973C24.0514 44.6671 25.683 46.2362 27.602 47.3518C29.7072 48.5757 32.1145 49.2227 34.5634 49.2227C37.0124 49.2227 39.4197 48.5757 41.525 47.3518C43.4439 46.2362 45.0754 44.6671 46.2661 42.7973C47.9655 42.4651 49.5508 42.0586 50.9836 41.5818C55.7684 39.9895 58.2977 37.8298 58.2977 35.3366C58.2973 34.0397 57.5605 32.121 54.0507 30.3452ZM26.2192 29.4078C26.2193 24.8129 29.9624 21.0745 34.5633 21.0745C39.1642 21.0745 42.9074 24.8129 42.9074 29.4078V32.671C42.9074 33.0271 42.6668 33.3404 42.3224 33.4328C37.2463 34.7941 31.8804 34.7942 26.8043 33.4328C26.4599 33.3404 26.2193 33.0271 26.2193 32.671V29.4078H26.2192ZM34.5633 47.3707C31.0744 47.3707 27.7634 45.8272 25.5031 43.2403C28.3347 43.6413 31.4021 43.8522 34.5633 43.8522C37.7247 43.8522 40.7921 43.6413 43.6236 43.2403C41.3631 45.8272 38.0522 47.3707 34.5633 47.3707ZM50.3972 39.8249C48.9471 40.3074 47.3304 40.7154 45.5893 41.043C45.5435 41.0481 45.4982 41.056 45.4538 41.0678C42.1662 41.6764 38.4429 42.0004 34.5633 42.0004C30.6835 42.0004 26.9601 41.6764 23.6725 41.0678C23.6285 41.0562 23.5835 41.0484 23.5382 41.0433C21.7969 40.7156 20.1799 40.3076 18.7295 39.8249C14.9437 38.5651 12.6835 36.8872 12.6835 35.3366C12.6835 33.4346 16.3479 30.841 24.3651 29.485V32.671C24.3651 33.8633 25.1704 34.9121 26.3233 35.2212C29.0186 35.9441 31.7911 36.3055 34.5632 36.3055C37.3355 36.3055 40.108 35.9441 42.8032 35.2212C43.9562 34.912 44.7614 33.8633 44.7614 32.671V29.485C52.7788 30.841 56.443 33.4346 56.443 35.3366C56.4432 36.8872 54.183 38.565 50.3972 39.8249Z" fill="#1D1D1B" stroke="#1D1D1B"/>
  <path d="M34.5633 22.957C32.4917 22.957 30.5313 23.9605 29.3193 25.6414C29.02 26.0564 29.1141 26.635 29.5297 26.9339C29.6936 27.0518 29.8831 27.1085 30.0707 27.1085C30.3587 27.1085 30.6426 26.9748 30.8238 26.7236C31.6883 25.5247 33.0863 24.8089 34.5633 24.8089C35.0753 24.8089 35.4904 24.3944 35.4904 23.883C35.4904 23.3716 35.0753 22.957 34.5633 22.957Z" fill="#1D1D1B" stroke="#1D1D1B"/>
</svg>
