<svg width="24" height="24" viewBox="0 0 24 24" fill="none" xmlns="http://www.w3.org/2000/svg">
<path d="M14.2783 5.49023C14.2783 6.5948 13.3829 7.49023 12.2783 7.49023C11.1738 7.49023 10.2783 6.5948 10.2783 5.49023C10.2783 4.38566 11.1738 3.49023 12.2783 3.49023C13.3829 3.49023 14.2783 4.38566 14.2783 5.49023Z" fill="#676767"/>
<path d="M14.2783 12.4902C14.2783 13.5948 13.3829 14.4902 12.2783 14.4902C11.1738 14.4902 10.2783 13.5948 10.2783 12.4902C10.2783 11.3857 11.1738 10.4902 12.2783 10.4902C13.3829 10.4902 14.2783 11.3857 14.2783 12.4902Z" fill="#676767"/>
<path d="M12.2783 21.4902C13.3829 21.4902 14.2783 20.5948 14.2783 19.4902C14.2783 18.3857 13.3829 17.4902 12.2783 17.4902C11.1738 17.4902 10.2783 18.3857 10.2783 19.4902C10.2783 20.5948 11.1738 21.4902 12.2783 21.4902Z" fill="#676767"/>
</svg>
