<svg width="24" height="24" fill="none" xmlns="http://www.w3.org/2000/svg"><path d="M9.346 14.25h10.18c.388 0 .726-.273.812-.657l1.641-7.312a.841.841 0 00-.812-1.031H7.529L7.21 3.675A.836.836 0 006.394 3h-3.56A.839.839 0 002 3.844v.562c0 .466.373.844.833.844H5.26L7.7 17.324a1.973 1.973 0 00-.974 1.814c.052 1.003.858 1.813 1.849 1.86 1.116.052 2.037-.848 2.037-1.967 0-.55-.224-1.049-.585-1.406h7.28c-.372.37-.599.888-.583 1.46.027 1.049.879 1.9 1.915 1.915 1.087.016 1.973-.872 1.973-1.969 0-.78-.448-1.453-1.097-1.772l.192-.853a.841.841 0 00-.813-1.03h-9.32l-.227-1.126zM14.5 8.906h1.667c.306 0 .555.252.555.563v.562c0 .31-.249.563-.555.563H14.5V12c0 .31-.249.562-.556.562h-.555a.559.559 0 01-.556-.562v-1.406h-1.666a.559.559 0 01-.556-.563V9.47c0-.311.249-.563.556-.563h1.666V7.5c0-.31.249-.563.556-.563h.555c.307 0 .556.252.556.563v1.406z" fill="#676767"/></svg>