<svg width="24" height="24" viewBox="0 0 24 24" fill="none" xmlns="http://www.w3.org/2000/svg">
<path d="M3.875 4.5H20.125C21.1605 4.5 22 5.33945 22 6.375V17.625C22 18.6605 21.1605 19.5 20.125 19.5H3.875C2.83945 19.5 2 18.6605 2 17.625V6.375C2 5.33945 2.83945 4.5 3.875 4.5ZM4.10938 17.625H19.8906C20.0201 17.625 20.125 17.5201 20.125 17.3906V6.60938C20.125 6.47993 20.0201 6.375 19.8906 6.375H4.10938C3.97993 6.375 3.875 6.47993 3.875 6.60938V17.3906C3.875 17.5201 3.97993 17.625 4.10938 17.625ZM17.7812 10.75H13.7188C13.4599 10.75 13.25 10.5401 13.25 10.2812V9.65625C13.25 9.39738 13.4599 9.1875 13.7188 9.1875H17.7812C18.0401 9.1875 18.25 9.39738 18.25 9.65625V10.2812C18.25 10.5401 18.0401 10.75 17.7812 10.75ZM13.7188 13.5625H17.7812C18.0401 13.5625 18.25 13.3526 18.25 13.0938V12.4688C18.25 12.2099 18.0401 12 17.7812 12H13.7188C13.4599 12 13.25 12.2099 13.25 12.4688V13.0938C13.25 13.3526 13.4599 13.5625 13.7188 13.5625ZM8.875 8.25C10.1694 8.25 11.2188 9.29934 11.2188 10.5938C11.2188 11.8882 10.1694 12.9375 8.875 12.9375C7.58059 12.9375 6.53125 11.8882 6.53125 10.5938C6.53125 9.29934 7.58059 8.25 8.875 8.25ZM10.5152 12.8788L11.5598 13.14C12.1858 13.2964 12.625 13.8589 12.625 14.5042V15.0469C12.625 15.4352 12.3102 15.75 11.9219 15.75H5.82812C5.4398 15.75 5.125 15.4352 5.125 15.0469V14.5042C5.125 13.8589 5.56418 13.2964 6.1902 13.14L7.2348 12.8788C8.08738 13.492 9.4177 13.6682 10.5152 12.8788Z" fill="#676767"/>
</svg>
