<svg width="24" height="24" viewBox="0 0 24 24" fill="none" xmlns="http://www.w3.org/2000/svg">
<path d="M21 7.78125C21 8.04012 20.7841 8.25 20.5179 8.25H19.7143V10.75H20.5179C20.7841 10.75 21 10.9599 21 11.2188V12.7812C21 13.0401 20.7841 13.25 20.5179 13.25H19.7143V15.75H20.5179C20.7841 15.75 21 15.9599 21 16.2188V17.7812C21 18.0401 20.7841 18.25 20.5179 18.25H19.7143V20.125C19.7143 21.1605 18.8508 22 17.7857 22H4.92857C3.86344 22 3 21.1605 3 20.125V3.875C3 2.83945 3.86344 2 4.92857 2H17.7857C18.8508 2 19.7143 2.83945 19.7143 3.875V5.75H20.5179C20.7841 5.75 21 5.95988 21 6.21875V7.78125ZM5.16964 20.125H17.5446C17.6778 20.125 17.7857 20.0201 17.7857 19.8906V4.10938C17.7857 3.97993 17.6778 3.875 17.5446 3.875H5.16964C5.0365 3.875 4.92857 3.97993 4.92857 4.10938V19.8906C4.92857 20.0201 5.0365 20.125 5.16964 20.125ZM8.14286 10.125C8.14286 8.3991 9.58193 7 11.3571 7C13.1324 7 14.5714 8.3991 14.5714 10.125C14.5714 11.8509 13.1324 13.25 11.3571 13.25C9.58193 13.25 8.14286 11.8509 8.14286 10.125ZM16.5 16.0625V15.3389C16.5 14.4786 15.8977 13.7286 15.0392 13.5199L13.6065 13.1717C12.1014 14.2243 10.277 13.9894 9.10775 13.1717L7.6751 13.5199C6.81656 13.7286 6.21429 14.4786 6.21429 15.3389V16.0625C6.21429 16.5803 6.646 17 7.17857 17H15.5357C16.0683 17 16.5 16.5803 16.5 16.0625Z" fill="#676767"/>
</svg>
