<svg width="24" height="24" fill="none" version="1.1" viewBox="0 0 24 24" xmlns="http://www.w3.org/2000/svg">
  <path d="m21.062 6.75h-18.125c-0.51777 0-0.9375-0.41973-0.9375-0.9375v-1.875c0-0.51777 0.41973-0.9375 0.9375-0.9375h18.125c0.5178 0 0.9375 0.41973 0.9375 0.9375v1.875c0 0.51777-0.4197 0.9375-0.9375 0.9375zm-0.3125 12.812v-10.625c0-0.51777-0.4197-0.9375-0.9375-0.9375h-15.625c-0.51777 0-0.9375 0.41973-0.9375 0.9375v10.625c0 0.5178 0.41973 0.9375 0.9375 0.9375h15.625c0.5178 0 0.9375-0.4197 0.9375-0.9375zm-11.25-8.2813v-0.3124c0-0.2589 0.20988-0.4688 0.46875-0.4688h4.0624c0.2589 0 0.4688 0.2099 0.4688 0.4688v0.3124c0 0.2589-0.2099 0.4688-0.4688 0.4688h-4.0624c-0.25887 0-0.46875-0.2099-0.46875-0.4688z" fill="#676767"/>
</svg>
