<svg width="24" height="24" viewBox="0 0 24 24" fill="none" xmlns="http://www.w3.org/2000/svg">
<path d="M2 4.5V19.5H2.70312V4.5H2ZM3.0491 4.5V19.4893H3.40625V4.5H3.0491ZM4.10938 19.4893V4.5H4.45535V19.4893H4.10938ZM5.8616 4.5V19.4893H6.20758V4.5H5.8616ZM7.26785 19.4893V4.5H7.9598V19.4893H7.26785ZM9.02008 4.5V19.4893H9.36605V4.5H9.02008ZM9.7232 19.4893V4.5H10.0692V19.4893H9.7232ZM10.4263 4.5V19.4893H10.7723V4.5H10.4263ZM11.8214 19.4893V4.5H12.5246V19.4893H11.8214ZM13.5737 4.5V19.4893H14.2768V4.5H13.5737ZM14.9799 19.4893V4.5H15.683V19.4893H14.9799ZM16.3862 4.5V19.4893H17.0893V4.5H16.3862ZM17.4353 19.4893V4.5H18.1384V19.4893H17.4353ZM19.1987 4.5V19.4893H20.2478V4.5H19.1987ZM20.5938 19.4893V4.5H20.9509V19.4893H20.5938ZM21.2969 4.5V19.5H22V4.5H21.2969Z" fill="#676767"/>
</svg>
