<svg width="24" height="24" viewBox="0 0 24 24" fill="none" xmlns="http://www.w3.org/2000/svg">
<path d="M18.4286 10.125C18.4286 14.3484 19.5389 15.43 20.4328 16.2992C21.6466 17.4793 20.7823 19.5 19.0691 19.5H14.5714C14.5714 20.8807 13.4201 22 12 22C10.5798 22 9.42857 20.8807 9.42857 19.5H4.9305C3.21395 19.5 2.35545 17.4769 3.56679 16.2992C4.46077 15.43 5.57142 14.3484 5.57142 10.125C5.57142 7.02367 7.89499 4.45043 10.9418 3.95977C10.7985 3.75813 10.7143 3.51367 10.7143 3.25C10.7143 2.55965 11.2899 2 12 2C12.7101 2 13.2857 2.55965 13.2857 3.25C13.2861 3.50361 13.2067 3.75126 13.0582 3.95977C16.105 4.45043 18.4286 7.02367 18.4286 10.125ZM12.3214 20.75C12.3214 20.5774 12.1775 20.4375 12 20.4375C11.4683 20.4375 11.0357 20.017 11.0357 19.5H10.3929C10.3929 20.3616 11.1138 21.0625 12 21.0625C12.1775 21.0625 12.3214 20.9226 12.3214 20.75Z" fill="#676767"/>
</svg>
