<svg width="24" height="24" viewBox="0 0 24 24" fill="none" xmlns="http://www.w3.org/2000/svg">
<path d="M21.4144 20.7124L21.7881 20.2875C22.0976 19.9355 22.0642 19.3983 21.7133 19.0877L19.7505 17.3501C19.8405 16.8458 19.7095 16.2964 19.2876 15.8693C18.5151 15.087 17.5556 14.1135 17.5556 10.3125C17.5556 7.5213 15.5475 5.20539 12.9145 4.76379C13.0384 4.58231 13.1111 4.3623 13.1111 4.125C13.1111 3.50368 12.6136 3 12 3C11.3864 3 10.8889 3.50368 10.8889 4.125C10.8886 4.35326 10.9572 4.57615 11.0855 4.76382C9.7451 4.98861 8.56701 5.6994 7.73309 6.71113L3.78135 3.21266C3.43052 2.90205 2.89517 2.93563 2.58559 3.28761L2.21194 3.71251C1.90239 4.06453 1.93583 4.60165 2.28666 4.91225L20.2186 20.7874C20.5695 21.0979 21.1048 21.0644 21.4144 20.7124ZM4.71205 15.8693C3.66521 16.9292 4.40711 18.75 5.89055 18.75H9.77777C9.77777 19.9926 10.7727 21 12 21C13.2273 21 14.2222 19.9926 14.2222 18.75H15.3571L6.43916 10.7829C6.36284 14.1958 5.4517 15.1204 4.71205 15.8693ZM11.1667 18.75C11.1667 19.2153 11.5405 19.5937 12 19.5937C12.1534 19.5937 12.2778 19.7197 12.2778 19.875C12.2778 20.0303 12.1534 20.1562 12 20.1562C11.2342 20.1562 10.6111 19.5254 10.6111 18.75H11.1667Z" fill="#676767"/>
</svg>
