<svg width="24" height="24" fill="none" version="1.1" viewBox="0 0 24 24" xmlns="http://www.w3.org/2000/svg">
  <path d="m18.719 2.4707c0-0.25781 0.2109-0.46875 0.4687-0.46875s0.4687 0.21094 0.4687 0.46875v0.9375c0 0.25782-0.2109 0.46875-0.4687 0.46875s-0.4687-0.21093-0.4687-0.46875zm2.8124 1.875h-0.9374c-0.2579 0-0.4688 0.21094-0.4688 0.46875 0 0.25782 0.2109 0.46875 0.4688 0.46875h0.9374c0.2579 0 0.4688-0.21093 0.4688-0.46875 0-0.25781-0.2109-0.46875-0.4688-0.46875zm-2.3242 1.1133-2.0312 2.0312 1.0351 1.0352c0.3672 0.36719 0.3672 0.96094 0 1.3242l-0.6797 0.67969c0.461 1.0195 0.7188 2.1523 0.7188 3.3437 0 4.4883-3.6367 8.125-8.125 8.125-4.4883 0-8.125-3.6328-8.125-8.121 0-4.4883 3.6367-8.125 8.125-8.125 1.1914 0 2.3242 0.25782 3.3438 0.71875l0.6796-0.67968c0.3672-0.36719 0.961-0.36719 1.3243 0l1.0351 1.0352 2.0313-2.0312zm1.3047-1.3086 0.6641-0.66406c0.1836-0.1836 0.1836-0.48047 0-0.66406-0.1836-0.1836-0.4805-0.1836-0.6641 0l-0.664 0.66406c-0.1836 0.18359-0.1836 0.48047 0 0.66406 0.1875 0.18359 0.4843 0.18359 0.664 0zm-1.9844 0c-0.1835 0.18359-0.4804 0.18359-0.664 0l-0.6641-0.66406c-0.1836-0.1836-0.1836-0.48047 0-0.66406 0.1836-0.1836 0.4805-0.1836 0.6641 0l0.664 0.66406c0.1836 0.18359 0.1836 0.48047 0 0.66406zm1.9844 1.3281c-0.1836-0.1836-0.4805-0.1836-0.664 0-0.1836 0.18359-0.1836 0.48046 0 0.66406l0.664 0.66406c0.1836 0.18359 0.4805 0.18359 0.6641 0s0.1836-0.48047 0-0.66406zm-11.012 4.0234c0-0.34375-0.28125-0.625-0.625-0.625-2.0664 0-3.75 1.6836-3.75 3.75 0 0.3437 0.28125 0.625 0.625 0.625s0.625-0.2813 0.625-0.625c0-1.379 1.1211-2.5 2.5-2.5 0.34375 0 0.625-0.2813 0.625-0.62505z" fill="#676767"/>
</svg>
