<svg width="24" height="24" viewBox="0 0 24 24" fill="none" xmlns="http://www.w3.org/2000/svg">
<path d="M21 5.17955C21 4.52803 20.4835 4 19.8462 4H15.7692V9.02877C15.7692 9.68029 15.2527 10.2083 14.6154 10.2083C14.3906 10.2083 14.1812 10.1426 14.0036 10.0292L12 8.99959L9.89844 10.0793C9.1259 10.4753 8.23498 9.88333 8.23558 9.02877L8.23077 4H4.15385C3.51653 4 3 4.52803 3 5.17955V18.6579C3 19.3991 3.58777 20 4.31282 20H19.6872C20.4122 20 21 19.3991 21 18.6579V5.17955Z" fill="#676767"/>
<path d="M13.4618 7.12152L12.5141 6.63465C12.1755 6.46171 11.7933 6.47553 11.4799 6.63802L10.5388 7.12152V4H13.4618V7.12152Z" fill="#676767"/>
</svg>
