<svg width="24" height="24" viewBox="0 0 24 24" fill="none" xmlns="http://www.w3.org/2000/svg">
<path d="M16.7381 3.81352C16.7381 3.48352 16.4707 3.21606 16.1407 3.21606H14.0297V5.76318C14.0297 6.09318 13.7622 6.36064 13.4322 6.36064C13.3158 6.36064 13.2074 6.32734 13.1154 6.26993L12.078 5.7484L10.9898 6.29529C10.5898 6.49584 10.1285 6.19603 10.1288 5.76318L10.1263 3.21606H8.01528C7.68528 3.21606 7.41782 3.48352 7.41782 3.81352V10.6404C7.41782 11.0159 7.72217 11.3202 8.0976 11.3202H16.0584C16.4338 11.3202 16.7381 11.0159 16.7381 10.6404V3.81352Z" fill="#676767"/>
<path d="M12.8349 4.79714L12.3442 4.55054C12.1688 4.46294 11.9709 4.46994 11.8087 4.55225L11.3214 4.79714V3.21606H12.8349V4.79714Z" fill="#676767"/>
<path d="M11.3203 13.2772C11.3203 12.9472 11.0528 12.6798 10.7228 12.6798H8.61184V15.2269C8.61184 15.5569 8.34438 15.8243 8.01438 15.8243C7.898 15.8243 7.78956 15.791 7.69761 15.7336L6.66015 15.2121L5.57197 15.759C5.17196 15.9595 4.71064 15.6597 4.71095 15.2269L4.70846 12.6798H2.59745C2.26745 12.6798 2 12.9472 2 13.2772V20.1041C2 20.4796 2.30434 20.7839 2.67977 20.7839H10.6405C11.016 20.7839 11.3203 20.4796 11.3203 20.1041V13.2772Z" fill="#676767"/>
<path d="M7.41708 14.2608L6.92636 14.0142C6.75102 13.9266 6.55311 13.9336 6.39083 14.0159L5.90353 14.2608V12.6798H7.41708V14.2608Z" fill="#676767"/>
<path d="M21.4025 12.6798C21.7325 12.6798 22 12.9472 22 13.2772V20.1041C22 20.4796 21.6957 20.7839 21.3202 20.7839H13.3595C12.984 20.7839 12.6797 20.4796 12.6797 20.1041V13.2772C12.6797 12.9472 12.9472 12.6798 13.2772 12.6798H15.3882L15.3907 15.2269C15.3903 15.6597 15.8517 15.9595 16.2517 15.759L17.3399 15.2121L18.3773 15.7336C18.4693 15.791 18.5777 15.8243 18.6941 15.8243C19.0241 15.8243 19.2915 15.5569 19.2915 15.2269V12.6798H21.4025Z" fill="#676767"/>
<path d="M17.6061 14.0142L18.0968 14.2608V12.6798H16.5832V14.2608L17.0705 14.0159C17.2328 13.9336 17.4307 13.9266 17.6061 14.0142Z" fill="#676767"/>
</svg>
