<svg width="24" height="24" fill="none" version="1.1" viewBox="0 0 24 24" xmlns="http://www.w3.org/2000/svg">
  <path d="m20.889 9.2839c0.6472 0.23175 1.1111 0.8565 1.1111 1.5911s-0.4639 1.3594-1.1111 1.5911v4.0339c0 1.2426-0.9949 2.25-2.2222 2.25-0.1014-0.0884-0.2035-0.1779-0.3067-0.2683-2.0674-1.8119-4.5259-3.9665-8.4096-4.2088-1.1145 0.3742-1.5565 1.6901-0.99017 2.5577 0.07995 0.1217 0.09361 0.2762 0.03628 0.4104-0.35906 0.8419 0.04469 1.5058 0.68733 2.1395 0.43188 0.4259 0.29597 1.1568-0.26118 1.39-0.88257 0.3693-2.5345 0.2814-3.256-0.1811-0.16385-0.105-0.28541-0.2658-0.34451-0.4528-0.05415-0.1714-0.10985-0.343-0.16574-0.5152-0.5295-1.6314-1.0762-3.3156-0.48753-5.3714h-1.5022c-0.92049 0-1.6667-0.7555-1.6667-1.6875v-3.375c0-0.93199 0.74618-1.6875 1.6667-1.6875h5.5556c4.3094 0 6.9432-2.3082 9.1367-4.2307 0.1035-0.09073 0.2061-0.1806 0.3078-0.26933 1.2273 0 2.2222 1.0074 2.2222 2.25v4.0339zm-10 2.8171c3.4363 0.4234 5.8816 2.1095 7.7778 3.6908v-9.8336c-1.8962 1.5813-4.3415 3.2674-7.7778 3.6908v2.452z" fill="#676767"/>
</svg>
