<svg width="24" height="24" fill="none" version="1.1" viewBox="0 0 24 24" xmlns="http://www.w3.org/2000/svg">
  <path d="m5.5714 4.5c0 0.69336 0.57254 1.25 1.2857 1.25s1.2857-0.52734 1.2857-1.5625-0.80357-2.1875-1.2857-2.1875c0 0.85666-0.36785 1.1657-0.71004 1.4532-0.29754 0.24996-0.57567 0.48362-0.57567 1.0468zm15.429 12.5c-0.5021 0-0.8061-0.2486-1.1431-0.5241-0.4185-0.3422-0.8877-0.7259-1.8502-0.7259-0.9684 0-1.4414 0.385-1.8624 0.7277-0.3375 0.2747-0.6416 0.5223-1.141 0.5223-0.4944 0-0.799-0.2468-1.1375-0.5211-0.4231-0.343-0.8993-0.7289-1.8658-0.7289-0.9574 0-1.4366 0.3867-1.8621 0.7299-0.33949 0.2739-0.6447 0.5201-1.1312 0.5201-0.50403 0-0.8078-0.2483-1.1446-0.5235-0.41889-0.3424-0.88886-0.7265-1.8588-0.7265-0.97028 0-1.4409 0.3844-1.8601 0.7269-0.33675 0.2751-0.64038 0.5231-1.1432 0.5231v-3.125c0-1.0352 0.86384-1.875 1.9286-1.875h0.64286v-5.625h2.5714v5.625h2.5714v-5.625h2.5714v5.625h2.5714v-5.625h2.5715v5.625h0.6428c1.0648 0 1.9286 0.8398 1.9286 1.875v3.125zm-18 5v-3.75c0.96595 0 1.4384-0.3844 1.8594-0.7268 0.33818-0.2751 0.64312-0.5232 1.144-0.5232 0.49968 0 0.8033 0.2475 1.1404 0.5222 0.42047 0.3427 0.89295 0.7278 1.863 0.7278 0.95737 0 1.4366-0.3867 1.8621-0.7299 0.3395-0.2739 0.6447-0.5201 1.1312-0.5201 0.504 0 0.8078 0.2483 1.1446 0.5235 0.4188 0.3424 0.8888 0.7265 1.8587 0.7265 0.966 0 1.4385-0.3844 1.8594-0.7268 0.3382-0.2751 0.6431-0.5232 1.144-0.5232 0.4899 0 0.7923 0.246 1.1287 0.5197 0.4221 0.3433 0.8978 0.7303 1.8646 0.7303v3.75h-18zm9-16.25c-0.7132 0-1.2857-0.55664-1.2857-1.25 0-0.56322 0.2781-0.79688 0.5757-1.0468 0.3421-0.28747 0.71-0.5965 0.71-1.4532 0.4821 0 1.2857 1.1523 1.2857 2.1875s-0.5725 1.5625-1.2857 1.5625zm3.8571-1.25c0 0.69336 0.5726 1.25 1.2858 1.25 0.7131 0 1.2857-0.52734 1.2857-1.5625s-0.8036-2.1875-1.2857-2.1875c0 0.85666-0.3679 1.1657-0.7101 1.4532-0.2975 0.24996-0.5757 0.48362-0.5757 1.0468z" fill="#676767"/>
</svg>
