<svg width="24" height="24" fill="none" version="1.1" viewBox="0 0 24 24" xmlns="http://www.w3.org/2000/svg">
  <path d="m21 20.125c0 1.0352-0.8638 1.875-1.9286 1.875h-14.143c-1.0647 0-1.9286-0.8398-1.9286-1.875v-13.75c0-1.0352 0.86384-1.875 1.9286-1.875h1.9286v-2.0312c0-0.25781 0.21697-0.46875 0.48215-0.46875h1.6071c0.26518 0 0.48214 0.21094 0.48214 0.46875v2.0312h5.1428v-2.0312c0-0.25781 0.217-0.46875 0.4822-0.46875h1.6071c0.2652 0 0.4822 0.21094 0.4822 0.46875v2.0312h1.9285c1.0648 0 1.9286 0.83984 1.9286 1.875zm-13.661-6.875h1.6071c0.26518 0 0.48214-0.2109 0.48214-0.4688v-1.5624c0-0.2579-0.21696-0.4688-0.48214-0.4688h-1.6071c-0.26518 0-0.48215 0.2109-0.48215 0.4688v1.5624c0 0.2579 0.21697 0.4688 0.48215 0.4688zm5.9464-2.0312v1.5624c0 0.2579-0.2169 0.4688-0.4821 0.4688h-1.6072c-0.2651 0-0.4821-0.2109-0.4821-0.4688v-1.5624c0-0.2579 0.217-0.4688 0.4821-0.4688h1.6072c0.2652 0 0.4821 0.2109 0.4821 0.4688zm3.8572 1.5624v-1.5624c0-0.2579-0.217-0.4688-0.4822-0.4688h-1.6071c-0.2652 0-0.4822 0.2109-0.4822 0.4688v1.5624c0 0.2579 0.217 0.4688 0.4822 0.4688h1.6071c0.2652 0 0.4822-0.2109 0.4822-0.4688zm-3.8572 2.1876v1.5624c0 0.2579-0.2169 0.4688-0.4821 0.4688h-1.6072c-0.2651 0-0.4821-0.2109-0.4821-0.4688v-1.5624c0-0.2579 0.217-0.4688 0.4821-0.4688h1.6072c0.2652 0 0.4821 0.2109 0.4821 0.4688zm-3.8571 1.5624v-1.5624c0-0.2579-0.21696-0.4688-0.48214-0.4688h-1.6071c-0.26518 0-0.48215 0.2109-0.48215 0.4688v1.5624c0 0.2579 0.21697 0.4688 0.48215 0.4688h1.6071c0.26518 0 0.48214-0.2109 0.48214-0.4688zm7.7143-1.5624v1.5624c0 0.2579-0.217 0.4688-0.4822 0.4688h-1.6071c-0.2652 0-0.4822-0.2109-0.4822-0.4688v-1.5624c0-0.2579 0.217-0.4688 0.4822-0.4688h1.6071c0.2652 0 0.4822 0.2109 0.4822 0.4688zm-12.214-6.7188v11.641c0 0.1289 0.10848 0.2344 0.24107 0.2344h13.661c0.1325 0 0.241-0.1055 0.241-0.2344v-11.641z" fill="#676767"/>
</svg>
