<svg width="24" height="24" fill="none" version="1.1" viewBox="0 0 24 24" xmlns="http://www.w3.org/2000/svg">
  <path d="m19.071 4.5h-1.9285v-2.0312c0-0.25887-0.2159-0.46875-0.4822-0.46875h-1.6071c-0.2663 0-0.4822 0.20988-0.4822 0.46875v2.0312h-5.1428v-2.0312c0-0.25887-0.21588-0.46875-0.48214-0.46875h-1.6071c-0.26627 0-0.48215 0.20988-0.48215 0.46875v2.0312h-1.9286c-1.0651 0-1.9286 0.83945-1.9286 1.875v13.75c0 1.0355 0.86344 1.875 1.9286 1.875h14.143c1.0652 0 1.9286-0.8395 1.9286-1.875v-13.75c0-1.0356-0.8634-1.875-1.9286-1.875zm-0.241 15.625h-13.661c-0.13314 0-0.24107-0.1049-0.24107-0.2344v-11.641h14.143v11.641c0 0.1295-0.1079 0.2344-0.241 0.2344zm-7.8412-2.3235 5.7178-5.5144c0.189-0.1823 0.1902-0.4791 0.0027-0.6629l-0.9054-0.8874c-0.1876-0.1838-0.4929-0.185-0.6819-0.0027l-4.4627 4.304-1.772-1.7368c-0.18752-0.1838-0.49279-0.185-0.68183-0.0027l-0.91282 0.8803c-0.18904 0.1824-0.19025 0.4792-0.00273 0.663l3.017 2.957c0.1876 0.1838 0.4928 0.1849 0.6819 0.0026z" fill="#676767"/>
</svg>
