<svg width="24" height="24" version="1.1" viewBox="0 0 24 24" xmlns="http://www.w3.org/2000/svg">
  <path d="m7.121 12.994c0-2.634 2.143-4.777 4.7771-4.777 2.6341 0 4.7771 2.143 4.7771 4.777 0 2.6341-2.143 4.7771-4.7771 4.7771-2.6341 0-4.7771-2.143-4.7771-4.7771zm1.5287 0c0 1.7912 1.4572 3.2484 3.2484 3.2484s3.2484-1.4572 3.2484-3.2484-1.4572-3.2484-3.2484-3.2484-3.2484 1.4572-3.2484 3.2484z" fill="#676767"/>
  <path d="m16.637 5.9235h3.0701c1.2644 0 2.293 1.0287 2.293 2.293v10.318c0 1.2644-1.0286 2.293-2.293 2.293h-15.414c-1.2644 0-2.293-1.0286-2.293-2.293v-10.318c0-1.2643 1.0286-2.293 2.293-2.293h3.0411c0.08904 0 0.16922-0.04857 0.21046-0.12709l0.77797-1.6347 0.0065-0.01343c0.30118-0.60221 0.90657-0.97641 1.58-0.97641h4.1531c0.6734 0 1.2788 0.3742 1.5799 0.97651l0.0065 0.01333 0.7779 1.6347c0.0413 0.07852 0.1215 0.12709 0.2105 0.12709zm3.0701 13.376c0.4215 0 0.7643-0.3429 0.7643-0.7644v-10.318c0-0.42148-0.3428-0.76433-0.7643-0.76433h-3.0701c-0.6734 0-1.2788-0.3742-1.5799-0.97651l-0.0065-0.01334-0.778-1.6346c-0.0413-0.07853-0.1214-0.12709-0.2105-0.12709h-4.153c-0.08904 0-0.16922 0.04856-0.21046 0.12709l-0.77797 1.6346-0.0065 0.01344c-0.30118 0.60221-0.90657 0.97641-1.58 0.97641h-3.0411c-0.42145 0-0.76433 0.34285-0.76433 0.76433v10.318c0 0.4215 0.34288 0.7644 0.76433 0.7644h15.414z" fill="#676767"/>
</svg>
