<svg width="24" height="24" fill="none" version="1.1" viewBox="0 0 24 24" xmlns="http://www.w3.org/2000/svg">
  <path d="m21.531 17.625c0.2579 0 0.4688 0.2109 0.4688 0.4688v0.9374c0 0.2579-0.2109 0.4688-0.4688 0.4688h-19.062c-0.25781 0-0.46875-0.2109-0.46875-0.4688v-14.062c0-0.25781 0.21094-0.46875 0.46875-0.46875h0.9375c0.25781 0 0.46875 0.21094 0.46875 0.46875v12.656h17.656zm-13.906-2.3438v-2.8124c0-0.2579-0.21094-0.4688-0.46875-0.4688h-0.9375c-0.25781 0-0.46875 0.2109-0.46875 0.4688v2.8124c0 0.2579 0.21094 0.4688 0.46875 0.4688h0.9375c0.25781 0 0.46875-0.2109 0.46875-0.4688zm3.75-7.8124v7.8124c0 0.2579-0.2109 0.4688-0.4688 0.4688h-0.93745c-0.25781 0-0.46875-0.2109-0.46875-0.4688v-7.8124c0-0.25781 0.21094-0.46875 0.46875-0.46875h0.93745c0.2579 0 0.4688 0.21094 0.4688 0.46875zm3.75 7.8124v-5.3124c0-0.25781-0.2109-0.46875-0.4688-0.46875h-0.9374c-0.2579 0-0.4688 0.21094-0.4688 0.46875v5.3124c0 0.2579 0.2109 0.4688 0.4688 0.4688h0.9374c0.2579 0 0.4688-0.2109 0.4688-0.4688zm3.75-9.0624v9.0624c0 0.2579-0.2109 0.4688-0.4688 0.4688h-0.9374c-0.2579 0-0.4688-0.2109-0.4688-0.4688v-9.0624c0-0.25781 0.2109-0.46875 0.4688-0.46875h0.9374c0.2579 0 0.4688 0.21094 0.4688 0.46875z" fill="#676767"/>
</svg>
