<svg width="24" height="24" xmlns="http://www.w3.org/2000/svg"><path d="M23.369 19.548A1.91 1.91 0 0121.523 21c-1.28 0-2.639-.401-4.051-1.195-2.01.467-4.332.317-6.269-.54 1.633-.117 3.19-.495 4.617-1.153a7.97 7.97 0 001.93-.385c.853.556 2.292 1.344 3.773 1.344-1.27-.7-1.715-1.565-1.831-2.35 1.01-.757 1.831-1.896 1.831-3.26 0-.422-.094-.865-.28-1.304a7.037 7.037 0 00.207-2.971c1.276 1.224 1.978 2.777 1.978 4.275 0 1.362-.512 2.614-1.388 3.661.105.082.235.168.396.256a1.938 1.938 0 01.933 2.17z" fill="#676767"/><path d="M19.619 10.188c0-3.41-3.564-7.188-9.524-7.188C4.123 3 .572 6.787.572 10.188c0 1.102.32 2.16.953 3.143.226.35.486.683.78.998a3.609 3.609 0 01-.696.454 1.937 1.937 0 00-.984 2.168 1.91 1.91 0 001.851 1.477c1.5 0 3.108-.461 4.79-1.373.911.213 1.859.321 2.83.321 1.362 0 2.654-.198 3.838-.588a9.626 9.626 0 002.973-1.575c.833-.658 1.494-1.424 1.965-2.277.489-.884.747-1.834.747-2.748zm-17.142 0c0-2.332 2.74-5.26 7.619-5.26s7.619 2.929 7.619 5.26c0 2.333-2.738 5.26-7.619 5.26-1.032 0-2.078-.143-3.09-.461-1.025.625-2.751 1.513-4.529 1.513 1.524-.79 2.058-1.761 2.198-2.645-1.211-.852-2.198-2.132-2.198-3.667z" fill="#676767"/></svg>