<svg width="24" height="25" fill="none" version="1.1" viewBox="0 0 24 25" xmlns="http://www.w3.org/2000/svg">
  <path d="m5.5 5.1211c-0.25592 0-0.51177 0.097709-0.70703 0.29297-0.39052 0.39053-0.39052 1.0235 0 1.4141l5.793 5.793-5.3789 5.3789c-0.39052 0.3905-0.39052 1.0236 0 1.4141 0.39053 0.3906 1.0235 0.3906 1.4141 0l5.3789-5.3789 5.3789 5.3789c0.3905 0.3906 1.0236 0.3906 1.4141 0 0.3905-0.3905 0.3905-1.0236 0-1.4141l-5.3789-5.3789 5.793-5.793c0.3905-0.39052 0.3905-1.0235 0-1.4141-0.3906-0.39052-1.0235-0.39052-1.4141 0l-5.793 5.793-5.793-5.793c-0.19526-0.19526-0.45111-0.29297-0.70703-0.29297z" fill="#676767"/>
</svg>
