<svg width="24" height="24" viewBox="0 0 24 24" fill="none" xmlns="http://www.w3.org/2000/svg">
<path d="M11.9064 3.40356C15.3309 3.40356 18.1276 6.14341 18.2198 9.54606C20.3205 9.76028 21.9648 11.5397 21.9648 13.6959C21.9648 16.9534 19.0976 17.8672 16.4288 17.8672V16.3077C18.2203 16.3081 20.4053 16.0461 20.4053 13.6959C20.4053 12.2556 19.2336 11.0838 17.7933 11.0838H16.6627V9.71931C16.6627 7.09665 14.529 4.96298 11.9064 4.96298C9.45863 4.96298 7.42465 6.79618 7.17523 9.22716L7.10894 9.87298L6.46176 9.92478C4.81457 10.0566 3.5243 11.4563 3.5243 13.1111C3.5243 15.4437 5.56476 16.3079 7.53988 16.3079V17.8673C4.6926 17.8679 1.96484 16.3178 1.96484 13.1111C1.96484 11.9078 2.41527 10.7594 3.23316 9.87751C3.9027 9.15575 4.76805 8.66536 5.71609 8.46149C5.98145 7.15005 6.6591 5.9529 7.66195 5.04235C8.82582 3.9856 10.3332 3.40356 11.9064 3.40356Z" fill="#676767"/>
<path d="M7.76273 14.0858L11.9843 9.86424L16.2059 14.0858L15.1032 15.1885L12.7641 12.8494V20.5966H11.2046V12.8494L8.86542 15.1885L7.76273 14.0858Z" fill="#676767"/>
</svg>
