<svg width="24" height="24" viewBox="0 0 24 24" fill="none" xmlns="http://www.w3.org/2000/svg">
<path d="M19.1512 5.51101L17.7661 4.34141C17.3397 3.98086 16.7109 3.99845 16.3064 4.38098L15.5413 5.09769C14.895 4.78551 14.2091 4.56566 13.5011 4.43815L13.2857 3.38287C13.1758 2.83764 12.6702 2.4595 12.116 2.50347L10.3089 2.65737C9.75486 2.70573 9.31956 3.15862 9.30198 3.71704L9.26684 4.78991C8.57207 5.04053 7.91692 5.3835 7.31893 5.8144L6.40441 5.20762C5.93824 4.89983 5.3183 4.98777 4.9578 5.41428L3.7882 6.80812C3.4276 7.23463 3.44519 7.8634 3.82768 8.26792L4.62798 9.12089C4.35092 9.74527 4.15306 10.4005 4.03878 11.0732L2.89556 11.3062C2.35034 11.4161 1.9722 11.9218 2.01617 12.4758L2.17006 14.283C2.21843 14.837 2.67132 15.2723 3.22974 15.2899L4.46529 15.3294C4.68962 15.9186 4.98418 16.4771 5.34029 17.0003L4.65001 18.0424C4.34222 18.5085 4.43016 19.1284 4.85662 19.489L6.24167 20.6586C6.66822 21.0191 7.29695 21.0016 7.70152 20.619L8.6073 19.7704C9.20089 20.0474 9.82522 20.2541 10.4672 20.3772L10.7178 21.6171C10.8278 22.1624 11.3334 22.5405 11.8874 22.4965L13.6946 22.3426C14.2486 22.2943 14.6839 21.8414 14.7015 21.283L14.7411 20.0693C15.4006 19.8363 16.025 19.5197 16.601 19.1284L17.5991 19.788C18.0652 20.0958 18.6851 20.0078 19.0457 19.5813L20.2153 18.1963C20.5758 17.7698 20.5583 17.141 20.1758 16.7365L19.3711 15.8835C19.6657 15.2591 19.8812 14.5996 20.0042 13.9224L21.1035 13.6982C21.6487 13.5882 22.0269 13.0826 21.9829 12.5285L21.829 10.7214C21.7806 10.1673 21.3277 9.73203 20.7693 9.71444L19.6657 9.67927C19.437 9.03731 19.1292 8.43057 18.7467 7.86771L19.349 6.96193C19.6657 6.49594 19.5777 5.87156 19.1512 5.51101ZM12.3403 15.9582C10.3881 16.1253 8.66437 14.6699 8.50172 12.7177C8.33459 10.7654 9.79008 9.04175 11.7423 8.87906C13.6945 8.71197 15.4182 10.1674 15.5809 12.1196C15.748 14.0719 14.2925 15.7956 12.3403 15.9582Z" fill="#676767"/>
</svg>
