<svg xmlns="http://www.w3.org/2000/svg" width="24" height="24" fill="none"><path d="M13.266 11.368a1.266 1.266 0 11-2.532 0 1.266 1.266 0 012.532 0zM7.469 12.634a1.266 1.266 0 100-2.532 1.266 1.266 0 000 2.532zM17.797 11.368a1.266 1.266 0 11-2.532 0 1.266 1.266 0 012.532 0z" fill="#676767"/><path d="M4.315 3.423h15.37c1.277 0 2.315 1.05 2.315 2.34v11.221c0 1.29-1.038 2.34-2.315 2.34h-7.934l-3.973 3.98a.938.938 0 01-1.6-.662v-3.318H4.314c-1.277 0-2.315-1.05-2.315-2.34V5.763c0-1.29 1.038-2.34 2.315-2.34zm15.37 14.026c.243 0 .44-.208.44-.465V5.763a.453.453 0 00-.44-.465H4.315a.453.453 0 00-.44.465v11.221c0 .257.197.465.44.465h2.8c.517 0 .937.42.937.938v1.989l2.647-2.651a.937.937 0 01.663-.276h8.323z" fill="#676767"/></svg>