<svg width="24" height="24" fill="none" version="1.1" viewBox="0 0 24 24" xmlns="http://www.w3.org/2000/svg">
  <g fill="#676767">
    <path d="m2.0024 11.438c0-4.0395 4.4791-7.3125 9.9998-7.3125 5.5242 0 9.9998 3.273 9.9963 7.3125 0 4.0429-4.4756 7.3125-9.9998 7.3125-1.1041 0-2.1701-0.1336-3.1666-0.3762-1.5902 0.8191-3.4478 1.3324-5.4512 1.4941-0.59721 0.0493-1.1458-0.2777-1.3229-0.8191-0.24435-0.765 0.36577-1.1834 0.76343-1.4561 0.03178-0.0218 0.0622-0.0426 0.09072-0.0626 0.52082-0.3657 0.98609-0.6961 1.2882-1.5153-1.375-1.2551-2.1979-2.8441-2.1979-4.5773zm6.6212 5.1328c1.1076 0.3375 2.2499 0.4922 3.3784 0.4922 5.3367 0 8.3331-3.1289 8.3331-5.625 0-2.4926-2.9964-5.625-8.3331-5.625s-8.3332 3.1324-8.3332 5.625c0 1.6418 1.0798 3.0094 2.4027 3.9234-0.15277 0.9422-1.0139 2.2641-2.1249 3.1078 1.9444-0.2812 3.5555-1.2304 4.677-1.8984z"/>
    <path d="m9.7798 11.438c0 0.9317-0.74651 1.6875-1.6666 1.6875-0.92011 0-1.6666-0.7558-1.6666-1.6875 0-0.9316 0.74651-1.6875 1.6666-1.6875 0.92012 0 1.6666 0.75587 1.6666 1.6875z"/>
    <path d="m13.669 11.438c0 0.9317-0.7465 1.6875-1.6666 1.6875s-1.6666-0.7558-1.6666-1.6875c0-0.9316 0.7465-1.6875 1.6666-1.6875s1.6666 0.75587 1.6666 1.6875z"/>
    <path d="m17.557 11.438c0 0.9317-0.7465 1.6875-1.6666 1.6875s-1.6667-0.7558-1.6667-1.6875c0-0.9316 0.7466-1.6875 1.6667-1.6875s1.6666 0.75587 1.6666 1.6875z"/>
  </g>
</svg>
