<svg width="24" height="24" fill="none" version="1.1" viewBox="0 0 24 24" xmlns="http://www.w3.org/2000/svg">
  <path d="m18.351 2.5492 2.0845 2.0266c0.3617 0.35163 0.5649 0.82854 0.5649 1.3258v10.473c0 1.0355-0.8634 1.875-1.9286 1.875h-3.2143v1.875c0 1.0355-0.8634 1.875-1.9285 1.875h-9c-1.0651 0-1.9286-0.8395-1.9286-1.875v-12.5c0-1.0356 0.86344-1.875 1.9286-1.875h3.2143v-1.875c0-1.0356 0.86343-1.875 1.9285-1.875h6.9155c0.5115 0 1.002 0.19755 1.3637 0.54918zm-13.181 17.576h8.5179c0.1331 0 0.2411-0.1049 0.2411-0.2344v-1.6406h-3.8572c-1.0651 0-1.9285-0.8395-1.9285-1.875v-8.75h-2.9732c-0.13314 0-0.24107 0.10493-0.24107 0.23438v12.031c0 0.1295 0.10793 0.2344 0.24107 0.2344zm13.661-3.75c0.1331 0 0.241-0.1049 0.241-0.2344v-7.8906h-3.5357c-0.5326 0-0.9643-0.41973-0.9643-0.9375v-3.4375h-4.2589c-0.1331 0-0.2411 0.10493-0.2411 0.23438v12.031c0 0.1295 0.108 0.2344 0.2411 0.2344zm-2.3304-10h2.5714v-0.37625c0-0.06216-0.0254-0.12178-0.0706-0.16574l-1.9433-1.8894c-0.0453-0.04394-0.1066-0.06863-0.1705-0.06863h-0.387z" fill="#676767"/>
</svg>
