<svg xmlns="http://www.w3.org/2000/svg" width="24" height="24" fill="none"><path d="M7 1.75a2.393 2.393 0 00-2.393 2.393.964.964 0 101.929 0c0-.257.208-.464.464-.464h12.857c.257 0 .465.207.465.464V17a.464.464 0 01-.465.464.964.964 0 100 1.929A2.393 2.393 0 0022.25 17V4.143a2.393 2.393 0 00-2.393-2.393H7z" fill="#676767"/><path d="M4.143 5.321A2.393 2.393 0 001.75 7.714v12.143a2.393 2.393 0 002.393 2.393h12.143a2.393 2.393 0 002.392-2.393V7.714a2.393 2.393 0 00-2.392-2.393H4.143zm-.464 2.393c0-.256.207-.464.464-.464h12.143c.256 0 .464.208.464.464v12.143a.464.464 0 01-.464.464H4.143a.464.464 0 01-.464-.464V7.714z" fill="#676767"/></svg>