<svg width="24" height="24" fill="none" version="1.1" viewBox="0 0 24 24" xmlns="http://www.w3.org/2000/svg">
  <path d="m11.34 2.1196-8.125 3.0469c-0.73046 0.27344-1.2148 0.97656-1.2148 1.7578v8.793c0 0.7109 0.40234 1.3594 1.0352 1.6758l8.125 4.0625c0.5273 0.2656 1.1484 0.2656 1.6757 0l8.125-4.0625c0.6368-0.3164 1.0352-0.9688 1.0352-1.6758v-8.793c0-0.78125-0.4844-1.4805-1.2149-1.7539l-8.125-3.0469c-0.4218-0.16406-0.8906-0.16406-1.3164-0.00391zm0.6602 2.4258 7.5 2.8125v0.04297l-7.5 3.0469-7.5-3.0469v-0.04297zm7.5 5.5508v5.2305l-6.25 3.125v-5.8164z" fill="#676767"/>
</svg>
