<svg width="24" height="24" fill="none" version="1.1" viewBox="0 0 24 24" xmlns="http://www.w3.org/2000/svg">
  <path d="m21.086 11.524-3.7734-1.414v-4.2383c0-0.58594-0.3633-1.1094-0.9141-1.3164l-3.9062-1.4648c-0.3164-0.12109-0.668-0.12109-0.9883 0l-3.9062 1.4648c-0.55078 0.20704-0.91407 0.73047-0.91407 1.3164v4.2383l-3.7734 1.414c-0.54688 0.207-0.91016 0.7305-0.91016 1.3164v4.3008c0 0.5313 0.30078 1.0195 0.77734 1.2578l3.9062 1.9531c0.39453 0.1993 0.86329 0.1993 1.2578 0l4.0586-2.0312 4.0586 2.0312c0.3945 0.1993 0.8633 0.1993 1.2578 0l3.9063-1.9531c0.4765-0.2383 0.7773-0.7265 0.7773-1.2578v-4.3008c0-0.5859-0.3633-1.1094-0.9141-1.3164zm-5.1015-1.3828-3.3203 1.2461v-2.6641l3.3203-1.4453zm0-4.3242v0.02344l-3.9844 1.6172-3.9844-1.6172v-0.02344l3.9844-1.4922zm-4.6875 11.371-3.3203 1.6601v-3.0898l3.3203-1.5156zm-7.9688-4.375v-0.0235l3.9844-1.4921 3.9844 1.4921v0.0235l-3.9844 1.6172zm17.344 4.375-3.3203 1.6601v-3.0898l3.3203-1.5156zm-7.9688-4.375v-0.0235l3.9844-1.4921 3.9844 1.4921v0.0235l-3.9844 1.6172z" fill="#676767"/>
</svg>
