<svg xmlns="http://www.w3.org/2000/svg" width="24" height="24" fill="none"><path d="M9.754 8.838l.339 9.269-1.565.057-.34-9.269 1.566-.057zM15.811 8.896l-1.565-.058-.34 9.269 1.566.057.34-9.268zM12.783 8.867h-1.566v9.269h1.566v-9.27z" fill="#676767"/><path d="M9.441 2h5.118c.72 0 1.305.586 1.305 1.305v1.698h5.457v1.566h-1.659l-1.295 14.716a.783.783 0 01-.78.715h-11.2a.783.783 0 01-.78-.715L4.31 6.57H2.68V5.003h5.457V3.305C8.136 2.585 8.72 2 9.44 2zm.261 3.003h4.596V3.567H9.702zm8.388 1.566H5.884l1.22 13.864h9.766z" fill="#676767"/></svg>