<svg width="24" height="24" viewBox="0 0 24 24" fill="none" xmlns="http://www.w3.org/2000/svg">
<path d="M18.9568 14.2374L13.259 10.9239L14.834 10.0146C15.2247 9.78899 15.3586 9.28939 15.133 8.8987C14.9074 8.508 14.4078 8.37413 14.0172 8.59971L12.4422 9.50903V2.81686C12.4422 2.36572 12.0764 2 11.6253 2C11.1742 2 10.8084 2.36572 10.8084 2.81686V9.50904L9.23342 8.59972C8.84274 8.37414 8.34315 8.50801 8.11758 8.89871C7.892 9.2894 8.02588 9.78899 8.41657 10.0146L9.99157 10.9239L4.29383 14.2149C3.90312 14.4405 3.76926 14.9401 3.99483 15.3307C4.2204 15.7214 4.71998 15.8553 5.11068 15.6297L10.8084 12.3387V13.9952C10.8084 14.4463 11.1742 14.8121 11.6253 14.8121C12.0764 14.8121 12.4422 14.4463 12.4422 13.9952V12.3387L18.1399 15.6523C18.5306 15.8778 19.0302 15.744 19.2558 15.3533C19.4813 14.9626 19.3475 14.463 18.9568 14.2374Z" fill="#676767"/>
<path d="M21.0554 8.64844C21.0493 8.65459 21.0431 8.66112 21.0362 8.66726C21.0301 8.67995 21.0239 8.68609 21.0178 8.69262L20.9801 8.72413C20.9801 8.72413 20.974 8.73028 20.9671 8.73643C20.9609 8.73643 20.9609 8.74296 20.9548 8.74911C20.9425 8.75527 20.9294 8.7618 20.9233 8.76794C20.9171 8.77447 20.911 8.78062 20.9048 8.78062C20.8917 8.78677 20.8795 8.79331 20.8733 8.79945C20.8664 8.80598 20.8602 8.80598 20.8479 8.81213C20.8418 8.81828 20.8287 8.82481 20.8164 8.83096C20.8103 8.83096 20.8041 8.83096 20.7972 8.83711C20.7849 8.84364 20.7726 8.84364 20.7596 8.84979C20.7534 8.84979 20.7473 8.85594 20.7411 8.85594C20.7281 8.86247 20.7158 8.86247 20.7035 8.86247C20.6966 8.86861 20.6904 8.86861 20.6843 8.86861C20.6651 8.87514 20.6528 8.87514 20.6405 8.87514C20.6336 8.87514 20.6274 8.87514 20.6213 8.88129H20.5644C20.5398 8.88129 20.5206 8.88129 20.5021 8.88129C20.5021 8.88129 20.4952 8.88129 20.4952 8.87514C20.4768 8.87514 20.4576 8.87514 20.4391 8.86861H20.4322C20.4138 8.86246 20.3946 8.86246 20.3823 8.85592C20.3761 8.85592 20.37 8.84977 20.37 8.84977L20.3192 8.83095C20.3131 8.83095 20.3131 8.83095 20.3069 8.83095L20.2624 8.80597C20.2562 8.80597 20.2562 8.80597 20.2562 8.80597C20.2186 8.78676 20.187 8.76178 20.1617 8.73642H20.1555C20.1432 8.72412 20.124 8.71145 20.1117 8.69876C20.1117 8.69261 20.1117 8.69261 20.1056 8.69261L20.0741 8.65457L20.0679 8.64844L18.9729 7.32704L17.8716 8.64844V8.65459L17.834 8.69263C17.834 8.69263 17.8278 8.69263 17.8278 8.69878L17.7902 8.73644C17.784 8.73644 17.784 8.73644 17.784 8.73644C17.7525 8.7618 17.721 8.78677 17.6895 8.80599H17.6833C17.6641 8.81214 17.6518 8.82481 17.6326 8.83097H17.6265C17.6073 8.83712 17.595 8.84365 17.5758 8.84979C17.5696 8.84979 17.5696 8.85594 17.5635 8.85594L17.5135 8.86861C17.5066 8.86861 17.5066 8.86861 17.5004 8.86861C17.482 8.87514 17.4628 8.87514 17.4505 8.87514L17.4436 8.88129C17.419 8.88129 17.3998 8.88129 17.3813 8.88129H17.3183C17.3122 8.87514 17.3052 8.87514 17.2991 8.87514C17.2868 8.87514 17.2737 8.87514 17.2614 8.86861C17.2553 8.86861 17.2491 8.86861 17.2361 8.86246C17.2238 8.86246 17.2176 8.86246 17.2046 8.85592L17.18 8.84977C17.1669 8.84362 17.1608 8.84362 17.1485 8.83709C17.1416 8.83094 17.1293 8.83094 17.1231 8.83094C17.117 8.82479 17.1039 8.81826 17.0916 8.81212L17.0724 8.79944C17.0601 8.79329 17.0478 8.78676 17.0409 8.78061C17.0347 8.78061 17.0286 8.77446 17.0224 8.76793C17.0094 8.76178 16.9971 8.75525 16.9848 8.74296C16.9848 8.74296 16.9786 8.73642 16.9717 8.73642C16.9656 8.73027 16.9594 8.72412 16.9594 8.7176C16.9471 8.71145 16.9341 8.7053 16.9279 8.69262L16.9026 8.66726C16.8964 8.66111 16.8903 8.65458 16.8841 8.64844L16.8649 8.61693C16.8588 8.61078 16.8526 8.60464 16.8465 8.59811C16.8396 8.58542 16.8334 8.57928 16.8334 8.5666L16.815 8.54162C16.815 8.53509 16.808 8.5228 16.8019 8.51626L16.7896 8.48476C16.7896 8.47861 16.7834 8.46593 16.7834 8.45978C16.7773 8.4471 16.7704 8.43441 16.7704 8.42826C16.7642 8.41558 16.7642 8.40944 16.7642 8.40329C16.7581 8.39061 16.7581 8.37793 16.7519 8.36525V8.33374C16.7458 8.32759 16.7458 8.31491 16.7458 8.30261V8.25843C16.7458 8.2519 16.7458 8.24575 16.7458 8.24575C16.7458 8.22077 16.7458 8.20195 16.7458 8.17658V8.17044C16.7519 8.15123 16.7519 8.1324 16.7581 8.12011C16.7581 8.10742 16.7581 8.10128 16.7642 8.09475C16.7642 8.08206 16.7642 8.06977 16.7704 8.05709C16.7704 8.04441 16.7773 8.03826 16.7835 8.02558L16.7896 8.00061C16.7958 7.98792 16.8019 7.97525 16.808 7.9691C16.808 7.95641 16.815 7.94989 16.8211 7.94374C16.8273 7.92491 16.8334 7.91223 16.8465 7.89994C16.8465 7.89341 16.8465 7.89341 16.8526 7.88726L16.8903 7.83692L18.1421 6.333L16.8903 4.82293C16.7957 4.71612 16.7458 4.57126 16.7458 4.4141C16.7458 4.06175 17.0286 3.77857 17.3813 3.77857C17.5758 3.77857 17.7525 3.86656 17.8716 4.01142L18.9729 5.33244L20.0679 4.01142H20.0741C20.1871 3.86656 20.363 3.77857 20.5644 3.77857C20.9171 3.77857 21.1999 4.06175 21.1999 4.4141C21.1999 4.57126 21.1438 4.71612 21.0554 4.82293L19.8036 6.333L21.0554 7.83692C21.0677 7.85575 21.0808 7.86843 21.0931 7.88726C21.0931 7.89341 21.0993 7.89341 21.0993 7.89994C21.1062 7.91223 21.1185 7.92491 21.1246 7.94374C21.1308 7.94989 21.1308 7.95642 21.1377 7.9691C21.1438 7.97525 21.1438 7.98792 21.15 8.00061C21.1561 8.00676 21.1561 8.01943 21.1623 8.02558C21.1623 8.03826 21.1684 8.04441 21.1753 8.05709C21.1753 8.06977 21.1815 8.07591 21.1815 8.0886C21.1815 8.10128 21.1876 8.10742 21.1876 8.12011C21.1938 8.1324 21.1938 8.15123 21.1938 8.16391C21.1938 8.17044 21.1938 8.17659 21.1999 8.17659V8.26458C21.1999 8.27726 21.1999 8.28994 21.1999 8.30262C21.1938 8.31491 21.1938 8.3276 21.1938 8.34028L21.1876 8.36526C21.1876 8.37794 21.1815 8.39061 21.1815 8.4033C21.1753 8.40945 21.1753 8.41559 21.1753 8.42827L21.1623 8.45977C21.1561 8.46592 21.1561 8.4786 21.15 8.48475C21.15 8.49743 21.1438 8.50396 21.1377 8.51626C21.1377 8.52279 21.1307 8.53508 21.1246 8.54161C21.1184 8.54776 21.1184 8.56044 21.1123 8.56659L21.0931 8.5981C21.0869 8.60463 21.0808 8.61078 21.0746 8.61692L21.0554 8.64844Z" fill="#676767"/>
<path d="M6.12286 8.05673V8.06288L4.87715 10.5482C4.76957 10.7564 4.55594 10.9009 4.30464 10.9009C3.9519 10.9009 3.6691 10.6181 3.6691 10.2654C3.6691 10.1585 3.69369 10.064 3.73827 9.97563H3.73212L4.82029 7.80506L2.85068 4.79107C2.78766 4.69039 2.75 4.57089 2.75 4.44525C2.75 4.0929 3.03357 3.80318 3.38553 3.80318C3.60608 3.80318 3.80743 3.92268 3.9204 4.0929L5.48119 6.49018L6.65081 4.15553C6.75226 3.94804 6.97204 3.80318 7.21719 3.80318C7.56992 3.80318 7.85887 4.0929 7.85887 4.44525C7.85887 4.54593 7.83428 4.64659 7.78971 4.72805L6.12286 8.05673Z" fill="#676767"/>
<path d="M14.0852 21.3645C14.0852 21.7172 13.7963 22 13.4436 22H10.2413C10.1214 22 10.0023 21.9685 9.89471 21.8993C9.53045 21.6726 9.52353 21.22 9.75023 20.9495L12.078 18.1745H10.2351C9.88241 18.1745 9.59961 17.8855 9.59961 17.5328C9.59961 17.1808 9.88241 16.8973 10.2351 16.8973H13.4436C13.9784 16.8973 14.2743 17.5205 13.9408 17.9355C13.9408 17.9416 13.9346 17.9416 13.9346 17.9478L11.6 20.7228H13.4436C13.7963 20.7228 14.0852 21.0125 14.0852 21.3645Z" fill="#676767"/>
</svg>
