<svg width="24" height="24" fill="none" version="1.1" viewBox="0 0 24 24" xmlns="http://www.w3.org/2000/svg">
  <path d="m20.839 10.801c0.1826-0.88468 0.0337-1.7398-0.3512-2.4606 0.1155-0.93234-0.1571-1.8971-0.6773-2.6168-0.0373-2.1839-1.3994-3.7238-4.4118-3.7238l-0.8679 3.9e-4c-2.4838 0-3.9168 0.58859-5.0236 1.0432-0.6963 0.28599-1.2635 0.51894-1.8819 0.51894h-0.42363c-0.22032-0.19434-0.50946-0.3125-0.82637-0.3125h-2.5c-0.69035 0-1.25 0.55965-1.25 1.25v9.375c0 0.6904 0.55965 1.25 1.25 1.25h2.5c0.46258 0 0.86621-0.2515 1.0823-0.625h0.27547c0.38572 0.3415 0.85167 0.961 1.3344 1.6027 0.45323 0.6026 0.92127 1.2248 1.3515 1.6551 0.1561 0.1561 0.2548 0.5833 0.3765 1.1099 0.2945 1.275 0.7236 3.1323 2.4267 3.1323 2.2492 0 3.7215-1.2475 3.7215-4.091 0-0.7192-0.1536-1.3176-0.3457-1.818h1.425c1.8985 0 3.3523-1.6236 3.3523-3.343 0-0.748-0.1937-1.3667-0.5363-1.9468zm-15.714 2.7613c-0.51777 0-0.9375-0.4197-0.9375-0.9375s0.41973-0.9375 0.9375-0.9375 0.9375 0.4197 0.9375 0.9375-0.41973 0.9375-0.9375 0.9375zm9.3822 2.4658c0.2793 0.552 0.5612 1.1089 0.5612 1.8807 0 0.9277 0 2.216-1.8465 2.216-0.3321-0.332-0.4403-0.8879-0.5594-1.4999-0.1459-0.7495-0.3081-1.5832-0.918-2.1931-0.3374-0.3375-0.7287-0.8581-1.1414-1.4071-0.85619-1.139-1.804-2.3999-2.5515-2.3999h-0.42656v-7.2723c0.97134 0 1.882-0.31783 2.8585-0.65865 1.1289-0.39398 2.3458-0.81869 3.8462-0.81869h1.4773c1.3872 0 2.3758 0.66875 2.075 2.5742 0.5938 0.31875 1.0352 1.4234 0.5446 2.2488 0.843 0.79625 0.7304 1.9948 0.2035 2.5633 0.3691 0 0.8734 0.7387 0.8699 1.477-0.0035 0.7386-0.6527 1.4773-1.4773 1.4773h-4.0622c0 0.7322 0.2722 1.2699 0.5467 1.8123z" fill="#676767"/>
</svg>
