<svg xmlns="http://www.w3.org/2000/svg" width="24" height="24" fill="none"><path d="M16.348 11.12H7.652c-.343 0-.62.312-.62.697 0 .385.277.697.62.697h8.696c.343 0 .62-.312.62-.697 0-.385-.277-.697-.62-.697zM16.348 13.907H7.652c-.343 0-.62.312-.62.697 0 .384.277.696.62.696h8.696c.343 0 .62-.312.62-.696 0-.385-.277-.697-.62-.697zM7.652 16.694h4.97c.342 0 .62.312.62.696 0 .385-.278.697-.62.697h-4.97c-.343 0-.62-.312-.62-.697 0-.384.277-.696.62-.696z" fill="#676767"/><path d="M14.462 2.31l5.312 5.202a.648.648 0 01.195.46v13.435c0 .36-.298.65-.664.65H4.695a.657.657 0 01-.664-.65V2.77c0-.359.298-.65.664-.65h9.297c.183 0 .35.074.47.19zm.194 2.03V7.32h3.045L14.656 4.34zM5.36 20.757h13.282V8.621h-4.649a.657.657 0 01-.664-.65v-4.55H5.36v17.336z" fill="#676767"/></svg>