<svg width="24" height="24" viewBox="0 0 24 24" fill="none" xmlns="http://www.w3.org/2000/svg">
<path d="M13.0999 10.6096L15.0428 8.66667C15.457 8.25246 16.1286 8.25246 16.5428 8.66667C16.957 9.08088 16.957 9.75246 16.5428 10.1667L11.9999 14.7096L7.45703 10.1667C7.04282 9.75246 7.04282 9.08088 7.45703 8.66667C7.87124 8.25246 8.54282 8.25246 8.95703 8.66667L10.8999 10.6096L10.8999 3.22378C10.8999 2.61627 11.3924 2.12378 11.9999 2.12378C12.6074 2.12378 13.0999 2.61627 13.0999 3.22378L13.0999 10.6096Z" fill="#676767"/>
<path d="M4 15C4 14.4477 3.55228 14 3 14C2.44772 14 2 14.4477 2 15V19C2 19.7957 2.31607 20.5587 2.87868 21.1213C3.44129 21.684 4.20435 22 5 22H19C19.7957 22 20.5587 21.684 21.1213 21.1213C21.6839 20.5587 22 19.7957 22 19V15C22 14.4477 21.5523 14 21 14C20.4477 14 20 14.4477 20 15V19C20 19.2652 19.8946 19.5196 19.7071 19.7071C19.5196 19.8947 19.2652 20 19 20H5C4.73478 20 4.48043 19.8947 4.29289 19.7071C4.10536 19.5196 4 19.2652 4 19V15Z" fill="#676767"/>
</svg>
