<svg width="24" height="24" fill="none" version="1.1" viewBox="0 0 24 24" xmlns="http://www.w3.org/2000/svg">
  <path d="m12.288 17.263 9.118-9.2306c0.7917-0.80145 0.7917-2.1056-0.0034-2.9105l-1.5-1.5185c-0.7917-0.80496-2.0764-0.80496-2.8716 0l-9.118 9.2307-0.34722 3.1777c-0.10069 0.9279 0.67361 1.7048 1.5833 1.6028zm4.7917-3.262-1.1111 1.1249c-0.0521 0.0527-0.0799 0.123-0.0799 0.1968v3.9896h-12.222v-12.373h8.3854c0.0764 0 0.1458-0.02812 0.1979-0.08085l1.1111-1.1248c0.1736-0.17927 0.0486-0.48157-0.1979-0.48157h-9.4965c-0.92014 0-1.6667 0.75575-1.6667 1.6872v12.373c0 0.9316 0.74653 1.6873 1.6667 1.6873h12.222c0.9201 0 1.6667-0.7557 1.6667-1.6873v-5.1109c0-0.2531-0.3021-0.3761-0.4757-0.2004zm-5.5591 1.6486-2.2673 0.2566 0.25347-2.2954 6.4514-6.5346 2.0174 2.0423zm7.2049-10.851 1.5 1.5185c0.1424 0.14411 0.1424 0.37611 0.0035 0.52375l-1.073 1.0862-2.0173-2.0423 1.0729-1.0862c0.1389-0.14412 0.3715-0.14412 0.5139 0z" fill="#676767"/>
</svg>
