<svg xmlns="http://www.w3.org/2000/svg" width="24" height="24" fill="none"><path d="M21.391 11.28V9.77a1.76 1.76 0 00-.929-1.55l-1.419-.758v-2.31A2.155 2.155 0 0016.891 3H7.108a2.154 2.154 0 00-2.152 2.152V7.46l-1.422.76c-.571.31-.926.903-.926 1.55v9.47c0 .97.79 1.76 1.761 1.76H19.63c.971 0 1.761-.79 1.761-1.76v-7.884a.578.578 0 000-.075zm-2.62 1.763l1.446-.755v6.951a.587.587 0 01-.587.587H4.37a.587.587 0 01-.588-.587v-6.952l1.443.754c.03.02.063.036.096.05l5.682 2.968A2.166 2.166 0 0013 16.057l5.681-2.967a.587.587 0 00.089-.047zm-14.989-2.08V9.77c0-.213.122-.415.308-.516l.866-.463v2.785zm15.261-2.17l.863.46c.189.102.311.304.311.517v1.194l-1.174.613zm-10.956 2.62c0-.324.263-.587.587-.587h6.652a.587.587 0 010 1.174H8.674a.587.587 0 01-.587-.587zm7.239-1.76H8.674a.587.587 0 010-1.175h6.652a.587.587 0 010 1.174zm-7.24-2.936c0-.324.264-.587.588-.587h3.521a.587.587 0 010 1.174H8.674a.587.587 0 01-.587-.587z" fill="#676767"/></svg>