<svg width="24" height="24" fill="none" version="1.1" viewBox="0 0 24 24" xmlns="http://www.w3.org/2000/svg">
  <path d="m20.125 4.5h-16.25c-1.0356 0-1.875 0.83945-1.875 1.875v11.25c0 1.0355 0.83945 1.875 1.875 1.875h16.25c1.0355 0 1.875-0.8395 1.875-1.875v-11.25c0-1.0356-0.8395-1.875-1.875-1.875zm0 1.875v1.594c-0.8759 0.71324-2.2722 1.8223-5.2573 4.1598-0.1106 0.087-0.2394 0.1945-0.3815 0.313-0.7032 0.5868-1.7319 1.4452-2.4862 1.4331-0.7542 0.0122-1.7832-0.8464-2.4864-1.4332-0.14202-0.1185-0.27076-0.226-0.38126-0.3129-2.9846-2.3371-4.3813-3.4464-5.2573-4.1598v-1.594zm-12.151 7.2283c0.123 0.0968 0.25931 0.2105 0.40755 0.3341 0.88081 0.7344 2.183 1.8203 3.6183 1.8126 1.4291 0.0077 2.7171-1.0637 3.6107-1.807 0.1497-0.1245 0.2884-0.2399 0.4148-0.3394 1.9347-1.515 3.2044-2.5157 4.0995-3.2286v7.25h-16.25v-7.2501c0.89508 0.713 2.1644 1.7134 4.0991 3.2284z" fill="#676767"/>
</svg>
