<svg width="24" height="24" fill="none" version="1.1" viewBox="0 0 24 24" xmlns="http://www.w3.org/2000/svg">
  <path d="m21.32 8.4264c-0.1835-0.15168-4.3642-3.5137-5.2833-4.2444-0.1245-0.09953-0.2618-0.21573-0.4106-0.34172-0.8832-0.74769-2.1738-1.8403-3.6259-1.8403-1.4455 0-2.7256 1.0808-3.6203 1.8363-0.14991 0.12657-0.289 0.24401-0.41623 0.3457-0.95559 0.75977-5.1199 4.1092-5.2793 4.2402-0.43316 0.35618-0.68416 0.88753-0.68418 1.4483v10.254c0 1.0355 0.83945 1.875 1.875 1.875h16.25c1.0355 0 1.875-0.8395 1.875-1.875v-10.254c0-0.559-0.2494-1.0888-0.6802-1.445zm-1.1948 11.464c0 0.1295-0.1049 0.2344-0.2344 0.2344h-15.781c-0.12945 0-0.23438-0.1049-0.23438-0.2344v-9.9083c0-0.07082 0.03188-0.13773 0.08695-0.18222 0.61992-0.50055 4.2497-3.4201 5.1705-4.1521 0.12148-0.09703 0.25838-0.21279 0.40649-0.33804 0.71709-0.60637 1.697-1.435 2.4611-1.435 0.7677 0 1.7631 0.84312 2.4715 1.4432 0.1457 0.12335 0.2792 0.23643 0.3961 0.32981 0.9208 0.73207 4.5509 3.6521 5.1705 4.153 0.055 0.04446 0.087 0.11142 0.0869 0.18215v9.9075zm-1.3178-6.6688c0.2035-0.1636 0.2341-0.4618 0.0682-0.6634l-0.5961-0.7236c-0.1631-0.1982-0.4553-0.2283-0.6554-0.0675-1.1179 0.8984-2.2878 1.8372-2.7563 2.2097-0.1215 0.097-0.2583 0.2127-0.4064 0.3379-0.717 0.6064-1.697 1.4351-2.4612 1.4351-0.7677 0-1.7631-0.8431-2.4716-1.4432-0.14562-0.1234-0.27912-0.2364-0.39603-0.3298-0.46851-0.3725-1.6384-1.3113-2.7562-2.2098-0.20008-0.1608-0.49222-0.1308-0.65543 0.0674l-0.59601 0.7238c-0.16594 0.2015-0.13535 0.4997 0.06816 0.6633 1.14 0.9161 2.33 1.871 2.7706 2.2213 0.12423 0.0993 0.26129 0.2153 0.40999 0.3412 0.88219 0.747 2.174 1.8408 3.6265 1.8408 1.4456 0 2.7256-1.0809 3.6204-1.8364 0.1498-0.1265 0.2889-0.2439 0.4161-0.3456 0.4553-0.362 1.6389-1.3117 2.7707-2.2212z" fill="#676767"/>
</svg>
