<svg width="24" height="24" viewBox="0 0 24 24" fill="none" xmlns="http://www.w3.org/2000/svg">
<path d="M15.0313 18.3625C12.8102 18.3625 11.422 17.2982 10.728 15.4936H16.9747L16.4657 13.2262H10.1727C10.1264 12.856 10.1264 12.4396 10.1264 12.0694C10.1264 11.9769 10.1264 11.838 10.1264 11.7455H16.7434L17.53 9.47815H10.4041C11.0056 6.93316 12.6251 5.63753 15.0313 5.63753C16.3269 5.63753 16.8359 5.96144 17.5763 6.33162L18.6406 3.78663C18.0853 3.46272 16.7897 3 14.9388 3C11.0519 3 7.99788 5.40617 7.07243 9.47815H5.36035V11.7455H6.74853C6.74853 11.8843 6.74853 12.0694 6.74853 12.2082C6.74853 12.5784 6.74853 12.9023 6.7948 13.2262H5.36035V15.4936H7.16498C8.1367 18.9177 10.7742 21 14.5686 21C16.4195 21 17.8539 20.6298 18.548 20.2134L17.6226 17.7147C16.8822 18.0848 16.1418 18.3625 15.0313 18.3625Z" fill="#676767"/>
</svg>
