<svg width="24" height="24" viewBox="0 0 24 24" fill="none" xmlns="http://www.w3.org/2000/svg">
<path d="M14.9378 20C14.3855 20 13.9378 20.4477 13.9378 21C13.9378 21.5523 14.3855 22 14.9378 22H18.9378C19.7334 22 20.4965 21.6839 21.0591 21.1213C21.6217 20.5587 21.9378 19.7957 21.9378 19V5C21.9378 4.20435 21.6217 3.44129 21.0591 2.87868C20.4965 2.31607 19.7334 2 18.9378 2H14.9378C14.3855 2 13.9378 2.44772 13.9378 3C13.9378 3.55228 14.3855 4 14.9378 4L18.9378 4C19.203 4 19.4573 4.10536 19.6449 4.29289C19.8324 4.48043 19.9378 4.73478 19.9378 5V19C19.9378 19.2652 19.8324 19.5196 19.6449 19.7071C19.4573 19.8946 19.203 20 18.9378 20H14.9378Z" fill="#676767"/>
<path d="M8.60442 7.45721C9.01863 7.043 9.6902 7.043 10.1044 7.45721L14.6473 12.0001L10.1044 16.543C9.6902 16.9572 9.01863 16.9572 8.60442 16.543C8.1902 16.1288 8.1902 15.4572 8.60442 15.043L10.5473 13.1001L3.16152 13.1001C2.55401 13.1001 2.06152 12.6076 2.06152 12.0001C2.06152 11.3926 2.55401 10.9001 3.16152 10.9001L10.5473 10.9001L8.60442 8.95721C8.1902 8.543 8.1902 7.87143 8.60442 7.45721Z" fill="#676767"/>
</svg>
