<svg width="24" height="24" viewBox="0 0 24 24" fill="none" xmlns="http://www.w3.org/2000/svg">
<path d="M20.7002 6C20.5002 5.9 20.2002 5.9 20.0002 6.1L14.9002 10.9V6.6C14.9002 6.3 14.7002 6.1 14.6002 6C14.4002 5.9 14.1002 5.9 13.9002 6.1L8.70018 10.5L7.90018 2.7C7.90018 2.3 7.60018 2 7.30018 2H4.50018C4.20018 2 3.90018 2.3 3.90018 2.6L2.90018 20C2.80018 21.1 3.70018 22 4.80018 22H19.1002C20.2002 22 21.0002 21.1 21.0002 20.1V6.7C21.1002 6.4 20.9002 6.2 20.7002 6ZM9.90018 18C9.90018 18.3 9.70018 18.5 9.40018 18.5H7.80018C7.50018 18.5 7.30018 18.3 7.30018 18V14.4C7.30018 14.1 7.50018 13.9 7.80018 13.9H9.40018C9.70018 13.9 9.90018 14.1 9.90018 14.4V18ZM13.9002 18C13.9002 18.3 13.7002 18.5 13.4002 18.5H11.8002C11.5002 18.5 11.3002 18.3 11.3002 18V14.4C11.3002 14.1 11.5002 13.9 11.8002 13.9H13.4002C13.7002 13.9 13.9002 14.1 13.9002 14.4V18ZM17.9002 18C17.9002 18.3 17.7002 18.5 17.4002 18.5H15.8002C15.5002 18.5 15.3002 18.3 15.3002 18V14.4C15.3002 14.1 15.5002 13.9 15.8002 13.9H17.4002C17.7002 13.9 17.9002 14.1 17.9002 14.4V18Z" fill="#676767"/>
</svg>
