<svg width="24" height="24" fill="none" version="1.1" viewBox="0 0 24 24" xmlns="http://www.w3.org/2000/svg">
  <path d="m13.25 7.3125v-5.3125h-7.8125c-0.51953 0-0.9375 0.41797-0.9375 0.9375v18.125c0 0.5195 0.41797 0.9375 0.9375 0.9375h13.125c0.5195 0 0.9375-0.418 0.9375-0.9375v-12.812h-5.3125c-0.5156 0-0.9375-0.42188-0.9375-0.9375zm2.3477 4.1602-2.3477 3.6523 2.3477 3.6523c0.1992 0.3125-0.0235 0.7227-0.3946 0.7227h-1.3633c-0.1718 0-0.332-0.0938-0.414-0.2461-0.7656-1.4141-1.4258-2.6836-1.4258-2.6836-0.1765 0.4081-0.2985 0.6294-0.7205 1.3948-0.1758 0.3189-0.4036 0.7322-0.7092 1.2927-0.082 0.1524-0.2383 0.2461-0.4101 0.2461h-1.3633c-0.3711 0-0.59376-0.4101-0.39454-0.7227l2.3555-3.6523-2.3555-3.6523c-0.20312-0.3125 0.02344-0.7227 0.39454-0.7227h1.3593c0.1719 0 0.3321 0.0938 0.4141 0.2461 0.4395 0.8218 0.6453 1.179 0.7891 1.4286 0.1898 0.3294 0.2717 0.4716 0.6406 1.2472 0 0 0.2383-0.457 1.4297-2.6758 0.082-0.1523 0.2422-0.2461 0.4141-0.2461h1.3593c0.3711-0.0039 0.5938 0.4063 0.3946 0.7188zm3.9023-4.4727v-0.23828c0-0.2461-0.0977-0.48438-0.2734-0.66016l-3.8243-3.8281c-0.1757-0.17578-0.414-0.27344-0.664-0.27344h-0.2383v5h5z" fill="#676767"/>
</svg>
