<svg width="24" height="24" fill="none" version="1.1" viewBox="0 0 24 24" xmlns="http://www.w3.org/2000/svg">
  <path d="m13.25 7.3125v-5.3125h-2.4844v1.25h-1.25v-1.25h-4.0781c-0.51953 0-0.9375 0.41797-0.9375 0.9375v18.125c0 0.5195 0.41797 0.9375 0.9375 0.9375h13.125c0.5195 0 0.9375-0.418 0.9375-0.9375v-12.812h-5.3125c-0.5156 0-0.9375-0.42188-0.9375-0.9375zm-5.0039-4.0625h1.25v1.25h-1.25zm0.01953 8.75v-1.25h1.25v-1.25h-1.25v-1.25h1.25v-1.25h-1.25v-1.25h1.25v-1.25h1.25v1.25h-1.25v1.25h1.25v1.25h-1.25v1.25h1.25v1.25h-1.25v1.25h0.86328c0.2227 0 0.418 0.1602 0.4609 0.3789l0.6758 3.4258c0.25 1.2656-0.7187 2.4453-2.0078 2.4453-1.2969 0-2.2656-1.1875-2.0078-2.457zm2.5196 4.1797c0 0.582-0.5664 1.0547-1.2657 1.0547-0.69922 0-1.2695-0.4688-1.2695-1.0547 0-0.582 0.56641-1.0547 1.2656-1.0547 0.69918 0 1.2696 0.4727 1.2696 1.0547zm8.7148-9.1797v-0.23828c0-0.2461-0.0977-0.48438-0.2734-0.66016l-3.8243-3.8281c-0.1757-0.17578-0.414-0.27344-0.664-0.27344h-0.2383v5z" fill="#676767"/>
</svg>
