<svg width="24" height="24" fill="none" version="1.1" viewBox="0 0 24 24" xmlns="http://www.w3.org/2000/svg">
  <path d="m14.188 8.25c-0.5156 0-0.9375-0.42188-0.9375-0.9375v-5.3125h-7.8125c-0.51777 0-0.9375 0.41973-0.9375 0.9375v18.125c0 0.5178 0.41973 0.9375 0.9375 0.9375h13.125c0.5178 0 0.9375-0.4197 0.9375-0.9375v-12.812zm5.3125-1.4867v0.23668h-5v-5h0.2367c0.2486 0 0.4871 0.09879 0.6629 0.27457l3.8258 3.8258c0.1758 0.17584 0.2746 0.41429 0.2746 0.66293zm-10.485 10.891-2.5338-2.3754c-0.04253-0.0399-0.06667-0.0956-0.06667-0.1539s0.02414-0.114 0.06667-0.1539l2.5338-2.3755c0.04081-0.0382 0.09516-0.0587 0.15107-0.0569 0.05592 0.0018 0.10883 0.0257 0.14709 0.0665l0.76477 0.8159c0.0391 0.0416 0.0596 0.0973 0.0568 0.1543-0.0027 0.0571-0.0284 0.1106-0.0713 0.1483l-1.5923 1.4013 1.5923 1.4013c0.0429 0.0377 0.0686 0.0912 0.0713 0.1483 0.0028 0.057-0.0177 0.1127-0.0568 0.1543l-0.76477 0.8158c-0.03826 0.0408-0.09117 0.0648-0.14709 0.0666-0.05591 0.0018-0.11026-0.0187-0.15107-0.057zm2.3018 1.9623-1.0723-0.3114c-0.1119-0.0325-0.1763-0.1495-0.1438-0.2614l2.4-8.2666c0.0325-0.1119 0.1495-0.1762 0.2614-0.1438l1.0723 0.3113c0.0538 0.0156 0.0991 0.0519 0.126 0.101 0.027 0.049 0.0334 0.1067 0.0178 0.1604l-2.4 8.2667c-0.0156 0.0537-0.0519 0.0991-0.1009 0.126-0.049 0.027-0.1067 0.0334-0.1605 0.0178zm3.5961-1.9053c-0.0559-0.0018-0.1088-0.0258-0.1471-0.0666l-0.7649-0.8158c-0.039-0.0416-0.0595-0.0973-0.0568-0.1544 0.0028-0.057 0.0285-0.1105 0.0714-0.1482l1.5923-1.4013-1.5923-1.4013c-0.0428-0.0377-0.0686-0.0912-0.0713-0.1483-0.0028-0.057 0.0177-0.1127 0.0568-0.1543l0.7648-0.8159c0.0383-0.0408 0.0912-0.0647 0.1471-0.0665s0.1103 0.0187 0.1511 0.0569l2.5338 2.3755c0.0426 0.0399 0.0667 0.0956 0.0667 0.1539s-0.0242 0.114-0.0667 0.1539l-2.5338 2.3754c-0.0409 0.0383-0.0952 0.0588-0.1511 0.057z" fill="#676767"/>
</svg>
