<svg width="24" height="24" fill="none" version="1.1" viewBox="0 0 24 24" xmlns="http://www.w3.org/2000/svg">
  <path d="m13.25 7.3125v-5.3125h-7.8125c-0.51953 0-0.9375 0.41797-0.9375 0.9375v18.125c0 0.5195 0.41797 0.9375 0.9375 0.9375h13.125c0.5195 0 0.9375-0.418 0.9375-0.9375v-12.812h-5.3125c-0.5156 0-0.9375-0.42188-0.9375-0.9375zm2.5 9.2187c0 0.2579-0.2109 0.4688-0.4688 0.4688h-6.5624c-0.25781 0-0.46875-0.2109-0.46875-0.4688v-0.3124c0-0.2579 0.21094-0.4688 0.46875-0.4688h6.5624c0.2579 0 0.4688 0.2109 0.4688 0.4688zm-7.0312-2.0312c-0.25781 0-0.46875-0.2109-0.46875-0.4688v-0.3124c0-0.2579 0.21094-0.4688 0.46875-0.4688h6.5624c0.2579 0 0.4688 0.2109 0.4688 0.4688v0.3124c0 0.2579-0.2109 0.4688-0.4688 0.4688zm7.0312-3.2812v0.3124c0 0.2579-0.2109 0.4688-0.4688 0.4688h-6.5624c-0.25781 0-0.46875-0.2109-0.46875-0.4688v-0.3124c0-0.2579 0.21094-0.4688 0.46875-0.4688h6.5624c0.2579 0 0.4688 0.2109 0.4688 0.4688zm3.75-4.2188v-0.23828c0-0.2461-0.0977-0.48438-0.2734-0.66016l-3.8243-3.8281c-0.1757-0.17578-0.414-0.27344-0.664-0.27344h-0.2383v5z" fill="#676767"/>
</svg>
