<svg width="24" height="24" fill="none" version="1.1" viewBox="0 0 24 24" xmlns="http://www.w3.org/2000/svg">
  <path d="m13.25 7.3125v-5.3125h-7.8125c-0.51953 0-0.9375 0.41797-0.9375 0.9375v18.125c0 0.5195 0.41797 0.9375 0.9375 0.9375h13.125c0.5195 0 0.9375-0.418 0.9375-0.9375v-12.812h-5.3125c-0.5156 0-0.9375-0.42188-0.9375-0.9375zm2.2305 4.6875h0.9336c0.3007 0 0.5234 0.2773 0.457 0.5742l-1.4844 6.5625c-0.0469 0.2149-0.2383 0.3633-0.457 0.3633h-1.4844c-0.2148 0-0.4023-0.1484-0.4531-0.3555-0.1894-0.7596-0.3362-1.3457-0.4512-1.8043-0.32-1.2771-0.3923-1.5656-0.4439-1.8576-0.0151-0.0852-0.0284-0.1708-0.0456-0.2812-0.0153-0.0987-0.0338-0.2173-0.0593-0.3733h-0.0195c-0.0355 0.4612-0.0763 0.6242-0.5995 2.7138-0.1105 0.4413-0.2425 0.9686-0.4005 1.6026-0.0508 0.2071-0.2383 0.3555-0.4532 0.3555h-1.4492c-0.21875 0-0.41015-0.1523-0.45703-0.3672l-1.4766-6.5625c-0.06641-0.293 0.15625-0.5703 0.45703-0.5703h0.95703c0.22266 0 0.41797 0.1562 0.46094 0.3789 0.60937 3.0469 0.78516 4.2773 0.82031 4.7734 0.05278-0.3364 0.21977-1.0155 0.79027-3.3356 0.1051-0.4273 0.2239-0.9105 0.3582-1.4573 0.0507-0.211 0.2383-0.3555 0.457-0.3555h1.1367c0.2188 0 0.4063 0.1484 0.457 0.3594 0.9376 3.9219 1.125 4.8437 1.1563 5.0547-6e-4 -0.0318-0.0016-0.0626-0.0026-0.0941-0.0133-0.4024-0.0304-0.917 0.8463-4.9528 0.0391-0.2188 0.2305-0.3711 0.4493-0.3711zm4.0195-5v-0.23828c0-0.2461-0.0977-0.48438-0.2734-0.66016l-3.8243-3.8281c-0.1757-0.17578-0.414-0.27344-0.664-0.27344h-0.2383v5h5z" fill="#676767"/>
</svg>
