<svg width="24" height="24" fill="none" version="1.1" viewBox="0 0 24 24" xmlns="http://www.w3.org/2000/svg">
  <path d="m13.25 7.3125v-5.3125h-7.8125c-0.51777 0-0.9375 0.41973-0.9375 0.9375v18.125c0 0.5178 0.41973 0.9375 0.9375 0.9375h13.125c0.5178 0 0.9375-0.4197 0.9375-0.9375v-12.812h-5.3125c-0.5156 0-0.9375-0.42188-0.9375-0.9375zm6.25-0.54918v0.23668h-5v-5h0.2367c0.2486 0 0.4871 0.09879 0.6629 0.27457l3.8258 3.8258c0.1758 0.17584 0.2746 0.41429 0.2746 0.66293zm-4.1004 11.211-2.1496-2.1488v1.4867c0 0.5178-0.4197 0.9375-0.9375 0.9375h-4.375c-0.51777 0-0.9375-0.4197-0.9375-0.9375v-4.375c0-0.5178 0.41973-0.9375 0.9375-0.9375h4.375c0.5178 0 0.9375 0.4197 0.9375 0.9375v1.4867l2.1496-2.149c0.5863-0.5863 1.6004-0.1754 1.6004 0.6629v4.3736c0 0.8377-1.0134 1.2499-1.6004 0.6629z" fill="#676767"/>
</svg>
