<svg width="24" height="24" fill="none" version="1.1" viewBox="0 0 24 24" xmlns="http://www.w3.org/2000/svg">
  <path d="m13.25 7.3125c0 0.51562 0.4219 0.9375 0.9375 0.9375h5.3125v12.812c0 0.5178-0.4197 0.9375-0.9375 0.9375h-13.125c-0.51777 0-0.9375-0.4197-0.9375-0.9375v-18.125c0-0.51777 0.41973-0.9375 0.9375-0.9375h7.8125zm6.25-0.3125v-0.23668c0-0.24865-0.0988-0.48711-0.2746-0.66293l-3.8258-3.8258c-0.1758-0.1758-0.4143-0.27457-0.6629-0.27457h-0.2367v5zm-12.479 3.75c0 1.0355 0.83945 1.875 1.875 1.875s1.875-0.8395 1.875-1.875c0-1.0356-0.83946-1.875-1.875-1.875-1.0355 0-1.875 0.83945-1.875 1.875zm0 7.5h10v-4.375l-1.5435-1.5436c-0.1831-0.183-0.4799-0.183-0.663 0l-4.0435 4.0436-1.5436-1.5436c-0.18304-0.183-0.46089-0.2019-0.64394-0.0189l-1.5436 1.5436z" fill="#676767"/>
</svg>
