<svg width="24" height="24" fill="none" version="1.1" viewBox="0 0 24 24" xmlns="http://www.w3.org/2000/svg">
  <path d="m13.25 7.3125v-5.3125h-7.8125c-0.51953 0-0.9375 0.41797-0.9375 0.9375v18.125c0 0.5195 0.41797 0.9375 0.9375 0.9375h13.125c0.5195 0 0.9375-0.418 0.9375-0.9375v-12.812h-5.3125c-0.5156 0-0.9375-0.42188-0.9375-0.9375zm-2.5 10.469c0 0.418-0.5039 0.625-0.80078 0.3321l-1.3867-1.4258h-1.0938c-0.25781 0-0.46875-0.2109-0.46875-0.4687v-2.1876c0-0.2578 0.21094-0.4687 0.46875-0.4687h1.0938l1.3867-1.4258c0.29688-0.2969 0.80078-0.0859 0.80078 0.3321zm2.6406-4.4726c1.0625 1.0898 1.0625 2.8281 0 3.9219-0.8515 0.8711-2.2226-0.4063-1.3437-1.3086 0.3554-0.3633 0.3554-0.9414 0-1.3047-0.8633-0.8906 0.4765-2.1953 1.3437-1.3086zm2.0156-1.9609c2.125 2.1835 2.125 5.6562 0 7.8437-0.8515 0.875-2.2265-0.4023-1.3437-1.3086 1.4141-1.4531 1.418-3.7695 0-5.2266-0.8633-0.8906 0.4805-2.1992 1.3437-1.3085zm4.0938-4.3477v-0.23828c0-0.2461-0.0977-0.48438-0.2734-0.66016l-3.8243-3.8281c-0.1757-0.17578-0.414-0.27344-0.664-0.27344h-0.2383v5z" fill="#676767"/>
</svg>
