<svg width="24" height="24" fill="none" version="1.1" viewBox="0 0 24 24" xmlns="http://www.w3.org/2000/svg">
  <path d="m13.25 7.3125v-5.3125h-7.8125c-0.51953 0-0.9375 0.41797-0.9375 0.9375v18.125c0 0.5195 0.41797 0.9375 0.9375 0.9375h13.125c0.5195 0 0.9375-0.418 0.9375-0.9375v-12.812h-5.3125c-0.5156 0-0.9375-0.42188-0.9375-0.9375zm2.1484-5.0391 3.8282 3.8281c0.1757 0.17578 0.2734 0.41406 0.2734 0.66016v0.23828h-5v-5h0.2344c0.25 0 0.4883 0.09766 0.664 0.27344zm-2.539 10.637c-0.1875-0.211-0.4492-0.3164-0.793-0.3164h-1.0898v2.371h1.0507c0.3594 0 0.6329-0.1132 0.8243-0.332 0.3906-0.4453 0.3828-1.2969 0.0078-1.7226zm-1.8789 3.8867v2.2343c0 0.2579-0.211 0.4688-0.4688 0.4688h-1.2031c-0.25781 0-0.46875-0.2109-0.46875-0.4688v-7.8046c0-0.2578 0.21094-0.4688 0.46875-0.4688h3.1641c1.7382 0 2.8476 1.2813 2.8476 3.0078 0 3.2054-2.8643 3.0883-4.0409 3.0402-0.1182-0.0048-0.2194-0.0089-0.2989-0.0089z" fill="#676767"/>
</svg>
