<svg width="24" height="24" fill="none" version="1.1" viewBox="0 0 24 24" xmlns="http://www.w3.org/2000/svg">
  <path d="m14.188 8.25h5.3125v12.812c0 0.5195-0.418 0.9375-0.9375 0.9375h-13.125c-0.51953 0-0.9375-0.418-0.9375-0.9375v-18.125c0-0.51953 0.41797-0.9375 0.9375-0.9375h7.8125v5.3125c0 0.51562 0.4219 0.9375 0.9375 0.9375zm-2.582 3.7539c-0.1953-0.625-0.1914-1.832-0.0782-1.832 0.3282 0 0.2969 1.4414 0.0782 1.832zm-0.0664 1.8438c-0.3008 0.789-0.6758 1.6914-1.1094 2.4492 0.175-0.067 0.3557-0.1414 0.5424-0.2184 0.5759-0.2373 1.2096-0.4985 1.9146-0.6371-0.4961-0.375-0.9726-0.9141-1.3476-1.5937zm-2.3125 3.3046c-0.84765 1.3594-1.3633 1.6016-1.3633 1.5704 0.19322-0.5231 0.85803-1.1171 1.2119-1.4333 0.06107-0.0545 0.11288-0.1008 0.1514-0.1371zm2.9941-4.3492c0.176-0.7224 0.4341-1.7816 0.2285-2.4515-0.1836-1.1485-1.6562-1.0352-1.8672-0.2657-0.1953 0.7149-0.0156 1.7227 0.3164 3.0079-0.4531 1.0781-1.1211 2.5234-1.5937 3.3515-0.00196 0-0.00293 1e-3 -0.00391 2e-3 -9.8e-4 9e-4 -0.00195 0.0019-0.0039 0.0019-1.0586 0.543-2.875 1.7383-2.1289 2.6563 0.21875 0.2695 0.625 0.3906 0.83984 0.3906 0.69922 0 1.3945-0.7031 2.3867-2.4141 0.191-0.0629 0.3855-0.1288 0.582-0.1953l1e-3 -3e-4c0.8398-0.2845 1.715-0.5809 2.503-0.7106 0.8476 0.4609 1.8398 0.7617 2.5 0.7617 1.1406 0 1.2187-1.25 0.7695-1.6953-0.543-0.5313-2.1211-0.3789-2.875-0.2813-0.7812-0.4765-1.3008-1.1328-1.668-2.1015zm7.0059-6.7015-3.8282-3.8281c-0.1757-0.17578-0.414-0.27344-0.664-0.27344h-0.2344v5h5v-0.23828c0-0.2461-0.0977-0.48438-0.2734-0.66016zm-2.8946 9.9726c0.1602-0.1054-0.0976-0.4648-1.6718-0.3515 1.4492 0.6171 1.6718 0.3515 1.6718 0.3515z" fill="#676767"/>
</svg>
