<svg width="24" height="24" fill="none" version="1.1" viewBox="0 0 24 24" xmlns="http://www.w3.org/2000/svg">
  <path d="m21.688 12c0 5.3503-4.3372 9.6875-9.6875 9.6875-5.3503 0-9.6875-4.3372-9.6875-9.6875 0-5.3503 4.3372-9.6875 9.6875-9.6875 5.3503 0 9.6875 4.3372 9.6875 9.6875zm-1.875 0-1e-4 -0.011-1.0181 0.8883-2.4484-2.2852 0.6427-3.2951 1.34 0.12c-0.9723-1.3366-2.344-2.3472-3.934-2.8571l0.5333 1.2476-2.9279 1.6221-2.9278-1.6221 0.53324-1.2476c-1.5872 0.50891-2.9602 1.5184-3.9339 2.8571l1.3502-0.12004 0.6325 3.2951-2.4484 2.2852-1.0181-0.8883-1.2e-4 0.011c0 1.6803 0.52723 3.2794 1.5028 4.609l0.30094-1.3241 3.3257 0.4081 1.418 3.0401-1.168 0.6948c1.5704 0.5125 3.2926 0.5135 4.866 0l-1.168-0.6948 1.418-3.0401 3.3257-0.4081 0.3009 1.3241c0.9757-1.3296 1.5029-2.9287 1.5029-4.609zm-10.859-0.8493 1.1677 3.5669h3.7686l1.1571-3.5669-3.0467-2.208-3.0467 2.208z" fill="#676767"/>
</svg>
