<svg width="24" height="24" viewBox="0 0 24 24" fill="none" xmlns="http://www.w3.org/2000/svg">
<path d="M19.648 4C19.7899 4 19.9129 4.05075 20.0167 4.15234C20.1204 4.25387 20.1724 4.37408 20.1724 4.51316V8.61879C20.1724 8.75779 20.1206 8.87806 20.0168 8.97962C19.913 9.0812 19.7901 9.13201 19.6481 9.13201C19.5061 9.13201 19.3832 9.0812 19.2795 8.97962L17.8378 7.56834L14.7142 10.6262C14.6596 10.6796 14.5968 10.7063 14.5258 10.7063C14.4548 10.7063 14.392 10.6796 14.3374 10.6262L13.4036 9.71212C13.349 9.65868 13.3216 9.5972 13.3216 9.52757C13.3216 9.4582 13.3489 9.39669 13.4036 9.34324L16.5271 6.28534L15.0855 4.87407C14.9817 4.77248 14.9298 4.65216 14.9298 4.51316C14.9298 4.37416 14.9817 4.25387 15.0855 4.15234C15.1892 4.05075 15.3121 4 15.4541 4H19.648Z" fill="#676767"/>
<path d="M4.35253 19.9998C4.21065 19.9998 4.08763 19.949 3.98386 19.8474C3.88017 19.7459 3.82815 19.6257 3.82812 19.4866V15.381C3.82812 15.242 3.87997 15.1217 3.98374 15.0201C4.08754 14.9186 4.21045 14.8677 4.35244 14.8677C4.49443 14.8677 4.61734 14.9186 4.72103 15.0201L6.16275 16.4314L9.28634 13.3736C9.34091 13.3201 9.40377 13.2935 9.47475 13.2935C9.54573 13.2935 9.60856 13.3201 9.66316 13.3736L10.597 14.2876C10.6516 14.3411 10.6789 14.4026 10.6789 14.4722C10.6789 14.5416 10.6517 14.6031 10.597 14.6565L7.47341 17.7144L8.91501 19.1257C9.01878 19.2273 9.07074 19.3476 9.07074 19.4866C9.07074 19.6256 9.01878 19.7459 8.91501 19.8474C8.81132 19.949 8.68839 19.9998 8.54643 19.9998L4.35253 19.9998Z" fill="#676767"/>
<path d="M20.0168 19.8475C20.1206 19.7459 20.1724 19.6255 20.1724 19.4866V15.381C20.1724 15.2421 20.1206 15.1217 20.0168 15.0202C19.9131 14.9186 19.7902 14.8678 19.6482 14.8678C19.5063 14.8678 19.3833 14.9186 19.2796 15.0202L17.8379 16.4314L14.7142 13.3737C14.6596 13.3201 14.5968 13.2935 14.5259 13.2935C14.4548 13.2935 14.392 13.3202 14.3374 13.3737L13.4037 14.2878C13.3491 14.3413 13.3219 14.4028 13.3219 14.4723C13.3219 14.5417 13.3491 14.6033 13.4037 14.6567L16.5273 17.7145L15.0857 19.1259C14.9819 19.2274 14.93 19.3477 14.93 19.4867C14.93 19.6257 14.9819 19.746 15.0857 19.8476C15.1894 19.9492 15.3123 20 15.4543 20H19.6482C19.7903 19.9999 19.9131 19.949 20.0168 19.8475Z" fill="#676767"/>
<path d="M3.8282 4.5134C3.8282 4.37452 3.88005 4.25409 3.98382 4.1525C4.08754 4.051 4.21033 4.00007 4.35241 4.00005L8.54637 4.00005C8.68836 4.00005 8.81121 4.0508 8.91496 4.15239C9.01873 4.254 9.07063 4.37432 9.07063 4.51332C9.07063 4.65232 9.01873 4.77264 8.91496 4.87414L7.47332 6.2855L10.5969 9.3433C10.6515 9.39672 10.6787 9.45826 10.6787 9.52774C10.6787 9.59723 10.6515 9.65874 10.5969 9.71218L9.66322 10.6263C9.60862 10.6798 9.54582 10.7065 9.4747 10.7065C9.40383 10.7065 9.341 10.6799 9.2864 10.6263L6.16271 7.56855L4.72108 8.97979C4.6173 9.08138 4.49439 9.13225 4.35241 9.13225C4.21042 9.13225 4.08754 9.08138 3.98382 8.97979C3.88005 8.87829 3.8282 8.75794 3.8282 8.61897L3.8282 4.5134Z" fill="#676767"/>
</svg>
