<svg xmlns="http://www.w3.org/2000/svg" width="24" height="24" fill="none"><path d="M2 12c0 5.525 4.475 10 10 10s10-4.475 10-10S17.525 2 12 2 2 6.475 2 12zm2.083 0c0-.642.075-1.267.221-1.862L6.167 12l-.417 2.5 1.667 1.667v2.287A7.906 7.906 0 014.083 12zm6.096-7.704A7.703 7.703 0 0112 4.083a8 8 0 012.012.259l-.345.575.416.416h1.25l.346-.345c.291.154.567.32.834.508l-.763.254-.833.833.833.417v.417h-.833v.833s.575.417 1.25.417c.662 0 .366-.913.833-1.25.47-.338 1.042-.263 1.042-.263l.27.071A7.88 7.88 0 0119.5 9.458V9.5s-.587-.417-1.666-.417c-1.08 0-2.084.417-2.084.417s-1.175.342-1.25 1.25c-.13 1.562.417 2.083.417 2.083L17 14.083v4.055a7.88 7.88 0 01-5 1.779 7.879 7.879 0 01-2.558-.421l2.141-4.996-.416-2.083s-1.655-2.084-2.5-2.084c-.846 0-1.25 1.25-1.25 1.25l-.834-1.666 2.5-1.667 1.25-3.333-.154-.621z" fill="#676767"/></svg>