<svg width="24" height="24" fill="none" version="1.1" viewBox="0 0 24 24" xmlns="http://www.w3.org/2000/svg">
  <path d="m21.25 7h-1.5c-0.2221 0-0.4216 0.09659-0.5589 0.25h-0.7352l-0.9728-1.1344-5e-3 -0.00563c-0.617-0.70545-1.5087-1.1101-2.4459-1.11h-1.4547c-0.5547 0-1.0906 0.15438-1.5528 0.43781-0.5144-0.28375-1.0975-0.43781-1.6928-0.43781h-1.0035c-0.90322 0-1.8 0.35059-2.475 1.025l-1.2247 1.225h-0.81987c-0.13732-0.15341-0.33679-0.25-0.55888-0.25h-1.5c-0.41422 0-0.75 0.33578-0.75 0.75v7.5c0 0.4142 0.33578 0.75 0.75 0.75h1.5c0.32653 0 0.60419-0.2087 0.70716-0.5h0.58753l2.3547 2.1116c0.79819 0.8265 1.8727 1.3884 3.0181 1.3884 0.5122 0 1.0087-0.1203 1.4406-0.3416 0.7793 0.0155 1.5969-0.324 2.1585-0.9815 0.6151-0.1744 1.1719-0.5446 1.585-1.0813 0.6559-0.1375 1.2727-0.5154 1.6693-1.0956h1.2719c0.103 0.2913 0.3807 0.5 0.7072 0.5h1.5c0.4142 0 0.75-0.3358 0.75-0.75v-7.5c0-0.41422-0.3358-0.75-0.75-0.75zm-17.75 8c-0.27616 0-0.5-0.2238-0.5-0.5s0.22384-0.5 0.5-0.5 0.5 0.2238 0.5 0.5-0.22384 0.5-0.5 0.5zm10.109 1.285c-0.1732 0.5788-0.8818 1.0571-1.6091 0.8047-0.2778 0.2778-0.7019 0.4103-1.0825 0.4103-0.7797 0-1.4928-0.4544-1.9731-0.9659l-2.5406-2.2785c-0.18337-0.1646-0.42109-0.2556-0.6675-0.2556h-0.73625v-5.25h0.83594c0.265 0 0.51937-0.10531 0.70687-0.29281l1.3712-1.3712c0.3751-0.37516 0.88387-0.58593 1.4144-0.58594h1.0035c0.1812 0 0.3597 0.02469 0.5312 0.07187l-1.3522 1.5778c-0.73625 0.85875-0.745 2.1131-0.02063 2.9825 1.0121 1.2145 2.8556 1.2259 3.89 0.0619l0.8119-0.94 2.2637 2.9959c0.42 0.4563 0.3422 1.1916-0.0647 1.57-0.4796 0.4467-1.1526 0.354-1.2484 0.25 0.0442 0.4182-0.5705 1.2826-1.5337 1.215zm5.3909-2.285h-0.7643c0.0032-0.6332-0.2125-1.2291-0.6176-1.7l-2.44-3.2288c0.141-0.29719 0.0732-0.66344-0.1878-0.88906-0.3148-0.2716-0.7884-0.23435-1.0581 0.0775l-1.6759 1.9412c-0.4322 0.4816-1.1945 0.4733-1.6138-0.029-0.254-0.3034-0.251-0.7461 0.0072-1.046l1.81-2.1119c0.2796-0.32637 0.688-0.51417 1.1178-0.51406h1.4547c0.5034 0 0.9825 0.21688 1.3147 0.595l1.4194 1.655h1.2337zm1.5 0c0.2762 0 0.5 0.2238 0.5 0.5s-0.2238 0.5-0.5 0.5-0.5-0.2238-0.5-0.5 0.2238-0.5 0.5-0.5z" fill="#676767"/>
</svg>
