<svg width="24" height="24" fill="none" version="1.1" viewBox="0 0 24 24" xmlns="http://www.w3.org/2000/svg">
  <path d="m5.2115 14.025 5.7222 5.6883c0.5909 0.5906 1.541 0.5906 2.1319 0l5.7223-5.6778 0.0139-0.014c1.2604-1.2375 2.3645-3.0481 2.3645-4.8762 0-3.3152-2.0937-5.3016-5.2777-5.3016-1.4375 0-2.8021 0.80156-3.8889 1.7508-1.0903-0.94922-2.4514-1.7508-3.8889-1.7508-3.3056 0-5.2778 2.1129-5.2778 5.3016 0 2.577 2.1319 4.6477 2.3785 4.8797zm6.7882 4.384-5.6285-5.5969c-0.94444-0.893-1.8715-2.3555-1.8715-3.6668 0-2.352 1.3229-3.6141 3.6111-3.6141 1.5507 0 3.0714 1.5644 3.7509 2.2634 0.0508 0.05226 0.0969 0.09969 0.138 0.14127 0.0441-0.04445 0.0923-0.09355 0.1442-0.1465 0.7323-0.74685 2.2143-2.2582 3.7447-2.2582 2.2847 0 3.6111 1.2621 3.6111 3.6141 0 1.3535-0.9341 2.7352-1.882 3.6844l-5.618 5.5793z" fill="#676767"/>
</svg>
