<svg xmlns="http://www.w3.org/2000/svg" width="24" height="24" fill="none"><path d="M17.076 17.268a11.317 11.317 0 004.693-4.411 1.706 1.706 0 000-1.714A11.292 11.292 0 0012 5.531c-1.01 0-1.99.133-2.923.382L7.305 3.36a.827.827 0 00-1.16-.207l-.456.322a.85.85 0 00-.205 1.175l11.211 15.99a.827.827 0 001.16.207l.456-.322a.85.85 0 00.205-1.175zm-3.99 1.149l-1.131-1.636c-2.59-.025-4.677-2.154-4.677-4.781 0-.56.095-1.096.269-1.595L5.565 7.538c-1.358.941-2.5 2.172-3.334 3.605a1.706 1.706 0 000 1.714 11.292 11.292 0 0010.855 5.56zm2.484-3.286l-.67-.952a3.693 3.693 0 00.286-3.9c0 .832-.665 1.506-1.487 1.506a1.496 1.496 0 01-1.486-1.506c0-.831.665-1.505 1.486-1.505h.001a3.578 3.578 0 00-2.791-.26l-.67-.952A4.661 4.661 0 0112 7.22c2.61 0 4.722 2.138 4.722 4.781a4.798 4.798 0 01-1.152 3.13zm-4.472.41l-2.692-3.894c-.174 1.842 1.018 3.458 2.692 3.894z" fill="#676767"/></svg>