<svg width="24" height="24" fill="none" version="1.1" viewBox="0 0 24 24" xmlns="http://www.w3.org/2000/svg">
  <path d="m22 5.8125c0-0.93199-0.7462-1.6875-1.6667-1.6875h-13.333c-0.92049 0-1.6667 0.75551-1.6667 1.6875v9c0 0.932 0.74618 1.6875 1.6667 1.6875h13.333c0.9205 0 1.6667-0.7555 1.6667-1.6875zm-1.6667 0.21094v8.5782c0 0.1165-0.0932 0.2109-0.2083 0.2109h-12.917c-0.11506 0-0.20833-0.0944-0.20833-0.2109v-8.5782c0-0.1165 0.09327-0.21094 0.20833-0.21094h12.917c0.1151 0 0.2083 0.09444 0.2083 0.21094zm-1.6666 11.602v0.5625c0 0.932-0.7462 1.6875-1.6667 1.6875h-13.333c-0.92049 0-1.6667-0.7555-1.6667-1.6875v-9c0-0.93199 0.74618-1.6875 1.6667-1.6875h0.55555v1.6875h-0.34722c-0.11506 0-0.20833 0.09444-0.20833 0.21094v8.5782c0 0.1165 0.09327 0.2109 0.20833 0.2109h12.917c0.115 0 0.2083-0.0944 0.2083-0.2109v-0.3516zm-7.5-9.5625c0 0.77664-0.6219 1.4062-1.3889 1.4062-0.76705 0-1.3889-0.62961-1.3889-1.4062s0.62184-1.4062 1.3889-1.4062c0.76702 0 1.3889 0.62961 1.3889 1.4062zm-1.128 1.9858-1.372 1.3892v1.6875h10v-2.8125l-2.4832-2.5142c-0.1627-0.16474-0.4265-0.16474-0.5892 0l-3.5943 3.6392-1.372-1.3892c-0.1628-0.16474-0.4266-0.16474-0.5893 0z" fill="#676767"/>
</svg>
