<svg width="24" height="24" fill="none" version="1.1" viewBox="0 0 24 24" xmlns="http://www.w3.org/2000/svg">
  <path d="m18.05 6.0014 3.6698 5.5735c0.1825 0.2772 0.2799 0.6029 0.2799 0.936v4.5516c0 0.932-0.7462 1.6875-1.6667 1.6875h-16.667c-0.92049 0-1.6667-0.7555-1.6667-1.6875v-4.5516c0-0.3331 0.0974-0.6588 0.27993-0.936l3.6698-5.5735c0.30911-0.46945 0.82949-0.75143 1.3867-0.75143h9.3272c0.5572 1e-5 1.0776 0.28198 1.3867 0.75143zm-1.684 1.4986h-8.7326l-2.963 4.5h4.2737l1.1112 2.25h3.8888l1.1112-2.25h4.2736l-2.9629-4.5z" fill="#676767"/>
</svg>
