<svg width="24" height="24" viewBox="0 0 24 24" fill="none" xmlns="http://www.w3.org/2000/svg">
<path d="M20.639 8.7149C19.7611 7.83911 18.5952 7.35645 17.3565 7.35645C16.1179 7.35645 14.9596 7.83136 14.0952 8.69373L14.0872 8.70148L13.3778 9.38234C13.0409 9.70581 13.0412 10.2449 13.3786 10.5679L13.5389 10.7213C13.8567 11.0256 14.3579 11.0253 14.6753 10.7206L15.3958 10.0293C15.8998 9.52763 16.6146 9.24004 17.3575 9.24004C18.1014 9.24004 18.8167 9.52831 19.3201 10.0309C19.8455 10.5594 20.1342 11.2569 20.1342 11.9963C20.1342 12.7387 19.8447 13.437 19.3192 13.9626C18.8132 14.47 18.0998 14.7613 17.3623 14.7613C16.6091 14.7613 15.9033 14.4715 15.374 13.9452L9.92688 8.71684C9.0517 7.83958 7.88568 7.35645 6.64349 7.35645C5.40405 7.35645 4.23871 7.83966 3.36237 8.7171C2.48365 9.59473 2 10.7609 2 12.0012C2 13.2418 2.48315 14.4069 3.36041 15.282C4.23651 16.1603 5.40216 16.6434 6.64349 16.6434C7.88488 16.6434 9.04272 16.168 9.90387 15.3048L9.91297 15.2958L10.6486 14.5903C10.9858 14.2668 10.9855 13.7276 10.648 13.4045L10.4868 13.2502C10.1692 12.9461 9.66834 12.9462 9.35083 13.2504L8.60297 13.967C8.09961 14.4684 7.38598 14.7559 6.64398 14.7559C5.89978 14.7559 5.18384 14.4667 4.67969 13.9626C4.15485 13.4378 3.86588 12.7408 3.86588 11.9999C3.86588 11.2591 4.15571 10.5612 4.68201 10.0348C5.20343 9.51049 5.90048 9.22099 6.64353 9.22099C7.3826 9.22099 8.08637 9.5161 8.62592 10.0521L14.0729 15.2828C14.9493 16.1602 16.1154 16.6434 17.3565 16.6434C18.597 16.6434 19.7623 16.1603 20.6374 15.283C21.5165 14.4071 22 13.2411 22 11.9987C22 10.7587 21.5167 9.59252 20.639 8.7149Z" fill="#676767"/>
</svg>
