<svg xmlns="http://www.w3.org/2000/svg" width="24" height="24" fill="none"><path d="M7.876 7.816h-.225l-.422 2.11h1.07l-.423-2.11z" fill="#676767"/><path d="M11.584 4.386A1.584 1.584 0 0010.014 3H4.582C3.71 3 3 3.71 3 4.582v11.672c0 .872.71 1.582 1.582 1.582h8.316l.058-.065c.127-.141.226-.25.23-.45.002-.058-1.595-12.878-1.602-12.935zM9.467 13.08a.527.527 0 01-.62-.414l-.338-1.686H7.02l-.338 1.686a.527.527 0 01-1.034-.207l1.055-5.273a.528.528 0 01.517-.424h1.09c.25 0 .467.177.517.424l1.054 5.273a.527.527 0 01-.413.62zM16.408 12.035c.227.612.53 1.107.865 1.528.336-.421.674-.916.901-1.528h-1.766z" fill="#676767"/><path d="M12.87 6.2h6.548C20.29 6.2 21 6.943 21 7.815v11.602C21 20.29 20.29 21 19.418 21h-7.887l2.313-2.643c.292-.33.415-.752.39-1.2L12.87 6.199zm6.407 5.835h.141a.527.527 0 100-1.055h-1.617v-.527a.527.527 0 10-1.055 0v.527h-1.582a.527.527 0 100 1.055h.141c.3.963.74 1.716 1.235 2.31-.334.305-.662.564-1.01.838l-.168.132a.527.527 0 10.66.823l.154-.122a18.01 18.01 0 001.098-.912c.298.274.597.502.905.739.126.096.253.193.382.295a.527.527 0 10.66-.823c-.126-.099-.251-.194-.376-.29-.286-.218-.568-.433-.838-.68a6.692 6.692 0 001.27-2.31z" fill="#676767"/><path d="M9.252 19.614l-.09-.723h2.772l-1.77 1.949a1.595 1.595 0 01-.912-1.226z" fill="#676767"/></svg>