<svg width="24" height="24" fill="none" version="1.1" viewBox="0 0 24 24" xmlns="http://www.w3.org/2000/svg">
  <path d="m5.125 8.875c0-3.7968 3.0783-6.875 6.875-6.875 3.7967 0 6.875 3.0782 6.875 6.875 0 2.3041-0.6789 3.1384-1.545 4.2029-0.6277 0.7713-1.3537 1.6635-1.9908 3.3234-0.1387 0.3613-0.4871 0.5987-0.8741 0.5987h-4.9303c-0.38695 0-0.73539-0.2374-0.87406-0.5987-0.63715-1.6599-1.3631-2.5521-1.9908-3.3235-0.8661-1.0644-1.545-1.8987-1.545-4.2028zm1.875 0c0 1.701 0.45587 2.2365 1.156 3.059 0.55186 0.6483 1.2555 1.4749 2.0073 3.191h3.6734c0.7505-1.7133 1.4539-2.5416 2.0059-3.1917 0.7006-0.825 1.1574-1.3629 1.1574-3.0583 0-2.7635-2.237-5-5-5-2.7635 0-5 2.2369-5 5zm5-2.5c-1.3785 0-2.5 1.1215-2.5 2.5 0 0.34516-0.27984 0.625-0.625 0.625s-0.625-0.27984-0.625-0.625c0-2.0678 1.6822-3.75 3.75-3.75 0.3452 0 0.625 0.27984 0.625 0.625s-0.2798 0.625-0.625 0.625zm3.125 13.438v-1.0937c0-0.2589-0.2099-0.4688-0.4688-0.4688h-5.3124c-0.25887 0-0.46875 0.2099-0.46875 0.4688v1.0937c0 0.4082 0.26094 0.7552 0.625 0.8839v0.3661c0 0.5178 0.41973 0.9375 0.9375 0.9375h3.125c0.5178 0 0.9375-0.4197 0.9375-0.9375v-0.3661c0.3641-0.1287 0.625-0.4757 0.625-0.8839z" fill="#676767"/>
</svg>
