<svg width="24" height="24" fill="none" version="1.1" viewBox="0 0 24 24" xmlns="http://www.w3.org/2000/svg">
  <path d="m20.839 13.199c0.3426-0.5801 0.5363-1.1988 0.5363-1.9468 0-1.7194-1.4538-3.343-3.3523-3.343h-1.425c0.1921-0.50039 0.3457-1.0988 0.3457-1.818 0-2.8435-1.4723-4.091-3.7215-4.091-1.7031 0-2.1322 1.8573-2.4267 3.1323-0.1217 0.5266-0.2204 0.95388-0.3765 1.1099-0.43025 0.4303-0.8983 1.0525-1.3516 1.6551-0.48271 0.64173-0.94864 1.2612-1.3343 1.6027h-3.8578c-0.69035 0-1.25 0.5596-1.25 1.25v9.375c0 0.6904 0.55965 1.25 1.25 1.25h2.5c0.58176 0 1.0706-0.3974 1.2101-0.9355 0.67825 0.0152 1.2735 0.256 1.9856 0.544 1.1133 0.4503 2.512 1.0161 4.9598 1.0161l0.8679 4e-4c3.0124 0 4.3745-1.54 4.4118-3.7238 0.5202-0.7198 0.7929-1.6845 0.6773-2.6168 0.3849-0.7208 0.5338-1.5759 0.3512-2.4606zm-2.4121 2.1028c0.4906 0.8254 0.0492 1.93-0.5446 2.2488 0.3008 1.9055-0.6878 2.5742-2.075 2.5742h-1.4773c-1.5004 0-2.7173-0.4247-3.8462-0.8187-0.97651-0.3408-1.8872-0.6586-2.8585-0.6586v-7.2723h0.42656c0.74754 0 1.6954-1.2609 2.5515-2.3999 0.4127-0.54894 0.804-1.0696 1.1414-1.4071 0.6099-0.60984 0.7721-1.4435 0.918-2.193 0.1191-0.61202 0.2273-1.1679 0.5594-1.5 1.8465 0 1.8465 1.2883 1.8465 2.216 0 0.77174-0.2819 1.3286-0.5612 1.8806-0.2745 0.54242-0.5467 1.0801-0.5467 1.8123h4.0622c0.8246 0 1.4738 0.73872 1.4773 1.4773 0.0035 0.7383-0.5008 1.477-0.8699 1.477 0.5269 0.5685 0.6395 1.767-0.2035 2.5633zm-14.239 3.5734c0-0.5178 0.41973-0.9375 0.9375-0.9375s0.9375 0.4197 0.9375 0.9375-0.41973 0.9375-0.9375 0.9375-0.9375-0.4197-0.9375-0.9375z" fill="#676767"/>
</svg>
