<svg width="24" height="24" viewBox="0 0 24 24" fill="none" xmlns="http://www.w3.org/2000/svg">
<path d="M21.1549 5.59972L18.5975 3.06923C17.4655 1.95481 15.6273 1.94728 14.4928 3.05668L11.6551 5.82486C10.5187 6.93364 10.5137 8.73979 11.6425 9.85359L13.2643 8.29578C13.1 7.79972 13.3025 7.23153 13.7039 6.83832L15.5094 5.07794C16.0814 4.52293 16.9989 4.52544 17.5633 5.08422L19.0992 6.60188C19.6636 7.16066 19.6611 8.0606 19.0929 8.61687L17.2874 10.3785C16.9054 10.751 16.2783 10.9555 15.7916 10.8244L14.2031 12.3835C15.3338 13.5004 17.1707 13.5054 18.3077 12.396L21.1424 9.63033C22.2819 8.51967 22.2856 6.7154 21.1549 5.59972Z" fill="#676767"/>
<path d="M10.7645 15.7305C10.8993 16.2153 10.6836 16.8424 10.2929 17.2237L8.6065 18.8712C8.02828 19.4356 7.09259 19.4325 6.51688 18.8637L4.9503 17.3203C4.37584 16.7521 4.3796 15.8283 4.95782 15.2664L6.64545 13.6189C7.05685 13.2195 7.64761 13.0163 8.16312 13.1869L9.78991 11.5751C8.63848 10.4394 6.7646 10.4337 5.60816 11.5626L2.87197 14.2342C1.71427 15.3649 1.70863 17.203 2.85943 18.3413L5.46455 20.9169C6.61472 22.0514 8.48735 22.0571 9.64629 20.9282L12.3825 18.2566C13.5389 17.1246 13.5439 15.2878 12.395 14.1508L10.7645 15.7305Z" fill="#676767"/>
<path d="M10.387 15.0005C9.99625 15.3862 9.36911 15.3824 8.98593 14.9955C8.60087 14.606 8.60338 13.9802 8.9922 13.5945L13.6688 8.94488C14.057 8.56044 14.6828 8.56295 15.0673 8.94864C15.4542 9.33684 15.4517 9.96272 15.0623 10.3497L10.387 15.0005Z" fill="#676767"/>
</svg>
