<svg width="24" height="24" fill="none" version="1.1" viewBox="0 0 24 24" xmlns="http://www.w3.org/2000/svg">
  <path d="m18.107 10.75h0.9643c1.0648 0 1.9286 0.8398 1.9286 1.875v7.5c0 1.0352-0.8638 1.875-1.9286 1.875h-14.143c-1.0647 0-1.9286-0.8398-1.9286-1.875v-7.5c0-1.0352 0.86384-1.875 1.9286-1.875h0.96429v-2.8125c0-3.2734 2.7402-5.9375 6.1071-5.9375 3.367 0 6.1071 2.6641 6.1071 5.9375v2.8125zm-9-2.8125v2.8125h5.7858v-2.8125c0-1.5508-1.2978-2.8125-2.8929-2.8125s-2.8929 1.2617-2.8929 2.8125z" fill="#676767"/>
</svg>
