<svg xmlns="http://www.w3.org/2000/svg" width="24" height="24" fill="none"><path d="M12 5.531c4.16 0 7.811 2.248 9.769 5.612a1.704 1.704 0 010 1.714 11.317 11.317 0 01-4.75 4.44l1.497 2.053a.85.85 0 01-.205 1.175l-.455.322a.827.827 0 01-1.16-.207L7.95 8.105c-.468.216-.918.47-1.346.758l6.596 9.542c-.912.097-1.832.083-2.74-.041l-5.558-8.038c-.362.392-.69.815-.982 1.263l4.312 6.237a11.312 11.312 0 01-6.002-4.97 1.705 1.705 0 010-1.713l.001-.002a11.33 11.33 0 014.75-4.438L5.484 4.65a.85.85 0 01.205-1.175l.455-.322a.827.827 0 011.16.207l1.833 2.537A11.326 11.326 0 0112 5.531zm2.88 8.674l.663.957A4.797 4.797 0 0016.723 12c0-2.643-2.113-4.781-4.723-4.781-.608 0-1.189.116-1.723.327l.663.958a3.576 3.576 0 012.76.27c-.822 0-1.487.674-1.487 1.505 0 .826.659 1.506 1.486 1.506.822 0 1.487-.674 1.487-1.506a3.693 3.693 0 01-.305 3.926z" fill="#676767"/></svg>