<svg width="24" height="24" fill="none" version="1.1" viewBox="0 0 24 24" xmlns="http://www.w3.org/2000/svg">
  <path d="m8.6133 17.844c0.73845 1.052 1.6037 2.2846 2.6159 3.7521 0.3724 0.538 1.1691 0.538 1.5416 0 1.0122-1.4675 1.8775-2.7001 2.6159-3.7521 3.4021-4.8465 4.1133-5.8598 4.1133-8.3444 0-4.1422-3.3579-7.5-7.5-7.5-4.1422 0-7.5 3.3578-7.5 7.5 0 2.4846 0.71124 3.4979 4.1133 8.3444zm6.5117-8.3444c0 1.7259-1.3991 3.125-3.125 3.125s-3.125-1.3991-3.125-3.125 1.3991-3.125 3.125-3.125 3.125 1.3991 3.125 3.125z" fill="#676767"/>
</svg>
