<svg width="24" height="24" viewBox="0 0 24 24" fill="none" xmlns="http://www.w3.org/2000/svg">
<path d="M15.2835 2.63128C14.5353 2.29877 13.7872 2.13251 13.039 2.04938C7.88512 1.55062 3.22999 4.87572 2.23246 9.94649C1.81682 11.9415 1.98308 13.8535 2.6481 15.5991C2.81435 15.9317 3.22999 16.0979 3.5625 15.9317C3.81188 15.7654 3.97814 15.4329 3.81188 15.1835C3.39625 14.1029 3.22999 13.0222 3.22999 11.7753C3.39624 7.53579 6.72134 3.87819 10.8777 3.37942C12.2077 3.21317 13.5378 3.37942 14.7016 3.79506L14.4522 4.37695L17.9435 4.87572C18.1929 4.87572 18.276 4.62633 18.1098 4.46008L15.6991 2.04938L15.2835 2.63128Z" fill="#676767"/>
<path d="M11.2104 17.8435V16.5135C10.2129 16.4304 9.2985 16.181 8.79974 15.9316L9.21537 14.269C9.79726 14.6016 10.6285 14.9341 11.6261 14.9341C12.4573 14.9341 13.0392 14.6016 13.0392 14.0197C13.0392 13.4378 12.5405 13.1053 11.5429 12.7728C10.0466 12.274 8.96599 11.5258 8.96599 10.1127C8.96599 8.86576 9.88039 7.86824 11.3767 7.53573V6.20569H12.7899V7.4526C13.7874 7.53573 14.3693 7.70198 14.868 7.95136L14.3693 9.53078C14.0368 9.36453 13.3717 9.03202 12.2911 9.03202C11.3767 9.03202 11.0442 9.44766 11.0442 9.86329C11.0442 10.3621 11.5429 10.6114 12.7899 11.1102C14.5355 11.6921 15.2005 12.5234 15.2005 13.7703C15.2005 15.0172 14.2861 16.0978 12.6236 16.4304V17.8435H11.2104Z" fill="#676767"/>
<path d="M10.8776 21.9169C10.1294 21.8337 9.38127 21.6675 8.63312 21.335L8.46687 22L5.88992 19.5893C5.72366 19.423 5.80679 19.1737 6.05617 19.1737L9.54752 19.6724L9.29814 20.2543C10.4619 20.67 11.792 20.8362 13.122 20.67C17.2784 20.1712 20.6035 16.5136 20.7697 12.2741C20.7697 11.0272 20.6035 9.94652 20.1878 8.86587C20.0216 8.61648 20.1878 8.28398 20.4372 8.11772C20.7697 7.86834 21.1022 8.03459 21.3516 8.45023C22.0166 10.1959 22.1829 12.1078 21.7672 14.1029C20.6866 19.1737 16.0315 22.4156 10.8776 21.9169Z" fill="#676767"/>
</svg>
