<svg width="24" height="24" fill="none" version="1.1" viewBox="0 0 24 24" xmlns="http://www.w3.org/2000/svg">
  <path d="m21.25 6.0156h-18.5c-0.41422 0-0.75 0.33579-0.75 0.75v10.469c0 0.4142 0.33578 0.75 0.75 0.75h18.5c0.4142 0 0.75-0.3358 0.75-0.75v-10.469c0-0.41421-0.3358-0.75-0.75-0.75zm-12.25 6c0-1.933 1.3431-3.5 3-3.5s3 1.567 3 3.5c0 1.9335-1.3438 3.5-3 3.5-1.657 0-3-1.5673-3-3.5zm4.1384 2c0.2392 0 0.3616-0.1279 0.3616-0.3616v-0.2782c0-0.2337-0.1224-0.3616-0.3616-0.3616h-0.484v-2.637c0-0.2393-0.1279-0.3616-0.3672-0.3616h-0.3783c-0.1891 0-0.3116 0.05-0.4506 0.178l-0.6787 0.6231c-0.1725 0.1613-0.1837 0.3449-0.0167 0.5118l0.1724 0.1948c0.1613 0.1724 0.3505 0.1669 0.4896 0.0333 0.0334-0.0333 0.089-0.1168 0.089-0.1168h0.0111s-0.0167 0.1669-0.0167 0.3282v1.2462h-0.4728c-0.2393 0-0.3617 0.128-0.3617 0.3616v0.2782c0 0.2337 0.1224 0.3616 0.3617 0.3616zm-9.6384 0v-4c1.3807 0 2.5-1.1193 2.5-2.5h12c0 1.3807 1.1193 2.5 2.5 2.5v4c-1.3807 0-2.5 1.1193-2.5 2.5h-12c0-1.3807-1.1193-2.5-2.5-2.5z" fill="#676767"/>
</svg>
