<svg width="24" height="24" viewBox="0 0 24 24" fill="none" xmlns="http://www.w3.org/2000/svg">
<path d="M11.083 6.17163C11.083 7.00006 10.4114 7.67163 9.58301 7.67163C8.75458 7.67163 8.08301 7.00006 8.08301 6.17163C8.08301 5.3432 8.75458 4.67163 9.58301 4.67163C10.4114 4.67163 11.083 5.3432 11.083 6.17163Z" fill="#676767"/>
<path d="M16.083 6.17163C16.083 7.00006 15.4114 7.67163 14.583 7.67163C13.7546 7.67163 13.083 7.00006 13.083 6.17163C13.083 5.3432 13.7546 4.67163 14.583 4.67163C15.4114 4.67163 16.083 5.3432 16.083 6.17163Z" fill="#676767"/>
<path d="M11.083 11.7966C11.083 12.6251 10.4114 13.2966 9.58301 13.2966C8.75458 13.2966 8.08301 12.6251 8.08301 11.7966C8.08301 10.9682 8.75458 10.2966 9.58301 10.2966C10.4114 10.2966 11.083 10.9682 11.083 11.7966Z" fill="#676767"/>
<path d="M16.083 11.7966C16.083 12.6251 15.4114 13.2966 14.583 13.2966C13.7546 13.2966 13.083 12.6251 13.083 11.7966C13.083 10.9682 13.7546 10.2966 14.583 10.2966C15.4114 10.2966 16.083 10.9682 16.083 11.7966Z" fill="#676767"/>
<path d="M11.083 17.4216C11.083 18.2501 10.4114 18.9216 9.58301 18.9216C8.75458 18.9216 8.08301 18.2501 8.08301 17.4216C8.08301 16.5932 8.75458 15.9216 9.58301 15.9216C10.4114 15.9216 11.083 16.5932 11.083 17.4216Z" fill="#676767"/>
<path d="M16.083 17.4216C16.083 18.2501 15.4114 18.9216 14.583 18.9216C13.7546 18.9216 13.083 18.2501 13.083 17.4216C13.083 16.5932 13.7546 15.9216 14.583 15.9216C15.4114 15.9216 16.083 16.5932 16.083 17.4216Z" fill="#676767"/>
</svg>
