<svg xmlns="http://www.w3.org/2000/svg" width="24" height="24" fill="none"><path d="M20.15 5v14A1.15 1.15 0 0119 20.15H5A1.15 1.15 0 013.85 19V5c0-.635.515-1.15 1.15-1.15h14c.635 0 1.15.515 1.15 1.15zM5 2a3 3 0 00-3 3v14a3 3 0 003 3h14a3 3 0 003-3V5a3 3 0 00-3-3z" fill="#676767"/><path d="M7.43 14.888v-2.075c0-1.124-.02-2.095-.06-3.004l.03-.01c.337.807.787 1.696 1.196 2.432l1.471 2.657h1.635V8h-1.43v2.013c0 1.032.03 1.962.132 2.872h-.03a19.95 19.95 0 00-1.124-2.36L7.819 8H6v6.888h1.43zM15.355 9.778c-1.604 0-2.667 1.032-2.667 2.647 0 1.614 1.124 2.575 2.586 2.575 1.338 0 2.636-.838 2.636-2.667 0-1.502-1.022-2.555-2.555-2.555zm-.04 1.104c.705 0 .99.756.99 1.502 0 .9-.387 1.502-.99 1.502-.665 0-1.022-.644-1.022-1.502 0-.736.276-1.502 1.022-1.502z" fill="#676767"/></svg>