<svg width="24" height="24" fill="none" version="1.1" viewBox="0 0 24 24" xmlns="http://www.w3.org/2000/svg">
  <path d="m0 12c0-6.629 5.371-12 12-12 6.629 0 12 5.371 12 12 0 6.629-5.371 12-12 12-6.629 0-12-5.371-12-12zm17.884 3.9726c0.2274-0.2274 0.2274-0.5952 0-0.8226l-3.1742-3.15 3.179-3.1452c0.2274-0.22742 0.2274-0.59516 0-0.82258l-1.9161-1.9161c-0.2274-0.22742-0.5952-0.22742-0.8226 0l-3.15 3.1742-3.1452-3.179c-0.22742-0.22742-0.59516-0.22742-0.82258 0l-1.9161 1.9161c-0.22742 0.22742-0.22742 0.59516 0 0.82258l3.1742 3.15-3.1742 3.1452c-0.22742 0.2274-0.22742 0.5951 0 0.8225l1.9113 1.9162c0.22742 0.2274 0.59516 0.2274 0.82258 0l3.15-3.1742 3.1452 3.1742c0.2274 0.2274 0.5951 0.2274 0.8225 0l1.9162-1.9113z" fill="#676767"/>
</svg>
