<svg xmlns="http://www.w3.org/2000/svg" width="24" height="24" fill="none"><path d="M12 3.481a8.519 8.519 0 100 17.038A8.519 8.519 0 0012 3.48zM2 12C2 6.477 6.477 2 12 2s10 4.477 10 10-4.477 10-10 10S2 17.523 2 12z" fill="#676767"/><path d="M7.74 14.739v-1.88c0-1.018-.018-1.898-.055-2.722l.028-.01c.306.732.713 1.537 1.083 2.204l1.334 2.408h1.481V8.498h-1.296v1.824c0 .935.028 1.778.12 2.602h-.028a18.097 18.097 0 00-1.018-2.14L8.093 8.499H6.444v6.24h1.297zM14.921 10.109c-1.453 0-2.416.935-2.416 2.398s1.018 2.334 2.342 2.334c1.213 0 2.39-.76 2.39-2.417 0-1.361-.927-2.315-2.316-2.315zm-.037 1c.64 0 .898.685.898 1.361 0 .815-.351 1.361-.898 1.361-.602 0-.926-.583-.926-1.36 0-.668.25-1.362.926-1.362zM18.514 14.84c.5 0 .833-.36.833-.851 0-.51-.333-.862-.824-.862-.49 0-.834.362-.834.862 0 .49.343.851.825.851z" fill="#676767"/></svg>