<svg width="24" height="24" viewBox="0 0 24 24" fill="none" xmlns="http://www.w3.org/2000/svg">
<path d="M5.39171 13.5183L5.41624 13.5164C6.1011 13.4844 6.69164 14.1504 6.73126 15.005L6.79729 16.3936C6.82936 17.0691 7.12746 17.703 7.62366 18.1615L7.85572 18.3747C8.66699 19.1199 10.531 19.5897 11.8404 18.0935C12.3102 17.5558 12.7441 16.4427 12.5573 15.3484C12.2177 13.3391 11.6517 12.3957 10.5593 12.3712L9.80655 12.3674C9.38204 12.3656 8.97075 12.5014 8.63114 12.7542L7.81044 13.3674C7.25953 13.7787 6.48221 13.6655 6.07092 13.1146L6.05582 13.0938C5.64453 12.5429 5.75773 11.7656 6.30864 11.3543L7.39348 10.5279C7.97458 10.0864 8.68586 9.84872 9.416 9.8525L11.4159 9.86382C12.1668 9.86759 12.8969 10.1091 13.5007 10.5543L13.5629 10.5996L13.6592 9.63364C13.7591 8.63558 13.3931 7.64696 12.6668 6.95455L9.87069 4.27923C9.3745 3.80567 9.35563 3.01892 9.82919 2.52272L9.84617 2.50385C10.3197 2.00766 11.1065 1.98879 11.6027 2.46235L15.1609 5.85838L14.3912 2.52838C14.2365 1.86049 14.6534 1.19261 15.3232 1.0379L15.3477 1.03224C16.0156 0.877531 16.6835 1.29449 16.8382 1.96426L17.8891 6.5074L17.9155 6.24704C17.9646 5.73952 18.4174 5.36784 18.9249 5.41878L18.9437 5.42067C19.4513 5.47161 19.8211 5.92442 19.772 6.43193L19.4249 9.90155L19.4399 9.90532L18.5457 14.2541L17.6872 19.1444C17.3401 21.1179 15.759 22.6423 13.7742 22.9159L13.7195 22.9235C12.3687 23.1102 10.9952 22.9536 9.71976 22.4706L8.45191 21.9914C8.00665 21.8235 7.59913 21.5707 7.25009 21.2462L5.2936 19.4331C4.73515 18.9142 4.39932 18.2011 4.35592 17.4407L4.22574 15.1258C4.18424 14.2692 4.70685 13.5504 5.39171 13.5183ZM15.5194 7.41678L15.4949 7.4432L15.527 7.44697L15.5194 7.41678Z" fill="#676767"/>
</svg>
