<svg width="24" height="24" viewBox="0 0 24 24" fill="none" xmlns="http://www.w3.org/2000/svg">
<path d="M20.3389 3C20.5309 3 20.6973 3.07015 20.8378 3.21057C20.9781 3.35091 21.0484 3.51707 21.0485 3.70932V9.38436C21.0485 9.57649 20.9783 9.74273 20.8379 9.88311C20.6975 10.0235 20.5311 10.0938 20.339 10.0938C20.1469 10.0938 19.9806 10.0235 19.8403 9.88311L17.8894 7.93237L10.6627 15.1591C10.5889 15.233 10.5038 15.2698 10.4078 15.2698C10.3117 15.2698 10.2267 15.2329 10.1528 15.1591L8.88926 13.8956C8.81538 13.8217 8.77838 13.7368 8.77838 13.6405C8.77838 13.5446 8.81526 13.4596 8.88926 13.3857L16.1159 6.15893L14.1652 4.20819C14.0248 4.06777 13.9545 3.90145 13.9545 3.70932C13.9545 3.51719 14.0248 3.35091 14.1652 3.21057C14.3055 3.07015 14.4718 3 14.6639 3H20.3389Z" fill="#676767"/>
<path d="M18.5917 11.9661H19.4008C19.5186 11.9661 19.6156 12.0039 19.6914 12.08C19.7675 12.1558 19.8054 12.2527 19.8054 12.3709V17.3595C19.8054 18.3622 19.4494 19.2198 18.7372 19.9316C18.0251 20.6437 17.1675 21 16.1648 21H6.59162C5.5889 21 4.73139 20.6437 4.0192 19.9316C3.30723 19.2198 2.95117 18.3622 2.95117 17.3595V7.78636C2.95117 6.78363 3.30723 5.92613 4.01916 5.21411C4.73135 4.50205 5.58885 4.146 6.59158 4.146H11.7151C11.8333 4.146 11.9302 4.18385 12.006 4.25969C12.0818 4.3354 12.1196 4.43241 12.1196 4.55026V5.35938C12.1196 5.47746 12.0818 5.57428 12.006 5.65013C11.9302 5.72588 11.8333 5.76391 11.7151 5.76391H6.59158C6.0354 5.76391 5.55923 5.96186 5.16311 6.35798C4.76704 6.75406 4.56909 7.23005 4.56909 7.78622V17.3593C4.56909 17.9156 4.76708 18.3916 5.16311 18.7877C5.55923 19.1838 6.0354 19.3816 6.59158 19.3816H16.1648C16.721 19.3816 17.1973 19.1838 17.5933 18.7877C17.9893 18.3916 18.1872 17.9156 18.1872 17.3593V12.3706C18.1872 12.2525 18.2251 12.1556 18.3011 12.08C18.3766 12.0039 18.4736 11.9661 18.5917 11.9661Z" fill="#676767"/>
</svg>
