<svg width="24" height="24" viewBox="0 0 24 24" fill="none" xmlns="http://www.w3.org/2000/svg">
<path d="M4.73755 20.2087C2.38992 17.8536 2.43367 14.0559 4.79324 11.7094L13.2211 3.32814C15.0016 1.55736 17.8959 1.55721 19.6766 3.32814C21.4401 5.08181 21.4422 7.9113 19.6766 9.66704L12.33 16.9659C11.1305 18.1588 9.17065 18.1421 7.99145 16.927C6.8554 15.7562 6.89184 13.9007 8.04979 12.7491L13.8252 7.01337C14.0736 6.76673 14.4806 6.76251 14.7343 7.00396L15.6528 7.87814C15.9065 8.11962 15.9108 8.51532 15.6625 8.76196L9.88768 14.4971C9.68952 14.6942 9.6773 15.0217 9.86164 15.2117C10.0373 15.3927 10.3134 15.3957 10.492 15.2181L17.8386 7.91927C18.6266 7.1356 18.6266 5.8597 17.8381 5.0756C17.0671 4.30892 15.8309 4.30853 15.0596 5.0756L6.63173 13.4568C5.235 14.8459 5.21347 17.0943 6.58388 18.4691C7.95035 19.8399 10.1592 19.8416 11.5282 18.4802L18.4413 11.6053C18.6895 11.3584 19.0965 11.354 19.3504 11.5953L20.2695 12.4689C20.5234 12.7102 20.528 13.1059 20.2798 13.3527L13.3667 20.2276C10.973 22.608 7.10113 22.5798 4.73755 20.2087Z" fill="#676767"/>
</svg>
