<svg width="24" height="24" viewBox="0 0 24 24" fill="none" xmlns="http://www.w3.org/2000/svg">
<path d="M21.3214 11.1407C20.8685 10.6878 20.3256 10.4615 19.6926 10.4615H18.9236V7.38453C18.9236 7.06412 18.8432 6.71138 18.6828 6.32693C18.5226 5.94232 18.3304 5.63787 18.1061 5.41348L16.2789 3.5865C16.0546 3.36233 15.7502 3.16994 15.3657 3.00958C14.981 2.8494 14.6287 2.76929 14.308 2.76929H6.23088C5.91035 2.76929 5.63784 2.8814 5.41346 3.10578C5.1892 3.33004 5.07693 3.6025 5.07693 3.92308V10.4615H4.30775C3.67471 10.4615 3.13186 10.6879 2.67905 11.1407C2.22632 11.5933 2 12.1362 2 12.7693V17.7694C2 17.8738 2.0381 17.9635 2.11417 18.04C2.19033 18.1159 2.2805 18.1539 2.38457 18.1539H5.07693V20.077C5.07693 20.3976 5.18908 20.6701 5.41346 20.8944C5.63784 21.1186 5.91035 21.2309 6.23088 21.2309H17.7693C18.0897 21.2309 18.3626 21.1186 18.5868 20.8944C18.8111 20.6699 18.9233 20.3976 18.9233 20.077V18.1539H21.6156C21.7197 18.1539 21.8098 18.1159 21.8859 18.04C21.962 17.9635 22 17.8738 22 17.7694V12.7693C22.0002 12.1362 21.7739 11.5933 21.3214 11.1407ZM17.3848 19.6924H6.61549V16.6156H17.3848V19.6924ZM17.3848 12H6.61549V4.30777H14.308V6.23078C14.308 6.55132 14.4203 6.82365 14.6444 7.04808C14.8687 7.27246 15.1411 7.38457 15.4618 7.38457H17.3848V12ZM20.2335 13.3101C20.0813 13.4622 19.901 13.5386 19.6926 13.5386C19.4843 13.5386 19.3039 13.4623 19.1518 13.3101C18.9997 13.1581 18.9236 12.9776 18.9236 12.7692C18.9236 12.5609 18.9997 12.3806 19.1518 12.2284C19.3039 12.0761 19.4842 12 19.6926 12C19.9009 12 20.0813 12.0761 20.2335 12.2284C20.3856 12.3806 20.4619 12.5609 20.4619 12.7692C20.4619 12.9776 20.3857 13.1581 20.2335 13.3101Z" fill="#676767"/>
</svg>
