<svg width="24" height="24" viewBox="0 0 24 24" fill="none" xmlns="http://www.w3.org/2000/svg">
<path d="M21.0859 2.48766C21.2942 2.37849 21.5459 2.39682 21.7376 2.53266C21.9292 2.66932 22.0276 2.90099 21.9934 3.13432L19.7017 18.551C19.6742 18.7335 19.5667 18.896 19.4084 18.9927C19.3092 19.0527 19.1967 19.0835 19.0834 19.0835C19.0151 19.0835 18.9467 19.0718 18.8817 19.0502L10.1459 16.0643L18.7359 5.71516L7.63504 15.2068L2.42254 13.4252C2.1867 13.3443 2.02087 13.131 2.0017 12.881C1.98337 12.6318 2.1142 12.3952 2.33587 12.2793L21.0859 2.48766Z" fill="#676767"/>
<path d="M9.29169 20.9583V17.0933L12.6808 18.2516L10.42 21.3283C10.3 21.4916 10.1117 21.5833 9.91669 21.5833C9.85169 21.5833 9.78585 21.5732 9.72169 21.5524C9.46502 21.4674 9.29169 21.2283 9.29169 20.9583Z" fill="#676767"/>
</svg>
