<svg width="24" height="24" fill="none" version="1.1" viewBox="0 0 24 24" xmlns="http://www.w3.org/2000/svg">
  <path d="m6.7322 6.2322c0.46884-0.46884 1.1047-0.73223 1.7678-0.73223s1.2989 0.26339 1.7678 0.73223c0.3492 0.34919 0.5844 0.79105 0.6817 1.2678h8.0505c0.2761 0 0.5 0.22386 0.5 0.5s-0.2239 0.5-0.5 0.5h-8.0505c-0.0973 0.47672-0.3325 0.91858-0.6817 1.2678-0.46887 0.46883-1.1048 0.73223-1.7678 0.73223s-1.2989-0.2634-1.7678-0.73223c-0.34919-0.34919-0.58441-0.79105-0.68173-1.2678h-2.0505c-0.27614 0-0.5-0.22386-0.5-0.5s0.22386-0.5 0.5-0.5h2.0505c0.09732-0.47672 0.33254-0.91858 0.68173-1.2678zm1.7678 0.26777c-0.39782 0-0.77936 0.15804-1.0607 0.43934s-0.43934 0.66284-0.43934 1.0607 0.15804 0.77936 0.43934 1.0607 0.66284 0.43934 1.0607 0.43934 0.77936-0.15804 1.0607-0.43934 0.43934-0.66284 0.43934-1.0607-0.15804-0.77936-0.43934-1.0607-0.66284-0.43934-1.0607-0.43934zm4.2322 7.7322c0.4689-0.4688 1.1048-0.7322 1.7678-0.7322s1.2989 0.2634 1.7678 0.7322c0.3492 0.3492 0.5844 0.7911 0.6817 1.2678h2.0505c0.2761 0 0.5 0.2239 0.5 0.5s-0.2239 0.5-0.5 0.5h-2.0505c-0.0973 0.4767-0.3325 0.9186-0.6817 1.2678-0.4689 0.4688-1.1048 0.7322-1.7678 0.7322s-1.2989-0.2634-1.7678-0.7322c-0.3492-0.3492-0.5844-0.7911-0.6817-1.2678h-8.0505c-0.27614 0-0.5-0.2239-0.5-0.5s0.22386-0.5 0.5-0.5h8.0505c0.0973-0.4767 0.3325-0.9186 0.6817-1.2678zm1.7678 0.2678c-0.3978 0-0.7794 0.158-1.0607 0.4393s-0.4393 0.6629-0.4393 1.0607 0.158 0.7794 0.4393 1.0607 0.6629 0.4393 1.0607 0.4393 0.7794-0.158 1.0607-0.4393 0.4393-0.6629 0.4393-1.0607-0.158-0.7794-0.4393-1.0607-0.6629-0.4393-1.0607-0.4393z" fill="#676767"/>
</svg>
