<svg width="24" height="24" viewBox="0 0 24 24" fill="none" xmlns="http://www.w3.org/2000/svg">
<path d="M2 5.5714C2 5.14811 2.13227 4.8042 2.39682 4.53965C2.66138 4.2751 3.00529 4.14282 3.42857 4.14282H8.19048C8.61376 4.14282 8.95767 4.2751 9.22222 4.53965C9.48677 4.8042 9.61905 5.14811 9.61905 5.5714V10.3333C9.56614 10.5978 9.51323 10.8624 9.46032 11.1269C9.40741 11.3386 9.30159 11.5767 9.14286 11.8412L6.04762 18.5079C5.88889 18.8783 5.62434 19.1957 5.25397 19.4603C4.8836 19.7248 4.48677 19.8571 4.06349 19.8571H2.55555C2.39682 19.8571 2.31746 19.7777 2.31746 19.619L5.65079 11.9206H3.42857C3.00529 11.9206 2.66138 11.7883 2.39682 11.5238C2.13227 11.2063 2 10.8624 2 10.492V5.5714ZM14.381 5.5714C14.381 5.14811 14.5132 4.8042 14.7778 4.53965C15.0423 4.2751 15.3862 4.14282 15.8095 4.14282H20.5714C20.9947 4.14282 21.3386 4.2751 21.6032 4.53965C21.8677 4.8042 22 5.14811 22 5.5714V10.3333C21.9471 10.5978 21.8942 10.8624 21.8413 11.1269C21.7884 11.3386 21.6825 11.5767 21.5238 11.8412L18.4286 18.5079C18.2698 18.8783 18.0053 19.1957 17.6349 19.4603C17.2645 19.7248 16.8677 19.8571 16.4444 19.8571H14.9365C14.7778 19.8571 14.6984 19.7777 14.6984 19.619L18.0317 11.9206H15.8095C15.3862 11.9206 15.0423 11.7883 14.7778 11.5238C14.5132 11.2063 14.381 10.8624 14.381 10.492V5.5714Z" fill="#676767"/>
</svg>
