<svg width="24" height="24" fill="none" version="1.1" viewBox="0 0 24 24" xmlns="http://www.w3.org/2000/svg">
  <path d="m14.482 5.2989c-1.4761-0.4328-3.0505-0.39479-4.5041 0.10873-1.4536 0.50351-2.7141 1.4475-3.6062 2.7007-0.89215 1.2532-1.3716 2.7533-1.3716 4.2916l-2-1e-4c4e-5 -1.954 0.60904-3.8595 1.7423-5.4514 1.1333-1.5919 2.7345-2.791 4.5809-3.4306 1.8464-0.6396 3.8463-0.68788 5.7214-0.13812 1.3199 0.38698 2.5318 1.0567 3.5554 1.9549v-1.9347h2v5.2h-5.2v-2h1.5955c-0.7422-0.58802-1.5946-1.0315-2.5136-1.3009zm3.9465 11.392c0.8921-1.2532 1.3716-2.7533 1.3716-4.2916l2 1e-4c0 1.954-0.609 3.8595-1.7423 5.4514s-2.7345 2.791-4.5809 3.4306-3.8463 0.6879-5.7214 0.1381c-1.3199-0.387-2.5318-1.0567-3.5554-1.9549v1.9347h-2v-5.2h5.2v2h-1.5955c0.74218 0.5881 1.5946 1.0316 2.5136 1.301 1.4761 0.4328 3.0505 0.3948 4.5041-0.1087 1.4535-0.5036 2.714-1.4475 3.6062-2.7007z" fill="#676767"/>
</svg>
