<svg width="24" height="24" viewBox="0 0 24 24" fill="none" xmlns="http://www.w3.org/2000/svg">
<path d="M10.6667 8.66808V5.83342C10.6667 5.63275 10.546 5.45142 10.3613 5.37275C10.1773 5.29475 9.962 5.33408 9.81867 5.47475L4.152 10.9748C4.05467 11.0688 4 11.1981 4 11.3334C4 11.4688 4.05467 11.5981 4.152 11.6921L9.81867 17.1921C9.96333 17.3321 10.178 17.3714 10.3613 17.2941C10.546 17.2154 10.6667 17.0341 10.6667 16.8334V14.0001H11.612C14.7027 14.0001 17.552 15.6801 19.0473 18.3814L19.0613 18.4068C19.1507 18.5694 19.32 18.6668 19.5 18.6668C19.5413 18.6668 19.5827 18.6621 19.624 18.6514C19.8453 18.5948 20 18.3954 20 18.1668C20 12.9841 15.8287 8.75742 10.6667 8.66808Z" fill="#676767"/>
</svg>
