<svg width="24" height="24" fill="none" version="1.1" viewBox="0 0 24 24" xmlns="http://www.w3.org/2000/svg">
  <path d="m8.3998 16.294-6.1112-5.3432c-0.38441-0.3362-0.38493-0.9406 0-1.2772l6.1112-5.3432c0.53497-0.46775 1.378-0.088 1.378 0.63858v0.55606l-3.7711 3.2972c-0.42779 0.37385-0.6736 0.91776-0.67337 1.4899-2.4e-4 0.5722 0.24559 1.1162 0.6734 1.4901l3.771 3.2971v0.5561c0 0.7278-0.84375 1.1058-1.378 0.6386zm4.4444-11.964-6.1112 5.3432c-0.38493 0.33659-0.38441 0.94099 0 1.2772l6.1112 5.3433c0.5343 0.4672 1.378 0.0892 1.378-0.6386v-2.9593c3.7732 0.4406 5.2466 2.0691 3.9094 6.399-0.1748 0.5659 0.5008 1.0041 0.9749 0.655 1.5191-1.1188 2.8935-3.2587 2.8935-5.4187 0-4.6173-3.2923-6.0932-7.7778-6.4529v-2.9096c0-0.72658-0.843-1.1063-1.378-0.63858z" fill="#676767"/>
</svg>
