<svg xmlns="http://www.w3.org/2000/svg" width="24" height="24" fill="none"><path d="M21.255 2.27a.62.62 0 01.477.476c.269 1.258.269 2.242.265 3.226 0 4.012-2.164 6.438-5 8.246v4.078c0 .707-.398 1.36-1.035 1.676l-3.855 1.93a.94.94 0 01-1.356-.84v-3.715c-.5.23-.996.46-1.473.7a.624.624 0 01-.722-.118L6.07 15.445a.624.624 0 01-.117-.723c.238-.476.473-.973.703-1.473H2.942a.936.936 0 01-.84-1.355l1.93-3.86A1.874 1.874 0 015.708 7h4.07c1.805-2.844 4.223-5 8.254-5 .98 0 1.965 0 3.223.27zM15.75 6.375a1.875 1.875 0 103.75-.001 1.875 1.875 0 00-3.75 0z" fill="#676767"/></svg>