<svg width="24" height="24" viewBox="0 0 24 24" fill="none" xmlns="http://www.w3.org/2000/svg">
<path d="M5.41935 12.0968H6.96774V3H12.1935C13.4516 3 14.4194 3.04839 15.0484 3.14516C17.8064 3.53226 19.5 5.75806 19.5 8.46774C19.5 10.1129 18.9677 11.4677 17.9516 12.5806C16.9355 13.6935 15.0484 14.2258 12.3871 14.2258H10.4516V15.9194H16.9839L16.5 18.0968H10.4516V21H6.96774V18.0968H4.5L4.93548 15.9194H6.96774V14.2258H4.93548L5.41935 12.0968ZM10.4516 12H11.9516C15.2419 12 16.4032 10.7419 16.4032 8.51613C16.4032 6.91935 15.5806 5.70968 14.2258 5.37097C13.8387 5.27419 13.0161 5.22581 11.8548 5.22581H10.4032V12H10.4516Z" fill="#676767"/>
</svg>
