<svg xmlns="http://www.w3.org/2000/svg" width="24" height="24" fill="none"><path d="M19.442 8.099l2.93-2.93a4.993 4.993 0 11-2.825-2.825l-2.93 2.93a1.492 1.492 0 00-.438 1.06c0 .413.167.787.438 1.059l.706.706a1.494 1.494 0 002.119 0zM3.611 17.023l3.04-2.82 3.861 3.861-2.819 3.041A2.786 2.786 0 015.695 22a2.786 2.786 0 01-2.03-.819l-.13-.13a2.787 2.787 0 01-.818-2.03c.015-.791.356-1.5.894-1.998zm1.143 2.94A1.247 1.247 0 106.519 18.2a1.247 1.247 0 00-1.765 1.762zM11.406 9.4a.696.696 0 00-.494.205l-3.248 3.249a.696.696 0 000 .988l7.273 7.274a2.996 2.996 0 104.237-4.237l-7.273-7.274a.696.696 0 00-.495-.204zm4.979 9.844a.501.501 0 010 .707.5.5 0 01-.706 0l-6.356-6.356a.5.5 0 01.707-.706l6.355 6.355zm1.624-1.624a.501.501 0 010 .707.5.5 0 01-.706 0l-6.355-6.356a.5.5 0 01.705-.706l6.356 6.355zM4.11 7.11l-.794.028a.399.399 0 01-.352-.186L1.285 4.286l1.06-1.059L5.01 4.905a.398.398 0 01.187.352l-.028.794 4.154 4.154-1.059 1.06L4.11 7.11z" fill="#676767"/></svg>