<svg width="24" height="24" viewBox="0 0 24 24" fill="none" xmlns="http://www.w3.org/2000/svg">
<path d="M18.5754 14.9834C17.5986 14.9834 16.7199 15.3944 16.0961 16.0503L8.80681 12.4815C8.83187 12.3138 8.84913 12.1441 8.84913 11.9694C8.84913 11.7993 8.8327 11.6332 8.80886 11.4701L16.0875 7.9403C16.7117 8.60154 17.5945 9.01661 18.5754 9.01661C20.4667 9.01661 22 7.48331 22 5.59205C22 3.70038 20.4667 2.16748 18.5754 2.16748C16.6842 2.16748 15.1509 3.70038 15.1509 5.59205C15.1509 5.76219 15.1673 5.9278 15.1911 6.09137L7.91255 9.62114C7.28829 8.9599 6.40595 8.54483 5.42457 8.54483C3.5329 8.54483 2 10.0781 2 11.9694C2 13.8611 3.5329 15.394 5.42457 15.394C6.40143 15.394 7.28007 14.983 7.90392 14.3271L15.1932 17.8959C15.1681 18.0632 15.1509 18.2333 15.1509 18.408C15.1509 20.2996 16.6842 21.8325 18.5754 21.8325C20.4667 21.8325 22 20.2996 22 18.408C22 16.5163 20.4667 14.9834 18.5754 14.9834Z" fill="#676767"/>
</svg>
