<svg width="24" height="24" fill="none" version="1.1" viewBox="0 0 24 24" xmlns="http://www.w3.org/2000/svg">
  <path d="m21.512 8.5568-4.9999-5.0614c-1.0422-1.0552-2.8451-0.31623-2.8451 1.1932v2.0109c-1.474 0.06609-2.9177 0.23027-4.1931 0.63246-1.2212 0.38496-2.1899 0.96961-2.8788 1.7374-0.83715 0.93372-1.2615 2.1079-1.2615 3.491 0 2.169 1.152 3.9535 2.9469 5.0892 1.3037 0.8265 2.96-0.4448 2.466-1.9596-0.5387-1.6565-0.5957-2.4934 2.9205-2.7689v1.8914c0 1.5115 1.8044 2.2469 2.8451 1.1932l4.9999-5.0625c0.6511-0.6588 0.6511-1.7276 0-2.3864zm-6.1784 6.2557v-3.6506c-4.4684 0.0675-7.5523 0.8153-6.1698 5.0569-1.025-0.6487-2.1635-1.8254-2.1635-3.6584 0-3.8438 4.484-4.1817 8.3333-4.2135v-3.6594l5 5.0625-5 5.0625zm1.5873 2.6434c-0.2265 0.1428-0.4717 0.2528-0.7283 0.3271-0.1792 0.0521-0.3034 0.2169-0.3034 0.4057v0.9129c0 0.1165-0.0933 0.2109-0.2084 0.2109h-11.806c-0.11506 0-0.20833-0.0944-0.20833-0.2109v-11.953c0-0.11649 0.09327-0.21093 0.20833-0.21093h2.9896c0.07696-2.8e-4 0.15237-0.02189 0.21806-0.06248 0.40465-0.24778 0.84542-0.46596 1.3212-0.65338 0.1591-0.06268 0.26281-0.21919 0.26281-0.39206v-0.15771c0-0.23298-0.18656-0.42187-0.41667-0.42187h-4.5833c-0.92049 0-1.6667 0.7555-1.6667 1.6875v12.375c0 0.932 0.74618 1.6875 1.6667 1.6875h12.222c0.9205 0 1.6666-0.7555 1.6666-1.6875v-1.4975c0-0.3301-0.3579-0.5332-0.6349-0.3591z" fill="#676767"/>
</svg>
