<svg width="24" height="24" fill="none" version="1.1" viewBox="0 0 24 24" xmlns="http://www.w3.org/2000/svg">
  <path d="m6.0187 7.5664h-1.9279c-0.57218 0-0.85833-0.67438-0.45458-1.067l3.2137-3.1251c0.251-0.24402 0.65821-0.24394 0.90913 0l3.2135 3.1251c0.4046 0.39336 0.1164 1.067-0.4546 1.067h-1.9278v12.5c0 0.3452-0.2878 0.625-0.64286 0.625h-1.2857c-0.35506 0-0.64286-0.2798-0.64286-0.625zm9.0548-1.9925 0.7813 0.8123c0.1624 0.16875 0.4419 0.23356 0.7334-0.02348v2.2632h-1.0211c-0.2663 0-0.4822 0.20988-0.4822 0.46875v1.1301c0 0.2589 0.2159 0.4687 0.4822 0.4687h4.3864c0.2663 0 0.4821-0.2098 0.4821-0.4687v-1.1301c0-0.25887-0.2158-0.46875-0.4821-0.46875h-1.031v-4.9637c0-0.25887-0.2159-0.46875-0.4821-0.46875h-1.2693c-0.1225-1e-5 -0.2405 0.04534-0.3298 0.12683l-1.7455 1.5914c-0.1941 0.17691-0.204 0.4732-0.0223 0.66211zm2.289 7.5003c-1.7771 0-2.7359 1.3556-2.7359 2.6311 0 1.6589 1.3713 2.8476 2.9279 2.6495-0.4108 0.3677-1.0075 0.3414-1.5309 0.1616-0.2579-0.0885-0.5397 0.0477-0.6215 0.3014l-0.3711 1.1516c-0.075 0.2327 0.0455 0.4832 0.2781 0.5743 0.3215 0.126 0.8322 0.2649 1.5488 0.2649 2.4005 0 3.6957-2.1287 3.6957-4.1317 0-2.4753-1.6541-3.6027-3.1911-3.6027zm0.968 3.4164c-0.0148 0.0225-0.1515 0.1066-0.5522 0.1066-0.9383 0-1.0112-0.7226-1.0112-0.944 0-0.3073 0.1816-0.6185 0.5289-0.6185 0.4232 0 1.038 0.5555 1.038 1.426 0 0.0185-0.0035 0.0299-0.0035 0.0299z" fill="#676767"/>
</svg>
