<svg width="24" height="24" fill="none" version="1.1" viewBox="0 0 24 24" xmlns="http://www.w3.org/2000/svg">
  <path d="m7.7756 20.567 3.2136-3.125c0.4038-0.3926 0.1176-1.067-0.4545-1.067h-1.928v-12.5c0-0.3452-0.2878-0.625-0.64286-0.625h-1.2857c-0.35506 0-0.64286 0.2798-0.64286 0.625v12.5h-1.9278c-0.57102 0-0.85918 0.6736-0.45458 1.067l3.2136 3.125c0.25088 0.244 0.65809 0.2441 0.90912 0zm7.5344-9.817c0.2151 0 0.4042-0.1385 0.4635-0.3396l0.3251-1.1026h1.7222l0.3335 1.1054c0.0603 0.1997 0.2487 0.3368 0.4627 0.3368h1.4358c0.3303 0 0.5627-0.3155 0.4565-0.6196l-2.2941-6.5625c-0.0664-0.19008-0.25-0.31793-0.4565-0.31793h-1.5897c-0.2065 0-0.3901 0.12784-0.4565 0.31793l-2.294 6.5625c-0.1063 0.3041 0.1262 0.6196 0.4565 0.6196zm1.6537-4.3096 0.2652 0.89598h-0.537zm2.9435 8.3814-2.7101 3.7382c-0.0311 0.0429-0.0616 0.0837-0.0914 0.1225h2.4568c0.2663 0 0.4821 0.2099 0.4821 0.4688v1.13c0 0.2589-0.2158 0.4688-0.4821 0.4688h-5.1973c-0.2663 0-0.4821-0.2099-0.4821-0.4688v-0.852c0-0.0968 0.0308-0.1912 0.0882-0.2703l2.7001-3.7189c0.0311-0.0429 0.0615-0.0837 0.0912-0.1224h-2.2688c-0.2663 0-0.4822-0.2099-0.4822-0.4688v-1.13c0-0.2589 0.2159-0.4688 0.4822-0.4688h5.0193c0.2663 0 0.4822 0.2099 0.4822 0.4688v0.8328c0 0.0967-0.0308 0.1911-0.0881 0.2701z" fill="#676767"/>
</svg>
