<svg width="24" height="24" fill="none" version="1.1" viewBox="0 0 24 24" xmlns="http://www.w3.org/2000/svg">
  <path d="m9.3163 17.442-3.1244 3.125c-0.24407 0.2441-0.63996 0.244-0.88387 0l-3.1243-3.125c-0.39336-0.3934-0.1132-1.067 0.44196-1.067h1.8742v-12.5c0-0.3452 0.27981-0.625 0.625-0.625h1.25c0.3452 0 0.625 0.2798 0.625 0.625v12.5h1.8744c0.55629 0 0.83449 0.6744 0.44195 1.067zm2.0587-11.692h10c0.3452 0 0.625-0.2798 0.625-0.625v-1.25c0-0.3452-0.2798-0.625-0.625-0.625h-10c-0.3452 0-0.625 0.2798-0.625 0.625v1.25c0 0.3452 0.2798 0.625 0.625 0.625zm-0.625 3.125v1.25c0 0.3452 0.2798 0.625 0.625 0.625h7.5c0.3452 0 0.625-0.2798 0.625-0.625v-1.25c0-0.3452-0.2798-0.625-0.625-0.625h-7.5c-0.3452 0-0.625 0.2798-0.625 0.625zm0 11.25v-1.25c0-0.3452 0.2798-0.625 0.625-0.625h2.5c0.3452 0 0.625 0.2798 0.625 0.625v1.25c0 0.3452-0.2798 0.625-0.625 0.625h-2.5c-0.3452 0-0.625-0.2798-0.625-0.625zm0-6.25v1.25c0 0.3452 0.2798 0.625 0.625 0.625h5c0.3452 0 0.625-0.2798 0.625-0.625v-1.25c0-0.3452-0.2798-0.625-0.625-0.625h-5c-0.3452 0-0.625 0.2798-0.625 0.625z" fill="#676767"/>
</svg>
