<svg width="24" height="24" fill="none" version="1.1" viewBox="0 0 24 24" xmlns="http://www.w3.org/2000/svg">
  <path d="m8.5901 16.316h1.928c0.5721 0 0.8583 0.6744 0.4545 1.067l-3.2136 3.125c-0.25099 0.2441-0.6582 0.244-0.90912 0l-3.2135-3.125c-0.4046-0.3934-0.11644-1.067 0.45458-1.067h1.9278v-12.5c0-0.3452 0.2878-0.625 0.64285-0.625h1.2857c0.35506 0 0.64286 0.2798 0.64286 0.625zm6.4834-10.742 0.7814 0.8123c0.1623 0.16875 0.4418 0.23356 0.7333-0.02348v2.2632h-1.0211c-0.2663 0-0.4821 0.20988-0.4821 0.46875v1.1301c0 0.2588 0.2158 0.4687 0.4821 0.4687h4.3864c0.2663 0 0.4821-0.2099 0.4821-0.4687v-1.1301c0-0.25887-0.2158-0.46875-0.4821-0.46875h-1.031v-4.9637c0-0.25887-0.2159-0.46875-0.4821-0.46875h-1.2693c-0.1225-1e-5 -0.2405 0.04534-0.3298 0.12683l-1.7455 1.5914c-0.1941 0.17691-0.204 0.4732-0.0223 0.66211zm2.289 7.5003c-1.777 0-2.7359 1.3556-2.7359 2.6311 0 1.6588 1.3713 2.8476 2.9279 2.6495-0.4108 0.3677-1.0075 0.3414-1.5309 0.1616-0.2579-0.0885-0.5397 0.0477-0.6215 0.3014l-0.3711 1.1516c-0.075 0.2327 0.0455 0.4832 0.2781 0.5743 0.3215 0.1259 0.8322 0.2649 1.5488 0.2649 2.4005 0 3.6958-2.1288 3.6958-4.1317 0-2.4753-1.6542-3.6027-3.1912-3.6027zm0.968 3.4163c-0.0148 0.0226-0.1515 0.1067-0.5522 0.1067-0.9383 0-1.0112-0.7226-1.0112-0.944 0-0.3073 0.1817-0.6185 0.5289-0.6185 0.4232 0 1.038 0.5555 1.038 1.426 0 0.0185-0.0035 0.0298-0.0035 0.0298z" fill="#676767"/>
</svg>
