<svg width="24" height="24" fill="none" version="1.1" viewBox="0 0 24 24" xmlns="http://www.w3.org/2000/svg">
  <path d="m2.1837 6.5581 3.1244-3.1251c0.24407-0.24403 0.63996-0.24395 0.88387 0l3.1243 3.1251c0.39336 0.39336 0.11324 1.067-0.44195 1.067h-1.8742v12.5c0 0.3452-0.27981 0.625-0.625 0.625h-1.25c-0.3452 0-0.625-0.2798-0.625-0.625v-12.5h-1.8744c-0.55629 0-0.83449-0.67438-0.44195-1.067zm9.1913-0.80805h10c0.3452 0 0.625-0.27981 0.625-0.625v-1.25c0-0.3452-0.2798-0.625-0.625-0.625h-10c-0.3452 0-0.625 0.2798-0.625 0.625v1.25c0 0.34519 0.2798 0.625 0.625 0.625zm-0.625 3.125v1.25c0 0.3452 0.2798 0.625 0.625 0.625h7.5c0.3452 0 0.625-0.2798 0.625-0.625v-1.25c0-0.3452-0.2798-0.625-0.625-0.625h-7.5c-0.3452 0-0.625 0.2798-0.625 0.625zm0 11.25v-1.25c0-0.3452 0.2798-0.625 0.625-0.625h2.5c0.3452 0 0.625 0.2798 0.625 0.625v1.25c0 0.3452-0.2798 0.625-0.625 0.625h-2.5c-0.3452 0-0.625-0.2798-0.625-0.625zm0-6.25v1.25c0 0.3452 0.2798 0.625 0.625 0.625h5c0.3452 0 0.625-0.2798 0.625-0.625v-1.25c0-0.3452-0.2798-0.625-0.625-0.625h-5c-0.3452 0-0.625 0.2798-0.625 0.625z" fill="#676767"/>
</svg>
