<svg width="24" height="24" fill="none" version="1.1" viewBox="0 0 24 24" xmlns="http://www.w3.org/2000/svg">
  <path d="m13.875 3.875c0 1.0356-0.8395 1.875-1.875 1.875s-1.875-0.83945-1.875-1.875 0.8395-1.875 1.875-1.875 1.875 0.83945 1.875 1.875zm-1.875 14.375c-1.0355 0-1.875 0.8395-1.875 1.875s0.8395 1.875 1.875 1.875 1.875-0.8395 1.875-1.875-0.8395-1.875-1.875-1.875zm6.25-6.25c0-1.0355 0.8395-1.875 1.875-1.875s1.875 0.8395 1.875 1.875-0.8395 1.875-1.875 1.875-1.875-0.8395-1.875-1.875zm-12.5 0c0-1.0355-0.83945-1.875-1.875-1.875s-1.875 0.8395-1.875 1.875 0.83945 1.875 1.875 1.875 1.875-0.8395 1.875-1.875zm-1.3702 5.7452c0-1.0355 0.83945-1.875 1.875-1.875 1.0355 0 1.875 0.8395 1.875 1.875 0 1.0356-0.83946 1.875-1.875 1.875-1.0356 0-1.875-0.8394-1.875-1.875zm13.365-1.875c-1.0355 0-1.875 0.8395-1.875 1.875 0 1.0356 0.8395 1.875 1.875 1.875 1.0356 0 1.875-0.8394 1.875-1.875 0-1.0355-0.8394-1.875-1.875-1.875zm-13.365-9.6154c0-1.0356 0.83945-1.875 1.875-1.875 1.0355 0 1.875 0.83945 1.875 1.875 0 1.0355-0.83946 1.875-1.875 1.875-1.0356 0-1.875-0.83946-1.875-1.875z" fill="#676767"/>
</svg>
