<svg width="24" height="24" viewBox="0 0 24 24" fill="none" xmlns="http://www.w3.org/2000/svg">
<path d="M11.3062 3.72903C11.6308 3.22379 12.3692 3.22379 12.6938 3.72903L14.9184 7.19263C15.0301 7.36647 15.2029 7.49205 15.4028 7.54453L19.3843 8.59001C19.9651 8.74252 20.1933 9.44485 19.8131 9.90961L17.2065 13.0957C17.0756 13.2556 17.0096 13.4588 17.0215 13.6651L17.2575 17.7749C17.292 18.3744 16.6945 18.8084 16.135 18.5904L12.2993 17.0959C12.1068 17.0209 11.8932 17.0209 11.7007 17.0959L7.865 18.5904C7.30548 18.8084 6.70805 18.3744 6.74248 17.7749L6.97853 13.6651C6.99038 13.4588 6.92435 13.2556 6.79353 13.0957L4.18691 9.90961C3.80668 9.44485 4.03488 8.74252 4.61567 8.59001L8.59722 7.54453C8.79705 7.49205 8.96991 7.36647 9.08156 7.19263L11.3062 3.72903Z" fill="#676767"/>
</svg>
