<svg width="24" height="24" viewBox="0 0 24 24" fill="none" xmlns="http://www.w3.org/2000/svg">
<path d="M11.1328 1.91263C11.5385 1.28108 12.4615 1.28108 12.8672 1.91263L15.648 6.24213C15.7876 6.45943 16.0037 6.61641 16.2535 6.682L21.2304 7.98886C21.9564 8.1795 22.2417 9.0574 21.7664 9.63836L18.5081 13.621C18.3446 13.8209 18.262 14.0749 18.2768 14.3327L18.5719 19.4699C18.6149 20.2193 17.8681 20.7619 17.1688 20.4894L12.3742 18.6213C12.1335 18.5275 11.8665 18.5275 11.6258 18.6213L6.83125 20.4894C6.13185 20.7619 5.38506 20.2193 5.4281 19.4699L5.72316 14.3327C5.73797 14.0749 5.65544 13.8209 5.49191 13.621L2.23364 9.63836C1.75835 9.0574 2.0436 8.1795 2.76959 7.98886L7.74652 6.682C7.99632 6.61641 8.21238 6.45943 8.35195 6.24213L11.1328 1.91263Z" fill="#676767"/>
</svg>
