<svg xmlns="http://www.w3.org/2000/svg" width="24" height="24" fill="none"><path d="M13.404 8.165c.355.554.906.953 1.542 1.12l2.512.66-1.645 2.01a2.625 2.625 0 00-.589 1.813l.15 2.594-2.421-.943a2.625 2.625 0 00-1.906 0l-2.42.943.149-2.594a2.625 2.625 0 00-.59-1.812l-1.644-2.01 2.512-.66a2.625 2.625 0 001.542-1.12L12 5.98zm-.71-4.436a.825.825 0 00-1.388 0L9.082 7.193a.825.825 0 01-.485.352L4.616 8.59a.825.825 0 00-.43 1.32l2.608 3.186c.13.16.196.363.185.57l-.237 4.109a.825.825 0 001.123.815l3.836-1.494a.824.824 0 01.598 0l3.836 1.494a.824.824 0 001.123-.815l-.236-4.11a.824.824 0 01.185-.57l2.606-3.185a.825.825 0 00-.429-1.32l-3.981-1.045a.825.825 0 01-.485-.352z" fill="#676767"/></svg>