<svg xmlns="http://www.w3.org/2000/svg" width="24" height="24" fill="none"><path d="M13.965 7.323a3.03 3.03 0 001.78 1.293l3.518.924-2.303 2.815a3.031 3.031 0 00-.68 2.092l.209 3.63-3.389-1.32a3.03 3.03 0 00-2.2 0l-3.389 1.32.209-3.63a3.03 3.03 0 00-.68-2.092L4.737 9.54l3.517-.924a3.03 3.03 0 001.78-1.293L12 4.263zm6.757 2.6zm-7.855-8.01a1.03 1.03 0 00-1.734 0l-2.781 4.33a1.03 1.03 0 01-.605.439L2.77 7.989a1.03 1.03 0 00-.536 1.65l3.258 3.982c.163.2.246.454.231.712l-.295 5.137a1.03 1.03 0 001.403 1.02l4.795-1.869a1.03 1.03 0 01.748 0l4.795 1.868a1.03 1.03 0 001.403-1.02l-.295-5.136a1.03 1.03 0 01.231-.712l3.258-3.983a1.03 1.03 0 00-.536-1.65l-4.977-1.306a1.03 1.03 0 01-.605-.44z" fill="#676767"/></svg>