<svg xmlns="http://www.w3.org/2000/svg" width="24" height="24" fill="none"><path d="M12.736 2.494l.996 2.437a.703.703 0 001.021.332l2.24-1.386a.795.795 0 011.19.865L17.556 7.3a.703.703 0 00.631.868l2.626.195c.71.052.998.94.455 1.4l-2.01 1.7a.703.703 0 000 1.074l2.01 1.7a.795.795 0 01-.455 1.4l-2.626.195a.703.703 0 00-.63.868l.626 2.558a.795.795 0 01-1.19.865l-2.24-1.386a.703.703 0 00-1.02.332l-.997 2.437a.795.795 0 01-1.472 0l-.997-2.437a.703.703 0 00-1.02-.332l-2.24 1.386a.795.795 0 01-1.19-.865l.626-2.558a.703.703 0 00-.63-.868l-2.626-.195a.795.795 0 01-.455-1.4l2.01-1.7a.703.703 0 000-1.074l-2.01-1.7a.795.795 0 01.454-1.4l2.626-.195a.703.703 0 00.631-.868l-.626-2.558a.795.795 0 011.19-.865l2.24 1.386c.37.229.856.07 1.02-.332l.997-2.437a.795.795 0 011.472 0zM17.312 12A5.319 5.319 0 0012 6.687 5.319 5.319 0 006.687 12 5.319 5.319 0 0012 17.313 5.319 5.319 0 0017.312 12zM12 16.063A4.067 4.067 0 0016.062 12 4.067 4.067 0 0012 7.937 4.067 4.067 0 007.937 12 4.067 4.067 0 0012 16.063z" fill="#676767"/></svg>