<svg width="24" height="24" fill="none" version="1.1" viewBox="0 0 24 24" xmlns="http://www.w3.org/2000/svg">
  <path d="m4.6283 19.875c-0.61785 0-1.185-0.346-1.4739-0.899-0.7369-1.4108-1.1544-3.019-1.1544-4.726 0-5.5919 4.4772-10.125 10-10.125 5.5228 0 10 4.5331 10 10.125 0 1.707-0.4175 3.3152-1.1544 4.726-0.2888 0.553-0.856 0.899-1.4739 0.899zm15.15-6.75c-0.6137 0-1.1111 0.5037-1.1111 1.125s0.4974 1.125 1.1111 1.125c0.6136 0 1.1111-0.5037 1.1111-1.125s-0.4975-1.125-1.1111-1.125zm-7.7778-7.875c-0.6136 0-1.1111 0.50368-1.1111 1.125s0.4975 1.125 1.1111 1.125 1.1111-0.50368 1.1111-1.125-0.4975-1.125-1.1111-1.125zm-7.7778 7.875c-0.61364 0-1.1111 0.5037-1.1111 1.125s0.49747 1.125 1.1111 1.125c0.61365 0 1.1111-0.5037 1.1111-1.125s-0.49746-1.125-1.1111-1.125zm2.2781-3.3185c0.61364 0 1.1111-0.50368 1.1111-1.125s-0.49747-1.125-1.1111-1.125c-0.61365 0-1.1111 0.50368-1.1111 1.125s0.49746 1.125 1.1111 1.125zm10.999-2.25c-0.6136 0-1.1111 0.50368-1.1111 1.125s0.4975 1.125 1.1111 1.125c0.6137 0 1.1111-0.50368 1.1111-1.125s-0.4974-1.125-1.1111-1.125zm-5.6657 6.7004c-1.1497 0.0861-2.0562 1.0571-2.0562 2.2431 0 1.2426 0.99492 2.25 2.2222 2.25s2.2222-1.0074 2.2222-2.25c0-0.6951-0.3115-1.3165-0.8007-1.7292l1.5944-5.0449c0.1402-0.44385-0.1014-0.91874-0.5397-1.0608-0.4385-0.14203-0.9074 0.10265-1.0477 0.54647z" fill="#676767"/>
</svg>
