<svg width="24" height="24" fill="none" version="1.1" viewBox="0 0 24 24" xmlns="http://www.w3.org/2000/svg">
  <path d="m2 3.875v7.9734c0 0.4972 0.19755 0.9742 0.54918 1.3258l8.2766 8.2766c0.7322 0.7322 1.9194 0.7322 2.6517 0l7.9733-7.9733c0.7322-0.7323 0.7322-1.9195 0-2.6517l-8.2766-8.2766c-0.3516-0.35163-0.8286-0.54918-1.3258-0.54918h-7.9734c-1.0356 0-1.875 0.83945-1.875 1.875zm2.5 2.5c0-1.0356 0.83945-1.875 1.875-1.875s1.875 0.83945 1.875 1.875-0.83945 1.875-1.875 1.875-1.875-0.83945-1.875-1.875z" fill="#676767"/>
</svg>
