<svg width="24" height="24" fill="none" version="1.1" viewBox="0 0 24 24" xmlns="http://www.w3.org/2000/svg">
  <path d="m17.561 11.002-6.6214-7.0351c-0.2813-0.29888-0.6628-0.4668-1.0606-0.4668h-6.3787c-0.82844 0-1.5 0.71354-1.5 1.5938v6.7774c0 0.4227 0.15804 0.8281 0.43934 1.127l6.6213 7.0351c0.58575 0.6224 1.5355 0.6224 2.1213 0l6.3787-6.7774c0.5857-0.6224 0.5857-1.6315 0-2.2539zm-12.061-2.1894c-0.82844 0-1.5-0.71354-1.5-1.5938 0-0.88022 0.67156-1.5938 1.5-1.5938s1.5 0.71353 1.5 1.5938c0 0.88021-0.67156 1.5938-1.5 1.5938zm9.682 11.221 6.3787-6.7774c0.5857-0.6224 0.5857-1.6315 0-2.2539l-6.6214-7.0351c-0.2813-0.29888-0.6628-0.4668-1.0606-0.4668h-1.5225l6.1326 6.5158c0.5311 0.5645 0.8237 1.3149 0.8237 2.1131s-0.2925 1.5486-0.8237 2.113l-5.4394 5.7793 0.0113 0.012c0.5857 0.6224 1.5355 0.6224 2.1213 0z" fill="#676767"/>
</svg>
