<svg width="24" height="24" viewBox="0 0 24 24" fill="none" xmlns="http://www.w3.org/2000/svg">
<path d="M22 10.1878C22.0001 9.89756 21.8465 9.63928 21.6175 9.54491L18.7743 8.37263L21.617 7.20465C21.8459 7.11055 21.9998 6.85251 22 6.56231C22.0001 6.27215 21.8465 6.01392 21.6175 5.91951L12.2006 2.03696C12.0813 1.98784 11.9517 1.9876 11.8324 2.03673L2.38294 5.91939C2.15392 6.01348 2.0001 6.27152 2 6.56173C1.9998 6.85189 2.1535 7.11012 2.38242 7.20453L5.22575 8.37682L2.38301 9.54475C2.15392 9.63885 2.0001 9.89689 2 10.187C1.9998 10.4772 2.1535 10.7355 2.38242 10.8299L5.22575 12.0021L2.38294 13.1701C2.15395 13.2642 2.0001 13.5222 2 13.8123C1.9998 14.1025 2.1535 14.3608 2.38242 14.4552L5.22575 15.6275L2.38301 16.7954C2.15392 16.8895 2.0001 17.1476 2 17.4377C1.9998 17.7279 2.1535 17.9862 2.38242 18.0806L11.7993 21.9631C11.8591 21.9877 11.9213 22 11.9837 22C12.0458 22 12.1078 21.9878 12.1675 21.9633L21.617 18.0807C21.846 17.9867 21.9998 17.7286 22 17.4385C22.0001 17.1482 21.8465 16.89 21.6175 16.7956L18.7743 15.6234L21.617 14.4554C21.8459 14.3613 21.9998 14.1032 22 13.813C22.0001 13.5229 21.8465 13.2646 21.6175 13.1702L18.7742 11.998L21.617 10.83C21.8459 10.736 21.9998 10.4779 22 10.1878ZM4.31186 6.56314L12.0159 3.39775L19.688 6.5609L11.9839 9.72629L4.31186 6.56314ZM19.688 17.437L11.9839 20.6024L4.31196 17.4392L6.97056 16.3469L11.7992 18.3377C11.8591 18.3624 11.9213 18.3746 11.9836 18.3746C12.0457 18.3746 12.1078 18.3624 12.1674 18.338L17.0288 16.3406L19.688 17.437ZM19.688 13.8116L11.9839 16.977L4.31186 13.8139L6.97056 12.7215L11.7992 14.7124C11.8591 14.737 11.9213 14.7493 11.9836 14.7493C12.0457 14.7493 12.1078 14.737 12.1674 14.7126L17.0287 12.7153L19.688 13.8116ZM11.9839 13.3517L4.31196 10.1885L6.97056 9.09613L11.7992 11.087C11.8591 11.1116 11.9213 11.1239 11.9836 11.1239C12.0457 11.1239 12.1078 11.1117 12.1674 11.0872L17.0288 9.08986L19.688 10.1863L11.9839 13.3517Z" fill="#676767"/>
</svg>
