<svg width="24" height="24" fill="none" version="1.1" viewBox="0 0 24 24" xmlns="http://www.w3.org/2000/svg">
  <path d="m2.001 4.1875-9.8e-4 5.875c0 0.5178 0.41973 0.9375 0.9375 0.9375h7.125c0.5178 0 0.9375-0.4197 0.9375-0.9375l1e-3 -5.875c0-0.51777-0.4197-0.9375-0.9375-0.9375h-7.125c-0.51778 0-0.9375 0.41973-0.9375 0.9375zm7.3991 5.2125h-5.8l7.6e-4 -4.55h5.8zm5.1999-4.55v4.925h5.801v-4.925zm-10.999 14.3h5.799v-4.55h-5.799zm10.999 0v-4.55h5.801v4.55zm-0.6625-15.9h7.126c0.5177 0 0.9375 0.41973 0.9375 0.9375v6.25c0 0.5178-0.4198 0.9375-0.9375 0.9375h-7.126c-0.5178 0-0.9375-0.4197-0.9375-0.9375v-6.25c0-0.51777 0.4197-0.9375 0.9375-0.9375zm-11.937 16.562v-5.875c0-0.5178 0.41972-0.9375 0.9375-0.9375h7.124c0.5178 0 0.9375 0.4197 0.9375 0.9375v5.875c0 0.5178-0.4197 0.9375-0.9375 0.9375h-7.124c-0.51778 0-0.9375-0.4197-0.9375-0.9375zm11.937 0.9375h7.126c0.5177 0 0.9375-0.4197 0.9375-0.9375v-5.875c0-0.5178-0.4198-0.9375-0.9375-0.9375h-7.126c-0.5178 0-0.9375 0.4197-0.9375 0.9375v5.875c0 0.5178 0.4197 0.9375 0.9375 0.9375z" fill="#676767"/>
</svg>
