<svg width="24" height="24" fill="none" version="1.1" viewBox="0 0 24 24" xmlns="http://www.w3.org/2000/svg">
  <path d="m2.9375 3.25h7.5c0.5178 0 0.9375 0.41973 0.9375 0.9375v6.25c0 0.5178-0.4197 0.9375-0.9375 0.9375h-7.5c-0.51777 0-0.9375-0.4197-0.9375-0.9375v-6.25c0-0.51777 0.41973-0.9375 0.9375-0.9375zm18.125 0h-7.5c-0.5178 0-0.9375 0.41973-0.9375 0.9375v6.25c0 0.5178 0.4197 0.9375 0.9375 0.9375h7.5c0.5178 0 0.9375-0.4197 0.9375-0.9375v-6.25c0-0.51777-0.4197-0.9375-0.9375-0.9375zm-19.062 10.312v6.25c0 0.5178 0.41973 0.9375 0.9375 0.9375h7.5c0.5178 0 0.9375-0.4197 0.9375-0.9375v-6.25c0-0.5178-0.4197-0.9375-0.9375-0.9375h-7.5c-0.51777 0-0.9375 0.4197-0.9375 0.9375zm19.062 7.1875h-7.5c-0.5178 0-0.9375-0.4197-0.9375-0.9375v-6.25c0-0.5178 0.4197-0.9375 0.9375-0.9375h7.5c0.5178 0 0.9375 0.4197 0.9375 0.9375v6.25c0 0.5178-0.4197 0.9375-0.9375 0.9375z" fill="#676767"/>
</svg>
