<svg width="24" height="24" fill="none" version="1.1" viewBox="0 0 24 24" xmlns="http://www.w3.org/2000/svg">
  <path d="m21 6.0625c0-0.51777-0.4317-0.9375-0.9643-0.9375h-2.9897l-1.3668-2.2147c-0.3485-0.56476-0.9763-0.91032-1.6537-0.91031h-4.0509c-0.67744-1e-5 -1.3052 0.34555-1.6538 0.91031l-1.3668 2.2147h-2.9897c-0.53257 0-0.96429 0.41973-0.96429 0.9375v0.46875c0 0.25887 0.21588 0.46875 0.48214 0.46875h0.80357v13.125c0 1.0355 0.86344 1.875 1.9286 1.875h11.571c1.0651 0 1.9286-0.8395 1.9286-1.875v-13.125h0.8036c0.2662 0 0.4821-0.20988 0.4821-0.46875zm-10.286 3.2812v8.4374c0 0.2589-0.2159 0.4688-0.4822 0.4688h-0.96424c-0.26627 0-0.48215-0.2099-0.48215-0.4688v-8.4374c0-0.25887 0.21588-0.46875 0.48215-0.46875h0.96424c0.2663 0 0.4822 0.20988 0.4822 0.46875zm4.0178-0.46875h-0.9642c-0.2663 0-0.4822 0.20988-0.4822 0.46875v8.4374c0 0.2589 0.2159 0.4688 0.4822 0.4688h0.9642c0.2663 0 0.4822-0.2099 0.4822-0.4688v-8.4374c0-0.25887-0.2159-0.46875-0.4822-0.46875zm-4.8277-4.8862c0.04356-0.0706 0.12203-0.11379 0.20673-0.11379h3.7779c0.0847 0 0.1631 0.04319 0.2067 0.11379l0.7012 1.1362h-5.5938zm-3.6901 3.0112h11.571v12.891c0 0.1295-0.1079 0.2344-0.2411 0.2344h-11.089c-0.13314 0-0.24107-0.1049-0.24107-0.2344z" fill="#676767"/>
</svg>
