<svg width="24" height="24" fill="none" version="1.1" viewBox="0 0 24 24" xmlns="http://www.w3.org/2000/svg">
  <path d="m21.167 5.25h-3.6111v-1.4062c0-0.46758-0.3716-0.84375-0.8334-0.84375h-9.4444c-0.46181 0-0.83334 0.37617-0.83334 0.84375v1.4062h-3.6111c-0.4618 0-0.83333 0.37617-0.83333 0.84375v1.9688c0 1.2551 0.78125 2.5453 2.1493 3.5402 1.0938 0.7981 2.4236 1.3043 3.8194 1.4661 1.0903 1.8316 2.3646 2.5874 2.3646 2.5874v2.5313h-1.6666c-1.2257 0-2.2222 0.7277-2.2222 1.9687v0.4219c0 0.2321 0.1875 0.4219 0.41667 0.4219h10.278c0.2292 0 0.4167-0.1898 0.4167-0.4219v-0.4219c0-1.241-0.9966-1.9687-2.2223-1.9687h-1.6666v-2.5313s1.2743-0.7558 2.3645-2.5874c1.3994-0.1618 2.7292-0.668 3.8195-1.4661 1.3646-0.9949 2.1493-2.2851 2.1493-3.5402v-1.9688c0-0.46758-0.3715-0.84375-0.8333-0.84375zm-15.719 4.5281c-0.84723-0.61874-1.2257-1.3078-1.2257-1.7156v-0.5625h2.2292c0.03472 1.1461 0.20139 2.1516 0.44444 3.0305-0.5243-0.1828-1.0139-0.436-1.4479-0.75238zm11.653 0.75238c0.2431-0.87894 0.4097-1.8844 0.4444-3.0305h2.2327v0.5625c0 0.56602-0.6146 1.2691-1.2257 1.7156-0.434 0.31638-0.9271 0.56958-1.4514 0.75238z" fill="#676767"/>
</svg>
