<svg width="24" height="24" viewBox="0 0 24 24" fill="none" xmlns="http://www.w3.org/2000/svg">
<path d="M1 1H5V5H1V1Z" fill="#676767"/>
<path d="M1 13H5V17H1V13Z" fill="#676767"/>
<path d="M7 19H11V23H7V19Z" fill="#676767"/>
<path d="M13 1H17V5H13V1Z" fill="#676767"/>
<path d="M19 7H23V11H19V7Z" fill="#676767"/>
<path d="M13 13H17V17H13V13Z" fill="#676767"/>
<path d="M19 19H23V23H19V19Z" fill="#676767"/>
<path d="M5 2H13V4H5V2Z" fill="#676767"/>
<path d="M16 8H19V10H16V8Z" fill="#676767"/>
<path d="M2 5H4V13H2V5Z" fill="#676767"/>
<path d="M8 16H10V19H8V16Z" fill="#676767"/>
<path d="M5 14H13V16H5V14Z" fill="#676767"/>
<path d="M11 20H19V22H11V20Z" fill="#676767"/>
<path d="M14 5H16V13H14V5Z" fill="#676767"/>
<path d="M20 11H22V19H20V11Z" fill="#676767"/>
</svg>
