<svg width="24" height="24" viewBox="0 0 24 24" fill="none" xmlns="http://www.w3.org/2000/svg">
<path d="M19.0714 12H9.10714V7.97268C9.10714 6.42581 10.3808 5.14066 11.9719 5.12503C13.579 5.10941 14.8929 6.37894 14.8929 7.93753V8.56253C14.8929 9.08206 15.3228 9.50002 15.8571 9.50002H17.1429C17.6772 9.50002 18.1071 9.08206 18.1071 8.56253V7.93753C18.1071 4.65628 15.3549 1.98832 11.9799 2.00004C8.60491 2.01176 5.89286 4.71488 5.89286 7.99612V12H4.92857C3.86384 12 3 12.8399 3 13.875V20.125C3 21.1602 3.86384 22 4.92857 22H19.0714C20.1362 22 21 21.1602 21 20.125V13.875C21 12.8399 20.1362 12 19.0714 12Z" fill="#676767"/>
</svg>
