<svg width="24" height="24" viewBox="0 0 24 24" fill="none" xmlns="http://www.w3.org/2000/svg">
<path d="M7.45703 8.16667C7.04282 7.75246 7.04282 7.08089 7.45703 6.66667L11.9999 2.12378L16.5428 6.66667C16.957 7.08088 16.957 7.75246 16.5428 8.16667C16.1286 8.58088 15.457 8.58088 15.0428 8.16667L13.0999 6.22378V13.6096C13.0999 14.2171 12.6074 14.7096 11.9999 14.7096C11.3924 14.7096 10.8999 14.2171 10.8999 13.6096V6.22378L8.95703 8.16667C8.54282 8.58088 7.87124 8.58088 7.45703 8.16667Z" fill="#676767"/>
<path d="M4 15C4 14.4477 3.55228 14 3 14C2.44772 14 2 14.4477 2 15V19C2 19.7957 2.31607 20.5587 2.87868 21.1213C3.44129 21.6839 4.20435 22 5 22H19C19.7957 22 20.5587 21.6839 21.1213 21.1213C21.6839 20.5587 22 19.7957 22 19V15C22 14.4477 21.5523 14 21 14C20.4477 14 20 14.4477 20 15V19C20 19.2652 19.8946 19.5196 19.7071 19.7071C19.5196 19.8946 19.2652 20 19 20H5C4.73478 20 4.48043 19.8946 4.29289 19.7071C4.10536 19.5196 4 19.2652 4 19V15Z" fill="#676767"/>
</svg>
