<svg width="24" height="24" viewBox="0 0 24 24" fill="none" xmlns="http://www.w3.org/2000/svg">
<path d="M17.6919 15.6026C17.6919 13.2489 16.2989 11.6638 13.1766 10.5109C10.967 9.64629 9.95827 9.06987 9.95827 7.869C9.95827 6.9083 10.8229 5.99563 12.6963 5.99563C14.3295 5.99563 15.4823 6.47598 16.0587 6.76419L16.2028 6.81223L17.0194 4.12227L16.9233 4.07424C16.2028 3.68996 14.9539 3.30568 13.1766 3.20961V1H10.8229V3.44978C8.27705 4.0262 6.59583 5.80349 6.59583 8.15721C6.59583 10.4148 8.13294 12.048 11.3032 13.1528C13.4648 13.9214 14.2814 14.6419 14.2814 15.8428C14.2814 17.1878 13.1766 18.0044 11.3032 18.0044C9.91024 18.0044 8.37312 17.6201 7.22028 16.9476L7.07618 16.8515L6.30762 19.6376L6.40369 19.6856C7.26832 20.214 9.04561 20.6943 10.8229 20.7424V23H13.1766V20.5502C15.9626 19.9258 17.6919 18.1485 17.6919 15.6026Z" fill="#676767"/>
</svg>
