<svg xmlns="http://www.w3.org/2000/svg" width="24" height="24" fill="none"><path d="M15.69 12.612c1.125.371 2.192 1.053 3.08 1.99C20.209 16.116 21 18.08 21 20.128V21H3v-.871c0-2.049.792-4.012 2.229-5.527.889-.937 1.956-1.619 3.08-1.99a5.503 5.503 0 01-1.825-4.096A5.522 5.522 0 0112 3a5.522 5.522 0 015.516 5.516 5.503 5.503 0 01-1.825 4.096zM12 4.742a3.778 3.778 0 00-3.774 3.774A3.778 3.778 0 0012 12.29a3.778 3.778 0 003.774-3.774A3.778 3.778 0 0012 4.742zm-1.742 9.29c-2.382 0-5.022 2.183-5.455 5.226h14.394c-.433-3.043-3.073-5.226-5.455-5.226h-3.484z" fill="#676767"/></svg>