<svg xmlns="http://www.w3.org/2000/svg" width="24" height="24" fill="none"><path d="M3.05 8.857a4.902 4.902 0 117.983 3.813c.874.33 1.655.806 2.323 1.402a5.853 5.853 0 012.182-1.92 3.8 3.8 0 115.024-.118A5.828 5.828 0 0124 17.35v.76h-8.278c.08.333.142.676.184 1.027l.11.908H0l.11-.908c.365-3.01 2.138-5.4 4.797-6.438a4.893 4.893 0 01-1.858-3.842zM15.2 16.59h7.213a4.308 4.308 0 00-7.997-1.347c.303.417.566.867.785 1.347zM7.952 5.576a3.28 3.28 0 100 6.562 3.28 3.28 0 000-6.562zm6.179 12.848c-.697-2.79-2.962-4.665-6.122-4.665-3.16 0-5.425 1.875-6.122 4.665H14.13zm3.853-11.46a2.28 2.28 0 100 4.56 2.28 2.28 0 000-4.56z" fill="#676767"/></svg>