<svg xmlns="http://www.w3.org/2000/svg" width="24" height="24" fill="none"><path d="M12.633 12.561c1.03.34 2.01.965 2.824 1.824a7.345 7.345 0 012.043 5.067v.798H1v-.798c0-1.879.726-3.678 2.043-5.067.815-.859 1.793-1.484 2.824-1.824a5.045 5.045 0 01-1.673-3.755A5.062 5.062 0 019.25 3.75a5.062 5.062 0 015.056 5.056 5.045 5.045 0 01-1.673 3.755zM9.25 5.347a3.464 3.464 0 00-3.46 3.46 3.464 3.464 0 003.46 3.46 3.464 3.464 0 003.46-3.46 3.464 3.464 0 00-3.46-3.46zm-1.597 8.516c-2.183 0-4.604 2-5 4.79h13.194c-.396-2.79-2.817-4.79-5-4.79H7.653zM20.339 8.079v2.66H23v1.775h-2.661v2.661h-1.774v-2.661h-2.662V10.74h2.661V8.079h1.775z" fill="#676767"/></svg>