<svg xmlns="http://www.w3.org/2000/svg" width="24" height="24" fill="none"><path d="M6.896 3.25H2.938A.937.937 0 002 4.188v3.125c0 .517.42.937.938.937h3.958c.518 0 .937-.42.937-.938V4.188a.937.937 0 00-.937-.937zm.937 10.313v-3.126a.937.937 0 00-.937-.937H2.938a.937.937 0 00-.938.938v3.124c0 .518.42.938.938.938h3.958c.518 0 .937-.42.937-.938zM2 19.813v-3.125c0-.518.42-.938.938-.938h3.958c.518 0 .937.42.937.938v3.125c0 .517-.42.937-.937.937H2.938A.937.937 0 012 19.812zm19.063.937H10.02a.937.937 0 01-.938-.938v-3.125c0-.517.42-.937.938-.937h11.041c.518 0 .938.42.938.938v3.125c0 .517-.42.937-.938.937zM9.082 4.187v3.125c0 .518.42.938.938.938h11.041c.518 0 .938-.42.938-.938V4.188a.937.937 0 00-.938-.937H10.021a.937.937 0 00-.938.938zM21.063 14.5H10.02a.937.937 0 01-.938-.938v-3.124c0-.518.42-.938.938-.938h11.041c.518 0 .938.42.938.938v3.124c0 .518-.42.938-.938.938z" fill="#676767"/></svg>