<svg xmlns="http://www.w3.org/2000/svg" width="24" height="24" fill="none"><path d="M7.833 4.188v3.125c0 .517-.42.937-.937.937H2.938A.937.937 0 012 7.312V4.188c0-.517.42-.937.938-.937h3.958c.518 0 .937.42.937.938zm7.084 9.375v-3.126a.937.937 0 00-.938-.937h-3.958a.937.937 0 00-.938.938v3.124c0 .518.42.938.938.938h3.958c.518 0 .938-.42.938-.938zm1.25-6.25V4.188c0-.518.42-.938.937-.938h3.959c.517 0 .937.42.937.938v3.125c0 .517-.42.937-.938.937h-3.958a.937.937 0 01-.937-.938zm-1.25 0V4.188a.937.937 0 00-.938-.938h-3.958a.937.937 0 00-.938.938v3.125c0 .517.42.937.938.937h3.958c.518 0 .938-.42.938-.938zM2.937 9.5h3.959c.518 0 .937.42.937.938v3.124c0 .518-.42.938-.937.938H2.938A.937.937 0 012 13.562v-3.124c0-.518.42-.938.938-.938zM2 16.688v3.125c0 .517.42.937.938.937h3.958c.518 0 .937-.42.937-.938v-3.125a.937.937 0 00-.937-.937H2.938a.937.937 0 00-.938.938zM21.063 14.5h-3.959a.937.937 0 01-.937-.938v-3.124c0-.518.42-.938.937-.938h3.959c.517 0 .937.42.937.938v3.124c0 .518-.42.938-.938.938zm-3.959 6.25h3.959c.517 0 .937-.42.937-.938v-3.125a.937.937 0 00-.938-.937h-3.958a.937.937 0 00-.937.938v3.125c0 .517.42.937.937.937zm-8.02-.938v-3.125c0-.517.42-.937.937-.937h3.958c.518 0 .938.42.938.938v3.125c0 .517-.42.937-.938.937h-3.958a.937.937 0 01-.938-.938z" fill="#676767"/></svg>