<svg xmlns="http://www.w3.org/2000/svg" width="24" height="24" fill="none"><path d="M21.77 11.112A11.292 11.292 0 0012 5.5c-4.162 0-7.812 2.25-9.77 5.612a1.706 1.706 0 000 1.713A11.292 11.292 0 0012 18.439c4.162 0 7.812-2.25 9.77-5.612a1.706 1.706 0 000-1.714zM12 16.75c-2.61 0-4.722-2.138-4.722-4.781S9.39 7.188 12 7.188c2.61 0 4.722 2.138 4.722 4.78 0 2.643-2.112 4.782-4.722 4.782zm0-1.125c1.994 0 3.611-1.637 3.611-3.656 0-2.02-1.617-3.656-3.611-3.656a3.56 3.56 0 00-1.7.43c.822 0 1.488.674 1.488 1.505 0 .832-.666 1.506-1.487 1.506a1.496 1.496 0 01-1.487-1.506v-.001a3.676 3.676 0 00-.425 1.722c0 2.02 1.617 3.656 3.611 3.656z" fill="#676767"/></svg>