<svg xmlns="http://www.w3.org/2000/svg" width="24" height="24" fill="none"><path d="M12.881 7.32h-4.53v1.59h4.53V7.32zM12.881 10.284h-4.53v1.589h4.53v-1.59zM12.881 13.246h-4.53v1.589h4.53v-1.589z" fill="#676767"/><path d="M20.568 7.141l1.771-3.197H4.346A2.549 2.549 0 001.8 6.49v6.91h1.589V6.49c0-.528.43-.958.957-.958h.826V17.64a2.896 2.896 0 002.894 2.893h9.609a2.896 2.896 0 002.893-2.893V7.14zM6.761 17.64V5.532h12.882l-.663 1.199V17.64c0 .719-.586 1.304-1.305 1.304h-9.61c-.718 0-1.304-.585-1.304-1.304z" fill="#676767"/></svg>