<svg width="24" height="24" viewBox="0 0 24 24" fill="none" xmlns="http://www.w3.org/2000/svg">
<path d="M21.9875 20.0182L20.2685 8.81216C20.1818 8.24703 19.6462 7.78734 19.0744 7.78734H15.9496C16.011 7.50771 16.0443 7.21764 16.0443 6.91984C16.0443 4.68978 14.2301 2.87549 12 2.87549C9.76994 2.87549 7.95565 4.68978 7.95565 6.91984C7.95565 7.21764 7.98897 7.50771 8.05035 7.78734H4.92557C4.35383 7.78734 3.8182 8.24708 3.73151 8.81216L2.01251 20.0182C1.96796 20.3089 2.04325 20.5853 2.2247 20.7967C2.40609 21.0081 2.66799 21.1245 2.96209 21.1245H21.0379C21.332 21.1245 21.5939 21.0081 21.7753 20.7967C21.9567 20.5853 22.032 20.3089 21.9875 20.0182ZM12 4.48785C13.341 4.48785 14.432 5.57883 14.432 6.91984C14.432 8.26084 13.341 9.35182 12 9.35182C10.659 9.35182 9.56802 8.26084 9.56802 6.91984C9.56802 5.57883 10.659 4.48785 12 4.48785ZM10.4282 17.514L9.04136 15.3575H8.6329V17.514H7.38219V12.1347H8.6329V14.2451H8.91748L10.2866 12.1347H11.8217L10.0045 14.6489L11.9527 17.514H10.4282ZM16.6178 16.7368L16.596 16.7655C16.4328 16.9816 16.1781 17.1748 15.8391 17.34C15.5006 17.5049 15.0701 17.5885 14.5594 17.5885C13.9018 17.5885 13.3561 17.3801 12.9376 16.9689C12.5185 16.5573 12.306 16.0171 12.306 15.3635V14.2852C12.306 13.6347 12.5102 13.0957 12.913 12.6831C13.3164 12.2697 13.8416 12.0601 14.4743 12.0601C15.1279 12.0601 15.6386 12.2241 15.9922 12.5476C16.348 12.8732 16.5322 13.3057 16.5397 13.8332L16.54 13.8514L16.5026 13.9634H15.3495L15.3425 13.8634C15.3254 13.6165 15.2474 13.4203 15.1104 13.2802C14.9761 13.1428 14.7717 13.0731 14.5027 13.0731C14.2178 13.0731 13.9948 13.1797 13.8208 13.3992C13.6432 13.6231 13.5532 13.9183 13.5532 14.2767V15.3611C13.5532 15.7259 13.6464 16.0243 13.8302 16.2479C14.0113 16.4682 14.2498 16.5753 14.5594 16.5753C14.7878 16.5753 14.972 16.5522 15.1068 16.5068C15.2169 16.4696 15.3042 16.4257 15.367 16.376V15.5773H14.452V14.6459H16.6178L16.6178 16.7368Z" fill="#676767"/>
</svg>
