<svg version="1.2" baseProfile="tiny" xmlns="http://www.w3.org/2000/svg" viewBox="0 0 24 24"><path fill="#3E5EB9" d="M0 4h24v16H0V4z"/><path fill="#FFD900" d="M0 7h24v10H0V7z"/><path fill="#B10C0C" d="M0 8h24v8H0V8z"/><path fill="#FFF" d="M19.761 10.156l-.972.342.972.343.972-.342-.972-.343zM18.792 10.844l-.972.342.972.342.972-.342-.972-.342z"/><path fill="#FFD900" d="M2.61 12.164h4.128v-.348H2.61a.174.174 0 00-.174.173v.003c0 .093.078.171.174.171zM4.125 11.303h2.856l.24-.229H4.125a.114.114 0 00-.114.115v.003c0 .06.051.11.114.11zM5.061 10.613h2.856l.24-.228H5.061a.114.114 0 00-.114.114v.003c0 .063.051.11.114.11z"/><path fill="#3D5DA7" d="M4.455 12.088c-.174-.182-.423-.032-.558-.041-.051-.004-.378-.115-.477-.12.042.096.027.099-.009.117-.096.063-.099-.024-.177-.057.054.066.036.075.045.165-.246-.132-.588.279-.669.83.084-.071.03-.047.114-.107-.021.143.033.194.066.41.078-.108.075-.08.117-.153.051.13.063.243.108.42.042-.129.024-.117.063-.195.222.186.12.468.402.597a.322.322 0 01.084-.11c.072.083.144.074.303.167-.177-.15.285-.279.354-.426.027.048.003.03.03.12 0-.23.084-.273.156-.47.027.053.024.03.051.083 0-.216.057-.582.003-.786.072.084.039.1.105.132 0-.233.054-.407-.111-.575zm-1.521.967c.072-.177.138-.234.186-.348.084-.202.096-.364.165-.34.069.024.069.108-.024.306s-.138.24-.327.382zm.486.072c-.042.18-.072.221-.21.374.03-.158.075-.218.093-.32.033-.18.015-.315.081-.31.063.006.078.075.036.255zm.27.303c-.018.177-.042.219-.153.378.009-.156.045-.216.051-.315.009-.177-.024-.3.039-.303.06.003.084.066.063.24zm.474-.111c-.183-.085-.228-.112-.336-.262-.108-.146-.12-.215-.066-.248.057-.033.09.099.192.252.057.087.123.12.21.258zm-.366-.742c-.162-.143-.195-.221-.141-.27.054-.05.129.094.282.244.087.087.168.11.303.246-.225-.055-.282-.075-.444-.22z"/><path fill="#FFD900" d="M21.678 12.164H17.55v-.348h4.128c.096 0 .174.077.174.173v.003a.174.174 0 01-.174.171z"/><g fill="#3D5DA7"><path d="M20.493 11.84zM21.633 12.755c0-.172-.12-.418-.258-.51-.747-.501-1.053-.102-.879-.402-.51.237-.864.714-.933 1.119.072-.054.135-.096.207-.141-.102.24.09.555.141.837.132-.072.198-.108.243-.207.051.176.45.51.606.647.012-.08.213-.342.27-.414.009.03.021.073.066.1.003-.06.102-.223.105-.286.024.022.081.064.135.118-.015-.132.045-.258.012-.375.048.015.042.09.135.114-.045-.102-.018-.37-.027-.468.039.08.027.11.144.177-.015-.117-.12-.366-.066-.42.036.033.063.086.099.11zm-1.458.26c-.093.16-.138.195-.33.31.072-.145.138-.19.186-.283.081-.162.093-.29.165-.273.072.021.072.088-.021.246zm.159.654c-.009-.108.021-.156.018-.225-.009-.123-.06-.21.006-.216s.096.037.096.163c0 .123-.021.155-.12.278zm.369.213c-.03-.152-.006-.218-.027-.317-.033-.174-.096-.288-.033-.303.06-.016.099.038.12.215.024.175.012.223-.06.405zm.078-.75c-.063-.107-.057-.158 0-.182.06-.024.06.072.114.183.03.063.081.087.129.186-.147-.06-.18-.079-.243-.187zm.306-.32c-.147-.003-.183-.01-.291-.078-.108-.072-.132-.117-.099-.156.033-.042.084.042.186.12.06.041.114.047.204.114z"/></g><path fill="#FFD900" d="M19.113 10.613h-2.856l-.24-.228h3.099c.063 0 .114.05.114.114v.003a.118.118 0 01-.117.11zM18.183 11.3h-2.856l-.24-.229h3.099c.063 0 .114.052.114.115v.003a.118.118 0 01-.117.11z"/><path fill="#FFF" d="M12.03 8.57c-2.667 0-4.572 2.285-5.715 3.428 1.143 1.144 3.048 3.43 5.715 3.43 3.048 0 4.572-2.287 5.715-3.43-1.143-1.143-2.667-3.428-5.715-3.428zm-.681 2.144c-.108-.066-.159-.057-.195-.138 0 .114.096.186.096.36a1.552 1.552 0 00-.207-.138c.102.174-.183.513-.042.627-.249-.036-.504-.195-.603-.369-.054.037-.06.094-.06.154.009.005-.378-.289-.342-.4a.37.37 0 00-.072.196c-.141-.141-.273-.28-.318-.462-.063.08-.066.08-.129.165-.048-.288-.048-.276.048-.522a2.63 2.63 0 00-.189.144c.063-.414.387-.903.852-1.143-.159.305.276-.103.96.41.126.096.309.471.309.645-.144-.03-.402-.174-.402-.174s.294.294.294.645z"/><path d="M13.824 10.78h.207v.915h-.207zM12.714 10.78h.207v.915h-.207zM13.269 10.78h.207v.915h-.207zM13.824 12.305h.207v.915h-.207zM12.714 12.305h.207v.915h-.207zM13.269 12.305h.207v.915h-.207zM14.931 10.78h.207v.915h-.207zM15.486 10.78h.207v.915h-.207zM14.376 10.78h.207v.915h-.207zM14.376 12.305h.207v.915h-.207zM14.931 12.305h.207v.915h-.207zM15.486 12.305h.207v.915h-.207z"/><g fill="#3D5DA7"><path d="M10.179 9.149zM11.151 10.543c.036.082.09.073.195.139 0-.349-.303-.652-.303-.652s.258.145.402.175c0-.175-.18-.553-.309-.646-.684-.512-1.119-.104-.96-.41-.465.24-.789.729-.852 1.143a2.63 2.63 0 01.189-.144c-.096.246-.096.237-.048.522.063-.081.066-.081.129-.165.048.18.177.32.318.462.012-.081.018-.123.072-.195-.036.114.351.405.342.399.003-.06.009-.117.06-.153.102.173.354.332.603.368-.141-.113.141-.45.042-.626.072.038.144.086.207.137.009-.168-.087-.24-.087-.354a.66.66 0 01-.351-.155c-.165-.124-.201-.193-.147-.244.054-.05.132.075.291.207.09.075.171.093.312.207-.042-.005-.075-.008-.105-.014zm-1.095-.386c-.042.236-.078.296-.243.503.024-.21.081-.29.096-.426.03-.24-.006-.414.078-.408.087.003.111.09.069.33zm.198.89c-.018-.177.015-.255.006-.369-.018-.2-.081-.339-.006-.35s.111.054.12.258c.006.204-.015.258-.12.461zm.504.015c.048.1.114.145.189.3-.186-.113-.228-.15-.324-.32-.096-.171-.099-.243-.033-.27.063-.024.081.117.168.29zm-.135-1.172c-.225-.103-.282-.175-.24-.244.045-.069.171.057.387.171.123.066.222.066.411.168-.267.013-.336.007-.558-.095z"/></g><path d="M21.684 11.8h-4.089c-.126-.132-.258-.279-.396-.429l-.051-.054h1.014l.648.228.006.003 1.017-.36-1.011-.357-.006-.002-.651.23h-1.251a13.241 13.241 0 00-.408-.425h2.592l.645.227.006.003 1.017-.36-1.011-.356-.006-.003-.651.23h-2.85c-.996-.947-2.307-1.835-4.212-1.835-1.671 0-3.036.888-4.11 1.836h-2.85c-.078 0-.138.057-.138.129 0 .071.063.128.138.128h2.568c-.153.145-.3.289-.441.427H4.14c-.078 0-.138.056-.138.128s.063.13.138.13h2.799c-.09.09-.174.18-.258.263-.072.075-.144.147-.213.22H2.595a.188.188 0 00-.186.188c0 .105.084.19.186.19h.363c-.18.14-.336.446-.387.791l-.009.063.048-.042c.042-.036.051-.05.06-.063.003-.003.006-.006.009-.012 0 .06.012.108.027.168.015.051.03.108.042.192l.009.057.033-.048.069-.087c.009-.009.015-.015.024-.027.021.066.036.132.051.204l.039.168.021.081.027-.078c.018-.057.024-.087.03-.108.006-.02.009-.033.018-.054a.57.57 0 01.135.255c.042.123.084.25.249.324l.021.01.012-.019c.024-.039.042-.072.063-.09.042.042.084.06.138.081.042.018.093.04.156.075l.027-.039c-.024-.018-.033-.036-.033-.054.003-.05.099-.114.186-.168a.97.97 0 00.177-.132c0 .015.003.033.015.072l.048-.006c0-.147.036-.213.078-.297.018-.033.036-.072.057-.117 0 0 0 .003.003.003.006.006.009.012.021.036l.045-.012c0-.069.006-.15.012-.24.009-.144.021-.303.009-.435.009.015.024.027.054.042l.033.015v-.039c0-.048.003-.093.006-.138.006-.123.012-.234-.039-.339h1.935c.069.07.138.144.213.22 1.176 1.211 2.949 3.044 5.349 3.044 2.586 0 4.08-1.638 5.169-2.835.138-.15.267-.294.393-.426h2.391c-.237.231-.405.516-.453.792l-.009.048.039-.027c.06-.042.108-.078.159-.11-.042.158.021.341.078.518.03.093.063.19.078.276l.006.027.039-.02c.105-.06.171-.097.216-.172.084.171.381.43.546.573.018.015.036.03.048.042l.027.024.006-.033c.009-.06.147-.252.246-.378a.144.144 0 00.063.075l.027.018v-.033c0-.027.027-.084.051-.135a.691.691 0 00.048-.117l.003.003c.03.024.069.054.105.093l.039.04-.006-.055c-.006-.057.003-.114.009-.17.006-.049.015-.097.012-.148a.161.161 0 00.099.078l.039.012-.018-.039c-.03-.066-.027-.219-.024-.33v-.036c.018.033.045.06.114.1l.033.017-.006-.039c-.006-.042-.021-.096-.036-.153-.024-.08-.054-.186-.045-.23l.027.032a.274.274 0 00.057.06l.03.021v-.036c0-.18-.129-.432-.267-.525-.033-.024-.066-.042-.099-.063h.405c.102 0 .186-.084.186-.189s-.078-.186-.18-.186zm-17.154.711c-.003.03-.003.064-.003.094l-.009-.019c-.009-.018-.021-.045-.054-.08l-.042.02c.036.136.021.349.009.538-.003.057-.009.11-.009.162-.003-.003-.003-.01-.006-.012l-.024-.051-.018.054c-.024.066-.048.11-.072.159-.03.057-.057.108-.072.183l-.021-.033-.018.042c-.024.05-.108.105-.189.156-.105.066-.201.129-.207.204v.015c-.033-.015-.063-.027-.087-.04-.057-.023-.096-.038-.135-.083l-.015-.015-.018.012a.312.312 0 00-.081.099c-.129-.066-.165-.171-.204-.288a.578.578 0 00-.174-.297l-.024-.021-.015.027c-.024.048-.027.066-.033.093l-.003.018-.018-.078c-.021-.093-.036-.171-.069-.258l-.018-.045-.024.042c-.021.036-.03.045-.045.06a.493.493 0 00-.039.048c-.012-.06-.024-.105-.033-.141-.021-.075-.033-.123-.021-.204l.009-.054-.045.033a.263.263 0 00-.063.054c.075-.372.297-.76.534-.76.03 0 .06.007.087.022l.009.006.027-.012-.003-.018c-.003-.021-.003-.04-.003-.054v-.027a.09.09 0 00.057.024.146.146 0 00.069-.024l.006-.003c.045-.024.051-.048.03-.105.066.012.171.042.258.069.099.027.153.045.177.045a.485.485 0 00.15-.024c.057-.012.123-.03.189-.03.084 0 .15.027.204.084.114.122.105.252.099.413zm-.012-.368a.741.741 0 00-.063-.082.314.314 0 00-.24-.098.829.829 0 00-.198.03c-.051.011-.102.023-.138.02-.018 0-.093-.023-.168-.044-.117-.033-.249-.072-.309-.075l-.039-.003.015.036c.024.057.024.069.024.072 0 .002-.009.005-.015.008l-.009.004c-.018.012-.033.018-.045.018s-.024-.01-.042-.027a.258.258 0 00-.069-.051l-.027.036c.033.042.036.054.036.093v.018a.301.301 0 00-.072-.012.31.31 0 00-.162.05h-.411a.154.154 0 01-.153-.155c0-.087.069-.156.153-.156h3.846c-.048.048-.093.096-.138.138l-.015.015.015.015.138.138H4.518v.011zm2.451-.856H4.14c-.06 0-.108-.045-.108-.099s.048-.099.108-.099h3.027a6.16 6.16 0 00-.198.198zm.699-.687H5.07c-.06 0-.108-.044-.108-.098 0-.055.048-.1.108-.1h2.817l-.219.199zm11.148.261l.927.327-.927.327-.585-.207c.051-.018.087-.066.087-.12s-.036-.102-.087-.12l.585-.207zm-.639.228c.06 0 .108.045.108.1s-.048.098-.108.098h-.141a.135.135 0 00.051-.099.13.13 0 00-.051-.099h.141zm-.216 0c.048 0 .099.051.099.1 0 .047-.051.098-.099.098h-.036a.135.135 0 00.051-.099.13.13 0 00-.051-.099h.036zm-.114 0c.048 0 .099.051.099.1 0 .047-.051.098-.099.098h-.036a.135.135 0 00.051-.099.13.13 0 00-.051-.099h.036zm-.117 0c.048 0 .099.051.099.1 0 .047-.051.098-.099.098h-.606c-.06-.066-.12-.132-.183-.198h.789zm2.016-.915l.927.328-.927.326-.585-.206a.129.129 0 00.087-.12.129.129 0 00-.087-.12l.585-.207zm-.639.229c.06 0 .108.044.108.098 0 .055-.048.1-.108.1h-.141a.135.135 0 00.051-.1.13.13 0 00-.051-.098h.141zm-.216 0c.048 0 .099.05.099.098s-.051.1-.099.1h-.036a.135.135 0 00.051-.1.13.13 0 00-.051-.098h.036zm-.114 0c.048 0 .099.05.099.098s-.051.1-.099.1h-.036a.135.135 0 00.051-.1.13.13 0 00-.051-.098h.036zm-.114 0c.048 0 .099.05.099.098s-.051.1-.099.1h-2.184c-.066-.067-.132-.133-.201-.199h2.385zm-8.25.614L10.404 11l-.018.011c-.048.034-.063.082-.066.133-.102-.079-.333-.283-.309-.358l-.033-.014a.335.335 0 00-.069.167c-.129-.129-.246-.26-.288-.426l-.009-.036-.024.03c-.03.042-.048.06-.066.081-.012.015-.024.027-.039.048-.039-.234-.036-.243.045-.453l.027-.072-.048.033c-.054.036-.099.072-.153.114.081-.41.396-.833.786-1.055-.012.036-.015.057-.003.075.018.026.057.03.099.03h.108c.18 0 .456.03.789.278.117.09.285.432.3.606a2.12 2.12 0 01-.375-.168l-.021.03c.003.003.279.282.297.606-.024-.015-.048-.024-.066-.033-.048-.02-.072-.033-.093-.08l-.036.005c0 .055.021.1.042.148.021.048.045.102.051.174a1.61 1.61 0 00-.177-.115l-.057-.033.033.057c.045.079.006.196-.033.31-.036.107-.072.21-.036.278-.231-.048-.456-.191-.549-.354zm-1.719 2.19h-.207v-.915h.207v.915zm.006-1.524H8.487v-.914H8.7v.915zm.546 1.524h-.207v-.915h.207v.915zm.009-1.524H9.042v-.914H9.255v.915zm.546 1.524h-.207v-.915h.207v.915zm0-1.524H9.594v-.914h.114c.03.041.063.08.099.12v.794h-.006zm.555 1.524h-.207v-.915h.207v.915zm0-1.524H10.149v-.635c.066.063.138.123.171.144l.006.006c.006.003.009.006.012.006h.012l.009-.024-.003-.003a.37.37 0 01.006-.06v.57h-.006v-.003zm.555 1.524h-.207v-.915h.207v.915zm0-1.524H10.704v-.362a.97.97 0 00.213.08v.283h-.006zm.552 1.524h-.207v-.915h.207v.915zm.006-1.524H11.256v-.743l.012.009v-.04c0-.038-.006-.071-.012-.104v-.04H11.469v.918zm6.093.46c-.009.011-.021.02-.03.032l-.177.192-.006.006c-.027.03-.054.06-.084.09-.003.007-.009.01-.012.016-.03.03-.057.063-.087.096-.906.996-2.094 2.298-3.96 2.7-.132-.568-1.422-.73-1.401-.93.042-.226.987-.193.999-.39.012-.199-.873-.322-.849-.54.021-.234.459-.258.474-.621 0-.022 0-.043.003-.064 0-.006 0-.012.003-.018l.003-.039.003-.02c.003-.013.003-.025.006-.034 0-.006.003-.012.003-.02l.009-.03c.003-.007.003-.013.006-.019a.146.146 0 01.012-.033c.003-.003.003-.009.006-.012l.018-.042c0-.003.003-.003.003-.006l.018-.033.009-.012.015-.024.009-.012c.006-.006.009-.015.015-.02l.009-.013.018-.018.009-.009.021-.02.006-.007c.009-.009.018-.018.027-.024 0 0 .003 0 .003-.003.009-.006.018-.015.024-.02.003-.004.006-.004.006-.007a.091.091 0 01.021-.015l.009-.006c.006-.006.015-.009.021-.015.003 0 .003-.003.006-.003l.027-.018c.018-.012.036-.02.051-.033l.027-.018c.003 0 .003-.003.006-.003.006-.006.015-.009.021-.015l.006-.006.024-.018.003-.003a.08.08 0 01.018-.015l.006-.006c.006-.006.009-.009.012-.015l.003-.003c.006-.006.009-.012.012-.018 0-.003 0-.003.003-.006.003-.006.003-.012.006-.015v-.006c0-.006.003-.015.003-.024v-.02-.007c0-.006-.003-.012-.003-.015v-.003c0-.006-.003-.009-.006-.015v-.003l-.006-.009V11.9l-.009-.009s-.003 0-.003-.003c-.003-.003-.006-.003-.006-.006 0 0-.003 0-.003-.003l-.009-.006s-.003 0-.006-.003c-.003 0-.003 0-.006-.003-.003 0-.003 0-.006-.003h-.003c-.036-.009-.087-.009-.147-.039a.39.39 0 01-.099-.075l-.003-.003c-.006-.006-.012-.015-.018-.02l-.006-.007c-.009-.009-.015-.018-.024-.03l-.018-.03-.006-.009-.012-.027c-.003-.003-.003-.009-.003-.012-.003-.012-.009-.02-.012-.033 0-.003 0-.003-.003-.006l-.009-.045v-.006a.176.176 0 01-.006-.039v-.009l-.006-.045v-.003c-.003-.036-.006-.072-.006-.11v-.03-.1-.006c0-.033 0-.063.003-.093v-.03-.039-.006-.102-.006-.027-.009-.027-.009-.024-.009c0-.009 0-.015-.003-.024v-.006l-.003-.02v-.007l-.003-.02v-.004l-.006-.018v-.003c-.012-.036-.027-.06-.051-.069-.006-.003-.012-.003-.021-.003a.193.193 0 01-.123-.042l-.003-.003-.018-.018v-.003c-.012-.015-.018-.03-.027-.045v-.003l-.009-.024-.003-.009-.006-.015a.584.584 0 00-.039-.096c-.009-.015-.018-.03-.027-.042l-.003-.003a.08.08 0 01-.015-.018l-.003-.003c-.006-.006-.012-.012-.021-.015 0 0-.003 0-.003-.003-.006-.003-.012-.009-.021-.012-.003 0-.003-.003-.006-.003-.009-.003-.018-.006-.027-.012h-.003c-.009-.003-.018-.006-.03-.006-.003 0-.006 0-.009-.003-.012-.003-.024-.003-.039-.006-.321-.02-.069-.159-.372-.5-.351-.42.246-1.042.375-1.17h.024c.051 0 .102 0 .153.002h.039c.045 0 .09.003.135.006h.018c.051.003.099.006.147.012l.036.003c.042.003.081.01.12.012l.027.003.141.018.033.006.114.018.033.006.135.027.027.006c.039.01.075.015.114.024l.033.01c.045.011.087.02.132.032.006 0 .009.003.015.003l.117.033.033.01c.087.026.171.053.252.083.009.003.021.006.03.012.036.015.075.027.111.042.003.003.009.003.012.006l.12.048c.009.003.018.01.027.012l.102.045.018.01.117.053a.048.048 0 01.021.012c.033.015.066.033.096.048.006.003.015.006.021.012l.111.06.015.01c.033.017.066.035.096.053.006.003.015.01.021.012.036.021.072.042.108.066.003 0 .003.003.006.003l.102.063c.006.003.015.01.021.012.072.045.141.093.207.141.006.003.012.01.018.012a4.931 4.931 0 01.216.16l.093.071c.003 0 .003.003.006.003.033.027.066.054.099.078.003.003.006.006.009.006l.09.075c.003.003.006.003.006.006l.096.081.093.081c.003.003.006.003.006.006.063.057.123.111.183.168l.003.003.132.126.006.006.099.096.03.03c.033.033.066.066.099.102.003.003.006.006.009.012.03.033.063.066.093.096l.012.012.09.096c.003.003.006.006.009.012l.12.13c.063.065.123.131.18.197.036.04.072.078.105.117.03.033.06.063.087.096l.012.012.084.093.003.003c.06.066.12.13.18.192.009.012.021.021.03.033l.072.075.006.006.072.075c-.024.024-.048.048-.072.075l-.006.006c-.018.043-.042.066-.066.09zm.063 0c.045-.049.09-.097.135-.139l.015-.014-.015-.016c-.045-.045-.09-.09-.135-.138h2.847l-.003.003a1.78 1.78 0 00-.45.306h-2.394v-.002zm3.729.125c.117.078.228.282.249.447l-.015-.018a.302.302 0 00-.051-.057l-.015-.012-.012.012c-.045.045-.009.162.027.288l.03.108c-.054-.036-.063-.06-.081-.102a.565.565 0 00-.021-.045l-.036.01c.003.03 0 .074 0 .128-.003.102-.006.222.015.303a.15.15 0 01-.042-.048c-.012-.02-.027-.042-.054-.05l-.033-.01.009.033c.018.06.006.123-.003.19a.938.938 0 00-.012.131c-.027-.024-.054-.045-.075-.063l-.027-.02-.03-.025-.003.04a.61.61 0 01-.051.134c-.018.042-.039.084-.048.117-.021-.02-.027-.045-.033-.069l-.009-.036-.024.03c-.009.012-.216.273-.264.393l-.027-.024c-.177-.153-.504-.44-.549-.597l-.015-.05-.021.047c-.039.09-.099.123-.213.186-.018-.084-.048-.17-.075-.255-.063-.192-.129-.387-.063-.543l.024-.054-.051.03c-.06.036-.111.07-.168.114.09-.402.432-.813.858-1.032-.021.042-.024.063-.015.081.012.021.039.021.069.021H20.583c.087-.005.366-.005.771.268zm.33-.126h-.462c-.333-.185-.561-.185-.645-.185h-.087c-.027 0-.033-.004-.033-.004a.33.33 0 01.045-.095l.018-.03h1.164c.084 0 .153.069.153.156 0 .09-.069.159-.153.159z"/></svg>