<svg width="48" height="48" fill="none" xmlns="http://www.w3.org/2000/svg"><path fill-rule="evenodd" clip-rule="evenodd" d="M32.646 17.237a1 1 0 01.117 1.41l-10.16 12a1 1 0 01-1.525 0l-5.84-6.875a1 1 0 011.524-1.294l5.077 5.976 9.398-11.1a1 1 0 011.41-.117z" fill="#08DC1B"/><path d="M24 46C11.85 46 2 36.15 2 24h-4c0 14.36 11.64 26 26 26v-4zm22-22c0 12.15-9.85 22-22 22v4c14.36 0 26-11.64 26-26h-4zM24 2c12.15 0 22 9.85 22 22h4C50 9.64 38.36-2 24-2v4zm0-4C9.64-2-2 9.64-2 24h4C2 11.85 11.85 2 24 2v-4z" fill="#08DC1B"/></svg>