<svg width="26" height="26" fill="none" xmlns="http://www.w3.org/2000/svg"><path d="M17.685 6H2.315A2.32 2.32 0 000 8.322v11.134a2.321 2.321 0 002.315 2.322h1.862v3.292a.93.93 0 00.58.86.943.943 0 001.021-.203l3.973-3.949h7.934A2.321 2.321 0 0020 19.456V8.322A2.32 2.32 0 0017.685 6zm.44 13.456a.451.451 0 01-.44.462H9.362a.941.941 0 00-.663.273l-2.647 2.63v-1.973c0-.514-.42-.93-.937-.93h-2.8a.452.452 0 01-.44-.462V8.322c0-.254.197-.462.44-.462h15.37c.243 0 .44.208.44.462v11.134z" fill="#AAA"/><path d="M10 15.14a1.26 1.26 0 001.266-1.256A1.26 1.26 0 0010 12.628a1.26 1.26 0 00-1.266 1.256A1.26 1.26 0 0010 15.139zm-4.531 0a1.26 1.26 0 001.265-1.256 1.26 1.26 0 00-1.265-1.256 1.26 1.26 0 00-1.266 1.256 1.26 1.26 0 001.266 1.255zm9.062 0a1.26 1.26 0 001.266-1.256 1.26 1.26 0 00-1.266-1.256 1.26 1.26 0 00-1.265 1.256 1.26 1.26 0 001.265 1.255z" fill="#AAA"/><circle cx="20" cy="6" r="5" fill="#EF20E6" stroke="#404040" stroke-width="2"/></svg>