<svg xmlns="http://www.w3.org/2000/svg" width="23" height="22" viewBox="0 0 23 22"><defs><clipPath id="o005a"><path d="M.175 10.998c0 6.075 4.924 11 10.999 11s11-4.925 11-11-4.925-10.999-11-10.999S.175 4.923.175 10.998z"/></clipPath><clipPath id="o005b"><path d="M.175 10.998c0 6.075 4.924 11 10.999 11s11-4.925 11-11-4.925-10.999-11-10.999S.175 4.923.175 10.998z"/></clipPath><clipPath id="o005c"><path d="M.175 10.998c0 6.075 4.924 11 10.999 11s11-4.925 11-11-4.925-10.999-11-10.999S.175 4.923.175 10.998z"/></clipPath><clipPath id="o005d"><path d="M.175 10.998c0 6.075 4.924 11 10.999 11s11-4.925 11-11-4.925-10.999-11-10.999S.175 4.923.175 10.998z"/></clipPath><clipPath id="o005e"><path d="M.175 10.998c0 6.075 4.924 11 10.999 11s11-4.925 11-11-4.925-10.999-11-10.999S.175 4.923.175 10.998z"/></clipPath><clipPath id="o005f"><path d="M.175 10.998c0 6.075 4.924 11 10.999 11s11-4.925 11-11-4.925-10.999-11-10.999S.175 4.923.175 10.998z"/></clipPath><clipPath id="o005g"><path d="M.175 10.998c0 6.075 4.924 11 10.999 11s11-4.925 11-11-4.925-10.999-11-10.999S.175 4.923.175 10.998z"/></clipPath><clipPath id="o005h"><path d="M.175 10.998c0 6.075 4.924 11 10.999 11s11-4.925 11-11-4.925-10.999-11-10.999S.175 4.923.175 10.998z"/></clipPath><clipPath id="o005i"><path d="M.175 10.998c0 6.075 4.924 11 10.999 11s11-4.925 11-11-4.925-10.999-11-10.999S.175 4.923.175 10.998z"/></clipPath><clipPath id="o005j"><path d="M.175 10.998c0 6.075 4.924 11 10.999 11s11-4.925 11-11-4.925-10.999-11-10.999S.175 4.923.175 10.998z"/></clipPath><clipPath id="o005k"><path d="M.175 10.998c0 6.075 4.924 11 10.999 11s11-4.925 11-11-4.925-10.999-11-10.999S.175 4.923.175 10.998z"/></clipPath><clipPath id="o005l"><path d="M.175 10.998c0 6.075 4.924 11 10.999 11s11-4.925 11-11-4.925-10.999-11-10.999S.175 4.923.175 10.998z"/></clipPath><clipPath id="o005m"><path d="M.175 10.998c0 6.075 4.924 11 10.999 11s11-4.925 11-11-4.925-10.999-11-10.999S.175 4.923.175 10.998z"/></clipPath><clipPath id="o005n"><path d="M.175 10.998c0 6.075 4.924 11 10.999 11s11-4.925 11-11-4.925-10.999-11-10.999S.175 4.923.175 10.998z"/></clipPath></defs><g><g/><g clip-path="url(#o005a)"><path fill="#fff" d="M25.195-.001H-2.093v22h27.288z"/></g><g/><g clip-path="url(#o005b)"><path fill="#001874" d="M14.04 0v7.082L23.69 0z"/></g><g/><g clip-path="url(#o005c)"><path fill="#001874" d="M8.174 0h-9.02l9.02 6.61z"/></g><g/><g clip-path="url(#o005d)"><path fill="#001874" d="M25.185 7.823V3.756l-5.543 4.067z"/></g><g/><g clip-path="url(#o005e)"><path fill="#001874" d="M25.185 19.105v-5.416h-7.366z"/></g><g/><g clip-path="url(#o005f)"><path fill="#001874" d="M-2.093 3.937V7.82h5.296z"/></g><g/><g clip-path="url(#o005g)"><path fill="#001874" d="M-2.093 13.688v5.235l7.12-5.235z"/></g><g/><g clip-path="url(#o005h)"><path fill="#001874" d="M8.174 22v-5.761L.327 22z"/></g><g/><g clip-path="url(#o005i)"><path fill="#001874" d="M14.04 22h8.478l-8.477-6.233z"/></g><g/><g clip-path="url(#o005j)"><path fill="#c00" d="M8.22 7.849L-2.094.319v2.423l6.99 5.107z"/></g><g/><g clip-path="url(#o005k)"><path fill="#c00" d="M8.2 13.684H6.524l-8.617 6.348V21.998h.633l9.66-7.115z"/></g><g/><g clip-path="url(#o005l)"><path fill="#c00" d="M17.805 7.849l7.38-5.392V.033L14.48 7.849z"/></g><g/><g clip-path="url(#o005m)"><path fill="#c00" d="M13.078 13.684h-.01v-.957h1.81l-.023-.017h10.33V8.806H13.069v-.007h-.006v-8.8H9.152v7.85h.015v.957h-11.26v3.904h9.939l-.023.017h1.344v.957h-.01v8.315h3.906v-8.176l.015.01z"/></g><g/><g clip-path="url(#o005n)"><path fill="#c00" d="M14.035 13.684v.855l10.126 7.46h1.024V20.32l-9.008-6.637z"/></g><g opacity=".4"/></g></svg>