<svg width="25" height="24" viewBox="0 0 25 24" fill="none" xmlns="http://www.w3.org/2000/svg">
<path d="M12.6924 24C19.3198 24 24.6924 18.6274 24.6924 12C24.6924 5.37258 19.3198 0 12.6924 0C6.06497 0 0.692383 5.37258 0.692383 12C0.692383 18.6274 6.06497 24 12.6924 24Z" fill="#D80027"/>
<path d="M13.9311 9.07813C13.6584 10.2125 13.1738 9.99613 12.936 10.9854C11.5353 10.6486 10.6726 9.23999 11.0094 7.83913C11.346 6.43836 12.7548 5.57567 14.1556 5.91247C13.6799 7.89092 14.1751 8.06361 13.9311 9.07813Z" fill="#F0F0F0"/>
<path d="M10.2963 9.91871C11.2909 10.5286 10.9354 10.9226 11.8027 11.4545C11.0495 12.6827 9.44331 13.0678 8.21509 12.3146C6.98692 11.5615 6.60174 9.95522 7.35493 8.72705C9.08959 9.79074 9.4067 9.37322 10.2963 9.91871Z" fill="#F0F0F0"/>
<path d="M9.97258 13.6354C10.86 12.878 11.1248 13.3378 11.8986 12.6774C12.834 13.7732 12.7039 15.4198 11.6081 16.3552C10.5123 17.2906 8.86567 17.1603 7.93042 16.0646C9.47795 14.7435 9.17884 14.3128 9.97258 13.6354Z" fill="#F0F0F0"/>
<path d="M13.4071 15.092C12.9609 14.0141 13.4801 13.9042 13.0911 12.9642C14.4223 12.4133 15.9481 13.0458 16.4991 14.377C17.05 15.7082 16.4174 17.234 15.0862 17.785C14.3082 15.9049 13.8062 16.0563 13.4071 15.092Z" fill="#F0F0F0"/>
<path d="M15.8539 12.2754C14.6908 12.3667 14.7466 11.8389 13.7325 11.9184C13.6198 10.4822 14.693 9.22642 16.1293 9.11368C17.5655 9.00123 18.8213 10.0743 18.9339 11.5106C16.9053 11.6697 16.8941 12.1939 15.8539 12.2754Z" fill="#F0F0F0"/>
</svg>
