<svg width="25" height="24" viewBox="0 0 25 24" fill="none" xmlns="http://www.w3.org/2000/svg">
<path d="M12.6924 23.9999C19.3198 23.9999 24.6924 18.6273 24.6924 11.9999C24.6924 5.37246 19.3198 -0.00012207 12.6924 -0.00012207C6.06497 -0.00012207 0.692383 5.37246 0.692383 11.9999C0.692383 18.6273 6.06497 23.9999 12.6924 23.9999Z" fill="#D80027"/>
<path d="M7.25957 7.3031L8.29551 10.4906H11.6471L8.9377 12.464L9.97363 15.6515L7.25957 13.6828L4.54551 15.6515L5.58613 12.464L2.87207 10.4906H6.22363L7.25957 7.3031Z" fill="#FFDA44"/>
<path d="M14.9188 18.5859L14.1267 17.6109L12.9548 18.0656L13.6345 17.0109L12.8423 16.0312L14.0563 16.3546L14.7407 15.2999L14.8063 16.5562L16.0251 16.8796L14.8485 17.3296L14.9188 18.5859Z" fill="#FFDA44"/>
<path d="M16.4938 15.7265L16.8688 14.5265L15.8423 13.7999L17.0985 13.7812L17.4688 12.5812L17.8767 13.7718L19.1329 13.7577L18.1251 14.5077L18.5282 15.6984L17.5017 14.9718L16.4938 15.7265Z" fill="#FFDA44"/>
<path d="M18.6175 8.80771L18.0644 9.9374L18.9644 10.814L17.7222 10.6358L17.169 11.7608L16.9534 10.5233L15.7065 10.3452L16.8222 9.75928L16.6065 8.51709L17.5065 9.39365L18.6175 8.80771Z" fill="#FFDA44"/>
<path d="M14.9518 5.38586L14.8581 6.63743L16.0252 7.11086L14.8018 7.41086L14.7127 8.66711L14.0518 7.59836L12.8284 7.89836L13.6393 6.93743L12.9737 5.87336L14.1409 6.3468L14.9518 5.38586Z" fill="#FFDA44"/>
</svg>
