<svg xmlns="http://www.w3.org/2000/svg" width="22" height="22" viewBox="0 0 22 22"><defs><clipPath id="ntvva"><path d="M0 11c0 6.075 4.925 11 11 11s11-4.925 11-11S17.075 0 11 0 0 4.925 0 11z"/></clipPath><clipPath id="ntvvb"><path d="M0 11c0 6.075 4.925 11 11 11s11-4.925 11-11S17.075 0 11 0 0 4.925 0 11z"/></clipPath><clipPath id="ntvvc"><path d="M0 11c0 6.075 4.925 11 11 11s11-4.925 11-11S17.075 0 11 0 0 4.925 0 11z"/></clipPath><clipPath id="ntvvd"><path d="M0 11c0 6.075 4.925 11 11 11s11-4.925 11-11S17.075 0 11 0 0 4.925 0 11z"/></clipPath><clipPath id="ntvve"><path d="M0 11c0 6.075 4.925 11 11 11s11-4.925 11-11S17.075 0 11 0 0 4.925 0 11z"/></clipPath><clipPath id="ntvvf"><path d="M0 11c0 6.075 4.925 11 11 11s11-4.925 11-11S17.075 0 11 0 0 4.925 0 11z"/></clipPath></defs><g><g/><g clip-path="url(#ntvva)"><path fill="#cb2127" d="M-15.039-3.677h53.223v31.05h-53.223z"/></g><g/><g clip-path="url(#ntvvb)"><path fill="#f7de28" d="M4.23 13.745l.997-3.097-2.63-1.923 3.255-.01 1.017-3.088 1.01 3.088 3.252.01-2.63 1.923.999 3.098-2.63-1.914z"/></g><g/><g clip-path="url(#ntvvc)"><path fill="#f7de28" d="M13.304 15.42l1.102.436.76-.905-.084 1.185 1.101.447-1.153.291-.084 1.175-.634-.998-1.143.281.76-.915z"/></g><g/><g clip-path="url(#ntvvd)"><path fill="#f7de28" d="M19.25 9.463l-1.164-.198-.562 1.04-.166-1.175-1.164-.208 1.06-.52-.166-1.174.831.852 1.061-.52-.55 1.05z"/></g><g/><g clip-path="url(#ntvve)"><path fill="#f7de28" d="M16.776 14.764l.364-1.123-.957-.696h1.186l.363-1.133.364 1.133h1.185l-.956.696.364 1.123-.957-.686z"/></g><g/><g clip-path="url(#ntvvf)"><path fill="#f7de28" d="M13.356 4.483l1.081.49.811-.864-.146 1.174 1.071.51-1.164.228-.146 1.175-.57-1.039-1.166.228.801-.873z"/></g><g opacity=".4"/></g></svg>