<svg width="24" height="24" fill="none" xmlns="http://www.w3.org/2000/svg"><path d="M12 24c6.627 0 12-5.373 12-12S18.627 0 12 0 0 5.373 0 12s5.373 12 12 12z" fill="#F8F8F8"/><path d="M12 0A12 12 0 0 0 1.19 6.783H22.81A12 12 0 0 0 11.999 0zM12 24a12 12 0 0 0 10.809-6.783H1.19A12 12 0 0 0 12 24z" fill="#0476FF"/><path d="m15.586 12-1.465.69.78 1.419-1.591-.305-.202 1.608L12 14.23l-1.109 1.182-.201-1.608-1.592.305.78-1.42L8.414 12l1.466-.69-.78-1.419 1.59.305.202-1.608L12 9.771l1.108-1.183.202 1.608L14.9 9.89l-.78 1.42 1.465.689z" fill="#FDB600"/></svg>