<svg width="24" height="24" fill="none" xmlns="http://www.w3.org/2000/svg"><path d="M12 24c6.627 0 12-5.373 12-12S18.627 0 12 0 0 5.373 0 12s5.373 12 12 12z" fill="#E62828"/><path d="m6.567 7.303 1.036 3.188h3.352l-2.71 1.973 1.036 3.188-2.714-1.97-2.714 1.97 1.04-3.188-2.713-1.973H5.53l1.036-3.188zM14.226 18.586l-.792-.975-1.172.455.68-1.055-.793-.98 1.215.324.684-1.055.066 1.256 1.218.324-1.176.45.07 1.256zM15.801 15.727l.375-1.2-1.027-.727 1.257-.019.37-1.2.408 1.19 1.256-.013-1.008.75.403 1.19-1.026-.726-1.008.755zM17.926 8.808l-.553 1.13.9.876-1.243-.178-.553 1.125-.215-1.237-1.247-.178 1.115-.586-.215-1.243.9.877 1.11-.586zM14.26 5.386l-.095 1.252 1.168.473-1.224.3-.089 1.256-.66-1.069-1.224.3.81-.96-.665-1.065 1.167.474.811-.961z" fill="#FDB600"/></svg>