<svg width="24" height="24" fill="none" xmlns="http://www.w3.org/2000/svg"><path d="M12 24c6.627 0 12-5.373 12-12S18.627 0 12 0 0 5.373 0 12s5.373 12 12 12z" fill="#E62828"/><path d="M13.239 9.078c-.273 1.135-.758.918-.995 1.907a2.609 2.609 0 0 1 1.22-5.073c-.476 1.979.019 2.152-.225 3.166zM9.604 9.919c.995.61.639 1.004 1.506 1.535a2.609 2.609 0 0 1-4.447-2.727c1.734 1.064 2.051.646 2.94 1.192zM9.28 13.636c.888-.758 1.153-.298 1.927-.958a2.609 2.609 0 1 1-3.969 3.387c1.548-1.321 1.249-1.752 2.042-2.43zM12.714 15.092c-.446-1.078.073-1.188-.316-2.128a2.609 2.609 0 0 1 1.996 4.82c-.778-1.88-1.28-1.728-1.68-2.692zM15.162 12.275c-1.163.092-1.107-.436-2.122-.356a2.61 2.61 0 0 1 5.202-.408c-2.029.159-2.04.683-3.08.764z" fill="#F0F0F0"/></svg>