<svg width="24" height="24" fill="none" xmlns="http://www.w3.org/2000/svg"><path d="M12 24c6.627 0 12-5.373 12-12S18.627 0 12 0 0 5.373 0 12s5.373 12 12 12z" fill="#F8F8F8"/><path d="M12 0A12 12 0 0 0 1.19 6.783H22.81A12 12 0 0 0 11.999 0z" fill="#FDB600"/><path d="M12 24a12 12 0 0 0 10.809-6.783H1.19A12 12 0 0 0 12 24z" fill="#6DA544"/><path d="M12 16.174a4.174 4.174 0 1 0 0-8.348 4.174 4.174 0 0 0 0 8.348z" fill="#0052B4"/><path d="M12 14.609a2.609 2.609 0 1 0 0-5.218 2.609 2.609 0 0 0 0 5.218z" fill="#F0F0F0"/><path d="m12 8.781.805 1.825 1.982-.215L13.61 12l1.178 1.609-1.982-.216L12 15.219l-.805-1.825-1.983.216L10.39 12l-1.178-1.61 1.983.216L12 8.781z" fill="#0052B4"/></svg>