<svg width="24" height="24" fill="none" xmlns="http://www.w3.org/2000/svg"><path d="M12 24c6.627 0 12-5.373 12-12S18.627 0 12 0 0 5.373 0 12s5.373 12 12 12z" fill="#F8F8F8"/><path d="M12 24c6.627 0 12-5.373 12-12 0-1.468-.264-2.874-.746-4.174H.746A11.974 11.974 0 0 0 0 12c0 6.627 5.373 12 12 12z" fill="#0052B4"/><path d="M12 24c5.16 0 9.558-3.257 11.253-7.826H.746C2.442 20.744 6.84 24 12 24z" fill="#E62828"/><path d="M3.103 6.783v5.986c0 3.405 4.448 4.449 4.448 4.449s4.448-1.044 4.448-4.45V6.784H3.103z" fill="#F0F0F0"/><path d="M4.146 6.783v5.986c0 .4.09.777.265 1.131h6.28a2.51 2.51 0 0 0 .265-1.131V6.783h-6.81z" fill="#E62828"/><path d="M9.639 10.957H8.074V9.913h1.043V8.87H8.074V7.826H7.03V8.87H5.987v1.043H7.03v1.044H5.465V12H7.03v1.043h1.044V12h1.565v-1.043z" fill="#F0F0F0"/><path d="M5.834 15.357a7.494 7.494 0 0 0 1.717.777 7.494 7.494 0 0 0 1.717-.777c.678-.426 1.154-.914 1.424-1.457a1.817 1.817 0 0 0-1.469-.287 1.826 1.826 0 0 0-3.343 0 1.827 1.827 0 0 0-1.469.287c.27.543.745 1.03 1.423 1.457z" fill="#0052B4"/></svg>