<svg width="24" height="24" fill="none" xmlns="http://www.w3.org/2000/svg"><path d="M12 24c6.627 0 12-5.373 12-12S18.627 0 12 0 0 5.373 0 12s5.373 12 12 12z" fill="#F8F8F8"/><path d="M16.174 12c0 1.043-1.869 3.652-4.174 3.652-2.305 0-4.174-2.608-4.174-3.652a4.174 4.174 0 1 1 8.348 0z" fill="#E62828"/><path d="M16.174 12a4.174 4.174 0 0 1-8.348 0" fill="#0052B4"/><path d="m17.534 14.582-1.107 1.107.738.738 1.106-1.107-.738-.738zM15.689 16.427l-1.107 1.107.738.738 1.107-1.107-.738-.738zM19.747 16.796l-1.106 1.106.738.738 1.106-1.107-.738-.737zM17.903 18.64l-1.107 1.107.738.738 1.107-1.107-.738-.737zM18.64 15.69l-1.106 1.106.738.738 1.107-1.107-.738-.738zM16.796 17.534 15.69 18.64l.737.738 1.107-1.107-.738-.738zM15.69 5.36l2.95 2.95.738-.737-2.95-2.952-.739.738zM14.583 6.466l1.107 1.107.737-.738-1.107-1.107-.737.738zM16.427 8.31l1.107 1.107.738-.737-1.107-1.107-.738.738zM16.796 4.253l1.106 1.106.738-.737-1.107-1.107-.737.738zM18.641 6.097l1.107 1.107.738-.738-1.107-1.107-.738.738zM7.204 19.747l-2.951-2.95-.738.737 2.951 2.951.738-.738zM8.31 18.64l-1.106-1.106-.738.738 1.107 1.106.738-.738zM6.466 16.796 5.36 15.689l-.737.738 1.106 1.107.738-.738zM9.417 17.534l-2.951-2.951-.738.737 2.951 2.952.738-.738zM4.253 7.204l2.951-2.952-.738-.737-2.951 2.951.738.738zM5.36 8.31 8.31 5.36l-.737-.738L4.62 7.572l.738.738zM6.467 9.418l2.951-2.952-.738-.738L5.73 8.68l.738.738z" fill="#000"/></svg>