<svg width="69" height="69" viewBox="0 0 69 69" fill="none" xmlns="http://www.w3.org/2000/svg">
  <circle cx="34.2314" cy="34.2227" r="34" fill="#F2F2F2"/>
  <path d="M24.7441 41.9822C24.9727 42.1387 25.8543 42.5757 26.5988 41.6365L31.6404 34.2796L36.9759 39.419C37.2567 39.6864 37.642 39.8299 38.0339 39.7842C38.4192 39.7451 38.7718 39.5429 39.0004 39.2233L47.8494 26.5508L48.1694 30.7902C48.2477 31.8664 49.26 32.0425 49.5996 32.0164C50.331 31.9577 50.8861 31.325 50.8273 30.588L50.2657 23.1333C50.2135 22.4028 49.5735 21.8484 48.8355 21.9071L41.371 22.468C40.6396 22.5202 40.0845 23.1593 40.1433 23.8963C40.1955 24.6268 40.829 25.1747 41.5735 25.1225L45.8184 24.8029L37.7073 36.4123L32.3588 31.2598C32.078 30.9859 31.6861 30.8489 31.3008 30.8946C30.909 30.9337 30.5563 31.1424 30.3343 31.4685L24.398 40.1299C23.98 40.7365 24.1367 41.5648 24.7441 41.9822Z" fill="#1D1D1B" stroke="#1D1D1B" stroke-width="0.6"/>
  <path d="M48.8992 47.5411H20.8959V19.5737C20.8959 18.8367 20.3016 18.2432 19.5637 18.2432C18.8257 18.2432 18.2314 18.8367 18.2314 19.5737V48.8716C18.2314 49.6086 18.8257 50.2022 19.5637 50.2022H48.8992C49.6372 50.2022 50.2314 49.6086 50.2314 48.8716C50.2314 48.1346 49.6372 47.5411 48.8992 47.5411Z" fill="#1D1D1B" stroke="#1D1D1B" stroke-width="0.6"/>
</svg>
