<svg width="69" height="69" viewBox="0 0 69 69" fill="none" xmlns="http://www.w3.org/2000/svg">
  <circle cx="34.3213" cy="34.2227" r="34" fill="#F2F2F2"/>
  <path d="M35.7133 39.1363L31.6493 35.1254L31.6973 35.0775C34.4813 31.9775 36.4653 28.4141 37.6333 24.6429H42.3214V21.4391H31.1213V18.2432H27.9212V21.4391H16.7213V24.619H34.5933C33.5133 27.703 31.8252 30.6272 29.5212 33.1839C28.0332 31.5301 26.8012 29.7324 25.8252 27.8308H22.6253C23.7932 30.4354 25.3933 32.8963 27.3932 35.1174L19.2572 43.1471L21.5213 45.4082L29.5213 37.4185L34.4973 42.3881L35.7133 39.1363Z" fill="black"/>
  <path d="M44.7213 31.0266H41.5213L34.3212 50.2019H37.5213L39.3213 45.4081H46.9213L48.7213 50.2019H51.9213L44.7213 31.0266ZM40.5213 42.2122L43.1213 35.2851L45.7213 42.2122H40.5213Z" fill="black"/>
</svg>
