<svg width="48" height="48" fill="none" xmlns="http://www.w3.org/2000/svg"><path d="M47.903 25.9c-.2-1.2-1-2.1-2-2.6-.5-.3-1.199-.3-1.699-.3-1.599 0-3.998.6-5.997 2.5-.2.1-.2.1-1.999 2.3l-2.199 2.6c-.1.1-.2.2-.4.2s-.5-.2-.5-.5v-3.8l4.798-18.1c.5-1.9-.4-4-2.099-4.9-.6-.4-1.3-.5-2.099-.5-1.5 0-2.898.7-3.598 2-.3.5-.3.5-2.499 8.2-.3 1.2-.7 2.6-1.2 4.2V4.3c0-2.4-1.898-4.3-4.297-4.3h-.2c-1.8 0-3.799 1.4-4.098 3.8v12.4l-2.5-9.3C14.819 5 13.12 3.7 11.12 3.7 9.52 3.6 8.02 4.5 7.32 6c-.2.4-.3.9-.4 1.3-.1.9-.1.9 2.1 9.3.2.7.4 1.4.6 2.2l-2.3-3.9c-.7-1.2-1.999-2-3.398-2-1.2 0-2.299.5-2.999 1.4-1.1 1.3-1.199 3.1-.4 4.5L4.724 26c1.499 2.6 2.299 5.7 2.299 8.8 0 7.3 5.997 13.2 13.194 13.2h2.598c3.799 0 7.397-1.5 10.096-4.2l13.893-14.6c1-.9 1.4-2.1 1.1-3.3zm-2.4 2L31.61 42.4c-2.299 2.3-5.497 3.6-8.796 3.6h-2.599c-6.197.1-11.194-5-11.194-11.2 0-3.4-.9-6.8-2.6-9.8l-4.197-7.2c-.4-.7-.3-1.7.2-2.3.4-.5.9-.7 1.499-.7.7 0 1.4.4 1.7 1l5.897 10.3c.2.4.8.6 1.199.4.4-.2.7-.7.6-1.1-1-3.9-1.8-6.9-2.5-9.2-2.098-7.7-2.198-8-2.098-8.5v-.1c0-.1.1-.4.2-.6.6-1.2 1.699-1.3 2.099-1.3.9 0 1.999.5 2.299 1.8l4.398 16.4c.1.5.6.8 1.1.7.499-.1.799-.5.799-1V4.2c.3-1.4 1.4-2.3 2.399-2.3h.1c1.299 0 2.399 1.1 2.399 2.4V24c0 .5.4.9.8 1 .499.1.899-.2 1.099-.7 1.299-4.7 2.299-8.2 3.098-10.8 1.8-6.4 2.1-7.4 2.3-7.6l.099-.1c.6-1 2-1.4 3.199-.7.8.4 1.399 1.5 1.099 2.7L31.31 26v4.2c0 1.4 1.1 2.4 2.5 2.4.599 0 1.299-.3 1.798-.8l2.3-2.7c1.499-1.8 1.798-2.1 1.898-2.2 1.5-1.4 3.399-1.9 4.598-1.9.4 0 .7.1.9.1.5.2.9.7 1 1.2-.1.6-.3 1.1-.8 1.6z" fill="#5BAAF0"/><path d="M27.612 30.2c-5.297 1.6-9.096 6.7-9.096 12.3 0 .5.4 1 1 1s1-.4 1-1c0-4.8 3.198-9.1 7.696-10.5.5-.2.8-.7.6-1.2-.2-.5-.7-.8-1.2-.6z" fill="#5BAAF0"/></svg>