<svg width="24" height="25" viewBox="0 0 24 25" fill="none" xmlns="http://www.w3.org/2000/svg">
<path d="M4.9 19.512V17.912C3.7 17.812 2.6 17.512 2 17.212L2.5 15.212C3.2 15.612 4.2 16.012 5.4 16.012C6.4 16.012 7.1 15.612 7.1 14.912C7.1 14.212 6.5 13.812 5.3 13.412C3.5 12.812 2.2 11.912 2.2 10.212C2.1 8.61199 3.2 7.41199 5 7.11199V5.41199H6.7V6.91199C7.9 7.01199 8.6 7.21199 9.2 7.51199L8.7 9.51199C8.3 9.31199 7.5 8.91199 6.2 8.91199C5.1 8.91199 4.7 9.41199 4.7 9.91199C4.7 10.512 5.3 10.812 6.8 11.412C8.9 12.112 9.7 13.112 9.7 14.612C9.7 16.112 8.6 17.412 6.6 17.812V19.612H4.9V19.512Z" fill="#404040"/>
<path d="M17 7.51196C14.2 7.51196 12 9.71196 12 12.512C12 15.312 14.2 17.512 17 17.512C19.8 17.512 22 15.312 22 12.512C22 9.71196 19.8 7.51196 17 7.51196ZM19.7 13.112H14.3V11.912H19.7V13.112Z" fill="#404040"/>
</svg>
