<svg width="24" height="24" fill="none" version="1.1" viewBox="0 0 24 24" xmlns="http://www.w3.org/2000/svg">
  <path d="m13.062 1.1992c-5.9521-1e-7 -10.801 4.8415-10.801 10.801 0 5.952 4.8415 10.801 10.801 10.801 3.3272 0 6.3744-1.5183 8.3887-4 0.34782-0.42859 0.35159-1.0383 0.10352-1.4512-0.24808-0.4129-0.78442-0.69697-1.3262-0.59375-4.3756 0.83334-8.3574-2.4957-8.3574-6.9082 0-2.5357 1.3534-4.8612 3.5605-6.1172 0.47964-0.27299 0.70275-0.8374 0.62305-1.3125-0.079701-0.4751-0.4766-0.93684-1.0195-1.0371-0.65051-0.11996-1.3111-0.18154-1.9727-0.18164zm0 1.6016c0.29098 4.28e-5 0.57784 0.050815 0.86719 0.078125-2.2512 1.6117-3.6582 4.1648-3.6582 6.9688 0 5.0505 4.3702 8.8172 9.3066 8.4453-1.6974 1.7522-3.9582 2.9062-6.5156 2.9062-5.0946 0-9.1992-4.1116-9.1992-9.1992 0-5.0946 4.1115-9.1992 9.1992-9.1992z" color="#000000" color-rendering="auto" dominant-baseline="auto" fill="#1e1e1e" image-rendering="auto" shape-rendering="auto" solid-color="#000000" stop-color="#000000" style="font-feature-settings:normal;font-variant-alternates:normal;font-variant-caps:normal;font-variant-east-asian:normal;font-variant-ligatures:normal;font-variant-numeric:normal;font-variant-position:normal;font-variation-settings:normal;inline-size:0;isolation:auto;mix-blend-mode:normal;shape-margin:0;shape-padding:0;text-decoration-color:#000000;text-decoration-line:none;text-decoration-style:solid;text-indent:0;text-orientation:mixed;text-transform:none;white-space:normal"/>
</svg>
