<?xml version="1.0" encoding="utf-8"?>
<!-- Generator: Adobe Illustrator 17.1.0, SVG Export Plug-In . SVG Version: 6.00 Build 0)  -->
<svg version="1.2" baseProfile="tiny"
	 xmlns="http://www.w3.org/2000/svg" xmlns:xlink="http://www.w3.org/1999/xlink" x="0px" y="0px" viewBox="0 0 247.8 264"
	 xml:space="preserve">
<g>
	<polygon fill="#1D1D1B" points="33.5,235.9 33.5,227.1 0.9,227.1 0.9,237.5 16.4,237.5 0,255.5 0,264 34.7,264 34.7,253.6 
		16.8,253.6 	"/>
	<path fill="#1D1D1B" d="M56.8,226.2c-5.9,0-10.6,1.9-14.1,5.6c-3.6,3.7-5.4,8.3-5.4,13.8c0,5.9,2,10.6,6,14.1
		c4,3.5,8.9,5.2,14.6,5.2c6.3,0,11.2-1.3,14.7-3.8v-9.9c-3.8,2.1-7.8,3.2-11.8,3.2c-5.3,0-9.7-1.9-10.7-5.7h24.7v-3.2
		c0-5.7-1.7-10.3-5-13.9C66.3,228,62,226.2,56.8,226.2z M49.8,241.8c0.5-3.8,3-6.2,6.4-6.2c3.1,0,5.7,2.5,5.8,6.2H49.8z"/>
	<path fill="#1D1D1B" d="M104.7,226.2c-4.3,0-8,1.7-11.2,5.1v-4.1H80.7V264h12.8v-23.1c1.6-2.2,3.6-3.3,6.2-3.3c3,0,5.3,1.7,5.3,6.1
		V264h12.8v-22.6C117.8,232.1,112.9,226.2,104.7,226.2z"/>
	<path fill="#1D1D1B" d="M148.4,226.8c-4.9,0-8.9,1.7-12.1,5.3v-4.4h-10.2V264h10.2v-23.1c1.7-2.7,5-4.7,8.2-4.7
		c3.8,0,6.9,2.1,6.9,7.7V264h10.2v-22.2C161.6,232.5,156.9,226.8,148.4,226.8z"/>
	<path fill="#1D1D1B" d="M191.7,227.4c-5.2,0-9.6,1.9-13.1,5.7v-4.7h-7.8V264h7.8v-23.4c2-3.3,6.1-5.8,10.1-5.8
		c4.6,0,8.3,2.2,8.3,9.2v20h7.8v-21.8C205,233,200.2,227.4,191.7,227.4z"/>
	<path fill="#1D1D1B" d="M234.1,228.1c-5.7,0-10.3,2.1-14,6.2v-5.4h-5.2v35h5.2v-23.7c1.2-2,2.9-3.6,5.2-5.1c2.3-1.5,4.6-2.2,7-2.2
		c4.3,0,9.9,1.6,9.9,10.8V264h5.2v-21.3C247.5,233.4,242.8,228.1,234.1,228.1z"/>
	<path fill="#1D1D1B" d="M204.3,81.1c0-44.4-36.2-80.6-80.6-80.6S43.1,36.6,43.1,81.1c0,44.4,36.2,80.6,80.6,80.6
		S204.3,125.5,204.3,81.1z M123.7,156.6c-41.7,0-75.6-33.8-75.6-75.6c0-41.7,33.8-75.6,75.6-75.6c41.7,0,75.6,33.8,75.6,75.6
		C199.3,122.8,165.5,156.6,123.7,156.6z"/>
	<path fill="#1D1D1B" d="M123.7,14.6c-36.7,0-66.5,29.8-66.5,66.5c0,36.7,29.8,66.5,66.5,66.5s66.5-29.8,66.5-66.5
		C190.2,44.3,160.5,14.6,123.7,14.6z M123.7,101.1c-11,0-20-8.9-20-20c0-11,8.9-20,20-20c11,0,20,8.9,20,20
		C143.7,92.1,134.8,101.1,123.7,101.1z"/>
</g>
</svg>
