<svg width="28" height="20" viewBox="0 0 28 20" fill="none" xmlns="http://www.w3.org/2000/svg">
<path fill-rule="evenodd" clip-rule="evenodd" d="M26.7083 16.6667C27.052 16.6667 27.3333 16.9479 27.3333 17.2917V19.375C27.3333 19.7188 27.052 20 26.7083 20H1.29163C0.947876 20 0.666626 19.7188 0.666626 19.375V0.625C0.666626 0.28125 0.947876 0 1.29163 0H3.37496C3.71871 0 3.99996 0.28125 3.99996 0.625V16.6667H26.7083ZM10.6666 14.375V10.625C10.6666 10.2812 10.3854 10 10.0416 10H7.95829C7.61454 10 7.33329 10.2812 7.33329 10.625V14.375C7.33329 14.7188 7.61454 15 7.95829 15H10.0416C10.3854 15 10.6666 14.7188 10.6666 14.375ZM20.6666 7.29167V14.375C20.6666 14.7188 20.3854 15 20.0416 15H17.9583C17.6145 15 17.3333 14.7188 17.3333 14.375V7.29167C17.3333 6.94792 17.6145 6.66667 17.9583 6.66667H20.0416C20.3854 6.66667 20.6666 6.94792 20.6666 7.29167ZM15.6666 14.375V3.95833C15.6666 3.61458 15.3854 3.33333 15.0416 3.33333H12.9583C12.6145 3.33333 12.3333 3.61458 12.3333 3.95833V14.375C12.3333 14.7188 12.6145 15 12.9583 15H15.0416C15.3854 15 15.6666 14.7188 15.6666 14.375ZM25.6666 2.29167V14.375C25.6666 14.7188 25.3854 15 25.0416 15H22.9583C22.6145 15 22.3333 14.7188 22.3333 14.375V2.29167C22.3333 1.94792 22.6145 1.66667 22.9583 1.66667H25.0416C25.3854 1.66667 25.6666 1.94792 25.6666 2.29167Z" fill="#aaaaaa"/>
</svg>
