<svg width="28" height="20" viewBox="0 0 28 20" fill="none" xmlns="http://www.w3.org/2000/svg">
<path d="M23.0661 8.77341C23.2386 8.32658 23.3334 7.84108 23.3334 7.33342C23.3334 5.12429 21.5425 3.33341 19.3334 3.33341C18.5114 3.33341 17.7474 3.5815 17.1119 4.00671C15.9602 2.01041 13.8037 0.666748 11.3334 0.666748C7.6515 0.666748 4.66675 3.6515 4.66675 7.33342C4.66675 7.44708 4.66966 7.56004 4.67525 7.67229C2.34054 8.49362 0.666748 10.7179 0.666748 13.3334C0.666748 16.6471 3.35304 19.3334 6.66675 19.3334H22.0001C24.9456 19.3334 27.3334 16.9456 27.3334 14.0001C27.3334 11.4197 25.5008 9.26733 23.0661 8.77341Z" fill="#aaaaaa"/>
</svg>
