<svg width="200" height="332" viewBox="0 0 200 332" fill="none" xmlns="http://www.w3.org/2000/svg">
  <path d="M151.142 232.287C151.142 223.282 148.665 216.042 143.534 210.745C138.579 205.271 130.085 200.327 118.053 195.912C106.02 191.498 95.5805 186.907 86.91 182.493C78.2395 177.902 70.6307 172.781 64.4375 167.131C58.2443 161.304 53.4667 154.417 49.9277 146.648C46.5657 138.878 44.7962 129.52 44.7962 118.749C44.7962 100.208 50.8124 84.8462 62.668 73.0156C74.5236 61.185 90.4489 54.122 110.09 52.1797V16.8645H136.633V52.7094C156.097 55.5346 171.491 63.6571 182.462 77.0768C193.433 90.4966 199.095 107.978 199.095 129.52H151.319C151.319 116.277 148.488 106.388 143.003 100.032C137.517 93.4984 130.262 90.1435 121.238 90.1435C112.214 90.1435 105.136 92.7921 100.181 97.9128C95.2266 103.033 92.7493 110.097 92.7493 119.102C92.7493 127.401 95.2266 134.111 100.004 139.232C104.782 144.352 113.806 149.473 126.9 154.77C140.172 160.067 150.965 165.012 159.459 169.779C167.952 174.37 175.207 179.667 181.047 185.671C186.886 191.498 191.31 198.208 194.495 205.801C197.503 213.217 199.095 222.046 199.095 232.11C199.095 250.827 193.256 266.013 181.578 277.667C169.899 289.321 153.797 296.207 133.271 298.326V331.169H106.728V298.326C84.0788 295.854 66.5609 287.908 54.1745 274.312C41.7881 260.716 35.5948 242.528 35.5948 219.927H83.371C83.371 232.993 86.3791 243.058 92.5723 250.121C98.9425 257.008 107.79 260.539 119.469 260.539C129.201 260.539 136.81 258.067 142.472 252.946C148.311 247.826 151.142 240.939 151.142 232.287Z" stroke="#F2F2F2" stroke-miterlimit="10"/>
  <path d="M193.964 127.224H146.188C146.188 113.981 143.357 104.093 137.871 97.7363C132.386 91.2029 125.131 87.848 116.106 87.848C107.082 87.848 100.004 90.4966 95.0495 95.6173C90.095 100.738 87.6177 107.801 87.6177 116.806C87.6177 125.106 90.095 131.815 94.8726 136.936C99.6502 142.057 108.675 147.178 121.769 152.475C135.04 157.772 145.834 162.716 154.327 167.484C162.821 172.075 170.076 177.372 175.915 183.376C181.754 189.203 186.178 195.913 189.363 203.505C192.371 210.922 193.964 219.75 193.964 229.815C193.964 248.532 188.125 263.718 176.446 275.372C164.767 287.026 148.665 293.912 128.139 296.031V328.875H101.774V296.208C79.1241 293.736 61.6062 285.79 49.2198 272.194C36.8334 258.597 30.6402 240.41 30.6402 217.808H78.4164C78.4164 230.875 81.4245 240.94 87.6177 248.003C93.9878 254.889 102.835 258.421 114.514 258.421C124.246 258.421 131.855 255.949 137.517 250.828C143.18 245.707 146.011 238.644 146.011 229.992C146.011 220.986 143.533 213.747 138.402 208.45C133.447 202.976 124.954 198.032 112.921 193.617C100.889 189.203 90.4489 184.612 81.7784 180.197C73.1079 175.606 65.4991 170.486 59.3059 164.835C53.1127 159.008 48.3351 152.122 44.7961 144.352C41.4341 136.583 39.6646 127.224 39.6646 116.453C39.6646 97.9128 45.6808 82.5507 57.5364 70.7201C69.392 58.8895 85.3173 51.8264 104.959 49.8841V14.5688H131.501V50.4138C150.965 53.239 166.36 61.3616 177.331 74.7813C188.478 88.3777 193.964 105.682 193.964 127.224Z" stroke="#F2F2F2" stroke-miterlimit="10"/>
  <path d="M189.186 124.929H141.41C141.41 111.686 138.579 101.798 133.094 95.441C127.608 88.9077 120.353 85.5527 111.329 85.5527C102.304 85.5527 95.2265 88.2014 90.272 93.3221C85.3174 98.4428 82.8401 105.506 82.8401 114.511C82.8401 122.81 85.3174 129.52 90.095 134.641C94.8726 139.585 103.897 144.706 116.991 150.003C130.262 155.3 141.056 160.244 149.55 165.012C158.043 169.603 165.298 174.9 171.138 180.904C176.977 186.731 181.401 193.441 184.586 201.033C187.594 208.45 189.186 217.278 189.186 227.343C189.186 246.06 183.347 261.246 171.668 272.9C159.99 284.554 143.887 291.44 123.361 293.559V326.402H96.996V293.736C74.3466 291.264 56.8287 283.318 44.4423 269.721C32.0559 256.125 25.8627 237.938 25.8627 215.336H73.6388C73.6388 228.403 76.6469 238.468 82.8401 245.531C89.2103 252.417 98.0577 255.949 109.736 255.949C119.469 255.949 127.077 253.476 132.74 248.356C138.402 243.235 141.233 236.172 141.233 227.52C141.233 218.514 138.756 211.275 133.624 205.978C128.67 200.504 120.176 195.56 108.144 191.145C96.1113 186.554 85.6713 182.14 77.0008 177.725C68.3304 173.134 60.7216 168.014 54.5284 162.363C48.3352 156.536 43.5575 149.65 40.0186 141.88C36.6565 134.111 34.8871 124.753 34.8871 113.981C34.8871 95.441 40.9033 80.0789 52.7589 68.2483C64.6144 56.4177 80.5398 49.3546 100.181 47.4123V12.2737H126.723V48.1186C146.188 50.9438 161.582 59.0663 172.553 72.4861C183.524 86.0824 189.186 103.387 189.186 124.929Z" stroke="#E0E0E0" stroke-miterlimit="10"/>
  <path d="M184.232 122.633H136.456C136.456 109.39 133.624 99.5019 128.139 93.1451C122.654 86.6118 115.399 83.2569 106.374 83.2569C97.3499 83.2569 90.2719 85.9055 85.3173 91.0262C80.3628 96.1469 77.8855 103.21 77.8855 112.215C77.8855 120.514 80.3628 127.224 85.1404 132.345C89.918 137.466 98.9424 142.586 112.037 147.884C125.308 153.181 136.102 158.125 144.595 162.893C153.089 167.484 160.344 172.781 166.183 178.785C172.022 184.612 176.446 191.321 179.631 198.914C182.639 206.33 184.232 215.159 184.232 225.224C184.232 243.941 178.392 259.127 166.714 270.781C155.035 282.435 138.933 289.321 118.407 291.44V324.283H92.0414V291.617C69.392 289.145 51.874 281.199 39.4876 267.602C27.1012 254.006 20.908 235.819 20.908 213.217H68.6842C68.6842 226.283 71.6923 236.348 77.8855 243.411C84.2557 250.298 93.1031 253.829 104.782 253.829C114.514 253.829 122.123 251.357 127.785 246.237C133.447 241.116 136.279 234.053 136.279 225.401C136.279 216.395 133.801 209.156 128.67 203.858C123.715 198.384 115.222 193.44 103.189 189.026C91.1567 184.612 80.7167 180.021 72.0462 175.606C63.3757 171.015 55.7669 165.894 49.5737 160.244C43.3805 154.417 38.6029 147.531 35.0639 139.761C31.7019 131.992 29.9324 122.633 29.9324 111.862C29.9324 93.3217 35.9487 77.9596 47.8042 66.129C59.6598 54.2984 75.5852 47.2353 95.2265 45.293V9.97778H121.769V45.8227C141.233 48.6479 156.628 56.7704 167.599 70.1902C178.746 83.7866 184.232 101.091 184.232 122.633Z" stroke="#E0E0E0" stroke-miterlimit="10"/>
  <path d="M179.277 120.338H131.501C131.501 107.095 128.67 97.2064 123.184 90.8497C117.699 84.3164 110.444 80.9614 101.42 80.9614C92.3953 80.9614 85.3173 83.6101 80.3628 88.7308C75.4082 93.8515 72.9309 100.915 72.9309 109.92C72.9309 118.219 75.4082 124.929 80.1858 130.05C84.9634 135.17 93.9878 140.291 107.082 145.588C120.353 150.886 131.147 155.83 139.641 160.597C148.134 165.188 155.389 170.486 161.228 176.489C167.068 182.316 171.491 189.026 174.676 196.619C177.685 204.035 179.277 212.864 179.277 222.929C179.277 241.646 173.438 256.831 161.759 268.485C150.081 280.139 133.978 287.026 113.452 289.145V321.988H87.0868V289.321C64.4374 286.849 46.9195 278.903 34.533 265.307C22.1466 251.711 15.9534 233.523 15.9534 210.921H63.7296C63.7296 223.988 66.7377 234.053 72.9309 241.116C79.3011 248.002 88.1485 251.534 99.8271 251.534C109.559 251.534 117.168 249.062 122.83 243.941C128.493 238.82 131.324 231.757 131.324 223.105C131.324 214.1 128.847 206.86 123.715 201.563C118.761 196.089 110.267 191.145 98.2346 186.731C86.2021 182.316 75.7621 177.725 67.0916 173.311C58.4211 168.72 50.8123 163.599 44.6191 157.949C38.4259 152.122 33.6483 145.235 30.1093 137.466C26.7473 129.696 24.9778 120.338 24.9778 109.567C24.9778 91.0263 30.9941 75.6642 42.8496 63.8336C54.7052 52.003 70.6306 44.9399 90.2719 42.9976V7.68237H116.814V43.5273C136.279 46.3525 151.673 54.475 162.644 67.8948C173.792 81.4912 179.277 98.7956 179.277 120.338Z" stroke="#BDBDBD" stroke-miterlimit="10"/>
  <path d="M174.323 118.042H126.547C126.547 104.799 123.715 94.911 118.23 88.5543C112.745 82.021 105.49 78.666 96.4653 78.666C87.4409 78.666 80.363 81.3147 75.4084 86.4354C70.4539 91.5561 67.9766 98.6191 67.9766 107.624C67.9766 115.924 70.4539 122.633 75.2315 127.754C80.0091 132.875 89.0335 137.996 102.128 143.293C115.399 148.59 126.193 153.534 134.686 158.302C143.18 162.893 150.435 168.19 156.274 174.194C162.113 180.021 166.537 186.731 169.722 194.323C172.73 201.739 174.323 210.568 174.323 220.633C174.323 239.35 168.483 254.536 156.805 266.19C145.126 277.844 129.024 284.73 108.498 286.849V319.516H82.1325V286.849C59.483 284.377 41.9651 276.431 29.5787 262.835C17.1923 249.238 10.9991 231.051 10.9991 208.449H58.7752C58.7752 221.516 61.7834 231.581 67.9766 238.644C74.3467 245.53 83.1942 249.062 94.8728 249.062C104.605 249.062 112.214 246.59 117.876 241.469C123.538 236.348 126.37 229.285 126.37 220.633C126.37 211.628 123.892 204.388 118.761 199.091C113.806 193.617 105.313 188.673 93.2802 184.258C81.2477 179.667 70.8077 175.253 62.1373 170.839C53.4668 166.248 45.858 161.127 39.6648 155.477C33.4716 149.65 28.694 142.763 25.155 134.994C21.793 127.224 20.0235 117.866 20.0235 107.095C20.0235 88.5543 26.0397 73.1922 37.8953 61.3616C49.7509 49.531 65.6762 42.468 85.3175 40.5256V5.21045H111.86V41.0554C131.324 43.8806 146.719 52.0031 157.69 65.4228C168.837 79.1958 174.323 96.5002 174.323 118.042Z" stroke="#BDBDBD" stroke-miterlimit="10"/>
  <path d="M169.368 115.747H121.592C121.592 102.504 118.761 92.6156 113.275 86.2589C107.79 79.7256 100.535 76.3706 91.5106 76.3706C82.4863 76.3706 75.4083 79.0193 70.4538 84.14C65.4992 89.2607 63.0219 96.3237 63.0219 105.329C63.0219 113.628 65.4992 120.338 70.2768 125.459C75.0544 130.579 84.0788 135.7 97.173 140.997C110.444 146.295 121.238 151.239 129.732 156.006C138.225 160.597 145.48 165.895 151.319 171.898C157.159 177.725 161.582 184.435 164.767 192.028C167.776 199.444 169.368 208.273 169.368 218.338C169.368 237.055 163.529 252.24 151.85 263.894C140.172 275.548 124.069 282.435 103.543 284.554V317.397H77.1778V284.73C54.5284 282.258 37.0105 274.312 24.624 260.716C12.2376 247.12 6.04443 228.932 6.04443 206.331H53.8206C53.8206 219.397 56.8287 229.462 63.0219 236.525C69.3921 243.412 78.2395 246.943 89.9181 246.943C99.6503 246.943 107.259 244.471 112.921 239.35C118.584 234.23 121.415 227.167 121.415 218.514C121.415 209.509 118.938 202.269 113.806 196.972C108.852 191.498 100.358 186.554 88.3256 182.14C76.2931 177.725 65.8531 173.134 57.1826 168.72C48.5121 164.129 40.9033 159.008 34.7101 153.358C28.5169 147.531 23.7393 140.644 20.2003 132.875C16.8383 125.106 15.0688 115.747 15.0688 104.976C15.0688 86.4355 21.0851 71.0733 32.9406 59.2427C44.7962 47.4121 60.7216 40.3491 80.3629 38.4068V3.09155H106.905V38.9365C126.37 41.7617 141.764 49.8842 152.735 63.304C163.883 76.9004 169.368 94.2048 169.368 115.747Z" stroke="#828282" stroke-miterlimit="10"/>
  <path d="M116.637 216.219C116.637 207.214 114.16 199.974 109.029 194.677C104.074 189.203 95.5804 184.259 83.5479 179.844C71.5154 175.43 61.0754 170.839 52.405 166.424C43.7345 161.833 36.1257 156.713 29.9325 151.062C23.7393 145.235 18.9617 138.349 15.4227 130.579C12.0607 122.81 10.2912 113.452 10.2912 102.68C10.1142 84.1399 16.1305 68.7777 27.986 56.9471C39.8416 45.1165 55.767 38.0535 75.4083 36.1111V0.795898H101.951V36.6409C121.415 39.4661 136.809 47.5886 147.78 61.0084C158.751 74.4282 164.413 91.9092 164.413 113.452H116.637C116.637 100.208 113.806 90.32 108.321 83.9633C102.835 77.43 95.5804 74.075 86.556 74.075C77.5317 74.075 70.4537 76.7237 65.4992 81.8444C60.5446 86.9651 58.0673 94.0281 58.0673 103.034C58.0673 111.333 60.5446 118.043 65.3222 123.163C70.0998 128.284 79.1242 133.405 92.2184 138.702C105.49 143.999 116.283 148.943 124.777 153.711C133.27 158.302 140.525 163.599 146.365 169.603C152.204 175.43 156.628 182.14 159.813 189.732C162.821 197.149 164.413 205.977 164.413 216.042C164.413 234.759 158.574 249.945 146.896 261.599C135.217 273.253 119.115 280.139 98.5885 282.258V315.102H72.2232V282.435C49.5738 279.786 32.0559 271.84 19.6695 258.244C7.28305 244.648 1.08984 226.46 1.08984 203.859H48.866C48.866 216.925 51.8741 226.99 58.0673 234.053C64.4375 240.94 73.2849 244.471 84.9635 244.471C94.6957 244.471 102.304 241.999 107.967 236.878C113.806 231.758 116.637 224.871 116.637 216.219Z" stroke="#828282" stroke-miterlimit="10"/>
</svg>
