<svg width="69" height="68" viewBox="0 0 69 68" fill="none" xmlns="http://www.w3.org/2000/svg">
  <circle cx="34.0898" cy="34" r="34" fill="#F2F2F2"/>
  <path d="M23.6741 40.6187L24.8193 41.1095C25.7649 41.5139 26.8496 41.5139 27.7961 41.1092L28.9404 40.619C29.4519 40.4 29.9519 40.1506 30.4368 39.8753C31.108 44.7837 34.4555 49.136 39.239 51.1831L40.3841 51.6739C41.3295 52.078 42.4144 52.0783 43.3607 51.6736L44.5053 51.1834C49.8268 48.906 53.4326 43.7019 53.4326 38.0056V28.8516C53.4326 27.6033 52.4158 26.5878 51.1658 26.5878H37.8677V18.2872C37.8677 17.0389 36.8509 16.0234 35.601 16.0234H17.0139C15.7639 16.0234 14.7471 17.0389 14.7471 18.2872V27.4412C14.7471 33.1449 18.36 38.3446 23.6741 40.6187ZM51.9214 28.8516V38.0056C51.9214 43.0072 48.702 47.7455 43.91 49.7962L42.7657 50.2867C42.1981 50.5293 41.5467 50.5293 40.9794 50.2867L39.8343 49.7962C35.3073 47.8587 32.2142 43.635 31.8588 38.9586C32.932 38.1774 33.8806 37.2719 34.6893 36.273C35.3681 36.8401 36.2243 37.1522 37.1121 37.1522C38.0333 37.1522 38.9211 36.8171 39.6114 36.209C39.9243 35.9331 39.9541 35.4565 39.6781 35.1437C39.4019 34.8313 38.9243 34.8015 38.6115 35.0774C38.1974 35.442 37.665 35.643 37.1121 35.643C36.5593 35.643 36.0269 35.4423 35.6128 35.0774C35.6019 35.0674 35.5901 35.0591 35.5786 35.05C36.9333 32.9692 37.7302 30.5775 37.8503 28.097H51.1658C51.5826 28.097 51.9214 28.4354 51.9214 28.8516ZM16.2583 18.2872C16.2583 17.871 16.5971 17.5326 17.0139 17.5326H35.601C36.0177 17.5326 36.3566 17.871 36.3566 18.2872V27.4412C36.3566 32.5943 33.0689 37.2106 28.3451 39.2318L27.2008 39.7223C26.633 39.9649 25.9816 39.9649 25.4146 39.7223L24.2694 39.2318C19.4777 37.1811 16.2583 32.4428 16.2583 27.4412V18.2872Z" fill="#1D1D1B" stroke="#1D1D1B" stroke-width="0.8"/>
  <path d="M30.8409 28.248H21.774C21.3567 28.248 21.0184 28.5859 21.0184 29.0027C21.0184 31.9153 23.3911 34.2849 26.3074 34.2849C29.2238 34.2849 31.5964 31.9153 31.5964 29.0027C31.5964 28.5859 31.2582 28.248 30.8409 28.248ZM26.3074 32.7757C24.4831 32.7757 22.9567 31.4766 22.6054 29.7564H30.0094C29.6582 31.4764 28.1317 32.7757 26.3074 32.7757Z" fill="#1D1D1B" stroke="#1D1D1B" stroke-width="0.8"/>
  <path d="M21.774 23.7207C22.3268 23.7207 22.8592 23.9217 23.2733 24.2866C23.5868 24.5628 24.0643 24.5316 24.34 24.22C24.616 23.9076 24.5861 23.4306 24.2733 23.155C23.5829 22.5466 22.6951 22.2114 21.774 22.2114C20.8528 22.2114 19.9653 22.5466 19.275 23.155C18.9621 23.4306 18.9323 23.9076 19.2083 24.22C19.4842 24.5325 19.9618 24.5623 20.2746 24.2866C20.6887 23.9217 21.2212 23.7207 21.774 23.7207Z" fill="#1D1D1B" stroke="#1D1D1B" stroke-width="0.8"/>
  <path d="M28.3419 23.1546C28.0287 23.4305 27.9989 23.9071 28.2752 24.2198C28.5511 24.5323 29.0287 24.5621 29.3415 24.2862C29.7556 23.9216 30.2881 23.7205 30.8409 23.7205C31.3937 23.7205 31.9261 23.9213 32.3402 24.2862C32.654 24.5626 33.1315 24.5314 33.4069 24.2198C33.6829 23.9071 33.653 23.4305 33.3402 23.1546C32.6498 22.5463 31.762 22.2114 30.8409 22.2114C29.9197 22.2114 29.0322 22.5463 28.3419 23.1546Z" fill="#1D1D1B" stroke="#1D1D1B" stroke-width="0.8"/>
  <path d="M36.5833 45.4529C36.5833 45.8697 36.9215 46.2075 37.3388 46.2075H46.4057C46.823 46.2075 47.1613 45.8697 47.1613 45.4529C47.1613 42.5404 44.7886 40.1709 41.8723 40.1709C38.9559 40.1709 36.5833 42.5404 36.5833 45.4529ZM41.8723 41.6801C43.6965 41.6801 45.2233 42.9785 45.5743 44.6984H38.1702C38.5212 42.9785 40.048 41.6801 41.8723 41.6801Z" fill="#1D1D1B" stroke="#1D1D1B" stroke-width="0.8"/>
  <path d="M47.9049 35.0774C47.4909 35.4423 46.9584 35.6433 46.4056 35.6433C45.8528 35.6433 45.3204 35.4423 44.9063 35.0774C44.5934 34.8018 44.1159 34.8315 43.8399 35.144C43.5637 35.4565 43.5935 35.9334 43.9066 36.209C44.597 36.8174 45.4845 37.1526 46.4056 37.1526C47.3268 37.1526 48.2143 36.8174 48.9046 36.209C49.2178 35.9334 49.2476 35.4565 48.9713 35.144C48.6953 34.8315 48.2178 34.8018 47.9049 35.0774Z" fill="#1D1D1B" stroke="#1D1D1B" stroke-width="0.8"/>
</svg>
