<svg width="69" height="69" viewBox="0 0 69 69" fill="none" xmlns="http://www.w3.org/2000/svg">
  <circle cx="34.3213" cy="34.2227" r="34" fill="#F2F2F2"/>
  <path d="M42.5498 28.0168V23.4513L31.5784 28.0168V23.4513H27.4641V17.0597H24.7213V23.4513H21.9784V12.4941H19.2355V23.4513H15.1213V46.45H53.5212V23.4512L42.5498 28.0168ZM30.207 43.7106H27.4642V40.9713H30.207V43.7106ZM35.6927 43.7106H32.9499V40.9713H35.6927V43.7106ZM41.1784 43.7106H38.4356V40.9713H41.1784V43.7106ZM50.7784 43.7106H43.9212V38.232H24.7213V43.7106H17.8641V26.1906H28.8355V28.0168V32.1257L32.6334 30.5453L39.807 27.5602V28.0168V32.1257L43.6048 30.5453L50.7784 27.5602V43.7106Z" fill="#1D1D1B"/>
</svg>
