<svg width="26" height="26" viewBox="0 0 26 26" fill="none" xmlns="http://www.w3.org/2000/svg">
<path fill-rule="evenodd" clip-rule="evenodd" d="M13.0343 0.0836686C14.9589 2.13981 16.1305 5.20409 16.6867 7.99992H9.31315C9.86825 5.2094 11.0378 2.1432 12.9655 0.0836686L12.9827 0.0834603L12.9999 0.083252L13.0171 0.0834603L13.0343 0.0836686ZM24.9129 7.99992H18.3824C17.8838 5.31278 16.916 2.54132 15.3411 0.295492C19.6733 1.08872 23.25 4.04284 24.9129 7.99992ZM18.6361 9.66659H25.4814C25.7647 10.7301 25.9165 11.8472 25.9165 12.9999C25.9165 14.1526 25.7647 15.2698 25.4814 16.3333H18.6361C18.9046 14.0911 18.8934 11.8152 18.6361 9.66659ZM9.31315 17.9999C9.86929 20.7958 11.0409 23.86 12.9655 25.9162L12.9794 25.9163L12.9999 25.9166L13.0171 25.9164L13.0343 25.9162C14.9621 23.8566 16.1316 20.7904 16.6867 17.9999H9.31315ZM16.9579 9.66659H9.0419C8.76382 11.8496 8.76351 14.1477 9.0419 16.3333H16.958C17.2361 14.1502 17.2364 11.8522 16.9579 9.66659ZM1.08695 17.9999H7.61742C8.11586 20.6861 9.08341 23.4577 10.6587 25.7043C6.32653 24.9111 2.74976 21.957 1.08695 17.9999ZM18.3824 17.9999C17.8837 20.6877 16.9156 23.459 15.3411 25.7043C19.6733 24.9111 23.25 21.957 24.9128 17.9999H18.3824ZM0.518408 9.66659C0.235075 10.7301 0.083252 11.8472 0.083252 12.9999C0.083252 14.1526 0.235075 15.2698 0.518408 16.3333H7.36372C7.10648 14.1846 7.09528 11.9087 7.36372 9.66659H0.518408ZM10.6588 0.295492C9.08414 2.54106 8.11612 5.31231 7.61742 7.99992H1.08695C2.74981 4.04284 6.32659 1.08872 10.6588 0.295492Z" fill="#aaaaaa"/>
</svg>
