<svg width="68" height="69" viewBox="0 0 68 69" fill="none" xmlns="http://www.w3.org/2000/svg">
  <circle cx="34" cy="34.9741" r="34" fill="#F2F2F2"/>
  <path d="M39.426 27.7263V25.3777C39.4193 23.9474 38.8457 22.578 37.8306 21.5689C36.8155 20.5599 35.4415 19.9934 34.0093 19.9934C32.5771 19.9934 31.2032 20.5599 30.1881 21.5689C29.173 22.578 28.5994 23.9474 28.5927 25.3777V27.7263C28.5994 29.1566 29.173 30.526 30.1881 31.5351C31.2032 32.5441 32.5771 33.1106 34.0093 33.1106C35.4415 33.1106 36.8155 32.5441 37.8306 31.5351C38.8457 30.526 39.4193 29.1566 39.426 27.7263ZM30.0199 27.7263V25.3777C30.0256 24.3248 30.4485 23.317 31.196 22.5745C31.9436 21.832 32.955 21.4152 34.0093 21.4152C35.0637 21.4152 36.0751 21.832 36.8227 22.5745C37.5702 23.317 37.9931 24.3248 37.9988 25.3777V27.7263C37.9931 28.7792 37.5702 29.787 36.8227 30.5295C36.0751 31.272 35.0637 31.6888 34.0093 31.6888C32.955 31.6888 31.9436 31.272 31.196 30.5295C30.4485 29.787 30.0256 28.7792 30.0199 27.7263Z" fill="#1D1D1B" stroke="#1D1D1B"/>
  <path d="M25.2783 49.9548H42.7405C42.9298 49.9548 43.1113 49.8797 43.2451 49.7461C43.3789 49.6124 43.4541 49.4312 43.4541 49.2421V47.6062H55.4083C55.5975 47.6062 55.779 47.5312 55.9129 47.3975C56.0467 47.2638 56.1219 47.0826 56.1219 46.8935V42.2676C56.1211 40.9103 55.603 39.6041 54.6728 38.6145C53.7426 37.6248 52.4701 37.026 51.1138 36.9395C50.7332 36.9116 50.5375 37.1522 50.3789 37.3455C50.0632 37.7307 49.6636 38.0389 49.2105 38.2466C48.7575 38.4542 48.263 38.5558 47.7647 38.5437C47.2663 38.5315 46.7774 38.4059 46.335 38.1764C45.8927 37.9469 45.5086 37.6196 45.2121 37.2195C45.144 37.1274 45.0546 37.053 44.9516 37.0027C44.8486 36.9524 44.735 36.9276 44.6204 36.9305C43.6934 36.9512 42.7882 37.215 41.9954 37.6953C41.472 37.0875 40.8318 36.5907 40.1127 36.2345C39.3935 35.8783 38.6101 35.6698 37.8089 35.6215C37.4402 35.6065 37.2537 35.83 37.073 36.0491C36.7026 36.5012 36.2337 36.8629 35.7021 37.1066C35.1705 37.3503 34.5901 37.4696 34.0054 37.4553C33.4206 37.441 32.8468 37.2936 32.3277 37.0243C31.8086 36.755 31.358 36.3708 31.0101 35.9012C30.9421 35.809 30.8528 35.7346 30.7497 35.6843C30.6467 35.634 30.533 35.6093 30.4184 35.6123C28.8534 35.6485 27.3652 36.2968 26.2741 37.4178C26.184 37.5099 26.0984 37.6053 26.0151 37.7021C25.2782 37.254 24.4431 36.9922 23.582 36.9392C23.2027 36.9113 23.0057 37.152 22.8471 37.3452C22.5314 37.7305 22.1318 38.0387 21.6788 38.2463C21.2258 38.454 20.7313 38.5556 20.233 38.5434C19.7346 38.5313 19.2457 38.4057 18.8033 38.1762C18.361 37.9467 17.977 37.6194 17.6805 37.2192C17.6122 37.1272 17.5229 37.053 17.4199 37.0027C17.3169 36.9524 17.2034 36.9275 17.0888 36.9302C15.6949 36.9657 14.37 37.5435 13.3966 38.5406C12.4232 39.5377 11.8783 40.8751 11.8781 42.2676V46.8935C11.8781 47.0826 11.9533 47.2638 12.0871 47.3975C12.221 47.5312 12.4025 47.6062 12.5917 47.6062H24.5647V49.2421C24.5647 49.4312 24.6398 49.6124 24.7737 49.7461C24.9075 49.8797 25.089 49.9548 25.2783 49.9548ZM44.3157 38.3784C44.7557 38.8772 45.2966 39.2769 45.9028 39.5514C46.5089 39.8258 47.1665 39.9686 47.832 39.9703C48.4975 39.9721 49.1559 39.8327 49.7635 39.5615C50.371 39.2902 50.9141 38.8933 51.3566 38.3968C52.2846 38.5367 53.1317 39.0041 53.7441 39.7143C54.3565 40.4244 54.6938 41.3304 54.6947 42.2676V46.1808H43.4541V41.6087C43.4549 40.6596 43.2288 39.7241 42.7946 38.8798C43.2609 38.6082 43.7791 38.4374 44.3157 38.3784ZM30.1108 37.0593C30.6042 37.6298 31.2146 38.0878 31.9005 38.4023C32.5865 38.7168 33.3321 38.8805 34.0869 38.8823C34.8417 38.8841 35.5881 38.7239 36.2755 38.4127C36.963 38.1014 37.5755 37.6463 38.0716 37.0782C39.1674 37.2296 40.1713 37.7716 40.8983 38.6042C41.6254 39.4369 42.0264 40.504 42.0274 41.6087V48.5294H25.9919V41.6087C25.999 40.4775 26.4228 39.3885 27.1825 38.5494C27.9422 37.7103 28.9846 37.1799 30.1108 37.0593ZM13.3053 46.1808V42.2676C13.3114 41.3074 13.6682 40.3824 14.3089 39.6663C14.9495 38.9503 15.8299 38.4925 16.7847 38.3789C17.2246 38.8775 17.7655 39.2771 18.3716 39.5514C18.9777 39.8257 19.6351 39.9684 20.3005 39.9701C20.966 39.9718 21.6241 39.8325 22.2316 39.5613C22.8391 39.29 23.382 38.8932 23.8245 38.3968C24.3159 38.4702 24.7886 38.6368 25.2173 38.8876C24.787 39.7303 24.5633 40.6629 24.5647 41.6087V46.1808H13.3053Z" fill="#1D1D1B" stroke="#1D1D1B"/>
  <path d="M52.5959 29.8492V27.7934C52.5959 26.514 52.0871 25.287 51.1812 24.3824C50.2754 23.4777 49.0468 22.9695 47.7657 22.9695C46.4847 22.9695 45.2561 23.4777 44.3503 24.3824C43.4444 25.287 42.9355 26.514 42.9355 27.7934V29.8492C42.9355 31.1285 43.4444 32.3555 44.3503 33.2602C45.2561 34.1649 46.4847 34.6731 47.7657 34.6731C49.0468 34.6731 50.2754 34.1649 51.1812 33.2602C52.0871 32.3555 52.5959 31.1285 52.5959 29.8492ZM44.3628 29.8492V27.7934C44.3628 26.8921 44.7213 26.0276 45.3595 25.3903C45.9977 24.7529 46.8632 24.3949 47.7657 24.3949C48.6683 24.3949 49.5338 24.7529 50.172 25.3903C50.8102 26.0276 51.1687 26.8921 51.1687 27.7934V29.8492C51.1687 30.7505 50.8102 31.615 50.172 32.2523C49.5338 32.8897 48.6683 33.2477 47.7657 33.2477C46.8632 33.2477 45.9977 32.8897 45.3595 32.2523C44.7213 31.615 44.3628 30.7505 44.3628 29.8492Z" fill="#1D1D1B" stroke="#1D1D1B"/>
  <path d="M25.0644 29.8492V27.7934C25.0644 27.1599 24.9395 26.5326 24.6967 25.9474C24.454 25.3621 24.0982 24.8303 23.6497 24.3824C23.2011 23.9344 22.6687 23.5791 22.0826 23.3367C21.4966 23.0943 20.8685 22.9695 20.2342 22.9695C19.5999 22.9695 18.9718 23.0943 18.3858 23.3367C17.7998 23.5791 17.2673 23.9344 16.8188 24.3824C16.3703 24.8303 16.0145 25.3621 15.7717 25.9474C15.529 26.5326 15.4041 27.1599 15.4041 27.7934V29.8492C15.4041 30.4826 15.529 31.1099 15.7717 31.6952C16.0145 32.2805 16.3703 32.8123 16.8188 33.2602C17.2673 33.7081 17.7998 34.0635 18.3858 34.3059C18.9718 34.5483 19.5999 34.6731 20.2342 34.6731C20.8685 34.6731 21.4966 34.5483 22.0826 34.3059C22.6687 34.0635 23.2011 33.7081 23.6497 33.2602C24.0982 32.8123 24.454 32.2805 24.6967 31.6952C24.9395 31.1099 25.0644 30.4826 25.0644 29.8492ZM16.8313 29.8492V27.7934C16.8313 26.8921 17.1898 26.0276 17.828 25.3903C18.4661 24.7529 19.3317 24.3949 20.2342 24.3949C21.1367 24.3949 22.0023 24.7529 22.6405 25.3903C23.2787 26.0276 23.6372 26.8921 23.6372 27.7934V29.8492C23.6372 30.2955 23.5492 30.7374 23.3781 31.1497C23.2071 31.5621 22.9565 31.9367 22.6405 32.2523C22.3245 32.5679 21.9493 32.8182 21.5365 32.989C21.1236 33.1598 20.6811 33.2477 20.2342 33.2477C19.7873 33.2477 19.3448 33.1598 18.932 32.989C18.5191 32.8182 18.144 32.5679 17.828 32.2523C17.512 31.9367 17.2613 31.5621 17.0903 31.1497C16.9193 30.7374 16.8313 30.2955 16.8313 29.8492Z" fill="#1D1D1B" stroke="#1D1D1B"/>
</svg>
