<svg width="24" height="25" viewBox="0 0 24 25" fill="none" xmlns="http://www.w3.org/2000/svg">
<ellipse cx="12" cy="12.6069" rx="12" ry="12" fill="#F2994A"/>
<path d="M12 4.78467C11.0504 4.78467 10.2779 5.55772 10.2779 6.50793C10.2779 7.45728 11.0504 8.22964 12 8.22964C12.9496 8.22964 13.7222 7.45728 13.7222 6.50793C13.7222 5.55772 12.9496 4.78467 12 4.78467Z" fill="white"/>
<path d="M12.0002 10.0949C11.2867 10.0949 10.7083 10.6733 10.7083 11.3868L10.7083 19.138C10.7083 19.8514 11.2867 20.4298 12.0002 20.4298C12.7136 20.4298 13.292 19.8514 13.292 19.138L13.292 11.3868C13.292 10.6733 12.7136 10.0949 12.0002 10.0949Z" fill="white"/>
</svg>
