<svg width="28" height="14" viewBox="0 0 28 14" fill="none" xmlns="http://www.w3.org/2000/svg">
<path fill-rule="evenodd" clip-rule="evenodd" d="M13.3334 13.6666H1.66675C1.11446 13.6666 0.666748 13.2189 0.666748 12.6666V1.33325C0.666748 0.78096 1.11446 0.333252 1.66675 0.333252H13.3334V13.6666ZM8.30532 10.6407C8.3678 10.8537 8.56318 11 8.78512 11H9.73774C10.0802 11 10.3214 10.6634 10.2112 10.3391L7.81724 3.2952C7.74834 3.09244 7.55797 2.95607 7.34382 2.95607H5.99012C5.77597 2.95608 5.58561 3.09245 5.5167 3.2952L3.12274 10.3391C3.01253 10.6634 3.25366 11 3.59616 11H4.54637C4.76943 11 4.96552 10.8522 5.02699 10.6378L5.40691 9.31249H7.9157L8.30532 10.6407ZM7.00446 6.17354C6.85821 5.66733 6.67821 4.78979 6.67821 4.78979H6.65571C6.65571 4.78979 6.47571 5.66729 6.32946 6.17354L5.86821 7.73733H7.45446L7.00446 6.17354ZM26.3334 13.6666H14.6667V0.333252H26.3334C26.8857 0.333252 27.3334 0.78096 27.3334 1.33325V12.6666C27.3334 13.2189 26.8857 13.6666 26.3334 13.6666ZM22.1668 4.16659H24.8334C25.1095 4.16659 25.3334 4.39046 25.3334 4.6665V5.33317C25.3334 5.6093 25.1095 5.83317 24.8334 5.83317H24.3582C24.0688 6.81488 23.4545 7.80921 22.5785 8.74359C22.9275 9.01204 23.2899 9.26262 23.6643 9.49438C23.8937 9.6365 23.9705 9.93388 23.8366 10.1682L23.5056 10.7475C23.3654 10.9928 23.0496 11.0735 22.809 10.9254C22.2828 10.6013 21.7891 10.2537 21.3342 9.88867C20.8812 10.2518 20.3879 10.5995 19.8574 10.9258C19.617 11.0737 19.3014 10.9928 19.1613 10.7476L18.8305 10.1686C18.6963 9.93388 18.7738 9.63613 19.0039 9.49405C19.3898 9.25571 19.7531 9.00496 20.0915 8.74555C19.7629 8.39596 19.4699 8.03734 19.2172 7.67363C19.0523 7.4363 19.1246 7.10859 19.3728 6.96042L19.6435 6.7988L19.9469 6.61771C20.1723 6.48317 20.4617 6.54696 20.6133 6.7613C20.8203 7.05392 21.0635 7.34609 21.3369 7.6335C21.8996 7.04042 22.3269 6.42905 22.5878 5.83325H17.8334C17.5573 5.83325 17.3334 5.60938 17.3334 5.33325V4.66659C17.3334 4.39046 17.5573 4.16659 17.8334 4.16659H20.5001V3.49992C20.5001 3.2238 20.724 2.99992 21.0001 2.99992H21.6668C21.9429 2.99992 22.1668 3.2238 22.1668 3.49992V4.16659Z" fill="#aaaaaa"/>
</svg>
