<svg width="52" height="51" viewBox="0 0 52 51" fill="none" xmlns="http://www.w3.org/2000/svg">
<path d="M30.8831 29.7099C30.8116 29.6957 30.7387 29.6902 30.6659 29.6933C30.5401 29.7 30.417 29.732 30.3038 29.7873C30.0842 29.8933 29.9139 30.0799 29.8285 30.3084C29.7432 30.5368 29.7492 30.7894 29.8455 31.0134L29.8389 31.0228L32.0059 36.2578C34.0789 34.9349 35.6519 32.9588 36.4763 30.6419L30.8925 29.6983L30.8831 29.7099ZM22.1949 30.4518C22.1479 30.2454 22.033 30.0608 21.8686 29.9275C21.7043 29.7942 21.4999 29.7199 21.2883 29.7166C21.2258 29.7158 21.1634 29.7214 21.102 29.7331L21.0926 29.7215L15.5575 30.6613C16.3888 32.9599 17.9553 34.9199 20.0141 36.2373L22.159 31.0543L22.1424 31.0339C22.2216 30.8504 22.24 30.6464 22.1949 30.4518ZM26.8306 32.4844C26.7498 32.3337 26.6295 32.2077 26.4827 32.12C26.3358 32.0323 26.1679 31.9861 25.9969 31.9863C25.8259 31.9866 25.6581 32.0332 25.5115 32.1213C25.3649 32.2094 25.245 32.3357 25.1645 32.4866H25.1601L22.4381 37.4087C24.3871 38.0722 26.4823 38.1799 28.489 37.7199C28.8612 37.6351 29.2248 37.5336 29.5797 37.4153L26.8511 32.4844H26.8306ZM35.4475 21.051L31.2596 24.7989L31.2618 24.8111C31.1332 24.9236 31.0374 25.0688 30.9846 25.2313C30.9318 25.3938 30.9241 25.5676 30.9621 25.7342C31.0001 25.9008 31.0826 26.054 31.2006 26.1775C31.3187 26.301 31.468 26.3902 31.6327 26.4357L31.6377 26.4584L37.0628 28.0211C37.2972 25.5839 36.7301 23.1367 35.4475 21.051ZM27.667 21.4706C27.6749 21.6413 27.7288 21.8067 27.8232 21.9492C27.9175 22.0918 28.0487 22.2061 28.2027 22.2801C28.3568 22.3541 28.5281 22.3849 28.6983 22.3694C28.8685 22.3539 29.0313 22.2926 29.1695 22.192L29.1861 22.1991L33.7687 18.9498C32.0243 17.2412 29.7669 16.153 27.3436 15.8525L27.662 21.4689L27.667 21.4706ZM22.814 22.213C22.9523 22.3135 23.1152 22.3746 23.2854 22.3899C23.4557 22.4052 23.6269 22.374 23.7808 22.2997C23.9347 22.2254 24.0656 22.1108 24.1596 21.968C24.2535 21.8252 24.307 21.6596 24.3143 21.4888L24.3375 21.4777L24.6559 15.8525C24.2716 15.8986 23.8898 15.9643 23.5122 16.0493C21.5035 16.5009 19.661 17.505 18.1927 18.9482L22.8052 22.2179L22.814 22.213ZM20.3552 26.4634C20.5203 26.4183 20.6701 26.3293 20.7886 26.2058C20.907 26.0823 20.9898 25.9289 21.0279 25.7621C21.066 25.5952 21.0581 25.4212 21.0051 25.2585C20.9521 25.0957 20.8558 24.9505 20.7267 24.8382L20.7311 24.8161L16.5199 21.0493C15.2352 23.1404 14.6838 25.6 14.9528 28.0394L20.3508 26.4816L20.3552 26.4634ZM24.4453 28.1179L25.9987 28.8647L27.5476 28.1195L27.9323 26.4474L26.8605 25.1068H25.1352L24.06 26.4451L24.4453 28.1179Z" fill="#404040"/>
<path d="M51.6797 31.4123L47.2529 12.1846C47.1338 11.6872 46.9059 11.2224 46.5855 10.8238C46.265 10.4251 45.8601 10.1026 45.3999 9.87942L27.4817 1.32441C27.0173 1.1028 26.5093 0.987793 25.9947 0.987793C25.4802 0.987793 24.9721 1.1028 24.5077 1.32441L6.59339 9.88384C6.13306 10.1069 5.72801 10.4294 5.40747 10.828C5.08694 11.2267 4.85892 11.6915 4.73988 12.189L0.320306 31.4162C0.211314 31.9021 0.210936 32.4061 0.3192 32.8922C0.351152 33.0403 0.392888 33.1862 0.444132 33.3289C0.530573 33.5722 0.645033 33.8046 0.785204 34.0215C0.846011 34.1144 0.910135 34.2045 0.979787 34.2918L13.38 49.7092C13.4342 49.7761 13.4939 49.8374 13.553 49.8999C13.7476 50.107 13.9673 50.289 14.207 50.4416C14.5102 50.6325 14.8407 50.7762 15.1871 50.8678C15.471 50.9456 15.7639 50.9859 16.0583 50.9878H16.2512L35.9439 50.9834C36.0636 50.9829 36.1832 50.9759 36.3021 50.9624C36.4727 50.943 36.6416 50.9109 36.8073 50.8662C36.9262 50.8349 37.0434 50.7975 37.1584 50.754C37.2479 50.7197 37.3375 50.6854 37.4237 50.644C37.5531 50.582 37.6786 50.5122 37.7996 50.435C38.1116 50.2388 38.3895 49.9929 38.6222 49.707L39.0003 49.2371L51.018 34.2868C51.2483 33.998 51.4293 33.673 51.5536 33.325C51.6055 33.182 51.648 33.0357 51.6808 32.8872C51.7893 32.4011 51.7889 31.8971 51.6797 31.4112V31.4123ZM33.0942 38.8905C33.1445 39.0384 33.2042 39.183 33.2728 39.3233C33.1633 39.5151 33.1335 39.7422 33.1899 39.9557C33.4506 40.5529 33.769 41.1231 34.1407 41.6583C34.3486 41.9319 34.5406 42.2172 34.7156 42.5129C34.7587 42.5931 34.8151 42.7169 34.856 42.8015C34.9333 42.9305 34.9828 43.0743 35.0012 43.2235C35.0196 43.3728 35.0065 43.5243 34.9628 43.6682C34.9192 43.8121 34.8458 43.9453 34.7476 44.0592C34.6493 44.1731 34.5283 44.2651 34.3923 44.3294C34.2564 44.3937 34.1084 44.4288 33.9581 44.4324C33.8077 44.4361 33.6583 44.4082 33.5193 44.3507C33.3804 44.2931 33.2551 44.207 33.1514 44.0981C33.0477 43.9891 32.968 43.8597 32.9173 43.718C32.8764 43.634 32.8195 43.5223 32.7847 43.4433C32.6622 43.1219 32.5582 42.7938 32.4734 42.4604C32.2875 41.8368 32.0411 41.2329 31.7377 40.6572C31.6057 40.4792 31.4093 40.3599 31.1904 40.325C31.1561 40.2659 31.029 40.0331 30.961 39.9126C27.7713 41.1206 24.2484 41.1115 21.0649 39.8872L20.8223 40.3272C20.6491 40.354 20.488 40.4324 20.3601 40.5522C19.9945 41.1523 19.715 41.8008 19.5298 42.4787C19.4458 42.812 19.3424 43.1402 19.2203 43.4615C19.186 43.54 19.1285 43.6506 19.0876 43.7341V43.7363L19.0859 43.7385C19.0354 43.8802 18.9556 44.0098 18.8519 44.1189C18.7481 44.2279 18.6227 44.314 18.4836 44.3716C18.3445 44.4292 18.1949 44.4569 18.0445 44.4531C17.894 44.4493 17.746 44.414 17.61 44.3495C17.474 44.285 17.3531 44.1926 17.255 44.0785C17.1569 43.9643 17.0838 43.8309 17.0405 43.6867C16.9971 43.5426 16.9845 43.3909 17.0034 43.2416C17.0222 43.0923 17.0722 42.9486 17.1501 42.8197C17.1904 42.7346 17.2446 42.6113 17.2871 42.5312C17.4621 42.2347 17.6541 41.9487 17.8621 41.6744C18.2404 41.1251 18.5655 40.5409 18.8328 39.9297C18.8611 39.7226 18.8279 39.5117 18.7371 39.3233L18.9323 38.8557C15.9973 37.1235 13.7976 34.3772 12.7482 31.1348L12.2811 31.2144C12.0998 31.0858 11.8861 31.0105 11.6642 30.9972C11.0248 31.1195 10.3989 31.3037 9.79516 31.5472C9.48163 31.6883 9.1603 31.8114 8.83275 31.9159C8.75536 31.9369 8.64369 31.9585 8.55525 31.9778C8.54806 31.98 8.54198 31.9834 8.53479 31.985C8.5293 31.9859 8.52376 31.9864 8.51821 31.9867C8.37587 32.0335 8.22531 32.0501 8.07617 32.0354C7.92704 32.0207 7.78262 31.975 7.65216 31.9013C7.52171 31.8276 7.40808 31.7274 7.31857 31.6072C7.22906 31.487 7.16564 31.3495 7.13235 31.2034C7.09907 31.0573 7.09667 30.9058 7.1253 30.7587C7.15393 30.6116 7.21296 30.4721 7.29862 30.3491C7.38427 30.2262 7.49466 30.1225 7.62271 30.0446C7.75077 29.9668 7.89367 29.9165 8.04226 29.8971L8.05773 29.8933L8.06713 29.8905C8.15668 29.8695 8.27167 29.8396 8.35348 29.8242C8.69452 29.7768 9.038 29.7491 9.38223 29.7412C10.0316 29.6988 10.6754 29.5931 11.3043 29.4256C11.4907 29.3069 11.6482 29.1481 11.7653 28.9607L12.2142 28.8297C11.727 25.4456 12.5063 22.0007 14.4027 19.1558L14.0588 18.8496C14.0463 18.6271 13.9716 18.4126 13.8433 18.2304C13.3494 17.8059 12.8153 17.4306 12.2485 17.1099C11.9424 16.9539 11.6456 16.7804 11.3596 16.5903C11.2943 16.5417 11.2081 16.4687 11.1373 16.4112L11.1213 16.4002C10.8774 16.2249 10.7127 15.9603 10.6633 15.6641C10.6139 15.3678 10.6838 15.0641 10.8576 14.8192C10.9603 14.6934 11.0913 14.5937 11.2397 14.528C11.3882 14.4623 11.5501 14.4325 11.7122 14.4411C11.9851 14.4528 12.247 14.5516 12.4596 14.723C12.5326 14.7805 12.6326 14.8568 12.6973 14.9126C12.947 15.1487 13.1829 15.399 13.4038 15.6622C13.842 16.1436 14.3261 16.5811 14.8493 16.9684C15.0453 17.0715 15.274 17.0938 15.4862 17.0303C15.5475 17.0757 15.7548 17.2238 15.8731 17.3051C17.7574 15.3022 20.1974 13.9083 22.8797 13.3023C23.5182 13.1577 24.166 13.0582 24.8184 13.0044L24.8438 12.5511C25.0104 12.403 25.1313 12.2105 25.1921 11.9961C25.2155 11.3455 25.1755 10.6942 25.0727 10.0513C25.0044 9.71444 24.9555 9.37392 24.9262 9.03144C24.9234 8.95349 24.9278 8.8457 24.9289 8.7567C24.9289 8.74675 24.9262 8.7368 24.9262 8.72685C24.9109 8.57688 24.9272 8.42536 24.974 8.28208C25.0209 8.1388 25.0973 8.00695 25.1983 7.89504C25.2993 7.78312 25.4227 7.69364 25.5604 7.63237C25.6982 7.5711 25.8472 7.5394 25.998 7.53933C26.1487 7.53925 26.2978 7.57079 26.4356 7.63192C26.5734 7.69305 26.6969 7.7824 26.798 7.89421C26.8991 8.00602 26.9757 8.13779 27.0227 8.28102C27.0697 8.42425 27.0862 8.57576 27.071 8.72574C27.071 8.81972 27.0765 8.94465 27.0732 9.03088C27.0439 9.37322 26.9948 9.71357 26.9262 10.0502C26.8227 10.6932 26.7819 11.3447 26.8046 11.9955C26.847 12.2131 26.9727 12.4056 27.155 12.5317C27.1589 12.6091 27.1716 12.8678 27.181 13.0104C30.571 13.3187 33.7338 14.8469 36.0821 17.3112L36.49 17.0198C36.7093 17.0574 36.9346 17.0329 37.1407 16.9491C37.6638 16.561 38.1479 16.123 38.5862 15.6412C38.8076 15.3778 39.044 15.1275 39.2943 14.8916C39.3601 14.8352 39.4596 14.7595 39.5321 14.702C39.6397 14.5958 39.7684 14.5135 39.9099 14.4604C40.0514 14.4072 40.2025 14.3844 40.3533 14.3934C40.5042 14.4025 40.6515 14.4431 40.7856 14.5128C40.9198 14.5824 41.0378 14.6795 41.132 14.7977C41.2262 14.9159 41.2945 15.0526 41.3324 15.1989C41.3703 15.3452 41.3771 15.4978 41.3522 15.6469C41.3273 15.796 41.2714 15.9382 41.188 16.0642C41.1046 16.1903 40.9956 16.2974 40.8681 16.3786C40.7963 16.4366 40.7012 16.5179 40.6321 16.5693C40.3453 16.7596 40.0478 16.9331 39.741 17.0889C39.1743 17.4098 38.6402 17.7851 38.1462 18.2094C38.0024 18.3779 37.9301 18.5959 37.945 18.817C37.8853 18.8717 37.6758 19.0574 37.5647 19.158C39.4663 21.9927 40.2612 25.4268 39.7985 28.8087L40.2313 28.9347C40.3396 29.1297 40.4997 29.2908 40.694 29.4002C41.3231 29.5677 41.967 29.6736 42.6166 29.7164C42.9606 29.7243 43.3039 29.7518 43.6448 29.7987C43.7349 29.8153 43.8654 29.8512 43.9572 29.8722C44.1056 29.8919 44.2483 29.9423 44.3762 30.0203C44.504 30.0983 44.6142 30.202 44.6996 30.325C44.7851 30.448 44.8439 30.5874 44.8724 30.7344C44.9009 30.8814 44.8984 31.0328 44.8651 31.1788C44.8318 31.3248 44.7683 31.4622 44.6789 31.5823C44.5894 31.7023 44.4759 31.8024 44.3455 31.8761C44.2151 31.9498 44.0709 31.9955 43.9218 32.0103C43.7728 32.025 43.6224 32.0085 43.4801 31.9618L43.4646 31.9596C43.4574 31.9579 43.4508 31.9541 43.4436 31.9524C43.3552 31.9331 43.244 31.9137 43.1667 31.8933C42.8392 31.7881 42.518 31.664 42.2048 31.5218C41.6006 31.2781 40.9741 31.0939 40.3342 30.9718C40.1126 30.9647 39.8971 31.0447 39.7338 31.1945C39.5816 31.1654 39.4289 31.1387 39.2756 31.1144C38.2387 34.3769 36.0388 37.1444 33.0942 38.8905Z" fill="#404040"/>
<path d="M43.9572 29.8722C43.8654 29.8512 43.735 29.8153 43.6454 29.7987C43.3045 29.7516 42.9613 29.7239 42.6172 29.7158C41.9674 29.6733 41.3234 29.5676 40.6941 29.4001C40.4998 29.2908 40.3396 29.1296 40.2314 28.9347L39.7985 28.8087C40.2614 25.4268 39.4667 21.9927 37.5653 19.158C37.6758 19.0574 37.8859 18.8717 37.945 18.8169C37.9302 18.5959 38.0024 18.3779 38.1463 18.2094C38.6402 17.7851 39.1744 17.4098 39.7411 17.0889C40.0479 16.933 40.3454 16.7595 40.6322 16.5693C40.7013 16.5179 40.7958 16.4366 40.8682 16.3786C40.9959 16.2975 41.1052 16.1905 41.1888 16.0644C41.2724 15.9384 41.3286 15.7961 41.3536 15.6469C41.3787 15.4977 41.372 15.3449 41.3342 15.1985C41.2963 15.052 41.228 14.9152 41.1337 14.7968C41.0395 14.6785 40.9213 14.5814 40.7871 14.5117C40.6528 14.442 40.5054 14.4014 40.3543 14.3924C40.2033 14.3835 40.0521 14.4064 39.9105 14.4597C39.769 14.5131 39.6402 14.5956 39.5327 14.702C39.4597 14.7594 39.3602 14.8352 39.295 14.8916C39.0444 15.1275 38.8078 15.3778 38.5863 15.6412C38.148 16.123 37.6638 16.561 37.1407 16.9491C36.9347 17.0329 36.7093 17.0574 36.4901 17.0198L36.0821 17.3111C33.7339 14.8469 30.571 13.3187 27.1811 13.0104C27.1711 12.8678 27.159 12.6096 27.1551 12.5317C26.973 12.4054 26.8474 12.213 26.8052 11.9955C26.7826 11.3447 26.8233 10.6932 26.9268 10.0502C26.995 9.71352 27.0437 9.37317 27.0727 9.03086C27.076 8.94463 27.0711 8.81915 27.0711 8.72572C27.0862 8.57574 27.0698 8.42423 27.0228 8.281C26.9757 8.13777 26.8992 8.006 26.7981 7.89419C26.6969 7.78238 26.5735 7.69303 26.4357 7.6319C26.2979 7.57077 26.1488 7.53923 25.998 7.53931C25.8473 7.53938 25.6982 7.57108 25.5605 7.63235C25.4227 7.69362 25.2994 7.7831 25.1984 7.89502C25.0974 8.00693 25.021 8.13878 24.9741 8.28206C24.9272 8.42534 24.9109 8.57686 24.9262 8.72683C24.9262 8.73678 24.9284 8.74673 24.929 8.75668C24.9279 8.84568 24.9235 8.95347 24.9262 9.03142C24.9556 9.3739 25.0045 9.71442 25.0727 10.0513C25.1755 10.6941 25.2155 11.3455 25.1921 11.996C25.1312 12.2103 25.0104 12.4026 24.8439 12.5505L24.8184 13.0043C24.166 13.0582 23.5182 13.1577 22.8798 13.3023C20.1977 13.9084 17.7579 15.3023 15.8737 17.3051C15.7433 17.2151 15.6141 17.1236 15.4862 17.0303C15.274 17.0937 15.0454 17.0715 14.8494 16.9684C14.3262 16.581 13.8421 16.1436 13.4038 15.6622C13.1831 15.399 12.9474 15.1487 12.6979 14.9126C12.6327 14.8567 12.5326 14.7805 12.4597 14.7224C12.2471 14.551 11.9851 14.4522 11.7123 14.4405C11.5502 14.4319 11.3883 14.4617 11.2398 14.5274C11.0913 14.5931 10.9604 14.6929 10.8577 14.8186C10.6838 15.0635 10.614 15.3672 10.6634 15.6635C10.7128 15.9597 10.8774 16.2244 11.1214 16.3996L11.1379 16.4112C11.2081 16.4687 11.2944 16.5422 11.3596 16.5897C11.6457 16.78 11.9425 16.9537 12.2485 17.1099C12.8153 17.4308 13.3495 17.8063 13.8433 18.231C13.9716 18.413 14.0462 18.6273 14.0589 18.8496L14.4022 19.1564C12.506 22.0013 11.7269 25.4462 12.2142 28.8302L11.7654 28.9607C11.6482 29.1479 11.4907 29.3065 11.3043 29.425C10.6755 29.5928 10.0317 29.6989 9.38227 29.7418C9.03805 29.7496 8.69457 29.7773 8.35353 29.8247C8.27116 29.8396 8.15674 29.8689 8.06718 29.891L8.05779 29.8932L8.04231 29.8977C7.89379 29.9172 7.75098 29.9675 7.62303 30.0454C7.49508 30.1233 7.3848 30.2271 7.29925 30.3501C7.21369 30.473 7.15475 30.6125 7.12619 30.7595C7.09763 30.9066 7.10008 31.058 7.13338 31.204C7.16669 31.3501 7.23012 31.4876 7.31961 31.6077C7.4091 31.7278 7.52268 31.828 7.65308 31.9017C7.78349 31.9754 7.92785 32.0211 8.07692 32.0358C8.226 32.0505 8.3765 32.034 8.51881 31.9872L8.53484 31.985C8.54203 31.9833 8.54811 31.9795 8.5553 31.9784C8.64374 31.9585 8.75486 31.9369 8.8328 31.9159C9.16016 31.8114 9.4813 31.6883 9.79466 31.5472C10.3985 31.3037 11.0247 31.1195 11.6642 30.9972C11.886 31.0107 12.0995 31.0862 12.2806 31.215L12.7482 31.1348C13.7976 34.3772 15.9973 37.1235 18.9323 38.8556L18.7372 39.3233C18.8279 39.5117 18.8612 39.7226 18.8328 39.9297C18.5655 40.5406 18.2404 41.1247 17.8621 41.6738C17.6541 41.9481 17.4622 42.2342 17.2872 42.5306C17.2446 42.6113 17.1905 42.7351 17.1496 42.8197C17.0721 42.9486 17.0225 43.0922 17.004 43.2413C16.9854 43.3905 16.9983 43.5419 17.0417 43.6858C17.0852 43.8296 17.1583 43.9628 17.2563 44.0768C17.3544 44.1907 17.4752 44.2828 17.611 44.3473C17.7468 44.4117 17.8946 44.447 18.0448 44.4508C18.1951 44.4547 18.3445 44.4271 18.4834 44.3698C18.6223 44.3124 18.7477 44.2266 18.8515 44.1179C18.9553 44.0092 19.0352 43.8799 19.086 43.7385L19.0876 43.7363V43.734C19.1285 43.65 19.186 43.54 19.2203 43.4615C19.3425 43.1402 19.4458 42.812 19.5299 42.4786C19.715 41.8008 19.9945 41.1523 20.3602 40.5522C20.488 40.4322 20.6491 40.3536 20.8223 40.3266L21.0655 39.8872C24.2489 41.1112 27.7716 41.12 30.9611 39.912C31.0291 40.0336 31.1562 40.2658 31.1899 40.3244C31.4088 40.3595 31.6053 40.479 31.7372 40.6572C32.0408 41.2328 32.2874 41.8368 32.4735 42.4604C32.5583 42.7937 32.6622 43.1219 32.7847 43.4433C32.8195 43.5223 32.8765 43.634 32.9174 43.718C32.968 43.8596 33.0477 43.9891 33.1514 44.098C33.2551 44.207 33.3804 44.293 33.5194 44.3506C33.6583 44.4082 33.8078 44.4361 33.9581 44.4324C34.1085 44.4288 34.2564 44.3937 34.3924 44.3294C34.5284 44.2651 34.6494 44.173 34.7476 44.0592C34.8459 43.9453 34.9192 43.8121 34.9629 43.6682C35.0066 43.5243 35.0196 43.3728 35.0012 43.2235C34.9828 43.0743 34.9334 42.9305 34.856 42.8015C34.8151 42.7169 34.7587 42.5931 34.7162 42.5129C34.5412 42.2172 34.3492 41.9319 34.1413 41.6583C33.7696 41.1231 33.4512 40.5528 33.1905 39.9557C33.1339 39.7423 33.1635 39.5152 33.2728 39.3233C33.2042 39.183 33.1446 39.0384 33.0943 38.8905C36.0388 37.1444 38.2388 34.3769 39.2756 31.1144C39.4144 31.1365 39.6559 31.1785 39.7344 31.1945C39.8976 31.0448 40.1129 30.9648 40.3342 30.9717C40.9739 31.0939 41.6003 31.2781 42.2043 31.5218C42.5177 31.664 42.839 31.7881 43.1667 31.8932C43.2441 31.9137 43.3547 31.933 43.4437 31.9524C43.4508 31.9546 43.4575 31.9579 43.4647 31.9596L43.4801 31.9618C43.6224 32.0085 43.7729 32.025 43.9219 32.0102C44.0709 31.9955 44.2152 31.9498 44.3455 31.8761C44.4759 31.8024 44.5894 31.7023 44.6789 31.5822C44.7684 31.4622 44.8318 31.3247 44.8651 31.1787C44.8985 31.0328 44.901 30.8814 44.8725 30.7344C44.844 30.5874 44.7851 30.448 44.6997 30.325C44.6142 30.202 44.5041 30.0982 44.3762 30.0203C44.2484 29.9423 44.1056 29.8919 43.9572 29.8722ZM33.7681 18.9502L29.1855 22.1989L29.1695 22.1917C28.9726 22.3353 28.728 22.3974 28.4865 22.3651C28.245 22.3328 28.0253 22.2085 27.8732 22.0182C27.7477 21.8623 27.6754 21.6703 27.667 21.4703L27.662 21.4681L27.3436 15.8518C29.7668 16.1527 32.024 17.2413 33.7681 18.9502ZM25.1352 25.1061H26.8599L27.9323 26.4466L27.5476 28.1188L25.9986 28.8639L24.4453 28.1171L24.06 26.4444L25.1352 25.1061ZM23.5122 16.0486C23.89 15.9635 24.2719 15.8978 24.6565 15.8518L24.3375 21.4764L24.3143 21.4875C24.3071 21.6583 24.2537 21.824 24.1598 21.9668C24.0659 22.1097 23.935 22.2244 23.781 22.2988C23.6271 22.3731 23.4558 22.4044 23.2855 22.3891C23.1153 22.3739 22.9523 22.3127 22.814 22.2122L22.8052 22.2172L18.1927 18.9468C19.6611 17.5039 21.5036 16.5 23.5122 16.0486ZM16.5199 21.0491L20.7311 24.8153L20.7267 24.8385C20.8557 24.9508 20.9518 25.0961 21.0047 25.2587C21.0577 25.4213 21.0655 25.5953 21.0274 25.7621C20.9892 25.9288 20.9066 26.0821 20.7882 26.2055C20.6698 26.329 20.5202 26.418 20.3552 26.4632L20.3508 26.4814L14.9528 28.0392C14.6837 25.5997 15.2352 23.1402 16.5199 21.0491ZM22.1584 31.0546L20.0136 36.2371C17.955 34.9193 16.3889 32.9591 15.5581 30.6605L21.0926 29.7208L21.102 29.7329C21.1632 29.7212 21.2254 29.7156 21.2878 29.7163C21.4429 29.7187 21.5951 29.7592 21.7309 29.8343C21.8668 29.9094 21.982 30.0168 22.0664 30.147C22.1509 30.2772 22.202 30.4262 22.2153 30.5808C22.2285 30.7355 22.2035 30.891 22.1424 31.0336L22.1584 31.0546ZM28.489 37.7197C26.4822 38.1797 24.3871 38.072 22.4381 37.4084L25.1601 32.4864H25.1645C25.2454 32.3359 25.3655 32.2102 25.5121 32.1225C25.6587 32.0348 25.8262 31.9884 25.997 31.9882C26.1679 31.9881 26.3355 32.0341 26.4823 32.1215C26.629 32.2089 26.7494 32.3344 26.8306 32.4847H26.8511L29.5796 37.4151C29.2255 37.5334 28.8619 37.6349 28.489 37.7197ZM32.0058 36.2581L29.8389 31.0226L29.8455 31.0132C29.7494 30.7892 29.7434 30.5368 29.8288 30.3085C29.9141 30.0802 30.0843 29.8936 30.3038 29.7876C30.4169 29.7323 30.5401 29.7003 30.6659 29.6937C30.7387 29.6903 30.8116 29.6957 30.8831 29.7097L30.8925 29.6981L36.4763 30.6417C35.652 32.9588 34.079 34.935 32.0058 36.2581ZM37.0628 28.0209L31.6377 26.4582L31.6327 26.4355C31.4679 26.3901 31.3184 26.3008 31.2003 26.1773C31.0821 26.0537 30.9996 25.9004 30.9616 25.7338C30.9235 25.5671 30.9314 25.3932 30.9842 25.2306C31.0371 25.068 31.133 24.9228 31.2618 24.8103L31.2596 24.7993L35.4475 21.0513C36.73 23.1369 37.2971 25.5839 37.0628 28.0209Z" fill="#676767"/>
</svg>
