<svg width="43" height="51" viewBox="0 0 43 51" fill="none" xmlns="http://www.w3.org/2000/svg">
<g clip-path="url(#clip0)">
<path d="M7.78703 40.4227L2.96155 41.5237V10.2727L7.78703 11.3758V40.4227Z" fill="#676767"/>
<path d="M13.8076 42.2672L7.78699 43.9782V7.86094L13.8076 9.56981V42.2672ZM21.5309 44.1624L13.8076 46.9888V4.85029L21.5309 7.67546V44.1624ZM42.1815 40.5169L21.5309 50.8422V0.988037L42.1815 11.3134V40.5169Z" fill="#676767"/>
<path d="M17.4136 3.04659L21.5301 0.988037V50.8422L17.4136 48.7843V3.04659ZM10.6202 6.44288L13.8068 4.84965V46.9806L10.6202 45.3874V6.44288ZM5.2478 9.12949L7.78619 7.8603V43.97L5.2478 42.7V9.12949ZM2.9607 10.2727L0.890381 11.3079V40.523L2.9607 41.5576V10.2727Z" fill="#404040"/>
</g>
<defs>
<clipPath id="clip0">
<rect width="41.3" height="50" fill="white" transform="translate(0.886353 0.988037)"/>
</clipPath>
</defs>
</svg>
