<svg width="181" height="174" viewBox="0 0 181 174" fill="none" xmlns="http://www.w3.org/2000/svg">
<path d="M111.7 164.5C146.936 164.5 175.5 156.934 175.5 147.6C175.5 138.266 146.936 130.7 111.7 130.7C76.4642 130.7 47.9 138.266 47.9 147.6C47.9 156.934 76.4642 164.5 111.7 164.5Z" fill="#121212"/>
<path d="M127.4 49.7998L123.2 58.1998L131.7 62.9998L135.2 53.5998L127.4 49.7998Z" fill="url(#paint0_linear)" stroke="black" stroke-width="3" stroke-miterlimit="10"/>
<path d="M88.4 50.4998L94.4 55.0998L98.8 49.4998L94.4 46.2998L88.4 50.4998Z" fill="url(#paint1_linear)" stroke="black" stroke-width="3" stroke-miterlimit="10"/>
<path d="M176.8 125.6C176.8 125.6 175 131.7 166.4 135.7C166.4 135.7 167.1 137.2 167.3 140.6C167.4 140.6 175.7 135.3 176.8 125.6Z" fill="url(#paint2_linear)" stroke="black" stroke-width="3" stroke-miterlimit="10"/>
<path d="M112.1 121.4L125.8 132C125.8 132 167.9 113.8 176.6 120.7C176.6 120.7 172.9 109.4 129.5 117.1L112.1 121.4Z" fill="url(#paint3_linear)" stroke="black" stroke-width="3" stroke-miterlimit="10"/>
<path d="M132.1 140.3C150.2 142.1 157 139.9 165.3 136.7C173 133.7 177.1 128.3 177.7 124.2C178 111.2 143.5 124.2 132.8 128.6C130.8 129.4 124.9 131.9 124.9 131.9C124.9 131.9 127.7 136.3 132.1 140.3Z" fill="url(#paint4_linear)" stroke="black" stroke-width="3" stroke-miterlimit="10"/>
<path d="M127.2 121L132.6 123.7L134.8 120.2L131 119.2L127.2 121Z" fill="#6E964B" stroke="black" stroke-width="3" stroke-miterlimit="10"/>
<path d="M125.5 126L129.1 126.1L129 129.3L125.1 127.6L125.5 126Z" fill="#6E964B" stroke="black" stroke-width="3" stroke-miterlimit="10"/>
<path d="M137.5 118.8L141.2 122.5L144.4 120.3L141.6 117.8L137.5 118.8Z" fill="#6E964B" stroke="black" stroke-width="3" stroke-miterlimit="10"/>
<path d="M161.7 115.6L161.6 117.6L166 116.8L163.9 115.7L161.7 115.6Z" fill="#6E964B" stroke="black" stroke-width="3" stroke-miterlimit="10"/>
<path d="M126.8 117.6L134.3 116.3C134.3 116.3 130.7 126.4 114.9 124.5L111.6 120.4C111.6 120.4 122.6 122.5 126.8 117.6Z" fill="url(#paint5_linear)" stroke="black" stroke-width="3" stroke-miterlimit="10"/>
<path d="M134.9 150.7C134.9 150.7 136.1 155.2 151 152.7C165.9 150.2 167.5 142.6 165.6 135.2C163.6 127.8 155.6 135.7 147.6 139.5C139.7 143.3 146.2 148.9 134.9 150.7Z" fill="url(#paint6_linear)" stroke="black" stroke-width="3" stroke-miterlimit="10"/>
<path d="M101.6 127.6C101.6 127.6 102.1 142.1 106.2 143.4C110.8 144.8 110.1 135.2 110.1 135.2L101.6 127.6Z" fill="black" stroke="black" stroke-width="3" stroke-miterlimit="10"/>
<path d="M146.2 87.9999C142.3 62.8999 129 56.3999 129 56.3999C129 56.3999 131.9 93.9999 134 96.7999C136.1 99.5999 146.2 87.9999 146.2 87.9999Z" fill="url(#paint7_linear)" stroke="black" stroke-width="3" stroke-miterlimit="10"/>
<path d="M102.4 50.0999C102.4 50.0999 127.2 46.9999 133.2 62.3999C139.2 77.8999 136.1 110.4 125.4 119C119.9 123.4 76.7 123 76.5 107C76.3 90.9999 91.5 91.1999 88.3 54.1999C88.3 54.2999 95 50.0999 102.4 50.0999Z" fill="url(#paint8_linear)" stroke="black" stroke-width="3" stroke-miterlimit="10"/>
<path d="M97.6 105L102.9 104.7C102.9 104.7 115.6 109.2 119.2 102.7L131.4 109.1C131.4 109.1 129.8 115.8 125.7 119.1C123.5 120.8 115.8 122.6 110.8 120.2C105.8 117.9 97.4 109.6 97.4 109.6L97.6 105Z" fill="url(#paint9_linear)" stroke="black" stroke-width="3" stroke-miterlimit="10"/>
<path d="M95.1 97.8999C83.4 99.7999 77.5 100.1 76.6 107.6C77.3 110.5 77.2 114.2 84.7 112.4C86.1 112.1 95.9 107.1 102 105.6C108.8 108.2 115 109.3 119.6 105.3C119.9 105 125.6 106.8 125.8 106.4C126 106.1 127.5 105.9 127.7 105.6C127.9 105.3 133.3 101.4 125.2 96.5999C123.3 95.4999 113.2 97.6999 112.3 97.8999C107.8 95.7999 100.6 96.4999 95.1 97.8999Z" fill="url(#paint10_linear)" stroke="black" stroke-width="3" stroke-miterlimit="10"/>
<path d="M102.8 110.3C114 118.1 135.6 135.2 145.3 143.3C148.8 146.2 136.9 151.5 136.9 151.5C136.9 151.5 122.5 148.2 102.1 132.1C102.1 132.2 95.3 105.1 102.8 110.3Z" fill="url(#paint11_linear)" stroke="black" stroke-width="3" stroke-miterlimit="10"/>
<path d="M134.9 150.7C134.9 150.7 136.1 155.2 151 152.7C165.9 150.2 167.5 142.6 165.6 135.2C163.6 127.8 155.6 135.7 147.6 139.5C139.7 143.3 146.2 148.9 134.9 150.7Z" fill="url(#paint12_linear)" stroke="black" stroke-width="3" stroke-miterlimit="10"/>
<path d="M152.4 136.1C152.4 136.1 157.9 141.7 165.7 137.9V138.3C165.7 138.3 158.2 139.5 154.4 152.9" stroke="black" stroke-width="3" stroke-miterlimit="10"/>
<path d="M112.2 88.5998C93.4 86.9998 77.2 99.8997 77.6 88.7997C77.9 80.3997 86.4 70.2997 87.3 75.3997C87.6 76.7997 87.1 78.9998 86.5 81.1998C86.5 81.1998 93.7 79.0998 98.9 66.0998C99.1 61.9998 98.6 56.9998 97 50.9998C97 50.9998 65.8 59.8997 60.4 91.2997C55.7 118.6 101.8 101.9 103.8 103C102.6 91.6998 112.2 88.5998 112.2 88.5998Z" fill="url(#paint13_linear)" stroke="black" stroke-width="3" stroke-miterlimit="10"/>
<path d="M103.8 102.9C103.8 103 103.8 103 103.8 103.1C103.8 103 103.8 102.9 103.8 102.9Z" fill="url(#paint14_linear)" stroke="black" stroke-width="3" stroke-miterlimit="10"/>
<path d="M102.4 131.7C101.3 123.5 101.9 107.8 109.6 111.8C109.6 111.8 101.2 107.2 98.8 106.4C89.4 103.2 50.9 118.1 63 136.6C71.6 149.6 98.4 146.4 107.3 143.5C103.5 141.5 103 135.6 102.4 131.7Z" fill="url(#paint15_linear)" stroke="black" stroke-width="3" stroke-miterlimit="10"/>
<path d="M107.5 143.5C104.7 142.5 103.3 137.9 102.6 133.7C94.9 136.2 96.5 144.7 70.2 141.3C69.1 141.4 68.4 141.4 68.4 141.4C68.4 141.4 80.2 150.4 107.5 143.5Z" fill="url(#paint16_linear)" stroke="black" stroke-width="3" stroke-miterlimit="10"/>
<path d="M130.2 97.1999L132.3 99.5999C132.3 99.5999 130.9 102.7 126.6 99.5999C122.3 96.4999 123.1 97.1999 123.1 97.1999C123.1 97.1999 117.8 104.6 113.8 104.9C107.3 105.4 103.9 103 103.9 103C103.9 103 103.2 99.6999 104.6 95.5999C106.3 90.4999 112.4 87.7999 116.6 87.9999C124.7 88.2999 128.6 92.6999 130.2 97.1999Z" fill="url(#paint17_linear)" stroke="black" stroke-width="3" stroke-miterlimit="10"/>
<path d="M150.9 86.6998L177.3 88.2998C178.7 88.3998 179.2 90.2998 178 90.9998L154.7 110.1C153.1 111.2 151.2 111.9 149.2 112.1L117.1 115.1C115.6 115.2 114.9 113.4 116 112.5L142.1 89.5998C144.6 87.3998 147.7 86.3998 150.9 86.6998Z" fill="url(#paint18_linear)" stroke="black" stroke-width="3" stroke-miterlimit="10"/>
<path d="M140.2 112.9C140.1 115.8 143.2 118.6 149 117.7C153.5 117 156.3 113.9 158.2 108.8C159.2 106 155.3 109.5 150.3 110.5C145.3 111.6 140.4 108.1 140.2 112.9Z" fill="url(#paint19_linear)" stroke="black" stroke-width="3" stroke-miterlimit="10"/>
<path d="M123 97.2997C123 97.2997 120.2 95.5997 118.4 97.0997C116.6 98.5997 112.3 105.9 107.7 104.6C107.7 104.6 112.4 105.8 115.2 104.6C119.3 102.9 123 97.2997 123 97.2997Z" fill="url(#paint20_linear)" stroke="black" stroke-width="3" stroke-miterlimit="10"/>
<path d="M177.3 88.2999C177.3 88.2999 176.2 88.3999 174.3 88.3999C172.4 88.3999 169.6 88.4999 166.3 88.4999C163 88.4999 159.1 88.3999 155.1 88.2999C154.1 88.2999 153 88.1999 152 88.1999C151 88.1999 150 88.0999 149 88.1999C147.1 88.3999 145.3 88.9999 143.8 90.1999L143.2 90.6999L142.6 91.1999L141.4 92.2999C140.6 92.9999 139.7 93.6999 138.9 94.3999C137.3 95.7999 135.6 97.1999 134 98.4999C132.4 99.7999 130.9 101.1 129.4 102.2C127.9 103.4 126.5 104.5 125.2 105.5C120 109.6 116.4 112.1 116.4 112.1C116.4 112.1 119.4 108.8 124.1 104.2C125.3 103 126.5 101.8 127.9 100.5C129.3 99.1999 130.7 97.7999 132.2 96.4999C133.7 95.0999 135.3 93.6999 136.9 92.1999C137.7 91.4999 138.5 90.7999 139.3 89.9999L140.5 88.8999L141.1 88.3999L141.8 87.7999C143.8 86.2999 146.3 85.3999 148.6 85.2999C149.8 85.1999 150.9 85.1999 152 85.2999C153 85.3999 154.1 85.3999 155.1 85.4999C156.1 85.5999 157.2 85.6999 158.1 85.6999C159.1 85.7999 160 85.8999 161 85.9999C162.9 86.1999 164.6 86.3999 166.3 86.5999C169.6 86.9999 172.3 87.3999 174.2 87.6999C176.2 88.0999 177.3 88.2999 177.3 88.2999Z" fill="black"/>
<path d="M160 94.8998C156.2 94.7998 153.5 97.3998 153.5 97.3998C153.5 97.3998 156.4 97.8998 160 94.8998Z" fill="white" stroke="black" stroke-width="3" stroke-miterlimit="10"/>
<path d="M147.8 98.9999C147.8 98.9999 150.2 96.9999 152.3 98.5999C154.2 99.9999 155 99.1999 156.5 99.1999C158 99.1999 154.9 103.5 152.1 104.2C149.4 104.9 150.5 103.5 149.8 103.4C149.1 103.3 146 105.8 145.8 104.3C145.5 102.9 145.8 100.4 147.8 98.9999Z" fill="white" stroke="black" stroke-width="3" stroke-miterlimit="10"/>
<path d="M102 123.3C102 123.3 102.1 114.6 105.1 112.1C108 109.6 111.4 112.4 111.2 115.6V116.3L109.5 115.1C107.4 113.7 104.4 115.3 103.5 117.7C103 119.1 102.5 120.9 102 123.3Z" fill="url(#paint21_linear)" stroke="black" stroke-width="3" stroke-miterlimit="10"/>
<path d="M80.4 110.1L77.8 115.9L82.9 118.5L85.3 112.5L83.2 110.2L80.4 110.1Z" fill="#6E964B" stroke="black" stroke-width="3" stroke-miterlimit="10"/>
<path d="M87.4 116.6L93.7 116.5L94.1 123L89.7 121.7L87.4 116.6Z" fill="#6E964B" stroke="black" stroke-width="3" stroke-miterlimit="10"/>
<path d="M79.7 123.6L82.1 122.5L84.8 125.8L82.5 127.2L79.7 123.6Z" fill="#6E964B" stroke="black" stroke-width="3" stroke-miterlimit="10"/>
<path d="M76.4 135.3L77.2 130.9L82 131.1L81.9 135.5L76.4 135.3Z" fill="#6E964B" stroke="black" stroke-width="3" stroke-miterlimit="10"/>
<path d="M66.2 133.4L69.6 136.3L67.8 138L65.2 135.6L66.2 133.4Z" fill="#6E964B" stroke="black" stroke-width="3" stroke-miterlimit="10"/>
<path d="M65.6 122.5L63.5 126.5L67.1 127.9L67.9 122.6L65.6 122.5Z" fill="#6E964B" stroke="black" stroke-width="3" stroke-miterlimit="10"/>
<path d="M86.1 133.1L90.1 137.9L93.9 135L91 132.2L86.1 133.1Z" fill="#6E964B" stroke="black" stroke-width="3" stroke-miterlimit="10"/>
<path d="M100.2 122.1L96.1 123.7L96.3 129L99.2 129.1L100.2 122.1Z" fill="#6E964B" stroke="black" stroke-width="3" stroke-miterlimit="10"/>
<path d="M100 107.9L95.6 109.1L98.4 111.4L104.1 110.2L100 107.9Z" fill="#6E964B" stroke="black" stroke-width="3" stroke-miterlimit="10"/>
<path d="M107.1 137.7C107.1 137.7 119.5 145.7 121.2 146.5C119.9 147.1 108.6 155.2 102.9 153.6C98.5 152.3 97.2 150.8 95.4 145.5C93 138 107.1 137.7 107.1 137.7Z" fill="url(#paint22_linear)" stroke="black" stroke-width="3" stroke-miterlimit="10"/>
<path d="M107.7 137.6L109.5 137.4C109.5 137.4 111.3 138.9 122.9 145.6C122.5 145.8 122.1 146 121.6 146.2C120.3 146.8 108.6 155.2 102.9 153.5C98.5 152.2 97.2 150.7 95.4 145.4C93.2 139 102.8 138.3 107.7 137.6Z" fill="url(#paint23_linear)" stroke="black" stroke-width="3" stroke-miterlimit="10"/>
<path d="M117.1 149.9C111.2 142.9 96.2 146.9 96.2 146.9V146.4C96.2 146.4 107.7 143.5 106.4 136.5" stroke="black" stroke-width="3" stroke-miterlimit="10"/>
<path d="M101.5 142C101.4 144.2 99.9 145.9 98.2 145.8C96.4 145.7 95.1 143.9 95.2 141.8C95.3 139.6 96.8 137.9 98.5 138C100.2 138.1 101.6 139.8 101.5 142Z" fill="url(#paint24_linear)" stroke="black" stroke-width="3" stroke-miterlimit="10"/>
<path d="M95 47.9998L90.8 56.3997L99.3 61.1998L102.8 51.6998L95 47.9998Z" fill="url(#paint25_linear)" stroke="black" stroke-width="3" stroke-miterlimit="10"/>
<path d="M92.5 53.3997L97.9 66.6997L105 58.4997L101.1 51.6997L92.5 53.3997Z" fill="url(#paint26_linear)" stroke="black" stroke-width="3" stroke-miterlimit="10"/>
<path d="M96.7 54.1997L92.1 63.9997L102.3 66.9997L106.5 58.4997L96.7 54.1997Z" fill="url(#paint27_linear)" stroke="black" stroke-width="3" stroke-miterlimit="10"/>
<path d="M94.5 59.3999L94.1 71.1999H107.1L106.5 55.3999L94.5 59.3999Z" fill="url(#paint28_linear)" stroke="black" stroke-width="3" stroke-miterlimit="10"/>
<path d="M101 58.2998L91.9 69.3998L96.1 74.5998L107.2 68.0998L101 58.2998Z" fill="url(#paint29_linear)" stroke="black" stroke-width="3" stroke-miterlimit="10"/>
<path d="M93.2 62.4998L98.3 72.4998L108.3 68.6998L104.3 60.0999L93.2 62.4998Z" fill="url(#paint30_linear)" stroke="black" stroke-width="3" stroke-miterlimit="10"/>
<path d="M98.1 61.4998L95.8 77.2997L105.4 75.9998L108.4 64.7998L98.1 61.4998Z" fill="url(#paint31_linear)" stroke="black" stroke-width="3" stroke-miterlimit="10"/>
<path d="M103.9 63.2998L97.8 71.2998L104.5 76.7998L111.3 70.2998L103.9 63.2998Z" fill="url(#paint32_linear)" stroke="black" stroke-width="3" stroke-miterlimit="10"/>
<path d="M100.5 68.8998L102.8 80.3998L114.4 76.3998L110.7 66.0999L100.5 68.8998Z" fill="url(#paint33_linear)" stroke="black" stroke-width="3" stroke-miterlimit="10"/>
<path d="M104.5 77.2998L111.2 89.8998L124.9 77.3998L115.2 68.0999L104.5 77.2998Z" fill="url(#paint34_linear)" stroke="black" stroke-width="3" stroke-miterlimit="10"/>
<path d="M107.6 70.9998L105.8 85.9998L121 83.8997L121.4 71.4998L107.6 70.9998Z" fill="url(#paint35_linear)" stroke="black" stroke-width="3" stroke-miterlimit="10"/>
<path d="M125.2 69.8999L115.9 75.3999L120.9 85.4999L129.7 77.8999L125.2 69.8999Z" fill="url(#paint36_linear)" stroke="black" stroke-width="3" stroke-miterlimit="10"/>
<path d="M118.6 70.0998L121.2 77.5998L129.9 73.6998L125.3 66.2998L118.6 70.0998Z" fill="url(#paint37_linear)" stroke="black" stroke-width="3" stroke-miterlimit="10"/>
<path d="M121.7 65.2998L121.4 72.7998L129.8 75.8998L131.1 66.4998L121.7 65.2998Z" fill="url(#paint38_linear)" stroke="black" stroke-width="3" stroke-miterlimit="10"/>
<path d="M125.5 60.8999L121.5 69.0999L132.9 73.1999L132.1 64.2999L125.5 60.8999Z" fill="url(#paint39_linear)" stroke="black" stroke-width="3" stroke-miterlimit="10"/>
<path d="M124.8 55.6998L130.3 62.6998L135.9 57.9998L130.6 52.2998L124.8 55.6998Z" fill="url(#paint40_linear)" stroke="black" stroke-width="3" stroke-miterlimit="10"/>
<path d="M123.5 59.0999L127.4 65.9999L134.7 61.1999L129.3 55.3999L123.5 59.0999Z" fill="url(#paint41_linear)" stroke="black" stroke-width="3" stroke-miterlimit="10"/>
<path d="M121.8 62.3998L127.3 67.8998L133.2 65.4998L130.3 60.2998L121.8 62.3998Z" fill="url(#paint42_linear)" stroke="black" stroke-width="3" stroke-miterlimit="10"/>
<path d="M81.3 93.2999C82 93.1999 82.6 92.9999 83.2 92.7999C83.8 92.5999 84.4 92.4999 85.1 92.1999L88.8 90.9999C90 90.5999 91.3 90.1999 92.5 89.8999C93.8 89.4999 95 89.1999 96.3 88.8999C97.6 88.5999 98.8 88.2999 100.1 87.9999C101.4 87.6999 102.7 87.4999 104 87.2999C105.3 87.0999 106.6 86.8999 108 86.7999C108.7 86.7999 109.4 86.6999 110.1 86.7999C110.8 86.7999 111.6 86.8999 112.4 87.1999H111.6C112.2 87.0999 112.6 86.9999 113.1 86.8999C113.6 86.7999 114.1 86.7999 114.6 86.7999C115.6 86.6999 116.6 86.6999 117.5 86.7999C119.5 86.9999 121.4 87.3999 123.2 88.2999C123.7 88.4999 124.1 88.7999 124.5 88.9999C124.9 89.2999 125.3 89.4999 125.7 89.8999C126.1 90.1999 126.5 90.4999 126.8 90.8999C127.1 91.2999 127.5 91.5999 127.8 91.9999C128.1 92.3999 128.4 92.7999 128.6 93.1999C128.8 93.5999 129.1 93.9999 129.2 94.4999C129.6 95.3999 129.8 96.2999 130 97.1999C129.8 96.7999 129.6 96.3999 129.3 95.9999C129.1 95.5999 128.8 95.1999 128.6 94.7999C128.4 94.3999 128.1 94.0999 127.8 93.6999C127.5 93.3999 127.2 92.9999 126.9 92.6999C125.6 91.4999 124.1 90.5999 122.5 89.9999C120.9 89.4999 119.1 89.1999 117.4 89.1999C116.5 89.1999 115.7 89.1999 114.8 89.2999C114.4 89.3999 113.9 89.3999 113.5 89.4999C113.1 89.5999 112.6 89.6999 112.3 89.7999L112 89.9999L111.5 89.8999C111.1 89.7999 110.5 89.7999 110 89.7999C109.4 89.7999 108.8 89.7999 108.2 89.8999C107 89.9999 105.7 90.1999 104.4 90.2999C103.1 90.4999 101.9 90.6999 100.6 90.8999L96.8 91.5999C95.5 91.7999 94.2 91.9999 93 92.2999C91.7 92.4999 90.4 92.6999 89.1 92.8999C88.5 92.9999 87.8 93.0999 87.2 93.1999L85.2 93.3999C84.6 93.4999 83.9 93.4999 83.2 93.4999C82.6 93.4999 81.9 93.3999 81.3 93.2999Z" fill="black"/>
<path d="M112.3 89.9997C112.3 89.9997 112.3 89.9997 112.2 89.9997C112.2 89.9997 112.1 89.9997 111.9 89.9997C111.6 89.9997 111.2 90.0997 110.7 90.2997C110.2 90.3997 109.6 90.6997 109.1 90.9997C108.5 91.2997 107.9 91.6997 107.4 92.1997C107.1 92.3997 106.9 92.6997 106.6 92.8997C106.3 93.1997 106.1 93.3997 105.9 93.6997C105.7 93.9997 105.5 94.2997 105.3 94.4997C105.1 94.7997 105 94.9997 104.8 95.2997C104.7 95.5997 104.5 95.7997 104.4 95.9997C104.3 96.1997 104.2 96.3997 104.2 96.5997C104.1 96.8997 104 97.0997 104 97.0997C104 97.0997 104 96.8997 104.1 96.5997C104.1 96.3997 104.2 96.1997 104.2 95.9997C104.2 95.7997 104.3 95.4997 104.4 95.1997C104.5 94.8997 104.5 94.5997 104.7 94.2997C104.8 93.9997 104.9 93.5997 105.1 93.2997C105.3 92.9997 105.4 92.5997 105.6 92.2997C105.8 91.9997 106 91.5997 106.3 91.2997C106.8 90.5997 107.4 89.9997 108 89.4997C108.6 88.9997 109.2 88.4997 109.8 88.1997C110.4 87.8997 110.9 87.5997 111.2 87.4997C111.4 87.3997 111.5 87.3997 111.7 87.2997C111.8 87.2997 111.9 87.1997 111.9 87.1997L112.3 89.9997Z" fill="black"/>
<path d="M134.9 150.9C134.9 150.9 136.1 155.4 151 152.9C165.9 150.4 167.5 142.8 165.6 135.4C163.7 128 155.6 135.9 147.6 139.7C139.6 143.5 146.2 149.1 134.9 150.9Z" fill="url(#paint43_linear)" stroke="black" stroke-width="6" stroke-miterlimit="10"/>
<path d="M134.9 150.9C134.9 150.9 136.1 155.4 151 152.9C165.9 150.4 167.5 142.8 165.6 135.4C163.7 128 155.6 135.9 147.6 139.7C139.6 143.5 146.2 149.1 134.9 150.9Z" fill="url(#paint44_linear)" stroke="black" stroke-width="6" stroke-miterlimit="10"/>
<path d="M107.1 137.9C107.1 137.9 119.5 145.9 121.2 146.7C119.9 147.3 108.6 155.4 102.9 153.8C98.5 152.5 97.2 151 95.4 145.7C93 138.2 107.1 137.9 107.1 137.9Z" fill="url(#paint45_linear)" stroke="black" stroke-width="6" stroke-miterlimit="10"/>
<path d="M107.7 137.8L109.5 137.6C109.5 137.6 111.3 139.1 122.9 145.8C122.5 146 122.1 146.2 121.6 146.4C120.3 147 108.6 155.4 102.9 153.7C98.5 152.4 97.2 150.9 95.4 145.6C93.2 139.2 102.7 138.5 107.7 137.8Z" fill="url(#paint46_linear)" stroke="black" stroke-width="6" stroke-miterlimit="10"/>
<path d="M127.6 49.7998L123.4 58.1998L131.9 62.9998L135.4 53.5998L127.6 49.7998Z" fill="url(#paint47_linear)"/>
<path d="M88.6 50.4998L94.6 55.0998L99 49.4998L94.6 46.2998L88.6 50.4998Z" fill="url(#paint48_linear)"/>
<path d="M177 125.6C177 125.6 175.2 131.7 166.6 135.7C166.6 135.7 167.3 137.2 167.5 140.6C167.6 140.6 175.9 135.3 177 125.6Z" fill="url(#paint49_linear)"/>
<path d="M112.3 121.4L126 132C126 132 168.1 113.8 176.8 120.7C176.8 120.7 173.1 109.4 129.7 117.1L112.3 121.4Z" fill="url(#paint50_linear)"/>
<path d="M132.3 140.3C150.4 142.1 157.2 139.9 165.5 136.7C173.2 133.7 177.3 128.3 177.9 124.2C178.2 111.2 143.7 124.2 133 128.6C131 129.4 125.1 131.9 125.1 131.9C125.1 131.9 127.9 136.3 132.3 140.3Z" fill="url(#paint51_linear)"/>
<path d="M127.4 121.1L132.8 123.7L135 120.2L131.2 119.2L127.4 121.1Z" fill="#6E964B"/>
<path d="M125.6 126L129.3 126.2L129.2 129.3L125.3 127.6L125.6 126Z" fill="#6E964B"/>
<path d="M137.7 118.8L141.4 122.5L144.6 120.3L141.8 117.8L137.7 118.8Z" fill="#6E964B"/>
<path d="M161.9 115.6L161.8 117.6L166.2 116.8L164.1 115.7L161.9 115.6Z" fill="#6E964B"/>
<path d="M127 117.6L134.5 116.3C134.5 116.3 130.9 126.4 115.1 124.5L111.8 120.4C111.8 120.4 122.8 122.5 127 117.6Z" fill="url(#paint52_linear)"/>
<path d="M135.1 150.8C135.1 150.8 136.3 155.3 151.2 152.8C166.1 150.3 167.7 142.7 165.8 135.3C163.8 127.9 155.8 135.8 147.8 139.6C139.9 143.3 146.4 148.9 135.1 150.8Z" fill="url(#paint53_linear)" stroke="white" stroke-width="3" stroke-miterlimit="10"/>
<path d="M101.8 127.6C101.8 127.6 102.3 142.1 106.4 143.4C111 144.8 110.3 135.2 110.3 135.2L101.8 127.6Z" fill="black"/>
<path d="M146.4 87.9999C142.5 62.8999 129.2 56.3999 129.2 56.3999C129.2 56.3999 132.1 93.9999 134.2 96.7999C136.3 99.5999 146.4 87.9999 146.4 87.9999Z" fill="url(#paint54_linear)"/>
<path d="M102.5 50.2C102.5 50.2 127.3 47.1 133.3 62.5C139.3 78 136.2 110.5 125.5 119.1C120 123.5 76.8 123.1 76.6 107.1C76.4 91.1 91.6 91.3 88.4 54.3C88.5 54.3 95.1 50.1 102.5 50.2Z" fill="url(#paint55_linear)"/>
<path opacity="0.8" d="M167.1 71.7998C167.1 71.8998 167.1 71.8998 167.1 71.9998C167.2 71.8998 167.2 71.7998 167.1 71.7998Z" fill="url(#paint56_linear)"/>
<path d="M97.8 105L103.1 104.7C103.1 104.7 115.8 109.2 119.4 102.7L131.6 109.1C131.6 109.1 130 115.8 125.9 119.1C123.7 120.8 116 122.6 111 120.2C106 117.9 97.6 109.6 97.6 109.6L97.8 105Z" fill="url(#paint57_linear)"/>
<path d="M95.3 97.8999C83.6 99.7999 77.7 100.1 76.8 107.6C77.5 110.5 77.4 114.2 84.9 112.4C86.3 112.1 96.1 107.1 102.2 105.6C109 108.2 115.2 109.3 119.8 105.3C120.1 105 125.8 106.8 126 106.4C126.2 106.1 127.7 105.9 127.9 105.6C128.1 105.3 133.5 101.4 125.4 96.5999C123.5 95.4999 113.4 97.6999 112.5 97.8999C108 95.7999 100.8 96.4999 95.3 97.8999Z" fill="url(#paint58_linear)"/>
<path d="M103 110.3C114.2 118.1 135.8 135.2 145.5 143.3C149 146.2 137.1 151.5 137.1 151.5C137.1 151.5 122.7 148.2 102.3 132.1C102.3 132.2 95.5 105.1 103 110.3Z" fill="url(#paint59_linear)"/>
<path d="M135.1 150.8C135.1 150.8 136.3 155.3 151.2 152.8C166.1 150.3 167.7 142.7 165.8 135.3C163.8 127.9 155.8 135.8 147.8 139.6C139.9 143.3 146.4 148.9 135.1 150.8Z" fill="url(#paint60_linear)"/>
<path d="M152.6 136.2C152.6 136.2 158.1 141.8 165.9 138V138.4C165.9 138.4 158.4 139.6 154.6 153" stroke="#363636" stroke-width="2" stroke-miterlimit="10"/>
<path d="M112.4 88.6C93.6 87 77.4 99.9 77.8 88.8C78.1 80.4 86.6 70.3 87.5 75.4C87.8 76.8 87.3 79 86.7 81.2C86.7 81.2 93.9 79.1 99.1 66.1C99.3 62 98.8 57 97.2 51C97.2 51 66 59.9 60.6 91.3C55.9 118.6 102 101.9 104 103C102.8 91.7 112.4 88.6 112.4 88.6Z" fill="url(#paint61_linear)"/>
<path d="M103.9 102.9C103.9 103 103.9 103 103.9 103.1C104 103 104 102.9 103.9 102.9Z" fill="url(#paint62_linear)"/>
<path d="M134 36.3999C132.8 49.8999 123.1 59.9999 112.3 59.0999C101.5 58.1999 93.8 46.3999 95 32.9999C96.2 19.4999 105.9 9.3999 116.7 10.2999C127.4 11.1999 135.2 22.8999 134 36.3999Z" fill="url(#paint63_linear)"/>
<path d="M115.4 55.7C128.931 55.7 139.9 44.7309 139.9 31.2C139.9 17.669 128.931 6.69995 115.4 6.69995C101.869 6.69995 90.9 17.669 90.9 31.2C90.9 44.7309 101.869 55.7 115.4 55.7Z" fill="url(#paint64_linear)"/>
<path d="M90.3 26.4998C91.5 21.8998 94.6 18.6998 97.2 19.3998C99.8 20.0998 100.8 24.3998 99.6 28.9998C98.4 33.5998 95.3 36.7998 92.7 36.0998C90.1 35.3998 89.1 31.0998 90.3 26.4998Z" fill="url(#paint65_linear)"/>
<path d="M101.1 28.2999C99.9 32.5999 96.8 35.4999 94.3 34.7999C91.8 34.0999 90.8 29.9999 92 25.6999C93.2 21.3999 96.3 18.4999 98.8 19.1999C101.3 19.8999 102.3 23.9999 101.1 28.2999Z" fill="url(#paint66_linear)"/>
<path d="M116.2 13.1999C116.2 13.1999 115.9 20.3999 125.8 24.4999C135.7 28.5999 149.7 22.0999 154.8 9.69991C154.8 9.69991 142.3 12.3999 130.1 3.69991C130.1 3.69991 124.7 9.29991 119.7 9.99991C119.7 9.99991 124.6 7.2999 127.4 0.399902L115.6 4.19991C115.6 4.19991 101.3 1.99991 94.7 15.4999C94.7 15.4999 105.9 21.4999 116.2 13.1999Z" fill="url(#paint67_linear)"/>
<path d="M108.3 27.7C108.3 27.7 132.1 37.9 143.5 31.2C143.5 31.2 142.2 39.7 136.6 41C131.8 42.1 132.2 35.7 132.2 35.7C132.2 35.7 126.8 44.3999 116.7 41.3999C109.3 39.2999 107.9 31.2 108.3 27.7Z" fill="url(#paint68_linear)"/>
<path d="M109.4 34.7C110.6 37.6 112.8 40.3 116.7 41.4C123.7 43.5 128.4 40 130.7 37.6C123.7 34.6 114.3 34.5 109.4 34.7Z" fill="url(#paint69_linear)"/>
<path d="M132.6 38.6999C133.1 40.1999 134.2 41.5999 136.6 40.9999C138.7 40.4999 140.2 38.9999 141.2 37.2999C135.2 35.1999 132.6 38.6999 132.6 38.6999Z" fill="url(#paint70_linear)"/>
<path d="M102.6 131.7C101.5 123.5 102.1 107.8 109.8 111.8C109.8 111.8 101.4 107.2 99 106.4C89.6 103.2 51.1 118.1 63.2 136.6C71.8 149.6 98.6 146.4 107.5 143.5C103.7 141.5 103.2 135.6 102.6 131.7Z" fill="url(#paint71_linear)"/>
<path d="M107.7 143.5C104.9 142.5 103.5 137.9 102.8 133.7C95.1 136.2 96.7 144.7 70.4 141.3C69.3 141.4 68.6 141.4 68.6 141.4C68.6 141.4 80.4 150.4 107.7 143.5Z" fill="url(#paint72_linear)"/>
<path d="M130.4 97.2999L132.5 99.7C132.5 99.7 131.1 102.8 126.8 99.7C122.5 96.6 123.3 97.2999 123.3 97.2999C123.3 97.2999 118 104.7 114 105C107.5 105.5 104.1 103.1 104.1 103.1C104.1 103.1 103.4 99.8 104.8 95.7C106.5 90.6 112.6 87.9 116.8 88.1C124.9 88.3 128.8 92.6999 130.4 97.2999Z" fill="url(#paint73_linear)"/>
<path d="M151.1 86.7L177.5 88.3C178.9 88.4 179.4 90.3 178.2 91L154.9 110.1C153.3 111.2 151.4 111.9 149.4 112.1L117.3 115.1C115.8 115.2 115.1 113.4 116.2 112.5L142.3 89.6C144.8 87.4 147.9 86.4 151.1 86.7Z" fill="url(#paint74_linear)"/>
<path d="M140.4 113C140.3 115.9 143.4 118.7 149.2 117.8C153.7 117.1 156.5 114 158.4 108.9C159.4 106.1 155.5 109.6 150.5 110.6C145.5 111.6 140.6 108.1 140.4 113Z" fill="url(#paint75_linear)"/>
<path d="M123.2 97.2999C123.2 97.2999 120.4 95.5999 118.6 97.0999C116.8 98.5999 112.5 105.9 107.9 104.6C107.9 104.6 112.6 105.8 115.4 104.6C119.5 102.9 123.2 97.2999 123.2 97.2999Z" fill="url(#paint76_linear)"/>
<path d="M108.3 27.7C108.3 27.7 110.5 28.3 113.8 29.2C114.6 29.4 115.5 29.5999 116.5 29.8999C117.4 30.0999 118.4 30.4 119.5 30.6C121.6 31.1 123.8 31.5999 126 31.8999C127.1 32.0999 128.2 32.2999 129.3 32.3999C130.4 32.4999 131.5 32.6 132.5 32.7C133 32.7 133.5 32.7 134 32.8C134.5 32.8 135 32.8 135.5 32.8C136.5 32.8 137.4 32.7 138.2 32.6C138.6 32.6 139 32.4999 139.4 32.3999C139.8 32.2999 140.1 32.3 140.5 32.2C141.2 32.1 141.7 31.9 142.2 31.7C142.7 31.6 143 31.4 143.3 31.3C143.6 31.2 143.7 31.2 143.7 31.2C143.7 31.2 143.6 31.2999 143.4 31.3999C143.2 31.4999 142.9 31.8 142.4 32.1C142 32.4 141.4 32.6999 140.8 32.8999C140.1 33.1999 139.4 33.5 138.5 33.7C137.7 33.9 136.7 34.1 135.7 34.2C134.7 34.3 133.6 34.3999 132.5 34.3999C131.4 34.3999 130.3 34.4 129.1 34.3C128 34.2 126.8 33.9999 125.7 33.8999C124.6 33.6999 123.4 33.5 122.3 33.2C121.2 33 120.1 32.6 119.1 32.3C117 31.7 115.1 31 113.6 30.3C110.2 28.9 108.3 27.7 108.3 27.7Z" fill="#FF5B00"/>
<path d="M177.5 88.2999C177.5 88.2999 176.4 88.2999 174.5 88.2999C172.6 88.2999 169.8 88.2999 166.5 88.1999C163.2 88.0999 159.4 87.9999 155.3 87.7999C154.3 87.7999 153.2 87.6999 152.2 87.6999C151.2 87.6999 150.1 87.5999 149.1 87.6999C147.1 87.8999 145.2 88.5999 143.6 89.7999L143 90.2999L142.4 90.7999L141.2 91.8999C140.4 92.5999 139.6 93.2999 138.7 93.9999C137.1 95.3999 135.4 96.7999 133.9 98.0999C130.8 100.8 127.8 103.2 125.2 105.3C122.7 107.4 120.5 109 119 110.2C117.5 111.4 116.6 112 116.6 112C116.6 112 117.4 111.2 118.7 109.9C120.1 108.6 122 106.6 124.4 104.4C126.8 102.1 129.6 99.4999 132.6 96.7999C134.1 95.3999 135.7 93.9999 137.3 92.5999C138.1 91.8999 138.9 91.1999 139.7 90.3999L140.9 89.2999L141.5 88.7999L142.2 88.1999C144.1 86.6999 146.5 85.8999 148.8 85.7999C149.9 85.6999 151.1 85.6999 152.1 85.7999C153.2 85.8999 154.2 85.8999 155.2 85.9999C157.3 86.0999 159.3 86.2999 161.1 86.4999C163 86.6999 164.8 86.7999 166.4 86.9999C169.7 87.2999 172.4 87.6999 174.3 87.8999C176.4 88.0999 177.5 88.2999 177.5 88.2999Z" fill="url(#paint77_linear)"/>
<path d="M160.2 94.8998C156.4 94.7998 153.7 97.3998 153.7 97.3998C153.7 97.3998 156.6 97.8998 160.2 94.8998Z" fill="white"/>
<path d="M148 98.9999C148 98.9999 150.4 96.9999 152.5 98.5999C154.4 99.9999 155.2 99.1999 156.7 99.1999C158.2 99.1999 155.1 103.5 152.3 104.2C149.6 104.9 150.7 103.5 150 103.4C149.3 103.3 146.2 105.8 146 104.3C145.7 102.9 146 100.4 148 98.9999Z" fill="white"/>
<path d="M102.2 123.3C102.2 123.3 102.3 114.6 105.3 112.1C108.2 109.6 111.6 112.4 111.4 115.6V116.3L109.7 115.1C107.6 113.7 104.6 115.3 103.7 117.7C103.2 119.1 102.7 120.9 102.2 123.3Z" fill="url(#paint78_linear)"/>
<path d="M80.6 110.1L78 115.9L83.1 118.5L85.5 112.5L83.4 110.2L80.6 110.1Z" fill="#6E964B"/>
<path d="M87.6 116.6L93.9 116.5L94.3 123L89.9 121.7L87.6 116.6Z" fill="#6E964B"/>
<path d="M79.9 123.6L82.3 122.6L85 125.8L82.7 127.2L79.9 123.6Z" fill="#6E964B"/>
<path d="M76.6 135.3L77.4 130.9L82.2 131.1L82.1 135.6L76.6 135.3Z" fill="#6E964B"/>
<path d="M66.3 133.4L69.8 136.4L68 138L65.4 135.6L66.3 133.4Z" fill="#6E964B"/>
<path d="M65.8 122.5L63.7 126.5L67.3 127.9L68.1 122.6L65.8 122.5Z" fill="#6E964B"/>
<path d="M86.3 133.1L90.3 138L94.1 135L91.1 132.2L86.3 133.1Z" fill="#6E964B"/>
<path d="M100.4 122.1L96.3 123.7L96.5 129L99.4 129.1L100.4 122.1Z" fill="#6E964B"/>
<path d="M100.2 107.9L95.8 109.1L98.6 111.4L104.3 110.2L100.2 107.9Z" fill="#6E964B"/>
<path d="M107.3 137.8C107.3 137.8 119.7 145.8 121.4 146.6C120.1 147.2 108.8 155.3 103.1 153.7C98.7 152.4 97.4 150.9 95.6 145.6C93.2 138 107.3 137.8 107.3 137.8Z" fill="url(#paint79_linear)" stroke="white" stroke-width="3" stroke-miterlimit="10"/>
<path d="M107.9 137.6L109.7 137.4C109.7 137.4 111.5 138.9 123.1 145.6C122.7 145.8 122.3 146 121.8 146.2C120.5 146.8 108.8 155.2 103.1 153.5C98.7 152.2 97.4 150.7 95.6 145.4C93.4 139 102.9 138.3 107.9 137.6Z" fill="url(#paint80_linear)"/>
<path d="M117.3 149.9C111.4 142.9 96.4 146.9 96.4 146.9V146.4C96.4 146.4 107.9 143.5 106.6 136.5" stroke="#363636" stroke-width="2" stroke-miterlimit="10"/>
<path d="M101.7 142C101.6 144.2 100.1 145.9 98.4 145.8C96.6 145.7 95.3 143.9 95.4 141.8C95.5 139.6 97 137.9 98.7 138C100.4 138.1 101.8 139.8 101.7 142Z" fill="url(#paint81_linear)"/>
<path d="M95.2 48L91 56.4L99.5 61.2L103 51.7L95.2 48Z" fill="url(#paint82_linear)"/>
<path d="M92.7 53.3999L98.1 66.7L105.2 58.5L101.3 51.7L92.7 53.3999Z" fill="url(#paint83_linear)"/>
<path d="M96.9 54.2L92.3 64L102.5 67L106.7 58.5L96.9 54.2Z" fill="url(#paint84_linear)"/>
<path d="M94.7 59.3999L94.3 71.1999H107.3L106.7 55.3999L94.7 59.3999Z" fill="url(#paint85_linear)"/>
<path d="M101.2 58.2998L92.1 69.3998L96.3 74.5998L107.4 68.0998L101.2 58.2998Z" fill="url(#paint86_linear)"/>
<path d="M93.4 62.4998L98.5 72.4998L108.5 68.6998L104.5 60.0999L93.4 62.4998Z" fill="url(#paint87_linear)"/>
<path d="M98.3 61.5L96 77.3L105.6 76L108.6 64.8L98.3 61.5Z" fill="url(#paint88_linear)"/>
<path d="M104.1 63.2998L97.9 71.3998L104.7 76.7998L111.5 70.2998L104.1 63.2998Z" fill="url(#paint89_linear)"/>
<path d="M100.7 68.8998L103 80.3998L114.6 76.3998L110.9 66.0999L100.7 68.8998Z" fill="url(#paint90_linear)"/>
<path d="M104.7 77.2998L111.4 89.8998L125.1 77.3998L115.4 68.0999L104.7 77.2998Z" fill="url(#paint91_linear)"/>
<path d="M107.8 71L106 86L121.2 83.9L121.6 71.5L107.8 71Z" fill="url(#paint92_linear)"/>
<path d="M125.4 69.8999L116.1 75.3999L121.1 85.4999L129.9 77.8999L125.4 69.8999Z" fill="url(#paint93_linear)"/>
<path d="M118.8 70.0998L121.4 77.5998L130.1 73.6998L125.5 66.2998L118.8 70.0998Z" fill="url(#paint94_linear)"/>
<path d="M121.8 65.2998L121.6 72.7998L130 75.8998L131.3 66.4998L121.8 65.2998Z" fill="url(#paint95_linear)"/>
<path d="M125.7 60.8999L121.7 69.0999L133.1 73.1999L132.3 64.2999L125.7 60.8999Z" fill="url(#paint96_linear)"/>
<path d="M125 55.6998L130.5 62.6998L136.1 58.0998L130.8 52.2998L125 55.6998Z" fill="url(#paint97_linear)"/>
<path d="M123.7 59.0999L127.6 65.9999L134.9 61.1999L129.4 55.3999L123.7 59.0999Z" fill="url(#paint98_linear)"/>
<path d="M122 62.3998L127.5 67.8998L133.3 65.4998L130.5 60.2998L122 62.3998Z" fill="url(#paint99_linear)"/>
<path d="M81.5 93.4C82.2 93.4 82.8 93.2 83.4 93.1C84 93 84.7 92.9 85.3 92.7L89.1 91.7999C91.6 91.1999 94.1 90.5 96.7 89.9C99.2 89.3 101.8 88.8 104.4 88.4C105.7 88.2 107 88 108.3 88C109 88 109.6 87.9 110.3 88C111 88 111.7 88.0999 112.4 88.2999H112.1C113.1 88.0999 114 88 114.9 87.9C115.8 87.8 116.8 87.8 117.7 87.9C119.6 88 121.5 88.4 123.2 89.2C124.9 89.9 126.5 91.1 127.7 92.5C128 92.9 128.3 93.2 128.5 93.6C128.8 94 129 94.3999 129.2 94.7999C129.6 95.5999 129.9 96.5 130.2 97.4C129.9 96.5 129.5 95.7 129 94.9C128.8 94.5 128.5 94.0999 128.2 93.7999C127.9 93.3999 127.6 93.1 127.3 92.7C126 91.4 124.5 90.3 122.8 89.7C121.1 89 119.3 88.7 117.5 88.7C116.6 88.7 115.7 88.6999 114.8 88.7999C113.9 88.8999 113 89 112.1 89.2H112H111.9C111.4 89 110.7 89 110.1 89C109.5 89 108.8 89 108.2 89.1C106.9 89.2 105.6 89.4 104.4 89.6C101.8 90 99.3 90.5 96.8 91L89.2 92.6C88.6 92.7 87.9 92.9 87.3 93L85.4 93.2999C84.8 93.3999 84.1 93.5 83.5 93.6C82.8 93.3 82.1 93.4 81.5 93.4Z" fill="white"/>
<path d="M112.3 89.1C112.3 89.1 112.1 89.1 111.8 89.2C111.5 89.3 111.1 89.4 110.5 89.6C110 89.8 109.4 90.1 108.8 90.5C108.2 90.9 107.6 91.3 107.1 91.9C106.8 92.2 106.6 92.5 106.3 92.7C106.1 93 105.9 93.3 105.7 93.6C105.5 93.9 105.4 94.2 105.2 94.5C105 94.8 104.9 95.1 104.8 95.3C104.7 95.6 104.6 95.8 104.5 96C104.4 96.2 104.4 96.4 104.3 96.6C104.2 96.9 104.1 97.1 104.1 97.1C104.1 97.1 104.1 96.9 104.2 96.6C104.2 96.4 104.3 96.2 104.3 96C104.3 95.8 104.4 95.5 104.5 95.2C104.6 94.9 104.7 94.6 104.8 94.3C104.9 94 105.1 93.7 105.3 93.4C105.5 93.1 105.7 92.8 105.9 92.4C106.1 92.1 106.3 91.8 106.6 91.5C107.1 90.9 107.7 90.4 108.3 89.9C108.9 89.4 109.5 89.1 110 88.8C110.5 88.5 111 88.3 111.3 88.2C111.6 88.1 111.9 88 111.8 88L112.3 89.1Z" fill="white"/>
<path d="M35.6 163.1C32.7 165.5 29.1 167 25 167C19.8 167 15.2 164.6 12.2 160.8C5.19999 161.8 0.299988 164.2 0.299988 167C0.299988 170.7 8.99999 173.8 19.7 173.8C30.4 173.8 39.1 170.8 39.1 167C39.1 165.5 37.8 164.2 35.6 163.1Z" fill="#121212"/>
<path d="M41.4 150.6C41.4 159.6 34.1 167 25 167C15.9 167 8.59998 159.7 8.59998 150.6C8.59998 141.6 15.9 135.2 25 135.2C34.1 135.2 41.4 141.5 41.4 150.6Z" stroke="url(#paint100_linear)" stroke-miterlimit="10" stroke-linecap="round"/>
<path d="M36 140.3C36 143.1 31.1 145.5 25 145.5C18.9 145.5 14 143.2 14 140.3C14 137.5 19.9 135.1 25 135.1C29.7 135.2 36 137.5 36 140.3Z" stroke="url(#paint101_linear)" stroke-miterlimit="10" stroke-linecap="round"/>
<path d="M17.8 144.2C17.8 144.2 11.1 159.2 23.5 166.9" stroke="url(#paint102_linear)" stroke-miterlimit="10" stroke-linecap="round"/>
<path d="M25 143.9C29.4182 143.9 33 142.288 33 140.3C33 138.312 29.4182 136.7 25 136.7C20.5817 136.7 17 138.312 17 140.3C17 142.288 20.5817 143.9 25 143.9Z" stroke="url(#paint103_linear)" stroke-miterlimit="10" stroke-linecap="round"/>
<path d="M23.9 143.8L18.4 129.3" stroke="url(#paint104_linear)" stroke-miterlimit="10" stroke-linecap="round"/>
<path d="M15.1 120.6L8.69998 129.3C8.69998 129.3 18.8 133.7 26.1 123.3L15.1 120.6Z" stroke="url(#paint105_linear)" stroke-miterlimit="10" stroke-linecap="round"/>
<path d="M10.8 129.3L15.1 120.6" stroke="url(#paint106_linear)" stroke-miterlimit="10" stroke-linecap="round"/>
<path d="M15.1 120.6V129.7" stroke="url(#paint107_linear)" stroke-miterlimit="10" stroke-linecap="round"/>
<path d="M15.1 120.6L21.1 127.1" stroke="url(#paint108_linear)" stroke-miterlimit="10" stroke-linecap="round"/>
<path d="M26.3 143.8L31.4 120.1" stroke="url(#paint109_linear)" stroke-miterlimit="10" stroke-linecap="round"/>
<path d="M31.4 120.1L41.4 115.1" stroke="url(#paint110_linear)" stroke-miterlimit="10" stroke-linecap="round"/>
<defs>
<linearGradient id="paint0_linear" x1="123.306" y1="56.1774" x2="135.124" y2="56.6186" gradientUnits="userSpaceOnUse">
<stop stop-color="#E0B69F"/>
<stop offset="0.8372" stop-color="#89FF6A"/>
</linearGradient>
<linearGradient id="paint1_linear" x1="90.9789" y1="53.2253" x2="97.0639" y2="47.5783" gradientUnits="userSpaceOnUse">
<stop stop-color="#FF3B3B"/>
<stop offset="1" stop-color="#F4D9C8"/>
</linearGradient>
<linearGradient id="paint2_linear" x1="171.28" y1="140.747" x2="171.853" y2="125.383" gradientUnits="userSpaceOnUse">
<stop offset="0.2723" stop-color="#28330C"/>
<stop offset="1" stop-color="#222B0A"/>
</linearGradient>
<linearGradient id="paint3_linear" x1="126.836" y1="137.289" x2="162.009" y2="104.648" gradientUnits="userSpaceOnUse">
<stop offset="0.2723" stop-color="#57703B"/>
<stop offset="1" stop-color="#90B363"/>
</linearGradient>
<linearGradient id="paint4_linear" x1="125.018" y1="128.581" x2="177.418" y2="130.537" gradientUnits="userSpaceOnUse">
<stop stop-color="#B3856C"/>
<stop offset="1" stop-color="#EBC6AE"/>
</linearGradient>
<linearGradient id="paint5_linear" x1="122.727" y1="124.881" x2="123.065" y2="115.841" gradientUnits="userSpaceOnUse">
<stop stop-color="#5E4739"/>
<stop offset="0.7676" stop-color="#4C5243"/>
</linearGradient>
<linearGradient id="paint6_linear" x1="135.265" y1="142.209" x2="166.184" y2="143.363" gradientUnits="userSpaceOnUse">
<stop stop-color="#D19C7F"/>
<stop offset="0.7676" stop-color="#EBC6AE"/>
</linearGradient>
<linearGradient id="paint7_linear" x1="125.409" y1="80.5171" x2="141.784" y2="71.8606" gradientUnits="userSpaceOnUse">
<stop stop-color="#C28867"/>
<stop offset="1" stop-color="#F8E4D0"/>
</linearGradient>
<linearGradient id="paint8_linear" x1="78.6963" y1="112.777" x2="133.87" y2="61.5756" gradientUnits="userSpaceOnUse">
<stop stop-color="#D9A88D"/>
<stop offset="1" stop-color="#FFEAD3"/>
</linearGradient>
<linearGradient id="paint9_linear" x1="109.441" y1="95.1436" x2="117.004" y2="116.599" gradientUnits="userSpaceOnUse">
<stop stop-color="#9E3600"/>
<stop offset="1" stop-color="#B58267"/>
</linearGradient>
<linearGradient id="paint10_linear" x1="100.737" y1="98.2118" x2="108.301" y2="119.668" gradientUnits="userSpaceOnUse">
<stop stop-color="#9E3600"/>
<stop offset="1" stop-color="#B58267"/>
</linearGradient>
<linearGradient id="paint11_linear" x1="109.679" y1="140.281" x2="127.318" y2="123.911" gradientUnits="userSpaceOnUse">
<stop stop-color="#D19C7F"/>
<stop offset="0.7676" stop-color="#EBC6AE"/>
</linearGradient>
<linearGradient id="paint12_linear" x1="135.265" y1="142.209" x2="166.184" y2="143.363" gradientUnits="userSpaceOnUse">
<stop stop-color="#D19C7F"/>
<stop offset="0.7676" stop-color="#EBC6AE"/>
</linearGradient>
<linearGradient id="paint13_linear" x1="65.4807" y1="105.607" x2="109.704" y2="64.5669" gradientUnits="userSpaceOnUse">
<stop stop-color="#D19C7F"/>
<stop offset="1" stop-color="#EBC6AE"/>
</linearGradient>
<linearGradient id="paint14_linear" x1="-nan" y1="-nan" x2="-nan" y2="-nan" gradientUnits="userSpaceOnUse">
<stop stop-color="#D19C7F"/>
<stop offset="1" stop-color="#EBC6AE"/>
</linearGradient>
<linearGradient id="paint15_linear" x1="84.2808" y1="145.977" x2="85.7868" y2="105.641" gradientUnits="userSpaceOnUse">
<stop offset="0.2723" stop-color="#57703B"/>
<stop offset="1" stop-color="#90B363"/>
</linearGradient>
<linearGradient id="paint16_linear" x1="87.7827" y1="146.161" x2="88.2672" y2="133.182" gradientUnits="userSpaceOnUse">
<stop stop-color="#7A5F37"/>
<stop offset="0.7676" stop-color="#414F2C"/>
</linearGradient>
<linearGradient id="paint17_linear" x1="103.755" y1="96.1433" x2="132.338" y2="97.2104" gradientUnits="userSpaceOnUse">
<stop stop-color="#DEB096"/>
<stop offset="1" stop-color="#FFF0E0"/>
</linearGradient>
<linearGradient id="paint18_linear" x1="130.371" y1="124.954" x2="163.82" y2="78.3293" gradientUnits="userSpaceOnUse">
<stop offset="0.2723"/>
<stop offset="1" stop-color="#476180"/>
</linearGradient>
<linearGradient id="paint19_linear" x1="140.25" y1="112.435" x2="158.151" y2="113.103" gradientUnits="userSpaceOnUse">
<stop stop-color="#DEB096"/>
<stop offset="1" stop-color="#FFF0E0"/>
</linearGradient>
<linearGradient id="paint20_linear" x1="107.808" y1="100.477" x2="122.843" y2="101.038" gradientUnits="userSpaceOnUse">
<stop stop-color="#D18156"/>
<stop offset="1" stop-color="#E3B496"/>
</linearGradient>
<linearGradient id="paint21_linear" x1="106.491" y1="123.458" x2="106.952" y2="111.121" gradientUnits="userSpaceOnUse">
<stop offset="0.2723" stop-color="#28330C"/>
<stop offset="1" stop-color="#222B0A"/>
</linearGradient>
<linearGradient id="paint22_linear" x1="95.0373" y1="145.37" x2="121.18" y2="146.346" gradientUnits="userSpaceOnUse">
<stop stop-color="#D19C7F"/>
<stop offset="0.7676" stop-color="#EBC6AE"/>
</linearGradient>
<linearGradient id="paint23_linear" x1="94.9901" y1="145.158" x2="122.882" y2="146.2" gradientUnits="userSpaceOnUse">
<stop stop-color="#D19C7F"/>
<stop offset="0.7676" stop-color="#EBC6AE"/>
</linearGradient>
<linearGradient id="paint24_linear" x1="95.1533" y1="141.755" x2="101.54" y2="141.994" gradientUnits="userSpaceOnUse">
<stop stop-color="#DEB096"/>
<stop offset="1" stop-color="#FFF0E0"/>
</linearGradient>
<linearGradient id="paint25_linear" x1="90.905" y1="54.3301" x2="102.723" y2="54.7714" gradientUnits="userSpaceOnUse">
<stop stop-color="#E0B69F"/>
<stop offset="0.8372" stop-color="#89FF6A"/>
</linearGradient>
<linearGradient id="paint26_linear" x1="98.89" y1="51.5742" x2="98.3253" y2="66.6975" gradientUnits="userSpaceOnUse">
<stop stop-color="#E0B69F"/>
<stop offset="0.4318" stop-color="#F0FF19"/>
</linearGradient>
<linearGradient id="paint27_linear" x1="99.5465" y1="54.3274" x2="99.0783" y2="66.8659" gradientUnits="userSpaceOnUse">
<stop stop-color="#F8FF45"/>
<stop offset="1" stop-color="#F4D9C8"/>
</linearGradient>
<linearGradient id="paint28_linear" x1="101.193" y1="55.2193" x2="100.588" y2="71.4034" gradientUnits="userSpaceOnUse">
<stop stop-color="#E0B69F"/>
<stop offset="0.5198" stop-color="#EB6AFF"/>
</linearGradient>
<linearGradient id="paint29_linear" x1="94.1007" y1="72.4972" x2="104.9" y2="62.4755" gradientUnits="userSpaceOnUse">
<stop stop-color="#E0B69F"/>
<stop offset="0.552" stop-color="#EB6AFF"/>
</linearGradient>
<linearGradient id="paint30_linear" x1="95.9631" y1="69.9863" x2="105.376" y2="61.2511" gradientUnits="userSpaceOnUse">
<stop stop-color="#9959FF"/>
<stop offset="1" stop-color="#F4D9C8"/>
</linearGradient>
<linearGradient id="paint31_linear" x1="94.3116" y1="75.6318" x2="107.28" y2="63.5972" gradientUnits="userSpaceOnUse">
<stop stop-color="#E0B69F"/>
<stop offset="0.6737" stop-color="#295BFF"/>
</linearGradient>
<linearGradient id="paint32_linear" x1="100.095" y1="73.8659" x2="107.885" y2="66.6372" gradientUnits="userSpaceOnUse">
<stop offset="0.3765" stop-color="#2BCEFF"/>
<stop offset="1" stop-color="#F4D9C8"/>
</linearGradient>
<linearGradient id="paint33_linear" x1="101.056" y1="78.5588" x2="112.415" y2="68.0174" gradientUnits="userSpaceOnUse">
<stop stop-color="#E0B69F"/>
<stop offset="0.5885" stop-color="#89FF6A"/>
</linearGradient>
<linearGradient id="paint34_linear" x1="104.439" y1="78.6821" x2="124.806" y2="79.4425" gradientUnits="userSpaceOnUse">
<stop stop-color="#82FF5C"/>
<stop offset="1" stop-color="#F4D9C8"/>
</linearGradient>
<linearGradient id="paint35_linear" x1="106.1" y1="78.4773" x2="121.138" y2="79.0388" gradientUnits="userSpaceOnUse">
<stop stop-color="#E0B69F"/>
<stop offset="0.8372" stop-color="#89FF6A"/>
</linearGradient>
<linearGradient id="paint36_linear" x1="115.825" y1="77.4155" x2="129.723" y2="77.9344" gradientUnits="userSpaceOnUse">
<stop stop-color="#FF3B3B"/>
<stop offset="1" stop-color="#F4D9C8"/>
</linearGradient>
<linearGradient id="paint37_linear" x1="119.748" y1="76.0606" x2="127.619" y2="68.7561" gradientUnits="userSpaceOnUse">
<stop stop-color="#FF3B3B"/>
<stop offset="1" stop-color="#F4D9C8"/>
</linearGradient>
<linearGradient id="paint38_linear" x1="122.279" y1="73.7749" x2="130.64" y2="66.0152" gradientUnits="userSpaceOnUse">
<stop stop-color="#9959FF"/>
<stop offset="1" stop-color="#F4D9C8"/>
</linearGradient>
<linearGradient id="paint39_linear" x1="124.031" y1="71.8294" x2="132.093" y2="64.3475" gradientUnits="userSpaceOnUse">
<stop stop-color="#E0B69F"/>
<stop offset="1" stop-color="#EB6AFF"/>
</linearGradient>
<linearGradient id="paint40_linear" x1="127.452" y1="59.6071" x2="132.792" y2="54.6514" gradientUnits="userSpaceOnUse">
<stop stop-color="#E0B69F"/>
<stop offset="1" stop-color="#295BFF"/>
</linearGradient>
<linearGradient id="paint41_linear" x1="125.258" y1="63.7201" x2="131.57" y2="57.8625" gradientUnits="userSpaceOnUse">
<stop stop-color="#4FD6FF"/>
<stop offset="1" stop-color="#F4D9C8"/>
</linearGradient>
<linearGradient id="paint42_linear" x1="125.171" y1="66.0244" x2="130.754" y2="60.8436" gradientUnits="userSpaceOnUse">
<stop stop-color="#E0B69F"/>
<stop offset="1" stop-color="#EB6AFF"/>
</linearGradient>
<linearGradient id="paint43_linear" x1="135.259" y1="142.39" x2="166.177" y2="143.544" gradientUnits="userSpaceOnUse">
<stop stop-color="#D19C7F"/>
<stop offset="0.7676" stop-color="#EBC6AE"/>
</linearGradient>
<linearGradient id="paint44_linear" x1="135.259" y1="142.39" x2="166.177" y2="143.544" gradientUnits="userSpaceOnUse">
<stop stop-color="#D19C7F"/>
<stop offset="0.7676" stop-color="#EBC6AE"/>
</linearGradient>
<linearGradient id="paint45_linear" x1="95.0305" y1="145.551" x2="121.173" y2="146.527" gradientUnits="userSpaceOnUse">
<stop stop-color="#D19C7F"/>
<stop offset="0.7676" stop-color="#EBC6AE"/>
</linearGradient>
<linearGradient id="paint46_linear" x1="94.9833" y1="145.339" x2="122.876" y2="146.38" gradientUnits="userSpaceOnUse">
<stop stop-color="#D19C7F"/>
<stop offset="0.7676" stop-color="#EBC6AE"/>
</linearGradient>
<linearGradient id="paint47_linear" x1="123.5" y1="56.1846" x2="135.318" y2="56.6259" gradientUnits="userSpaceOnUse">
<stop stop-color="#E0B69F"/>
<stop offset="0.8372" stop-color="#89FF6A"/>
</linearGradient>
<linearGradient id="paint48_linear" x1="91.1734" y1="53.2326" x2="97.2585" y2="47.5856" gradientUnits="userSpaceOnUse">
<stop stop-color="#FF3B3B"/>
<stop offset="1" stop-color="#F4D9C8"/>
</linearGradient>
<linearGradient id="paint49_linear" x1="171.474" y1="140.754" x2="172.048" y2="125.39" gradientUnits="userSpaceOnUse">
<stop offset="0.2723" stop-color="#28330C"/>
<stop offset="1" stop-color="#222B0A"/>
</linearGradient>
<linearGradient id="paint50_linear" x1="127.03" y1="137.297" x2="162.204" y2="104.655" gradientUnits="userSpaceOnUse">
<stop offset="0.2723" stop-color="#57703B"/>
<stop offset="1" stop-color="#308AB3"/>
</linearGradient>
<linearGradient id="paint51_linear" x1="125.213" y1="128.588" x2="177.613" y2="130.544" gradientUnits="userSpaceOnUse">
<stop stop-color="#B3856C"/>
<stop offset="1" stop-color="#EBC6AE"/>
</linearGradient>
<linearGradient id="paint52_linear" x1="122.922" y1="124.888" x2="123.259" y2="115.848" gradientUnits="userSpaceOnUse">
<stop stop-color="#5E4739"/>
<stop offset="0.7676" stop-color="#4C5243"/>
</linearGradient>
<linearGradient id="paint53_linear" x1="135.46" y1="142.216" x2="166.378" y2="143.371" gradientUnits="userSpaceOnUse">
<stop stop-color="#D19C7F"/>
<stop offset="0.7676" stop-color="#EBC6AE"/>
</linearGradient>
<linearGradient id="paint54_linear" x1="125.603" y1="80.5243" x2="141.979" y2="71.8678" gradientUnits="userSpaceOnUse">
<stop stop-color="#C28867"/>
<stop offset="1" stop-color="#F8E4D0"/>
</linearGradient>
<linearGradient id="paint55_linear" x1="78.8909" y1="112.785" x2="134.064" y2="61.583" gradientUnits="userSpaceOnUse">
<stop stop-color="#D9A88D"/>
<stop offset="1" stop-color="#FFEAD3"/>
</linearGradient>
<linearGradient id="paint56_linear" x1="167.136" y1="71.8969" x2="167.208" y2="71.8996" gradientUnits="userSpaceOnUse">
<stop stop-color="#9E3600"/>
<stop offset="1" stop-color="#9F3F0F"/>
</linearGradient>
<linearGradient id="paint57_linear" x1="109.635" y1="95.1509" x2="117.199" y2="116.607" gradientUnits="userSpaceOnUse">
<stop stop-color="#9E3600"/>
<stop offset="1" stop-color="#B58267"/>
</linearGradient>
<linearGradient id="paint58_linear" x1="100.931" y1="98.2191" x2="108.495" y2="119.675" gradientUnits="userSpaceOnUse">
<stop stop-color="#9E3600"/>
<stop offset="1" stop-color="#B58267"/>
</linearGradient>
<linearGradient id="paint59_linear" x1="109.873" y1="140.289" x2="127.513" y2="123.919" gradientUnits="userSpaceOnUse">
<stop stop-color="#D19C7F"/>
<stop offset="0.7676" stop-color="#EBC6AE"/>
</linearGradient>
<linearGradient id="paint60_linear" x1="135.46" y1="142.216" x2="166.378" y2="143.371" gradientUnits="userSpaceOnUse">
<stop stop-color="#D19C7F"/>
<stop offset="0.7676" stop-color="#EBC6AE"/>
</linearGradient>
<linearGradient id="paint61_linear" x1="65.6753" y1="105.614" x2="109.899" y2="64.5744" gradientUnits="userSpaceOnUse">
<stop stop-color="#D19C7F"/>
<stop offset="1" stop-color="#EBC6AE"/>
</linearGradient>
<linearGradient id="paint62_linear" x1="103.91" y1="103.026" x2="104.014" y2="102.93" gradientUnits="userSpaceOnUse">
<stop stop-color="#D19C7F"/>
<stop offset="1" stop-color="#EBC6AE"/>
</linearGradient>
<linearGradient id="paint63_linear" x1="94.9559" y1="32.9005" x2="133.953" y2="36.3478" gradientUnits="userSpaceOnUse">
<stop stop-color="#9E3600"/>
<stop offset="1" stop-color="#9F3F0F"/>
</linearGradient>
<linearGradient id="paint64_linear" x1="90.9604" y1="29.0693" x2="139.791" y2="33.3859" gradientUnits="userSpaceOnUse">
<stop stop-color="#F2CCB5"/>
<stop offset="1" stop-color="#F8F2EC"/>
</linearGradient>
<linearGradient id="paint65_linear" x1="90.3792" y1="25.9901" x2="99.4036" y2="30.0562" gradientUnits="userSpaceOnUse">
<stop stop-color="#9E3600"/>
<stop offset="1" stop-color="#9F3F0F"/>
</linearGradient>
<linearGradient id="paint66_linear" x1="92.0357" y1="25.6609" x2="101.08" y2="28.2538" gradientUnits="userSpaceOnUse">
<stop stop-color="#F2CCB5"/>
<stop offset="1" stop-color="#F8F2EC"/>
</linearGradient>
<linearGradient id="paint67_linear" x1="113.678" y1="29.3611" x2="137.492" y2="-3.05107" gradientUnits="userSpaceOnUse">
<stop offset="0.2723" stop-color="#695950"/>
<stop offset="1" stop-color="#A88B80"/>
</linearGradient>
<linearGradient id="paint68_linear" x1="108.004" y1="34.6351" x2="143.3" y2="35.9529" gradientUnits="userSpaceOnUse">
<stop stop-color="#40291C"/>
<stop offset="1" stop-color="#331B0F"/>
</linearGradient>
<linearGradient id="paint69_linear" x1="119.55" y1="42.035" x2="120.169" y2="35.0319" gradientUnits="userSpaceOnUse">
<stop offset="0.2723" stop-color="#381711"/>
<stop offset="1" stop-color="#476180"/>
</linearGradient>
<linearGradient id="paint70_linear" x1="136.629" y1="41.2605" x2="137.046" y2="36.5423" gradientUnits="userSpaceOnUse">
<stop offset="0.2723" stop-color="#381711"/>
<stop offset="1" stop-color="#476180"/>
</linearGradient>
<linearGradient id="paint71_linear" x1="84.4754" y1="145.984" x2="85.9814" y2="105.648" gradientUnits="userSpaceOnUse">
<stop offset="0.2723" stop-color="#57703B"/>
<stop offset="1" stop-color="#3B9FB3"/>
</linearGradient>
<linearGradient id="paint72_linear" x1="87.9771" y1="146.168" x2="88.4617" y2="133.19" gradientUnits="userSpaceOnUse">
<stop stop-color="#7A5F37"/>
<stop offset="0.7676" stop-color="#414F2C"/>
</linearGradient>
<linearGradient id="paint73_linear" x1="103.949" y1="96.1506" x2="132.532" y2="97.2178" gradientUnits="userSpaceOnUse">
<stop stop-color="#DEB096"/>
<stop offset="1" stop-color="#FFF0E0"/>
</linearGradient>
<linearGradient id="paint74_linear" x1="130.566" y1="124.961" x2="164.015" y2="78.3368" gradientUnits="userSpaceOnUse">
<stop offset="0.2723"/>
<stop offset="1" stop-color="#476180"/>
</linearGradient>
<linearGradient id="paint75_linear" x1="140.444" y1="112.442" x2="158.345" y2="113.11" gradientUnits="userSpaceOnUse">
<stop stop-color="#DEB096"/>
<stop offset="1" stop-color="#FFF0E0"/>
</linearGradient>
<linearGradient id="paint76_linear" x1="108.002" y1="100.484" x2="123.037" y2="101.046" gradientUnits="userSpaceOnUse">
<stop stop-color="#D18156"/>
<stop offset="1" stop-color="#E3B496"/>
</linearGradient>
<linearGradient id="paint77_linear" x1="116.457" y1="98.2344" x2="177.096" y2="100.498" gradientUnits="userSpaceOnUse">
<stop offset="0.2723" stop-color="#4C7AA6"/>
<stop offset="1" stop-color="#476180"/>
</linearGradient>
<linearGradient id="paint78_linear" x1="106.686" y1="123.465" x2="107.146" y2="111.128" gradientUnits="userSpaceOnUse">
<stop offset="0.2723" stop-color="#28330C"/>
<stop offset="1" stop-color="#222B0A"/>
</linearGradient>
<linearGradient id="paint79_linear" x1="95.2319" y1="145.377" x2="121.374" y2="146.353" gradientUnits="userSpaceOnUse">
<stop stop-color="#D19C7F"/>
<stop offset="0.7676" stop-color="#EBC6AE"/>
</linearGradient>
<linearGradient id="paint80_linear" x1="95.1846" y1="145.165" x2="123.077" y2="146.207" gradientUnits="userSpaceOnUse">
<stop stop-color="#D19C7F"/>
<stop offset="0.7676" stop-color="#EBC6AE"/>
</linearGradient>
<linearGradient id="paint81_linear" x1="95.3478" y1="141.763" x2="101.735" y2="142.001" gradientUnits="userSpaceOnUse">
<stop stop-color="#DEB096"/>
<stop offset="1" stop-color="#FFF0E0"/>
</linearGradient>
<linearGradient id="paint82_linear" x1="91.0996" y1="54.3377" x2="102.918" y2="54.7789" gradientUnits="userSpaceOnUse">
<stop stop-color="#E0B69F"/>
<stop offset="0.8372" stop-color="#89FF6A"/>
</linearGradient>
<linearGradient id="paint83_linear" x1="99.0845" y1="51.5817" x2="98.5199" y2="66.705" gradientUnits="userSpaceOnUse">
<stop stop-color="#E0B69F"/>
<stop offset="0.4318" stop-color="#F0FF19"/>
</linearGradient>
<linearGradient id="paint84_linear" x1="99.7411" y1="54.3349" x2="99.2729" y2="66.8734" gradientUnits="userSpaceOnUse">
<stop stop-color="#F8FF45"/>
<stop offset="1" stop-color="#F4D9C8"/>
</linearGradient>
<linearGradient id="paint85_linear" x1="101.387" y1="55.2266" x2="100.783" y2="71.4107" gradientUnits="userSpaceOnUse">
<stop stop-color="#E0B69F"/>
<stop offset="0.5198" stop-color="#EB6AFF"/>
</linearGradient>
<linearGradient id="paint86_linear" x1="94.2952" y1="72.5045" x2="105.094" y2="62.4828" gradientUnits="userSpaceOnUse">
<stop stop-color="#E0B69F"/>
<stop offset="0.552" stop-color="#EB6AFF"/>
</linearGradient>
<linearGradient id="paint87_linear" x1="96.1576" y1="69.9936" x2="105.57" y2="61.2583" gradientUnits="userSpaceOnUse">
<stop stop-color="#9959FF"/>
<stop offset="1" stop-color="#F4D9C8"/>
</linearGradient>
<linearGradient id="paint88_linear" x1="94.506" y1="75.6393" x2="107.474" y2="63.6047" gradientUnits="userSpaceOnUse">
<stop stop-color="#E0B69F"/>
<stop offset="0.6737" stop-color="#295BFF"/>
</linearGradient>
<linearGradient id="paint89_linear" x1="100.29" y1="73.8732" x2="108.079" y2="66.6445" gradientUnits="userSpaceOnUse">
<stop offset="0.3765" stop-color="#2BCEFF"/>
<stop offset="1" stop-color="#F4D9C8"/>
</linearGradient>
<linearGradient id="paint90_linear" x1="101.25" y1="78.5661" x2="112.609" y2="68.0246" gradientUnits="userSpaceOnUse">
<stop stop-color="#E0B69F"/>
<stop offset="0.5885" stop-color="#89FF6A"/>
</linearGradient>
<linearGradient id="paint91_linear" x1="104.633" y1="78.6893" x2="125.001" y2="79.4498" gradientUnits="userSpaceOnUse">
<stop stop-color="#82FF5C"/>
<stop offset="1" stop-color="#F4D9C8"/>
</linearGradient>
<linearGradient id="paint92_linear" x1="106.295" y1="78.4848" x2="121.332" y2="79.0463" gradientUnits="userSpaceOnUse">
<stop stop-color="#E0B69F"/>
<stop offset="0.8372" stop-color="#89FF6A"/>
</linearGradient>
<linearGradient id="paint93_linear" x1="116.019" y1="77.4227" x2="129.917" y2="77.9416" gradientUnits="userSpaceOnUse">
<stop stop-color="#FF3B3B"/>
<stop offset="1" stop-color="#F4D9C8"/>
</linearGradient>
<linearGradient id="paint94_linear" x1="119.942" y1="76.0678" x2="127.813" y2="68.7634" gradientUnits="userSpaceOnUse">
<stop stop-color="#FF3B3B"/>
<stop offset="1" stop-color="#F4D9C8"/>
</linearGradient>
<linearGradient id="paint95_linear" x1="122.473" y1="73.7822" x2="130.835" y2="66.0225" gradientUnits="userSpaceOnUse">
<stop stop-color="#9959FF"/>
<stop offset="1" stop-color="#F4D9C8"/>
</linearGradient>
<linearGradient id="paint96_linear" x1="124.226" y1="71.8366" x2="132.288" y2="64.3548" gradientUnits="userSpaceOnUse">
<stop stop-color="#E0B69F"/>
<stop offset="1" stop-color="#EB6AFF"/>
</linearGradient>
<linearGradient id="paint97_linear" x1="127.647" y1="59.6143" x2="132.987" y2="54.6586" gradientUnits="userSpaceOnUse">
<stop stop-color="#E0B69F"/>
<stop offset="1" stop-color="#295BFF"/>
</linearGradient>
<linearGradient id="paint98_linear" x1="125.452" y1="63.7274" x2="131.764" y2="57.8697" gradientUnits="userSpaceOnUse">
<stop stop-color="#4FD6FF"/>
<stop offset="1" stop-color="#F4D9C8"/>
</linearGradient>
<linearGradient id="paint99_linear" x1="125.366" y1="66.0317" x2="130.949" y2="60.8509" gradientUnits="userSpaceOnUse">
<stop stop-color="#E0B69F"/>
<stop offset="1" stop-color="#EB6AFF"/>
</linearGradient>
<linearGradient id="paint100_linear" x1="8.14978" y1="151.044" x2="41.8892" y2="151.044" gradientUnits="userSpaceOnUse">
<stop stop-color="#A6BBC7"/>
<stop offset="1" stop-color="#E6DDDA"/>
</linearGradient>
<linearGradient id="paint101_linear" x1="13.548" y1="140.314" x2="36.4911" y2="140.314" gradientUnits="userSpaceOnUse">
<stop stop-color="#A6BBC7"/>
<stop offset="1" stop-color="#E6DDDA"/>
</linearGradient>
<linearGradient id="paint102_linear" x1="15.4679" y1="155.511" x2="23.9218" y2="155.511" gradientUnits="userSpaceOnUse">
<stop stop-color="#A6BBC7"/>
<stop offset="1" stop-color="#E6DDDA"/>
</linearGradient>
<linearGradient id="paint103_linear" x1="16.5088" y1="140.314" x2="33.5302" y2="140.314" gradientUnits="userSpaceOnUse">
<stop stop-color="#A6BBC7"/>
<stop offset="1" stop-color="#E6DDDA"/>
</linearGradient>
<linearGradient id="paint104_linear" x1="17.8823" y1="136.584" x2="24.3509" y2="136.584" gradientUnits="userSpaceOnUse">
<stop stop-color="#A6BBC7"/>
<stop offset="1" stop-color="#E6DDDA"/>
</linearGradient>
<linearGradient id="paint105_linear" x1="7.87438" y1="125.414" x2="26.8934" y2="125.414" gradientUnits="userSpaceOnUse">
<stop stop-color="#A6BBC7"/>
<stop offset="1" stop-color="#E6DDDA"/>
</linearGradient>
<linearGradient id="paint106_linear" x1="10.3295" y1="124.954" x2="15.5932" y2="124.954" gradientUnits="userSpaceOnUse">
<stop stop-color="#A6BBC7"/>
<stop offset="1" stop-color="#E6DDDA"/>
</linearGradient>
<linearGradient id="paint107_linear" x1="-nan" y1="-nan" x2="-nan" y2="-nan" gradientUnits="userSpaceOnUse">
<stop stop-color="#A6BBC7"/>
<stop offset="1" stop-color="#E6DDDA"/>
</linearGradient>
<linearGradient id="paint108_linear" x1="14.5932" y1="123.826" x2="21.6166" y2="123.826" gradientUnits="userSpaceOnUse">
<stop stop-color="#A6BBC7"/>
<stop offset="1" stop-color="#E6DDDA"/>
</linearGradient>
<linearGradient id="paint109_linear" x1="25.7948" y1="131.976" x2="31.8758" y2="131.976" gradientUnits="userSpaceOnUse">
<stop stop-color="#A6BBC7"/>
<stop offset="1" stop-color="#E6DDDA"/>
</linearGradient>
<linearGradient id="paint110_linear" x1="30.8758" y1="117.587" x2="41.8892" y2="117.587" gradientUnits="userSpaceOnUse">
<stop stop-color="#A6BBC7"/>
<stop offset="1" stop-color="#E6DDDA"/>
</linearGradient>
</defs>
</svg>
