<svg width="68" height="68" viewBox="0 0 68 68" fill="none" xmlns="http://www.w3.org/2000/svg">
<circle cx="34" cy="34" r="34" fill="#F2F2F2"/>
<path d="M48.8249 19.3119C43.8718 17.9565 38.8895 15.846 34.4167 13.2086C34.1791 13.0685 33.8843 13.0685 33.6468 13.2086C29.045 15.9217 24.332 17.9181 19.2382 19.3119C18.9091 19.4019 18.681 19.7006 18.681 20.0414V27.769C18.681 35.7267 22.3569 40.9942 25.4406 44.0117C28.7605 47.2605 32.6277 49.0571 34.0318 49.0571C35.4357 49.0571 39.3029 47.2605 42.6227 44.0117C45.7064 40.9943 49.3821 35.7268 49.3821 27.769V20.0413C49.3821 19.7006 49.154 19.4019 48.8249 19.3119ZM47.8675 27.7689C47.8675 35.2014 44.439 40.1166 41.5627 42.9312C38.298 46.1259 34.8075 47.5444 34.0318 47.5444C33.256 47.5444 29.7653 46.1259 26.5005 42.9312C23.6243 40.1165 20.1956 35.2014 20.1956 27.7689V20.6154C25.0667 19.2342 29.6031 17.3065 34.0319 14.7362C38.3501 17.2383 43.1128 19.2618 47.8675 20.6152V27.7689Z" fill="black" stroke="#1D1D1B" stroke-width="2"/>
<path d="M40.2645 25.7498C40.4435 25.571 40.6816 25.4727 40.9349 25.4727C41.1883 25.4727 41.4262 25.571 41.6053 25.7498C41.9748 26.1188 41.9748 26.7195 41.6052 27.0886L32.2706 36.4114C32.0916 36.5901 31.8535 36.6885 31.6002 36.6885C31.3469 36.6885 31.1088 36.5901 30.9298 36.4114L26.4583 31.9458C26.0887 31.5766 26.0887 30.9759 26.4582 30.6069C26.6372 30.4282 26.8754 30.3297 27.1287 30.3297C27.382 30.3297 27.62 30.4281 27.799 30.6068L31.0646 33.8683C31.2067 34.0101 31.3993 34.0898 31.6001 34.0898C31.801 34.0898 31.9935 34.0102 32.1355 33.8683L40.2645 25.7498Z" fill="#1D1D1B" stroke="#1D1D1B" stroke-width="2"/>
</svg>
