<svg width="374" height="364" viewBox="0 0 374 364" fill="none" xmlns="http://www.w3.org/2000/svg">
  <mask id="path-1-inside-1" fill="white">
  <path fill-rule="evenodd" clip-rule="evenodd" d="M189.994 171.521C189.994 204.615 163.131 231.443 129.994 231.443C96.8564 231.443 69.9935 204.615 69.9935 171.521C69.9935 138.427 96.8564 111.599 129.994 111.599C163.131 111.599 189.994 138.427 189.994 171.521ZM21.2435 360.028C21.2435 300.044 69.9325 251.418 129.994 251.418C190.055 251.418 238.744 300.044 238.744 360.028H21.2435Z"/>
  </mask>
  <path d="M21.2435 360.028H20.2435V361.028H21.2435V360.028ZM238.744 360.028V361.028H239.744V360.028H238.744ZM129.994 232.443C163.682 232.443 190.994 205.169 190.994 171.521H188.994C188.994 204.062 162.58 230.443 129.994 230.443V232.443ZM68.9935 171.521C68.9935 205.169 96.3054 232.443 129.994 232.443V230.443C97.4075 230.443 70.9935 204.062 70.9935 171.521H68.9935ZM129.994 110.599C96.3054 110.599 68.9935 137.873 68.9935 171.521H70.9935C70.9935 138.98 97.4075 112.599 129.994 112.599V110.599ZM190.994 171.521C190.994 137.873 163.682 110.599 129.994 110.599V112.599C162.58 112.599 188.994 138.98 188.994 171.521H190.994ZM129.994 250.418C69.3815 250.418 20.2435 299.491 20.2435 360.028H22.2435C22.2435 300.598 70.4836 252.418 129.994 252.418V250.418ZM239.744 360.028C239.744 299.491 190.606 250.418 129.994 250.418V252.418C189.503 252.418 237.744 300.598 237.744 360.028H239.744ZM21.2435 361.028H238.744V359.028H21.2435V361.028Z" fill="#F2F2F2" mask="url(#path-1-inside-1)"/>
  <mask id="path-3-inside-2" fill="white">
  <path fill-rule="evenodd" clip-rule="evenodd" d="M193.494 174.517C193.494 207.611 166.631 234.439 133.494 234.439C100.356 234.439 73.4935 207.611 73.4935 174.517C73.4935 141.423 100.356 114.595 133.494 114.595C166.631 114.595 193.494 141.423 193.494 174.517ZM24.7435 363.023C24.7435 303.04 73.4325 254.414 133.494 254.414C193.555 254.414 242.244 303.04 242.244 363.023H24.7435Z"/>
  </mask>
  <path d="M24.7435 363.023H23.7435V364.023H24.7435V363.023ZM242.244 363.023V364.023H243.244V363.023H242.244ZM133.494 235.439C167.182 235.439 194.494 208.165 194.494 174.517H192.494C192.494 207.058 166.08 233.439 133.494 233.439V235.439ZM72.4935 174.517C72.4935 208.165 99.8054 235.439 133.494 235.439V233.439C100.908 233.439 74.4935 207.058 74.4935 174.517H72.4935ZM133.494 113.595C99.8054 113.595 72.4935 140.869 72.4935 174.517H74.4935C74.4935 141.976 100.908 115.595 133.494 115.595V113.595ZM194.494 174.517C194.494 140.869 167.182 113.595 133.494 113.595V115.595C166.08 115.595 192.494 141.976 192.494 174.517H194.494ZM133.494 253.414C72.8815 253.414 23.7435 302.487 23.7435 363.023H25.7435C25.7435 303.594 73.9836 255.414 133.494 255.414V253.414ZM243.244 363.023C243.244 302.487 194.106 253.414 133.494 253.414V255.414C193.003 255.414 241.244 303.594 241.244 363.023H243.244ZM24.7435 364.023H242.244V362.023H24.7435V364.023Z" fill="#F2F2F2" mask="url(#path-3-inside-2)"/>
  <mask id="path-5-inside-3" fill="white">
  <path fill-rule="evenodd" clip-rule="evenodd" d="M182.994 165.529C182.994 198.623 156.131 225.451 122.994 225.451C89.8564 225.451 62.9935 198.623 62.9935 165.529C62.9935 132.435 89.8564 105.606 122.994 105.606C156.131 105.606 182.994 132.435 182.994 165.529ZM14.2435 354.035C14.2435 294.052 62.9325 245.426 122.994 245.426C183.055 245.426 231.744 294.052 231.744 354.035H14.2435Z"/>
  </mask>
  <path d="M14.2435 354.035H13.2435V355.035H14.2435V354.035ZM231.744 354.035V355.035H232.744V354.035H231.744ZM122.994 226.451C156.682 226.451 183.994 199.177 183.994 165.529H181.994C181.994 198.07 155.58 224.451 122.994 224.451V226.451ZM61.9935 165.529C61.9935 199.177 89.3054 226.451 122.994 226.451V224.451C90.4075 224.451 63.9935 198.07 63.9935 165.529H61.9935ZM122.994 104.606C89.3054 104.606 61.9935 131.881 61.9935 165.529H63.9935C63.9935 132.988 90.4075 106.606 122.994 106.606V104.606ZM183.994 165.529C183.994 131.881 156.682 104.606 122.994 104.606V106.606C155.58 106.606 181.994 132.988 181.994 165.529H183.994ZM122.994 244.426C62.3815 244.426 13.2435 293.498 13.2435 354.035H15.2435C15.2435 294.605 63.4836 246.426 122.994 246.426V244.426ZM232.744 354.035C232.744 293.498 183.606 244.426 122.994 244.426V246.426C182.503 246.426 230.744 294.605 230.744 354.035H232.744ZM14.2435 355.035H231.744V353.035H14.2435V355.035Z" fill="#E0E0E0" mask="url(#path-5-inside-3)"/>
  <mask id="path-7-inside-4" fill="white">
  <path fill-rule="evenodd" clip-rule="evenodd" d="M186.494 168.525C186.494 201.62 159.631 228.448 126.494 228.448C93.3564 228.448 66.4935 201.62 66.4935 168.525C66.4935 135.431 93.3564 108.603 126.494 108.603C159.631 108.603 186.494 135.431 186.494 168.525ZM17.7435 357.031C17.7435 297.048 66.4325 248.422 126.494 248.422C186.555 248.422 235.244 297.048 235.244 357.031H17.7435Z"/>
  </mask>
  <path d="M17.7435 357.031H16.7435V358.031H17.7435V357.031ZM235.244 357.031V358.031H236.244V357.031H235.244ZM126.494 229.448C160.182 229.448 187.494 202.173 187.494 168.525H185.494C185.494 201.066 159.08 227.448 126.494 227.448V229.448ZM65.4935 168.525C65.4935 202.173 92.8054 229.448 126.494 229.448V227.448C93.9075 227.448 67.4935 201.066 67.4935 168.525H65.4935ZM126.494 107.603C92.8054 107.603 65.4935 134.877 65.4935 168.525H67.4935C67.4935 135.984 93.9075 109.603 126.494 109.603V107.603ZM187.494 168.525C187.494 134.877 160.182 107.603 126.494 107.603V109.603C159.08 109.603 185.494 135.984 185.494 168.525H187.494ZM126.494 247.422C65.8815 247.422 16.7435 296.494 16.7435 357.031H18.7435C18.7435 297.601 66.9836 249.422 126.494 249.422V247.422ZM236.244 357.031C236.244 296.494 187.106 247.422 126.494 247.422V249.422C186.003 249.422 234.244 297.601 234.244 357.031H236.244ZM17.7435 358.031H235.244V356.031H17.7435V358.031Z" fill="#E0E0E0" mask="url(#path-7-inside-4)"/>
  <mask id="path-9-inside-5" fill="white">
  <path fill-rule="evenodd" clip-rule="evenodd" d="M179.494 162.533C179.494 195.628 152.631 222.456 119.494 222.456C86.3564 222.456 59.4935 195.628 59.4935 162.533C59.4935 129.439 86.3564 102.61 119.494 102.61C152.631 102.61 179.494 129.439 179.494 162.533ZM10.7435 351.039C10.7435 291.056 59.4325 242.43 119.494 242.43C179.555 242.43 228.244 291.056 228.244 351.039H10.7435Z"/>
  </mask>
  <path d="M10.7435 351.039H9.74353V352.039H10.7435V351.039ZM228.244 351.039V352.039H229.244V351.039H228.244ZM119.494 223.456C153.182 223.456 180.494 196.181 180.494 162.533H178.494C178.494 195.074 152.08 221.456 119.494 221.456V223.456ZM58.4935 162.533C58.4935 196.181 85.8054 223.456 119.494 223.456V221.456C86.9075 221.456 60.4935 195.074 60.4935 162.533H58.4935ZM119.494 101.61C85.8054 101.61 58.4935 128.885 58.4935 162.533H60.4935C60.4935 129.992 86.9075 103.61 119.494 103.61V101.61ZM180.494 162.533C180.494 128.885 153.182 101.61 119.494 101.61V103.61C152.08 103.61 178.494 129.992 178.494 162.533H180.494ZM119.494 241.43C58.8815 241.43 9.74353 290.502 9.74353 351.039H11.7435C11.7435 291.609 59.9836 243.43 119.494 243.43V241.43ZM229.244 351.039C229.244 290.502 180.106 241.43 119.494 241.43V243.43C179.003 243.43 227.244 291.609 227.244 351.039H229.244ZM10.7435 352.039H228.244V350.039H10.7435V352.039Z" fill="#BDBDBD" mask="url(#path-9-inside-5)"/>
  <mask id="path-11-inside-6" fill="white">
  <path fill-rule="evenodd" clip-rule="evenodd" d="M175.994 159.537C175.994 192.631 149.131 219.459 115.994 219.459C82.8564 219.459 55.9935 192.631 55.9935 159.537C55.9935 126.442 82.8564 99.6143 115.994 99.6143C149.131 99.6143 175.994 126.442 175.994 159.537ZM7.24353 348.043C7.24353 288.06 55.9325 239.434 115.994 239.434C176.055 239.434 224.744 288.06 224.744 348.043H7.24353Z"/>
  </mask>
  <path d="M7.24353 348.043H6.24353V349.043H7.24353V348.043ZM224.744 348.043V349.043H225.744V348.043H224.744ZM115.994 220.459C149.682 220.459 176.994 193.184 176.994 159.537H174.994C174.994 192.077 148.58 218.459 115.994 218.459V220.459ZM54.9935 159.537C54.9935 193.184 82.3054 220.459 115.994 220.459V218.459C83.4075 218.459 56.9935 192.077 56.9935 159.537H54.9935ZM115.994 98.6143C82.3054 98.6143 54.9935 125.889 54.9935 159.537H56.9935C56.9935 126.996 83.4075 100.614 115.994 100.614V98.6143ZM176.994 159.537C176.994 125.889 149.682 98.6143 115.994 98.6143V100.614C148.58 100.614 174.994 126.996 174.994 159.537H176.994ZM115.994 238.434C55.3815 238.434 6.24353 287.506 6.24353 348.043H8.24353C8.24353 288.613 56.4836 240.434 115.994 240.434V238.434ZM225.744 348.043C225.744 287.506 176.606 238.434 115.994 238.434V240.434C175.503 240.434 223.744 288.613 223.744 348.043H225.744ZM7.24353 349.043H224.744V347.043H7.24353V349.043Z" fill="#BDBDBD" mask="url(#path-11-inside-6)"/>
  <mask id="path-13-inside-7" fill="white">
  <path fill-rule="evenodd" clip-rule="evenodd" d="M172.494 156.54C172.494 189.635 145.631 216.463 112.494 216.463C79.3564 216.463 52.4935 189.635 52.4935 156.54C52.4935 123.446 79.3564 96.6172 112.494 96.6172C145.631 96.6172 172.494 123.446 172.494 156.54ZM3.74353 345.047C3.74353 285.064 52.4325 236.438 112.494 236.438C172.555 236.438 221.244 285.064 221.244 345.047H3.74353Z"/>
  </mask>
  <path d="M3.74353 345.047H2.74353V346.047H3.74353V345.047ZM221.244 345.047V346.047H222.244V345.047H221.244ZM112.494 217.463C146.182 217.463 173.494 190.188 173.494 156.54H171.494C171.494 189.081 145.08 215.463 112.494 215.463V217.463ZM51.4935 156.54C51.4935 190.188 78.8054 217.463 112.494 217.463V215.463C79.9075 215.463 53.4935 189.081 53.4935 156.54H51.4935ZM112.494 95.6172C78.8054 95.6172 51.4935 122.892 51.4935 156.54H53.4935C53.4935 123.999 79.9075 97.6172 112.494 97.6172V95.6172ZM173.494 156.54C173.494 122.892 146.182 95.6172 112.494 95.6172V97.6172C145.08 97.6172 171.494 123.999 171.494 156.54H173.494ZM112.494 235.438C51.8815 235.438 2.74353 284.51 2.74353 345.047H4.74353C4.74353 285.617 52.9836 237.438 112.494 237.438V235.438ZM222.244 345.047C222.244 284.51 173.106 235.438 112.494 235.438V237.438C172.003 237.438 220.244 285.617 220.244 345.047H222.244ZM3.74353 346.047H221.244V344.047H3.74353V346.047Z" fill="#828282" mask="url(#path-13-inside-7)"/>
  <mask id="path-15-inside-8" fill="white">
  <path fill-rule="evenodd" clip-rule="evenodd" d="M168.994 153.544C168.994 186.639 142.131 213.467 108.994 213.467C75.8564 213.467 48.9935 186.639 48.9935 153.544C48.9935 120.45 75.8564 93.6221 108.994 93.6221C142.131 93.6221 168.994 120.45 168.994 153.544ZM0.24353 342.051C0.24353 282.067 48.9325 233.441 108.994 233.441C169.055 233.441 217.744 282.067 217.744 342.051H0.24353Z"/>
  </mask>
  <path d="M0.24353 342.051H-0.75647V343.051H0.24353V342.051ZM217.744 342.051V343.051H218.744V342.051H217.744ZM108.994 214.467C142.682 214.467 169.994 187.192 169.994 153.544H167.994C167.994 186.085 141.58 212.467 108.994 212.467V214.467ZM47.9935 153.544C47.9935 187.192 75.3054 214.467 108.994 214.467V212.467C76.4075 212.467 49.9935 186.085 49.9935 153.544H47.9935ZM108.994 92.6221C75.3054 92.6221 47.9935 119.897 47.9935 153.544H49.9935C49.9935 121.004 76.4075 94.6221 108.994 94.6221V92.6221ZM169.994 153.544C169.994 119.897 142.682 92.6221 108.994 92.6221V94.6221C141.58 94.6221 167.994 121.004 167.994 153.544H169.994ZM108.994 232.441C48.3815 232.441 -0.75647 281.514 -0.75647 342.051H1.24353C1.24353 282.621 49.4836 234.441 108.994 234.441V232.441ZM218.744 342.051C218.744 281.514 169.606 232.441 108.994 232.441V234.441C168.503 234.441 216.744 282.621 216.744 342.051H218.744ZM0.24353 343.051H217.744V341.051H0.24353V343.051Z" fill="#828282" mask="url(#path-15-inside-8)"/>
  <mask id="path-17-inside-9" fill="white">
  <path fill-rule="evenodd" clip-rule="evenodd" d="M342.61 46.3442C342.61 65.62 326.965 81.2461 307.664 81.2461C288.364 81.2461 272.718 65.62 272.718 46.3442C272.718 27.0685 288.364 11.4424 307.664 11.4424C326.965 11.4424 342.61 27.0685 342.61 46.3442ZM244.324 156.139C244.324 121.202 272.682 92.8799 307.664 92.8799C342.646 92.8799 371.004 121.202 371.004 156.139H244.324Z"/>
  </mask>
  <path d="M244.324 156.139H243.724V156.739H244.324V156.139ZM371.004 156.139V156.739H371.604V156.139H371.004ZM307.664 81.8461C327.295 81.8461 343.21 65.9521 343.21 46.3442H342.01C342.01 65.2879 326.634 80.6461 307.664 80.6461V81.8461ZM272.118 46.3442C272.118 65.9521 288.033 81.8461 307.664 81.8461V80.6461C288.695 80.6461 273.318 65.2879 273.318 46.3442H272.118ZM307.664 10.8424C288.033 10.8424 272.118 26.7364 272.118 46.3442H273.318C273.318 27.4006 288.695 12.0424 307.664 12.0424V10.8424ZM343.21 46.3442C343.21 26.7364 327.295 10.8424 307.664 10.8424V12.0424C326.634 12.0424 342.01 27.4006 342.01 46.3442H343.21ZM307.664 92.2799C272.352 92.2799 243.724 120.87 243.724 156.139H244.924C244.924 121.534 273.013 93.4799 307.664 93.4799V92.2799ZM371.604 156.139C371.604 120.87 342.977 92.2799 307.664 92.2799V93.4799C342.315 93.4799 370.404 121.534 370.404 156.139H371.604ZM244.324 156.739H371.004V155.539H244.324V156.739Z" fill="#F2F2F2" mask="url(#path-17-inside-9)"/>
  <mask id="path-19-inside-10" fill="white">
  <path fill-rule="evenodd" clip-rule="evenodd" d="M345.291 48.0894C345.291 67.3646 329.645 82.9902 310.344 82.9902C291.044 82.9902 275.398 67.3646 275.398 48.0894C275.398 28.8141 291.044 13.1885 310.344 13.1885C329.645 13.1885 345.291 28.8141 345.291 48.0894ZM247.004 157.883C247.004 122.946 275.363 94.625 310.344 94.625C345.326 94.625 373.684 122.946 373.684 157.883H247.004Z"/>
  </mask>
  <path d="M247.004 157.883H246.404V158.483H247.004V157.883ZM373.684 157.883V158.483H374.284V157.883H373.684ZM310.344 83.5902C329.975 83.5902 345.891 67.6967 345.891 48.0894H344.691C344.691 67.0325 329.314 82.3902 310.344 82.3902V83.5902ZM274.798 48.0894C274.798 67.6967 290.713 83.5902 310.344 83.5902V82.3902C291.375 82.3902 275.998 67.0325 275.998 48.0894H274.798ZM310.344 12.5885C290.713 12.5885 274.798 28.482 274.798 48.0894H275.998C275.998 29.1462 291.375 13.7885 310.344 13.7885V12.5885ZM345.891 48.0894C345.891 28.482 329.975 12.5885 310.344 12.5885V13.7885C329.314 13.7885 344.691 29.1462 344.691 48.0894H345.891ZM310.344 94.025C275.032 94.025 246.404 122.614 246.404 157.883H247.604C247.604 123.279 275.693 95.225 310.344 95.225V94.025ZM374.284 157.883C374.284 122.614 345.657 94.025 310.344 94.025V95.225C344.996 95.225 373.084 123.279 373.084 157.883H374.284ZM247.004 158.483H373.684V157.283H247.004V158.483Z" fill="#F2F2F2" mask="url(#path-19-inside-10)"/>
  <mask id="path-21-inside-11" fill="white">
  <path fill-rule="evenodd" clip-rule="evenodd" d="M337.25 42.855C337.25 62.1302 321.604 77.7559 302.304 77.7559C283.004 77.7559 267.358 62.1302 267.358 42.855C267.358 23.5798 283.004 7.9541 302.304 7.9541C321.604 7.9541 337.25 23.5798 337.25 42.855ZM238.964 152.647C238.964 117.711 267.322 89.3887 302.304 89.3887C337.286 89.3887 365.644 117.711 365.644 152.647H238.964Z"/>
  </mask>
  <path d="M238.964 152.647H238.364V153.247H238.964V152.647ZM365.644 152.647V153.247H366.244V152.647H365.644ZM302.304 78.3559C321.935 78.3559 337.85 62.4623 337.85 42.855H336.65C336.65 61.7981 321.274 77.1559 302.304 77.1559V78.3559ZM266.758 42.855C266.758 62.4623 282.673 78.3559 302.304 78.3559V77.1559C283.334 77.1559 267.958 61.7981 267.958 42.855H266.758ZM302.304 7.3541C282.673 7.3541 266.758 23.2477 266.758 42.855H267.958C267.958 23.9119 283.334 8.5541 302.304 8.5541V7.3541ZM337.85 42.855C337.85 23.2477 321.935 7.3541 302.304 7.3541V8.5541C321.274 8.5541 336.65 23.9119 336.65 42.855H337.85ZM302.304 88.7887C266.992 88.7887 238.364 117.378 238.364 152.647H239.564C239.564 118.043 267.653 89.9887 302.304 89.9887V88.7887ZM366.244 152.647C366.244 117.378 337.617 88.7887 302.304 88.7887V89.9887C336.955 89.9887 365.044 118.043 365.044 152.647H366.244ZM238.964 153.247H365.644V152.047H238.964V153.247Z" fill="#E0E0E0" mask="url(#path-21-inside-11)"/>
  <mask id="path-23-inside-12" fill="white">
  <path fill-rule="evenodd" clip-rule="evenodd" d="M339.93 44.5996C339.93 63.8751 324.284 79.501 304.984 79.501C285.684 79.501 270.038 63.8751 270.038 44.5996C270.038 25.3241 285.684 9.69824 304.984 9.69824C324.284 9.69824 339.93 25.3241 339.93 44.5996ZM241.644 154.393C241.644 119.456 270.002 91.1348 304.984 91.1348C339.966 91.1348 368.324 119.456 368.324 154.393H241.644Z"/>
  </mask>
  <path d="M241.644 154.393H241.044V154.993H241.644V154.393ZM368.324 154.393V154.993H368.924V154.393H368.324ZM304.984 80.101C324.615 80.101 340.53 64.2072 340.53 44.5996H339.33C339.33 63.543 323.954 78.901 304.984 78.901V80.101ZM269.438 44.5996C269.438 64.2072 285.353 80.101 304.984 80.101V78.901C286.015 78.901 270.638 63.543 270.638 44.5996H269.438ZM304.984 9.09824C285.353 9.09824 269.438 24.992 269.438 44.5996H270.638C270.638 25.6562 286.015 10.2982 304.984 10.2982V9.09824ZM340.53 44.5996C340.53 24.992 324.615 9.09824 304.984 9.09824V10.2982C323.954 10.2982 339.33 25.6562 339.33 44.5996H340.53ZM304.984 90.5348C269.672 90.5348 241.044 119.124 241.044 154.393H242.244C242.244 119.788 270.333 91.7348 304.984 91.7348V90.5348ZM368.924 154.393C368.924 119.124 340.297 90.5348 304.984 90.5348V91.7348C339.635 91.7348 367.724 119.788 367.724 154.393H368.924ZM241.644 154.993H368.324V153.793H241.644V154.993Z" fill="#E0E0E0" mask="url(#path-23-inside-12)"/>
  <mask id="path-25-inside-13" fill="white">
  <path fill-rule="evenodd" clip-rule="evenodd" d="M334.57 41.1089C334.57 60.3841 318.924 76.0098 299.624 76.0098C280.324 76.0098 264.678 60.3841 264.678 41.1089C264.678 21.8337 280.324 6.20801 299.624 6.20801C318.924 6.20801 334.57 21.8337 334.57 41.1089ZM236.284 150.902C236.284 115.966 264.642 87.6445 299.624 87.6445C334.606 87.6445 362.964 115.966 362.964 150.902H236.284Z"/>
  </mask>
  <path d="M236.284 150.902H235.684V151.502H236.284V150.902ZM362.964 150.902V151.502H363.564V150.902H362.964ZM299.624 76.6098C319.255 76.6098 335.17 60.7162 335.17 41.1089H333.97C333.97 60.052 318.594 75.4098 299.624 75.4098V76.6098ZM264.078 41.1089C264.078 60.7162 279.993 76.6098 299.624 76.6098V75.4098C280.654 75.4098 265.278 60.052 265.278 41.1089H264.078ZM299.624 5.60801C279.993 5.60801 264.078 21.5016 264.078 41.1089H265.278C265.278 22.1658 280.654 6.80801 299.624 6.80801V5.60801ZM335.17 41.1089C335.17 21.5016 319.255 5.60801 299.624 5.60801V6.80801C318.594 6.80801 333.97 22.1658 333.97 41.1089H335.17ZM299.624 87.0445C264.312 87.0445 235.684 115.634 235.684 150.902H236.884C236.884 116.298 264.973 88.2445 299.624 88.2445V87.0445ZM363.564 150.902C363.564 115.634 334.936 87.0445 299.624 87.0445V88.2445C334.275 88.2445 362.364 116.298 362.364 150.902H363.564ZM236.284 151.502H362.964V150.302H236.284V151.502Z" fill="#BDBDBD" mask="url(#path-25-inside-13)"/>
  <mask id="path-27-inside-14" fill="white">
  <path fill-rule="evenodd" clip-rule="evenodd" d="M331.89 39.3643C331.89 58.6398 316.244 74.2656 296.944 74.2656C277.644 74.2656 261.998 58.6398 261.998 39.3643C261.998 20.0888 277.644 4.46289 296.944 4.46289C316.244 4.46289 331.89 20.0888 331.89 39.3643ZM233.604 149.158C233.604 114.222 261.962 85.9004 296.944 85.9004C331.926 85.9004 360.284 114.222 360.284 149.158H233.604Z"/>
  </mask>
  <path d="M233.604 149.158H233.004V149.758H233.604V149.158ZM360.284 149.158V149.758H360.884V149.158H360.284ZM296.944 74.8656C316.575 74.8656 332.49 58.9718 332.49 39.3643H331.29C331.29 58.3077 315.913 73.6656 296.944 73.6656V74.8656ZM261.398 39.3643C261.398 58.9718 277.313 74.8656 296.944 74.8656V73.6656C277.974 73.6656 262.598 58.3077 262.598 39.3643H261.398ZM296.944 3.86289C277.313 3.86289 261.398 19.7567 261.398 39.3643H262.598C262.598 20.4209 277.974 5.06289 296.944 5.06289V3.86289ZM332.49 39.3643C332.49 19.7567 316.575 3.86289 296.944 3.86289V5.06289C315.913 5.06289 331.29 20.4209 331.29 39.3643H332.49ZM296.944 85.3004C261.631 85.3004 233.004 113.89 233.004 149.158H234.204C234.204 114.554 262.293 86.5004 296.944 86.5004V85.3004ZM360.884 149.158C360.884 113.89 332.256 85.3004 296.944 85.3004V86.5004C331.595 86.5004 359.684 114.554 359.684 149.158H360.884ZM233.604 149.758H360.284V148.558H233.604V149.758Z" fill="#BDBDBD" mask="url(#path-27-inside-14)"/>
  <mask id="path-29-inside-15" fill="white">
  <path fill-rule="evenodd" clip-rule="evenodd" d="M329.21 37.6191C329.21 56.8946 313.564 72.5205 294.264 72.5205C274.963 72.5205 259.317 56.8946 259.317 37.6191C259.317 18.3436 274.963 2.71777 294.264 2.71777C313.564 2.71777 329.21 18.3436 329.21 37.6191ZM230.924 147.413C230.924 112.476 259.282 84.1533 294.264 84.1533C329.245 84.1533 357.604 112.476 357.604 147.413H230.924Z"/>
  </mask>
  <path d="M230.924 147.413H230.324V148.013H230.924V147.413ZM357.604 147.413V148.013H358.204V147.413H357.604ZM294.264 73.1205C313.895 73.1205 329.81 57.2267 329.81 37.6191H328.61C328.61 56.5625 313.233 71.9205 294.264 71.9205V73.1205ZM258.717 37.6191C258.717 57.2267 274.633 73.1205 294.264 73.1205V71.9205C275.294 71.9205 259.917 56.5625 259.917 37.6191H258.717ZM294.264 2.11777C274.633 2.11777 258.717 18.0116 258.717 37.6191H259.917C259.917 18.6757 275.294 3.31777 294.264 3.31777V2.11777ZM329.81 37.6191C329.81 18.0116 313.895 2.11777 294.264 2.11777V3.31777C313.233 3.31777 328.61 18.6757 328.61 37.6191H329.81ZM294.264 83.5533C258.951 83.5533 230.324 112.144 230.324 147.413H231.524C231.524 112.808 259.613 84.7533 294.264 84.7533V83.5533ZM358.204 147.413C358.204 112.144 329.576 83.5533 294.264 83.5533V84.7533C328.915 84.7533 357.004 112.808 357.004 147.413H358.204ZM230.924 148.013H357.604V146.813H230.924V148.013Z" fill="#828282" mask="url(#path-29-inside-15)"/>
  <mask id="path-31-inside-16" fill="white">
  <path fill-rule="evenodd" clip-rule="evenodd" d="M326.53 35.8745C326.53 55.1497 310.884 70.7754 291.584 70.7754C272.283 70.7754 256.637 55.1497 256.637 35.8745C256.637 16.5993 272.283 0.973633 291.584 0.973633C310.884 0.973633 326.53 16.5993 326.53 35.8745ZM228.244 145.667C228.244 110.731 256.602 82.4092 291.584 82.4092C326.565 82.4092 354.924 110.731 354.924 145.667H228.244Z"/>
  </mask>
  <path d="M228.244 145.667H227.644V146.267H228.244V145.667ZM354.924 145.667V146.267H355.524V145.667H354.924ZM291.584 71.3754C311.214 71.3754 327.13 55.4818 327.13 35.8745H325.93C325.93 54.8176 310.553 70.1754 291.584 70.1754V71.3754ZM256.037 35.8745C256.037 55.4818 271.953 71.3754 291.584 71.3754V70.1754C272.614 70.1754 257.237 54.8176 257.237 35.8745H256.037ZM291.584 0.373633C271.953 0.373633 256.037 16.2672 256.037 35.8745H257.237C257.237 16.9314 272.614 1.57363 291.584 1.57363V0.373633ZM327.13 35.8745C327.13 16.2672 311.214 0.373633 291.584 0.373633V1.57363C310.553 1.57363 325.93 16.9314 325.93 35.8745H327.13ZM291.584 81.8092C256.271 81.8092 227.644 110.399 227.644 145.667H228.844C228.844 111.063 256.932 83.0092 291.584 83.0092V81.8092ZM355.524 145.667C355.524 110.399 326.896 81.8092 291.584 81.8092V83.0092C326.235 83.0092 354.324 111.063 354.324 145.667H355.524ZM228.244 146.267H354.924V145.067H228.244V146.267Z" fill="#828282" mask="url(#path-31-inside-16)"/>
</svg>
