<svg width="302" height="300" viewBox="0 0 302 300" fill="none" xmlns="http://www.w3.org/2000/svg">
<path d="M33.2989 239.65C31.7589 239.65 30.2189 238.93 29.2489 237.58C-13.9911 177.67 -7.39112 96.2 44.9389 43.86C103.439 -14.62 198.589 -14.62 257.089 43.86C259.039 45.81 259.039 48.98 257.089 50.93C255.139 52.88 251.969 52.88 250.019 50.93C195.419 -3.64 106.599 -3.64 52.0089 50.93C3.16888 99.79 -2.99113 175.82 37.3489 231.72C38.9689 233.97 38.4589 237.09 36.2289 238.7C35.3389 239.34 34.3089 239.65 33.2989 239.65Z" fill="#585858"/>
<path d="M151.009 299.86C112.589 299.86 74.1786 285.24 44.9386 256C42.9886 254.05 42.9886 250.88 44.9386 248.93C46.8886 246.979 50.0586 246.979 52.0086 248.93C106.599 303.499 195.429 303.499 250.019 248.93C298.749 200.169 304.979 124.219 264.819 68.3395C263.209 66.0895 263.729 62.9695 265.959 61.3595C268.209 59.7495 271.329 60.2595 272.939 62.4995C315.969 122.369 309.299 203.749 257.079 256C227.839 285.24 189.429 299.85 151.009 299.86Z" fill="#585858"/>
<path d="M48.4688 282.071C45.7088 282.071 43.4688 279.831 43.4688 277.071V252.471C43.4688 249.711 45.7088 247.471 48.4688 247.471H73.0788C75.8388 247.471 78.0788 249.711 78.0788 252.471C78.0788 255.231 75.8388 257.471 73.0788 257.471H53.4688V277.071C53.4688 279.831 51.2288 282.071 48.4688 282.071Z" fill="#585858"/>
<path d="M253.55 52.3881H228.94C226.18 52.3881 223.94 50.1481 223.94 47.3881C223.94 44.6281 226.18 42.3881 228.94 42.3881H248.55V22.7881C248.55 20.0281 250.79 17.7881 253.55 17.7881C256.31 17.7881 258.55 20.0281 258.55 22.7881V47.3881C258.55 50.1481 256.31 52.3881 253.55 52.3881Z" fill="#585858"/>
<path d="M151.008 259.932C90.3579 259.932 41.0079 210.582 41.0079 149.932C41.0079 89.2816 90.3579 39.9316 151.008 39.9316C211.658 39.9316 261.008 89.2816 261.008 149.932C261.008 210.582 211.658 259.932 151.008 259.932ZM151.008 49.9316C95.8679 49.9316 51.0079 94.7916 51.0079 149.932C51.0079 205.072 95.8679 249.932 151.008 249.932C206.148 249.932 251.008 205.072 251.008 149.932C251.008 94.7916 206.148 49.9316 151.008 49.9316Z" fill="#585858"/>
<path d="M151.008 259.932C90.3579 259.932 41.0079 210.582 41.0079 149.932C41.0079 89.2816 90.3579 39.9316 151.008 39.9316C211.658 39.9316 261.008 89.2816 261.008 149.932C261.008 210.582 211.658 259.932 151.008 259.932ZM151.008 49.9316C95.8679 49.9316 51.0079 94.7916 51.0079 149.932C51.0079 205.072 95.8679 249.932 151.008 249.932C206.148 249.932 251.008 205.072 251.008 149.932C251.008 94.7916 206.148 49.9316 151.008 49.9316Z" fill="#585858"/>
<path d="M227.469 226.731C226.999 226.731 226.529 226.661 226.059 226.521C177.249 212.181 124.749 212.181 75.9385 226.521C73.2985 227.291 70.5085 225.801 69.7385 223.131C68.9585 220.481 70.4685 217.711 73.1285 216.931C123.759 202.051 178.249 202.051 228.869 216.931C231.529 217.711 233.039 220.481 232.259 223.131C231.639 225.321 229.639 226.731 227.469 226.731Z" fill="#585858"/>
<path d="M151.008 94.1498C132.788 94.1498 114.518 92.3298 96.6785 88.7498C93.9685 88.1998 92.2185 85.5698 92.7585 82.8598C93.3085 80.1498 95.9985 78.4098 98.6485 78.9398C140.678 87.3998 184.778 85.4598 226.058 73.3298C228.688 72.5398 231.488 74.0498 232.258 76.7198C233.038 79.3698 231.528 82.1398 228.868 82.9198C203.568 90.3698 177.368 94.1498 151.008 94.1498Z" fill="#585858"/>
<path d="M156.047 259.68C154.457 259.68 152.887 258.92 151.917 257.5C150.367 255.21 150.947 252.11 153.227 250.55C186.767 227.66 206.787 190.05 206.787 149.93C206.787 109.81 186.767 72.2096 153.227 49.3096C150.947 47.7496 150.367 44.6396 151.917 42.3596C153.477 40.0796 156.587 39.5196 158.867 41.0496C195.137 65.8096 216.787 106.51 216.787 149.93C216.787 193.35 195.137 234.05 158.867 258.81C157.997 259.39 157.027 259.68 156.047 259.68Z" fill="#585858"/>
<path d="M145.969 259.683C144.989 259.683 144.019 259.403 143.149 258.813C106.879 234.053 85.229 193.353 85.229 149.933C85.229 118.603 96.519 88.2434 117.009 64.4334C118.819 62.3334 121.979 62.1234 124.059 63.9034C126.149 65.7034 126.389 68.8634 124.589 70.9534C105.659 92.9434 95.229 120.993 95.229 149.923C95.229 190.043 115.249 227.643 148.789 250.543C151.069 252.103 151.649 255.213 150.099 257.493C149.139 258.913 147.559 259.683 145.969 259.683Z" fill="#585858"/>
<path d="M151.008 254.404C148.248 254.404 146.008 252.164 146.008 249.404V50.4639C146.008 47.7039 148.248 45.4639 151.008 45.4639C153.768 45.4639 156.008 47.7039 156.008 50.4639V249.414C156.008 252.174 153.768 254.404 151.008 254.404Z" fill="#585858"/>
<path d="M250.478 154.932H66.5377C63.7777 154.932 61.5377 152.692 61.5377 149.932C61.5377 147.172 63.7777 144.932 66.5377 144.932H250.488C253.248 144.932 255.488 147.172 255.488 149.932C255.488 152.692 253.248 154.932 250.478 154.932Z" fill="#585858"/>
<rect x="24.7686" y="120" width="255" height="62" rx="10" fill="#1E1E1E"/>
<path d="M221.896 154.356C224.126 151.796 226.109 149.402 228.257 147.008C231.891 142.962 235.609 138.999 239.904 135.697C241.226 134.706 242.63 133.55 244.53 133.798C247.174 134.21 248.991 135.614 250.065 138.091C250.396 138.916 250.313 139.577 249.735 140.32C246.1 145.109 243.043 150.31 241.474 156.172C241.309 156.75 241.226 157.411 241.226 158.071C241.226 158.897 241.804 159.227 242.548 158.814C243.457 158.236 244.365 157.658 245.109 156.915C247.917 154.108 250.643 151.218 253.369 148.329C254.196 147.503 254.691 147.338 255.435 147.998C256.343 148.742 256.591 149.815 256.013 150.558C252.13 155.181 248.33 159.888 243.457 163.603C241.97 164.759 240.235 165.75 238.417 166.493C234.948 167.979 231.974 166.08 231.644 162.364C231.396 159.31 232.387 156.502 233.461 153.778C235.526 148.824 238.252 144.201 241.226 139.66C239.987 140.815 238.665 141.889 237.509 143.045C231.23 149.154 225.283 155.677 220.078 162.695C219.418 163.603 218.839 164.511 218.344 165.502C217.518 166.988 216.113 167.401 214.626 166.493C212.809 165.337 212.231 163.438 212.065 161.456C211.983 160.548 212.148 159.64 212.148 158.732C210.413 160.3 208.761 161.952 206.861 163.355C205.291 164.511 203.557 165.584 201.739 166.41C198.105 167.979 195.131 166.08 194.883 162.117C194.718 159.145 195.709 156.42 196.783 153.695C198.765 148.742 201.492 144.201 204.465 139.66C203.226 140.815 201.905 141.889 200.748 143.045C194.47 149.154 188.522 155.677 183.318 162.695C182.657 163.603 182.079 164.511 181.583 165.502C180.757 166.988 179.353 167.401 177.866 166.493C176.048 165.337 175.47 163.438 175.305 161.456C175.222 160.548 175.387 159.64 175.387 158.732C173.653 160.3 172 161.952 170.1 163.355C168.531 164.511 166.796 165.584 164.979 166.41C161.344 167.979 158.37 165.997 158.122 162.117C157.957 159.145 158.866 156.337 160.022 153.695C161.096 151.301 162.253 148.824 163.574 146.512C164.896 144.201 166.383 141.971 167.705 139.66C166.466 140.815 165.144 141.889 163.987 143.045C157.709 149.154 151.761 155.677 146.557 162.695C145.896 163.603 145.318 164.511 144.822 165.502C143.996 166.988 142.592 167.401 141.105 166.493C139.288 165.337 138.709 163.438 138.544 161.456C138.461 160.548 138.627 159.722 138.709 158.567C138.214 159.062 137.883 159.392 137.47 159.805C134.744 162.447 132.018 165.007 128.383 166.41C124.583 167.896 121.609 165.997 121.362 161.952C121.196 159.062 122.188 156.337 123.262 153.695C125.161 148.989 127.722 144.613 130.614 140.568C130.779 140.32 130.944 140.072 130.944 139.66C129.705 140.815 128.383 141.889 127.227 143.045C121.196 149.154 115.249 155.677 110.044 162.695C109.383 163.603 108.805 164.511 108.309 165.502C107.483 166.988 106.079 167.401 104.592 166.493C102.775 165.337 102.196 163.438 102.114 161.456C102.031 160.383 102.279 159.227 102.362 158.071C101.288 158.979 100.214 159.888 99.0573 160.796C95.4225 163.603 91.5399 165.997 86.9139 166.658C84.9313 166.988 82.7835 166.988 80.8009 166.493C76.0096 165.337 73.4487 161.126 74.44 156.09C76.2574 146.677 81.3791 139.494 89.6399 134.623C91.1269 133.715 93.0269 133.22 94.7617 133.054C101.122 132.394 105.253 137.843 102.775 143.705C100.379 149.485 92.6964 154.273 86.4182 153.613C85.5921 153.53 84.8487 153.365 83.94 153.2C83.4443 154.769 83.1965 156.337 83.5269 157.989C83.7748 159.227 84.5182 159.97 85.84 160.218C88.566 160.713 91.0443 159.97 93.4399 158.897C98.3964 156.585 102.444 153.2 105.914 149.072C107.401 147.255 108.309 144.861 109.631 142.88C111.449 140.155 113.431 137.43 115.414 134.871C116.488 133.467 117.479 133.385 119.048 134.376C119.627 134.706 120.122 135.201 120.535 135.697C121.775 137.1 121.775 137.761 120.618 139.164C117.231 143.705 114.34 148.659 111.944 153.778C111.862 153.86 111.862 154.026 111.779 154.273C114.009 151.714 115.992 149.319 118.14 146.925C121.775 142.88 125.492 138.916 129.788 135.614C131.109 134.623 132.514 133.467 134.414 133.715C137.057 134.128 138.874 135.531 139.948 138.008C140.279 138.834 140.196 139.494 139.618 140.238C135.983 145.026 132.927 150.228 131.357 156.09C131.109 156.915 131.027 158.236 131.522 158.649C132.348 159.31 133.257 158.319 133.835 157.741C136.809 154.851 139.866 151.962 142.674 148.824C144.161 147.09 144.905 144.778 146.227 142.88C148.044 140.072 150.027 137.43 152.092 134.788C153.166 133.385 154.157 133.302 155.644 134.293C156.222 134.623 156.8 135.119 157.296 135.697C158.535 137.1 158.535 137.678 157.379 139.164C153.827 143.705 151.018 148.659 148.622 153.86C148.54 153.943 148.54 154.108 148.457 154.356C150.687 151.796 152.67 149.402 154.818 147.008C158.453 142.962 162.17 138.999 166.466 135.697C167.787 134.706 169.192 133.55 171.092 133.798C173.735 134.21 175.553 135.614 176.626 138.091C176.957 138.916 176.874 139.577 176.296 140.32C172.661 145.109 169.605 150.31 168.035 156.172C167.87 156.75 167.787 157.328 167.787 157.824C167.787 158.897 168.366 159.227 169.192 158.649C170.018 158.154 170.844 157.576 171.505 156.915C174.066 154.356 176.709 151.879 179.022 149.154C180.592 147.338 181.5 144.944 182.822 142.88C184.639 140.155 186.622 137.43 188.687 134.788C189.761 133.385 190.752 133.385 192.239 134.293C192.818 134.623 193.396 135.119 193.892 135.697C195.131 137.1 195.131 137.678 193.974 139.164C190.505 143.705 187.696 148.659 185.3 153.86C185.218 153.943 185.218 154.108 185.218 154.356C187.696 151.549 189.926 148.742 192.487 146.1C195.874 142.632 199.509 139.247 203.061 135.862C203.557 135.366 204.135 135.119 204.713 134.706C207.935 132.229 212.726 135.119 213.552 138.504C213.718 138.999 213.47 139.825 213.139 140.238C209.505 145.109 206.448 150.31 204.796 156.172C204.631 156.668 204.548 157.246 204.548 157.741C204.465 158.897 205.126 159.31 206.035 158.649C206.861 158.154 207.687 157.576 208.431 156.833C210.909 154.356 213.552 151.962 215.783 149.237C217.352 147.338 218.261 144.944 219.665 142.88C221.483 140.155 223.465 137.43 225.531 134.788C226.604 133.385 227.596 133.302 229.083 134.293C229.661 134.623 230.239 135.119 230.735 135.697C231.974 137.1 231.974 137.761 230.817 139.164C227.348 143.705 224.539 148.659 222.144 153.778C221.978 153.943 221.896 154.108 221.896 154.356ZM84.8487 150.64C86.0052 150.393 86.9139 150.393 87.74 149.98C92.4486 147.916 95.2573 144.035 97.2399 139.412C97.5703 138.586 98.1486 137.513 97.2399 136.852C96.4138 136.274 95.4225 136.852 94.7617 137.513C93.0269 139.082 91.3747 140.65 89.8878 142.384C87.8226 144.696 86.1704 147.421 84.8487 150.64Z" fill="#676767"/>
<path d="M66.7575 139.99C63.9489 140.485 61.2228 140.733 58.6619 141.311C57.4228 141.559 52.3837 142.467 51.3924 140.733C50.5663 139.577 51.3098 137.843 51.3924 137.348C51.5576 136.522 51.475 135.614 51.7228 134.871C51.9707 134.211 52.5489 134.128 53.2098 134.376C53.9533 134.706 54.7793 135.119 55.5228 135.201C61.3054 135.614 67.088 135.532 72.7879 134.376C72.8705 134.376 73.0358 134.293 73.1184 134.293C75.5966 133.715 76.1749 133.963 77.414 136.275C77.7444 136.935 77.9923 137.596 78.0749 138.256C78.1575 138.669 77.9096 139.329 77.4966 139.577C70.3923 145.274 63.701 151.631 57.0098 157.906C56.6793 158.237 56.2663 158.484 55.8532 158.814C55.9358 158.897 56.0185 158.897 56.1011 158.98C57.3402 158.98 58.5793 158.897 59.901 158.98C61.7184 159.062 63.6184 159.145 65.4358 159.392C67.6662 159.805 69.3184 161.952 69.3184 164.098C69.3184 165.42 68.988 165.585 67.914 165.007C67.4184 164.759 66.9227 164.676 66.3445 164.676C62.5445 164.429 58.8271 165.089 55.1098 165.832C53.788 166.08 52.3837 166.41 51.062 166.741C49.9881 166.988 48.9141 166.906 48.0055 166.163C46.2707 164.759 45.1142 163.025 44.7837 160.796C44.7011 159.888 44.949 159.145 45.6924 158.402C51.3098 153.365 56.8445 148.329 62.4619 143.293C63.7836 142.219 65.2706 141.228 66.7575 139.99Z" fill="#676767"/>
</svg>
