<svg width="40" height="30" viewBox="0 0 40 30" fill="none" xmlns="http://www.w3.org/2000/svg">
<path fill-rule="evenodd" clip-rule="evenodd" d="M40 25.9375C40 25.4219 39.5781 25 39.0625 25H5V0.9375C5 0.421875 4.57812 0 4.0625 0H0.9375C0.421875 0 0 0.421875 0 0.9375V29.0625C0 29.5781 0.421875 30 0.9375 30H39.0625C39.5781 30 40 29.5781 40 29.0625V25.9375ZM22.5 11.8751L29.1172 7.46103C29.5859 7.14853 30.2266 7.32041 30.4766 7.82822L37.5 22.5001H7.5V14.3751L14.2812 3.07041C14.625 2.5001 15.4375 2.46103 15.8359 2.99228L22.5 11.8751Z" fill="#7E99D0"/>
</svg>
