<svg width="40" height="36" viewBox="0 0 40 36" fill="none" xmlns="http://www.w3.org/2000/svg">
<path fill-rule="evenodd" clip-rule="evenodd" d="M38.1719 17.5469L30.625 14.7188V6.24219C30.625 5.07031 29.8984 4.02344 28.7969 3.60938L20.9844 0.679688C20.3516 0.4375 19.6484 0.4375 19.0078 0.679688L11.1953 3.60938C10.0938 4.02344 9.36719 5.07031 9.36719 6.24219V14.7188L1.82031 17.5469C0.726562 17.9609 0 19.0078 0 20.1797V28.7812C0 29.8438 0.601562 30.8203 1.55469 31.2969L9.36719 35.2031C10.1562 35.6016 11.0938 35.6016 11.8828 35.2031L20 31.1406L28.1172 35.2031C28.9062 35.6016 29.8438 35.6016 30.6328 35.2031L38.4453 31.2969C39.3984 30.8203 40 29.8438 40 28.7812V20.1797C40 19.0078 39.2734 17.9609 38.1719 17.5469ZM27.9688 14.7812L21.3281 17.2734V11.9453L27.9688 9.05469V14.7812ZM20 3.14844L12.0312 6.13281V6.17969L20 9.41406L27.9688 6.17969V6.13281L20 3.14844ZM18.5938 28.875L11.9531 32.1953V26.0156L18.5938 22.9844V28.875ZM10.625 23.3594L18.5938 20.125V20.0781L10.625 17.0938L2.65625 20.0781V20.125L10.625 23.3594ZM37.3438 28.875L30.7031 32.1953V26.0156L37.3438 22.9844V28.875ZM29.375 23.3594L37.3438 20.125V20.0781L29.375 17.0938L21.4062 20.0781V20.125L29.375 23.3594Z" fill="#7E99D0"/>
</svg>
