<svg width="40" height="20" viewBox="0 0 40 20" fill="none" xmlns="http://www.w3.org/2000/svg">
<path fill-rule="evenodd" clip-rule="evenodd" d="M19 20H1.5C0.671562 20 0 19.3284 0 18.5V1.5C0 0.671562 0.671562 0 1.5 0H19V20ZM11.4578 15.4611C11.5515 15.7805 11.8446 16 12.1775 16H13.6065C14.1202 16 14.4819 15.4951 14.3166 15.0087L10.7257 4.44279C10.6223 4.13865 10.3368 3.9341 10.0156 3.9341H7.98501C7.6638 3.93412 7.37826 4.13866 7.27489 4.44279L3.68395 15.0087C3.51864 15.4951 3.88033 16 4.39408 16H5.81939C6.15399 16 6.44812 15.7783 6.54033 15.4567L7.1102 13.4687H10.8734L11.4578 15.4611ZM9.50653 8.76059C9.28716 8.00128 9.01716 6.68497 9.01716 6.68497H8.98341C8.98341 6.68497 8.71341 8.00122 8.49403 8.76059L7.80216 11.1063H10.1815L9.50653 8.76059ZM40 18.5C40 19.3284 39.3284 20 38.5 20H21V0H38.5C39.3284 0 40 0.671562 40 1.5V18.5ZM32.25 5.75H36.25C36.6642 5.75 37 6.08581 37 6.49988V7.49988C37 7.91406 36.6642 8.24988 36.25 8.24988H35.5371C35.1031 9.72244 34.1816 11.2139 32.8676 12.6155C33.3911 13.0182 33.9347 13.3941 34.4963 13.7417C34.8404 13.9549 34.9556 14.4009 34.7548 14.7524L34.2583 15.6213C34.048 15.9893 33.5743 16.1104 33.2134 15.8882C32.4241 15.402 31.6835 14.8807 31.0012 14.3331C30.3217 14.8779 29.5818 15.3994 28.786 15.8888C28.4253 16.1107 27.952 15.9893 27.7419 15.6216L27.2456 14.7531C27.0444 14.4009 27.1606 13.9543 27.5057 13.7412C28.0846 13.3837 28.6295 13.0076 29.1371 12.6184C28.6443 12.0941 28.2047 11.5561 27.8256 11.0106C27.5783 10.6546 27.6868 10.163 28.0591 9.94075L28.4652 9.69831L28.9202 9.42669C29.2583 9.22488 29.6924 9.32056 29.9199 9.64207C30.2304 10.081 30.5952 10.5193 31.0052 10.9504C31.8493 10.0608 32.4902 9.14369 32.8816 8.25H25.75C25.3358 8.25 25 7.91419 25 7.5V6.5C25 6.08581 25.3358 5.75 25.75 5.75H29.75V4.75C29.75 4.33581 30.0858 4 30.5 4H31.5C31.9142 4 32.25 4.33581 32.25 4.75V5.75Z" fill="#7E99D0"/>
</svg>
