<svg width="36" height="40" viewBox="0 0 36 40" fill="none" xmlns="http://www.w3.org/2000/svg">
<path fill-rule="evenodd" clip-rule="evenodd" d="M30.2143 17.5H32.1429C34.2723 17.5 36 19.1797 36 21.25V36.25C36 38.3203 34.2723 40 32.1429 40H3.85714C1.72768 40 0 38.3203 0 36.25V21.25C0 19.1797 1.72768 17.5 3.85714 17.5H5.78571V11.875C5.78571 5.32812 11.2661 0 18 0C24.7339 0 30.2143 5.32812 30.2143 11.875V17.5ZM12.2143 11.875V17.5H23.7857V11.875C23.7857 8.77344 21.1902 6.25 18 6.25C14.8099 6.25 12.2143 8.77344 12.2143 11.875Z" fill="#7E99D0"/>
</svg>
