<svg width="36" height="36" viewBox="0 0 36 36" fill="none" xmlns="http://www.w3.org/2000/svg">
<path fill-rule="evenodd" clip-rule="evenodd" d="M0 15.5H15.4286V0.5H0V15.5ZM5.14296 5.5H10.2858V10.5H5.14296V5.5ZM20.5714 15.5V0.5H35.9999V15.5H20.5714ZM30.8572 10.5H25.7143V5.5H30.8572V10.5ZM15.4286 35.5H0V20.5H15.4286V35.5ZM5.14296 25.5H10.2858V30.5H5.14296V25.5ZM35.9999 20.5H33.4285V23H28.2856V20.5H20.5714V35.5H25.7142V28H28.2856V30.5H35.9999V20.5ZM33.4286 33H36.0001V35.5H33.4286V33ZM30.8571 33H28.2857V35.5H30.8571V33Z" fill="#7E99D0"/>
</svg>
