<svg xmlns="http://www.w3.org/2000/svg" xmlns:xlink="http://www.w3.org/1999/xlink" viewBox="0 0 1440 800"><path fill="#FCDD09" d="M320 133.3h800v533.3H320z"/><path fill="#DA121A" d="M320 310.7v356h800v-356H320zM843.9 513c11.9 1.3 24.9 8.1 31.3 16.6l6.2 7.9-8-5.1c-9.6-6.3-22.4-6.4-35-.4l-8.9 4.1 6.6 2.2c11.4 3.7 22.7 13.2 27.2 22.7l4.4 9-6.7-6.7c-8.1-8.1-20.6-10.9-34.2-7.7l-9.6 2.1 6 3.5c10.4 6 19.5 17.6 21.9 27.9l2.4 9.8-5.2-7.9c-6.2-9.7-17.9-14.9-31.8-14.7l-9.8.1 5.2 4.7c8.9 8 15.4 21.3 15.6 31.9l.4 10.1-3.5-8.8c-4.1-10.7-14.4-18.3-28.1-21l-9.6-2 4.1 5.7c7 9.7 10.6 24 8.6 34.4l-1.7 9.9-1.6-9.4c-1.8-11.4-10.2-20.9-23.1-26.3l-9-3.9 2.8 6.4c4.9 10.9 5.4 25.7 1.3 35.5l-3.8 9.3.4-9.5c.6-11.5-5.7-22.6-17.1-30.6l-8-5.7 1.4 6.8c2.5 11.7 0 26.3-6.1 35l-5.6 8.3 2.4-9.2c3-11.1-.9-23.3-10.4-33.5l-6.6-7.3v7c0 12-5.5 25.7-13.2 32.9l-7.2 7 4.2-8.5c5.2-10.2 4-22.9-3.2-34.9l-5-8.5-1.4 6.8c-2.5 11.7-10.7 24-19.8 29.5l-8.5 5.3 5.9-7.4c7.2-8.9 8.7-21.6 4.1-34.8l-3.1-9.3-2.8 6.4c-4.9 10.9-15.4 21.2-25.4 24.7l-9.4 3.4 7.3-6c8.9-7.2 13-19.3 11.2-33.2l-1.1-9.8-4.1 5.6c-7 9.7-19.5 17.6-30 18.9l-9.9 1.4 8.4-4.4c10.2-5.2 16.7-16.2 17.9-30.2l.9-9.8-5.2 4.7c-8.9 8-22.7 13.1-33.3 12.2l-10-.7 9.1-2.5c11.1-2.9 19.7-12.4 23.8-25.8l3-9.4-6 3.5c-10.4 6-25 8.1-35.1 5l-9.7-2.8 9.5-.6c11.5-.6 21.8-8 28.6-20.3l4.8-8.6-6.6 2.2c-11.4 3.7-26.1 2.7-35.4-2.4l-8.9-4.7 9.4 1.4c11.3 1.8 23-3.3 32.2-13.9l6.5-7.4-6.9.7c-11.9 1.3-26.1-2.8-34.1-9.7l-7.7-6.5 8.9 3.3c10.7 4.1 23.2 1.6 34.3-6.9l7.9-5.8-6.9-.7c-11.9-1.3-24.9-8.1-31.3-16.6l-6.2-7.9 8 5.1c9.6 6.3 22.4 6.4 35 .4l8.9-4.1-6.6-2.2c-11.4-3.7-22.7-13.2-27.2-22.7l-4.4-9 6.7 6.7c8.1 8.1 20.6 10.9 34.2 7.7l9.6-2.1-6-3.5c-10.4-6-19.5-17.6-21.9-27.9l-2.4-9.8 5.2 7.9c6.2 9.6 17.9 14.9 31.8 14.7l9.8-.1-5.2-4.7c-8.9-8-15.4-21.3-15.6-31.9l-.4-10 3.5 8.8c4.1 10.7 14.4 18.3 28.1 21l9.6 2-4.1-5.6c-7-9.7-10.6-24-8.6-34.4l1.7-9.9 1.6 9.4c1.8 11.4 10.2 20.9 23.1 26.3l9 3.9-2.8-6.4c-4.9-10.9-5.4-25.7-1.3-35.5l3.8-9.3-.4 9.5c-.6 11.5 5.7 22.6 17.1 30.6l8 5.7-1.4-6.8c-2.5-11.7 0-26.3 6.1-35l5.6-8.3-2.4 9.2c-3 11.1.9 23.3 10.4 33.5l6.6 7.3v-7c0-12 5.5-25.7 13.2-32.9l7.2-7-4.2 8.5c-5.2 10.2-4 22.9 3.2 34.9l5 8.5 1.4-6.8c2.5-11.7 10.7-24 19.8-29.5l8.5-5.3-5.9 7.4c-7.2 8.9-8.7 21.6-4.1 34.8l3.1 9.3 2.8-6.4c4.9-10.9 15.4-21.2 25.4-24.7l9.4-3.4-7.3 6c-8.9 7.2-13 19.3-11.2 33.2l1.1 9.8 4.1-5.7c7-9.7 19.5-17.6 30-18.9l9.9-1.4-8.4 4.4c-10.2 5.2-16.7 16.2-17.9 30.2l-.9 9.8 5.2-4.7c8.9-8 22.7-13.1 33.3-12.2l10 .7-9.1 2.5c-11.1 3-19.7 12.4-23.8 25.8l-3 9.4 6-3.5c10.4-6 25-8.1 35.1-5l9.7 2.8-9.5.6c-11.5.6-21.8 8-28.6 20.3l-4.8 8.6 6.6-2.2c11.4-3.7 26.1-2.7 35.4 2.4l8.9 4.7-9.4-1.4c-11.3-1.8-23 3.3-32.2 13.9l-6.5 7.4 6.9-.7c11.9-1.3 26.1 2.8 34.1 9.7l7.7 6.5-8.9-3.3c-10.7-4.1-23.2-1.6-34.3 6.9l-7.9 5.8 6.9.6z"/><defs><path id="a" d="M320 310.7v356h800v-356H320zM843.9 513c11.9 1.3 24.9 8.1 31.3 16.6l6.2 7.9-8-5.1c-9.6-6.3-22.4-6.4-35-.4l-8.9 4.1 6.6 2.2c11.4 3.7 22.7 13.2 27.2 22.7l4.4 9-6.7-6.7c-8.1-8.1-20.6-10.9-34.2-7.7l-9.6 2.1 6 3.5c10.4 6 19.5 17.6 21.9 27.9l2.4 9.8-5.2-7.9c-6.2-9.7-17.9-14.9-31.8-14.7l-9.8.1 5.2 4.7c8.9 8 15.4 21.3 15.6 31.9l.4 10.1-3.5-8.8c-4.1-10.7-14.4-18.3-28.1-21l-9.6-2 4.1 5.7c7 9.7 10.6 24 8.6 34.4l-1.7 9.9-1.6-9.4c-1.8-11.4-10.2-20.9-23.1-26.3l-9-3.9 2.8 6.4c4.9 10.9 5.4 25.7 1.3 35.5l-3.8 9.3.4-9.5c.6-11.5-5.7-22.6-17.1-30.6l-8-5.7 1.4 6.8c2.5 11.7 0 26.3-6.1 35l-5.6 8.3 2.4-9.2c3-11.1-.9-23.3-10.4-33.5l-6.6-7.3v7c0 12-5.5 25.7-13.2 32.9l-7.2 7 4.2-8.5c5.2-10.2 4-22.9-3.2-34.9l-5-8.5-1.4 6.8c-2.5 11.7-10.7 24-19.8 29.5l-8.5 5.3 5.9-7.4c7.2-8.9 8.7-21.6 4.1-34.8l-3.1-9.3-2.8 6.4c-4.9 10.9-15.4 21.2-25.4 24.7l-9.4 3.4 7.3-6c8.9-7.2 13-19.3 11.2-33.2l-1.1-9.8-4.1 5.6c-7 9.7-19.5 17.6-30 18.9l-9.9 1.4 8.4-4.4c10.2-5.2 16.7-16.2 17.9-30.2l.9-9.8-5.2 4.7c-8.9 8-22.7 13.1-33.3 12.2l-10-.7 9.1-2.5c11.1-2.9 19.7-12.4 23.8-25.8l3-9.4-6 3.5c-10.4 6-25 8.1-35.1 5l-9.7-2.8 9.5-.6c11.5-.6 21.8-8 28.6-20.3l4.8-8.6-6.6 2.2c-11.4 3.7-26.1 2.7-35.4-2.4l-8.9-4.7 9.4 1.4c11.3 1.8 23-3.3 32.2-13.9l6.5-7.4-6.9.7c-11.9 1.3-26.1-2.8-34.1-9.7l-7.7-6.5 8.9 3.3c10.7 4.1 23.2 1.6 34.3-6.9l7.9-5.8-6.9-.7c-11.9-1.3-24.9-8.1-31.3-16.6l-6.2-7.9 8 5.1c9.6 6.3 22.4 6.4 35 .4l8.9-4.1-6.6-2.2c-11.4-3.7-22.7-13.2-27.2-22.7l-4.4-9 6.7 6.7c8.1 8.1 20.6 10.9 34.2 7.7l9.6-2.1-6-3.5c-10.4-6-19.5-17.6-21.9-27.9l-2.4-9.8 5.2 7.9c6.2 9.6 17.9 14.9 31.8 14.7l9.8-.1-5.2-4.7c-8.9-8-15.4-21.3-15.6-31.9l-.4-10 3.5 8.8c4.1 10.7 14.4 18.3 28.1 21l9.6 2-4.1-5.6c-7-9.7-10.6-24-8.6-34.4l1.7-9.9 1.6 9.4c1.8 11.4 10.2 20.9 23.1 26.3l9 3.9-2.8-6.4c-4.9-10.9-5.4-25.7-1.3-35.5l3.8-9.3-.4 9.5c-.6 11.5 5.7 22.6 17.1 30.6l8 5.7-1.4-6.8c-2.5-11.7 0-26.3 6.1-35l5.6-8.3-2.4 9.2c-3 11.1.9 23.3 10.4 33.5l6.6 7.3v-7c0-12 5.5-25.7 13.2-32.9l7.2-7-4.2 8.5c-5.2 10.2-4 22.9 3.2 34.9l5 8.5 1.4-6.8c2.5-11.7 10.7-24 19.8-29.5l8.5-5.3-5.9 7.4c-7.2 8.9-8.7 21.6-4.1 34.8l3.1 9.3 2.8-6.4c4.9-10.9 15.4-21.2 25.4-24.7l9.4-3.4-7.3 6c-8.9 7.2-13 19.3-11.2 33.2l1.1 9.8 4.1-5.7c7-9.7 19.5-17.6 30-18.9l9.9-1.4-8.4 4.4c-10.2 5.2-16.7 16.2-17.9 30.2l-.9 9.8 5.2-4.7c8.9-8 22.7-13.1 33.3-12.2l10 .7-9.1 2.5c-11.1 3-19.7 12.4-23.8 25.8l-3 9.4 6-3.5c10.4-6 25-8.1 35.1-5l9.7 2.8-9.5.6c-11.5.6-21.8 8-28.6 20.3l-4.8 8.6 6.6-2.2c11.4-3.7 26.1-2.7 35.4 2.4l8.9 4.7-9.4-1.4c-11.3-1.8-23 3.3-32.2 13.9l-6.5 7.4 6.9-.7c11.9-1.3 26.1 2.8 34.1 9.7l7.7 6.5-8.9-3.3c-10.7-4.1-23.2-1.6-34.3 6.9l-7.9 5.8 6.9.6z"/></defs><clipPath id="b"><use xlink:href="#a" overflow="visible"/></clipPath><g clip-path="url(#b)" fill="green"><path d="M491.2 390.1c11.6 7.9 21.7 14.1 22.2 13.6 1-1.2-56.8-54.9-60.7-56.4-1.5-.5 1.7 5.7 7.4 13.8 7.2 10.7 15.3 18.3 31.1 29z"/><path d="M619.8 418.5c-3.5-1.4-7.5-3.3-10.8-5.2 4.2-.7 3.1-1.9-4.9-3-.2-.2-.4-.3-.6-.5-2.2-1.8-3.5-2.9-4.3-3.3-.1-.1-.2-.3-.4-.4-6.2-7.2-19.5-33.4-19.5-38.3 0-2.7-1.2-4.7-2.7-4.7-1.7 0-2.2 2.5-1.2 6.4 3.3 13.2 16.4 36.8 21.9 40-.8-.1-1.6-.2-2.4-.2-2.4-.2-4.7-.5-7-.7.1-1.2-2.2-3.8-7.5-9.7-5.4-5.7-12.6-14.3-16.3-19-3.7-4.7-6.9-7.7-6.9-6.7 0 2.7 9.6 21.5 15.3 29.4 1.7 2.3 3.5 4.1 5.5 5.3-9.7-.6-17.4-.6-22.7 0-.9-2.3-3.4-6.5-7.1-11.4-11.9-16.3-13.7-18-13.7-15.3 0 3.2 13.1 21.6 18.7 27-1.6.2-2.9.6-3.9.9-.2-.1-.4-.1-.6-.2l-4.3-4.8c-11.6-12.6-29.4-36.8-35.1-47.5-6.2-11.6-6.9-8.7-1.7 6.2 2 5.9 9.9 17.8 17.5 26.2 7.7 8.7 12.6 15.8 11.4 15.8-3.2 0-24-24.5-38.8-45.7-16-23.2-16.8-24-12.3-11.1 2.2 6.2 7.2 15.3 11.4 20.3 4 5.2 6.4 9.4 5.2 9.4-2.5 0-13.3-12.4-26.9-30.2-3.7-5.2-8.9-11.9-11.1-14.8-2.5-3.2-.7 1 3.7 9.1 7.7 14.6 38.8 48.2 56 61.1 4.7 3.5 13.1 6.9 18.3 7.7l5 .8c.1.1.3.2.5.2.6 2 4 6 8.1 9.1 4.2 3.2 10.8 7.1 17.8 10.9v.1c-1.3.5-2.8 1.2-4.3 1.9-10.2-6.1-22.7-14.7-25.3-17.5-1.9-2.1-14.7-6.7-31.4-11.8-3.2-2.6-4.4-2.8-3.6-1.1-4.8-1.5-9.9-2.9-15.1-4.4.6-.9-5.5-4.9-13.5-9.5-.1-2.8-26.6-24.2-38-30.6-14.1-8-14.6-8.1-14.9-6.4-.1.5 4.5 4.1 10.4 8.1 5.8 4 12.6 9.8 14.8 12.7.9 1.2 2.8 2.9 5.2 4.6-2.5-1.1-4.8-2-6.6-2.7-15.3-5.4-15.8-5.4-15.8-3.7 0 .5 5.2 3.2 11.6 6.2 6.4 3 14.1 7.4 16.8 9.9 1.8 1.7 6.5 4.1 11.6 6.3-22.7-6-43.6-10.7-49.7-10.5-6.7.5-6.9.5-1.5 1.5 16.6 3 39.9 9.3 61.4 16.1 0 .1.1.2.2.3-2.7.1-6.1 1-12.4 2.9l-1.6.5c-2.8-1.8-5.3-3.4-6.8-4.4-3-1.9-1 .5 4.2 5.2l-5.7 1.9 7.4 1.2c.7.2 1.5.3 2.3.4 3.5 2.9 8.5 6.2 14.4 9.8-24.8 2.7-29 4.9-28.5 15.1.2 4.9.2 4.9 1.5 0 2.2-9.1 5.9-11.1 20-11.1 3.8 0 9.3.4 15.7 1 7.2 4 15 8 22.6 11.5-14.8 0-29.1.8-36.3 2.5-10.6 2.5-16.3 6.2-16.3 10.6 0 1.7 1 1.5 2.2-.5 2-3.2 22.2-9.1 24.2-7.2.5.5-.2 4.2-1.7 7.9s-2 7.4-1.2 8.2c.7 1 2-1 2.7-3.7 3-10.6 12.1-13.8 34.1-11.9 2.6.2 5.2.5 7.8.7 2.1.8 4 1.6 5.9 2.2h-1.3c-4 .2-13.6 2.7-21 5.4-16.3 6.4-19.8 8.7-19.8 12.1 0 1.5 1.7 1.2 4.4-1 2.2-2.2 10.4-5.2 17.8-6.9 7.4-1.7 16.3-4.7 19.8-6.4l3.8-2c.4.1.8.3 1.2.4 1.7.5 3.8.9 6 1.2-5.1 5.2-8.2 9.8-9.7 14.4-27.8 8-30.8 12-26.3 26.4 2 5.9 2 5.7 2.2-2 .2-4.2 2.5-10.1 4.9-12.6 2.3-2.3 9-5 18.3-7.6-.2 2.3 0 4.8.5 7.3-1.2 1.4-2.4 2.9-3.5 4.6l-6.4 10 8.3-7.8c1-.9 1.9-1.8 2.8-2.5.1.2.1.4.2.5l3.9 11.2-1.1-11.3c-.1-.9-.2-1.7-.2-2.6 8.1-5.8 16-6.2 30.3-2.4-15.4 7.3-20.6 14.6-20.4 27.8l.2 11.9 2.5-11.1c3-14.5 8.7-20.1 26.2-26.1 7.1 2 12.6 3.1 12.8 2.8.7-1-2-3-5.9-5.1 7.6-2.5 13.3-4.8 13.3-5.2 0-2.2-11.7-1-20.8 1.8-3.7-1.4-7.5-2.6-10.7-3.1-13-2.3-21.3-1.6-27.6 3.1.1-1.8.4-3.5.8-5.1 7.4-1.8 16.1-3.6 25.4-5.1 5.9-.7 9.9-2.5 9.1-3.7-2-3.2-9.9-2.2-31.9 4l-.9.3c2.1-4.1 5.7-8 11-12.3 2.4 0 4.5-.2 6.3-.6l.7-.1c.4.2.8.4 1.1.6 6.4 3.5 31.4 3.7 29.1.2-.5-.9-3-2-6.2-2.8-.3-.2-.7-.4-1-.6-3.2-1.7-7.4-4.4-9.1-6.4-1.3-1.2-2.9-2.1-4.4-2.6.7-.5 1.2-1 1.8-1.4 13.8 7.2 28.6 13.3 31.4 12.2 2.7-1-1.5-3.7-13.3-8.2-4.8-1.9-9.6-4-14-6 3.2-1.4 6.9-2.5 9.9-3.1 7.1 2 12.4 3 12.4 2 .1-.7-1.5-1.9-3.9-3.4-.2-.4-1.2-1.1-3-2.2-.7-.4-1.5-.7-2.5-.9-1.5-.7-3-1.5-4.5-2.2-.6-.4-1.3-.9-2.1-1.3-3.2-1.7-7.4-4.4-9.1-6.4-.2-.2-.5-.4-.7-.6 1.9.1 4 .2 6.2.4.9.1 1.8.1 2.6.1 3.6 6 12.9 10 25.1 11 9 .6 4.9-3.2-7.7-7.8-2.4-.8-5-1.8-7.4-2.9 2.4 0 4.5 0 6.4-.1 1.8 1.4 4 2.8 6.6 3.9 5.4 2.5 12.2 4.5 15.7 4.6 3.7-.1 2.6-1.1-5-4.1zm-125.2-14.9c3.6 1.2 7.1 2.3 10.4 3.5-.8 0-1.6 0-2.5-.1-1.9-.1-3.8 0-5.5.1-1.1-.8-2.2-1.5-3.1-2.2 2.8.1 3-.2.7-1.3zm-14.5 6.5c-.7-.5-1.4-1-2.2-1.5 1.7-.2 3.2-.6 4.2-1.1 1.5-.9 4.1-1.6 6.7-2l1.2 1.5c.3.4.6.7 1 1.1-2.5.6-4.5 1.4-5.8 2.4-.8.6-1.5 1.1-1.9 1.6-1.1-.7-2.1-1.3-3.2-2zm12.4 7.7c-2.3-1.4-4.8-2.9-7.3-4.5 1.2-.1 3-.4 5.2-.8 1.3-.2 2.7-.4 4.2-.6 1.8 1.8 3.8 3.6 5.8 5.2-2.5.1-5.1.4-7.9.7zm23.2 11.4c-1.2.4-5.5-1.4-11.9-4.9 2.8.3 5.7.7 8.6 1.1 2.6 2 4.1 3.5 3.3 3.8zm-1.8-11.8c-.3-.3-1.6-.5-3.4-.6-1.7-1.2-3.5-2.4-5.2-3.6-1.3-.9-2.6-1.8-3.7-2.6 2.3-.5 4.4-.9 5.9-1.3.8-.2 1.4-.4 2-.5 1.3.5 2.6.9 3.8 1.4.8 1 1.6 2 2.6 3.2 1.7 2.1 4.7 4.8 8.4 7.7-4.8-1.4-9.1-2.8-10.4-3.7zm11.4-2.8c11 4.5 17.6 8 16.1 9.4-.2.2-1 .2-2.3.1-5-3.2-9.7-6.5-13.8-9.5zm15.6 21c-4.1-2.3-8.6-4.9-13.3-7.8 3.1.5 6.2 1.1 9.2 1.6 1.6.9 3.1 1.8 4.6 2.6 2.7 1.5 5.2 2.9 7.4 4.3-2.5-.3-5.1-.5-7.9-.7zm20.5 2.2c-2.8-1.5-5.8-3.3-9-5.2 1.2.3 2.4.6 3.5.9 3.3.9 6.1 1.7 8.5 2.4-1 .6-2 1.2-3 1.9zm6.9-25c0 .1.1.1.1.2.5.8 1.8 1.9 3.7 3.2-3.1-.5-7.8-1.8-12.5-3.3 2.2-.2 5-.2 8.7-.1zm9 29.1c-2.9-.6-6.2-1.4-9.4-2.2 1-.7 2-1.5 2.9-2.1h.1c1.4 1.2 3.7 2.8 6.4 4.3zm4.6-16.3c-2.2 1-4.2 2.2-6 3.4-11.1-5.5-19.4-10.8-21-13.7.3.2.6.3 1 .5 5.7 2.9 16.4 6.8 26 9.8z"/><path d="M568 407.3c2-.7-2.5-7.9-12.1-19.5-8.6-10.1-16-19-16.8-19.8-.7-.7 2 4.7 5.9 11.9 9.5 17.3 19.1 28.7 23 27.4zM469 395.7c-10.4-3.2-20.7-2.5-26.4 2-3 2.2-6.2 7.4-6.9 11.6-1.5 7.2-1.5 7.2 2.5 2.5 10.4-13.1 11.1-13.6 24-13.8 10.2-.3 11.7-.8 6.8-2.3zM584.4 485.2c-3 0-7.4 3-10.4 7.2-3 4-5.2 9.1-5.2 11.9 0 3.2 1.2 2.5 4.7-3.2 2.7-4.4 7.4-9.6 10.4-11.9 5.7-4 5.7-4 .5-4zM898 544.6c-20-5.6-48.5-14.4-55.8-16-7.3-1.6-7.4 1.4-1.2 4.1 8 3.5 49.6 14 79 22.6 29.2 8.6 63.3 18.4 71.3 19.6.6-1.4 1.4-3.4 2.6-6.2-14.7-3.8-72.7-17.4-95.9-24.1z"/><path d="M991.5 574.9h-.2c-4.9 12.2 10-21.3.2 0zM998 563.5h-.2c-4.5 12.3 9.2-21.7.2 0zM903.5 536.4c-20.2-4.9-49-12.7-56.3-14-7.3-1.4-7.3 1.7-1.1 4.1 8.1 3.2 50.1 12.2 79.8 19.8 29.5 7.5 63.9 16.2 71.9 17.1.5-1.4 1.3-3.5 2.4-6.3-14.9-3.2-73.3-14.8-96.7-20.7zM890.9 552c-19.7-6.7-47.7-16.9-54.9-18.9-7.2-2-7.4 1-1.4 4 7.8 3.9 48.8 16.6 77.8 26.7 28.7 10.1 62.2 21.7 70.1 23.3.6-1.4 1.6-3.4 2.9-6.1-14.5-4.4-71.7-21.1-94.5-29zM982.5 587.2c-5.6 11.9 11.1-20.7.2 0h-.2zM885 560c-19.3-7.7-46.7-19.4-53.8-21.7s-7.5.6-1.7 3.9c7.6 4.3 47.9 19.1 76.3 30.8 28.1 11.6 61 24.9 68.8 27 .7-1.3 1.8-3.3 3.2-5.9-14.2-5.4-70.4-25-92.8-34.1zM974.7 599.9c-6.2 11.6 12.1-20.1.2.1-.1 0-.2-.1-.2-.1zM879.7 568.3c-19.1-8.4-46-21-53-23.6-7-2.6-7.5.4-1.8 3.9 7.5 4.6 47.2 20.8 75.1 33.4 27.7 12.5 60.1 27 67.8 29.3.8-1.3 1.9-3.2 3.4-5.8-14-5.7-69.4-27.3-91.5-37.2z"/><path d="M967.8 611.3c-6.6 11.4 12.8-19.7.2.1 0 0-.1 0-.2-.1zM959.1 624.6c-7.2 11.1 13.8-19 .2.1-.1-.1-.2-.1-.2-.1zM873.2 577c-18.6-9.3-44.8-23.4-51.7-26.3-6.8-3-7.5 0-2 3.8 7.2 4.9 46 23.2 73.3 37.3 27 14 58.6 30.2 66.2 32.9.8-1.3 2-3.1 3.7-5.6-13.6-6.6-67.9-31.1-89.5-42.1z"/></g><path fill="#002488" d="M320 133.3v178h800v-178H320zm642 19.1c3.4-5.8 8.4-10.1 10.6-10.1s7.2 4.7 10.9 10.4c10.1 15.3 10.6 28.9 4 50.9-3.3 11-6.3 26.9-7.3 34.5-.9 6.5-1.2 11.3-1.6 15.4h-10.7c-.3-2.6-.1-3.7-2-15.6-1.5-8.4-5-23.9-8.2-34.3-6.6-22.2-5.5-35.1 4.3-51.2zm-8.5 103.9c6.8 0 32.9-.1 39.7 0 0 1.9-.1.7-.1 3.1-9.3 0-28.5 0-39.7-.1.1-1.1.1-1.7.1-3zm-246.3-103c3.4-5.8 8.4-10.1 10.6-10.1s7.2 4.7 10.9 10.4c10.1 15.3 10.6 28.9 4 50.9-3.3 11-6.3 26.9-7.3 34.5-.9 6.5-1.2 11.3-1.6 15.4h-10.7c-.3-2.6-.1-3.7-2-15.6-1.5-8.4-5-23.9-8.2-34.3-6.7-22.2-5.5-35.1 4.3-51.2zm-8.5 103.9c6.8 0 32.9-.1 39.7 0 0 1.9-.1.7-.1 3.1-9.3 0-28.5 0-39.7-.1.1-1.2.1-1.8.1-3zM460.6 153.3c3.4-5.8 8.4-10.1 10.6-10.1s7.2 4.7 10.9 10.4c10.1 15.3 10.6 28.9 4 50.9-3.3 11-6.3 26.9-7.3 34.5-.9 6.5-1.2 11.3-1.6 15.4h-10.7c-.3-2.6-.1-3.7-2-15.6-1.5-8.4-5-23.9-8.2-34.3-6.6-22.2-5.5-35.1 4.3-51.2zm-8.5 103.9c6.8 0 32.9-.1 39.7 0 0 1.9-.1.7-.1 3.1-9.3 0-28.5 0-39.7-.1.1-1.2.1-1.8.1-3zm-19.8-20.5c.2 4.6 2.2 7.1 4.3 9.6-2.7-.7-8.3-3.3-12.9-5.9-25.4-15.3-15.4-52.9 11.2-41.5 13.8 5.9 22.1 22.4 26.7 45 .8 4.3 1 5.8 1.5 10.5H456c-.6-3.2-1.1-4.9-2.5-9.5-5.5-17.7-21.9-24.8-21.2-8.2zm55.7 44.4c-5.4-.5-7.6-.9-11.2-2.4 1.1 5.5 1.3 7.6 1.4 12-.4 6-1.6 9.9-3.5 13.7-1.7 3.4-3.1 3.4-5.4.2-1.7-3.9-2.6-5.9-3.3-13.9 0 0 0-6 .9-12.2-3.1 1.5-5.9 2.1-11.1 2.5-5.2.4-10.7-.2-10.7-.2s6.3-3.2 10.3-7.6c3.1-3.3 3.3-4.4 5.8-9.7 4.6 0 19-.1 21.8 0 2.3 5.8 1.7 5 4.9 9.5 3.3 4.6 10.7 8.3 10.7 8.3s-5.1.3-10.6-.2zm31.8-40.7c-4.6 2.6-10.2 5.2-12.9 5.9 2.1-2.5 4.1-5 4.3-9.6.7-16.6-15.7-9.5-21.3 8.2-1.4 4.6-1.9 6.3-2.5 9.5h-7.1c.4-4.8.6-6.3 1.5-10.5 4.5-22.6 12.9-39.1 26.7-45 26.7-11.4 36.7 26.1 11.3 41.5zm159.1-3.7c.2 4.6 2.2 7.1 4.3 9.6-2.7-.7-8.3-3.3-12.9-5.9-25.4-15.3-15.4-52.9 11.2-41.5 13.8 5.9 22.1 22.4 26.7 45 .8 4.3 1 5.8 1.5 10.5h-7.1c-.6-3.2-1.1-4.9-2.5-9.5-5.5-17.7-22-24.8-21.2-8.2zm55.7 44.4c-5.4-.5-7.6-.9-11.2-2.4 1.1 5.5 1.3 7.6 1.4 12-.4 6-1.6 9.9-3.5 13.7-1.7 3.4-3.1 3.4-5.4.2-1.7-3.9-2.6-5.9-3.3-13.9 0 0 0-6 .9-12.2-3.1 1.5-5.9 2.1-11.1 2.5-5.2.4-10.7-.2-10.7-.2s6.3-3.2 10.3-7.6c3.1-3.3 3.3-4.4 5.8-9.7 4.6 0 19-.1 21.8 0 2.3 5.8 1.7 5 4.9 9.5 3.3 4.6 10.7 8.3 10.7 8.3s-5.2.3-10.6-.2zm31.8-40.7c-4.6 2.6-10.2 5.2-12.9 5.9 2.1-2.5 4.1-5 4.3-9.6.7-16.6-15.7-9.5-21.3 8.2-1.4 4.6-1.9 6.3-2.5 9.5h-7.1c.4-4.8.6-6.3 1.5-10.5 4.5-22.6 12.9-39.1 26.7-45 26.7-11.4 36.7 26.1 11.3 41.5zm167.3-4.6c.2 4.6 2.2 7.1 4.3 9.6-2.7-.7-8.3-3.3-12.9-5.9-25.4-15.3-15.4-52.9 11.2-41.5 13.8 5.9 22.1 22.4 26.7 45 .8 4.3 1 5.8 1.5 10.5h-7.1c-.6-3.2-1.1-4.9-2.5-9.5-5.5-17.7-21.9-24.8-21.2-8.2zm55.7 44.4c-5.4-.5-7.6-.9-11.2-2.4 1.1 5.5 1.3 7.6 1.4 12-.4 6-1.6 9.9-3.5 13.7-1.7 3.4-3.1 3.4-5.4.2-1.7-3.9-2.6-5.9-3.3-13.9 0 0 0-6 .9-12.2-3.1 1.5-5.9 2.1-11.1 2.5-5.2.4-10.7-.2-10.7-.2s6.3-3.2 10.3-7.6c3.1-3.3 3.3-4.4 5.8-9.7 4.6 0 19-.1 21.8 0 2.3 5.8 1.7 5 4.9 9.5 3.3 4.6 10.7 8.3 10.7 8.3s-5.1.3-10.6-.2zm31.8-40.7c-4.6 2.6-10.2 5.2-12.9 5.9 2.1-2.5 4.1-5 4.3-9.6.7-16.6-15.7-9.5-21.3 8.2-1.4 4.6-1.9 6.3-2.5 9.5h-7.1c.4-4.8.6-6.3 1.5-10.5 4.5-22.6 12.9-39.1 26.7-45 26.7-11.4 36.7 26.2 11.3 41.5z"/></svg>