<svg version="1.1" id="Слой_1" xmlns="http://www.w3.org/2000/svg" x="0" y="0" viewBox="0 0 512 512" xml:space="preserve"><style>.st4,.st6{fill:#fcd116;stroke:#bd9c08;stroke-width:1.1824}.st6{fill:none;stroke-linecap:round}.st10{fill:#fff}</style><path fill="#ce1126" d="M0 85.7h512V427H0z"/><path d="M298.1 246.4c7.5 2.7 18.8 2 23.9 9.9-7.5-2.7-16.7 13.4-23.9 9.9 6.3 5.9-92.2 0-84.3 0-7.5-2.7-18.8-2-23.9-9.9 7.5 2.7 16.7-13.4 23.9-9.9-6.3-5.9-17.3-10.5-19.9-20.2 6.3 5.9 19.2-5.1 25 1.6-4.4-8.4-13.7-17.7-13.5-28 4.4 8.5 19.4 3.9 23.1 12.9-2-10-8-22.8-5.5-32.5 2 10 17 12.4 18.4 22.6.7-10.3-2-25.1 3.2-33.1-.7 10.3 12.9 19.5 11.5 29.6 3.3-9.3 5.1-24.5 11.5-29.6-3.3 9.4 7.4 24.1 3.2 33.1 5.5-7.3 10.8-20.8 18.4-22.6-5.5 7.3.4 25.9-5.5 32.5 7-4.4 15.3-14.7 23.1-12.9-7 4.4-6.3 24.5-13.5 28 7.7-.9 18.1-6.7 25-1.6-8 .9-12.3 20.2-20.2 20.2z" fill="#fcd116" stroke="#bd9c08" stroke-width="1.478"/><path d="M220.5 256.3l-27-14.7 29.1-1.5L201 214l27.7 11.9-13.6-34.4 23 23.8-3.9-38.5 15.5 32.8 6.2-37.9 6.2 37.9 15.5-32.8-3.9 38.5 23-23.8-13.6 34.4 27.7-11.9-21.6 26.1 29.1 1.5-26.9 14.7 26.9 14.7h-125l27.2-14.7h0z" fill="#fcd116" stroke="#bd9c08" stroke-width="1.478" stroke-linejoin="round"/><ellipse cx="256" cy="256.3" rx="35.3" ry="47.1" fill="#fcd116" stroke="#bd9c08" stroke-width="1.774"/><path class="st4" d="M267.6 142.4l18.9.2c.1-1.1-1.6-3.2-3.1-3.5-4.8-1-8.4 1.1-14.2 1.1l-1.6 2.2z"/><path class="st4" d="M229.9 136.5c4.4 7.5 13.1 12.7 21.3 12.8 11.1.1 23.4-11.9 38.3-15.5l-48.6-1.3c-6.3-5.7-11.1-5-14.3-1.5l-9.3.4c-1.3 1 1.1 4.9 3 5.1h9.6z"/><path class="st4" d="M251.9 132.2c-1.8-10.8-8.3-15.5-16.1-16.9-9.1-1.6-29.9-3.2-43.7-8.5 6 7.9 18.5 11.8 27.2 13.5 9.2 1.9 18.2 4.6 25.3 11.8l7.3.1z"/><path d="M246 139.4c2.9 5 7.4 4.7 12.2.4 4.8-4.3 10-16.4 12.6-16.6 17.7-1.4 39-11.3 49.2-19-12.9 2.4-25.7 5.2-38.7 5.3-22.2.1-24.9 13.6-33.9 23.1" fill="#fcd116" stroke="#bd9c08" stroke-width="1.182" stroke-linecap="round"/><path class="st6" d="M249.4 133.6c4.7-4 8.6-9.3 13-13.7 7.3-7.3 15.8-7.5 24.9-7.6 8.1-.1 22.2-4.6 29.9-7"/><path d="M244.5 131.7c-1.4-9.7-8.2-12.6-16.8-14.3-9.3-1.9-18.9-2.9-28.2-6.4-2.3-.9-4.5-2.4-6.7-3.5" fill="none" stroke="#bd9c08" stroke-width="1.182"/><path class="st6" d="M247.5 145.9c8.8.9 15.3-2.7 22.8-7.6M217.3 133.3h11.1"/><ellipse cx="231.9" cy="131.7" rx="1.4" ry="1.8" fill="#bd9c08"/><path fill="#003f87" d="M0 273.4h512V427H0z"/><path id="w" class="st10" d="M0 378.2c17.1 0 34.1 14.6 51.2 14.6s34.1-14.6 51.2-14.6 34.1 14.6 51.2 14.6 34.1-14.6 51.2-14.6 34.1 14.6 51.2 14.6 34.1-14.6 51.2-14.6 34.1 14.6 51.2 14.6 34.1-14.6 51.2-14.6 34.1 14.6 51.2 14.6 34.1-14.6 51.2-14.6v-24.4c-17.1 0-34.1 14.6-51.2 14.6s-34.1-14.6-51.2-14.6-34.1 14.6-51.2 14.6-34.1-14.6-51.2-14.6-34.1 14.6-51.2 14.6-34.1-14.6-51.2-14.6-34.1 14.6-51.2 14.6-34.1-14.6-51.2-14.6-34.1 14.6-51.2 14.6S17.1 353.9 0 353.9v24.3z"/><g><path id="w_1_" class="st10" d="M0 329.5c17.1 0 34.1 14.6 51.2 14.6s34.1-14.6 51.2-14.6 34.1 14.6 51.2 14.6 34.1-14.6 51.2-14.6 34.1 14.6 51.2 14.6 34.1-14.6 51.2-14.6 34.1 14.6 51.2 14.6 34.1-14.6 51.2-14.6 34.1 14.6 51.2 14.6 34.1-14.6 51.2-14.6v-24.4c-17.1 0-34.1 14.6-51.2 14.6s-34.1-14.6-51.2-14.6-34.1 14.6-51.2 14.6-34.1-14.6-51.2-14.6-34.1 14.6-51.2 14.6-34.1-14.6-51.2-14.6-34.1 14.6-51.2 14.6-34.1-14.6-51.2-14.6-34.1 14.6-51.2 14.6S17.1 305.1 0 305.1v24.4z"/></g><g><path id="w_2_" class="st10" d="M0 280.7c17.1 0 34.1 14.6 51.2 14.6s34.1-14.6 51.2-14.6 34.1 14.6 51.2 14.6 34.1-14.6 51.2-14.6 34.1 14.6 51.2 14.6 34.1-14.6 51.2-14.6 34.1 14.6 51.2 14.6 34.1-14.6 51.2-14.6 34.1 14.6 51.2 14.6 34.1-14.6 51.2-14.6v-24.4c-17.1 0-34.1 14.6-51.2 14.6s-34.1-14.6-51.2-14.6-34.1 14.6-51.2 14.6-34.1-14.6-51.2-14.6-34.1 14.6-51.2 14.6-34.1-14.6-51.2-14.6-34.1 14.7-51.2 14.7-34.1-14.6-51.2-14.6S68.3 271 51.2 271 17.1 256.3 0 256.3v24.4z"/></g></svg>