<svg version="1.1" id="Слой_1" xmlns="http://www.w3.org/2000/svg" xmlns:xlink="http://www.w3.org/1999/xlink" x="0" y="0" viewBox="0 0 512 512" xml:space="preserve"><style>.st0{fill:#012169}.st8{fill:#bca76b}.st9{fill:#cfa763}.st10{fill:#d7c99c}.st11{fill:#7fb8c1}.st12,.st13{fill:none;stroke:#000;stroke-width:.967}.st13{stroke-width:.2418}.st17{fill:#472b1f}.st18{fill:#fff}.st21,.st27,.st28{fill:#bca76b;stroke:#472b1f;stroke-width:.1451}.st27,.st28{stroke-width:.2051}.st28{stroke-width:.2506}.st29,.st30,.st35,.st43,.st60{fill:#bca76b;stroke:#472b1f;stroke-width:.2146}.st30,.st35,.st43,.st60{stroke-width:.2078}.st35,.st43,.st60{stroke-width:.1237}.st43,.st60{stroke-width:.1678}.st60{stroke-width:.1009}.st62{fill:none;stroke:#000;stroke-width:.4835}.st63,.st64{fill:#69737c;stroke:#000;stroke-width:.7253}.st64{fill:#66452b}.st65{fill:#69737c}.st66{fill:none;stroke:#000;stroke-width:.7253}</style><path id="path5" class="st0" d="M-.2 96.7H511V426H-.2V96.7z"/><path id="path7" d="M-.2 96.7l255.6 164.6m0-164.6L-.2 261.4" stroke="#fff" stroke-width="29.01"/><defs><path id="SVGID_1_" d="M-.2 96.7V179H298v82.3h-42.6L-.2 96.7zm255.6 0H127.6v192.1H-.2v-27.4L255.4 96.7z"/></defs><clipPath id="SVGID_2_"><use xlink:href="#SVGID_1_" overflow="visible"/></clipPath><path id="path9" d="M-.2 96.7l255.6 164.6m0-164.6L-.2 261.4" clip-path="url(#SVGID_2_)" stroke="#c8102e" stroke-width="19.34"/><path id="path11" d="M127.6 96.7v192.1M-.2 179H298" stroke="#fff" stroke-width="48.351"/><path id="path13" d="M127.6 96.7v192.1M-.2 179H298" stroke="#c8102e" stroke-width="29.01"/><path id="path15" class="st0" d="M-.2 261.4h255.6V96.7H511V426H-.2V261.4z"/><path id="path17" d="M425.6 237.8c-.1 37.2-4.7 77.4-42.4 96.5-37.7-19.1-42.3-59.2-42.4-96.5h84.8z" fill="#128bbf"/><path id="path19" d="M383.2 334.2c17.1-8.7 27.7-22.8 33.8-37.9-1-.4-2.9-.5-3.7-.1-.9-.1-36.4-3.4-40.6-5.4-3.6-1.7-17.5 1.4-23.9 4.4 6 16.1 16.5 29.9 34.4 39z" fill="#e8ece9"/><path id="path21" d="M356.9 311.1c.6-.2 1.7-.2 2.1-.1.5.1.6.2.8-.5.2-.7.6-.5.9-.2.3.4 1.2.2 1.5-.4.3-.6.4-.5.7-.1.3.4.5.3.8.2.3-.1.9-.6 1.2-1.2.3-.7.7-.9.9-.5.2.4.5.5.8.5.3-.1.4.4.4.9s.1.7.9-.2c.7.9.9.5.9-.4s-.2-4.4-.5-4.9-.6-1.8-.6-2.9c-.1-2-.1-2.1-2-3.4 0-.7-.1-1-1.5-.9 0-.2-.2-.9-.5-1.2-.3-.3-.3-.4-.2-1.2.6.1 1.2-.1 1.5-.7.3-.6 1.4-.5 2-.1.6.4 1.5.4 2.7.2.5-.5 1.3-1 2.1-1.6.8-.6 1.1-.8 1.1-1.7.1-2.1-.5-4.6-.9-5.7-.5-1.1-.6-2.5-1.2-4.3-.7-1.9-.7-2.4-1.5-3.6-.2-.3-.5-.6-.5-1.2 0-.7-.2-1.5-.8-2.2-1.4-1.6-1.9-6.9-2.5-10.8-.3-2.2-.1-7.5-.8-8.4-1.3-1.3-1.9-1.1-2.7-1.5-.6-1.1-.9-3.2-1.4-5.1-.9.2-1.5 1.4-2.1 1.8-.6.4-.7.4-.7 1.5s-.5 2.5-1.3 4.2c-.8 1.7-2.2 1.2-3.4 3.7-2.5-4-2.6-5.1-2.8-6.2-.2-1.1-.6-1.4-2-3 0-.5-.2-2.4 0-3.4-1.1-1.1-1.9-.9-2.4-.1s-.9 2.1-1.7 2.5c-.5.8-1.9 2.7-3.1 5 1.2 20.4 4.8 40.9 15.8 57.2z" fill="#69522b"/><path id="path23" class="st8" d="M425.6 237.8c0-14-.6-27.6-.3-39.6-14.1-8.1-32.6-9.7-42.1-9.7s-28 1.7-42.1 9.7c.3 11.9-.3 25.6-.3 39.6h84.8z"/><path id="path27" class="st9" d="M343.1 254c.5.9 1.3 2.6 1.4 3.5.3-.9.6-1.2.6-1.8.1-.5.6-1.6.4-2.1s-.3-1 .2-.6.4 1.1.3 2.2c-.3 2.9-1.2 3.5-1.4 5.5 1.4 4.1.3 5.6 1.8 9.6.2.2.9-.1 1-.1.8-.7 1.4-.5 2.5-.2s1.7 1.3 1.7 2.2c0 .9 0 1.1.2 1.7.2.5.7 1.4.6 2-.1.6.1.9.2 1.2.1.3 0 .9-.2 1.4s-.1.9.5 1.8 1.9 4.6 1.9 6.8.1 3.2.8 3.6c.7.4.9.8.8 1.7-.1.9.3 5.9.4 6.6.1.8.3.6.6 1s.5.9 1.4.9 1.8-.2 2.4 0c.8 1.5 1.3 3.5 1.5 4.7s.2 2.9.5 2.9.6.1.6-1.5c-.1-1.5-.2-1.8-.6-2.5-.4-.8-.6-1.1-.4-1.6.2-.5.3-1.2.2-1.8-.1-.6-.2-1.5.6-.3s1 1.5 1.3 1.9.3 1.2.3 1.9 0 1 .4.6c.3-.4.7.2.6 1-.2.8 0 1.2.6 1.5.6.2.8.4.9.9.1.5.6.8.6-.3s-.3-3.3-.6-4c-.2-.7-.4-2.3-.5-3.1 0-.9-.2-1.1-.5-1.3-.3-.2-.6-.5-.6-.9s-.3-.6-.5-.6-.4-.2-.5-.5c-.1-.3-.2-.3-.5-.4-.2 0-.6.1-.7-.3-.1-.5-.3-1.2-.5-1.5-.2-.4-.4-.5-.5-1.8 0-1.3 0-1.5-.4-2-.3-.5-.9-1.7-1.1-2.3-.2-.5-.5-1.1-.5.1 0 1.1 0 1.7.6 2.1.6.4.7.4.5 1-.2.6 0 1 .1 1.4s.3.8 0 1.2c-.3.4-.6.3-.5-.4 0-.7-.1-1.4-.4-2-.2-.5-.4-.9-.7-.6-.3.3-.5-.1-.3-.3.2-.2.1-.4 0-.6-.1-.2-.2-.4 0-.7.2-.4.2-.5.1-1.4-.1-.8-1.2-5-1.6-5.9-.5-.9-.4-1.7.2-.7.6.9 1.1 1.8 1.2 2.5 0 .8.2 1.2.4 1.5.2.3.3.2.4-.5s.5-.4-.2-1.7c-.6-1.2-1.9-3.3-2.3-7.1-.5-3.7-.6-6.2-1.1-7.2-.5-1-.6-1.2-.6-2.2 0-.9 0-1.9-.3-2.6-.3-.7-.6-.8-.6.2 0 1.1 0 3.4.3 3.9s.1 1.5 0 2.1c0 .6-.8 1.2.7 2.4.6.5.5 1.1.4 1.5-.1.4-.2.4-.5-.3s-.6-1.2-1-1.5c-.3-.4-.4-.6-.3-1.4 0-.8.2-1.4 0-1.7-.2-.3-.3-.1-.4.4-.1.5-.2 1.8-.4 2.1-.2.4-.3.1-.4-.7-.1-.8 0-2 .4-3.3s.5-2.8.2-4.6c-.3-1.8-.1-2.3-1.2-3.8-1.1-1.5-2.3-2.9-2.8-4.7-.5-1.8-.6-3.4-1.2-4.3-.6-.8-1.3-1.9-1.9-2.2v-2.7c0-.7-.2-1.1-.8-.9s-1 .8-1.3 1.7c-.4.9-.6.5-1.2 2-.5 1.9-1.3 2.6-1.3 4.3z"/><path id="path29" class="st9" d="M346.5 271.4c.4.3.7.5 1.3.1.6-.4 1.2-1.4 2-.4.7 1 1.2 2.7 1.2 4 0 1.3 0 3.7 1.2 5.1 1.2 1.4 1.8 2.8 1.8 4.6 0 1.8.6 4.5.7 5.2.1.7.5 1.5.8 2 .4.5.6 1.8.7 3.3 0 1.4-.1 2.4 0 3.1s0 1.3-.4.9-.5-.5-.7-1.1-.5-.5-.3.4.9 1.7 1.5 1.7.8.1 1.2.6c.4.5.4.7 1.1.7s.7 0 1.3.2c.6.2.6.1.9 0 .3-.1.6.2.9 1 .2.8.8 2.9.8 3.5s0 1.2.3 1.8.2 1.2-.1.8c-.4-.4-.4-.2-.6-.2s-.5-.1-.8-.4c-.4-.3-.1-.2-.5-.9s-.6-.9-.6-.4 0 1.2-.3.9c-.3-.3-.4-.3-.6 0-.2.3-.3.5-.6-.1s-.6-.6-.9-.7-.3-.1-.4-.7c-.1-.5-.6-.7-.9-.7s-.6-.2-.6-.6c0-.4-.3-.6-.5-.8s-.1-.6-.1-1-.3-.2-.5-.4c-.2-.1-.3-.1-.3-.7s-.2-.8-.3-1.2c-.1-.4 0-.8.1-1.3s0-.8-.2-1.2c-.3-.4 0-.8-.8-1.7-.7-.8-1.1-.1-1.3-2.1-.2-2-.7-6-1.1-6.6-.4-.7-.7-1.1-1.1-1.3-.4-.2-.7-.1-.7-1.2 0-1.1-.3-2.5-.9-3.3-.6-.7-.8-.9-1.1-1.2-.3-.3-.4-.8 0-1.8s.2-2.4.2-3c0-.6-.2-1.5-.1-2.2.1-.7 0-1.6-.1-2.1-.7-.2-.9-.3-.6-.6z"/><path id="path95" class="st10" d="M360.5 303.8c-.3.7-.6.5-.9.1-.3-.4-.6-.4-.5-1 .1-.7.1-.8-.3-1.1l-.1-.1h-.4c-.6 0-.7-.2-1.1-.7-.1-.1-.2-.2-.2-.3v.4c0 .7 0 .5-.5.7-.5.2-.4-.7-.5-1.2 0-.1-.1-.2-.1-.3-.6-.1-1.1-.9-1.4-1.7-.2-.9 0-1 .3-.4s.3.8.7 1.1c.4.4.6-.2.4-.9 0-.2-.1-.5 0-.8-.1-.2-.2-.4-.4-.5-.7-.4-.5-.5-.5-1.3s-.1-.8-.6-.4-.5-.1-.5-1.2c0-1.2-.6-1.2-.7-.4-.1.8-.4.3-.6-.9-.3-1.2-.6-1.5-.7-.4 0 1-.2 1.2-.7.7.1.7.2 1.3.2 1.8.2 2 .6 1.2 1.3 2.1.7.8.5 1.2.8 1.7.3.4.3.7.2 1.2-.1.5-.2.9-.1 1.3s.3.6.3 1.2.1.5.3.7c.1.1.3 0 .4.1.1-.2.2-.4.4-.6.6-.7 1.4.1 1.7.9.3.9.6 1.1 1 .4s.3-.6.7.1c.5.7.6.5.6.5s.5-.2.8.1c.3.4.5.3 1.1-.8.8-1.2-.1-.8-.4-.1z"/><g id="g187"><path id="path97" class="st11" d="M361 312.1c1.1-.1 4.1-1.2 4.4-1.6.7.7 2 1.5 2.6 1.5-1.1.3-1.8.1-2-.1.1.4.5 1.1.7 1.1-1-.1-2.2-.4-2.5-.8-.9.5-2.4.6-3.2-.1z"/><path id="path99" class="st11" d="M363 313.8c.4.1 2.4.6 2.6.6-.6.7-.1 1.4 1 1.3-.5.1-1.1.3-.7.4 1 .2 3.5-.7 4-1-.9 1.5-5.2 2.8-6.9-1.3z"/><path id="path101" class="st11" d="M364.7 317.5c.5-.4 1.9-.2 2.5.1-.7.3-2.1.3-2.5-.1z"/><path id="path103" class="st11" d="M366.7 317.4c1-.2 3.6.6 4.6-.1-.3 1.1-2 1.2-2.6 1-.6-.2-1.1-.5-1.5-.5.2-.2-.2-.2-.5-.4z"/><path id="path105" class="st11" d="M367.7 319.1c.7.1 3.3-.3 4.1-.7.8.4 2.5.9 2.8.9-.8.6-2.3.3-2.8 0-1.4.6-2.5.8-4.1-.2z"/><path id="path107" class="st11" d="M368.9 319.6c1 .3 1.9.1 2.9-.3.3.2 1.1.4 1.8.3.5.3 1.1.8 1.7.9-.6.3-2.9 0-3.4-.3-1.2 0-3.2.4-3.6.9-.1-.5.1-1 .6-1.5z"/><path id="path109" class="st11" d="M367.7 313c.8.3 3.7.2 5.2-.7.6-.4.9.2.3.5-2.4 1.1-4.3 1.5-5.7.5-.6-.4-.7-.7.2-.3z"/><path id="path111" class="st11" d="M381.9 307.9c-3.6 2.1-5.9 2.8-10.9.8-.5-.2-.8 0-.3.4s3.2 1.4 3.9 1.4c.6.1.4.4 0 .6s-.5.5 0 .2 3.5-.4 4.7.4c.5.4.7.3.6 0s.2-.4.6-.5c.4-.1.6-.2.3-.4-.3-.1-.3-.2-.1-.4.2-.1.3-.3-.1-.4-.3-.1-.6-.2-.3-.4s.8-.4 1.2-.4c.3-.1.1-1 .4-1.3z"/><path id="path113" class="st11" d="M376 308.5c2 .2 5.8-1 7.8-3.5.7.5 1.7 1.1 2.2 1.2.5.1 1 .7.2.7s-1.9-.4-2.4-.7c-2.6 2.1-5.7 2.8-7.7 2.5-.6 0-.8-.3-.1-.2z"/><path id="path115" class="st11" d="M372.8 301c-.3.1-1.5.4-1.8.4-.3 0-.6.1-.6.4s.1.5-.4.4c-.5-.1-.9.2-1 .4-.1.2-.2.4.3.4.5.1.7.1 1.3-.2s1.1-.8 1.7-.9c.5 0 1.1-1 .5-.9z"/><path id="path117" class="st11" d="M371.1 302.9c.5.4 3 1.5 3.9 1.4s.7.5 0 .7c-1.4.4-3.1-.4-4.3-1.6-.5-.6 0-.8.4-.5z"/><path id="path119" class="st11" d="M383 304.5c-1.9.8-3.9.5-4.7.2-.8-.3-1.5-.3-1 .3s2.2 1.1 3.2.8c-3.5 1-4.4.9-5.2.7-.9-.2-2.5-.1-3.2-.1-.5.1-1.2 0-1.5-.3-.3-.2-.4-.7.5-.6.9.1 1-.1.2-.3-.8-.1-1.9.3-.8 1.1 1.1.9 3.4-.1 4.9.5 1.5.5 4.6.9 7.6-2.2.3.1.5-.4 0-.1z"/><path id="path121" class="st11" d="M378.5 302c-.4 0-1.1-.3-1.5-.5-.4-.2-.9-.2-.5.4.4.7 2.1 1.1 2.7.7.6-.3.3-.7.9-.2.6.5 1.2.8 1.7.8.4 0 .6 0 .1-.4s-.7-.4-.8-.7-.1-.5.3-.3 1 .5 1.3.3c.3-.2 1-.8 1.6-.8l.1-.4c-.8-.1-1.4.2-1.6.4s-.6.2-1.1.1c-.4-.1-1-.1-1.2-.3-.1-.1-.1-.3.2-.4.4-.1.5-.4 0-.3-.5.1-1.9.1-2.6-.2-.7-.3-1-.3-1.3-.2-.3.1-.3.6.2.6.4 0 1.4.1 1.8.6.3.4.3.4-.1.2-.2-.2-1-.1-.2.6z"/><path id="path123" class="st11" d="M395.3 300.4c-1.4 1.3-3.1 1.6-5 1.8-.6.1-.4.3.1.3 2.1.3 4.5-.7 5.3-1.8.1-.3.1-.8-.4-.3z"/><path id="path125" class="st11" d="M385.8 303.4c.6 0 2.7.7 3.4 1 .5-.1.6-.2.6-.4-.1-.2-.2-.5.8-.4.9.1 3.1 0 3.5 0 .3-.2 1-.9 1.4-.9-.8.1-4.3.3-4.7.2-.4-.1-.7 0-1 .2-.3.2-.4.3-.8.1-.3-.2-1-.4-1.3-.1-.6.2-1.3 0-1.9.3z"/><path id="path127" class="st11" d="M393.9 303.6c.3-.2 1-.9 1.4-.9.6-.1 1.3.3 1.6.3s.7 0 .4-.4c-.2-.3 0-.9.9-.7.9.1 1.4.4 2.4.2.9-.1 1.3.8 3.1-.1-.1.9.2.9.5.8.3-.2.7-.1 1.3.4s3.9.6 4.7.4c.8-.2 1.2.4.6.6-.6.2-.7.6-.6.8.1.2.3.5-.5.4-.7-.1-.9.2-1.3.5-.4.4-.5.5-1.5.2-1-.2-1.2-.1-1.8.1-.6.1-.7.1-1.3-.1-.6-.2-1.8-.5-2.5-.2s-1.3.6-1.9.4c-.6-.2-.7-.1-.3-.7.4-.5.5-.5 1.3-.6.8-.1 1.4-.4.8-.8-.6-.4-.7-.4-1.5.1-.7.5-1.1.8-1.9.2-.8-.6-1.3-.5-1.8-.3-.4.2-1.3-.2-2.1-.6z"/><path id="path129" class="st11" d="M396.7 305.3c-1.1.2-1.3-.7-2.5-.5-.4.1-1 .6-.1.6.9-.1 1.8.5 2.6.4.8-.1.5-.5 0-.5z"/><path id="path131" class="st11" d="M395.5 306.4c.6-.3 1.7.2 2.2.1.5-.1 1 .3.4.5-.5.2-1.7-.4-2.3-.2-.5.2-1.1-.1-.3-.4z"/><path id="path133" class="st11" d="M384.4 310.2c.8 0 3.5-.1 4.6-3.1.1-.2.2-.3.5 0s1.6 1.3 4 1.5c.7.1 1.4.5 0 .4-1.3-.1-3.5-.6-4.2-1.2-1.2 2.4-3.4 2.7-5 2.7-.9 0-.7-.3.1-.3z"/><path id="path135" class="st11" d="M390.3 306.2c-.4.7-1.6 1.8-2.2 1.8-.6.1-2.3-.1-2.8-.4-.4-.2-1-.1-.3.4.6.6 2.2.9 2.8.8.6-.2 1.3-.4 1.8-.1.5.4 1.4 1.1 1.9 1 .5-.1 1.6-.1 2 .1.3.2 1 .8 0 .5-.9-.4-1.6-.1-2.1-.3.5.8 1.5 2.2 2.4 2.2.2 0 .3.5-.1.7.4.3 1.5.5 2-.1-.1.2-.1.4.2.5.2.1.5.4.1.4-.4.1-1.4.2-1.6.1.9.7 3.2 1.9 5.6 1.3.5-.1.7-.4 0-.3-1.5.1-1.6 0-1.9-.2-.3-.2-.2-.4.2-.6.4-.2 1.6-.4 2-.4.5 0 .9-.2 0-.2-1 0-2.1 0-2.6-.2s-.8-.5-.3-.9 1-.3 1.2-.7c-1.5 0-3.4-1.1-2.4-2 .2-.2.2-.2-.2-.3-.4-.1-1.6-.5-2-.8-.5-.4-.2-.7.2-.7-.8.1-2.7-.5-3.9-1.6z"/><path id="path137" class="st11" d="M403.9 306.1c-.8.8-2.4 1.1-3.1 1.1s-.8.3-.2.4c.5.1 1.1.2 1.3.1.2-.1.4-.1.7.1.3.2 1.1.3 1.7.1.6-.3 1.7-.4 2.2-.4s.9.1 0-.3c-.9-.3-2.3-.1-2.7 0-.3.1-1.3 0-.8-.2s1-.5 1.2-.8c0 0-.1 0-.3-.1z"/><path id="path139" class="st11" d="M403.5 308.4c-.7.7-1.8 1.3-2.8 1.4 1 .4 1.8 1.7 2.4 1.7-.3.2-.7.6-1.1.7.6.2 1.6 0 2.5-.6 1.4.5 3.2.2 3.8-.5-.9 0-2-.4-2.5-.9.4 0 .9-.4 1.1-.7-1.1.1-2.9-.5-3.4-1.1z"/><path id="path141" class="st11" d="M402 312.1c.4-.1.8-.4 1.1-.7-.8.3-4.1-.4-5.1-1.5s-1-.3-.3.5c.7.9 1.9 2.1 4.3 1.7z"/><path id="path143" class="st11" d="M404.5 314.9c-.4.3-2.4.5-3.1.3-.6-.2-.9-.1-.8.2.2.3.2.6-.3.5s-1.5.1-1.9.2c-.4.2-.9.6 0 .4.8-.2 1.6-.4 2.2-.2.6.2 2.8.3 3.3 0 .4-.2.1-.2-.1-.2s-.3-.2 0-.4c.4 0 .6-.5.7-.8z"/><path id="path145" class="st11" d="M385.2 311.4c-.8.5-3.6 1.4-4.4 1.5-.9.5-1.7.8-2.1.8.3.4 1.6.7 2.1.5-.3.4-.9.8-1.2.9.7-.1 1.6.1 2 .2-1 .7-2.3.9-3 .8.2.4.6.8 1 .8-.9.3-1.9.3-2.5.1.2.6.5.9.8 1-.7.1-1.7.3-2.5-.3.6 1 1.9 1.4 3.9 1.1 2-.3 3.7-1.4 4.1-1.9-.8.1-1.9.2-2.5.1 1.1-.4 3.5-1.7 3.9-2.2-.5 0-.9-.2-1.3-.5.6.1 2.9-.2 3.6-.6-.8-.2-1.3-.9-1.6-1.3 2.9 1.2 6.2.8 7.7.3.4-.1.4-.7-.3-.7-1.3.1-3.8-.4-4.4-.8.6.6 1.3.9 1.9 1.1-1.1.5-2.7.8-5.2-.9z"/><path id="path147" class="st11" d="M379.6 315.2c.2-.2.9-.6 1.2-.9-.5.2-1.8-.2-2.1-.5.5 0 1.2-.3 2.1-.8-1.7-.1-2.8-.1-3.4-.5s-1.7-.3-2.1-.2c-.4.1-.3 1 1.5.8-.7.7-2.7.9-3.5.7.2.8.3 1.5.1 2 1 .7 3.5 1.6 4.8 1.5-1.1-.5-1.7-1.1-.8-1.2s1.5-.6 2.2-.9z"/><path id="path149" class="st11" d="M376.8 319.1c2.2-.2 5.2-.3 7.6-2.8.6-.7 1-.4.4.2-1.2 1.4-4.4 3.4-7.3 3.4-1.3 0-1.8-.7-.7-.8z"/><path id="path151" class="st11" d="M393.4 314.4c-.6.3-2.1.6-2.6.5-.5-.1-1.1-.1-1.5.2-.4.3-.4.5.1.5.5.1 1.2.1 1.5.1-.4.3-.7.7-.8.9.7-.2 2.1.2 2.5.5-.3.1-.6 0-.9-.2 1.3 1.7 5 1.7 5.6 1.4-.3.3-.5.5-.8.6 1 .2 2.2.2 3.4-.7-.4.1-1.6-.1-1.9-.1.2-.3.6-.6.9-.7-.5-.1-1.9-.1-2.3.2.1-.4.4-.8.7-.9-1.8 0-4.1 0-4.9-.6 1.3.2 2.7-.8 3.3-.8-.9-.1-2-.4-2.3-.9z"/><path id="path153" class="st11" d="M388.7 315.7c-.9.2-2.3.7-2.6 1-.4.3-.8.4 0 .4s3 .1 3.5.2c-1.2-.2-2.9-.3-3.2-.3s-.7 0-.1-.3c.6-.2 1.4-.8 2.4-1z"/><path id="path155" class="st11" d="M386.9 318.4c.3 0 1.7 0 2.3-.6.6.6 1.7 1.4 2.4 1.4s.6.2 0 .3c-.6.1-1.9-.4-2.5-1-.8.4-1.5.1-2.2-.1z"/><path id="path157" class="st11" d="M376.2 326.4c1.4.7 3.3 1.2 4.7.7.8.9 2.4.9 3.3.7.9-.2 1.7-.4 2.6.1 1 .4 3 .4 3.5 1-.5 0-1.6 0-1.9.1-.3.1-.1.3.3.6-1.6-.1-4.3.7-5.1 1.7.3-.9 1.2-2.2 2.7-2.2-.8-.4-3.5-.4-4.4.3-.3-.4-.6-.9-.6-1.2-1.2 1-4-.5-5.1-1.8z"/><path id="path159" class="st11" d="M372.5 323.1c1.7-.3 2.9-1 3.4-1.7.3.4 1.6.7 2.9.2-.3.3-.3.8-.2 1-.9 0-2.6.6-3.2 1-.6.4-2.3.6-2.8.3-.6-.4-.6-.7-.1-.8z"/><path id="path161" class="st11" d="M378.6 322.6c-.9 0-2.6.6-3.2 1 .1.3.2.8.2 1.1 1.7-.8 5.5-1.2 7-.9-.7.1-2 1-2.8 1.1 1.8-.2 3.6.3 4 .4.5.1.6.6.2 1-.3.4-.5.5.2.5s2.3-.1 3-.9c-.3-.4-1-.2-1.2-.5.5-.2 1-.7 1.3-1-1.3 0-1.7-.1-2.1-.2-.4-.1-.7-.3-.2-.6.5-.4.7-.7.9-.9-.9.3-2.3.6-3.5-.6.4.1 1.5.1 1.9-.1-.4-.3-.7-.5-1-.5.9-.6 2.8-1.1 5.1.1 1.2-.1 2.4-.1 3.3.2.4-.5 1.2-1.6 1.6-1.9-2.7.3-7.6-.4-7.6-2.2-.9 1.5-2.9 2.3-3.8 2.1-.1.5.3 1.2.6 1.5-.9.2-2.5.4-3.2.2.4.5 1.2 1 1.7.9-1.1.1-1.6.3-2.4.2z"/><path id="path163" class="st11" d="M384.3 326.8c.7 0 2.3-.1 3-.9-.3-.4-1-.2-1.2-.5.5-.2 1-.7 1.3-1 1.9-.2 3.7-.1 4.5-.4.8-.3 3-.1 3.4-.3-1.9.4-2.2.6-2.3 1-.1.4.6.7 1 .7-.8-.1-1.9 1.1-2 1.5-1.1-.8-1.6.1-1.8.5-.5-.2-2-.2-2.8.7-1-.4-1.7-.6-2.7-.4.6-.2.5-.8-.4-.9z"/><path id="path165" class="st11" d="M393.2 319.9c.6 0 2 .1 2.5 0-.3.2-.7.6-.8.8 1.6-.2 3.7-.4 4.4-.3-.8-.1-1.6.5-1.9.8-.4.3-.2.5.4.6.5.1 1.3.6.3.4-1-.2-2.9-.2-3.4-.1s-.7-.2 0-.3c.7-.1 1.1-.4 1.5-.7-.6.2-1.6.2-1.9.1-.3-.1-.5-.4-.2-.5.4-.1.1-.3-.3-.2-.4.1-1.4.6-1.9 1.3.3-.8.8-1.5 1.3-1.9z"/><path id="path167" class="st11" d="M386.1 321.2c.8 1.1 1.7 1.7 3.1 1.8.3 0 .9.5.1.6-1.9.1-2.9-.5-3.8-2.1-.1-.4.2-.8.6-.3z"/><path id="path169" class="st11" d="M410.8 307.7c-.6.5-1.3 1.4-.8 2.6.1 0 .1-.1.2-.1 2.3-3.5 4.2-7.2 5.9-11v-.4c-.6.7-1.7 1.4-2.1 1.6.3.9-1 2.2-1.7 2.5.3.6.2 1.5-.4 1.7.1.5-.3.5-.9.8-.6.3-.8.5-1 .9.3-.2.7-.4.9-.3.2.1.3.5-.1.7s-.7.4-.8.7c.5-.3 1.4-.2.8.3z"/><path id="path171" class="st11" d="M370 294.2c.7.6 1.9 1.7 3.5 1.5.8.8 2 1.5 2.6 1.6-1.1.6-2.2 1-2.5 1.5-.5-.6-1.1-.5-1.3-.8-.5.5-.4.8-.1 1s2.6.7 3.2.5c.6-.2.7.4.3.6-1.3.6-3.7 0-4.5-1.7-.8-1.7-1.6-2.4-3.8-.8-.3-.8-.3-1-.7-1-.4 0-1.3-.7-.6-.7.5.1 2.3-.2 3.9-1.7z"/><path id="path173" class="st11" d="M370.5 298.1c-.4.1-1.5.9-1.9.9-.4.1-1.1.8-.4.8.7 0 1.6-1 2.2-1.1.5-.1.6-.8.1-.6z"/><path id="path175" class="st11" d="M373.5 300.8c.1.3.1.6 0 .8-.1.2-.1.5.2.2.3-.3.5-.7.8-.4.3.2 1.1.2 1.4.1.3-.1.5-.1 0-.4-.5-.3-1-.4-1.3-.3-.3 0-.6-.1-.9-.2s-.2-.1-.2.2z"/><path id="path177" class="st11" d="M384.5 300.9l-.1.4c.9 0 2.9.2 3.6.8.6-.7.5-.9 1-.7s1 .3 1.3.1.4-.1.7-.1c.3.1.9-.1 1.2-.4.3-.3 1.1-.6 1.5-.6s.9-.1.2-.3c-.8-.1-1.9.1-2.3.3-.4.2-1.6.3-2.3.3-.7 0-1.6.4-2.4.2-.8-.1-1.9 0-2.4 0z"/><path id="path179" class="st11" d="M397.7 300.5c1 .6 3.1 1.2 4.7 1.1.3 0 .8.4.1.4-1.8.2-3.4-.1-4.9-1.2-.4-.3-.3-.5.1-.3z"/><path id="path181" class="st11" d="M398.8 300.5c1.6-.1 2.8 0 3.2.6.9-.4 2.5-.6 2.9-.5.4.1.8-.1-.1-.4-.9-.3-2.8-.4-3.5-.2-.6.1-2.6.2-3.2.1.3.1.5.1.7.4z"/><path id="path183" class="st11" d="M404.9 301.3c.7-.5 2.9 0 3.5-.4-.5.7 1.5.8 3.2.2-.6.5-2 .6-2.6.9-.6.3-.9.1-1.4-.2-.5-.2-1.7-.7-2.7-.5z"/><path id="path185" class="st11" d="M411.6 301.1c-1.7.6-3.6.5-3.2-.2-.6.4-2.8-.1-3.5.4.8-.6 1.3-.1 1.9-1.3.3.1 1.2.2 1.4-.3.5.1 1.3.4 1.6.7.3.3.6-.1.3-.6.8-.4.3.4 2.1-.1.4-.1 1.3-.3 1.6-.4-.6.6-1.4 1.3-2.2 1.8z"/></g><path id="path191" class="st12" d="M425.6 237.8c-.1 37.2-4.7 77.4-42.4 96.5-37.7-19.1-42.3-59.2-42.4-96.5h84.8z"/><g id="g207"><path id="path193" class="st9" d="M357.6 254.5c-.6 1-1.3 1.9-2.2 2.7-.9.8-2 1.4-1.4 2.8.6 1.3 1.1 1.5 1.2 2.5.1 1 .3 1.9.9 2.1.6.2.9.1.9 1.7 0 1.7 0 2.3.6 2.9.6.6.5 1.3.7 2.8.2 1.5.2 4.7 1 7 .7 2.2 2.4 6.4 2.2 7.3-.2.9-.4 1.5.3 2.5s1.2 2.5 1.3 3.4c.1.9.2 1.2.9.9.7-.3 1.1-.6 1.4-1 .2-.4.7-.3 1.4.2s1.7.9 2.3.5c.6-.5.9-1.2 1.5-1.2.9-.8 1.2-2.5 1.4-2.9.2-.5.1-.5-.3-.9-.4-.5-.2-1.3-.2-2.1-.1-.8-.3-2-1.1-3.7-.7-1.7-1.2-3.9-1.7-4.4-.5-.6-.7-1.9-.8-2.5-.1-.6-.6-1.2-1-1.7s-.7-1.2-1.2-3.9c-.4-2.8-.7-4.7-.7-5.2s-.1-.6-.4-.7c-.4-.2-.6-.9-.4-1.3.1-.4-.1-.8-.2-1.3s0-1.3.2-1.8.2-1.8-.1-2.9c-.2-1.1-.5-2.1-1.5-2.2-1-.2-1.2-.5-1.5-1.5-.4-1-.7-2.8-.9-3.2-.1-.4-.3-.5-1.1.3-.7.8-1 1.1-1 2.5 0 .9.1 1.3.4 1.8.2.6.3.7.5 2.2.2 1.5 1.2 3.9-.1 5.2-1.4 1.3-1.2 1.7-1.1 2.6.1.9-.4 1.6-.6.2-.2-1.3 0-2.1.7-2.8.7-.6 1.4-1.4.9-2.3-.5-.9-.7-2.9-.7-3.9.1-1.1 0-1.4-.5-.7z"/><g id="g205"><path id="path195" class="st10" d="M346.6 274.7c0 .6.1 1.3.1 1.9 0 .7.2 2-.2 3s-.3 1.5 0 1.8c.8-.3.9-1.4.7-1.9-.2-.6-.2-1.2.1-1.8.2-.6.2-.9 0-1.3s-.2-.4 0-1.5c.3-.9-.2-.9-.7-.2z"/><path id="path197" class="st10" d="M354.5 290c-.1-.7-.6-3.4-.7-5.2 0-1.8-.6-3.2-1.8-4.6-.9-1.1-1.1-2.8-1.1-4.1-.7-.5-1-.3-.9.7.1 1.1.9 1.6.8 3.1-.1 1.5-.1 1.1.5 1.9s.8 1.5.5 1.8c-.3.3-.3.9.1 1.1.4.2.5.8.4 1.3-.1.6.3.7.6 1.1.2.4.3 1.3 0 1.9-.2.6-.3 1.4.2.9.4-.5.6 0 1 .7.3.6.5.4.9.2-.3-.2-.4-.5-.5-.8z"/><path id="path199" class="st10" d="M350.9 257.1c-.5 0-.8.6-.5 2.4.2 1.1-.5.9-.7.3-.2-.6-.4-1.7-.9-2.8-.5-1-.2.7-.3 1.7-.1.9.4.9.9 1.7.4.8.1 1.1-.4 1.1s-.2 1.3-.1 2.1c.1.9-.1 1-.5.3s-.1-1.8-.1-3.2c.1-1.3.1-1-.6-1.3-.7-.3-.6-.5-.3-1.3.2-.8.5-1.2.2-1.6-.3-.4-.2-.6.2-.7.5-.1.3-.6.7-.7.4-.2.6.1.7-.9.1-.9.3-1.4.8-1.1.2 1.3.6 3.4.9 4z"/><path id="path201" class="st10" d="M362.2 271.3c.2-1.7.1-3.5.6-4.1.6-.6 1.2-1.9 1.2.8-.1 2.7-.1 2.5-.6 3.2-.4.6-.8.8-.4 1.8s.5 1.1.4 2.7c-.1 1.6-.1 2.2.4 3 .5.8.6.9.7 1.7.1.9.6 2.1 1.1 2.7.6.6 1.2 2.4 1.2 3.7.1 1.3.9 1.6 1.7 2.4.8.9-.2 1.5-.8 1.1-.6-.4-.4 0-.7.6-.4.6-.5.6-.8-.3-.3-.9-1.4-1.6-1.9-1.8-.5-.2-.9-1.3-1.4-2.3-.4-.9-1.1-1.5-1.8-1.6.2.7.3 1.2.2 1.4-.2.9-.4 1.5.3 2.5s1.2 2.5 1.3 3.4c.1.9.2 1.2.9.9.7-.3 1.1-.6 1.4-1 .2-.4.7-.3 1.4.2s1.7.9 2.3.5c.6-.5.9-1.2 1.5-1.2.9-.8 1.2-2.5 1.4-2.9.2-.5.1-.5-.3-.9-.4-.5-.2-1.3-.2-2.1-.1-.8-.3-2-1.1-3.7-.7-1.7-1.2-3.9-1.7-4.4-.5-.6-.7-1.9-.8-2.5-.1-.6-.6-1.2-1-1.7s-.7-1.2-1.2-3.9c-.3-2.2-.6-3.8-.7-4.7-.4.9-.7 1.1-.9.5-.2-.7-.4-1.1-.7-.6-.2.5-.3-.4-.3-.8s-.1-.5-.4-.5c-.3 0-.1-.6-.2-1.8-.1-1.2-.3-1.3-.4.1-.1 1.4-.7 2.3-.5 2.6.2.3.1.9-.1 1.9-.2.9-.1 1.5.1 2.1.2.6-.1 1.8-.2 2.8.2.9.8 1.9 1 .2z"/><path id="path203" class="st10" d="M357.1 266.4c0 1.7 0 2.3.6 2.9s.5 1.3.7 2.8c.2 1.5.2 4.7 1 7 .2.7.5 1.5.8 2.4.4-.4.8-1.1.9-1.5.2-.6-.4-1.7-.8-2.6-.4-.9.1-1.3.5-2.5s-.1-1.3-.7-1.6c-.7-.3-.7-1.1-1.1-2.4-.4-1.3-.3-1.8-.1-2.5.2-.7.1-1.3-.4-1.4-.5-.2-.4-.6-.2-1.4.2-.8.3-.9-.4-.7-.6.2-.7.3-.9.6.1.1.1.4.1.9z"/></g></g><g id="g607" transform="matrix(1.31296 0 0 1.31296 -857.557 -110.013)"><g id="g221"><path id="path209" class="st13" d="M934 286.2l-1.1 15.9"/><path id="path211" class="st13" d="M937.4 295.9c-.5 2.7-1.1 5.7-1.7 8.3"/><path id="path213" class="st13" d="M952.2 288.3c.9 1 2 1.3 3.3 2.1"/><path id="path215" class="st13" d="M957.9 295.3l-.6 6.1"/><path id="path217" class="st13" d="M957.2 295.6l-1.1 6.3"/><path id="path219" class="st13" d="M936.7 296.1c-.5 2.6-1.2 5-1.9 7.4"/></g><path id="path223" d="M961.2 310.9c-.1 0-.1 0 0 0h-.2-.1-.1-.1-.1l-.1.1v.4l-.1.1-.1.1V311.9c-.2.2-.5.4-.9.5-.2.1-.8.1-1 0-.4 0-.9 0-1.2-.3-.3-.2-.7-.1-1 .1-.2.1-.2.4-.5.5-.1.2-.7.2-1 .1-.5 0-.8-.2-1.2-.3-.2-.2-.6-.4-.9-.1-.2.2-.4.4-.7.5-.5 0-1.1.1-1.5-.2-.4 0-.6-.3-1-.5-.4-.1-.6.2-.9.3-.2.3-.6.3-1 .3-.5 0-1 .1-1.3-.2-.4-.1-.6-.3-.9-.5-.3-.3-.8 0-1 .2-.4.1-.6.5-1.1.4-.4-.1-.7-.3-1.1-.4-.4-.2-.7-.5-1.3-.5-.2.3-.5.4-.9.4-.3 0-.7 0-.9-.1-.7 0-1-1-1.5-1.4-.8-1-1.6-2.1-2.5-3.1.1-.6.2-.7 0-1 .1-.6-.2-.6-.1-1.2.2-.4-.3-.4-.5-.6-.3-.1-.4-.4-.7-.5-.2-.2-.5-.3-.8-.5-.3-.1-.5-.3-.7-.5-.2-.2-.4-.3-.6-.5-.2-.1-.4-.3-.6-.5-.2-.1-.4-.3-.6-.5-.2-.2-.4-.4-.6-.5-.3-.1-.6-.4-.9-.5-.2 0-.3-.7.1-.6.3 0 .5.3.7.4.4.2.7.4 1.1.5.2.2.5.3.8.4.2.2.6.3.9.5.3.2.6.4.8.5.2.1.4.4.6.5.1.1.3.2.4.4.3.1.5.3.7.4.2.2.4.2.5.4.2.1 1.6 1 1.5.9 1.3.3 1.9.4 3.3.7 3.2.1 6.5.1 9.7.2 1.2-.6 2.4-1.3 3.5-1.9.4-.7.7-1.5 1.1-2.2 1.7-.4 3.5-.8 5.2-1.2-.1-.1 9.2-.4 9.4.6.1.4.3 1.3 0 1.5-.2.1-8.7-1.4-8.9-.4-.1.4 0 3.1.1 3.5 0 .4.1.9.1 1.3s.1.9.1 1.3.1.9.1 1.3c.4.2.4.7.5 1.1z" fill="#666"/><g id="g261"><path id="path225" class="st13" d="M934.7 294c-1.6 2.3-3.1 4.1-4.8 5.9"/><path id="path227" class="st13" d="M943.4 284.6l5.1-5.7"/><path id="path229" class="st13" d="M941.1 290.2c1 .9 2.2 1.7 3.7 2.3"/><path id="path231" class="st13" d="M940.4 281.6c.6 1.3 1.4 2.5 3.6 3.3"/><path id="path233" class="st13" d="M938.9 268.7c-.7 1.2-1.8 2.3-3.2 3.2"/><path id="path235" class="st13" d="M940.7 276.7c.7.9 1.7 1.4 2.8 1.9"/><path id="path237" class="st13" d="M940.7 296.4c.5 3.2 1 5.8 1.5 8.5"/><path id="path239" class="st13" d="M940.3 304.8c2.6-3.5 4.9-7.2 6.4-11.5"/><path id="path241" class="st13" d="M952.1 280.7c.8 1.2 1.7 2 3.1 2.5"/><path id="path243" class="st13" d="M955.7 276.5c.7 1.7 1.6 2.9 2.4 4.3"/><path id="path245" class="st13" d="M947.9 271.3c-.1 1.6-.9 3.3-1.4 4.7"/><path id="path247" class="st13" d="M949.8 272.1c-.9 1.3-1.8 2.8-3.1 3.6"/><path id="path249" class="st13" d="M949.9 266.3c-.6.6-1.5 1.2-2.2 1.6"/><path id="path251" class="st13" d="M959.5 278.8c-.8 1.2-1.6 2.6-2.8 3.6"/><path id="path253" class="st13" d="M959.7 288.7c-1 1.2-1.9 2.6-3 3.6"/><path id="path255" class="st13" d="M965.4 295.7c-1.8 1.8-3.6 3.5-5.6 4.8"/><path id="path257" class="st13" d="M960.8 300.8c1.7-1.3 3.2-3.2 4.6-5"/><path id="path259" class="st13" d="M960.3 279c.3 1.1 1.1 2.3 1.8 3"/></g><path id="path263" d="M959.2 268.2l-.1 32.6 1.8-.1-.8-32.5h-.9z" fill="#bca76b" stroke="#472b1f" stroke-width=".139"/><g id="g273"><path id="path265" d="M960.4 310.2c.4.3.7.6 1.1 1.1.8 1 1.3 1 2.5 0 .4.1.9.4 1.3.2.4 0 .8-.1 1.2-.2.5-.2.6-.9.7-1.4.2-.6.5-1.2.8-1.7.4-.4.9-.7 1.2-1.3.3-.5.3-1.2.2-1.8 0-.6-.1-1.1-.1-1.7-.1-.7.4-1.3.3-2-.3-.3-.8-.4-1.1-.6-.7-.2-1.4-.3-2-.4-.6-.1-1.1-.1-1.7-.2-.6-.1-1.1-.1-1.7-.1-.6 0-1.3-.1-1.9.1-.4.1-1 .1-1.3.3-.2.5-.3 1.1-.3 1.7-.1.5-.1 1-.1 1.5 0 .9-.1 1.9.1 2.8.1.7.2 1.5.3 2.2.2.5.2 1.1.5 1.5h0z" fill="#333" stroke="#000" stroke-width=".483"/><g id="g271"><path id="path267" class="st13" d="M962.6 294.4l2.5 6"/><path id="path269" class="st13" d="M968.8 300.7c-.7-1-1.3-2.2-1.8-3.6"/></g></g><g id="g287"><path id="path275" class="st17" d="M968.6 291.3l.8.7h.1c-.2-.3-.5-.6-.9-.7z"/><path id="path277" class="st17" d="M966.9 291.6s-.1 0 0 0l-1.3 5.9 1.3-5.9z"/><path id="path279" class="st17" d="M972.4 291.8c-.3 0-.6.2-.8.4l.5-.2.6-.1c-.1-.1-.2-.1-.3-.1z"/><path id="path281" class="st17" d="M967 297.1l-.2.1c.1 0 .2 0 .2-.1.1.1.3.2.3.2l-.3-.2z"/><path id="path283" class="st17" d="M967.5 297.5c.3.2.5.5.9.6l-.9-.6z"/><path id="path285" class="st17" d="M970.2 297.8l-1.5.4c.5 0 1-.3 1.5-.4z"/></g><path id="path289" class="st18" d="M967 291.2l-1.3 6.2 1.4-.4 1.5 1.1 2.2-.6 1.1.2c.3-2 .2-4.4 1.2-6.1l-.9.2-1.5.7-1.2-.6-.9-.8-1.6.1z"/><path id="path291" d="M969.1 292c-.2.6-.5 1.2-.5 1.8 0 0-.6-.3-1-.4-.4-.1-1.1 0-1.1 0l-.3 1.5s.9-.1 1.3-.1c.3.1.8.4.8.4-.1.8-.3 1.6-.4 2.4l.3.2.6.2.3-.1c.1-.8.2-1.7.5-2.2 0 0 .9.3 1.4.3.3 0 1.1-.1 1.2-.2 0-.5.1-1 .2-1.5-.2.1-.9.3-1.4.2-.4 0-1.1-.5-1.1-.5.1-.5.3-1 .5-1.5l-1.3-.5z" fill="#c8102e"/><path id="path293" class="st13" d="M966 291.2c-.6-2.1-1.3-5.5-1.6-8.2"/><g id="g303"><path id="path295" d="M966.5 291.7s1.5-.4 2.1-.3c.6.2 1 1.1 1.7 1.2.7.1 1.4-.8 2.1-.8.4 0 1.1.2 1.1.2l-.5 2.3-.4 1.9v1.7s-1.2-.4-1.9-.3c-.8.1-1.4.7-2.2.5-.6-.1-.9-.7-1.4-.9-.5-.2-1.7.2-1.7.2l1.1-5.7z" fill="none" stroke="#472b1f" stroke-width=".483"/><g id="g301"><path id="path297" class="st21" d="M966.8 291.6h-.6l-1.8 8.4h.9l1.5-8.4z"/><path id="path299" class="st21" d="M966.2 291.7c-.3-.2-.4-.7-.3-1.1.1-.4.6-.5 1-.4.3.1.8.6.7 1.1-.2.6-1 .7-1.4.4z"/></g></g><path id="path305" class="st17" d="M972.9 291.9c-.9 1.7-.8 3.9-1.2 5.9l.8.2v-1.7l.4-1.9.5-2.3c.1-.1-.2-.2-.5-.2z"/><g id="g335"><path id="path307" class="st13" d="M962.5 285.1c.9.8 1.8 2.9 3.1 4.6"/><path id="path309" class="st13" d="M964.2 282c-.7-2.3-1.2-6-1.3-8.8"/><path id="path311" class="st13" d="M961.5 295.5l1.4 4.8"/><path id="path313" class="st13" d="M962.9 271c-1.2-.4-2.4-1.5-2.6-2.4"/><path id="path315" class="st13" d="M954.8 272.5c.8.1 3.6-2.6 4-4"/><path id="path317" class="st13" d="M962 294.8l2 5.4"/><path id="path319" class="st13" d="M961.8 296.6l1.4-.7"/><path id="path321" class="st13" d="M962.1 297.6l1.5-.8"/><path id="path323" class="st13" d="M962.7 299.7l1.7-.9"/><path id="path325" class="st13" d="M961 289l2 2.8"/><path id="path327" class="st13" d="M956.7 295.7l-1.4 6.1"/><path id="path329" class="st13" d="M956.3 297.1h1.4"/><path id="path331" class="st13" d="M956 298.6l1.6.1"/><path id="path333" class="st13" d="M955.6 300.1l1.8.4"/></g><g id="g369"><path id="path337" d="M960.3 267.4c-.3-.1-1.2-.2-1.5.2-.2.2 0 .8.2.8.5 0 1.1 0 1.2-.1.2-.2.3-.8.1-.9h0z" fill="#bca76b" stroke="#472b1f" stroke-width=".14"/><path id="path339" d="M955.2 272.5c.6 3.2 3.2 2.7 3.1-.3" fill="#bca76b" stroke="#472b1f" stroke-width=".192"/><path id="path341" d="M957.6 272.3c.8 3.7 4.2 3 4-.3" fill="#bca76b" stroke="#472b1f" stroke-width=".235"/><path id="path343" d="M960.5 272.3c.8 2.7 1.8 2.2 3.1-.3" fill="#bca76b" stroke="#472b1f" stroke-width=".201"/><path id="path345" d="M964.4 271l-9.6.7v.8l9.7-.6-.1-.9z" fill="#bca76b" stroke="#472b1f" stroke-width=".195"/><path id="path347" class="st27" d="M955.6 283.4c.6 3.5 3.3 3 3.2-.2"/><path id="path349" class="st28" d="M958.1 283.3c.8 4 4.3 3.4 4.2-.2"/><path id="path351" class="st29" d="M961.1 283.3c.8 3 1.9 2.4 3.3-.2"/><path id="path353" class="st30" d="M965.1 282l-10 .6v.9l10.1-.5-.1-1z"/><path id="path355" d="M955.3 293.3c.6 3.6 3.4 3 3.3-.3" fill="#bca76b" stroke="#472b1f" stroke-width=".21"/><path id="path357" d="M957.9 293.1c.7 5.3 4.5 3.4 4.3-.3" fill="#bca76b" stroke="#472b1f" stroke-width=".257"/><path id="path359" d="M960.9 293c.8 3 2 2.4 3.3-.3" fill="#bca76b" stroke="#472b1f" stroke-width=".22"/><path id="path361" d="M965.1 291.6l-10.2.8v.9l10.3-.7-.1-1z" fill="#bca76b" stroke="#472b1f" stroke-width=".213"/><g id="g367"><path id="path363" class="st35" d="M961.7 277.4l-3.8.1v1.2h3.8v-1.3z"/><path id="path365" class="st35" d="M961.7 287.7l-3.8.1v1.2h3.8v-1.3z"/></g></g><g id="g389"><path id="path371" class="st13" d="M952.2 293.4l2.8 8.7"/><path id="path373" class="st13" d="M938 296.1c-.3 2.7-.8 6.2-1.3 8.9"/><path id="path375" d="M969.4 301.3c-1.6-.3-3.2-.7-4.8-.8-1.3-.1-2.5 0-3.8.2-1.8.2-3.7.3-5.5 1-.2.1-.5.2-.7.4-.5.6-.5 1.7-1 2.4-.4.7-2 1.9-2.5 2.3-4.1.1-8.6.1-13.7-.9l-.7-1-.3-.4.8.4 1.8.1 4.4-.2s3.7 0 5.6-.1c1.1-.1 2.1-.1 3.2-.3.2 0 .5 0 .7-.2.3-.3.4-.8.6-1.2.2-.4.3-.8.6-1.1.8-.8 1.8-.7 2.7-.9 1-.3 2-.3 3.1-.5 1.2-.2 2.4-.3 3.7-.4.8-.1 1.6-.1 2.4-.1 1.2.1 2.5 0 3.5.8.2.1.5.4.4.7-.1.1-.3-.1-.5-.2h0z" stroke="#000" stroke-width=".145"/><g id="g387"><path id="path377" class="st13" d="M950.8 266.3c.6.6 1.7 1.1 2.8 1.3"/><path id="path379" class="st13" d="M949.5 288.3c-1.3 1.2-2.6 2-4 2.6"/><path id="path381" class="st13" d="M953.2 303.8l-2.2-7.5"/><path id="path383" class="st13" d="M951.4 293.8l2.6 8.6"/><path id="path385" class="st13" d="M951.1 296l1.7-.8"/></g></g><path id="path391" d="M949.9 265.2l-.5 40 1.8-.1-.3-39.9h-1z" fill="#bca76b" stroke="#472b1f" stroke-width=".139"/><path id="path393" class="st13" d="M952.1 271.3c.7 1.8 1.9 3.2 3.6 4.2"/><g id="g411"><path id="path395" class="st27" d="M946.1 268.8c.6 3.5 3.3 3 3.2-.2"/><path id="path397" class="st28" d="M948.6 268.7c.8 4 4.3 3.4 4.2-.2"/><path id="path399" class="st29" d="M951.6 268.7c.8 3 2.1 3.2 3.3-.2"/><path id="path401" class="st30" d="M955.6 267.4l-10 .6v.9l10.1-.5-.1-1z"/><path id="path403" class="st27" d="M946.1 276.9c.6 3.5 3.3 3 3.2-.2"/><path id="path405" class="st28" d="M948.6 276.8c.8 4 4.3 3.4 4.2-.2"/><path id="path407" class="st29" d="M951.6 276.8c.8 3 3 2.5 3.3-.2"/><path id="path409" class="st30" d="M955.6 275.5l-10 .6v.9l10.1-.5-.1-1z"/></g><path id="path413" class="st13" d="M949 281.4c-.9.8-1.7 1.7-2.9 2.2"/><g id="g423"><path id="path415" class="st27" d="M945.8 284.5c.6 3.5 3.3 3 3.2-.2"/><path id="path417" class="st28" d="M948.3 284.4c.8 4 4.3 3.4 4.2-.2"/><path id="path419" class="st29" d="M951.3 284.4c.8 3 2.8 2 3.3-.2"/><path id="path421" class="st30" d="M955.3 283.1l-10 .6v.9l10.1-.5-.1-1z"/></g><g id="g431"><path id="path425" class="st13" d="M947 293.7c-.3 4-1.5 7.5-2.3 11.3"/><path id="path427" class="st13" d="M948.1 293.7c-.3 3.8-1.2 7.5-2 11.1"/><path id="path429" class="st13" d="M949.1 293.3c-.4 4.3-.8 7.8-1.5 11.4"/></g><g id="g447"><path id="path433" class="st27" d="M945.9 291.7c.6 3.5 3.3 3 3.2-.2"/><path id="path435" class="st28" d="M948.4 291.6c.8 4 4.3 3.4 4.2-.2"/><path id="path437" class="st29" d="M951.4 291.6c.8 3 2.8 2.4 3.3-.2"/><path id="path439" class="st30" d="M955.5 290.3l-10 .6v.9l10.1-.5-.1-1z"/><path id="path441" d="M952.3 272.9l-3.6.1v1.2h3.6v-1.3z" fill="#bca76b" stroke="#472b1f" stroke-width=".12"/><path id="path443" d="M952.1 280.7l-3.2.1v1.1h3.2v-1.2z" fill="#bca76b" stroke="#472b1f" stroke-width=".11"/><path id="path445" d="M952.3 288.3l-3.5.1v1.2h3.5v-1.3z" fill="#bca76b" stroke="#472b1f" stroke-width=".118"/></g><g id="g469"><path id="path449" class="st13" d="M947 295.1l1.9.5"/><path id="path451" class="st13" d="M946.5 297.3l2.1.1"/><path id="path453" class="st13" d="M946.2 298.9l2.2.8"/><path id="path455" class="st13" d="M945.6 301.5l2.6-.2"/><path id="path457" class="st13" d="M945.1 303.5l2.8-.1"/><path id="path459" class="st13" d="M944.5 293.6c-.3 4 1.7 7.9 2.7 11.3"/><path id="path461" class="st13" d="M952.9 302.7l1.8-.7"/><path id="path463" class="st13" d="M952.5 301.5l2-1.1"/><path id="path465" class="st13" d="M951.8 299.6l2.1-.8"/><path id="path467" class="st13" d="M951.4 297.8l2-.7"/></g><path id="path471" d="M940.6 312c-.2 0-.5-.1-.7-.1-.2-.1-.5-.2-.7-.3-.2-.1-.4-.3-.6-.5l-.6-.6c-.2-.3-.4-.5-.6-.8-.2-.3-.4-.5-.6-.8-.2-.3-.4-.5-.6-.8-.2-.2-.2-.6-.3-.9-.2-.1-.6-.1-.6-.5-.1-.3-.1-.6-.4-.5-.1 0-.1.2-.1.1-.1-.1-.1.3-.1.1-.1.2-.2.5-.2.5-.1.3-.1.6.2.6.3.1.3.4.5.6.2.2.4.5.6.7.2.3.3.5.5.8.1.2.3.4.5.6.1.3.3.5.4.7.2.2.4.5.6.6.2.1.4.3.6.4.2.1.4.3.6.4.2.2.5.1.8.2.3 0 .5 0 .8-.2.3-.3.1-.3 0-.3z"/><path id="path473" d="M955.1 302.9c-.3 1-.9 2.4-1.5 3.3 2.1.5 3.9-.2 5.8-.7-.2-1.1-.2-2.2-.1-3.5-1.5.2-2.6.7-4.2.9z"/><path id="path475" d="M955.3 303.2c-.3.9-.5 1.8-1 2.6 1.8.5 3.2-.2 4.8-.6-.3-.8-.2-1.7-.1-2.6-1.3.1-2.4.4-3.7.6z" fill="#333"/><path id="path477" d="M936.8 307.2l6.2.6c5 .2 10.7-.1 15.6-.8.2 0 .5-.1.6.1.1.3-.2.7-.5.7-5.7 1-11.4.6-17.1.5l-3.4-.5-1.4-.6z"/><path id="path479" class="st13" d="M939.1 289.2c-1.6 1.6-3.2 3.2-5 4.1"/><path id="path481" class="st13" d="M939.4 281.7c-1.5 1.4-2.9 3-4.5 3.9"/><path id="path483" d="M938.8 267.9v37.4l1.6-.1-.9-37.5-.7.2z" fill="#bca76b" stroke="#472b1f" stroke-width=".13"/><path id="path485" class="st13" d="M939.5 267.7c1.3 1.8 2.3 2.8 3.4 4"/><path id="path487" class="st43" d="M939.9 266.6c-.3-.2-1.2-.3-1.5.3-.2.3 0 1.2.2 1.2.5 0 1 .1 1.2-.2.2-.2.3-1.1.1-1.3z"/><path id="path489" d="M939 310.2c0-.3.2-.4.5-.5.3 0 .6 0 .7.1.2.1.3.2.5.3.1.2.3.3.4.4.5.3.2-.5.5-.5s.5-.1.7 0c.2 0 .3.2.4.4.1.1.2.2.3.4 0 .2.6.5.6.1.1-.3.1-.9.5-.8.4 0 .8.1 1.2.2.2.1.4.1.6.4.2.1.1.3.3.3.4.4.3-.3.4-.5.1-.2.4-.1.5-.3.3-.1.5-.2.9-.2.1.1.4.3.6.4.1.1.3.3.4.6 0 .2.2.4.4.3.1-.3.3-.3.4-.4.2 0 .3-.2.4-.3.1 0 .2-.3.3-.4.2-.2.5-.1.8-.2.3.1.6.2.7.3.1.1.2.3.3.4.1.2.3 0 .5 0 .1-.1.3-.2.5-.3.1-.2.3-.3.6-.3s.5.2.7.2c.2.1.5.2.7.3.2.2.4.3.6.1.2 0 .1-.6.1-.7.3-.3.9-.2 1.2-.1.3 0 .6 0 .8.1.2.1.2.3.3.5.1.2.6.2.7 0 .2 0 0-.3-.1-.4-.1-.1-.2-.3-.3-.4.2-.2.4.1.6.2.1.1.3.2.4.3.2.1.4.2.7.2.3.1.2.6-.2.5-.2.1-.6 0-.9 0-.4-.1-.9 0-1.3 0-.2.1-.6.1-.9.2-.3 0-.5.1-.8 0-.3.1-.6 0-.9 0-.3.1-.5.1-.8.1-.3 0-.5.1-.8 0-.4.1-.9 0-1.3 0-.3.1-.5 0-.8.1-.3 0-.5.1-.8.1-.3 0-.5.1-.8 0-.5.1-1 0-1.5 0-.2-.1-.5 0-.8-.1-.2 0-.4-.1-.7 0-.2-.1-.6 0-.8-.1-.4 0-.7-.1-1.1 0H943c-.2-.1-.5 0-.7 0h-1.2c-.3-.1-.7 0-.9-.2-.7-.2-1.3-.4-1.2-.8h0z" stroke="#000" stroke-width=".339"/><g id="g499" fill="#bca76b" stroke="#472b1f"><path id="path491" d="M935.4 272.5c.5 2.4 2.9 2.1 2.8-.1" stroke-width=".16"/><path id="path493" d="M937.6 272.5c.7 2.8 3.8 2.4 3.7-.2" stroke-width=".195"/><path id="path495" d="M940.3 272.5c.7 2 1.9 2.2 2.9-.2" stroke-width=".167"/><path id="path497" d="M943.8 271.6l-8.7.4v.6l8.8-.3-.1-.7z" stroke-width=".162"/></g><path id="path501" class="st13" d="M937.8 277c-.8.9-2.2 2-2.8 1.9"/><path id="path503" class="st13" d="M936.3 273.9c-1.9 9.2-4.3 19-6.6 26.9"/><g id="g523"><path id="path505" class="st43" d="M935.3 279.5c.5 2.6 3 2.2 2.9-.2"/><path id="path507" d="M937.4 279.5c.7 3.5 3.9 3 3.8-.2" fill="#bca76b" stroke="#472b1f" stroke-width=".222"/><path id="path509" d="M940.3 279.4c.8 2.2 2.1 2.4 3.3-.2" fill="#bca76b" stroke="#472b1f" stroke-width=".184"/><path id="path511" d="M943.9 278.2l-9 .5v.8l9-.4v-.9z" fill="#bca76b" stroke="#472b1f" stroke-width=".189"/><path id="path513" d="M934.9 286.2c.6 3.2 3.2 2.7 3.1-.2" fill="#bca76b" stroke="#472b1f" stroke-width=".193"/><path id="path515" d="M937.3 286.1c.8 4.7 4.5 4 4.4-.3" fill="#bca76b" stroke="#472b1f" stroke-width=".276"/><path id="path517" d="M940.2 286.1c.7 2.7 2.1 2.9 3.2-.2" fill="#bca76b" stroke="#472b1f" stroke-width=".202"/><path id="path519" d="M944.2 284.9l-10.2.5v.8l10.3-.4-.1-.9z" fill="#bca76b" stroke="#472b1f" stroke-width=".201"/><path id="path521" d="M934.7 294c.6 3.5 3.5 2.9 3.4-.2" fill="#bca76b" stroke="#472b1f" stroke-width=".209"/></g><path id="path525" class="st13" d="M942.2 295.8c.6 3.3 1.4 6.3 2.1 9.1"/><path id="path527" class="st13" d="M941.5 295.6c.3 3.2 1 6.2 1.7 9.2"/><g id="g541"><path id="path529" d="M937.3 293.9c.7 4.6 4.5 4.2 4.4-.2" fill="#bca76b" stroke="#472b1f" stroke-width=".256"/><path id="path531" d="M940.5 293.9c.8 2.9 2.3 3.2 3.4-.2" fill="#bca76b" stroke="#472b1f" stroke-width=".219"/><path id="path533" d="M944.8 292.4l-11.4.6v1l11.4-.5v-1.1z" fill="#bca76b" stroke="#472b1f" stroke-width=".232"/><path id="path535" class="st60" d="M941.1 275.9l-3.3.1v.9h3.3v-1z"/><path id="path537" class="st60" d="M941.1 282.7l-3.3.1v.9h3.3v-1z"/><path id="path539" d="M941.3 290.2l-3.5.1v.9h3.5v-1z" fill="#bca76b" stroke="#472b1f" stroke-width=".104"/></g><g id="g571"><g id="g559"><path id="path543" class="st13" d="M942.6 296.7l-1.9.5"/><path id="path545" class="st13" d="M942.9 298.5l-1.9.5"/><path id="path547" class="st13" d="M943.3 300.5l-1.9-.1"/><path id="path549" class="st13" d="M943.8 302.4l-1.9.4"/><path id="path551" class="st13" d="M935.1 302l2 .5"/><path id="path553" class="st13" d="M935.7 300l1.8.5"/><path id="path555" class="st13" d="M936.1 298.4l1.6.5"/><path id="path557" class="st13" d="M936.4 297l1.5.4"/></g><g id="g569"><path id="path561" class="st62" d="M959.7 305.4c3.3-.2 7.2-.7 9.8.6"/><path id="path563" class="st62" d="M959.9 306.8c3-.6 6.5-.9 9.1.4"/><path id="path565" class="st62" d="M960.2 309.6c2.2-.6 5.1-.8 7.1-.1"/><path id="path567" class="st62" d="M960.4 310.2c2.2.6 4.7.8 6.8.1"/></g></g><path id="path573" d="M928.8 300.5l7 5.5.2-.2-2.2-2c-1.7-1.4-3.3-2.6-5-3.3z"/><g id="g605"><g id="g601"><path id="path575" class="st13" d="M962.5 304.9l-.1-3"/><path id="path577" class="st13" d="M963.2 301.9v3.1"/><path id="path579" class="st13" d="M964.6 305.1v-3.2"/><path id="path581" class="st13" d="M966 302.1v3.1"/><path id="path583" class="st13" d="M966.9 302.1v3.2"/><path id="path585" class="st13" d="M968.1 302.4v2.9"/><path id="path587" class="st13" d="M968.7 302.4v3.3"/><path id="path589" class="st13" d="M962.8 306.2v2.8"/><path id="path591" class="st13" d="M962.1 306.4v2.7"/><path id="path593" class="st13" d="M964 306.3l-.1 2.7"/><path id="path595" class="st13" d="M964.7 306.3v2.7"/><path id="path597" class="st13" d="M965.8 306.2l-.1 2.6"/><path id="path599" class="st13" d="M966.8 306.6l-.4 2.4"/></g><path id="path603" class="st62" d="M959.7 302.1c3.2-.5 6.4.1 9.7.5"/></g></g><path id="path609" class="st12" d="M425.6 237.8c0-14-.6-27.6-.3-39.6-14.1-8.1-32.6-9.7-42.1-9.7s-28 1.7-42.1 9.7c.3 11.9-.3 25.6-.3 39.6h84.8z"/><g id="g1387" transform="matrix(.48584 0 0 .48584 180.708 93.35)"><path id="path1116" class="st63" d="M411.6 250.4s3.1 6 4 9.2c.4 1.6.6 3.3.5 5-.2 3-1.1 5.9-1.8 8.8-.5 2-1.6 3.5-1 5.5.3.9.6 1.8 1.4 1.7.5-.1.7-.9 1.1-1.2.3-.3.5-.6.8-.8.5-.2 1.1.1 1.4-.3.3-.4.5-1.1.2-1.6-.2-.4-.7 0-1.1 0-.5 0-1.1.5-1.6.2s-.7-1.9-.7-1.9.9-3.3 1.4-5c.4-1.4 1.1-2.6 1.3-4 .1-.5 0-.9 0-1.4 0-.7-.1-1.6.2-2.2.3-.4.9.1 1.1-.3.5-1.7-1.9-2.8-2.4-4.5-.2-.6-.1-1.4-.2-2-.4-1.4-1.7-3.9-1.7-3.9l-2.9-1.3z"/><path id="path1140" class="st64" d="M421.3 255s2.8 4.5 3.1 7.2c.1.6-.3 1.2-.3 1.8 0 1 .4 1.9.4 2.8-.1 3.1-1.4 5.9-1.9 8.8-.5 2.5-1.3 7.6-1.3 7.6l1.8-.2.3-3.8s.9-4.4 1.4-6.6c.3-1.5.5-3.1.9-4.6.3-1 .9-1.8 1-2.8.2-1.3.5-2.8.1-4.1-.2-.4-.6-.5-.9-.8-.6-.8-1.1-1.8-1.5-2.8-.4-1-.9-3.2-.9-3.2-.3.2-2.2.7-2.2.7z"/><path id="path1344" class="st18" d="M408.2 246.9l2 2 3.4 2.7 1.6.1 1.8.8 2.2-.1 1.7 2.2.5.4 1.8-.3.7-1 3.5-6.9-.8-11.3-16.7 1.4-1.7 10z"/><path id="path1171" class="st18" d="M426.2 227.7c2.3 2.4 4.4 4.8 6.2 7.8 1.4 2.1 2.2 4.9 4.2 6.2 2.8 3.9 14.8 8.3 14.9 9.5-2.8-1.5-4 3.4-6.7 2.6-2.5.9-4.6-1.2-6.7-2.3-3.2-.1-6.6.1-9.5 2.2-1.6 1.1-3.5-.6-4.7 0l-.1.4-.2.2m-15.4-7.4c-1.9-1.2-3.3-3.5-5.1-4.9-1.4-2.5-3.2-5-3.1-8.3-.2-3.4-.9-8.1.3-11.4-.9-2.5-2.2-3.2-3.2-5.7-.7-3.5-3.5-5.5-1.8-8.1 1.8-2.1 3.1-4.6 5.4-5.6 1.9-.6 3.9-.3 5.8.5 2.4.4 3.7 3 5 5.3 1.5 3.1 2.6 6.6 3 10.3 1.1 3 4.1 3.6 6.3 4.9 1.9 1.1 3.7 2.1 5.3 4"/><path id="path1332" d="M439.4 247.8c-.9-.2-3.2 1-2.6-.8-2.3-.2-4.8.4-7-.6-2.3-1.5-4.8-2.4-7.3-3.2-2.4-.2-5.3.6-7.1-2-1.9-1.5-4.8-.4-6.5-2.5-1.8-2-2.9-4.7-2.8-7.7-.4-3-1.2-7 1.4-8.7 1.7-.7 3.3-.1 4.3-2.3 2.1-.5 4.1.6 6 1.9 2.2 1.4 4.6 2.2 6.7 3.8 2 1.7 3.7 4 5.6 5.9 1.5 2.2 3.2 4.2 4.2 6.9 1.1 2.9 3.5 4.4 5.5 6.1 1.2.4 4.1 2.1 1.4 2.6-.7.2-1.3.6-1.8.6z"/><path id="path1327" class="st65" d="M415.7 238.1c-1.2-.2-2.4-.5-3.3-1.5-.8-.6-2.7-2-1.4-3.1 1-.2 2.2.5 3.1-.4 1.4-.4 2.8-.4 4.1-1.3 1.2-.8 2.6-.3 3.8-.8.9-.6.8-3 2.2-2.6 1.3-.4.9 2.7-.2 1.7-.7 1.3 1.3 1.7 1.8 2.5 1.1 1.5-1.3 1.9-1.5 3-1.5.6-2.6-1.8-4-1.2-.3.6 0 1.9-1 1.6-1.2-1-2.3.1-3.5.3.2.6-.6 1.8-.1 1.8z"/><path id="path1258" class="st65" d="M441.3 249.4c-.7-.5-1.6-.1-2.3 0-.5 0-1 0-1.5-.2-.8 0-2.2-1.1-2.4.3.1.6 1.3.9.3 1.1-1 .2-2-.4-2.9-.9-.4-.5-1.2-1.1-1 .1.3 1-.5 1.4-1.1 1.4-.9-.1-2-.4-2.7-1.3-.5.8.7 1.9 1.4 1.9.7.8-1.1.5-1.4.4-.6-.1-1.3-.2-1.8.2-.8.2-.8 1.3.1 1.2.9.4 1.9.7 2.8.1 1-.7 2-1.3 3.2-1.5.9-.3 1.8-.4 2.7-.5 1.2-.2 2.4-.2 3.6-.2.9.6 1.9.1 2.7-.5.5-.2 2.1-1 .9-1.5-.4.1-.5-.2-.6-.1z"/><path id="path1255" d="M438.1 251.6c.5 0 .9 0 1.3-.3.5-.3.9-.4 1.4-.7.6 0 .9-1.1.3-1.3-.3-.3-.7-.5-1.1-.7-.4-.4-.9-.5-1.2-1 .3-.4.5-.9.8-1.4.4-.2 1-.1 1.4-.3.3-.1.7-.1 1.1-.1.5.3 1 .5 1.5.9.5.3 1 .6 1.5.8.4.2.9.4 1.3.6.5.3 1 .4 1.5.6.5.1.7.9 1.3.8.6.1 1.1.3 1.6.8.3.2.9.6.9.9-.5.1-.9-.5-1.4-.3-.4.1-.6.6-1.1.5-.2.8-1 .6-1.3 1.3-.5.5-1 .9-1.6 1.2-.5.2-1 .2-1.4-.1-.5-.2-1.1 0-1.6-.1-.6.2-1.1 0-1.6-.2s-.8-.6-1.2-.9c-.5-.3-1.4-.6-1.9-.8-.3-.2-.2-.3-.5-.3v.1z"/><path id="path1245" d="M402.2 202.4c-.5 0-1 0-1.5.3-.8.2-1.5.9-2.1 1.7-.7 1-1.5 1.9-2.3 2.7-.4.4-.8.9-1 1.5.5.4 1.3.5 1.6-.2.5-.8 1.2-1.5 2-1.9.7-.2 1.4.2 2.1.3.6.4 1.1.7 1.8.8.3.2.9.2 1.4.4.6.3 1.3.5 2 .7.8.2 1.5.1 2.3 0h.5c-.1.3-.2.6-.2.8 0 .6.2 1.1.4 1.6s.5 1 .7 1.5l.6 1.8c.2.5.4 1 .5 1.4.1.6.3 1.1.6 1.5.3.5.7 1 .9 1.5l.6 1.5c.3.4.7.9 1.1.8.5.1.9-.2 1.4-.2-.1 0-.1 0-.2-.1-.4-.3-.6-.9-.9-1.4-.1-.6-.1-1.2-.2-1.7 0-.6-.2-1.1-.3-1.7-.1-.5-.3-.9-.4-1.4-.2-.5-.3-1-.5-1.5s-.3-1.1-.5-1.6-.4-1.1-.6-1.6c-.3-.5-.4-1.1-.7-1.5-.1-.3-.3-.4-.5-.5.1-.3 0-.6-.2-.9-.3-.5-.8-1-1-1.6-.5-.8-1.4-1.1-2.1-1.5-.8-.5-1.8-.7-2.7-1-.7-.2-1.4-.4-2.2-.3-.1-.2-.2-.2-.4-.2z"/><path id="path1239" class="st65" d="M410.6 217.7c0-.8-.9-.5-1.2-.1-.4.6-.7 1.3-1.2 1.8-.8.7-1.8.8-2.6 1.6-.4.6-.8 1.3-1.4 1.7-.6.4-1.3.9-1.6 1.7-.1.6-.5 1.4 0 1.9.6.3 0 1 .1 1.6.3.6 1 .8 1.5.4.6-.5 1.2-.9 1.6-1.7.6-.9 1.2-1.8 2-2.3.5-.2 1-.6 1.3-1.1.4-.4.1-1.2.6-1.3.5-.3.8-.9 1.2-1.5.3-.6-.3-1.2-.2-1.9.2-.3.2-.7-.1-.8z"/><path id="path1157" class="st64" d="M419.9 283.8h-3.3c-.5-.3-.9-1.4-1.6-1-.6.3-1.2.7-1.8 1.1-.6.4-1 .9-1.4 1.5-.1.4-1.1.9-.2 1 .7.1 1.2-.9 1.9-1 .6-.3 1.2-.1 1.8-.2.5.1 1 .2 1.5.1.6-.1 1.1.1 1.7.1.8.1-.3.7-.6.9-.6.4-1.3.5-2 .7-.7 0-1.4 0-2 .4-.6.4-1.3.8-1.8 1.3-.3.2-1.1.8-.3.8.6.1 1.2-.1 1.7-.3 1-.5 2-.8 3-1 .7-.2 1.3-.6 2-.7.4 0 1.5-.3 1.2.7-.4.7-1 1.1-1.6 1.5-.5.4-1 1-1.6.9-.5-.2-1.5.3-.8.9.4.8 1.1.3 1.6 0 .6-.4 1.1-.6 1.7-.9.7-.3 1.3-.7 2-1 .5-.4 1.2-.6 1.7-1.1.6-.4 1.3-.8 1.5-1.6.2-.7.6-1.1 1.1-1.4.6-.2 1.2-.1 1.8-.2.7 0 .5-1.6-.1-1.6-.5-.5-1-1-1.6-1.4-.7-.3-1.4-.5-2.1-.4-.6.1-1.1.5-1.3 1.2-.4.6-.5 1.5-1.2 1.3-.3-.3-.6-.4-.9-.6z"/><path id="path1136" class="st64" d="M404 289s.6-2.9 1.4-3.9c1.6-2.1 6.3-3.6 6.3-3.6-2 1-4.4.3-6.3 1-1.6.6-4.3 3.3-4.3 3.3s1-2.8 1.8-3.9c2.3-3.2 6-3.6 8.7-3.1l3.1.6s.5.4.3 1c-.5 1.3-2 2-3 2.6-2.7 1.8-6.2 3.3-8 6z"/><path id="path1134" class="st63" d="M413.6 278.7c-2.5 2.2-8.4 6.1-8.1 6.3 0 0 5-1.5 7.2-2.9.8-.5 1.9-.8 2.2-1.9.1-.5-.1-1.3-.4-1.6-.3-.2-.7-.1-.9.1z"/><path id="path1138" class="st65" d="M425.6 261.7c-.6-.1-.7 1.4-.7 2.2 0 .5 0 1.5.4 1.6.5 0 .7-1.2.7-1.9.1-.7.1-1.9-.4-1.9z"/><path id="path1142" class="st63" d="M423 283c0-.6-.6-.3-.9-.2-.6.2-1.1.6-1.7 1-.4.4-.9.6-1.3 1-.8.5-1.6 1.2-2.5 1.8-.4.2-.7.4-1.1.5-.3.1-.2.3.1.3.6.2 1.2.1 1.7-.2.6-.3 1.3-.5 1.9-.8.3-.4 1-.5 1.4-.8.3-.3 1.1-.4 1.5-.6.6-.4.3-.9 1-.9.4 0 .5-.8.1-.9-.1 0-.1-.1-.2-.2z"/><path id="path1149" class="st63" d="M417.3 289.9c.4-.2.9-.1 1.4-.3.5-.2 1.1-.4 1.6-.6.3-.2.5-.3.8-.5.4-.4.8-1 1-1.6l.6-1.5c.1-.4-.3-.6-.5-.3l-.8.8c-.3.3-.6.5-.9.9-.3.5-.5 1.1-.9 1.6-.2.2-.4.4-.6.5-.5.3-1 .5-1.4.8-.1 0-.2.1-.3.2z"/><path id="path1163" class="st66" d="M423.4 247.5c.2.4.3.8.3 1.3.1.5.2 1.1.2 1.6 0 .6-.5.9-.6 1.4 0 .4 0 .7-.1 1.1-.1.6 0 1.2-.1 1.8-.2.5-.8.1-1.2.3-.4.1-.8.1-1.1-.3-.3-.4-.6-.9-1-1.3-.4-.5-.9-1.1-1.2-1.8-.3-.5-.5-1-.7-1.5-.1-.2-.2-.5-.2-.6"/><path id="path1165" class="st66" d="M419.2 252.4c-.4 0-.7.2-1.1.1H417c-.3-.1-.8-.1-1.1-.4-.3-.1-.5-.3-.7-.5-.2-.2-.4 0-.6 0-.2-.4-.5-.9-.7-1.2-.2-.1-.4-.2-.6-.6-.2-.1-.4-.6-.5-.7-.2-.3-.2-.6-.4-.9-.2-.3-.2-.6-.4-.9v-.2"/><path id="path1167" class="st66" d="M414.6 251.7c-.1.7-.7 0-1-.1-.2-.1-.4-.3-.7-.4-.2-.2-.4-.3-.6-.4-.2-.2-.5-.3-.7-.5-.3-.1-.6-.5-.9-.6l-.9-.9c-.3-.3-.7-.6-1-1-.3-.3-.6-.7-.6-1.2s-.1-1-.3-1.3c0-.3-.1-.4-.1-.6"/><path id="path1187" class="st8" d="M439.4 252c.3 0 .7 0 1-.1.4 0 .7-.2 1-.3.3-.2.6-.6 1-.6s.8.1 1.1-.1c.2-.4.5-.5.8-.4.3-.1.7.1 1 .2.3.1.6.2.9.4l.9.6c.3.2-.2.5-.3.7-.3.2-.7 0-1 .3-.3.2-.5.5-.7.9-.2.4-.6.3-.9.5-.3.1-.6 0-.9.1-.3 0-.5.1-.8 0-.3-.1-.7-.2-1-.2-.3-.2-.5-.6-.8-.6-.5-.1-.8-.5-1.3-.7.1-.4 0-.5 0-.7z"/><path id="path1181" d="M397.4 213.3c-.8-.2-1.5.3-2.3.2-.7.2-1.5.1-2.2.1-.8-.2-1.6-.1-2.3.1-1.1.2-2.2.8-3.4 1-1.6.1-3.1 0-4.7.1-1.1.1.1-1.7.7-1.6 1.4-.5 2.8-1.2 4.3-1.4 1.1-.2 2.2-.6 3.3-.9l2.7-.9c.9-.2 1.8-.4 2.8-.2 1-.3 1.9-.6 2.8-1.1.8-.5 1.8-.2 2.6-.8.5-.9 1.4-.9 2.2-.8.8.2 1.7.6 2.3 1.5.6 1.1-1.3 1-.7 2.2-.3.4-1 .5-1.5.5-.4 0-.9.1-1.3-.2-.7-.3-1.3-1-1.9-1.5-.7-.1-.7 1.5-1.6 1.3-1.1.5-2.3.4-3.4.4.7.3 1.5.7 2.1 1.3.2.5-.2.6-.5.7h0z" stroke="#000" stroke-width=".483"/><path id="path1185" class="st18" d="M402 209.3l.7-.4.4-.8s.6 1.2.3 1.6c-.3.4-1.4-.4-1.4-.4z"/><path id="path1191" class="st18" d="M403.9 207.1c.1-.1-.6-.7 0-.9.6-.9 1.5-.2 2.2.1 1.3.5 2.7 1.2 3.6 2.6 1.3 1.9 1.5 4.4 2.5 6.5.4 1 .7 2.1 1 3.1.2.8 1.2 1.7.7 2.6-.6.5-1.2-.2-1.8-.4-.8-.1-.4 1 .1 1.2.6.3.7 1.4-.1 1.4-.8-.1-1.5-.2-2.3-.3-.6-.4.2-1.2.5-1.5.4-.3 1-.8 1-1.6 0-1.4-.8-2.6-.9-4-.2-1-.4-2.1-.8-3-.3-2.2-1.9-3.7-3.5-4.4-.7-.4-1.4-.8-2.1-1.3-.1 0-.1-.1-.1-.1z"/><path id="path1193" class="st8" d="M409.6 208.2c.2.2.4.3.7.5.2.2.6 1.1.7 1.4.1.2.1.5.2.8 0 .3.2.6.4.8l.3 1.2c.2.3.3.6.4 1 .1.3.1.6.2.9.1.2.2.7-.1.7-.2-.1-.4-.2-.6-.5-.2-.3-.4-.7-.6-1-.1-.2-.2-.5-.2-.8-.1-.3-.2-.6-.3-1l-.3-.9c-.2-.3-.2-.7-.4-1-.1-.4-.6-1.3-.5-1.8.1-.2.1-.3.1-.3z"/><path id="path1195" class="st8" d="M404.4 205.7c-.2-.1-.3-.3-.4-.4-.1-.1-.4-.2-.5-.3-.3.2-.1-.3-.2-.2-.1-.2-.1-.3-.1-.5-.1-.2-.2-.3-.3-.4 0-.1-.1-.2 0-.2.2 0 .4 0 .5.1.2 0 .3.1.5.1h.7c.1-.1.1.1.3.1.1 0 .1.1.2.1.2 0 .2.3.3.4.1.1.2.3.2.5 0 .1.1.3.1.2 0-.1 0 .2-.1.2-.1.2-.3.2-.4.3-.2 0-.3.2-.5.2-.1-.1-.2-.2-.3-.2z"/><path id="path1210" class="st18" d="M404 205.3c-.2.1-.5.3-.8.2-.2.1-.3.2-.5.4-.2.1-.4.2-.5.2-.1 0-.3-.2-.4-.2-.1-.1-.1-.3-.3-.3-.1-.1-.3-.2-.4-.3-.1-.1-.1-.3-.1-.4 0-.2 0-.3.1-.5 0-.2.2-.3.3-.3h.9c.2-.1.3-.2.5-.2.2.1.3.3.4.4.3.3.5.6.8 1z"/><path id="path1212" class="st18" d="M405.4 204.4c.2-.1.4-.3.6-.3.2 0 .4.1.6.2.2.1.5.2.7.3.2.1.5.3.7.4.2.1.4.3.6.4.2.1.4.3.6.4.2.2.4.4.5.7.1.2 0 .6-.2.4-.2-.2-.4-.3-.7-.4-.2 0-.4-.1-.6-.2l-.6-.3c-.3-.2-.6-.3-.9-.5-.1-.1-.3-.1-.4-.2-.3-.2-.5-.3-.8-.5 0-.1-.2-.2-.1-.4z"/><path id="path1232" d="M408.6 210.3c-.9-.1-1.8.4-2.6.1-.7-.1-1.2.5-1.7.8-.7-.1-.9 1.3-1.5 1.2-.6-.1-1.2-.6-1.7-.4 1.1.6 2.3 1.3 3.3 2.2.5.7 1.2 1.2 1.9 1.5.5.3 1.1.9.8 1.7-.2.9-1.3 1-1.3 2.1-.1.9-.9 1.3-1.1 2.1-.3.6-.9 1-.9 1.8.1.9 1 .2 1-.5.1-.6.5-1.5 1.1-1.2.5.9 1.1-.6 1.6-.3.3.5.9.8 1.1.1.4-.2 1-.5.6-1.2 0-.7.7-.7 1-1.1.4-.3.9-1 .4-1.5-.4-.8 0-1.9-.5-2.6-.4-.8 0-1.9-.3-2.7-.3-.8-.5-1.8-1.2-2.1z"/><path id="path1253" class="st65" d="M432.2 241.1c-1 0-1.8 1-2.8 1.1-1.2.2.3.9.7 1.3 1 .8 2.1 1.1 3.2 1.6 1 .6 2.1 1 3.2.7 1-.3.3-1.6 0-2.3-.6-1.1-1.6-1.7-2.4-2.6-.7-.8-1.5-.6-1.9.2z"/><path id="path1264" class="st18" d="M431.5 243.8c-.4.1-.7.2-1.1.2-.4 0-.9.2-1.3-.1-.4-.1-.9-.3-1.3-.6-.3-.3-.7-.4-.9-.8-.3-.5.3-.5.5-.6.4-.1.9-.2 1.4-.1.5.3 1 .5 1.5.8.4.2.8.5 1.1.9 0 0 .1.2.1.3z"/><path id="path1266" class="st18" d="M436.4 243.4c.1.6-.7 0-1 .2-.5.1-1-.1-1.4-.4-.7-.5-1.5-.9-2.3-1.1-.4-.1-1.1-.6-.6-1.1.4-.4 1-.8 1.5-.9.6 0 1.1.4 1.6.7.5.3 1.1.6 1.5 1.1.4.4.8.9.7 1.5z"/><path id="path1270" class="st65" d="M422.8 237.2c-.7.6-1.6.8-2.4.8-.8.4-2-.5-2.3.8-.4 1 .6 1.5 1.1 1.9 1.5 1.1 3.3 1.1 5.1 1.2.5 0 2-.2 1.2-1-.9-.8-1.5-2-2.2-3-.2-.2-.4-.4-.5-.7z"/><path id="path1272" class="st65" d="M431.4 237.9c-.3-.1-.7-.2-1-.4-.5-.2-.8-.6-1.3-.9-.6-.4-1.2-.9-1.8-1.3-.3-.1-.2-.5.1-.5.3 0 .4-.6.7-.2.4.3.8.7 1.1 1.1.4.4.7.9 1.2 1 .4.4 1 .6 1 1.2z"/><path id="path1274" class="st65" d="M430.3 239.9s-1.6.5-2.3.1c-.5-.2-1.1-.3-1.6-.7-.6-.4-1.3-.7-1.7-1.4-.4-.6.1-1.6.7-1.4.4-.1.2-1.3.8-.8.8.5 1.6 1 2.3 1.7.4.5.9.9 1.3 1.5.1.4.5 1 .5 1z"/><path id="path1296" class="st65" d="M418.7 225.9c1 .3 2.2 1 2.9 2.1.9 1.4-.9 2.2-1.7 1.4-1.3-.8-2.6-1.7-4.1-2.2-1.4.2.6 1.2 1 1.7.6.5 1.1 1.3 1.1 2.2-.9.9-2-.1-3-.2-1.1-.2-1.7-1.4-2.4-2.3-.5-.7-1.1-1.1-1.7-.7 0 1.2.7 1.4 1.1 2.4.4.6 1.8 2.1.4 2.1-1-.4-1.9-1.2-2.5-2.4-.6-.8-1.1-2.5.2-2.7 1.1-.8 2.4-1.3 3.6-1.3 1.4-.2 2.8.1 4.1-.3.2.2 1.1-.4 1 .2z"/><path id="path1298" class="st18" d="M408.2 226.9c-.2.4-.3.7-.3 1.1 0 .5 0 .9.1 1.4.1.4.2.8.3 1.1.2.4.4.7.7.9.2.3.4.5.7.6.2.2.4.3.6.4.2.1.5.2.8.3.3.1.5 0 .6-.3.3-.3.1-.5-.2-.5-.2-.1-.4-.3-.7-.5-.2-.3-.4-.6-.5-.9-.1-.3-.2-.6-.4-.9-.2-.2-.3-.5-.5-.7l-.6-.9c-.1-.3-.4-.6-.6-.9v-.2z"/><path id="path1300" class="st18" d="M417.3 231.5c-.6-.1-1.5-.4-2.2-.6-.8-.3-1.5-.9-2-1.8-.6-.7-1.1-1.4-1.8-2-.7-.3-1 1-.5 1.5.4.8.9 1.4 1.4 2.2.5.7 1.1 1.2 1.8 1.6.8.6 1.8.8 2.7.9.5-.1 1.2-.5 1.3-1.3 0-.4-.4-.5-.7-.5z"/><path id="path1304" class="st18" d="M415.3 237.5c-.5.1-1.1.1-1.5-.3-.4-.3-.7-.8-1-1.3-.3-.5-.8-1.1-1.3-1.3-.5-.2-1 .3-.9.9.1.6.4 1 .7 1.4.5.6 1.2.9 1.8 1.3.3.2.7.3 1.1.3.4 0 .9.2 1.1-.4v-.6z"/><path id="path1306" class="st18" d="M420.3 235.6c.4.2.7 1 .4 1.5-.3.6-.9.9-1.5.8-.5 0-.9.1-1.4-.1-.5-.2-1-.5-1.5-.8-.5-.2-.6-1-.9-1.5-.2-.5.5-.8.8-.6.5.2.8.8 1.3 1.1.4.3.8.5 1.2.6.4.1.9.2 1.1-.3.3-.3.4-.5.5-.7z"/><path id="path1308" class="st18" d="M424.8 234.2c.4.5.1 1.4-.4 1.6-.4.1-.9.2-1.3.1-.6-.2-1.2-.7-1.8-1.1-.3-.4-.9-.5-1.1-1-.1-.7.4-1.2.9-1 .7.3 1.5.4 2.1.9.5.2 1 .5 1.6.5z"/><path id="path1342" class="st66" d="M426.2 227.7c2.3 2.4 4.4 4.8 6.2 7.8 1.4 2.1 2.2 4.9 4.2 6.2 2.8 3.9 14.8 8.3 14.9 9.5-2.8-1.5-4 3.4-6.7 2.6-2.5.9-4.6-1.2-6.7-2.3-3.2-.1-6.6.1-9.5 2.2-1.6 1.1-3.5-.6-4.7 0l-.1.4-.2.2m-15.4-7.4c-1.9-1.2-3.3-3.5-5.1-4.9-1.4-2.5-3.2-5-3.1-8.3-.2-3.4-.9-8.1.3-11.4-.9-2.5-2.2-3.2-3.2-5.7-.7-3.5-3.5-5.5-1.8-8.1 1.8-2.1 3.1-4.6 5.4-5.6 1.9-.6 3.9-.3 5.8.5 2.4.4 3.7 3 5 5.3 1.5 3.1 2.6 6.6 3 10.3 1.1 3 4.1 3.6 6.3 4.9 1.9 1.1 3.7 2.1 5.3 4"/></g></svg>