<svg version="1.2" baseProfile="tiny" xmlns="http://www.w3.org/2000/svg" viewBox="0 0 24 24"><path fill="#F0F0F0" d="M0 4.017h24v15.998H0z"/><path fill="#D42E12" d="M5.888 7.378V5.634h.567l.37 1.327.366-1.327h.572v1.744h-.357V5.972l-.38 1.406h-.393l-.385-1.406v1.406h-.36M8.85 5.986l-.258.74h.52l-.262-.74m-.225-.352h.445l.675 1.744h-.403l-.126-.356h-.722l-.122.356h-.403l.656-1.744m2.147 1.744h-.385v-.651l-.68-1.093h.47l.398.75.37-.75h.44l-.613 1.093v.651m1.092-.872c0 .192.047.342.136.446.09.107.22.159.384.159s.296-.052.39-.16.135-.253.135-.445-.047-.342-.136-.445a.483.483 0 00-.389-.16.48.48 0 00-.384.16c-.09.103-.136.253-.136.445m-.394 0c0-.281.08-.506.244-.67s.39-.249.666-.249c.28 0 .501.085.665.249s.249.389.249.67-.085.502-.249.67c-.164.165-.389.249-.665.249s-.502-.084-.666-.248c-.16-.164-.244-.39-.244-.67m2.518.871v-1.43h-.554V5.64h1.491v.31h-.548v1.43h-.39m1.543 0v-1.43h-.553v-.31h1.49v.31h-.548v1.43h-.39m1.159 0V5.633h1.354v.305h-.975v.37h.89v.3h-.89v.45h1.022v.324l-1.401-.005"/><path fill="#DFDFDF" d="M7.058 8.648a1.097 1.097 0 00-.45.164c-.052.033-.103.056-.113.052-.01-.005-.018-.033-.023-.066s-.014-.066-.024-.075c-.023-.033-.046-.005-.089.103a1.08 1.08 0 01-.047.108c-.018.023-.046.014-.08-.023-.032-.043-.084-.057-.093-.024-.005.01 0 .047.005.084.018.108-.014.122-.108.052-.08-.06-.113-.075-.14-.06-.034.018-.034.041.009.135.037.084.037.14.004.094a.29.29 0 00-.093-.061c-.043-.024-.113-.056-.15-.08a.866.866 0 00-.122-.056 1.691 1.691 0 00-.347-.047.443.443 0 00.084.07c.113.08.333.277.333.3 0 .014-.014.02-.094.01-.103-.01-.103-.014-.08.093.01.038.01.061 0 .07-.009.01-.042.005-.093-.004l-.094-.019c-.019 0-.01.09.014.17.024.07.024.079.005.093-.024.019-.047.01-.225-.07-.103-.047-.131-.057-.188-.052-.037 0-.08.01-.093.019l-.033.014.075.08c.089.093.178.224.192.276.023.084-.061.098-.342.066-.155-.02-.263-.02-.314.009a.774.774 0 00-.178.164.59.59 0 00.145.019.826.826 0 01.394.094c.093.051.093.065-.01.065-.089 0-.136.014-.183.052-.023.019-.023.019 0 .042.033.037.099.066.179.08.042.004.075.014.075.018 0 0-.033.01-.08.02-.117.018-.286.07-.366.107-.075.037-.075.042-.093.145l-.005.042.037-.009c.057-.014.352-.019.399-.01.075.015.051.034-.061.048a1.05 1.05 0 00-.258.051l-.028.014.06.028a.627.627 0 00.179.052c.267.056.3.084.075.075-.183-.01-.258 0-.253.028.005.033.117.09.239.117.07.019.047.033-.075.038-.108.004-.188.033-.22.075-.029.033-.01.183.018.201.005.005.02 0 .033-.01a.448.448 0 01.103-.055c.09-.043.09-.043.216-.024.051.01.098.052.14.136.02.038.061.099.09.136.028.038.065.08.075.094.023.028.023.028 0 .075-.014.028-.029.056-.029.07-.018.07-.37.047-.646-.047a1.839 1.839 0 01-.347-.168l-.057-.043v.047c0 .108.085.296.174.375l.056.047-.056.108c-.07.136-.075.187-.019.239.019.019.033.042.028.052a.22.22 0 01-.065.051c-.103.056-.099.052-.057.075.02.01.075.024.122.028.052.005.09.014.099.024.028.032-.033.107-.136.173-.019.01-.005.014.07.028.052.005.122.014.164.014h.07l-.023.042a.443.443 0 01-.127.136l-.032.02.037.004c.019.005.061 0 .09-.005a.486.486 0 01.21.005c.038.028.005.084-.084.173l-.08.075.052.01c.093.014.215 0 .28-.033.034-.014.062-.028.067-.028.014.018-.047.183-.085.23-.01.009-.014.023-.01.028s.066.009.137.009a.422.422 0 00.168-.019l.043-.019s.004.024.004.052c0 .037-.009.06-.028.094l-.028.037h.033a.776.776 0 00.314-.103c.042-.028.047-.028.047.014 0 .047-.028.117-.052.145s-.018.029.094 0a.755.755 0 00.234-.093c.043-.033.047-.028.038.018-.01.057-.033.09-.075.113-.019.01-.033.019-.028.023.01.01.248-.028.304-.046a.236.236 0 00.07-.038c.02-.019.02-.019.02.01a.344.344 0 01-.029.084c-.014.028-.028.056-.028.06 0 .01.061-.009.136-.041a.399.399 0 01.103-.033c.038 0 .085.037.122.093.019.033.047.052.108.085l.08.042.004-.047a5.53 5.53 0 01.211-.558c.01-.009.24.15.46.314.136.099.44.404.53.53.248.338.328.572.332.952 0 .206-.014.318-.06.52-.104.427-.352.834-.629 1.04-.183.137-.398.183-.801.17-.488-.015-.793-.118-1.018-.338a1.157 1.157 0 01-.323-.633 2.273 2.273 0 01-.014-.225c0-.281.06-.473.201-.619a.655.655 0 01.408-.22.563.563 0 01.44.127c.076.07.08.103.02.22-.052.108-.057.136-.024.169s.094.028.169-.005c.108-.047.16-.169.15-.338-.01-.15-.08-.248-.24-.328-.154-.075-.229-.093-.468-.089-.197 0-.22 0-.314.033-.192.056-.31.136-.398.263-.207.29-.32.787-.253 1.11.051.244.187.511.38.732.323.375.75.543 1.363.543.455 0 .778-.089 1.097-.295.356-.23.586-.53.783-1.012a1.06 1.06 0 00.084-.328.287.287 0 01.024-.113c.047-.052.06-.202.033-.3l-.02-.056.038-.033c.061-.056.057-.178-.014-.258l-.033-.037.038-.038c.047-.051.07-.145.06-.272-.004-.089-.046-.206-.065-.206-.023 0-.01-.033.024-.051a.17.17 0 00.08-.15c0-.141-.057-.352-.099-.366-.019-.005-.019-.038-.005-.038.028 0 .061-.107.066-.206.005-.122-.019-.215-.066-.267l-.033-.033.038-.075c.033-.06.037-.08.028-.136-.014-.122-.145-.347-.248-.412-.038-.024-.047-.038-.047-.066 0-.075-.061-.192-.169-.305-.108-.117-.145-.168-.169-.253a.25.25 0 00-.08-.126.688.688 0 00-.243-.146c-.014-.004-.024-.014-.024-.032 0-.075-.093-.197-.173-.235-.042-.019-.047-.023-.047-.056 0-.047-.037-.094-.131-.155-.09-.056-.225-.093-.436-.112-.445-.038-.642-.113-.853-.319a.7.7 0 01-.22-.38.624.624 0 01-.005-.37c.023-.07.098-.216.112-.216.005 0 0 .038-.014.085a.846.846 0 00-.004.375.45.45 0 00.44.323c.127.01.211.038.253.075.061.056.202.066.333.019a.441.441 0 01.14-.028l.085-.01.108.075c.108.075.586.343.665.375.15.061.324.02.394-.098.056-.094.005-.178-.244-.403-.201-.183-.248-.244-.276-.347a1.11 1.11 0 00-.084-.216c-.085-.178-.085-.21-.005-.29A.4.4 0 007.76 9.9c.019-.043.028-.141.014-.15a.402.402 0 00-.122.023c-.014.005-.014-.014-.01-.094 0-.06 0-.112-.009-.131l-.014-.033-.042.042c-.042.043-.075.052-.089.029-.005-.005-.01-.038-.019-.075-.01-.07-.056-.183-.07-.17-.005.005-.014.029-.023.052-.005.024-.02.043-.024.043s-.014-.029-.019-.061c-.014-.099-.028-.141-.056-.17-.023-.023-.033-.023-.042-.009a.118.118 0 00-.01.047c0 .052-.032.15-.074.24-.085.163-.16.15-.32-.062-.093-.121-.102-.159-.079-.215.061-.127.314-.3.553-.375.047-.014.08-.028.08-.033 0-.023-.056-.075-.108-.098-.06-.057-.126-.061-.22-.052z"/><path d="M4.695 10.921c.07-.042-.281-.032-.356-.032-.052.014-.098.037-.112.028-.015-.01-.005-.066.014-.16a.471.471 0 01.173-.089c.056-.018.108-.032.178-.056.066-.01.085-.005.174-.023-.108-.02-.183-.005-.286-.118.042-.023.06-.056.112-.07.052-.01.07-.01.113-.01.08 0 .103.015.051-.023s-.16-.084-.272-.103c-.103-.019-.257-.019-.332-.023.032-.066.098-.108.135-.15.066-.08.211-.075.427-.042.347.042.366 0 .15-.277l-.14-.155.088-.032.094-.005c.094.023.206.094.277.122.112.051.108.004.07-.09-.028-.079-.01-.074-.019-.163.057 0 .207.056.207.023 0-.042-.02-.07-.029-.169.052 0 .16.014.183.01.024-.005-.033-.061-.093-.113l-.155-.136-.216-.145.319.042c.098 0 .253.108.337.15.043.024.08.028.104.056.056.024-.01.08.028.024.018-.038-.075-.15-.061-.206.07-.132.225.112.262.07.066-.01-.033-.16.019-.188.075-.042.117.108.155.08.037-.028.065-.22.126-.244.061-.023.038.197.08.169.094-.066.29-.187.455-.21.08-.01.178-.034.257-.02.08.014.155.07.179.136-.108.033-.127.033-.24.085-.112.042-.262.15-.332.22-.122.136-.122.15.014.319.169.234.253.22.347-.052.037-.108.028-.173.047-.21.009.009.046.023.07.06a.797.797 0 01.037.206c.02-.009.033-.056.047-.13.042.079.056.107.07.144s0 .141.043.141c.023 0 .056-.047.108-.094.046.085.037.193.018.272.038-.01.108-.037.146-.037a.31.31 0 010 .131c-.024.056-.033.103-.09.145-.084.07-.084.113 0 .277a.82.82 0 01.099.276c0 .043.127.183.29.32.197.168.268.276.24.35-.07.17-.291.221-.488.113-.094-.051-.295-.164-.46-.253-.107-.06-.182-.126-.248-.169a.572.572 0 00-.28.057c-.142.023-.254.009-.282-.038s-.14-.08-.249-.08c-.28 0-.464-.187-.478-.459a.953.953 0 01.052-.328c-.155.244-.164.36-.108.576.066.3.38.69 1.069.699.131.005.239.042.36.066.08.046.25.135.212.248a.308.308 0 01.215.277c.314.093.357.276.357.314s.08.14.178.234c.098.094.164.239.15.319.107.056.15.14.215.23.057.112.15.257.014.426.146.052.141.464.024.52.084.057.103.202.122.394 0 .066-.02.122-.122.173.028.015.051.052.065.104.014.051.024.112.024.173s-.01.122-.028.169c-.019.047-.047.08-.085.089.132.084.127.31.014.333.061.112.043.337-.037.38.019.229-.075.393-.122.515a1.872 1.872 0 01-.96 1.045c-.493.24-1.332.235-1.81-.014-.422-.22-.769-.689-.84-1.148-.065-.408.137-1.008.39-1.196.403-.295 1.181-.196 1.293.165.057.182-.014.403-.15.45-.178.065-.248-.024-.15-.179.07-.121.066-.154-.051-.248-.338-.248-.844-.028-.966.408-.15.562.085 1.134.558 1.364.394.197 1.19.21 1.472.037.548-.347.895-1.28.727-1.987-.094-.39-.474-.867-.966-1.195l-.31-.22-.112.29c-.06.15-.112.234-.098.333-.094-.057-.127-.047-.188-.103-.028-.066-.08-.136-.16-.113-.018.005-.126.07-.229.084.038-.084.075-.089.07-.173-.056.07-.22.08-.43.103.163-.094.135-.112.144-.192-.065.07-.22.117-.403.15.094-.099.08-.127.09-.22-.094.089-.32.14-.404.136.075-.085.075-.085.075-.188-.084.066-.234.056-.37.033a.41.41 0 00.112-.263c-.112.103-.29.08-.407.061.093-.084.15-.126.178-.178.032-.065.01-.084-.103-.084-.08 0-.132.051-.244.004.164-.065.21-.276.248-.28.15-.02-.206.271.113.21.08-.01.117-.01.173-.005-.042.061-.047.061-.084.108-.038.061-.047.136-.14.183.079 0 .145.01.196-.033.052-.042.052-.06.164-.14.014.084.01.103 0 .154-.014.099-.033.122-.06.197.121.028.196-.01.215-.06.033-.034.075-.118.14-.137.024.075 0 .08-.009.146-.028.07-.033.122-.056.192a.494.494 0 00.276-.174c.136-.112.136-.112.094.038-.019.098-.014.122-.047.206a.422.422 0 00.29-.169c.071-.107.08-.098.052.038-.004.089.01.103-.009.192.108-.023.188-.066.244-.155.07-.107.08-.098.051.038-.018.084.014.103-.032.192.121-.051.126-.037.168-.108.028-.056.075.02.132.127.046.08.084.089.117.089.01-.061.033-.103.089-.234.065-.155.108-.282.098-.296-.014-.01-.192-.098-.389-.206-.206-.098-.375-.21-.375-.253 0-.038-.037-.066-.084-.066-.113 0-.408-.281-.408-.389 0-.051-.066-.169-.14-.262-.108-.14-.226-.193-.544-.225A1.727 1.727 0 014.1 12c-.056-.029-.066-.057-.113-.075 0 .037.024.15.104.23.046.05.093.06.136.084-.038.042-.066.117-.099.168-.07.113-.07.15.028.183.094.038.094.056.014.108-.033.023-.08.042-.112.061.051.014.094.014.192-.01.127-.074.136-.056.08.024-.047.066-.075.145-.141.197.075.005.108-.01.173-.033.07-.028.132-.047.08.061-.047.075-.019-.042-.065.061a1.222 1.222 0 01-.37-.033c.112-.06.154-.108.168-.14.023-.066-.038-.061-.094-.061-.023 0-.108.009-.169-.057.052-.028.127-.051.174-.112-.145-.084-.061-.211-.028-.267.028-.047.028-.075.06-.122-.041-.005-.107-.09-.14-.146a.595.595 0 01-.084-.332.815.815 0 00.192.126c.103.061.319.136.51.164.193.028.357.024.357-.047s.075-.065.024-.121a.772.772 0 01-.193-.296c-.06-.075-.136-.08-.239-.08-.051.029-.16.052-.206.122-.047-.023-.07-.159-.047-.23.01-.027.127-.084.192-.084.066 0 .099.014.16-.009-.07-.019-.103-.019-.178-.052-.061-.032-.127-.051-.118-.089.01-.051.361-.014.408-.014.042 0-.075-.047-.164-.056-.056-.019-.183-.014-.31-.108.095-.06.146-.033.221-.065m.305 0c-.028.06-.366.042-.272.07 0 0 .262.047.347.122.014.065-.075.094-.075.094l-.333-.038c-.005.047.323.061.314.131-.005.024.019.066-.089.052-.098.005-.22-.005-.295.033-.052.028-.061.084-.043.136a.63.63 0 01.17-.085.39.39 0 01.215.033c.06.028.103.056.155.16.037.093.15.196.253.238.112.038.29.132.375.24.089.117.154.215.37.342.21.192.028.122.117.136.244.037.375.093.417.15a.557.557 0 00.253.14c.099.028.179.08.179.113 0 .042.051.07.112.07.155 0 .844.727.97 1.013.24.543.282.74.282 1.265-.01.352-.052.67-.113.816-.14.333-.74.994-.905.994-.028.009-.018.004-.051.009-.014.023-.024.023-.08.051a.661.661 0 01-.31.061 2.602 2.602 0 01-.44-.032 3.111 3.111 0 01-.46-.099c-.121-.042-.168-.065-.205-.103-.01-.01-.038-.028-.033-.075-.024.023-.085.019-.155-.047-.056-.051-.112-.075-.084-.126-.075-.01-.09-.043-.15-.127-.038-.056-.085-.103-.066-.183-.051.01-.08-.06-.108-.131-.028-.06-.075-.145-.014-.173-.065 0-.056-.08-.06-.136-.01-.057-.024-.146.041-.16-.07-.023-.037-.094-.028-.16.014-.088.024-.14.08-.15-.052-.023-.019-.107.014-.224.028-.094.09-.127.16-.113-.07-.051.056-.136.084-.159.075-.061.16-.084.178-.047-.01-.075.258-.084.36-.07s.193.056.287.136c.15.122.155.154.08.281-.094.164-.024.197.112.066.14-.141.098-.32-.108-.479-.154-.126-.262-.15-.53-.126-.473.051-.66.197-.796.633-.211.726.08 1.443.712 1.753.281.136.45.169.91.169.67-.01 1.082-.17 1.471-.6.24-.263.507-.943.422-1.07-.136-.055 0-.06.042-.06.057 0 .08-.29-.028-.347.211 0 .099-.262-.028-.314.113-.005.169-.113.174-.23.004-.117-.047-.239-.141-.267-.075-.023-.005-.042.061-.056.08-.019.112-.033.103-.178-.014-.094-.047-.253-.117-.286-.07-.028-.183-.038-.244-.047a.95.95 0 01.206-.042c.127-.052.17-.31.057-.38-.113-.07-.399.07-.418.01.057-.062.23-.076.305-.132.094-.094.183-.183.028-.398-.08-.122-.065-.15-.154-.183-.118-.005-.375.155-.568.15.09-.075.394-.136.493-.206.098-.07.023-.178-.075-.305-.122-.108-.17-.113-.324-.042a2.616 2.616 0 01-.455.117c.07-.07.39-.15.46-.206.136-.099.136-.14.01-.282l-.188-.08-.211.113c-.155.07-.394.155-.394.132 0-.015.22-.113.333-.174.122-.066.192-.155.192-.206 0-.178-.164-.202-.412-.028-.127.075-.446.168-.465.136-.023-.043.211-.09.329-.146.117-.065.332-.173.332-.23-.028-.093-.154-.163-.712-.224-.417-.052-.633-.183-.816-.488-.225-.365-.183-.684.122-.97l.253-.24-.15.226c-.276.394-.14.867.249.867a.62.62 0 01.295.084c.098.057.183.043.267.02l.136-.038.047-.01-.197-.131c-.22-.108-.31-.31-.192-.431.042-.042.056 0 .037.112-.028.136 0 .197.099.235.07.037.21.112.305.182.304.22.712.474.754.474.024 0-.014-.07-.093-.164-.08-.085-.038-.07.093.051.192.17.249.193.338.113.154-.127.136-.183-.136-.352a.73.73 0 01-.333-.408 1.727 1.727 0 00-.14-.337c-.043-.052-.024-.113.042-.169.06-.051.122-.164.112-.206-.028.005-.047.014-.08.028-.037.024-.07-.01-.07-.07 0-.033.024-.15.019-.183a.45.45 0 01-.09.113c-.037.023-.079 0-.079-.052-.01-.103-.023-.131-.033-.178a.736.736 0 01-.122.155c.029-.08.005-.329-.004-.352a.98.98 0 01-.052.23c-.075.103-.094.126-.178.154-.07.005-.108-.028-.206-.14-.099-.122-.16-.211-.164-.272 0-.066.21-.314.454-.408.104-.037.118-.047.183-.066-.019-.004-.042-.028-.122-.042a.657.657 0 00-.304.042c-.094.029-.31.122-.408.22-.052.01.01-.168-.056-.145-.061.029-.038.211-.09.24-.08.042-.093-.099-.126-.099-.038.005.028.164-.038.202-.042.023-.192-.16-.21-.132-.015.024.112.174.08.197-.043.033-.038.08-.132.042-.075-.037-.417-.253-.506-.243.08.051.145.117.234.197.14.15.183.164.066.182-.103-.018-.132-.047-.183-.014-.028.019.023.15-.01.174-.032.023-.154-.024-.168-.01-.052.057.042.132.01.211-.043.122-.066.122-.207.024-.113-.08-.258-.14-.263-.108-.004.042.029.06.094.15.206.29.15.347-.253.305 0 0-.328-.094-.427.056.099-.019.329.028.39.056a.794.794 0 01.168.108c.033.023.014.042-.004.098a.582.582 0 01-.24.038c.263.103.24.019.333.07-.07.113-.122.103-.356.136a.719.719 0 01-.178.056c-.066.02-.103.07-.09.075s.08-.009.15-.018c.085 0 .043 0 .23.018.099.033.137.099.118.132z"/><path d="M7.203 10.246c0 .043-.023.075-.051.075s-.052-.032-.052-.075.023-.075.052-.075.051.033.051.075"/><path d="M7.153 10.458a.235.235 0 01-.08-.015.215.215 0 01.074-.418c.028 0 .056.005.083.015a.223.223 0 01.127.119.218.218 0 01-.205.299zm-.006-.383a.163.163 0 00-.155.106.166.166 0 00.099.215c.088.032.188-.012.22-.093a.157.157 0 000-.125.174.174 0 00-.099-.091.186.186 0 00-.065-.012z"/><path d="M7.209 10.113c-.003-.002-.299-.174-.505-.065l-.023-.044c.23-.121.54.059.553.066l-.025.043z"/><g fill="#DFDFDF"><path d="M5.023 12.042c-.009-.038.01-.056.07-.094.076.01.207.061.291.136.141.127.164.173.244.281-.033.066-.051.08-.117.14a.845.845 0 01-.14.085c-.034-.103-.076-.16-.17-.276-.042-.066-.173-.118-.239-.17.015-.055.038-.06.061-.102zM5.553 12.539c.066-.043.08-.103.127-.127.06.024.042.033.14.08.103.065.066.051.146.16-.033.065-.052.093-.099.163-.056.047-.056.085-.108.146a.411.411 0 01-.23-.146c-.05-.06-.112-.065-.14-.173.07-.042.127-.066.164-.103zM5.923 12.839c.047-.066.057-.113.099-.16.07.01.126.019.21.047.118.024.132.061.193.127-.033.065-.038.145-.061.262a.793.793 0 01-.07.202 1.345 1.345 0 01-.244-.131c-.084-.052-.164-.104-.202-.207.038-.08.033-.103.075-.14zM6.43 13.153c.018-.09.018-.188.06-.258.07.01.062.033.146.06.089.038.145.048.192.141-.075.07-.094.061-.117.179-.019.08.019.196-.019.267-.094-.042-.103-.066-.187-.117-.085-.052-.094-.029-.146-.085.033-.089.047-.131.07-.187zM6.777 13.284c.042-.084.056-.103.103-.14.084.032.122.013.201.084.075.051.23.183.29.248-.055.028-.107.047-.177.136s-.047.113-.085.206c-.07-.047-.103-.07-.168-.107-.07-.061-.099-.08-.174-.136.028-.094-.005-.22.01-.291zM7.24 13.664c.043-.085.099-.099.146-.136.084.033.117.108.197.178.098.108.112.126.164.192-.075.038-.094.038-.16.098-.07.061-.089.061-.135.113-.052-.056-.043-.052-.108-.117-.07-.061-.075-.061-.169-.146a.899.899 0 01.066-.182zM7.63 14.053c.047-.038.093-.066.136-.094.037.047.075.08.098.131.038.047.042.061.075.127-.075.037-.066.028-.117.051s-.075.052-.136.094c-.052-.056-.014-.037-.08-.098-.033-.038-.047-.07-.098-.118.06-.056.07-.065.122-.093zM7.822 14.339c.06-.028.084-.043.131-.066.033.061.042.07.066.122.014.042.023.066.051.136a1.02 1.02 0 00-.225.108c-.042-.075-.037-.057-.06-.103-.024-.043-.038-.057-.076-.113.057-.042.075-.06.113-.084zM7.967 14.63c.061-.029.056-.02.108-.043.033.061.056.174.075.24.014.074.023.159.028.252-.051.01-.033.005-.075.014-.047.01-.047.01-.094.033a1.147 1.147 0 00-.051-.225c-.019-.047-.052-.16-.094-.215.042-.029.066-.033.103-.057zM8.094 15.154a.265.265 0 01.075-.01c.01.132.01.165.004.296-.009.136-.009.249-.032.39-.024-.01-.033-.015-.075-.02-.047-.004-.043-.004-.09 0 .033-.13.033-.173.043-.332a2.1 2.1 0 00-.005-.296c.033-.014.047-.023.08-.028zM8.028 15.871c.019-.004.066 0 .103 0-.042.23-.075.32-.154.46a3.316 3.316 0 01-.3.389c-.015-.01-.024-.024-.038-.038-.014-.014-.023-.018-.042-.032.136-.179.16-.235.239-.399.066-.164.08-.21.122-.389.037.019.042.019.07.01zM7.602 16.72c.023.014.014.01.046.033a3.299 3.299 0 01-.196.206c-.08.056-.104.108-.263.173-.019-.023-.019-.023-.028-.037-.01-.014-.014-.019-.024-.042a.578.578 0 00.24-.146c.103-.089.126-.126.192-.21.018.009.023.014.033.023zM7.1 17.118c.014.02.01.028.019.052-.075.042-.09.047-.267.08-.22.009-.31 0-.413-.01.005-.028.005-.028.005-.056v-.042c.206.014.267 0 .347-.005.145-.014.257-.047.29-.056.014.023.014.019.019.037zM6.383 17.184c-.005.023-.005.014-.01.047-.168-.028-.173-.028-.38-.07-.154-.043-.206-.08-.3-.127-.004-.033-.004-.028.005-.042.01-.019.005-.014.024-.028.112.07.234.089.3.112.155.033.234.042.365.056-.004.029-.004.033-.004.052zM5.647 16.95c-.028.018-.028.028-.061.023-.052-.01-.061-.023-.113-.066-.023-.018-.065-.06-.056-.075.01-.018.028-.075.052-.037.018.033.103.08.154.117.043.028.033.028.024.038zM5.394 16.771c-.028.01-.024.015-.047-.004-.019-.019-.033-.047-.07-.09a.577.577 0 01-.066-.112c-.005-.047.019-.075.037-.037.038.065.08.136.146.197.037.032.014.046 0 .046zM5.21 16.48c-.027.01-.027.015-.05-.004a.441.441 0 01-.066-.112c-.014-.028-.042-.075-.033-.103.014-.033.056-.057.066-.015.018.075.028.075.06.16.02.028.038.07.024.075zM5.112 16.167c-.014.023-.032.019-.07.004-.028-.014-.019-.056-.023-.112 0-.028-.01-.056 0-.098.01-.033.07-.047.075-.005.004.033 0 .047.004.103.014.08.024.089.014.108zM5.084 15.871c-.004.02-.032.015-.051-.009-.019-.023.004-.066.004-.112 0-.029.01-.061.024-.099.01-.023.047-.028.047.014 0 .019-.005.047-.01.094-.004.052 0 .08-.014.112zM5.136 15.571c-.005.02-.038 0-.042-.023-.01-.037.018-.08.028-.127a.256.256 0 01.056-.112c.024-.019.066-.028.056.014-.004.033-.051.094-.07.145-.01.047-.019.075-.028.103zM5.323 15.23c-.018 0-.042.004-.037-.02s.028-.032.07-.065a.637.637 0 01.08-.056c.023-.014.07-.028.056.014-.005.014-.028.023-.065.051-.043.024-.09.075-.104.075z"/></g><path fill="#DFDFDF" d="M16.723 8.7c-.051.023-.108.075-.108.098 0 .005.033.019.08.033.24.075.492.248.553.375.024.056.014.094-.08.215-.159.211-.234.225-.318.061a.711.711 0 01-.075-.239.118.118 0 00-.01-.047c-.009-.014-.018-.014-.042.01-.028.028-.042.07-.056.169-.005.032-.014.06-.019.06s-.019-.018-.023-.042c-.01-.023-.019-.047-.024-.051-.014-.014-.06.098-.07.169-.01.037-.014.07-.019.075-.014.023-.047.014-.089-.029l-.042-.042-.014.033c-.01.019-.01.07-.01.131.005.08.005.099-.009.094a.403.403 0 00-.122-.023c-.014.009-.004.107.014.15a.4.4 0 00.075.103c.08.08.08.112-.004.29a1.109 1.109 0 00-.085.216c-.028.103-.075.164-.276.347-.249.225-.3.31-.244.403.07.117.244.16.394.098.08-.032.558-.3.665-.375l.108-.075.085.01c.042 0 .107.014.14.028.131.047.272.037.333-.019.042-.037.127-.065.253-.075a.45.45 0 00.44-.323.846.846 0 00-.004-.375c-.014-.047-.019-.085-.014-.085.014 0 .09.146.113.216a.624.624 0 01-.005.37.7.7 0 01-.22.38c-.211.206-.408.281-.854.319-.21.018-.346.056-.436.112-.093.061-.13.108-.13.155 0 .033-.005.037-.048.056-.08.038-.173.16-.173.235 0 .018-.01.028-.024.032a.688.688 0 00-.243.146.25.25 0 00-.08.126c-.023.085-.06.136-.169.253-.108.113-.168.23-.168.305 0 .028-.01.042-.047.066-.104.065-.235.29-.249.412-.01.056-.004.075.028.136l.038.075-.033.033c-.047.051-.07.145-.066.267.005.099.038.206.066.206.014 0 .014.033-.005.038-.042.014-.098.225-.098.365a.17.17 0 00.08.15c.032.02.046.052.023.052-.019 0-.06.117-.066.206-.009.127.014.22.061.272l.038.038-.033.037c-.07.08-.075.202-.014.258l.037.033-.018.056c-.028.098-.014.248.033.3.009.01.018.056.023.113.01.112.033.196.084.328.197.482.427.782.783 1.012.319.206.642.295 1.097.295.614 0 1.04-.168 1.364-.543.192-.22.328-.488.38-.732.065-.323-.047-.82-.253-1.11-.09-.127-.207-.207-.399-.263-.094-.033-.117-.033-.314-.033-.239-.004-.314.014-.469.09-.159.079-.23.177-.239.327-.01.17.042.291.15.338.075.033.136.037.17.005s.027-.061-.024-.17c-.061-.116-.057-.15.018-.22a.563.563 0 01.441-.126c.164.023.29.094.408.22.14.146.201.338.201.619 0 .084-.009.183-.014.225a1.157 1.157 0 01-.323.633c-.225.22-.53.323-1.017.337-.403.014-.62-.032-.802-.168-.276-.207-.525-.614-.628-1.041a1.95 1.95 0 01-.06-.52c.004-.38.083-.614.332-.952.089-.126.394-.431.53-.53.22-.164.45-.323.459-.314.019.02.206.516.21.558l.006.047.08-.042c.06-.033.088-.052.107-.085.038-.056.084-.093.122-.093.014 0 .06.014.103.033.075.032.136.051.136.042 0-.005-.014-.033-.028-.061a.344.344 0 01-.028-.085c0-.028 0-.028.018-.009.01.01.043.028.07.038.057.018.296.056.305.046.005-.004-.009-.014-.028-.023-.042-.023-.065-.056-.075-.113-.009-.046-.004-.051.038-.018.047.033.136.07.234.093.113.029.117.029.094 0s-.052-.098-.052-.145c0-.042.005-.042.047-.014.066.047.24.103.314.103h.033l-.028-.037a.169.169 0 01-.028-.094c0-.028.005-.052.005-.052l.042.02c.033.013.07.018.169.018.07 0 .13-.005.136-.01.004-.004 0-.018-.01-.028-.037-.046-.098-.21-.084-.23.004 0 .033.015.065.029a.544.544 0 00.282.033l.051-.01-.08-.075c-.089-.089-.121-.145-.084-.173a.487.487 0 01.211-.005c.028.005.07.01.09.005l.037-.005-.033-.019a.442.442 0 01-.127-.136l-.023-.042h.07c.042 0 .113-.01.164-.014.075-.014.09-.019.07-.028-.103-.066-.164-.14-.135-.173.009-.01.046-.02.098-.024a.469.469 0 00.122-.028c.042-.023.047-.019-.056-.075a.22.22 0 01-.066-.052c-.005-.009.01-.032.028-.051.056-.052.052-.103-.019-.24l-.056-.107.056-.047a.631.631 0 00.174-.375v-.047l-.056.042c-.075.052-.24.132-.347.17-.277.093-.628.116-.647.046 0-.014-.014-.042-.028-.07-.024-.047-.024-.047 0-.075.009-.014.047-.056.075-.094.028-.037.07-.098.089-.136.042-.084.089-.126.14-.136.127-.019.127-.019.216.024a.448.448 0 01.103.056c.014.01.028.014.033.01.028-.02.047-.17.019-.202-.033-.043-.113-.07-.22-.075-.123-.005-.146-.02-.076-.038.122-.028.235-.084.24-.117.004-.028-.07-.038-.254-.028-.225.01-.192-.019.075-.075a.627.627 0 00.178-.052l.061-.028-.028-.014a1.05 1.05 0 00-.258-.051c-.112-.015-.136-.033-.06-.047.046-.01.342-.005.398.01l.037.008-.004-.042c-.019-.103-.019-.108-.094-.145a1.693 1.693 0 00-.366-.108 1.118 1.118 0 01-.08-.019c0-.004.033-.014.076-.018.08-.014.145-.043.178-.08.023-.024.023-.024 0-.042-.047-.038-.094-.052-.183-.052-.103 0-.103-.014-.01-.065a.826.826 0 01.394-.094.59.59 0 00.146-.019.774.774 0 00-.178-.164c-.052-.028-.16-.028-.315-.01-.28.033-.365.02-.342-.065a.986.986 0 01.192-.277l.075-.08-.032-.013a.218.218 0 00-.094-.02c-.056-.004-.084.006-.188.052-.178.08-.201.09-.225.07-.018-.013-.018-.023.005-.093.024-.08.033-.169.014-.169l-.094.019c-.051.01-.084.014-.093.005-.01-.01-.01-.033 0-.07.023-.108.023-.104-.08-.094-.08.01-.094.004-.094-.01 0-.023.22-.22.333-.3a.443.443 0 00.084-.07 1.691 1.691 0 00-.346.047.864.864 0 00-.122.056c-.038.024-.108.056-.15.08a.29.29 0 00-.094.06c-.033.048-.033-.009.005-.093.042-.094.042-.117.009-.136-.028-.014-.061 0-.14.061-.094.07-.127.056-.108-.052a.287.287 0 00.004-.084c-.01-.033-.06-.019-.094.024-.032.037-.06.046-.08.023a1.08 1.08 0 01-.046-.108c-.042-.108-.066-.136-.09-.103-.009.01-.018.042-.023.075-.004.033-.014.061-.023.066-.01.004-.061-.02-.113-.052a1.097 1.097 0 00-.45-.164c-.098-.01-.164-.005-.22.052z"/><path d="M19.498 10.95c.075.032.127.004.22.065-.126.094-.253.09-.309.108-.089.01-.206.056-.164.056.047 0 .398-.037.408.014.01.038-.056.057-.117.09-.075.032-.108.032-.179.051.061.023.094.01.16.01s.183.056.192.084c.023.07 0 .206-.047.23-.047-.07-.155-.094-.206-.122-.103 0-.178.004-.24.08a.772.772 0 01-.191.295c-.052.056.023.051.023.121s.164.075.356.047c.193-.028.408-.103.511-.164a.815.815 0 00.192-.126.595.595 0 01-.084.332c-.033.057-.098.141-.14.146.032.047.032.075.06.122.033.056.118.182-.028.267.047.06.122.084.174.112-.061.066-.146.057-.169.057-.056 0-.117-.005-.094.06.014.033.056.08.169.141a1.222 1.222 0 01-.37.033c-.047-.103-.02.014-.066-.061-.052-.108.01-.089.08-.06.065.023.098.037.173.032-.065-.052-.094-.131-.14-.197-.057-.08-.047-.098.08-.023.098.023.14.023.191.009-.032-.019-.08-.038-.112-.061-.08-.052-.08-.07.014-.108.098-.033.098-.07.028-.183-.033-.051-.06-.126-.098-.168.042-.024.089-.033.136-.085a.376.376 0 00.103-.23c-.047.02-.056.047-.113.076a1.727 1.727 0 01-.53.164c-.318.032-.435.084-.543.225-.075.093-.14.21-.14.262 0 .108-.296.39-.409.39-.046 0-.084.027-.084.065 0 .042-.169.155-.375.253-.197.108-.375.197-.389.206-.01.014.033.14.098.296.057.13.08.173.09.234.032 0 .07-.01.117-.09.056-.107.103-.182.13-.126.043.07.048.057.17.108-.047-.089-.014-.108-.033-.192-.028-.136-.019-.145.051-.038.057.09.136.132.244.155-.019-.089-.005-.103-.01-.192-.027-.136-.018-.145.052-.038.061.094.174.15.291.17-.033-.085-.028-.109-.047-.207-.042-.15-.042-.15.094-.038.08.094.155.141.276.174-.023-.07-.028-.122-.056-.192-.01-.066-.033-.07-.01-.146.066.02.109.103.141.136.02.052.094.09.216.061-.028-.075-.047-.098-.06-.197-.01-.051-.015-.07 0-.154.112.08.112.098.163.14.052.042.117.033.197.033-.094-.047-.103-.122-.14-.183-.038-.047-.043-.047-.085-.108a.742.742 0 01.173.005c.32.061-.037-.23.113-.21.037.004.084.215.248.28-.112.047-.164-.004-.243-.004-.113 0-.136.019-.103.084.028.052.084.094.178.178-.118.019-.296.042-.408-.06a.41.41 0 00.112.262c-.136.023-.286.033-.37-.033 0 .103 0 .103.075.188-.084.004-.31-.047-.403-.136.01.093-.005.121.089.22-.183-.033-.338-.08-.403-.15.01.08-.019.098.145.192-.21-.023-.375-.033-.431-.103-.005.084.033.089.07.173-.103-.014-.21-.08-.23-.084-.08-.023-.13.047-.159.113-.06.056-.094.046-.187.103.014-.099-.038-.183-.099-.333l-.112-.29-.31.22c-.492.328-.872.806-.965 1.195-.17.708.178 1.64.726 1.987.281.174 1.078.16 1.472-.037.474-.23.708-.802.558-1.364-.122-.436-.628-.656-.966-.408-.117.094-.122.127-.051.248.098.155.028.244-.15.179-.136-.047-.207-.268-.15-.45.112-.361.89-.46 1.293-.165.254.188.455.788.39 1.196-.07.46-.418.928-.84 1.148-.478.249-1.317.253-1.809.014a1.872 1.872 0 01-.96-1.045c-.048-.122-.141-.286-.123-.516-.08-.042-.098-.267-.037-.38-.113-.023-.117-.248.014-.332-.038-.01-.066-.042-.085-.09s-.028-.107-.028-.168.01-.122.024-.173c.014-.052.037-.09.065-.104-.103-.051-.121-.107-.121-.173.018-.192.037-.337.121-.394-.117-.056-.121-.468.024-.52-.136-.169-.042-.314.014-.427.066-.089.108-.173.216-.23-.015-.079.051-.224.15-.318.098-.094.178-.197.178-.234s.042-.22.356-.314c0-.108.089-.244.216-.277-.038-.113.13-.202.21-.248.122-.024.23-.061.361-.066.69-.01 1.004-.399 1.07-.699.055-.215.046-.332-.109-.576.038.136.057.21.052.328-.014.272-.197.46-.478.46-.108 0-.22.032-.249.08s-.14.06-.28.037a.572.572 0 00-.282-.057c-.066.043-.14.108-.249.17-.164.088-.365.2-.459.252-.197.108-.417.056-.487-.112-.029-.075.042-.183.239-.352.164-.136.29-.276.29-.319a.82.82 0 01.099-.276c.084-.164.084-.206 0-.277-.057-.042-.066-.089-.09-.145a.31.31 0 010-.131c.038 0 .108.028.146.037-.019-.08-.028-.187.019-.272.051.047.084.094.108.094.042 0 .028-.103.042-.14.014-.038.028-.066.07-.146.014.075.028.122.047.131 0-.032.019-.173.037-.206.024-.037.061-.051.07-.06.02.037.01.102.048.21.093.272.178.286.346.052.136-.169.136-.183.015-.319-.07-.07-.22-.178-.333-.22-.113-.052-.132-.052-.24-.085.024-.065.1-.122.179-.136s.178.01.258.02c.164.023.36.144.454.21.042.028.019-.192.08-.169.06.024.089.216.127.244.037.028.08-.122.154-.08.052.028-.047.178.019.188.037.042.192-.202.262-.07.015.056-.08.168-.06.206.037.056-.029 0 .028-.024.023-.028.06-.032.103-.056.084-.042.239-.15.337-.15l.319-.042-.216.145-.154.136c-.061.052-.117.108-.094.113.023.004.131-.01.183-.01-.01.099-.028.127-.028.169 0 .033.15-.023.206-.023-.01.089.01.084-.019.164-.037.093-.042.14.07.089.07-.028.183-.099.277-.122l.094.005.089.032-.14.155c-.216.277-.198.319.15.277.215-.033.36-.038.426.042.037.042.103.084.136.15-.075.004-.23.004-.333.023a.749.749 0 00-.272.103c-.052.038-.028.024.052.024.042 0 .06 0 .112.01.052.013.07.046.113.07-.104.112-.179.098-.286.117.089.018.107.014.173.023.07.024.122.038.178.056.061.02.117.043.174.09.018.093.028.15.014.159-.014.01-.061-.014-.113-.028-.075 0-.426-.01-.356.032m-.117.029c-.014-.033.023-.099.117-.132.187-.018.145-.018.23-.018.07.009.136.023.15.018.014-.004-.024-.056-.09-.075a.719.719 0 01-.178-.056c-.234-.033-.286-.023-.356-.136.094-.051.07.033.333-.07a.582.582 0 01-.24-.038c-.018-.056-.037-.075-.004-.098a.794.794 0 01.169-.108c.06-.028.29-.075.389-.056-.098-.15-.427-.056-.427-.056-.403.042-.459-.014-.253-.305.066-.09.099-.108.094-.15-.005-.033-.15.028-.262.108-.141.098-.164.098-.207-.024-.032-.08.061-.154.01-.21-.014-.015-.136.032-.169.009-.033-.024.019-.155-.01-.174-.051-.033-.08-.004-.182.014-.117-.018-.075-.032.065-.182.09-.08.155-.146.235-.197-.09-.01-.431.206-.506.243-.094.038-.09-.009-.132-.042-.033-.023.094-.173.08-.197-.019-.028-.169.155-.211.132-.066-.038 0-.197-.037-.202-.033 0-.047.14-.127.098-.052-.028-.028-.21-.09-.239-.065-.023-.004.155-.055.146-.099-.099-.314-.192-.408-.22a.657.657 0 00-.305-.043c-.08.014-.103.038-.122.042.066.02.08.029.183.066.244.094.455.342.455.408-.005.06-.066.15-.164.272-.099.112-.136.145-.207.14-.084-.028-.103-.051-.178-.154a.98.98 0 01-.051-.23c-.01.023-.033.272-.005.351a.736.736 0 01-.122-.154c-.01.047-.023.075-.033.178 0 .051-.042.075-.08.051a.45.45 0 01-.088-.112c-.005.033.018.15.018.183 0 .06-.032.094-.07.07-.033-.014-.051-.023-.08-.028-.009.042.052.155.113.206.066.056.084.117.042.169a1.727 1.727 0 00-.14.337.73.73 0 01-.333.408c-.272.169-.29.225-.136.352.089.08.145.056.337-.113.132-.122.174-.136.094-.051-.08.094-.117.164-.094.164.042 0 .45-.253.755-.474.094-.07.234-.145.305-.182.098-.038.126-.099.098-.235-.019-.112-.005-.154.038-.112.117.122.028.323-.193.431l-.196.131.046.01.136.037c.085.024.17.038.268-.019a.62.62 0 01.295-.084c.389 0 .525-.473.248-.867l-.15-.225.253.239c.305.286.347.605.122.97-.183.305-.398.436-.815.488-.558.06-.685.13-.713.225 0 .056.216.164.333.23.117.056.352.102.328.145-.019.032-.337-.061-.464-.136-.248-.174-.412-.15-.412.028 0 .051.07.14.192.206.112.061.333.16.333.174 0 .023-.24-.061-.394-.132l-.211-.112-.188.08c-.126.14-.126.182.01.28.07.057.389.137.46.207a2.616 2.616 0 01-.456-.117c-.154-.07-.201-.066-.323.042-.098.127-.173.234-.075.305s.403.13.492.206c-.192.005-.45-.155-.567-.15-.09.033-.075.06-.155.183-.154.215-.065.304.028.398.075.056.249.07.305.131-.019.061-.305-.08-.417-.009-.113.07-.07.328.056.38a.95.95 0 01.206.042c-.06.01-.173.019-.243.047-.07.033-.103.192-.118.286-.009.145.024.16.104.178.065.014.136.033.06.056-.093.028-.145.15-.14.267.005.117.06.225.173.23-.126.052-.239.314-.028.314-.108.056-.084.347-.028.347.042 0 .178.005.042.06-.084.127.183.807.422 1.07.39.43.802.59 1.472.6.46 0 .628-.033.91-.17.632-.309.923-1.026.712-1.752-.136-.436-.324-.582-.797-.633-.267-.024-.375 0-.53.126-.206.16-.248.338-.107.479.135.13.206.098.112-.066-.075-.127-.07-.16.08-.281a.506.506 0 01.286-.136c.103-.014.37-.005.36.07.02-.037.104-.014.179.047.028.023.154.108.084.16.07-.015.131.018.16.112.032.117.065.201.014.225.056.01.065.06.08.15.009.065.041.136-.029.16.066.013.047.102.042.159s.005.136-.06.136c.06.028.013.112-.015.173-.028.07-.056.14-.108.131.02.08-.028.127-.065.183-.061.084-.075.117-.15.127.028.051-.028.075-.085.126-.07.066-.13.07-.154.047.004.047-.024.066-.033.075-.038.038-.084.061-.206.103-.122.038-.29.075-.46.099s-.314.037-.44.032a.661.661 0 01-.31-.06c-.056-.029-.065-.029-.08-.052-.032-.005-.023 0-.05-.01-.165 0-.765-.66-.906-.993-.06-.145-.103-.464-.112-.816 0-.525.042-.722.281-1.265.127-.286.816-1.013.97-1.013.061 0 .113-.028.113-.07 0-.033.08-.085.178-.113a.557.557 0 00.253-.14c.042-.057.174-.113.417-.15.09-.014-.093.056.118-.136.215-.127.28-.225.37-.342.084-.108.262-.202.375-.24a.505.505 0 00.253-.239c.052-.103.094-.13.155-.159a.39.39 0 01.215-.033.63.63 0 01.17.085c.018-.052.008-.108-.043-.136-.075-.038-.197-.028-.295-.033-.108.014-.085-.028-.09-.052-.009-.07.32-.084.315-.131l-.333.038s-.09-.029-.075-.094c.084-.075.347-.122.347-.122.093-.028-.244-.01-.272-.07z"/><path d="M16.793 10.246c0-.042.024-.075.052-.075s.052.033.052.075-.024.075-.052.075-.052-.032-.052-.075"/><path d="M16.638 10.32a.219.219 0 01.206-.294.22.22 0 01.207.138.216.216 0 01-.127.28.234.234 0 01-.08.014.218.218 0 01-.206-.138zm.146-.233a.169.169 0 00-.099.215.168.168 0 00.158.106.18.18 0 00.063-.012.166.166 0 00.099-.215.172.172 0 00-.221-.094z"/><path d="M16.68 10.108c.013-.008.327-.188.554-.066l-.023.044c-.207-.106-.503.063-.506.065l-.026-.043z"/><g fill="#DFDFDF"><path d="M19.034 12.145c-.066.051-.197.103-.239.169-.094.117-.136.173-.169.276a.845.845 0 01-.14-.084c-.066-.061-.085-.075-.118-.14.08-.109.104-.155.244-.282a.625.625 0 01.29-.136c.062.038.08.056.071.094.024.042.052.047.061.103zM18.608 12.642c-.029.108-.09.112-.141.173a.411.411 0 01-.23.146c-.051-.061-.051-.099-.108-.146-.046-.07-.065-.098-.098-.164.08-.108.042-.094.145-.16.099-.046.08-.055.14-.079.048.024.062.084.127.127.043.037.094.06.165.103zM18.078 12.839c.037.037.037.06.075.14-.038.103-.117.155-.202.207-.08.056-.15.089-.244.13a.793.793 0 01-.07-.2c-.023-.118-.028-.198-.06-.263.06-.066.074-.103.191-.127a1.02 1.02 0 01.211-.047c.043.047.052.094.099.16zM17.572 13.153c.018.056.037.098.07.187-.052.056-.061.033-.145.085-.085.051-.094.075-.188.117-.037-.07 0-.188-.019-.267-.023-.118-.042-.108-.117-.179.047-.093.103-.103.192-.14.085-.028.075-.052.146-.061.042.07.042.169.06.258zM17.225 13.284c.01.07-.02.197.01.29-.076.057-.104.076-.174.137-.066.037-.099.06-.17.107-.037-.093-.013-.117-.083-.206s-.122-.108-.179-.136c.061-.065.216-.197.291-.248.08-.07.117-.052.202-.085.046.038.06.057.103.141zM16.826 13.846c-.093.085-.098.085-.168.146-.066.065-.057.06-.108.117-.047-.052-.066-.052-.136-.113-.066-.06-.085-.06-.16-.098.052-.066.066-.084.164-.192.08-.07.113-.145.197-.178.047.037.103.051.146.136a.9.9 0 01.065.182zM16.372 14.053c.046.028.056.037.121.093-.051.047-.065.08-.098.118-.066.06-.028.042-.08.098-.06-.042-.084-.07-.136-.094s-.042-.014-.117-.051c.033-.066.038-.08.075-.127.024-.051.061-.084.099-.131.042.028.089.056.136.094zM16.292 14.423c-.038.056-.052.07-.075.113-.024.046-.019.028-.061.103a1.02 1.02 0 00-.225-.108c.028-.07.037-.094.052-.136.023-.052.032-.061.065-.122.047.023.07.038.131.066.038.023.057.042.113.084zM16.137 14.686c-.042.056-.075.168-.094.215-.023.07-.037.127-.051.225-.047-.023-.047-.023-.094-.033-.042-.009-.023-.004-.075-.014.005-.093.014-.178.028-.253.019-.065.042-.178.075-.239.052.024.047.014.108.042.038.024.061.028.103.057zM15.908 15.154c.028.005.046.014.08.028a2.1 2.1 0 00-.005.296c.009.16.009.201.042.333-.047-.005-.042-.005-.09 0-.042.004-.05.009-.074.018-.024-.14-.024-.253-.033-.389a2.072 2.072 0 01.005-.295c.037 0 .056.005.075.01zM15.968 15.871c.033.01.038.01.07-.009.043.178.057.225.123.39.08.163.103.22.239.398-.019.014-.028.018-.042.032-.015.014-.024.029-.038.038a3.316 3.316 0 01-.3-.39c-.08-.14-.112-.229-.155-.459.038 0 .085-.004.103 0zM16.395 16.72c.01-.01.019-.014.033-.024.065.085.089.122.192.211.061.066.16.122.24.146-.01.023-.015.028-.024.042l-.028.037c-.16-.065-.183-.117-.263-.173a3.299 3.299 0 01-.197-.206c.033-.024.024-.019.047-.033zM16.901 17.118c.005-.018.005-.014.019-.037.033.01.145.042.29.056.08.005.141.019.348.005v.042c0 .028 0 .028.004.056-.103.01-.192.019-.412.01-.178-.033-.192-.038-.267-.08.009-.024.004-.033.018-.052zM17.618 17.184c-.004-.019-.004-.023-.004-.052.131-.014.21-.023.365-.056.066-.023.188-.042.3-.112.02.014.014.009.024.028.01.014.01.01.005.042-.094.047-.146.084-.3.127-.207.042-.211.042-.38.07-.005-.033-.005-.024-.01-.047zM18.373 16.912c.052-.037.136-.084.155-.117.023-.038.042.019.051.037.01.014-.032.057-.056.075-.051.043-.06.057-.112.066-.033.005-.033-.005-.061-.023-.01-.01-.014-.01.023-.038zM18.608 16.771c-.015 0-.038-.014 0-.046a.789.789 0 00.145-.197c.019-.038.042-.01.037.037a.577.577 0 01-.065.113c-.038.042-.052.07-.07.089-.024.019-.02.014-.047.004zM18.814 16.406c.033-.085.042-.085.06-.16.01-.042.052-.018.066.015.01.028-.018.075-.033.103a.441.441 0 01-.065.112c-.024.019-.024.014-.052.005-.014-.005.005-.047.024-.075zM18.889 16.167c-.01-.019 0-.028.014-.108.005-.056 0-.07.005-.103.004-.042.065-.028.075.005.009.042 0 .07 0 .098-.005.056.004.098-.024.112-.037.015-.056.02-.07-.004zM18.912 15.871c-.01-.032-.01-.06-.014-.112-.005-.047-.01-.075-.01-.094 0-.042.038-.037.048-.014.014.038.023.07.023.099 0 .046.024.089.005.112s-.047.028-.052.01zM18.865 15.571c-.014-.028-.018-.056-.028-.103-.019-.051-.065-.112-.07-.145-.01-.042.033-.033.056-.014a.256.256 0 01.056.112c.01.047.038.09.029.127-.005.023-.038.042-.043.023zM18.678 15.23c-.014 0-.061-.052-.103-.076-.038-.028-.061-.037-.066-.051-.014-.042.033-.028.056-.014.02.009.057.037.08.056.042.033.066.042.07.066s-.018.018-.037.018z"/></g><path d="M8.925 17.212c-.417.141-1.012.432-1.252.591-.08.056-.07.122.052.361.084.155.169.29.183.29.023 0 .253-.107.515-.238.263-.127.596-.296.746-.324.117-.023.225-.047.29-.07.029.066.01.028.061.131.07.145.028.14.146.183.126.042.44-.127.44-.127.366-.126.572-.14 1.89-.14s1.518.014 1.888.15c0 0 .296.098.333.112s.056.024.099.014c.037-.01.075-.065.089-.098 0 0 .08-.192.103-.263.07.033.197.08.323.118.15.051.478.196.74.323.263.136.493.24.517.24.014 0 .098-.137.182-.292.17-.332.183-.304-.43-.618-.817-.422-1.632-.614-1.712-.408-.014.037-.028.06-.047.112-.08-.018-.295-.07-.51-.103-.662-.122-2.48-.122-3.141 0-.216.038-.361.094-.483.127-.07-.136-.056-.085-.07-.122-.066-.155-.441-.131-.952.051z"/><g fill="#DFDFDF"><path d="M9.59 17.11c-.3.009-.867.2-1.443.496-.492.249-.506.263-.375.52.056.122.122.226.126.24.029.004.244-.09.497-.22.268-.137.605-.282.755-.324.108-.038.188-.042.286-.061-.019-.103.005-.014-.066-.211.08-.202.235-.375.385-.412a.355.355 0 00-.164-.029z"/><path d="M11.906 17.119c-.586.004-1.158.033-1.42.075-.445.075-.69.215-.853.3-.061.047-.113.056-.178.093.051.118.051.193.093.296.047.108.024.178.15.183.127.004.408-.136.408-.136.361-.127.572-.14 1.88-.14 1.317 0 1.58.041 1.884.15.22.074.31.135.399.12.047-.008.07-.074.103-.154.042-.108.094-.253.122-.436-.07-.01-.038.024-.131-.018-.202-.09-.244-.099-.375-.155-.16-.066-.31-.066-.544-.113-.277-.042-.886-.06-1.481-.07-.02.005-.038 0-.057.005z"/><path d="M14.353 17.119a.343.343 0 00-.103.014c.06.037.131.103.173.122.15.08.146.15.132.28-.005.062-.014.085-.038.17.056.023.192.08.305.122.14.042.478.187.745.323.249.127.464.225.497.22.01-.014.07-.122.127-.239.093-.178.098-.239.028-.295-.155-.127-.783-.417-1.233-.572-.281-.098-.492-.145-.633-.145z"/><path d="M14.175 17.175a.065.065 0 00-.014.019c-.023.028-.023.051-.033.084.047.019.206.113.286.113.019 0 .033 0 .038-.005v-.005-.004a.467.467 0 00-.113-.075c-.042-.038-.122-.09-.164-.127zM9.802 17.175c-.047.037-.127.084-.174.117-.089.061-.103.108-.145.197v.005c.014-.005.08-.066.244-.122.14-.052.065-.028.154-.061-.056-.09-.065-.094-.07-.117a.036.036 0 00-.01-.019z"/></g><path d="M10.41 17.386l.015.14.094-.009a.174.174 0 00.07-.023c.014-.014.019-.033.014-.057s-.01-.042-.028-.051c-.014-.01-.042-.01-.075-.005l-.09.005m-.055-.042l.16-.019c.027-.005.046-.005.055-.005.014 0 .024.005.033.01.019.01.033.018.042.033s.02.037.02.056c.004.023 0 .042-.01.06s-.019.033-.038.043c.019.005.028.01.038.019s.014.028.018.051l.015.066c.004.014.004.023.009.033l.014.014v.01l-.066.008a.203.203 0 01-.018-.051l-.01-.052c-.004-.028-.014-.047-.023-.051-.01-.01-.038-.01-.075-.005l-.09.01.02.178-.057.004-.037-.412m.487.192l.127-.01-.075-.178-.052.188m-.108.183l.122-.427.061-.005.183.404-.06.004-.052-.122-.165.014-.032.127-.057.005m.568-.038l-.014-.412h.056l.004.168.216-.004-.005-.169h.057l.014.413h-.057l-.004-.193-.216.005.005.192h-.056m.492-.183h.131l-.066-.182-.065.182m-.122.174l.15-.417h.06l.156.412h-.061l-.043-.122h-.164l-.042.122-.056.005m.708-.15h.056a.207.207 0 01-.052.122.188.188 0 01-.126.042.177.177 0 01-.136-.061.253.253 0 01-.047-.164c0-.066.019-.117.056-.155a.19.19 0 01.14-.056c.048 0 .085.014.113.038s.047.056.052.098h-.056a.116.116 0 00-.038-.066.13.13 0 00-.075-.023c-.042 0-.075.014-.098.042s-.038.07-.038.122.01.094.033.122a.11.11 0 00.094.047.13.13 0 00.084-.028c.024-.02.033-.047.038-.08m.117.155l.019-.413.056.005-.01.169.216.009.01-.169.056.005-.019.412-.056-.004.01-.193-.216-.014-.01.193h-.056m.417.023l.028-.412.056.004-.028.413-.056-.005m.24-.352l-.015.141.094.01c.033.004.06 0 .075-.01.014-.01.023-.028.028-.052a.057.057 0 00-.014-.051.175.175 0 00-.075-.023l-.094-.015m-.051-.051l.159.014c.028.005.047.005.056.01.014.004.024.009.033.013.019.01.028.024.037.043.01.018.01.037.01.06s-.01.043-.019.057-.028.023-.047.033c.014.004.028.014.033.028.005.01.01.028.01.056v.07c0 .014 0 .024.004.033 0 .01.005.014.01.014v.01l-.066-.005c-.005-.01-.005-.028-.005-.056v-.057c0-.028-.005-.047-.014-.056-.01-.01-.033-.014-.075-.019l-.089-.01-.019.18-.056-.006.038-.412m.342.45l.056-.413.056.01-.056.412-.056-.01"/><path fill="#171796" d="M9.59 9.155a.511.511 0 00-.304.445c-.014.216.033.366.155.478a.489.489 0 01.103.122c0 .01-.042.06-.094.113a.59.59 0 00-.192.421c0 .164.051.272.183.422l.107.122-.121.131c-.24.268-.235.572.018.825l.108.113h4.917l.122-.127c.235-.248.235-.515.005-.801l-.117-.146.107-.13c.24-.287.235-.554-.014-.83-.112-.122-.117-.146-.028-.202.146-.098.235-.422.17-.623-.1-.296-.512-.497-.765-.366-.047.023-.14.089-.21.145a.687.687 0 01-.15.103.745.745 0 01-.142-.103c-.253-.215-.553-.201-.806.042l-.098.094-.127-.117c-.258-.244-.581-.234-.844.023l-.098.094-.103-.094c-.155-.14-.258-.182-.431-.187a.593.593 0 00-.455.201l-.061.066-.136-.117c-.253-.211-.455-.249-.698-.117z"/><path d="M14.481 12.372H9.542l-.115-.12c-.26-.26-.267-.582-.019-.86l.107-.114-.093-.105c-.14-.16-.19-.275-.19-.439 0-.16.072-.316.201-.44a.838.838 0 00.085-.096 1.131 1.131 0 00-.095-.102c-.125-.116-.176-.274-.162-.497a.533.533 0 01.319-.467c.253-.134.459-.102.725.12l.118.102.044-.048a.618.618 0 01.457-.21l.017.001c.183.005.291.052.448.194l.086.078.081-.078a.653.653 0 01.456-.207c.15 0 .296.064.423.184l.109.101.081-.078a.649.649 0 01.445-.2c.137 0 .274.054.395.157.055.048.108.086.126.096.012-.006.055-.035.133-.096.065-.053.163-.122.215-.148a.406.406 0 01.19-.044c.258 0 .53.19.608.423.07.212-.022.547-.178.652-.025.016-.05.033-.051.047-.002.022.04.07.084.117.257.286.262.568.015.863l-.095.115.104.13c.238.297.237.577-.006.835l-.129.134zm-4.917-.05h4.896l.114-.119c.225-.24.227-.49.003-.768l-.13-.162.013-.016.108-.131c.232-.277.227-.53-.013-.797-.073-.078-.102-.117-.096-.158.005-.036.038-.06.072-.081.138-.093.221-.404.16-.595-.072-.21-.328-.389-.561-.389a.364.364 0 00-.168.038 1.545 1.545 0 00-.207.143c-.136.108-.157.108-.166.108-.03 0-.151-.104-.157-.109a.55.55 0 00-.362-.145.596.596 0 00-.41.187l-.116.11-.144-.133a.568.568 0 00-.388-.17.604.604 0 00-.421.193l-.115.11-.12-.11c-.148-.134-.246-.177-.416-.181h-.016a.568.568 0 00-.42.193l-.077.084-.154-.133c-.153-.128-.285-.187-.413-.187a.54.54 0 00-.257.073.488.488 0 00-.292.425c-.014.21.031.352.147.458.11.11.11.128.11.14 0 .023-.054.084-.1.13a.565.565 0 00-.185.404c0 .152.044.255.176.406l.123.139-.137.147c-.232.26-.225.548.018.79l.101.105z"/><g><path fill="#D42E12" d="M9.464 12.497c-.258.286-.253.576.005.862l.098.108-.108.122a.888.888 0 00-.145.206.588.588 0 00.145.624c.099.098.103.136.01.248-.042.052-.09.122-.108.155-.197.37.098.834.53.834a.546.546 0 00.422-.178c.093-.098.145-.103.225-.014.121.136.285.22.421.22.16 0 .258-.051.422-.201l.122-.122.113.122c.243.262.487.267.815.019l.132-.099.117.103c.145.127.248.174.393.174.141 0 .244-.057.408-.216l.136-.131.103.094c.202.178.31.239.455.239.15 0 .258-.052.408-.188.14-.126.215-.276.197-.398a1.11 1.11 0 00-.225-.46l-.075-.075.117-.13c.258-.3.258-.535.005-.83l-.104-.127.108-.131c.244-.291.244-.558-.004-.82l-.132-.141-2.442.004-2.442.005-.122.122z"/><path d="M10.96 15.71c-.146 0-.314-.088-.441-.23-.034-.038-.06-.054-.083-.054-.027 0-.06.021-.105.07a.578.578 0 01-.44.186.616.616 0 01-.53-.304.572.572 0 01-.022-.567c.018-.033.066-.105.11-.16.085-.101.084-.123-.007-.214a.615.615 0 01-.151-.652.89.89 0 01.15-.213l.093-.105-.084-.091c-.27-.299-.27-.6-.005-.896l.13-.13h.01l4.896-.01.008.009.131.14c.257.272.259.551.006.853l-.096.116.091.11c.26.305.259.555-.006.863l-.101.113.058.059c.092.092.213.34.232.473.021.13-.056.287-.204.421-.159.144-.27.194-.425.194-.148 0-.258-.057-.47-.246l-.087-.078-.119.114c-.172.167-.28.224-.426.224-.15 0-.258-.048-.41-.18l-.101-.09-.116.086c-.166.126-.311.188-.444.188-.142 0-.274-.068-.405-.21l-.095-.102-.103.103c-.175.161-.278.21-.44.21zm-.524-.334c.039 0 .076.021.12.071.116.13.274.212.403.212.149 0 .24-.044.405-.195l.14-.139.13.14c.236.255.459.26.783.017l.146-.11.133.115c.142.123.24.167.377.167.131 0 .23-.052.39-.208l.153-.147.121.11c.202.178.305.232.438.232.14 0 .243-.047.391-.181.134-.121.206-.265.189-.376a1.122 1.122 0 00-.218-.446l-.092-.092.133-.149c.247-.288.25-.511.005-.796l-.117-.143.12-.147c.238-.284.237-.534-.003-.788l-.123-.132-4.864.01-.115.114c-.245.272-.243.55.006.828l.114.124-.123.138a.885.885 0 00-.141.2.564.564 0 00.14.595c.109.11.11.163.01.283a1.464 1.464 0 00-.105.152.522.522 0 00.022.518.565.565 0 00.487.278.52.52 0 00.403-.17c.058-.06.1-.085.142-.085z"/></g><path d="M8.925 12.16s0 2.442.005 3.374c-.01.136.07.174.192.263.192.15.394.305 1.49.22 1.008.01 1.22.085 1.322.488l.057.225.051-.225c.08-.39.314-.478 1.29-.488 1.25.019 1.354-.06 1.532-.21 0 0 .131-.104.164-.198.038-.107.019-.197.019-.197v-6.67H8.925v3.417zm6.052.027l.014 2.818c0 .38.028.497-.014.567s-.122.169-.122.169c-.193.192-.352.23-1.22.215a7.76 7.76 0 00-1.302.085c-.07.06-.258.056-.347.417-.113-.361-.197-.347-.197-.347-.469-.197-.68-.16-1.43-.164-.487.07-1.007-.024-1.204-.22 0 0-.028.009-.164-.15V8.798h5.98l.006 3.39z"/><path fill="#FFF" d="M11.137 10.275c-.187.384-.192.558-.037.863.122.234.263.384.455.482.501.253 1.148.066 1.401-.407.155-.291.14-.774-.033-.985l-.046-.056-.043.169c-.06.239-.126.36-.248.487-.234.24-.558.29-.89.145-.259-.117-.362-.276-.46-.721l-.024-.113-.075.136z"/><path d="M11.077 10.298c-.155.352-.141.53.051.9.492.97 1.96.605 1.95-.492-.01-.178 0-.29-.098-.487-.047-.08-.066-.103-.099-.155-.014.052-.033.145-.07.3-.14.544-.605.797-1.092.59-.277-.112-.403-.295-.474-.674l-.051-.249-.117.267zm.478.699c.337.22.853.15 1.11-.14.108-.123.17-.305.198-.404.028-.094.032-.108.046-.201.043.089.066.14.085.276.028.206-.019.38-.066.506-.248.647-1.036.844-1.528.38-.24-.22-.431-.647-.323-.923.037-.099.046-.155.093-.258.01.07.014.169.061.314a.79.79 0 00.324.45z"/><g><path fill="#E9D315" d="M10.798 13.536c-.005.15.005.22.028.333a1.218 1.218 0 00-.258-.188c-.136-.08-.304-.154-.365-.056-.057.094.103.22.23.29.135.08.215.09.304.122-.075.043-.178.066-.29.141-.113.07-.282.22-.216.314.065.099.253-.014.356-.084.09-.061.202-.15.248-.197-.009.07-.037.201-.032.333.004.16.023.333.14.333.122 0 .146-.207.146-.347 0-.146-.02-.249-.033-.324.051.052.131.127.234.211.085.066.295.169.356.07.066-.098-.037-.192-.215-.309-.127-.08-.216-.108-.3-.145.084-.033.178-.042.31-.127.2-.122.285-.201.224-.304-.06-.104-.178-.047-.36.07-.1.06-.188.145-.254.201.014-.093.028-.23.028-.332 0-.15-.033-.347-.136-.347-.112.01-.14.178-.145.342z"/><path d="M10.943 14.902c-.155 0-.162-.242-.165-.357-.004-.099.01-.194.022-.269a2.584 2.584 0 01-.199.153c-.125.086-.22.127-.29.127a.114.114 0 01-.101-.05.108.108 0 01-.016-.087c.02-.102.16-.213.24-.263.068-.045.134-.072.191-.095l.045-.019-.013-.004a1.032 1.032 0 01-.238-.1c-.05-.029-.22-.13-.249-.24a.107.107 0 01.011-.086c.017-.027.05-.06.115-.06.07 0 .162.036.285.108.083.049.148.09.207.14a1.248 1.248 0 01-.015-.265c.002-.087.01-.353.168-.367.121 0 .163.193.163.373 0 .083-.009.185-.019.27a1.59 1.59 0 01.206-.16c.123-.08.214-.129.285-.129.047 0 .085.023.11.067.08.135-.059.233-.233.339a.849.849 0 01-.237.103l-.014.005c.067.027.144.059.242.12.135.09.228.165.244.245a.128.128 0 01-.02.1c-.015.023-.046.052-.108.052a.563.563 0 01-.285-.116 3.641 3.641 0 01-.181-.159c.01.064.02.148.02.251 0 .14-.023.373-.17.373zm-.073-.76l-.01.072-.008.055c-.012.073-.028.173-.024.274.004.144.02.309.115.309.112 0 .12-.247.12-.323 0-.135-.016-.231-.032-.318l-.015-.08.057.057c.05.05.129.124.233.21a.512.512 0 00.254.105c.032 0 .053-.01.065-.028a.081.081 0 00.015-.064c-.014-.067-.12-.145-.223-.213a1.53 1.53 0 00-.236-.117l-.06-.025-.055-.024.056-.022c.025-.01.051-.018.08-.027a.786.786 0 00.224-.098c.213-.13.264-.192.218-.27-.05-.088-.155-.033-.326.078-.077.047-.149.11-.206.16-.016.014-.03.028-.045.039l-.05.043.01-.066c.013-.09.027-.225.027-.328 0-.155-.034-.322-.11-.322-.074.006-.115.113-.121.318-.004.143.004.21.028.327l.017.082-.06-.06a1.174 1.174 0 00-.252-.183c-.18-.105-.293-.13-.332-.065a.06.06 0 00-.005.048c.019.072.134.157.225.209a.963.963 0 00.228.095.983.983 0 01.073.024l.05.018-.045.027a.743.743 0 01-.105.047c-.056.024-.12.05-.185.092-.097.062-.203.16-.217.23a.06.06 0 00.008.05c.013.02.032.028.06.028.04 0 .118-.02.262-.118.09-.062.2-.15.245-.195l.052-.051z"/></g><g><path fill="#FFF" d="M11.093 14.042c0 .09-.07.16-.16.16-.088 0-.158-.07-.158-.16 0-.089.07-.16.159-.16s.16.071.16.16"/><path d="M10.934 14.227c-.103 0-.184-.081-.184-.185s.08-.185.184-.185.184.081.184.185-.08.185-.184.185zm0-.319c-.076 0-.135.059-.135.134s.06.134.135.134c.075 0 .134-.059.134-.134s-.059-.134-.134-.134z"/></g><g><path fill="#E9D315" d="M12.898 13.536c-.005.15.005.22.028.333a1.218 1.218 0 00-.258-.188c-.136-.08-.304-.154-.365-.056-.057.094.103.22.23.29.135.08.215.09.304.122-.075.043-.178.066-.29.141-.113.07-.282.22-.216.314.065.099.253-.014.356-.084.09-.061.202-.15.249-.197-.01.07-.038.201-.033.333.004.16.023.333.14.333.122 0 .146-.207.146-.347 0-.146-.02-.249-.033-.324.051.052.131.127.234.211.085.066.296.169.356.07.066-.098-.037-.192-.215-.309-.127-.08-.216-.108-.3-.145.084-.033.178-.042.31-.127.2-.122.285-.201.224-.304-.06-.104-.178-.047-.36.07-.1.06-.188.145-.254.201.014-.093.028-.23.028-.332 0-.15-.033-.347-.136-.347-.112.01-.14.178-.145.342z"/><path d="M13.043 14.902c-.154 0-.162-.24-.166-.357-.003-.099.01-.194.023-.269a2.776 2.776 0 01-.198.153c-.206.14-.336.163-.391.077a.106.106 0 01-.017-.087c.021-.103.161-.214.24-.263a.975.975 0 01.193-.095.832.832 0 01.044-.019l-.013-.004a1.017 1.017 0 01-.238-.1c-.051-.029-.221-.13-.25-.24a.105.105 0 01.011-.086c.017-.027.05-.06.115-.06.07 0 .163.036.285.108.083.049.148.09.206.14a1.32 1.32 0 01-.014-.265c.006-.237.06-.357.168-.367.121 0 .164.193.164.373 0 .081-.01.184-.02.27.058-.051.13-.113.207-.16.126-.082.212-.129.284-.129.048 0 .085.023.111.067.08.135-.06.233-.234.339a.843.843 0 01-.238.103l-.013.005c.067.027.144.059.243.12.135.09.227.165.244.245a.128.128 0 01-.022.1c-.014.023-.045.052-.107.052a.563.563 0 01-.285-.116 3.316 3.316 0 01-.18-.159c.01.066.019.149.019.251 0 .24-.06.373-.171.373zm-.072-.761l-.011.074-.007.049c-.013.074-.03.176-.025.279.004.153.021.309.115.309.111 0 .12-.247.12-.323 0-.143-.017-.245-.031-.318l-.015-.08.057.057c.037.039.116.116.232.21a.506.506 0 00.254.105c.031 0 .053-.01.065-.028a.083.083 0 00.015-.064c-.013-.067-.12-.144-.222-.213-.096-.06-.171-.09-.238-.117l-.06-.025-.055-.024.057-.022c.025-.01.051-.018.079-.027a.794.794 0 00.225-.098c.211-.127.264-.193.218-.27-.017-.03-.038-.043-.068-.043-.059 0-.146.048-.258.121-.077.047-.148.11-.206.16-.016.014-.03.028-.044.039l-.05.043.009-.066c.014-.093.027-.227.027-.328 0-.16-.038-.322-.111-.322-.073.006-.114.113-.12.318a1.19 1.19 0 00.027.327l.018.083-.06-.06a1.159 1.159 0 00-.253-.184c-.18-.106-.292-.128-.33-.065a.058.058 0 00-.007.048c.02.07.134.157.226.209a.963.963 0 00.227.095c.026.007.05.015.075.024l.05.018-.046.027c-.032.017-.068.032-.105.047a1.01 1.01 0 00-.184.092c-.097.06-.204.16-.218.23a.06.06 0 00.009.05c.04.06.152.023.322-.09.09-.063.2-.15.244-.195l.053-.052z"/></g><g><path fill="#FFF" d="M13.193 14.042c0 .09-.07.16-.16.16s-.158-.07-.158-.16c0-.089.07-.16.159-.16s.16.071.16.16"/><path d="M13.034 14.227c-.103 0-.184-.081-.184-.185s.08-.185.184-.185.185.081.185.185-.081.185-.185.185zm0-.319c-.075 0-.134.059-.134.134s.059.134.134.134.134-.059.134-.134-.059-.134-.134-.134z"/></g></svg>