<svg width="24" height="24" fill="none" xmlns="http://www.w3.org/2000/svg"><path d="M22 18.869A3.131 3.131 0 0118.869 22H5.13A3.131 3.131 0 012 18.869V6.07L6.07 2h12.8A3.131 3.131 0 0122 5.131V18.87z" fill="#E62828"/><path opacity=".2" d="M2 8.252V6.07h2.17L2 8.252z" fill="#5D5D5D"/><path d="M2 6.07h2.714c.746 0 1.356-.6 1.356-1.346V2L2 6.07zm3.353 9.383V8.904h3.24c.309 0 .582.05.82.15a1.6 1.6 0 01.594.42c.157.18.277.393.358.64.082.25.123.524.123.825 0 .302-.04.585-.118.848a1.98 1.98 0 01-.348.683 1.6 1.6 0 01-.59.453c-.238.11-.518.165-.838.165H6.417v2.365H5.353zm1.064-5.569v2.205h1.81c.414 0 .717-.093.909-.278.191-.185.287-.476.287-.872 0-.377-.102-.647-.306-.81-.204-.163-.501-.245-.89-.245h-1.81zm7.906-.811l1.027-.282v5.578a2.422 2.422 0 00.066.584c.025.076.053.156.084.24.032.085.072.172.123.26h-1.084a1.425 1.425 0 01-.113-.255 4.03 4.03 0 01-.056-.301 2.703 2.703 0 01-.646.476 1.632 1.632 0 01-.777.193c-.327 0-.614-.054-.862-.16a1.772 1.772 0 01-.627-.443 1.85 1.85 0 01-.382-.674 2.711 2.711 0 01-.127-.843v-.453c0-.797.21-1.397.632-1.8.42-.401 1.033-.602 1.837-.602.308 0 .61.06.905.179V9.073zm0 2.648a1.41 1.41 0 00-.476-.17 2.938 2.938 0 00-.504-.046 1.72 1.72 0 00-.636.103c-.173.07-.315.167-.424.292-.11.126-.189.277-.236.453-.047.175-.07.367-.07.574v.349c0 .176.012.347.037.514.025.166.074.312.146.438a.863.863 0 00.297.306.912.912 0 00.49.118c.132 0 .262-.022.39-.066.13-.044.254-.102.373-.175a2.556 2.556 0 00.613-.513V11.72zm2.337-1.545c0-.176.023-.347.07-.514a1.31 1.31 0 01.222-.443c.1-.128.232-.232.396-.31.163-.079.358-.118.584-.118.107 0 .228.01.363.033.135.022.252.048.353.08v.81h-.377c-.195 0-.34.054-.438.16-.097.107-.146.255-.146.443v.387h.914l-.273.848h-.64v3.9H16.66v-3.9h-.594v-.848h.594v-.528z" fill="#FF7063"/><path d="M5.353 15.218V8.669h3.24c.309 0 .582.05.82.15a1.6 1.6 0 01.594.42c.157.18.277.393.358.64.082.249.123.524.123.825 0 .302-.04.585-.118.848a1.98 1.98 0 01-.348.683 1.6 1.6 0 01-.59.453c-.238.11-.518.165-.838.165H6.417v2.365H5.353zm1.064-5.57v2.206h1.81c.414 0 .717-.093.909-.278.191-.185.287-.476.287-.872 0-.377-.102-.647-.306-.81-.204-.163-.501-.245-.89-.245h-1.81zm7.906-.809l1.027-.283v5.578a2.422 2.422 0 00.066.585c.025.075.053.155.084.24.032.085.072.171.123.259h-1.084a1.425 1.425 0 01-.113-.254 4.03 4.03 0 01-.056-.302 2.7 2.7 0 01-.646.476 1.63 1.63 0 01-.777.193 2.16 2.16 0 01-.862-.16 1.772 1.772 0 01-.627-.443 1.85 1.85 0 01-.382-.674 2.71 2.71 0 01-.127-.843v-.452c0-.798.21-1.398.632-1.8.42-.402 1.033-.603 1.837-.603.308 0 .61.06.905.179V8.839zm0 2.648a1.412 1.412 0 00-.476-.17 2.938 2.938 0 00-.504-.047 1.72 1.72 0 00-.636.104 1.076 1.076 0 00-.424.292c-.11.125-.189.276-.236.452a2.22 2.22 0 00-.07.575v.348c0 .176.012.348.037.514.025.166.074.313.146.438a.863.863 0 00.297.306.912.912 0 00.49.118c.132 0 .262-.022.39-.066.13-.044.254-.102.373-.174a2.566 2.566 0 00.613-.514v-2.176zm2.337-1.546c0-.176.023-.347.07-.513.048-.167.122-.314.222-.443s.232-.232.396-.311c.163-.079.358-.118.584-.118a2.672 2.672 0 01.716.113v.81h-.377c-.195 0-.34.054-.438.16-.097.108-.146.255-.146.444v.386h.914l-.273.848h-.64v3.901H16.66v-3.901h-.594v-.848h.594v-.528z" fill="#fff"/></svg>