<svg width="20" height="28" viewBox="0 0 20 28" fill="none" xmlns="http://www.w3.org/2000/svg">
<path fill-rule="evenodd" clip-rule="evenodd" d="M12.9167 9.00008H20V26.0834C20 26.7761 19.4427 27.3334 18.75 27.3334H1.25C0.557292 27.3334 0 26.7761 0 26.0834V1.91675C0 1.22404 0.557292 0.666748 1.25 0.666748H11.6667V7.75008C11.6667 8.43758 12.2292 9.00008 12.9167 9.00008ZM9.47396 14.0053C9.21354 13.172 9.21875 11.5626 9.36979 11.5626C9.80729 11.5626 9.76562 13.4845 9.47396 14.0053ZM9.38542 16.4636C8.98438 17.5157 8.48438 18.7188 7.90625 19.7293C8.1396 19.64 8.38045 19.5407 8.6294 19.4381L8.62948 19.4381C9.39734 19.1217 10.2423 18.7735 11.1823 18.5886C10.5208 18.0886 9.88542 17.3699 9.38542 16.4636ZM6.30208 20.8699C5.17187 22.6824 4.48438 23.0053 4.48438 22.9636C4.74199 22.2663 5.62842 21.4742 6.10021 21.0527L6.10023 21.0526L6.10055 21.0524L6.1008 21.0521C6.18197 20.9796 6.25084 20.9181 6.30208 20.8699ZM10.276 15.146C10.7655 16.4376 11.4583 17.3126 12.4999 17.9481C13.5051 17.8178 15.6093 17.6147 16.3333 18.3231C16.9322 18.9168 16.828 20.5835 15.3072 20.5835C14.427 20.5835 13.1041 20.1824 11.9739 19.5678C10.9232 19.7408 9.75631 20.1361 8.63659 20.5153C8.3742 20.6041 8.1144 20.6921 7.85929 20.7762C6.53638 23.0574 5.60929 23.9949 4.677 23.9949C4.39054 23.9949 3.84888 23.8335 3.55721 23.4741C2.56242 22.2501 4.98429 20.6564 6.39575 19.9324C6.39836 19.9324 6.39966 19.9311 6.40096 19.9298C6.40226 19.9285 6.40356 19.9272 6.40617 19.9272C7.03638 18.8231 7.927 16.896 8.53117 15.4585C8.08846 13.7449 7.84888 12.4012 8.10929 11.4481C8.39054 10.422 10.3541 10.271 10.5989 11.8022C10.8729 12.6954 10.5289 14.1078 10.2942 15.071L10.276 15.146ZM19.6354 6.1355L14.5313 1.03133C14.2969 0.796956 13.9792 0.666748 13.6458 0.666748H13.3333V7.33341H20V7.0157C20 6.68758 19.8698 6.36987 19.6354 6.1355ZM15.776 19.4323C15.9896 19.2917 15.6458 18.8125 13.5469 18.9636C15.4792 19.7865 15.776 19.4323 15.776 19.4323Z" fill="#aaaaaa"/>
</svg>
