<svg width="24" height="24" version="1.1" viewBox="0 0 24 24" xmlns="http://www.w3.org/2000/svg">
  <path d="m11.934 2.0005a5.2502 5.2502 0 0 0-4.4588 2.6015l-5.6072 9.5895a5.1256 5.1256 0 0 0 0 5.1834 5.2092 5.2092 0 0 0 4.5584 2.6249h11.164a5.2099 5.2099 0 0 0 4.5428-2.6249 5.1256 5.1256 0 0 0 0-5.1834l-5.5916-9.5895a5.2502 5.2502 0 0 0-4.6073-2.6015zm0.07422 1.6679a3.5334 3.5334 0 0 1 3.0897 1.7656l5.6014 9.6013a3.4583 3.4583 0 0 1 0 3.5077 3.5249 3.5249 0 0 1-3.1073 1.791h-11.168a3.5241 3.5241 0 0 1-3.0976-1.791 3.4545 3.4545 0 0 1 0-3.5077l5.5897-9.6013a3.5357 3.5357 0 0 1 3.0917-1.7656zm0.03516 3.3651a2.134 2.134 0 0 0-1.3672 0.46483 2.0837 2.0837 0 0 0-0.71873 2.162l1.2168 5.0409a0.83362 0.83362 0 0 0 1.6171 0l1.2578-5.0506c0.16719-0.63083 0.0275-1.3032-0.37499-1.8163a2.134 2.134 0 0 0-1.6308-0.80076zm-0.0664 1.6347a0.45899 0.45899 0 0 1 0.39647 0.18163 0.43345 0.43345 0 0 1 0.08398 0.40038l-0.44922 1.8163-0.45116-1.8163a0.43577 0.43577 0 0 1 0.08398-0.40038 0.45899 0.45899 0 0 1 0.33593-0.18163zm0.03125 7.4978a1.25 1.25 0 1 0 0 2.4999 1.25 1.25 0 0 0 0-2.4999z" stroke-width=".77402"/>
</svg>
