<svg width="24" height="24" version="1.1" viewBox="0 0 24 24" xmlns="http://www.w3.org/2000/svg">
  <path d="m12 2c-5.5225 0-10 4.4775-10 10s4.4775 10 10 10 10-4.4775 10-10-4.4775-10-10-10zm0 0.83333c5.0542 0 9.1667 4.1125 9.1667 9.1667 0 5.0542-4.1125 9.1667-9.1667 9.1667-5.0542 0-9.1667-4.1125-9.1667-9.1667 0-5.0542 4.1125-9.1667 9.1667-9.1667zm0.03092 5.3174c-0.22712-0.0075-0.45628 0.070833-0.63314 0.236l-0.0067 5e-3 -0.02933 0.029333-5.2881 5.5322 0.60384 0.57618 5.2799-5.5257 0.0083-0.00833c0.02458-0.023 0.05242-0.022333 0.07492 0.00167v0.00167l5.2832 5.5306 0.60384-0.57618-5.28-5.5257c-0.16538-0.17637-0.38968-0.26922-0.6168-0.2767z" stroke-width=".83333"/>
</svg>
