<svg width="24" height="24" version="1.1" viewBox="0 0 24 24" xmlns="http://www.w3.org/2000/svg">
  <g>
    <g>
      <path d="m6.1823 2.0514-3.4001 0.69881c-0.8205 0.16902-1.5043 0.73918-1.819 1.5143h-0.001516c-0.31458 0.77582-0.22044 1.6617 0.25012 2.3541l3.0408 4.4718c0.26589 0.39013 0.62721 0.68787 1.0338 0.90496-0.38877 0.19016-0.74002 0.44767-0.98833 0.81401l-3.1166 4.5976c-0.4736 0.69752-0.56433 1.5906-0.24102 2.3693 0.32277 0.77893 1.0187 1.3445 1.8463 1.5022l3.6077 0.6882h0.00151c0.12056 0.02261 0.24231 0.03335 0.36532 0.03335 0.32288 0 0.64187-0.07776 0.92922-0.23041l14.231-7.5686c0.81637-0.43408 1.3294-1.2909 1.3294-2.2147 0-0.92419-0.51351-1.7808-1.3294-2.2147l-14.053-7.4777h-0.00151c-0.51579-0.27437-1.1114-0.36023-1.6826-0.24254zm0.31378 1.5204h0.00151c0.21638-0.044725 0.44532-0.011084 0.63969 0.092467l14.055 7.4777c0.33431 0.17776 0.50629 0.46465 0.50629 0.84433 0 0.37858-0.17246 0.66683-0.50629 0.84433l-14.231 7.5686c-0.06035 0.03206-0.13181 0.04851-0.20009 0.04851-0.026 0-0.05189-0.0023-0.08034-0.0076l0.00303 0.0016-3.6062-0.6882c-0.3206-0.061154-0.57887-0.27072-0.70335-0.57154v-0.0016c-0.12528-0.30163-0.092047-0.63232 0.090951-0.90185l3.1181-4.5976c0.1684-0.24844 0.42119-0.39609 0.72003-0.41838l6.5697-0.4881-0.0061-1.5492-6.3195-0.42898c-0.41696-0.028362-0.77506-0.23349-1.0111-0.57906l-3.0408-4.4718c-0.18138-0.26689-0.21709-0.59751-0.095499-0.89738 0.12141-0.29899 0.37697-0.51218 0.69426-0.57754z"/>
    </g>
  </g>
</svg>
