<svg width="24" height="24" version="1.1" viewBox="0 0 24 24" xmlns="http://www.w3.org/2000/svg">
  <path d="m5.8069 2.0001a1.5385 1.5385 0 0 0-1.4994 1.5385v16.923a1.5385 1.5385 0 0 0 1.5385 1.5385h12.308a1.5385 1.5385 0 0 0 1.5385-1.5385v-16.923a1.5385 1.5385 0 0 0-1.5385-1.5385h-12.308a1.5385 1.5385 0 0 0-0.039061 0zm0.039061 1.5385h12.308v16.923h-12.308zm6.3416 4.6154-1.1298 2.2912-2.5285 0.36658 1.8299 1.7833-0.43269 2.5165 2.2611-1.1884 2.2611 1.1884-0.43119-2.5165 1.8284-1.7833-2.527-0.36658z" stroke-width=".76923"/>
</svg>
