<svg width="24" height="24" version="1.1" viewBox="0 0 24 24" xmlns="http://www.w3.org/2000/svg">
  <path d="m15.587 2.0001a2.4607 2.4607 0 0 0-1.7227 0.72291l-1.6889 1.6889a0.77241 0.77241 0 0 0-0.21574 0.21575l-10.679 10.679a0.77158 0.77158 0 0 0-0.2238 0.45403l-0.59249 5.384a0.76911 0.76911 0 0 0 0.7696 0.85493l0.093382-0.0081 5.384-0.59249a0.76993 0.76993 0 0 0 0.45242-0.22214l10.723-10.723a0.76828 0.76828 0 0 0 0.06279-0.05474l0.0048-0.0048a0.76911 0.76911 0 0 0 0.05635-0.0644l1.7308-1.7308 0.0032-0.00322a2.4615 2.4615 0 0 0-0.0032-3.4809l-2.3925-2.3925-0.0032-0.00483a2.4607 2.4607 0 0 0-1.7582-0.71808zm0.0097 1.5344a0.92326 0.92326 0 0 1 0.66012 0.2721l2.399 2.4006 0.0032 0.00322c0.36024 0.36106 0.35784 0.94472-0.0032 1.3041l-1.2494 1.2494-3.7079-3.7079 1.251-1.2494 0.0016-0.00161a0.92326 0.92326 0 0 1 0.6456-0.27049zm-2.9915 2.6163 3.7015 3.7127-10.034 10.035-4.17 0.46208 0.46208-4.17zm-0.53614 3.1589-5.9893 5.9893 1.0884 1.0884 5.9877-5.9893zm-1.61 11.151a0.76961 0.76961 0 0 0 0.0064 1.5392h12.307a0.7696 0.7696 0 0 0 0-1.5392h-12.307a0.76911 0.76911 0 0 0-0.0064 0z" stroke-width=".82434"/>
</svg>
