<svg width="24" height="24" version="1.1" viewBox="0 0 24 24" xmlns="http://www.w3.org/2000/svg">
  <path d="m4.2598 8.3699c-0.19337-0.019852-0.36836-0.12573-0.47644-0.28822l-1.9712-2.9991c-0.16764-0.25587-0.13308-0.59555 0.083083-0.81245l1.0264-1.0286c0.21764-0.21763 0.55732-0.25072 0.81319-0.083083l2.9998 1.9705c0.16322 0.10661 0.26837 0.28087 0.28895 0.47424 0.019841 0.19337-0.048528 0.38601-0.18602 0.5235l-0.59482 0.59555 3.7821 3.7814 0.40659-0.40586c0.04265-0.042645 0.08749-0.082347 0.13308-0.12058-0.76172-1.8587-0.28895-3.7615 1.3654-5.4188l1.4801-1.4779c1.6153-1.6146 3.5182-1.1389 5.3335-0.38086l0.89112 0.37277-2.3925 2.391c-0.92789 0.92862-0.62643 1.3859-0.23675 1.7749l0.04558 0.044852c0.39336 0.39483 0.66393 0.40145 0.83819 0.37057 0.27131-0.047055 0.58894-0.24998 0.94112-0.60291l2.3903-2.3925 0.37277 0.89186c0.75731 1.8161 1.236 3.7189-0.38086 5.3342l-1.4771 1.4779c-1.0624 1.0617-2.2285 1.5874-3.4476 1.5889l3.6196 3.6696c0.45071 0.44924 0.66687 1.0742 0.60805 1.7558-0.05588 0.63967-0.35145 1.2573-0.83524 1.7403-0.57423 0.5757-1.2852 0.88304-1.9911 0.88304-0.59702 0-1.1463-0.22058-1.5462-0.62055l-4.7012-4.7644-4.1828 4.1821c-0.41395 0.41395-0.96759 0.61688-1.5448 0.61688-0.68231 0-1.3984-0.28381-1.9543-0.83819l-0.047056-0.04853c-0.47571-0.47423-0.77201-1.0926-0.82863-1.7322-0.059555-0.68231 0.15808-1.308 0.61026-1.7602l5.6166-5.6158-3.7829-3.7821-0.54556 0.54629c-0.12132 0.12279-0.28675 0.18969-0.45733 0.18969-0.022064 0-0.043379-7.353e-4 -0.065437-0.00295zm8.9002 4.2527-1.933 1.933 5.8342 5.9122c0.19631 0.19631 0.44997 0.23822 0.6279 0.23822 0.36468 0 0.74334-0.16911 1.0382-0.46394 0.30734-0.30807 0.46983-0.6404 0.49924-0.97715 0.02573-0.29557-0.05808-0.55511-0.23675-0.73378zm-2.219-1.2036 0.79701 0.79628 1.1668-1.1654 0.38895 0.14632c0.29189 0.10955 0.54188 0.26837 0.74334 0.47203l0.50365 0.51026c1.5558 0.82642 2.9579 0.59114 4.2799-0.73158l1.4779-1.4779c0.75437-0.75363 0.89848-1.5926 0.44556-3.002l-0.99774 0.99774c-0.55217 0.55217-1.0874 0.8676-1.6345 0.96318-0.48379 0.083819-1.219 0.02794-1.9697-0.72496l-0.04559-0.044851c-0.63378-0.63379-1.4404-1.9381 0.23161-3.6101l0.99774-0.99774c-1.4073-0.45365-2.2462-0.30954-2.9998 0.44556l-1.4801 1.4786c-1.4205 1.4212-1.7153 2.9175-0.87495 4.4475l0.36027 0.65437-0.69996 0.26248c-0.11838 0.04411-0.21102 0.10147-0.28381 0.17352zm-0.91465 0.91465-5.6166 5.6158c-0.17793 0.1772-0.26175 0.43821-0.23528 0.73231 0.028675 0.33822 0.1919 0.66981 0.45953 0.93671l0.047055 0.04926c0.51541 0.5132 1.2654 0.6132 1.6631 0.21469l4.1887-4.1895-0.26322-0.2669c-0.20146-0.20072-0.35954-0.44924-0.46762-0.73893l-0.14705-0.38895 1.1676-1.1676zm-6.843-7.5216 1.2463 1.894 0.93156-0.93156-1.8947-1.2455z" fill="#aaa" stroke-width=".73525"/>
</svg>
