<svg width="24" height="24" version="1.1" viewBox="0 0 24 24" xmlns="http://www.w3.org/2000/svg">
  <path d="m17.835 2c-1.0703 0-2.1407 0.39941-2.9382 1.1969l-2.8546 2.8529c-1.1753 1.1753-1.5107 2.9388-0.9231 4.4499l1.4265-1.4265c-0.08395-0.67158 0.16855-1.3442 0.67224-1.8478l2.9382-2.9382c1.0074-1.0074 2.6017-1.0074 3.5252 0 0.92343 1.0074 1.0074 2.6034 0 3.5268l-2.9382 2.9382c-0.50369 0.50369-1.2582 0.75422-1.9298 0.75422l-1.4281 1.4281c1.5111 0.58764 3.2746 0.25217 4.4499-0.9231l2.9382-2.9382c1.595-1.595 1.595-4.2814 0-5.8764-0.79751-0.79751-1.8678-1.1969-2.9382-1.1969zm-2.2659 5.5616c-0.20987 0-0.42072 0.0846-0.58862 0.2525l-7.052 7.0503c-0.33579 0.33579-0.33579 0.83981 0 1.1756s0.83981 0.33579 1.1756 0l7.052-7.052c0.33579-0.33579 0.33579-0.83817 0-1.174-0.1679-0.1679-0.37711-0.2525-0.58698-0.2525zm-6.7159 3.1431c-0.98869 0.04099-1.9528 0.4345-2.6873 1.2215l-2.9382 2.9382c-1.595 1.595-1.595 4.2814 0 5.8764 1.595 1.679 4.2814 1.679 5.8764 0l2.9382-2.9382c1.1753-1.1753 1.5107-2.9372 0.9231-4.4483l-1.4265 1.4265c0 0.67159-0.16822 1.3438-0.75586 1.9315l-2.9382 2.9382c-1.0074 1.0074-2.6017 1.0074-3.5252 0-1.0074-1.0074-1.0074-2.6034 0-3.5268l2.9382-2.9382c0.50369-0.50369 1.2582-0.75422 1.9298-0.75422l1.4281-1.4281c-0.56665-0.22036-1.1694-0.323-1.7626-0.29841z" stroke-width=".83948"/>
</svg>
