<svg width="24" height="24" version="1.1" viewBox="0 0 24 24" xmlns="http://www.w3.org/2000/svg">
  <path d="m10.748 2c-1.0018 0-1.8379 0.83503-1.8379 1.8359v0.62695h-5.0527v1.2539h1.2988l1.123 14.445c0.083636 1.0018 0.96016 1.8379 1.9629 1.8379h7.5156c1.0018 0 1.8793-0.79425 1.9629-1.8379l1.125-14.445h1.2969v-1.2539h-5.0527v-0.62695a1.8545 1.8545 0 0 0-1.8379-1.8359zm0 1.168h2.5039a0.66 0.66 0 0 1 0.66992 0.66797v0.62695h-3.8418v-0.62695a0.65909 0.65909 0 0 1 0.66797-0.66797zm-4.332 2.5488h11.168l-1.1152 14.361c0 0.33454-0.33548 0.66992-0.71094 0.66992h-7.5156c-0.33455 0-0.66717-0.29356-0.70898-0.66992zm2.4531 2.5039v10.021h1.252v-10.021zm2.5059 0v10.021h1.252v-10.021zm2.5039 0v10.021h1.252v-10.021z" stroke-width=".90909"/>
</svg>
