<svg width="24" height="24" version="1.1" viewBox="0 0 24 24" xmlns="http://www.w3.org/2000/svg">
  <path d="m10.24 2a5.1648 5.1648 0 0 0-5.1636 5.1649 5.1649 5.1649 0 0 0 10.33 0 5.1648 5.1648 0 0 0-5.1662-5.1649zm0.0013 1.3345a3.835 3.835 0 0 1 3.8304 3.8304 3.8356 3.8356 0 0 1-3.8304 3.8317 3.8356 3.8356 0 0 1-3.8317-3.8317 3.8356 3.8356 0 0 1 3.8317-3.8304zm3.7353 9.4131c-0.47262 0-1.2629 1.121-3.7353 1.121-2.4318 0-3.3587-1.0656-3.8994-1.0663a0.33997 0.33997 0 0 0-0.11067 0.01823c-2.3224 0.77859-4.0113 3.1463-4.0113 5.946v2.1222c0 0.49195 0.3638 0.89054 0.81242 0.89054h11.334a5.1542 5.1542 0 0 1-0.95433-1.3332h-9.8584v-1.6795c0-2.0165 1.1278-3.8382 2.7797-4.5581 0.68527 0.35063 1.86 0.99339 3.9085 0.99339 1.1852 0 2.0684-0.22305 2.725-0.48302l1.0272-0.48563 0.41402 0.25518a5.1422 5.1422 0 0 1 1.2876-0.92048 5.4281 5.4281 0 0 0-1.6444-0.80982 0.27664 0.27664 0 0 0-0.07421-0.01042zm3.9384 1.5597a3.8463 3.8463 0 0 0-3.8291 3.846 3.8466 3.8466 0 0 0 7.6933 0 3.8463 3.8463 0 0 0-3.8642-3.846zm-0.0091 1.3332a2.5158 2.5158 0 0 1 0.02604 0 2.5158 2.5158 0 0 1 2.5141 2.5128 2.5158 2.5158 0 0 1-2.5141 2.5141 2.5158 2.5158 0 0 1-2.5128-2.5141 2.5158 2.5158 0 0 1 2.4867-2.5128zm-0.41272 0.60932v1.4634h-1.4269v0.88012h1.4269v1.4061h0.87882v-1.4061h1.5741v-0.88012h-1.5741v-1.4634z" stroke-width=".6666"/>
</svg>
