<svg width="24" height="24" viewBox="0 0 24 24" fill="none" xmlns="http://www.w3.org/2000/svg">
<path d="M11.9995 24C18.6269 24 23.9995 18.6274 23.9995 12C23.9995 5.37258 18.6269 0 11.9995 0C5.37209 0 -0.000488281 5.37258 -0.000488281 12C-0.000488281 18.6274 5.37209 24 11.9995 24Z" fill="#F8F8F8"/>
<path d="M11.478 11.9996H23.9997C23.9997 10.9165 23.8554 9.86725 23.5864 8.86914H11.478V11.9996Z" fill="#E62828"/>
<path d="M11.478 5.73885H22.2385C21.5039 4.54016 20.5647 3.48065 19.4696 2.6084H11.478V5.73885Z" fill="#E62828"/>
<path d="M11.9996 23.9993C14.8238 23.9993 17.4196 23.0232 19.4694 21.3906H4.52979C6.57963 23.0232 9.17543 23.9993 11.9996 23.9993Z" fill="#E62828"/>
<path d="M1.76098 18.2603H22.2384C22.8281 17.298 23.2855 16.2462 23.5863 15.1299H0.413086C0.713883 16.2462 1.17124 17.298 1.76098 18.2603Z" fill="#E62828"/>
<path d="M5.55814 1.87397H6.65168L5.6345 2.61295L6.02304 3.80869L5.0059 3.0697L3.98876 3.80869L4.32439 2.7757C3.42879 3.52172 2.64382 4.39575 1.99695 5.36963H2.34734L1.69986 5.84002C1.59898 6.0083 1.50223 6.17925 1.40951 6.35273L1.7187 7.30434L1.14186 6.88523C0.998465 7.18903 0.867309 7.49967 0.749418 7.81678L1.09006 8.86528H2.34734L1.33015 9.60427L1.7187 10.8L0.701559 10.061L0.0922773 10.5037C0.031293 10.9939 -0.000488281 11.4932 -0.000488281 12H11.9995C11.9995 5.37262 11.9995 4.59131 11.9995 0C9.62895 0 7.41912 0.687656 5.55814 1.87397ZM6.02304 10.8L5.0059 10.061L3.98876 10.8L4.37731 9.60427L3.36012 8.86528H4.6174L5.0059 7.66955L5.3944 8.86528H6.65168L5.6345 9.60427L6.02304 10.8ZM5.6345 6.10861L6.02304 7.30434L5.0059 6.56536L3.98876 7.30434L4.37731 6.10861L3.36012 5.36963H4.6174L5.0059 4.17389L5.3944 5.36963H6.65168L5.6345 6.10861ZM10.3274 10.8L9.31025 10.061L8.29311 10.8L8.68165 9.60427L7.66446 8.86528H8.92175L9.31025 7.66955L9.69875 8.86528H10.956L9.93884 9.60427L10.3274 10.8ZM9.93884 6.10861L10.3274 7.30434L9.31025 6.56536L8.29311 7.30434L8.68165 6.10861L7.66446 5.36963H8.92175L9.31025 4.17389L9.69875 5.36963H10.956L9.93884 6.10861ZM9.93884 2.61295L10.3274 3.80869L9.31025 3.0697L8.29311 3.80869L8.68165 2.61295L7.66446 1.87397H8.92175L9.31025 0.678234L9.69875 1.87397H10.956L9.93884 2.61295Z" fill="#0052B4"/>
</svg>
