<svg xmlns="http://www.w3.org/2000/svg" viewBox="0 0 24 24"><path fill="#F0F0F0" d="M0 4h24v16H0z"/><path fill="#D80027" d="M14.9 12c0 .7-1.3 2.6-2.9 2.6S9.1 12.7 9.1 12c0-1.6 1.3-2.9 2.9-2.9s2.9 1.3 2.9 2.9z"/><path fill="#0052B4" d="M14.9 12c0 1.6-1.3 2.9-2.9 2.9S9.1 13.6 9.1 12"/><path d="M16.38 14.318l-.778.778-.495-.495.778-.778zM15.088 15.596l-.778.778-.495-.495.778-.778zM17.999 15.866l-.778.778-.495-.495.778-.778zM16.637 17.217l-.778.777-.495-.494.778-.778zM17.119 15.092l-.778.778-.495-.495.778-.778zM15.827 16.371l-.778.778-.494-.495.777-.778zM15.062 6.853l2.05 2.05-.494.495-2.05-2.05zM14.313 7.612l.778.778-.495.495-.778-.778zM15.604 8.916l.778.778-.495.495-.778-.778zM15.934 6.064l.778.777-.495.495-.778-.777zM17.155 7.296l.777.778-.495.495-.777-.778zM8.132 17.92l-2.05-2.05.495-.495 2.05 2.05zM8.95 17.149l-.778-.778.495-.495.778.778zM7.66 15.87l-.779-.777.495-.495.778.777zM9.68 16.443l-2.05-2.051.495-.495 2.05 2.05zM6.077 8.13l2.05-2.051.496.495-2.05 2.05zM6.887 8.904l2.05-2.051.496.495-2.05 2.05zM7.556 9.678l2.05-2.05.496.495-2.05 2.05z"/></svg>