<svg version="1.2" baseProfile="tiny" xmlns="http://www.w3.org/2000/svg" viewBox="0 0 24 24"><path fill="#0035AD" d="M0 4h24v5.316H0z"/><path fill="#ED4135" d="M0 9.319h24v5.313H0z"/><path fill="#009543" d="M0 14.63h24V20H0z"/><circle fill="#FAE600" cx="8.871" cy="11.975" r="5.223"/><path d="M8.871 6.676c-2.922 0-5.298 2.376-5.298 5.298s2.376 5.298 5.298 5.298 5.298-2.375 5.298-5.297a5.307 5.307 0 00-5.298-5.298zM6.828 16.7a5.156 5.156 0 01-3.108-4.725 5.158 5.158 0 015.058-5.147V7.97c-.327.144-.591.27-.642.558-.006.039-.015.426-.024.522 0 0 .054.006.183-.1.057-.047.24-.077.483-.23v.6a.71.71 0 00-.618.702c0 .36.27.657.618.702v.147c-.276-.012-.519-.09-.726-.513-.114-.231-.408-.585-.408-.585s.138.399.159.798c.03.594.561.65.972.654v.123H7.98v.18h.795v.12c-.348.026-.618.215-.618.443 0 .229.27.418.618.445v.12H7.98v.18h.795v.122c-.612.021-.909.264-.942.612-.069.75-.207 1.332-.207 1.332s.222-.275.483-.92a.846.846 0 01.666-.525v.074c-.279.063-.495.414-.495.84s.213.777.495.84v.237c-.357.006-.708.084-.891.228-.24.207-.849.81-1.056 1.024zm3.99.04c-.204-.217-.75-.796-1.062-1.05-.165-.136-.471-.21-.795-.226v-.24c.279-.063.495-.414.495-.84s-.213-.777-.495-.84v-.075c.27.036.543.222.666.525.261.645.483.921.483.921s-.138-.582-.207-1.332c-.033-.348-.327-.59-.942-.612v-.123h.795v-.18h-.795v-.12c.348-.027.618-.216.618-.444s-.27-.417-.618-.444v-.12h.795v-.18h-.795v-.123c.411-.006.942-.063.972-.654.021-.399.159-.798.159-.798s-.294.354-.408.585c-.207.423-.447.501-.726.513v-.147a.71.71 0 00.618-.702.71.71 0 00-.618-.702v-.729c.21-.17.453-.438.693-.873.129-.23.069-.336.069-.333 0 0 .006.015-.09.1-.216.185-.45.305-.672.404V6.835a5.154 5.154 0 015.058 5.148 5.15 5.15 0 01-3.198 4.755z"/></svg>