<svg width="65" height="46" viewBox="0 0 65 46" fill="none" xmlns="http://www.w3.org/2000/svg">
<path d="M36.8003 21.2518H43.4296V15.2538H36.8003V21.2518ZM28.9082 21.2518H35.5376V15.2538H28.9082V21.2518ZM21.174 21.2518H27.8034V15.2538H21.174V21.2518ZM13.4398 21.2518H19.9113V15.2538H13.4398V21.2518ZM5.54777 21.2518H12.1771V15.2538H5.54777V21.2518ZM13.4398 13.9911H19.9113V7.99311H13.4398V13.9911ZM21.174 13.9911H27.8034V7.99311H21.174V13.9911ZM28.9082 13.9911H35.5376V7.99311H28.9082V13.9911ZM28.9082 6.73038H35.5376V0.732422H28.9082V6.73038ZM64.5803 18.5685C64.5803 18.5685 61.7392 15.8852 55.8991 16.8322C55.2677 12.2548 50.3746 9.57152 50.3746 9.57152C50.3746 9.57152 45.7972 15.096 49.1119 21.2518C48.1649 21.7253 46.5864 22.3566 44.2188 22.3566H0.812543C0.023338 25.3556 0.0233387 45.2436 21.8054 45.2436C37.4317 45.2436 49.1119 37.9829 54.6363 24.7243C62.8441 25.3556 64.5803 18.5685 64.5803 18.5685Z" fill="#676767"/>
</svg>
