<svg width="48" height="55" viewBox="0 0 48 55" fill="none" xmlns="http://www.w3.org/2000/svg">
<g clip-path="url(#clip0)">
<path fill-rule="evenodd" clip-rule="evenodd" d="M28.6099 7.17067L39.6987 13.5732C40.0188 13.2344 40.3862 12.9437 40.7895 12.71C43.0891 11.3879 46.0225 12.1729 47.3583 14.4727C48.6804 16.7725 47.8954 19.7057 45.5956 21.0415C45.1953 21.272 44.764 21.4437 44.3149 21.5514V34.3611C44.7591 34.469 45.1857 34.6395 45.5819 34.8676C47.8954 36.2034 48.6804 39.1368 47.3446 41.4366C46.0225 43.7363 43.0754 44.5212 40.7756 43.1993C40.3301 42.9437 39.9287 42.6179 39.587 42.2343L28.5657 48.5975C28.7271 49.0862 28.8091 49.5976 28.8085 50.1123C28.8085 52.7564 26.6603 54.9186 24.0024 54.9186C21.3445 54.9186 19.1963 52.77 19.1963 50.1123C19.1963 49.6399 19.2642 49.1835 19.3907 48.7525L8.30498 42.3519C7.98835 42.6839 7.62614 42.9692 7.22921 43.1993C4.91569 44.5212 1.98236 43.7363 0.660244 41.4366C-0.661687 39.1368 0.123297 36.2034 2.42294 34.8676C2.81911 34.6395 3.24571 34.4689 3.68994 34.3609V21.5514C3.24081 21.4437 2.8095 21.272 2.40926 21.0415C0.109424 19.7195 -0.67556 16.7725 0.646558 14.4727C1.96868 12.1729 4.91551 11.3879 7.21534 12.71C7.61638 12.9424 7.98195 13.2313 8.30085 13.5677L19.3928 7.16354C19.2621 6.71975 19.1959 6.25945 19.1963 5.7968C19.1963 3.13926 21.3445 0.990723 24.0024 0.990723C26.6603 0.990723 28.8085 3.13907 28.8085 5.7968C28.8085 6.27451 28.7391 6.73552 28.6099 7.17067ZM27.4547 9.14334L38.5699 15.5608C38.3929 16.1795 38.3421 16.8275 38.4206 17.4662C38.4991 18.1049 38.7053 18.7213 39.0268 19.2788C39.7034 20.4558 40.8056 21.2361 42.0289 21.5402V34.3658C41.9665 34.3809 41.9044 34.3976 41.8428 34.4153L27.3255 9.27177C27.3694 9.22977 27.4125 9.18703 27.4547 9.14353V9.14334ZM20.6823 9.27458L6.16526 34.4177C6.10249 34.3995 6.03935 34.3827 5.9759 34.3671V21.5402C7.19921 21.2361 8.30142 20.4558 8.97804 19.2788C9.3002 18.7203 9.50654 18.1026 9.58471 17.4626C9.66289 16.8225 9.61131 16.1733 9.43305 15.5537L20.5451 9.13809C20.5899 9.1844 20.6356 9.22996 20.6823 9.27439V9.27458ZM25.3453 10.4135L39.859 35.551C39.5266 35.8682 39.2416 36.2318 39.0129 36.6303C38.7848 37.0265 38.6142 37.4531 38.5063 37.8973H9.49886C9.39082 37.4531 9.22013 37.0265 8.99191 36.6303C8.76243 36.2345 8.47801 35.8732 8.14712 35.5572L22.6636 10.4147C23.0988 10.54 23.5495 10.6033 24.0024 10.6029C24.4687 10.6029 24.9192 10.5369 25.3453 10.4135ZM27.5567 46.8745L38.5997 40.4986C38.5666 40.3946 38.537 40.2894 38.511 40.1833H9.49267C9.4773 40.2457 9.46061 40.3076 9.4428 40.3693L20.5398 46.7765C20.9879 46.3105 21.5257 45.94 22.1208 45.6873C22.7159 45.4347 23.3559 45.305 24.0024 45.3062C24.6715 45.3051 25.3334 45.444 25.9456 45.7141C26.5577 45.9842 27.1065 46.3795 27.5567 46.8745Z" fill="#676767"/>
</g>
<defs>
<clipPath id="clip0">
<rect width="47.9952" height="54" fill="white" transform="translate(0.00488281 0.987793)"/>
</clipPath>
</defs>
</svg>
