<svg width="20" height="22" viewBox="0 0 20 22" fill="none" xmlns="http://www.w3.org/2000/svg">
<path d="M0 21.5263C0.276137 20.6543 0.536265 19.837 0.796394 19.0198C1.05652 18.2109 1.28864 17.3895 1.58478 16.5933C1.73686 16.1889 1.68884 15.8856 1.49674 15.5064C0.448222 13.4591 0.136067 11.2643 0.500247 8.98111C0.8084 7.04753 1.58879 5.33721 2.84941 3.88386C4.92644 1.49531 7.51972 0.349477 10.5852 0.484281C12.8303 0.581171 14.8153 1.44476 16.5082 3.00763C18.0849 4.46098 19.1135 6.26819 19.5897 8.41662C19.9739 10.148 19.9299 11.871 19.4576 13.5771C18.8573 15.7381 17.7088 17.5201 15.9999 18.8765C13.6267 20.7638 10.9654 21.3493 8.06399 20.7554C7.19156 20.5784 6.35915 20.2498 5.57476 19.8033C5.44669 19.7317 5.33864 19.7148 5.19857 19.7654C3.70983 20.2709 2.2171 20.7722 0.72836 21.2735C0.504249 21.3493 0.276137 21.4294 0 21.5263ZM2.53325 18.885C2.61329 18.8639 2.64931 18.8555 2.68533 18.8428C3.61779 18.5311 4.55025 18.2152 5.48671 17.9118C5.57476 17.8824 5.69482 17.9076 5.77886 17.9498C6.18306 18.1604 6.57125 18.4131 6.98746 18.5985C8.7003 19.361 10.4652 19.4831 12.2501 18.9608C14.3791 18.3331 16.0119 16.9977 17.1285 14.9799C18.0849 13.2527 18.4131 11.3865 18.117 9.42344C17.7408 6.92536 16.5242 4.96228 14.5112 3.56791C12.7663 2.3631 10.8454 1.95448 8.79635 2.2957C7.03148 2.59059 5.52273 3.43732 4.27812 4.79378C3.20959 5.95646 2.49323 7.32977 2.18108 8.9095C1.73686 11.1717 2.06502 13.3117 3.25761 15.2621C3.49773 15.6539 3.48973 15.953 3.34565 16.3532C3.05351 17.1746 2.80939 18.0129 2.53325 18.885Z" fill="#676767"/>
<path d="M15.1474 13.6874C15.1354 14.5004 14.7713 15.1197 14.0349 15.5072C13.3105 15.8864 12.5742 15.9832 11.8178 15.6715C11.1375 15.3893 10.4491 15.1155 9.79279 14.7742C8.92837 14.3235 8.22002 13.6495 7.5717 12.9038C6.85534 12.0782 6.24704 11.1598 5.74679 10.1783C5.39062 9.48319 5.17451 8.74599 5.25055 7.93717C5.33059 7.07779 5.71078 6.39114 6.35109 5.87299C6.47916 5.77188 6.67125 5.72554 6.83533 5.70869C7.04744 5.69184 7.25954 5.72554 7.47165 5.7424C7.64773 5.75925 7.74378 5.88984 7.80381 6.04149C7.95989 6.4459 8.09996 6.85031 8.24803 7.25893C8.34808 7.53275 8.42412 7.81921 8.54418 8.08461C8.69225 8.41319 8.6002 8.68701 8.40811 8.93977C8.24403 9.15461 8.07194 9.36103 7.88385 9.54638C7.72777 9.70225 7.69976 9.86233 7.80381 10.0519C8.26404 10.9155 8.82432 11.6906 9.56468 12.3183C10.0529 12.7311 10.5932 13.0386 11.1535 13.3251C11.3175 13.4093 11.4776 13.3967 11.6057 13.2408C11.8818 12.908 12.162 12.5795 12.4341 12.2425C12.6102 12.0276 12.6982 11.9855 12.9343 12.1119C13.6187 12.4741 14.295 12.8491 14.9754 13.224C15.1354 13.3167 15.1755 13.4683 15.1474 13.6874Z" fill="#676767"/>
</svg>
