<svg width="25" height="24" fill="none" xmlns="http://www.w3.org/2000/svg"><path d="M12.692 24c6.628 0 12-5.373 12-12 0-6.628-5.372-12-12-12-6.627 0-12 5.372-12 12 0 6.627 5.373 12 12 12z" fill="#F0F0F0"/><path d="M3.173 4.694a11.956 11.956 0 00-2.068 4.175h6.243L3.173 4.694zM24.279 8.87a11.957 11.957 0 00-2.067-4.176l-4.176 4.175h6.243zM1.105 15.13a11.958 11.958 0 002.068 4.176l4.175-4.176H1.105zM19.998 2.48A11.956 11.956 0 0015.822.413v6.243l4.176-4.176zM5.386 21.52a11.957 11.957 0 004.176 2.066v-6.242l-4.176 4.175zM9.562.413A11.957 11.957 0 005.386 2.48l4.176 4.176V.413zM15.822 23.586a11.957 11.957 0 004.176-2.067l-4.176-4.175v6.242zM18.036 15.13l4.175 4.176a11.957 11.957 0 002.068-4.176h-6.243z" fill="#0052B4"/><path d="M24.59 10.435H14.259V.1a12.119 12.119 0 00-3.13 0v10.334H.793a12.12 12.12 0 000 3.13h10.333v10.333a12.12 12.12 0 003.13 0V13.565h10.334a12.118 12.118 0 000-3.13z" fill="#D80027"/><path d="M15.823 15.13l5.355 5.355c.246-.246.48-.503.705-.77l-4.584-4.585h-1.476zM9.562 15.13l-5.355 5.355c.246.246.504.481.77.706l4.585-4.585V15.13zM9.562 8.87L4.207 3.514c-.246.246-.481.503-.705.77l4.584 4.584h1.476zM15.823 8.87l5.355-5.355a12.023 12.023 0 00-.77-.706l-4.585 4.585V8.87z" fill="#D80027"/></svg>