<svg width="25" height="24" fill="none" xmlns="http://www.w3.org/2000/svg"><path d="M12.692 24c6.628 0 12-5.373 12-12s-5.372-12-12-12c-6.627 0-12 5.373-12 12s5.373 12 12 12z" fill="#D80027"/><path d="M13.931 9.078c-.273 1.135-.757.918-.995 1.907a2.609 2.609 0 011.22-5.073c-.476 1.979.02 2.152-.225 3.166zM10.296 9.919c.995.61.64 1.004 1.507 1.535a2.609 2.609 0 01-4.448-2.727c1.735 1.064 2.052.646 2.941 1.192zM9.973 13.635c.887-.757 1.152-.297 1.926-.958a2.609 2.609 0 11-3.969 3.388c1.548-1.322 1.249-1.752 2.043-2.43zM13.407 15.092c-.446-1.078.073-1.188-.316-2.128a2.609 2.609 0 011.995 4.821c-.778-1.88-1.28-1.729-1.679-2.693zM15.854 12.275c-1.163.092-1.107-.436-2.121-.357a2.609 2.609 0 015.2-.407c-2.028.159-2.039.683-3.08.764z" fill="#F0F0F0"/></svg>