<svg width="25" height="24" fill="none" xmlns="http://www.w3.org/2000/svg"><path d="M12.692 24c6.628 0 12-5.373 12-12 0-6.628-5.372-12-12-12-6.627 0-12 5.372-12 12 0 6.627 5.373 12 12 12z" fill="#D80027"/><path d="M7.26 7.303l1.036 3.188h3.351l-2.71 1.973 1.037 3.188-2.714-1.97-2.714 1.97 1.04-3.188-2.714-1.973h3.352L7.26 7.303zM14.919 18.586l-.792-.975-1.172.455.68-1.055-.793-.98 1.214.324.685-1.055.065 1.256 1.22.324-1.178.45.07 1.256zM16.494 15.726l.375-1.2-1.027-.726 1.257-.019.37-1.2.408 1.19 1.256-.013-1.008.75.403 1.19-1.026-.726-1.008.755zM18.617 8.808l-.553 1.13.9.876-1.242-.178-.553 1.125-.216-1.238-1.246-.178 1.115-.586-.215-1.242.9.877 1.11-.586zM14.952 5.386l-.094 1.251 1.167.474-1.223.3-.09 1.256-.66-1.069-1.224.3.811-.96-.665-1.065 1.167.474.81-.961z" fill="#FFDA44"/></svg>