<svg width="24" height="24" version="1.1" viewBox="0 0 24 24" xmlns="http://www.w3.org/2000/svg">
  <path d="m0 12c0-0.2071 0.16789-0.375 0.375-0.375h23.25c0.2071 0 0.375 0.1679 0.375 0.375s-0.1679 0.375-0.375 0.375h-23.25c-0.20711 0-0.375-0.1679-0.375-0.375z" fill="#aaa"/>
  <path d="m20.36 8.7348c0.1465-0.14644 0.3839-0.14644 0.5304 0l3 3c0.1464 0.1465 0.1464 0.3839 0 0.5304l-3 3c-0.1465 0.1464-0.3839 0.1464-0.5304 0-0.1464-0.1465-0.1464-0.3839 0-0.5304l2.7349-2.7348-2.7349-2.7348c-0.1464-0.14645-0.1464-0.38389 0-0.53034z" fill="#aaa"/>
</svg>
