<svg width="24" height="24" fill="none" version="1.1" viewBox="0 0 24 24" xmlns="http://www.w3.org/2000/svg">
  <path d="m12 2.25c-5.3848 0-9.75 4.3652-9.75 9.75 0 5.3848 4.3652 9.75 9.75 9.75 5.3848 0 9.75-4.3652 9.75-9.75 0-5.3848-4.3652-9.75-9.75-9.75zm0 1.6445c1.9303 0 3.7017 0.67812 5.0938 1.8047l-5.0938 5.0938-5.0938-5.0938c1.392-1.1266 3.1635-1.8047 5.0938-1.8047zm-6.3008 3.0117 5.0938 5.0938-5.0938 5.0938c-1.1266-1.392-1.8047-3.1635-1.8047-5.0938 0-1.9303 0.67812-3.7017 1.8047-5.0938zm12.602 0c1.1266 1.392 1.8047 3.1635 1.8047 5.0938s-0.67811 3.7017-1.8047 5.0938l-5.0938-5.0938 5.0938-5.0938zm-6.3008 6.3008 5.0938 5.0938c-1.392 1.1266-3.1635 1.8047-5.0938 1.8047s-3.7017-0.67811-5.0938-1.8047l5.0938-5.0938z"/>
</svg>
