<svg width="24" height="24" viewBox="0 0 24 24" fill="none" xmlns="http://www.w3.org/2000/svg">
<path d="M14.4617 2.22171L19.7742 7.42278C19.9019 7.54777 19.9688 7.71732 19.9688 7.88247V21.3186C19.9688 21.6777 19.6714 21.9688 19.3047 21.9688H4.69533C4.32856 21.9688 4.03125 21.6776 4.03125 21.3186V2.6814C4.03125 2.32233 4.3286 2.03125 4.69533 2.03125H13.9922C14.1746 2.03125 14.3428 2.10524 14.4617 2.22171ZM14.6563 4.25093V7.23232H17.7015L14.6563 4.25093ZM5.35936 20.6685H18.6406V8.53261H13.9922C13.6254 8.53261 13.3281 8.2415 13.3281 7.88247V3.33151H5.35936V20.6685Z" fill="#AAAAAA"/>
</svg>
