<svg width="24" height="24" fill="none" version="1.1" viewBox="0 0 24 24" xmlns="http://www.w3.org/2000/svg">
  <path d="m0 12c0-6.6274 5.3725-12 12-12 6.6273 0 12 5.3725 12 12 0 6.6273-5.3725 12-12 12-6.6274 0-12-5.3725-12-12zm3.5058 6.0903c1.8968 2.6408 4.9944 4.3612 8.494 4.3612 3.4996 0 6.5971-1.7204 8.494-4.3612-0.152-1.306-1.0968-2.4023-2.397-2.7274l-1.5665-0.3916c-1.2613 1.083-2.8505 1.6738-4.5305 1.6738-1.6801 0-3.2693-0.5908-4.5307-1.6738l-1.5665 0.3916c-1.3002 0.3251-2.2449 1.4214-2.3969 2.7274zm13.913-8.4129c0-2.993-2.4263-5.4193-5.4193-5.4193-2.993 0-5.4193 2.4263-5.4193 5.4193 0 2.993 2.4263 5.4193 5.4193 5.4193 2.993 0 5.4193-2.4263 5.4193-5.4193z" fill="#aaa"/>
</svg>
