<svg xmlns="http://www.w3.org/2000/svg" width="210" height="85" viewBox="0 0 210 85"><g><g><path fill="#434343" d="M8 2h194v80H8zm1 79h192V3H9z"/></g><g><path fill="#434343" d="M209 6v8h1v5h-1v45h1v5h-1v10h1v6h-6v-1H6v1H0v-6h1V6H0V0h210v6zm-4-1h4V1h-4zM1 5h4V1H1zm1 74h2V6H2zm3 1H1v4h4zm199-1h2V6h-2V1H6v5H5v73h1v4h198zm5 1h-4v4h4zm-1-74h-1v73h1z"/></g><g><path fill="#434343" d="M206 4h2V2h-2z"/></g><g><path fill="#434343" d="M206 83h2v-2h-2z"/></g><g><path fill="#434343" d="M2 83h2v-2H2z"/></g><g><path fill="#434343" d="M2 4h2V2H2z"/></g><g><path fill="#434343" d="M72 79h1V5h-1z"/></g><g><path fill="#434343" d="M77 79h1V5h-1z"/></g><g><path fill="#434343" d="M77 4h-4v1h4z"/></g><g><path fill="#434343" d="M73 80h4v-1h-4z"/></g><g><path fill="#434343" d="M62 79h1V5h-1z"/></g><g><path fill="#434343" d="M67 79h1V5h-1z"/></g><g><path fill="#434343" d="M67 4h-4v1h4z"/></g><g><path fill="#434343" d="M63 80h4v-1h-4z"/></g><g><path fill="#434343" d="M52 79h1V5h-1z"/></g><g><path fill="#434343" d="M57 79h1V5h-1z"/></g><g><path fill="#434343" d="M57 4h-4v1h4z"/></g><g><path fill="#434343" d="M53 80h4v-1h-4z"/></g><g><path fill="#434343" d="M42 79h1V5h-1z"/></g><g><path fill="#434343" d="M47 79h1V5h-1z"/></g><g><path fill="#434343" d="M47 4h-4v1h4z"/></g><g><path fill="#434343" d="M43 80h4v-1h-4z"/></g><g><path fill="#434343" d="M32 79h1V5h-1z"/></g><g><path fill="#434343" d="M37 79h1V5h-1z"/></g><g><path fill="#434343" d="M37 4h-4v1h4z"/></g><g><path fill="#434343" d="M33 80h4v-1h-4z"/></g><g><path fill="#434343" d="M22 79h1V5h-1z"/></g><g><path fill="#434343" d="M27 79h1V5h-1z"/></g><g><path fill="#434343" d="M27 4h-4v1h4z"/></g><g><path fill="#434343" d="M23 80h4v-1h-4z"/></g><g><path fill="#434343" d="M12 79h1V5h-1z"/></g><g><path fill="#434343" d="M17 79h1V5h-1z"/></g><g><path fill="#434343" d="M17 4h-4v1h4z"/></g><g><path fill="#434343" d="M13 80h4v-1h-4z"/></g><g><path fill="#434343" d="M82 79h1V5h-1z"/></g><g><path fill="#434343" d="M87 79h1V5h-1z"/></g><g><path fill="#434343" d="M87 4h-4v1h4z"/></g><g><path fill="#434343" d="M83 80h4v-1h-4z"/></g><g><path fill="#434343" d="M92 79h1V5h-1z"/></g><g><path fill="#434343" d="M97 79h1V5h-1z"/></g><g><path fill="#434343" d="M97 4h-4v1h4z"/></g><g><path fill="#434343" d="M93 80h4v-1h-4z"/></g><g><path fill="#434343" d="M102 79h1V5h-1z"/></g><g><path fill="#434343" d="M107 79h1V5h-1z"/></g><g><path fill="#434343" d="M107 4h-4v1h4z"/></g><g><path fill="#434343" d="M103 80h4v-1h-4z"/></g><g><path fill="#434343" d="M112 79h1V5h-1z"/></g><g><path fill="#434343" d="M117 79h1V5h-1z"/></g><g><path fill="#434343" d="M117 4h-4v1h4z"/></g><g><path fill="#434343" d="M113 80h4v-1h-4z"/></g><g><path fill="#434343" d="M122 79h1V5h-1z"/></g><g><path fill="#434343" d="M127 79h1V5h-1z"/></g><g><path fill="#434343" d="M127 4h-4v1h4z"/></g><g><path fill="#434343" d="M123 80h4v-1h-4z"/></g><g><path fill="#434343" d="M132 79h1V5h-1z"/></g><g><path fill="#434343" d="M137 79h1V5h-1z"/></g><g><path fill="#434343" d="M137 4h-4v1h4z"/></g><g><path fill="#434343" d="M133 80h4v-1h-4z"/></g><g><path fill="#434343" d="M142 79h1V5h-1z"/></g><g><path fill="#434343" d="M147 79h1V5h-1z"/></g><g><path fill="#434343" d="M147 4h-4v1h4z"/></g><g><path fill="#434343" d="M143 80h4v-1h-4z"/></g><g><path fill="#434343" d="M152 79h1V5h-1z"/></g><g><path fill="#434343" d="M157 79h1V5h-1z"/></g><g><path fill="#434343" d="M157 4h-4v1h4z"/></g><g><path fill="#434343" d="M153 80h4v-1h-4z"/></g><g><path fill="#434343" d="M162 79h1V5h-1z"/></g><g><path fill="#434343" d="M167 79h1V5h-1z"/></g><g><path fill="#434343" d="M167 4h-4v1h4z"/></g><g><path fill="#434343" d="M163 80h4v-1h-4z"/></g><g><path fill="#434343" d="M172 79h1V5h-1z"/></g><g><path fill="#434343" d="M177 79h1V5h-1z"/></g><g><path fill="#434343" d="M177 4h-4v1h4z"/></g><g><path fill="#434343" d="M173 80h4v-1h-4z"/></g><g><path fill="#434343" d="M182 79h1V5h-1z"/></g><g><path fill="#434343" d="M187 79h1V5h-1z"/></g><g><path fill="#434343" d="M187 4h-4v1h4z"/></g><g><path fill="#434343" d="M183 80h4v-1h-4z"/></g><g><path fill="#434343" d="M192 79h1V5h-1z"/></g><g><path fill="#434343" d="M197 79h1V5h-1z"/></g><g><path fill="#434343" d="M197 4h-4v1h4z"/></g><g><path fill="#434343" d="M193 80h4v-1h-4z"/></g></g></svg>