<svg xmlns="http://www.w3.org/2000/svg" width="210" height="48" viewBox="0 0 210 48"><g><g><path fill="#434343" d="M118.05 3.984h-2v1h2z"/></g><g><path fill="#434343" d="M115.05 42.984h1v-38h-1z"/></g><g><path fill="#434343" d="M116.05 43.984h2v-1h-2z"/></g><g><path fill="#434343" d="M118.05 42.984h1v-38h-1z"/></g><g><path fill="#434343" d="M112.05 3.984h-2v1h2z"/></g><g><path fill="#434343" d="M109.05 42.984h1v-38h-1z"/></g><g><path fill="#434343" d="M110.05 43.984h2v-1h-2z"/></g><g><path fill="#434343" d="M112.05 42.984h1v-38h-1z"/></g><g><path fill="#434343" d="M106.05 3.984h-2v1h2z"/></g><g><path fill="#434343" d="M103.05 42.984h1v-38h-1z"/></g><g><path fill="#434343" d="M104.05 43.984h2v-1h-2z"/></g><g><path fill="#434343" d="M106.05 42.984h1v-38h-1z"/></g><g><path fill="#434343" d="M100.05 3.984h-2v1h2z"/></g><g><path fill="#434343" d="M97.05 42.984h1v-38h-1z"/></g><g><path fill="#434343" d="M98.05 43.984h2v-1h-2z"/></g><g><path fill="#434343" d="M100.05 42.984h1v-38h-1z"/></g><g><path fill="#434343" d="M94.05 3.984h-2v1h2z"/></g><g><path fill="#434343" d="M91.05 42.984h1v-38h-1z"/></g><g><path fill="#434343" d="M92.05 43.984h2v-1h-2z"/></g><g><path fill="#434343" d="M94.05 42.984h1v-38h-1z"/></g><g><path fill="#434343" d="M88.05 3.984h-2v1h2z"/></g><g><path fill="#434343" d="M85.05 42.984h1v-38h-1z"/></g><g><path fill="#434343" d="M86.05 43.984h2v-1h-2z"/></g><g><path fill="#434343" d="M88.05 42.984h1v-38h-1z"/></g><g><path fill="#434343" d="M82.05 3.984h-2v1h2z"/></g><g><path fill="#434343" d="M79.05 42.984h1v-38h-1z"/></g><g><path fill="#434343" d="M80.05 43.984h2v-1h-2z"/></g><g><path fill="#434343" d="M82.05 42.984h1v-38h-1z"/></g><g><path fill="#434343" d="M76.05 3.984h-2v1h2z"/></g><g><path fill="#434343" d="M73.05 42.984h1v-38h-1z"/></g><g><path fill="#434343" d="M74.05 43.984h2v-1h-2z"/></g><g><path fill="#434343" d="M76.05 42.984h1v-38h-1z"/></g><g><path fill="#434343" d="M70.05 3.984h-2v1h2z"/></g><g><path fill="#434343" d="M67.05 42.984h1v-38h-1z"/></g><g><path fill="#434343" d="M68.05 43.984h2v-1h-2z"/></g><g><path fill="#434343" d="M70.05 42.984h1v-38h-1z"/></g><g><path fill="#434343" d="M64.05 3.984h-2v1h2z"/></g><g><path fill="#434343" d="M61.05 42.984h1v-38h-1z"/></g><g><path fill="#434343" d="M62.05 43.984h2v-1h-2z"/></g><g><path fill="#434343" d="M64.05 42.984h1v-38h-1z"/></g><g><path fill="#434343" d="M58.05 3.984h-2v1h2z"/></g><g><path fill="#434343" d="M55.05 42.984h1v-38h-1z"/></g><g><path fill="#434343" d="M56.05 43.984h2v-1h-2z"/></g><g><path fill="#434343" d="M58.05 42.984h1v-38h-1z"/></g><g><path fill="#434343" d="M52.05 3.984h-2v1h2z"/></g><g><path fill="#434343" d="M49.05 42.984h1v-38h-1z"/></g><g><path fill="#434343" d="M50.05 43.984h2v-1h-2z"/></g><g><path fill="#434343" d="M52.05 42.984h1v-38h-1z"/></g><g><path fill="#434343" d="M46.05 3.984h-2v1h2z"/></g><g><path fill="#434343" d="M43.05 42.984h1v-38h-1z"/></g><g><path fill="#434343" d="M44.05 43.984h2v-1h-2z"/></g><g><path fill="#434343" d="M46.05 42.984h1v-38h-1z"/></g><g><path fill="#434343" d="M40.05 3.984h-2v1h2z"/></g><g><path fill="#434343" d="M37.05 42.984h1v-38h-1z"/></g><g><path fill="#434343" d="M38.05 43.984h2v-1h-2z"/></g><g><path fill="#434343" d="M40.05 42.984h1v-38h-1z"/></g><g><path fill="#434343" d="M34.05 3.984h-2v1h2z"/></g><g><path fill="#434343" d="M31.05 42.984h1v-38h-1z"/></g><g><path fill="#434343" d="M32.05 43.984h2v-1h-2z"/></g><g><path fill="#434343" d="M34.05 42.984h1v-38h-1z"/></g><g><path fill="#434343" d="M28.05 3.984h-2v1h2z"/></g><g><path fill="#434343" d="M25.05 42.984h1v-38h-1z"/></g><g><path fill="#434343" d="M26.05 43.984h2v-1h-2z"/></g><g><path fill="#434343" d="M28.05 42.984h1v-38h-1z"/></g><g><path fill="#434343" d="M22.05 3.984h-2v1h2z"/></g><g><path fill="#434343" d="M19.05 42.984h1v-38h-1z"/></g><g><path fill="#434343" d="M20.05 43.984h2v-1h-2z"/></g><g><path fill="#434343" d="M22.05 42.984h1v-38h-1z"/></g><g><path fill="#434343" d="M16.05 3.984h-2v1h2z"/></g><g><path fill="#434343" d="M13.05 42.984h1v-38h-1z"/></g><g><path fill="#434343" d="M14.05 43.984h2v-1h-2z"/></g><g><path fill="#434343" d="M16.05 42.984h1v-38h-1z"/></g><g><path fill="#434343" d="M10.05 3.984h-2v1h2z"/></g><g><path fill="#434343" d="M7.05 42.984h1v-38h-1z"/></g><g><path fill="#434343" d="M8.05 43.984h2v-1h-2z"/></g><g><path fill="#434343" d="M10.05 42.984h1v-38h-1z"/></g><g><path fill="#434343" d="M124.05 3.984h-2v1h2z"/></g><g><path fill="#434343" d="M121.05 42.984h1v-38h-1z"/></g><g><path fill="#434343" d="M122.05 43.984h2v-1h-2z"/></g><g><path fill="#434343" d="M124.05 42.984h1v-38h-1z"/></g><g><path fill="#434343" d="M130.05 3.984h-2v1h2z"/></g><g><path fill="#434343" d="M127.05 42.984h1v-38h-1z"/></g><g><path fill="#434343" d="M128.05 43.984h2v-1h-2z"/></g><g><path fill="#434343" d="M130.05 42.984h1v-38h-1z"/></g><g><path fill="#434343" d="M136.05 3.984h-2v1h2z"/></g><g><path fill="#434343" d="M133.05 42.984h1v-38h-1z"/></g><g><path fill="#434343" d="M134.05 43.984h2v-1h-2z"/></g><g><path fill="#434343" d="M136.05 42.984h1v-38h-1z"/></g><g><path fill="#434343" d="M142.05 3.984h-2v1h2z"/></g><g><path fill="#434343" d="M139.05 42.984h1v-38h-1z"/></g><g><path fill="#434343" d="M140.05 43.984h2v-1h-2z"/></g><g><path fill="#434343" d="M142.05 42.984h1v-38h-1z"/></g><g><path fill="#434343" d="M148.05 3.984h-2v1h2z"/></g><g><path fill="#434343" d="M145.05 42.984h1v-38h-1z"/></g><g><path fill="#434343" d="M146.05 43.984h2v-1h-2z"/></g><g><path fill="#434343" d="M148.05 42.984h1v-38h-1z"/></g><g><path fill="#434343" d="M154.05 3.984h-2v1h2z"/></g><g><path fill="#434343" d="M151.05 42.984h1v-38h-1z"/></g><g><path fill="#434343" d="M152.05 43.984h2v-1h-2z"/></g><g><path fill="#434343" d="M154.05 42.984h1v-38h-1z"/></g><g><path fill="#434343" d="M160.05 3.984h-2v1h2z"/></g><g><path fill="#434343" d="M157.05 42.984h1v-38h-1z"/></g><g><path fill="#434343" d="M158.05 43.984h2v-1h-2z"/></g><g><path fill="#434343" d="M160.05 42.984h1v-38h-1z"/></g><g><path fill="#434343" d="M166.05 3.984h-2v1h2z"/></g><g><path fill="#434343" d="M163.05 42.984h1v-38h-1z"/></g><g><path fill="#434343" d="M164.05 43.984h2v-1h-2z"/></g><g><path fill="#434343" d="M166.05 42.984h1v-38h-1z"/></g><g><path fill="#434343" d="M172.05 3.984h-2v1h2z"/></g><g><path fill="#434343" d="M169.05 42.984h1v-38h-1z"/></g><g><path fill="#434343" d="M170.05 43.984h2v-1h-2z"/></g><g><path fill="#434343" d="M172.05 42.984h1v-38h-1z"/></g><g><path fill="#434343" d="M178.05 3.984h-2v1h2z"/></g><g><path fill="#434343" d="M175.05 42.984h1v-38h-1z"/></g><g><path fill="#434343" d="M176.05 43.984h2v-1h-2z"/></g><g><path fill="#434343" d="M178.05 42.984h1v-38h-1z"/></g><g><path fill="#434343" d="M184.05 3.984h-2v1h2z"/></g><g><path fill="#434343" d="M181.05 42.984h1v-38h-1z"/></g><g><path fill="#434343" d="M182.05 43.984h2v-1h-2z"/></g><g><path fill="#434343" d="M184.05 42.984h1v-38h-1z"/></g><g><path fill="#434343" d="M190.05 3.984h-2v1h2z"/></g><g><path fill="#434343" d="M187.05 42.984h1v-38h-1z"/></g><g><path fill="#434343" d="M188.05 43.984h2v-1h-2z"/></g><g><path fill="#434343" d="M190.05 42.984h1v-38h-1z"/></g><g><path fill="#434343" d="M196.05 3.984h-2v1h2z"/></g><g><path fill="#434343" d="M193.05 42.984h1v-38h-1z"/></g><g><path fill="#434343" d="M194.05 43.984h2v-1h-2z"/></g><g><path fill="#434343" d="M196.05 42.984h1v-38h-1z"/></g><g><path fill="#434343" d="M202.05 3.984h-2v1h2z"/></g><g><path fill="#434343" d="M199.05 42.984h1v-38h-1z"/></g><g><path fill="#434343" d="M200.05 43.984h2v-1h-2z"/></g><g><path fill="#434343" d="M202.05 42.984h1v-38h-1z"/></g><g><path fill="#434343" d="M207.05 2.984h1v-1h-1z"/></g><g><path fill="#434343" d="M209.05 4.984v6h1v4h-1v17h1v4h-1v7h1v5H.05v-5h2v-38h-2v-5h210v5zm-3-1h3v-3h-3zm-201-2h200v-1h-200zm-4 2h3v-3h-3zm3 40h-3v3h3zm-1-1h1v-38h-1zm202 3h-200v1h200zm0-43h-200v42h200zm4 41h-3v3h3zm-1-39h-2v38h2z"/></g><g><path fill="#434343" d="M208.05 44.984h-1v1h1z"/></g><g><path fill="#434343" d="M2.05 2.984h1v-1h-1z"/></g><g><path fill="#434343" d="M3.05 44.984h-1v1h1z"/></g></g></svg>