<svg width="24" height="24" fill="none" version="1.1" viewBox="0 0 24 24" xmlns="http://www.w3.org/2000/svg">
  <path d="m12.355 13.157-0.0118-0.2485c-0.0237-0.568 0.1657-1.0533 0.6272-1.5976 0.5089-0.5799 1.0296-1.1716 1.0296-2.0237 0-0.94675-0.6746-1.7988-2.142-1.7988-0.7456 0-1.432 0.21302-1.858 0.48521l0.355 1.0414c0.2959-0.22485 0.7693-0.35503 1.1835-0.35503 0.6627 0.01183 0.9704 0.34319 0.9704 0.84024 0 0.46153-0.2959 0.87578-0.7456 1.4083-0.5562 0.6746-0.7692 1.3254-0.71 1.9408l0.0236 0.3077zm-0.6745 2.5681c0.5444 0 0.8994-0.4024 0.8994-0.9231-0.0119-0.5444-0.3669-0.9231-0.8994-0.9231-0.5207 0-0.8994 0.3787-0.8994 0.9231 0 0.5207 0.3668 0.9231 0.8994 0.9231zm-6.6805-3.725c0-3.866 3.134-7 7-7 3.866 0 7 3.134 7 7 0 3.866-3.134 7-7 7-3.866 0-7-3.134-7-7zm7 8c4.4183 0 8-3.5817 8-8 0-4.4183-3.5817-8-8-8-4.4183 0-8 3.5817-8 8 0 4.4183 3.5817 8 8 8z" fill="#5baaf0"/>
</svg>
