<svg width="24" height="24" viewBox="0 0 24 24" fill="none" xmlns="http://www.w3.org/2000/svg">
<path d="M5.36595 4C4.81367 4 4.36595 4.44772 4.36595 5V8.11782C3.55836 8.50136 3 9.32444 3 10.2779C3 11.2314 3.55836 12.0545 4.36595 12.4381V19C4.36595 19.5523 4.81367 20 5.36595 20C5.91824 20 6.36595 19.5523 6.36595 19V12.4602C7.19938 12.087 7.78 11.2503 7.78 10.2779C7.78 9.30563 7.19938 8.46892 6.36595 8.09563V5C6.36595 4.44772 5.91824 4 5.36595 4Z" fill="#5BAAF0"/>
<path d="M11 5C11 4.44772 11.4477 4 12 4C12.5523 4 13 4.44772 13 5V11.8878C13.8205 12.2663 14.39 13.0963 14.39 14.0592C14.39 15.0221 13.8205 15.852 13 16.2306V19C13 19.5523 12.5523 20 12 20C11.4477 20 11 19.5523 11 19V16.2306C10.1794 15.8521 9.60998 15.0221 9.60998 14.0592C9.60998 13.0963 10.1794 12.2663 11 11.8878V5Z" fill="#5BAAF0"/>
<path d="M17.6343 5C17.6343 4.44772 18.082 4 18.6343 4C19.1865 4 19.6343 4.44772 19.6343 5V8.11814C20.4417 8.50188 21 9.325 21 10.2785C21 11.232 20.4417 12.0551 19.6343 12.4389V19C19.6343 19.5523 19.1865 20 18.6343 20C18.082 20 17.6343 19.5523 17.6343 19V12.4618C16.8001 12.0886 16.2189 11.2514 16.2189 10.2785C16.2189 9.30556 16.8001 8.46838 17.6343 8.09523V5Z" fill="#5BAAF0"/>
</svg>
