<svg width="24" height="24" viewBox="0 0 24 24" fill="none" xmlns="http://www.w3.org/2000/svg">
<path d="M20.872 13.7828C20.9902 13.582 21.0283 13.3459 20.979 13.1196C20.8695 12.6131 20.3627 12.2897 19.847 12.3972L16.3351 13.3756L13.6071 12L16.3351 10.6244L19.847 11.6028C20.3627 11.7103 20.8695 11.3869 20.979 10.8804C21.0884 10.3739 20.7591 9.87621 20.2435 9.76867L18.3359 9.48988L20.4685 8.28066C20.925 8.0218 21.0815 7.4484 20.8179 7C20.5543 6.5516 19.9705 6.39797 19.5139 6.65684L17.3814 7.86605L18.0894 6.10418C18.2524 5.61176 17.9781 5.08285 17.4768 4.92273C16.9754 4.76262 16.4368 5.03199 16.2738 5.52437L15.3806 9.00055L12.9546 10.3761V7.625L15.5732 5.12715C15.9259 4.7423 15.8941 4.14953 15.5023 3.80316C15.1104 3.4568 14.5068 3.48801 14.1542 3.87285L12.9546 5.35594V2.9375C12.9546 2.41973 12.5272 2 12 2C11.4728 2 11.0455 2.41973 11.0455 2.9375V5.35594L9.84586 3.87285C9.49313 3.48801 8.88965 3.45676 8.49779 3.80316C8.10593 4.14953 8.07419 4.7423 8.42684 5.12715L11.0454 7.625V10.3762L8.61945 9.00063L7.7262 5.52445C7.5632 5.03207 7.02461 4.7627 6.52326 4.92281C6.02191 5.08293 5.74765 5.61187 5.91066 6.10426L6.6186 7.86613L4.48605 6.65691C4.0295 6.39805 3.44571 6.55168 3.1821 7.00008C2.91849 7.44848 3.07494 8.02184 3.53149 8.28074L5.66404 9.48996L3.75649 9.76875C3.2408 9.87633 2.91149 10.374 3.02102 10.8805C3.13051 11.387 3.63732 11.7104 4.15301 11.6029L7.66489 10.6245L10.3928 12L7.66489 13.3756L4.15305 12.3973C3.63736 12.2897 3.13055 12.6131 3.02106 13.1196C2.91158 13.6261 3.24084 14.1238 3.75653 14.2314L5.66408 14.5102L3.53153 15.7194C3.07498 15.9782 2.91857 16.5516 3.18214 17C3.44571 17.4484 4.02954 17.602 4.48609 17.3432L6.61864 16.1339L5.9107 17.8958C5.82669 18.1486 5.85618 18.4242 5.99194 18.6547C6.10568 18.8482 6.2899 19.0027 6.52326 19.0772C7.02461 19.2373 7.5632 18.968 7.7262 18.4756L8.61945 14.9994L11.0454 13.6238V16.375L8.4268 18.8729C8.07411 19.2577 8.10589 19.8505 8.49775 20.1968C8.88965 20.5432 9.49313 20.512 9.84582 20.1271L11.0454 18.6441V21.0625C11.0454 21.5803 11.4728 22 12 22C12.5272 22 12.9545 21.5803 12.9545 21.0625V18.6441L14.1542 20.1271C14.3342 20.3246 14.5926 20.4376 14.864 20.4375C15.1002 20.4376 15.3279 20.3517 15.5022 20.1968C15.8941 19.8505 15.9259 19.2577 15.5732 18.8729L12.9545 16.375V13.6238L15.3805 14.9994L16.2738 18.4755C16.4368 18.9679 16.9754 19.2373 17.4767 19.0772C17.9781 18.9171 18.2523 18.3881 18.0893 17.8957L17.3813 16.1339L19.5139 17.3431C19.9704 17.602 20.5542 17.4483 20.8178 16.9999C21.0814 16.5515 20.925 15.9782 20.4684 15.7193L18.3359 14.51L20.2434 14.2312C20.5191 14.1739 20.7414 14.005 20.872 13.7828Z" fill="#5BAAF0"/>
</svg>
