<svg width="33" height="33" viewBox="0 0 33 33" fill="none" xmlns="http://www.w3.org/2000/svg">
<path d="M25.5 0.309082H7.5C3.634 0.309082 0.5 3.43916 0.5 7.30032V25.2778C0.5 29.139 3.634 32.269 7.5 32.269H25.5C29.366 32.269 32.5 29.139 32.5 25.2778V7.30032C32.5 3.43916 29.366 0.309082 25.5 0.309082Z" fill="#FF4B55"/>
<path d="M7.62628 5.75217L8.42141 8.13277L10.9345 8.15224C11.2599 8.15474 11.3948 8.56938 11.1331 8.76241L9.11134 10.2531L9.86941 12.6458C9.96753 12.9556 9.61434 13.2118 9.34959 13.0229L7.30497 11.5636L5.26034 13.0229C4.99566 13.2118 4.64241 12.9555 4.74053 12.6458L5.49859 10.2531L3.47684 8.76241C3.21509 8.56938 3.35003 8.1548 3.67541 8.15224L6.18853 8.13277L6.98366 5.75217C7.08672 5.44394 7.52334 5.44394 7.62628 5.75217Z" fill="#FFE15A"/>
<path d="M16.7523 6.33891L17.3224 7.11539L18.2426 6.82802C18.3617 6.79082 18.4597 6.92645 18.3868 7.02763L17.8235 7.80911L18.3815 8.59433C18.4538 8.69601 18.3548 8.83096 18.236 8.79301L17.3177 8.49952L16.7424 9.27213C16.6679 9.37219 16.5088 9.31994 16.5083 9.19529L16.504 8.23243L15.5905 7.92477C15.4722 7.88495 15.4728 7.71767 15.5913 7.67859L16.5069 7.37705L16.5176 6.41425C16.519 6.28954 16.6785 6.23835 16.7523 6.33891Z" fill="#FFE15A"/>
<path d="M13.281 4.02377L14.2395 4.12781L14.6484 3.25592C14.7013 3.14302 14.8677 3.16236 14.8932 3.28444L15.0903 4.22685L16.0471 4.34575C16.1709 4.36116 16.2039 4.52512 16.0956 4.58703L15.2589 5.06542L15.4413 6.01076C15.4649 6.13315 15.3189 6.21516 15.2265 6.1314L14.5123 5.48463L13.6683 5.95004C13.5591 6.01026 13.4359 5.89699 13.487 5.78327L13.8822 4.90514L13.1782 4.24739C13.0871 4.16232 13.1569 4.01029 13.281 4.02377Z" fill="#FFE15A"/>
<path d="M14.7962 13.3545L14.2261 14.131L13.3059 13.8436C13.1868 13.8064 13.0888 13.9421 13.1617 14.0433L13.725 14.8247L13.167 15.61C13.0947 15.7116 13.1936 15.8466 13.3125 15.8086L14.2308 15.5151L14.8061 16.2878C14.8806 16.3878 15.0397 16.3356 15.0402 16.2109L15.0445 15.2481L15.958 14.9404C16.0763 14.9006 16.0757 14.7333 15.9572 14.6943L15.0416 14.3927L15.0309 13.4299C15.0295 13.3052 14.87 13.254 14.7962 13.3545Z" fill="#FFE15A"/>
<path d="M18.2676 11.18L17.3091 11.2841L16.9002 10.4122C16.8473 10.2993 16.6809 10.3186 16.6554 10.4406L16.4583 11.3831L15.5015 11.502C15.3777 11.5174 15.3447 11.6813 15.453 11.7433L16.2897 12.2216L16.1073 13.167C16.0837 13.2894 16.2297 13.3714 16.3221 13.2877L17.0363 12.6409L17.8803 13.1063C17.9895 13.1665 18.1127 13.0532 18.0616 12.9395L17.6663 12.0614L18.3704 11.4036C18.4615 11.3186 18.3917 11.1666 18.2676 11.18Z" fill="#FFE15A"/>
</svg>
