<svg width="33" height="33" viewBox="0 0 33 33" fill="none" xmlns="http://www.w3.org/2000/svg">
<path d="M32.5699 7.68506H0.569946V10.1431H32.5699V7.68506Z" fill="#F5F5F5"/>
<path d="M30.8989 2.76904H2.24094C1.63419 3.47948 1.16725 4.31251 0.883255 5.22607H32.2566C31.9726 4.31251 31.5057 3.47948 30.8989 2.76904Z" fill="#F5F5F5"/>
<path d="M32.5699 12.6011H0.569946V15.0591H32.5699V12.6011Z" fill="#F5F5F5"/>
<path d="M32.5699 17.5171H0.569946V19.9761H32.5699V17.5171Z" fill="#F5F5F5"/>
<path d="M32.5699 22.436H0.569946V24.8931H32.5699V22.436Z" fill="#F5F5F5"/>
<path d="M32.2566 27.3521H0.883255C1.16719 28.266 1.63419 29.0993 2.24094 29.8101H30.8989C31.5057 29.0993 31.9726 28.266 32.2566 27.3521Z" fill="#F5F5F5"/>
<path d="M25.5699 0.310059H7.56994C5.43569 0.310059 3.52487 1.2645 2.24094 2.76904H30.8989C29.615 1.2645 27.7042 0.310059 25.5699 0.310059Z" fill="#FF4B55"/>
<path d="M32.5699 10.1431H0.569946V12.6011H32.5699V10.1431Z" fill="#FF4B55"/>
<path d="M32.5699 7.30083C32.5699 6.57838 32.4603 5.88159 32.2566 5.22607H0.883259C0.679634 5.88159 0.569946 6.57838 0.569946 7.30083V7.68506H32.5699V7.30083Z" fill="#FF4B55"/>
<path d="M32.5699 15.0601H0.569946V17.5171H32.5699V15.0601Z" fill="#FF4B55"/>
<path d="M32.5699 25.2773V24.8931H0.569946V25.2773C0.569946 25.9997 0.679634 26.6965 0.883259 27.3521H32.2566C32.4603 26.6965 32.5699 25.9997 32.5699 25.2773Z" fill="#FF4B55"/>
<path d="M30.8989 29.8101H2.24094C3.52487 31.314 5.43569 32.2681 7.56994 32.2681H25.5699C27.7042 32.2681 29.615 31.314 30.8989 29.8101Z" fill="#FF4B55"/>
<path d="M32.5699 19.9771H0.569946V22.4351H32.5699V19.9771Z" fill="#FF4B55"/>
<path d="M17.8007 0.310059H7.56994C3.70395 0.310059 0.569946 3.43974 0.569946 7.30042V17.5171H17.8007V0.310059Z" fill="#41479B"/>
<path d="M2.42907 2.99831C2.41269 3.05012 2.47163 3.093 2.51588 3.06137L2.85732 2.81737L3.19876 3.06137C3.24294 3.093 3.30194 3.05012 3.28557 2.99831L3.15901 2.59818L3.49663 2.34887C3.54032 2.31656 3.51782 2.24725 3.46344 2.24681L3.04382 2.24356L2.97219 2.02881C2.79232 2.18562 2.62076 2.35162 2.45782 2.52581L2.55576 2.59818L2.42907 2.99831Z" fill="#F5F5F5"/>
<path d="M2.91094 5.16318L3.04369 5.56131L3.46332 5.56456C3.51763 5.565 3.54019 5.63431 3.49651 5.66662L3.15888 5.91593L3.28544 6.31606C3.30182 6.36787 3.24288 6.41068 3.19863 6.37912L2.85719 6.13506L2.51576 6.37912C2.47157 6.41075 2.41257 6.36787 2.42894 6.31606L2.55551 5.91593L2.21788 5.66662C2.17419 5.63437 2.19669 5.565 2.25101 5.56456L2.67063 5.56131L2.80338 5.16318C2.82082 5.11162 2.89376 5.11162 2.91094 5.16318Z" fill="#F5F5F5"/>
<path d="M2.91094 8.84184L3.0437 9.23943L3.46332 9.24267C3.51763 9.24311 3.5402 9.31233 3.49651 9.3446L3.15888 9.59357L3.28545 9.99315C3.30182 10.0449 3.24288 10.0877 3.19863 10.0561L2.85719 9.81246L2.51576 10.0561C2.47157 10.0877 2.41257 10.0449 2.42894 9.99315L2.55551 9.59357L2.21788 9.3446C2.17419 9.31239 2.19669 9.24311 2.25101 9.24267L2.67063 9.23943L2.80338 8.84184C2.82082 8.79035 2.89376 8.79035 2.91094 8.84184Z" fill="#F5F5F5"/>
<path d="M2.91094 12.2217L3.0437 12.6193L3.46332 12.6226C3.51763 12.623 3.5402 12.6922 3.49651 12.7245L3.15888 12.9735L3.28545 13.373C3.30182 13.4248 3.24288 13.4675 3.19863 13.436L2.85719 13.1923L2.51576 13.436C2.47157 13.4675 2.41257 13.4248 2.42894 13.373L2.55551 12.9735L2.21788 12.7245C2.17419 12.6923 2.19669 12.623 2.25101 12.6226L2.67063 12.6193L2.80338 12.2217C2.82082 12.1702 2.89376 12.1702 2.91094 12.2217Z" fill="#F5F5F5"/>
<path d="M2.91094 15.2969L3.0437 15.6945L3.46332 15.6978C3.51763 15.6982 3.5402 15.7674 3.49651 15.7997L3.15888 16.0486L3.28545 16.4482C3.30182 16.5 3.24288 16.5427 3.19863 16.5112L2.85719 16.2675L2.51576 16.5112C2.47157 16.5427 2.41257 16.5 2.42894 16.4482L2.55551 16.0486L2.21788 15.7997C2.17419 15.7675 2.19669 15.6982 2.25101 15.6978L2.67063 15.6945L2.80338 15.2969C2.82082 15.2454 2.89376 15.2454 2.91094 15.2969Z" fill="#F5F5F5"/>
<path d="M4.52737 3.41704L4.66012 3.81464L5.07975 3.81788C5.13406 3.81832 5.15662 3.88754 5.11293 3.91975L4.77531 4.16873L4.90187 4.56832C4.91825 4.62006 4.85931 4.66288 4.81506 4.6313L4.47375 4.38756L4.13231 4.6313C4.08813 4.66288 4.02913 4.62006 4.0455 4.56832L4.17206 4.16873L3.8345 3.91975C3.79082 3.88754 3.81332 3.81826 3.86763 3.81788L4.28725 3.81464L4.42 3.41704C4.43725 3.36554 4.51019 3.36554 4.52737 3.41704Z" fill="#F5F5F5"/>
<path d="M4.52738 7.09575L4.66013 7.49332L5.07976 7.49657C5.13407 7.49701 5.15664 7.56622 5.11295 7.59849L4.77532 7.84746L4.90189 8.24704C4.91826 8.29878 4.85932 8.34159 4.81507 8.31001L4.47363 8.06628L4.13219 8.31001C4.08801 8.34159 4.02901 8.29878 4.04538 8.24704L4.17195 7.84746L3.83438 7.59849C3.79069 7.56629 3.81319 7.49701 3.86751 7.49657L4.28713 7.49332L4.41988 7.09575C4.43726 7.04426 4.5102 7.04426 4.52738 7.09575Z" fill="#F5F5F5"/>
<path d="M4.52738 10.5908L4.66013 10.9881L5.07976 10.9913C5.13407 10.9918 5.15664 11.0609 5.11295 11.0932L4.77532 11.3419L4.90189 11.7412C4.91826 11.7929 4.85932 11.8357 4.81507 11.8042L4.47363 11.5606L4.13219 11.8042C4.08801 11.8357 4.02901 11.7929 4.04538 11.7412L4.17195 11.3419L3.83438 11.0932C3.79069 11.061 3.81319 10.9918 3.86751 10.9913L4.28713 10.9881L4.41988 10.5908C4.43726 10.5394 4.5102 10.5394 4.52738 10.5908Z" fill="#F5F5F5"/>
<path d="M4.52738 13.7295L4.66013 14.1268L5.07976 14.13C5.13407 14.1305 5.15664 14.1996 5.11295 14.2319L4.77532 14.4806L4.90189 14.8799C4.91826 14.9316 4.85932 14.9744 4.81507 14.9428L4.47363 14.6994L4.13219 14.9428C4.08801 14.9744 4.02901 14.9316 4.04538 14.8799L4.17195 14.4806L3.83438 14.2319C3.79069 14.1997 3.81319 14.1305 3.86751 14.13L4.28713 14.1268L4.41988 13.7295C4.43726 13.6781 4.5102 13.6781 4.52738 13.7295Z" fill="#F5F5F5"/>
<path d="M6.14382 1.84668L6.27657 2.24429L6.6962 2.24754C6.75051 2.24797 6.77308 2.3172 6.72939 2.34941L6.39176 2.5984L6.51833 2.99801C6.5347 3.04975 6.47576 3.09251 6.43151 3.06099L6.09007 2.81724L5.74863 3.06099C5.70445 3.09257 5.64545 3.04975 5.66182 2.99801L5.78838 2.5984L5.45082 2.34941C5.40713 2.3172 5.42963 2.24791 5.48395 2.24754L5.90357 2.24429L6.03632 1.84668C6.0537 1.79525 6.12664 1.79525 6.14382 1.84668Z" fill="#F5F5F5"/>
<path d="M6.14382 5.16318L6.27657 5.56131L6.6962 5.56456C6.75051 5.565 6.77307 5.63431 6.72938 5.66662L6.39176 5.91593L6.51832 6.31606C6.5347 6.36787 6.47576 6.41068 6.43151 6.37912L6.09007 6.13506L5.74863 6.37912C5.70445 6.41075 5.64545 6.36787 5.66182 6.31606L5.78838 5.91593L5.45082 5.66662C5.40713 5.63437 5.42963 5.565 5.48395 5.56456L5.90357 5.56131L6.03632 5.16318C6.0537 5.11162 6.12663 5.11162 6.14382 5.16318Z" fill="#F5F5F5"/>
<path d="M6.14382 8.84184L6.27657 9.23943L6.6962 9.24267C6.75051 9.24311 6.77308 9.31233 6.72939 9.3446L6.39176 9.59357L6.51833 9.99315C6.5347 10.0449 6.47576 10.0877 6.43151 10.0561L6.09007 9.81246L5.74863 10.0561C5.70445 10.0877 5.64545 10.0449 5.66182 9.99315L5.78838 9.59357L5.45082 9.3446C5.40713 9.31239 5.42963 9.24311 5.48395 9.24267L5.90357 9.23943L6.03632 8.84184C6.0537 8.79035 6.12664 8.79035 6.14382 8.84184Z" fill="#F5F5F5"/>
<path d="M6.14382 12.2217L6.27657 12.6193L6.6962 12.6226C6.75051 12.623 6.77308 12.6922 6.72939 12.7245L6.39176 12.9735L6.51833 13.373C6.5347 13.4248 6.47576 13.4675 6.43151 13.436L6.09007 13.1923L5.74863 13.436C5.70445 13.4675 5.64545 13.4248 5.66182 13.373L5.78838 12.9735L5.45082 12.7245C5.40713 12.6923 5.42963 12.623 5.48395 12.6226L5.90357 12.6193L6.03632 12.2217C6.0537 12.1702 6.12664 12.1702 6.14382 12.2217Z" fill="#F5F5F5"/>
<path d="M6.14382 15.2969L6.27657 15.6945L6.6962 15.6978C6.75051 15.6982 6.77308 15.7674 6.72939 15.7997L6.39176 16.0486L6.51833 16.4482C6.5347 16.5 6.47576 16.5427 6.43151 16.5112L6.09007 16.2675L5.74863 16.5112C5.70445 16.5427 5.64545 16.5 5.66182 16.4482L5.78838 16.0486L5.45082 15.7997C5.40713 15.7675 5.42963 15.6982 5.48395 15.6978L5.90357 15.6945L6.03632 15.2969C6.0537 15.2454 6.12664 15.2454 6.14382 15.2969Z" fill="#F5F5F5"/>
<path d="M7.76025 3.41704L7.893 3.81464L8.31263 3.81788C8.36694 3.81832 8.3895 3.88754 8.34575 3.91975L8.00819 4.16873L8.13475 4.56832C8.15113 4.62006 8.09219 4.66288 8.04794 4.6313L7.70651 4.38756L7.36507 4.6313C7.32088 4.66288 7.26188 4.62006 7.27826 4.56832L7.40482 4.16873L7.0672 3.91975C7.02351 3.88754 7.04601 3.81826 7.10038 3.81788L7.52001 3.81464L7.65276 3.41704C7.67019 3.36554 7.74307 3.36554 7.76025 3.41704Z" fill="#F5F5F5"/>
<path d="M7.76025 7.09575L7.893 7.49332L8.31263 7.49657C8.36694 7.49701 8.3895 7.56622 8.34575 7.59849L8.00819 7.84746L8.13475 8.24704C8.15113 8.29878 8.09219 8.34159 8.04794 8.31001L7.70651 8.06628L7.36507 8.31001C7.32088 8.34159 7.26188 8.29878 7.27826 8.24704L7.40482 7.84746L7.0672 7.59849C7.02351 7.56629 7.04601 7.49701 7.10038 7.49657L7.52001 7.49332L7.65276 7.09575C7.67019 7.04426 7.74307 7.04426 7.76025 7.09575Z" fill="#F5F5F5"/>
<path d="M7.76025 10.5908L7.893 10.9881L8.31263 10.9913C8.36694 10.9918 8.3895 11.0609 8.34575 11.0932L8.00819 11.3419L8.13475 11.7412C8.15113 11.7929 8.09219 11.8357 8.04794 11.8042L7.70651 11.5606L7.36507 11.8042C7.32088 11.8357 7.26188 11.7929 7.27826 11.7412L7.40482 11.3419L7.0672 11.0932C7.02351 11.061 7.04601 10.9918 7.10038 10.9913L7.52001 10.9881L7.65276 10.5908C7.67019 10.5394 7.74307 10.5394 7.76025 10.5908Z" fill="#F5F5F5"/>
<path d="M7.76025 13.7295L7.893 14.1268L8.31263 14.13C8.36694 14.1305 8.3895 14.1996 8.34575 14.2319L8.00819 14.4806L8.13475 14.8799C8.15113 14.9316 8.09219 14.9744 8.04794 14.9428L7.70651 14.6994L7.36507 14.9428C7.32088 14.9744 7.26188 14.9316 7.27826 14.8799L7.40482 14.4806L7.0672 14.2319C7.02351 14.1997 7.04601 14.1305 7.10038 14.13L7.52001 14.1268L7.65276 13.7295C7.67019 13.6781 7.74307 13.6781 7.76025 13.7295Z" fill="#F5F5F5"/>
<path d="M9.37669 1.84668L9.50944 2.24429L9.92907 2.24754C9.98338 2.24797 10.0059 2.3172 9.96219 2.34941L9.62463 2.5984L9.75119 2.99801C9.76757 3.04975 9.70863 3.09251 9.66438 3.06099L9.32294 2.81724L8.98151 3.06099C8.93732 3.09257 8.87832 3.04975 8.8947 2.99801L9.02126 2.5984L8.6837 2.34941C8.64001 2.3172 8.66251 2.24791 8.71688 2.24754L9.13651 2.24429L9.26926 1.84668C9.28663 1.79525 9.35951 1.79525 9.37669 1.84668Z" fill="#F5F5F5"/>
<path d="M9.37669 5.16314L9.50944 5.56073L9.92907 5.56398C9.98338 5.56442 10.0059 5.63364 9.96219 5.66591L9.62463 5.91489L9.75125 6.31442C9.76763 6.36616 9.70869 6.40891 9.66444 6.37739L9.32301 6.13366L8.98157 6.37739C8.93738 6.40898 8.87838 6.36616 8.89476 6.31442L9.02132 5.91482L8.68376 5.66584C8.64007 5.63364 8.66257 5.56435 8.71695 5.56392L9.13657 5.56067L9.26932 5.16308C9.28663 5.11165 9.35951 5.11165 9.37669 5.16314Z" fill="#F5F5F5"/>
<path d="M9.37669 8.84184L9.50944 9.23943L9.92907 9.24267C9.98338 9.24311 10.0059 9.31233 9.96219 9.3446L9.62463 9.59357L9.75119 9.99315C9.76757 10.0449 9.70863 10.0877 9.66438 10.0561L9.32294 9.81246L8.98151 10.0561C8.93732 10.0877 8.87832 10.0449 8.8947 9.99315L9.02126 9.59357L8.6837 9.3446C8.64001 9.31239 8.66251 9.24311 8.71688 9.24267L9.13651 9.23943L9.26926 8.84184C9.28663 8.79035 9.35951 8.79035 9.37669 8.84184Z" fill="#F5F5F5"/>
<path d="M9.37669 12.2217L9.50944 12.6193L9.92907 12.6226C9.98338 12.623 10.0059 12.6922 9.96219 12.7245L9.62463 12.9735L9.75119 13.373C9.76757 13.4248 9.70863 13.4675 9.66438 13.436L9.32294 13.1923L8.98151 13.436C8.93732 13.4675 8.87832 13.4248 8.8947 13.373L9.02126 12.9735L8.6837 12.7245C8.64001 12.6923 8.66251 12.623 8.71688 12.6226L9.13651 12.6193L9.26926 12.2217C9.28663 12.1702 9.35951 12.1702 9.37669 12.2217Z" fill="#F5F5F5"/>
<path d="M9.37669 15.2969L9.50944 15.6945L9.92907 15.6978C9.98338 15.6982 10.0059 15.7674 9.96219 15.7997L9.62463 16.0486L9.75119 16.4482C9.76757 16.5 9.70863 16.5427 9.66438 16.5112L9.32294 16.2675L8.98151 16.5112C8.93732 16.5427 8.87832 16.5 8.8947 16.4482L9.02126 16.0486L8.6837 15.7997C8.64001 15.7675 8.66251 15.6982 8.71688 15.6978L9.13651 15.6945L9.26926 15.2969C9.28663 15.2454 9.35951 15.2454 9.37669 15.2969Z" fill="#F5F5F5"/>
<path d="M10.9931 3.41704L11.1259 3.81464L11.5455 3.81788C11.5998 3.81832 11.6224 3.88754 11.5786 3.91975L11.241 4.16873L11.3676 4.56832C11.3839 4.62006 11.3249 4.66288 11.2808 4.6313L10.9393 4.38756L10.5979 4.6313C10.5537 4.66288 10.4947 4.62006 10.5111 4.56832L10.6376 4.16873L10.3001 3.91975C10.2564 3.88754 10.2789 3.81826 10.3332 3.81788L10.7528 3.81464L10.8856 3.41704C10.9031 3.36554 10.9759 3.36554 10.9931 3.41704Z" fill="#F5F5F5"/>
<path d="M10.9931 7.09575L11.1259 7.49332L11.5455 7.49657C11.5998 7.49701 11.6224 7.56622 11.5786 7.59849L11.241 7.84746L11.3676 8.24704C11.3839 8.29878 11.3249 8.34159 11.2808 8.31001L10.9393 8.06628L10.5979 8.31001C10.5537 8.34159 10.4947 8.29878 10.5111 8.24704L10.6376 7.84746L10.3001 7.59849C10.2564 7.56629 10.2789 7.49701 10.3332 7.49657L10.7528 7.49332L10.8856 7.09575C10.9031 7.04426 10.9759 7.04426 10.9931 7.09575Z" fill="#F5F5F5"/>
<path d="M10.9931 10.5908L11.1259 10.9881L11.5455 10.9913C11.5998 10.9918 11.6224 11.0609 11.5786 11.0932L11.241 11.3419L11.3676 11.7412C11.3839 11.7929 11.3249 11.8357 11.2808 11.8042L10.9393 11.5606L10.5979 11.8042C10.5537 11.8357 10.4947 11.7929 10.5111 11.7412L10.6376 11.3419L10.3001 11.0932C10.2564 11.061 10.2789 10.9918 10.3332 10.9913L10.7528 10.9881L10.8856 10.5908C10.9031 10.5394 10.9759 10.5394 10.9931 10.5908Z" fill="#F5F5F5"/>
<path d="M10.9931 13.7295L11.1259 14.1268L11.5455 14.13C11.5998 14.1305 11.6224 14.1996 11.5786 14.2319L11.241 14.4806L11.3676 14.8799C11.3839 14.9316 11.3249 14.9744 11.2808 14.9428L10.9393 14.6994L10.5979 14.9428C10.5537 14.9744 10.4947 14.9316 10.5111 14.8799L10.6376 14.4806L10.3001 14.2319C10.2564 14.1997 10.2789 14.1305 10.3332 14.13L10.7528 14.1268L10.8856 13.7295C10.9031 13.6781 10.9759 13.6781 10.9931 13.7295Z" fill="#F5F5F5"/>
<path d="M12.6096 1.84668L12.7423 2.24429L13.1619 2.24754C13.2163 2.24797 13.2388 2.3172 13.1951 2.34941L12.8574 2.5984L12.984 2.99801C13.0004 3.04975 12.9414 3.09251 12.8972 3.06099L12.5558 2.81724L12.2143 3.06099C12.1701 3.09257 12.1111 3.04975 12.1275 2.99801L12.2541 2.5984L11.9164 2.34941C11.8728 2.3172 11.8953 2.24791 11.9496 2.24754L12.3693 2.24429L12.502 1.84668C12.5195 1.79525 12.5924 1.79525 12.6096 1.84668Z" fill="#F5F5F5"/>
<path d="M12.6096 5.16318L12.7423 5.56131L13.1619 5.56456C13.2163 5.565 13.2388 5.63431 13.1951 5.66662L12.8574 5.91593L12.984 6.31606C13.0004 6.36787 12.9414 6.41068 12.8972 6.37912L12.5558 6.13506L12.2143 6.37912C12.1701 6.41075 12.1111 6.36787 12.1275 6.31606L12.2541 5.91593L11.9164 5.66662C11.8728 5.63437 11.8953 5.565 11.9496 5.56456L12.3693 5.56131L12.502 5.16318C12.5195 5.11162 12.5924 5.11162 12.6096 5.16318Z" fill="#F5F5F5"/>
<path d="M12.6096 8.84184L12.7423 9.23943L13.1619 9.24267C13.2163 9.24311 13.2388 9.31233 13.1951 9.3446L12.8574 9.59357L12.984 9.99315C13.0004 10.0449 12.9414 10.0877 12.8972 10.0561L12.5558 9.81246L12.2143 10.0561C12.1701 10.0877 12.1111 10.0449 12.1275 9.99315L12.2541 9.59357L11.9164 9.3446C11.8728 9.31239 11.8953 9.24311 11.9496 9.24267L12.3693 9.23943L12.502 8.84184C12.5195 8.79035 12.5924 8.79035 12.6096 8.84184Z" fill="#F5F5F5"/>
<path d="M12.6096 12.2217L12.7423 12.6193L13.1619 12.6226C13.2163 12.623 13.2388 12.6922 13.1951 12.7245L12.8574 12.9735L12.984 13.373C13.0004 13.4248 12.9414 13.4675 12.8972 13.436L12.5558 13.1923L12.2143 13.436C12.1701 13.4675 12.1111 13.4248 12.1275 13.373L12.2541 12.9735L11.9164 12.7245C11.8728 12.6923 11.8953 12.623 11.9496 12.6226L12.3693 12.6193L12.502 12.2217C12.5195 12.1702 12.5924 12.1702 12.6096 12.2217Z" fill="#F5F5F5"/>
<path d="M12.6096 15.2969L12.7423 15.6945L13.1619 15.6978C13.2163 15.6982 13.2388 15.7674 13.1951 15.7997L12.8574 16.0486L12.984 16.4482C13.0004 16.5 12.9414 16.5427 12.8972 16.5112L12.5558 16.2675L12.2143 16.5112C12.1701 16.5427 12.1111 16.5 12.1275 16.4482L12.2541 16.0486L11.9164 15.7997C11.8728 15.7675 11.8953 15.6982 11.9496 15.6978L12.3693 15.6945L12.502 15.2969C12.5195 15.2454 12.5924 15.2454 12.6096 15.2969Z" fill="#F5F5F5"/>
<path d="M14.226 3.41704L14.3588 3.81464L14.7784 3.81788C14.8328 3.81832 14.8553 3.88754 14.8116 3.91975L14.4739 4.16873L14.6005 4.56832C14.6169 4.62006 14.5579 4.66288 14.5137 4.6313L14.1723 4.38756L13.8308 4.6313C13.7866 4.66288 13.7276 4.62006 13.744 4.56832L13.8706 4.16873L13.5329 3.91975C13.4893 3.88754 13.5118 3.81826 13.5661 3.81788L13.9858 3.81464L14.1185 3.41704C14.1359 3.36554 14.2088 3.36554 14.226 3.41704Z" fill="#F5F5F5"/>
<path d="M14.226 7.09575L14.3588 7.49332L14.7784 7.49657C14.8328 7.49701 14.8553 7.56622 14.8116 7.59849L14.4739 7.84746L14.6005 8.24704C14.6169 8.29878 14.5579 8.34159 14.5137 8.31001L14.1723 8.06628L13.8308 8.31001C13.7866 8.34159 13.7276 8.29878 13.744 8.24704L13.8706 7.84746L13.5329 7.59849C13.4893 7.56629 13.5118 7.49701 13.5661 7.49657L13.9858 7.49332L14.1185 7.09575C14.1359 7.04426 14.2088 7.04426 14.226 7.09575Z" fill="#F5F5F5"/>
<path d="M14.226 10.5908L14.3588 10.9881L14.7784 10.9913C14.8328 10.9918 14.8553 11.0609 14.8116 11.0932L14.4739 11.3419L14.6005 11.7412C14.6169 11.7929 14.5579 11.8357 14.5137 11.8042L14.1723 11.5606L13.8308 11.8042C13.7866 11.8357 13.7276 11.7929 13.744 11.7412L13.8706 11.3419L13.5329 11.0932C13.4893 11.061 13.5118 10.9918 13.5661 10.9913L13.9858 10.9881L14.1185 10.5908C14.1359 10.5394 14.2088 10.5394 14.226 10.5908Z" fill="#F5F5F5"/>
<path d="M14.226 13.7295L14.3588 14.1268L14.7784 14.13C14.8328 14.1305 14.8553 14.1996 14.8116 14.2319L14.4739 14.4806L14.6005 14.8799C14.6169 14.9316 14.5579 14.9744 14.5137 14.9428L14.1723 14.6994L13.8308 14.9428C13.7866 14.9744 13.7276 14.9316 13.744 14.8799L13.8706 14.4806L13.5329 14.2319C13.4893 14.1997 13.5118 14.1305 13.5661 14.13L13.9858 14.1268L14.1185 13.7295C14.1359 13.6781 14.2088 13.6781 14.226 13.7295Z" fill="#F5F5F5"/>
<path d="M15.8424 1.84668L15.9752 2.24429L16.3948 2.24754C16.4491 2.24797 16.4717 2.3172 16.428 2.34941L16.0904 2.5984L16.2169 2.99801C16.2333 3.04975 16.1743 3.09251 16.1301 3.06099L15.7887 2.81724L15.4473 3.06099C15.4031 3.09257 15.3441 3.04975 15.3604 2.99801L15.487 2.5984L15.1494 2.34941C15.1057 2.3172 15.1282 2.24791 15.1825 2.24754L15.6021 2.24429L15.7349 1.84668C15.7524 1.79525 15.8253 1.79525 15.8424 1.84668Z" fill="#F5F5F5"/>
<path d="M15.8424 5.16318L15.9752 5.56131L16.3948 5.56456C16.4491 5.565 16.4717 5.63431 16.428 5.66662L16.0904 5.91593L16.2169 6.31606C16.2333 6.36787 16.1743 6.41068 16.1301 6.37912L15.7887 6.13506L15.4473 6.37912C15.4031 6.41075 15.3441 6.36787 15.3604 6.31606L15.487 5.91593L15.1494 5.66662C15.1057 5.63437 15.1282 5.565 15.1825 5.56456L15.6021 5.56131L15.7349 5.16318C15.7524 5.11162 15.8253 5.11162 15.8424 5.16318Z" fill="#F5F5F5"/>
<path d="M15.8424 8.84184L15.9752 9.23943L16.3948 9.24267C16.4491 9.24311 16.4717 9.31233 16.428 9.3446L16.0904 9.59357L16.2169 9.99315C16.2333 10.0449 16.1743 10.0877 16.1301 10.0561L15.7887 9.81246L15.4473 10.0561C15.4031 10.0877 15.3441 10.0449 15.3604 9.99315L15.487 9.59357L15.1494 9.3446C15.1057 9.31239 15.1282 9.24311 15.1825 9.24267L15.6021 9.23943L15.7349 8.84184C15.7524 8.79035 15.8253 8.79035 15.8424 8.84184Z" fill="#F5F5F5"/>
<path d="M15.8424 12.2217L15.9752 12.6193L16.3948 12.6226C16.4491 12.623 16.4717 12.6922 16.428 12.7245L16.0904 12.9735L16.2169 13.373C16.2333 13.4248 16.1743 13.4675 16.1301 13.436L15.7887 13.1923L15.4473 13.436C15.4031 13.4675 15.3441 13.4248 15.3604 13.373L15.487 12.9735L15.1494 12.7245C15.1057 12.6923 15.1282 12.623 15.1825 12.6226L15.6021 12.6193L15.7349 12.2217C15.7524 12.1702 15.8253 12.1702 15.8424 12.2217Z" fill="#F5F5F5"/>
<path d="M15.8424 15.2969L15.9752 15.6945L16.3948 15.6978C16.4491 15.6982 16.4717 15.7674 16.428 15.7997L16.0904 16.0486L16.2169 16.4482C16.2333 16.5 16.1743 16.5427 16.1301 16.5112L15.7887 16.2675L15.4473 16.5112C15.4031 16.5427 15.3441 16.5 15.3604 16.4482L15.487 16.0486L15.1494 15.7997C15.1057 15.7675 15.1282 15.6982 15.1825 15.6978L15.6021 15.6945L15.7349 15.2969C15.7524 15.2454 15.8253 15.2454 15.8424 15.2969Z" fill="#F5F5F5"/>
</svg>
