<svg width="36" height="36" viewBox="0 0 36 36" fill="none" xmlns="http://www.w3.org/2000/svg">
<path fill-rule="evenodd" clip-rule="evenodd" d="M7.0474 19.8906C7.0474 11.9219 16.7545 10.8516 20.6679 10.7109C20.6679 10.3887 20.6725 10.0746 20.677 9.77045L20.677 9.77025V9.77007C20.715 7.17598 20.7424 5.30551 17.8153 5.3125C17.8153 5.3125 14.7697 5.3125 13.4599 9.17969L7.55365 8.64844C7.55365 4.79687 11.3063 0.5 18.3778 0.5C25.4331 0.5 27.4019 4.95312 27.4019 6.92969V18.4219C27.4019 20.5703 29.9974 22.5469 29.9974 22.5469L25.4331 26.9219C24.6376 26.1953 22.3153 24.0625 21.7929 23.2656C18.1608 28.7969 7.0474 28.4453 7.0474 19.8906ZM13.9019 18.8359C13.9019 22.8047 20.6679 23.7422 20.6679 17.4922V14.3203C17.9599 14.4062 13.9019 15.1484 13.9019 18.8359ZM31.5965 30.2655C30.9778 31.0468 25.9715 35.4999 17.5742 35.4999C9.1769 35.4999 2.74833 29.914 0.779582 27.6093C0.233153 27.0077 0.859939 26.7265 1.22155 26.9609L1.54454 27.1517C7.44653 30.6405 16.5812 36.0403 31.1546 29.328C31.7573 29.039 32.2233 29.4843 31.5965 30.2655ZM33.0911 32.8594C33.509 32.5313 34.2724 31.6719 34.7947 30.4375C35.317 29.1875 35.6143 27.4688 35.317 27.0703C34.9152 26.5625 32.8822 26.4844 31.6206 26.625C30.3509 26.7813 28.4224 27.5469 28.6072 27.9922C28.6685 28.1293 28.786 28.1163 29.224 28.0677C29.3599 28.0526 29.5267 28.0341 29.7322 28.0156C29.8018 28.0089 29.881 28.0007 29.9683 27.9917C30.99 27.8865 33.1081 27.6683 33.5893 28.2656C34.1197 28.9297 32.8099 32.0547 32.5688 32.5625C32.3277 33.0703 32.6491 33.211 33.0911 32.8594Z" fill="#7E99D0"/>
</svg>
