<svg width="40" height="36" viewBox="0 0 40 36" fill="none" xmlns="http://www.w3.org/2000/svg">
<path fill-rule="evenodd" clip-rule="evenodd" d="M38.125 8H1.875C0.839453 8 0 7.16055 0 6.125V2.375C0 1.33945 0.839453 0.5 1.875 0.5H38.125C39.1605 0.5 40 1.33945 40 2.375V6.125C40 7.16055 39.1605 8 38.125 8ZM37.5 33.625V12.375C37.5 11.3395 36.6605 10.5 35.625 10.5H4.375C3.33945 10.5 2.5 11.3395 2.5 12.375V33.625C2.5 34.6605 3.33945 35.5 4.375 35.5H35.625C36.6605 35.5 37.5 34.6605 37.5 33.625ZM15.9375 18H24.0625C24.5802 18 25 17.5802 25 17.0625V16.4375C25 15.9198 24.5802 15.5 24.0625 15.5H15.9375C15.4198 15.5 15 15.9198 15 16.4375V17.0625C15 17.5802 15.4198 18 15.9375 18Z" fill="#7E99D0"/>
</svg>
