<svg width="36" height="36" viewBox="0 0 36 36" fill="none" xmlns="http://www.w3.org/2000/svg">
<path d="M15.3063 3.22656L17.0901 1.49219C17.8453 0.757812 19.0666 0.757812 19.8139 1.49219L35.4335 16.6719C36.1888 17.4062 36.1888 18.5938 35.4335 19.3203L19.8139 34.5078C19.0586 35.2422 17.8373 35.2422 17.0901 34.5078L15.3063 32.7734C14.543 32.0312 14.5591 30.8203 15.3385 30.0938L25.0204 21.125H1.92836C0.859725 21.125 0 20.2891 0 19.25V16.75C0 15.7109 0.859725 14.875 1.92836 14.875H25.0204L15.3385 5.90625C14.5511 5.17969 14.535 3.96875 15.3063 3.22656Z" fill="#AAAAAA"/>
</svg>
