<svg width="40" height="32" viewBox="0 0 40 32" fill="none" xmlns="http://www.w3.org/2000/svg">
<path fill-rule="evenodd" clip-rule="evenodd" d="M8.3234 21.9173C10.4842 22.7566 12.9445 23.2321 15.5555 23.2321C24.146 23.2321 31.111 18.0926 31.1111 11.7411C31.1111 5.39399 24.146 0.25 15.5555 0.25C6.96507 0.25 0 5.39406 0 11.7411C0 14.3562 1.1816 16.7654 3.17042 18.6956C2.73169 21.7218 1.68691 22.6913 0.728485 23.5806C0.606754 23.6935 0.486415 23.8052 0.368889 23.9196C0.350945 23.937 0.332986 23.9541 0.315187 23.9711C0.123708 24.1538 -0.0493506 24.319 0.0129167 24.5738C0.0758333 24.8244 0.310208 25 0.569652 25C0.590297 25 0.610926 24.9989 0.631458 24.9967C3.47139 24.6952 6.14458 23.6434 8.3234 21.9173ZM39.3234 30.4595C39.4365 30.5623 39.5482 30.6638 39.6574 30.7678C39.6741 30.7836 39.6908 30.7992 39.7073 30.8147C39.8851 30.9808 40.0457 31.131 39.9879 31.3626C39.9249 31.6083 39.6765 31.7748 39.4136 31.747C36.7764 31.4729 34.2942 30.5167 32.271 28.9476C30.2645 29.7106 27.98 30.1429 25.5554 30.1429C21.2316 30.1429 17.3519 28.7696 14.7046 26.5927C25.4455 26.9563 34.4443 20.3539 34.4443 11.7411C34.4443 11.6566 34.4424 11.5723 34.4404 11.4881L34.4397 11.4595C40.679 14.9842 41.8343 21.4788 37.056 26.0187C37.4633 28.7698 38.4335 29.6511 39.3234 30.4595Z" fill="#7E99D0"/>
</svg>
