<svg width="24" height="40" viewBox="0 0 24 40" fill="none" xmlns="http://www.w3.org/2000/svg">
<path d="M8.06308 13.2324C8.06308 11.4092 9.81288 10.2311 12.5209 10.2311C14.6923 10.2311 16.9178 11.1891 18.7333 12.4446C19.2111 12.775 19.8814 12.6285 20.1613 12.1308L22.0749 8.72852C22.2901 8.34586 22.2046 7.86984 21.8657 7.58164C19.8928 5.90375 17.0609 4.91836 14.4484 4.62805V0.9375C14.4484 0.419766 14.0119 0 13.4734 0H10.2234C9.68499 0 9.24844 0.419766 9.24844 0.9375V4.83063C4.48499 5.86891 1.34289 9.19914 1.34289 13.318C1.34289 22.9691 16.355 21.9751 16.355 26.5535C16.355 28.1022 15.0298 29.769 12.12 29.769C9.62145 29.769 7.00675 28.5284 4.98232 26.9653C4.55089 26.6322 3.91941 26.7063 3.58815 27.1325L1.11905 30.3096C0.824355 30.6888 0.869205 31.2203 1.22484 31.5477C3.17882 33.3461 6.03882 34.7707 9.24835 35.2955V39.0625C9.24835 39.5802 9.68491 40 10.2234 40H13.4734C14.0118 40 14.4484 39.5802 14.4484 39.0625V35.3564C19.7881 34.5584 23.0752 30.7325 23.0752 26.2536C23.0752 16.903 8.06308 18.1515 8.06308 13.2324Z" fill="#7E99D0"/>
</svg>
