<svg width="30" height="40" viewBox="0 0 30 40" fill="none" xmlns="http://www.w3.org/2000/svg">
<path fill-rule="evenodd" clip-rule="evenodd" d="M19.375 12.5H30V38.125C30 39.1641 29.1641 40 28.125 40H1.875C0.835938 40 0 39.1641 0 38.125V1.875C0 0.835938 0.835938 0 1.875 0H17.5V10.625C17.5 11.6562 18.3438 12.5 19.375 12.5ZM14.2109 20.0078C13.8203 18.7578 13.8281 16.3437 14.0547 16.3437C14.7109 16.3437 14.6484 19.2266 14.2109 20.0078ZM14.0781 23.6953C13.4766 25.2734 12.7266 27.0781 11.8594 28.5938C12.2094 28.4598 12.5708 28.311 12.9442 28.157C14.096 27.6824 15.3634 27.1601 16.7734 26.8828C15.7812 26.1328 14.8281 25.0547 14.0781 23.6953ZM9.45312 30.3047C7.75781 33.0234 6.72656 33.5078 6.72656 33.4453C7.11299 32.3993 8.44262 31.2112 9.15032 30.5789L9.15033 30.5788C9.27247 30.4697 9.37608 30.3771 9.45312 30.3047ZM15.414 21.7187C16.1484 23.6562 17.1874 24.9687 18.7499 25.9218C20.2577 25.7265 23.414 25.4218 24.4999 26.4843C25.3984 27.3749 25.2421 29.8749 22.9609 29.8749C21.6405 29.8749 19.6562 29.2734 17.9609 28.3515C16.3849 28.611 14.6345 29.2038 12.9549 29.7726L12.9549 29.7726C12.5613 29.9059 12.1716 30.0379 11.789 30.164C9.80461 33.5859 8.41399 34.9921 7.01555 34.9921C6.58586 34.9921 5.77336 34.7499 5.33586 34.2109C3.84367 32.3749 7.47649 29.9843 9.59367 28.8984C9.59758 28.8984 9.59953 28.8964 9.60149 28.8945C9.60344 28.8925 9.60539 28.8905 9.6093 28.8905C10.5546 27.2343 11.8905 24.3437 12.7968 22.1874C12.1327 19.6171 11.7734 17.6015 12.164 16.1718C12.5859 14.6327 15.5312 14.4062 15.8984 16.703C16.3094 18.0428 15.7933 20.1614 15.4414 21.6061L15.414 21.7187ZM29.4531 8.20312L21.7969 0.546875C21.4453 0.195312 20.9688 0 20.4688 0H20V10H30V9.52344C30 9.03125 29.8047 8.55469 29.4531 8.20312ZM23.6641 28.1485C23.9844 27.9376 23.4688 27.2188 20.3203 27.4454C23.2188 28.6798 23.6641 28.1485 23.6641 28.1485Z" fill="#7E99D0"/>
</svg>
