<svg width="30" height="40" viewBox="0 0 30 40" fill="none" xmlns="http://www.w3.org/2000/svg">
<path fill-rule="evenodd" clip-rule="evenodd" d="M17.5 10.625V0H1.875C0.835938 0 0 0.835938 0 1.875V38.125C0 39.1641 0.835938 40 1.875 40H28.125C29.1641 40 30 39.1641 30 38.125V12.5H19.375C18.3438 12.5 17.5 11.6562 17.5 10.625ZM22.1951 18.9454L17.4998 26.2501L22.1951 33.5547C22.5935 34.1797 22.1482 35.0001 21.406 35.0001H18.6795C18.3357 35.0001 18.0154 34.8126 17.8514 34.5079C16.3201 31.6797 14.9998 29.1407 14.9998 29.1407C14.6468 29.9569 14.4029 30.3994 13.5588 31.9303L13.5586 31.9308C13.207 32.5684 12.7514 33.3948 12.1404 34.5157C11.9764 34.8204 11.6639 35.0079 11.3201 35.0079H8.59354C7.85135 35.0079 7.40604 34.1876 7.80448 33.5626L12.5154 26.2579L7.80448 18.9532C7.39823 18.3282 7.85135 17.5079 8.59354 17.5079H11.3123C11.656 17.5079 11.9764 17.6954 12.1404 18.0001C13.0195 19.6437 13.431 20.358 13.7186 20.8573C14.0982 21.5161 14.262 21.8005 14.9998 23.3516C14.9998 23.3516 15.4764 22.4376 17.8592 18.0001C18.0232 17.6954 18.3435 17.5079 18.6873 17.5079H21.406C22.1482 17.5001 22.5935 18.3204 22.1951 18.9454ZM30 10V9.52344C30 9.03125 29.8047 8.55469 29.4531 8.20312L21.8047 0.546875C21.4531 0.195312 20.9766 0 20.4766 0H20V10H30Z" fill="#7E99D0"/>
</svg>
