<svg width="40" height="36" viewBox="0 0 40 36" fill="none" xmlns="http://www.w3.org/2000/svg">
<path fill-rule="evenodd" clip-rule="evenodd" d="M29.4777 22.0383L39.4779 12.4768C40.1743 11.8109 40.1737 10.6886 39.4779 10.0232L29.4777 0.461547C28.4247 -0.545328 26.6666 0.199563 26.6666 1.68836V6.75191C16.4999 6.80901 8.33329 8.81734 8.33329 18.9379C8.33329 22.9562 10.7813 26.9371 13.4874 29.0183C14.3318 29.6678 15.5352 28.8526 15.2239 27.7998C12.3912 18.2204 16.6267 15.8198 26.6666 15.7516V20.8115C26.6666 22.2989 28.4236 23.0462 29.4777 22.0383ZM26.6667 31.5V26.6574C26.6667 26.141 27.1201 25.75 27.625 25.8236C28.4237 25.9401 29.2384 25.8586 29.9992 25.5862C30.5419 25.3918 31.1111 25.7981 31.1111 26.3808V32.625C31.1111 34.489 29.6188 36 27.7778 36H3.33333C1.49236 36 0 34.489 0 32.625V7.87501C0 6.01102 1.49236 4.50001 3.33333 4.50001H11.7384C12.61 4.50001 12.8964 5.68337 12.1235 6.09125C10.8195 6.77933 9.61924 7.64572 8.58083 8.74034C8.42392 8.90608 8.20703 8.99986 7.98028 9H4.44444V31.5H26.6667Z" fill="#7E99D0"/>
</svg>
