<svg width="40" height="34" viewBox="0 0 40 34" fill="none" xmlns="http://www.w3.org/2000/svg">
<path fill-rule="evenodd" clip-rule="evenodd" d="M12.2279 3.0166L6.58757 8.65723L5.36888 9.87598C5.00171 10.2432 4.36111 10.2432 3.99395 9.87598L0.275377 6.17285C-0.0917924 5.80566 -0.0917924 5.21191 0.275377 4.84473L1.50188 3.61816C1.86905 3.25098 2.46277 3.25098 2.82994 3.61816L4.60329 5.34473L9.57961 0.399414C9.94678 0.0322266 10.5405 0.0322266 10.9077 0.399414L12.2357 1.68848C12.5951 2.05566 12.5951 2.64941 12.2279 3.0166ZM38.7499 7.93848H16.251C15.5636 7.93848 15.0011 7.37598 15.0011 6.68848V3.56348C15.0011 2.87598 15.5636 2.31348 16.251 2.31348H38.7499C39.4374 2.31348 39.9999 2.87598 39.9999 3.56348V6.68848C39.9999 7.37598 39.4374 7.93848 38.7499 7.93848ZM38.7499 20.4385H16.251C15.5636 20.4385 15.0011 19.876 15.0011 19.1885V16.0635C15.0011 15.376 15.5636 14.8135 16.251 14.8135H38.7499C39.4374 14.8135 39.9999 15.376 39.9999 16.0635V19.1885C39.9999 19.876 39.4374 20.4385 38.7499 20.4385ZM16.251 32.9385H38.7499C39.4374 32.9385 39.9999 32.376 39.9999 31.6885V28.5635C39.9999 27.876 39.4374 27.3135 38.7499 27.3135H16.251C15.5636 27.3135 15.0011 27.876 15.0011 28.5635V31.6885C15.0011 32.376 15.5636 32.9385 16.251 32.9385ZM1.20505 30.126C1.20505 28.0557 2.93153 26.376 5.00174 26.376C7.07195 26.376 8.75156 28.0557 8.75156 30.126C8.75156 32.1963 7.07195 33.876 5.00174 33.876C2.93153 33.876 1.20505 32.1963 1.20505 30.126ZM6.58757 21.126L12.2279 15.4854C12.5951 15.1182 12.5951 14.5244 12.2357 14.165L10.9077 12.8369C10.5405 12.4697 9.94678 12.4697 9.57961 12.8369L4.60329 17.8135L2.82994 16.0869C2.46277 15.7197 1.86905 15.7197 1.50188 16.0869L0.275377 17.3135C-0.0917924 17.6807 -0.0917924 18.2744 0.275377 18.6416L3.98613 22.3525C4.3533 22.7197 4.9939 22.7197 5.36107 22.3525L6.58757 21.126Z" fill="#7E99D0"/>
</svg>
