<svg width="40" height="36" viewBox="0 0 40 36" fill="none" xmlns="http://www.w3.org/2000/svg">
<path fill-rule="evenodd" clip-rule="evenodd" d="M9.79164 0.5H1.875C0.839453 0.5 0 1.33945 0 2.375V8.625C0 9.66055 0.839453 10.5 1.875 10.5H9.79164C10.8272 10.5 11.6666 9.66055 11.6666 8.625V2.375C11.6666 1.33945 10.8272 0.5 9.79164 0.5ZM11.6666 21.125V14.875C11.6666 13.8395 10.8272 13 9.79164 13H1.875C0.839453 13 0 13.8395 0 14.875V21.125C0 22.1605 0.839453 23 1.875 23H9.79164C10.8272 23 11.6666 22.1605 11.6666 21.125ZM0 33.625V27.375C0 26.3395 0.839453 25.5 1.875 25.5H9.79164C10.8272 25.5 11.6666 26.3395 11.6666 27.375V33.625C11.6666 34.6605 10.8272 35.5 9.79164 35.5H1.875C0.839453 35.5 0 34.6605 0 33.625ZM38.1249 35.5H16.0416C15.006 35.5 14.1666 34.6605 14.1666 33.625V27.375C14.1666 26.3395 15.006 25.5 16.0416 25.5H38.1249C39.1605 25.5 39.9999 26.3395 39.9999 27.375V33.625C39.9999 34.6605 39.1605 35.5 38.1249 35.5ZM14.1666 2.375V8.625C14.1666 9.66055 15.006 10.5 16.0416 10.5H38.1249C39.1605 10.5 39.9999 9.66055 39.9999 8.625V2.375C39.9999 1.33945 39.1605 0.5 38.1249 0.5H16.0416C15.006 0.5 14.1666 1.33945 14.1666 2.375ZM38.1249 23H16.0416C15.006 23 14.1666 22.1605 14.1666 21.125V14.875C14.1666 13.8395 15.006 13 16.0416 13H38.1249C39.1605 13 39.9999 13.8395 39.9999 14.875V21.125C39.9999 22.1605 39.1605 23 38.1249 23Z" fill="#7E99D0"/>
</svg>
