<svg width="40" height="36" viewBox="0 0 40 36" fill="none" xmlns="http://www.w3.org/2000/svg">
<path fill-rule="evenodd" clip-rule="evenodd" d="M11.6666 2.375V8.625C11.6666 9.66055 10.8272 10.5 9.79164 10.5H1.875C0.839453 10.5 0 9.66055 0 8.625V2.375C0 1.33945 0.839453 0.5 1.875 0.5H9.79164C10.8272 0.5 11.6666 1.33945 11.6666 2.375ZM25.8333 21.125V14.875C25.8333 13.8395 24.9938 13 23.9583 13H16.0416C15.006 13 14.1666 13.8395 14.1666 14.875V21.125C14.1666 22.1605 15.006 23 16.0416 23H23.9582C24.9938 23 25.8333 22.1605 25.8333 21.125ZM28.3334 8.625V2.375C28.3334 1.33945 29.1729 0.5 30.2084 0.5H38.1251C39.1606 0.5 40.0001 1.33945 40.0001 2.375V8.625C40.0001 9.66055 39.1606 10.5 38.1251 10.5H30.2084C29.1729 10.5 28.3334 9.66055 28.3334 8.625ZM25.8333 8.625V2.375C25.8333 1.33945 24.9938 0.5 23.9583 0.5H16.0416C15.006 0.5 14.1666 1.33945 14.1666 2.375V8.625C14.1666 9.66055 15.006 10.5 16.0416 10.5H23.9582C24.9938 10.5 25.8333 9.66055 25.8333 8.625ZM1.875 13H9.79164C10.8272 13 11.6666 13.8395 11.6666 14.875V21.125C11.6666 22.1605 10.8272 23 9.79164 23H1.875C0.839453 23 0 22.1605 0 21.125V14.875C0 13.8395 0.839453 13 1.875 13ZM0 27.375V33.625C0 34.6605 0.839453 35.5 1.875 35.5H9.79164C10.8272 35.5 11.6666 34.6605 11.6666 33.625V27.375C11.6666 26.3395 10.8272 25.5 9.79164 25.5H1.875C0.839453 25.5 0 26.3395 0 27.375ZM38.1251 23H30.2084C29.1729 23 28.3334 22.1605 28.3334 21.125V14.875C28.3334 13.8395 29.1729 13 30.2084 13H38.1251C39.1606 13 40.0001 13.8395 40.0001 14.875V21.125C40.0001 22.1605 39.1606 23 38.1251 23ZM30.2084 35.5H38.1251C39.1606 35.5 40.0001 34.6605 40.0001 33.625V27.375C40.0001 26.3395 39.1606 25.5 38.1251 25.5H30.2084C29.1729 25.5 28.3334 26.3395 28.3334 27.375V33.625C28.3334 34.6605 29.1729 35.5 30.2084 35.5ZM14.1666 33.625V27.375C14.1666 26.3395 15.006 25.5 16.0416 25.5H23.9582C24.9938 25.5 25.8332 26.3395 25.8332 27.375V33.625C25.8332 34.6605 24.9938 35.5 23.9582 35.5H16.0416C15.006 35.5 14.1666 34.6605 14.1666 33.625Z" fill="#7E99D0"/>
</svg>
