<svg width="36" height="40" viewBox="0 0 36 40" fill="none" xmlns="http://www.w3.org/2000/svg">
<path fill-rule="evenodd" clip-rule="evenodd" d="M18 0C24.2132 0 29.25 4.89687 29.25 10.9375C29.25 16.9781 24.2132 21.875 18 21.875C11.7868 21.875 6.75 16.9781 6.75 10.9375C6.75 4.89687 11.7868 0 18 0ZM6.42864 32.5C6.42864 33.8785 7.58217 35 9.00007 35C10.418 35 11.5715 33.8785 11.5715 32.5C11.5715 31.1215 10.418 30 9.00007 30C7.58217 30 6.42864 31.1215 6.42864 32.5ZM28.2857 22.1875L30.1567 22.6422C33.5908 23.4769 36 26.4768 36 29.9183V36.25C36 38.3211 34.2731 40 32.1429 40H3.85714C1.72688 40 0 38.3211 0 36.25V29.9183C0 26.4768 2.40919 23.4769 5.84333 22.6422L7.71429 22.1875V27.6582C5.4986 28.2147 3.85714 30.1744 3.85714 32.5C3.85714 35.3361 6.29863 37.6284 9.24565 37.4944C11.8795 37.3746 14.0163 35.2954 14.1373 32.7346C14.2521 30.3072 12.5755 28.2333 10.2857 27.6583V21.7098C14.3416 24.4549 20.5449 25.2215 25.7143 21.7095V25.1258C22.7836 25.7065 20.5714 28.2317 20.5714 31.25V35.8812C20.5714 36.3281 20.8959 36.7129 21.3466 36.8005L23.8738 37.2919C24.3959 37.3934 24.904 37.0642 25.0084 36.5565L25.1345 35.9436C25.2389 35.4359 24.9003 34.942 24.378 34.8404L23.1429 34.6003V31.3129C23.1429 29.2595 24.8137 27.5397 26.9253 27.5007C29.0862 27.4608 30.8571 29.1581 30.8571 31.25V34.6002L29.6221 34.8404C29.0998 34.9418 28.7611 35.4358 28.8656 35.9435L28.9917 36.5564C29.096 37.0641 29.6041 37.3934 30.1263 37.2918L32.6534 36.8004C33.1042 36.7128 33.4286 36.328 33.4286 35.8811V31.25C33.4286 28.2317 31.2164 25.7065 28.2857 25.1258V22.1875Z" fill="#7E99D0"/>
</svg>
