<svg width="40" height="24" viewBox="0 0 40 24" fill="none" xmlns="http://www.w3.org/2000/svg">
<path fill-rule="evenodd" clip-rule="evenodd" d="M26.5625 6.5625C26.5625 2.93812 23.6244 0 20 0C16.3756 0 13.4375 2.93812 13.4375 6.5625C13.4375 10.1869 16.3756 13.125 20 13.125C23.6244 13.125 26.5625 10.1869 26.5625 6.5625ZM24.5926 12.9605L27.0914 13.5853C29.0947 14.0861 30.5 15.886 30.5 17.9509V21.7499C30.5 22.9925 29.4926 23.9999 28.25 23.9999H11.75C10.5074 23.9999 9.5 22.9925 9.5 21.7499V17.9509C9.5 15.886 10.9053 14.0861 12.9086 13.5853L15.4075 12.9605C17.7947 14.6776 21.5196 15.1708 24.5926 12.9605ZM33 14.75C35.4162 14.75 37.375 12.7913 37.375 10.375C37.375 7.95875 35.4162 6 33 6C30.5837 6 28.625 7.95875 28.625 10.375C28.625 12.7913 30.5837 14.75 33 14.75ZM11.375 10.375C11.375 12.7913 9.41625 14.75 7 14.75C4.58375 14.75 2.625 12.7913 2.625 10.375C2.625 7.95875 4.58375 6 7 6C9.41625 6 11.375 7.95875 11.375 10.375ZM8.5 21.7501V17.9511C8.5 16.9167 8.78706 15.9383 9.29394 15.1012C7.41969 16.0212 5.33544 15.6454 3.93831 14.6405L2.27238 15.057C0.936875 15.3908 0 16.5908 0 17.9674V20.5001C0 21.3285 0.671562 22.0001 1.5 22.0001H8.51056C8.50386 21.9169 8.50034 21.8335 8.5 21.7501ZM36.0618 14.6403L37.7277 15.0568C39.0632 15.3906 40.0001 16.5906 40.0001 17.9672V20.4999C40.0001 21.3283 39.3285 21.9999 38.5001 21.9999H31.4895C31.4958 21.9173 31.5001 21.8341 31.5001 21.7499V17.9509C31.5001 16.9124 31.2106 15.9307 30.7001 15.0914C32.2561 15.8423 34.3164 15.8956 36.0618 14.6403Z" fill="#7E99D0"/>
</svg>
