<svg width="25" height="24" viewBox="0 0 25 24" fill="none" xmlns="http://www.w3.org/2000/svg">
<path d="M12.6924 23.9999C19.3198 23.9999 24.6924 18.6273 24.6924 11.9999C24.6924 5.37246 19.3198 -0.00012207 12.6924 -0.00012207C6.06497 -0.00012207 0.692383 5.37246 0.692383 11.9999C0.692383 18.6273 6.06497 23.9999 12.6924 23.9999Z" fill="#F0F0F0"/>
<path d="M3.1727 4.69397C2.23009 5.92036 1.51933 7.33388 1.10547 8.86945H7.34819L3.1727 4.69397Z" fill="#0052B4"/>
<path d="M24.2788 8.86941C23.8649 7.33388 23.1541 5.92036 22.2115 4.69397L18.0361 8.86941H24.2788Z" fill="#0052B4"/>
<path d="M1.10547 15.1304C1.51937 16.6659 2.23014 18.0794 3.1727 19.3058L7.34805 15.1304H1.10547Z" fill="#0052B4"/>
<path d="M19.9979 2.48049C18.7716 1.53788 17.3581 0.827114 15.8225 0.413208V6.65588L19.9979 2.48049Z" fill="#0052B4"/>
<path d="M5.38623 21.5191C6.61262 22.4617 8.02614 23.1725 9.56167 23.5864V17.3438L5.38623 21.5191Z" fill="#0052B4"/>
<path d="M9.56162 0.413208C8.02609 0.827114 6.61257 1.53788 5.38623 2.48044L9.56162 6.65583V0.413208Z" fill="#0052B4"/>
<path d="M15.8225 23.5864C17.358 23.1725 18.7716 22.4617 19.9979 21.5191L15.8225 17.3438V23.5864Z" fill="#0052B4"/>
<path d="M18.0361 15.1304L22.2115 19.3058C23.1541 18.0795 23.8649 16.6659 24.2788 15.1304H18.0361Z" fill="#0052B4"/>
<path d="M24.5908 10.4347H14.2577H14.2576V0.101456C13.7452 0.0347529 13.2229 -0.00012207 12.6924 -0.00012207C12.1618 -0.00012207 11.6395 0.0347529 11.1272 0.101456V10.4346V10.4346H0.793961C0.727258 10.947 0.692383 11.4694 0.692383 11.9999C0.692383 12.5305 0.727258 13.0527 0.793961 13.5651H11.1271H11.1271V23.8983C11.6395 23.965 12.1618 23.9999 12.6924 23.9999C13.2229 23.9999 13.7452 23.965 14.2576 23.8983V13.5652V13.5651H24.5908C24.6575 13.0527 24.6924 12.5305 24.6924 11.9999C24.6924 11.4694 24.6575 10.947 24.5908 10.4347Z" fill="#D80027"/>
<path d="M15.8228 15.1304L21.1776 20.4852C21.4238 20.239 21.6588 19.9817 21.8829 19.7148L17.2985 15.1304H15.8228V15.1304Z" fill="#D80027"/>
<path d="M9.56189 15.1304H9.5618L4.20703 20.4851C4.45322 20.7314 4.71061 20.9664 4.97742 21.1905L9.56189 16.6059V15.1304Z" fill="#D80027"/>
<path d="M9.5619 8.86948V8.86939L4.20708 3.51453C3.9608 3.76071 3.72587 4.0181 3.50171 4.28492L8.08622 8.86943H9.5619V8.86948Z" fill="#D80027"/>
<path d="M15.8228 8.86956L21.1776 3.51465C20.9314 3.26837 20.674 3.03344 20.4072 2.80933L15.8228 7.39384V8.86956Z" fill="#D80027"/>
</svg>
