<svg width="24" height="24" viewBox="0 0 24 24" fill="none" xmlns="http://www.w3.org/2000/svg">
<path d="M2 12.0857C2 6.66772 6.27823 2.55444 11.871 2.55444C17.4637 2.55444 22 6.66772 22 12.0857C22 16.4177 19.2661 20.1248 15.2339 21.4216C14.7218 21.5115 14.5363 21.2029 14.5363 20.949C14.5363 20.8432 14.5376 20.5946 14.5394 20.2616L14.5394 20.2613L14.5394 20.2607C14.543 19.5857 14.5484 18.5645 14.5484 17.6833C14.5484 16.7654 14.2339 16.1794 13.8629 15.8708C16.1169 15.6248 18.4919 15.324 18.4919 11.5544C18.4919 10.4841 18.0968 9.94507 17.4516 9.25366C17.5565 8.99976 17.8992 7.95679 17.3468 6.60132C16.504 6.34351 14.5645 7.65601 14.5645 7.65601C13.7581 7.43726 12.8911 7.32397 12.0323 7.32397C11.1734 7.32397 10.3065 7.43726 9.5 7.65601C9.5 7.65601 7.56048 6.34741 6.71774 6.60132C6.16532 7.95288 6.50806 8.99976 6.6129 9.25366C5.96774 9.94116 5.66129 10.4802 5.66129 11.5544C5.66129 15.3123 7.93548 15.6287 10.1895 15.8708C9.89919 16.1287 9.6371 16.5623 9.54435 17.1873C8.96774 17.4451 7.4879 17.8787 6.60484 16.3708C6.05242 15.4412 5.04839 15.363 5.04839 15.363C4.06048 15.3513 4.98387 15.9646 4.98387 15.9646C5.64516 16.2576 6.10484 17.3943 6.10484 17.3943C6.69758 19.1443 9.52016 18.5583 9.52016 18.5583C9.52016 19.0897 9.52524 19.8373 9.52881 20.3639L9.52881 20.3643L9.52882 20.3645C9.53076 20.6507 9.53226 20.8715 9.53226 20.9568C9.53226 21.2107 9.35081 21.5193 8.83468 21.4294C4.81452 20.1248 2 16.4177 2 12.0857ZM7.60887 17.781C7.4879 17.7576 7.40726 17.6677 7.43548 17.5896C7.46371 17.5115 7.58065 17.4724 7.68548 17.4998C7.80645 17.5349 7.88306 17.6248 7.85887 17.7029C7.83468 17.781 7.71371 17.8201 7.60887 17.781ZM8.47984 17.906C8.59677 17.906 8.68952 17.8435 8.68952 17.7654C8.68952 17.6755 8.58468 17.613 8.46371 17.6248C8.34677 17.6248 8.25403 17.6873 8.25403 17.7654C8.25403 17.8552 8.34677 17.9177 8.47984 17.906ZM9.21774 17.5232C9.10081 17.5505 9.02016 17.6248 9.03226 17.7146C9.04435 17.7927 9.14919 17.8435 9.27016 17.8162C9.3871 17.7888 9.46774 17.7146 9.45565 17.6365C9.44355 17.5623 9.33468 17.5115 9.21774 17.5232ZM5.91935 16.0271C5.86694 16.0662 5.87903 16.156 5.94758 16.2302C6.0121 16.2927 6.10484 16.3201 6.15726 16.2693C6.20968 16.2302 6.19758 16.1404 6.12903 16.0662C6.06452 16.0037 5.97177 15.9763 5.91935 16.0271ZM5.57661 15.863C5.49597 15.824 5.45565 15.7615 5.48387 15.7107C5.5121 15.6716 5.57661 15.6599 5.65726 15.6833C5.7379 15.7224 5.77823 15.7849 5.75 15.8357C5.72177 15.8904 5.64113 15.9021 5.57661 15.863ZM6.79032 17.1013C6.72581 17.1521 6.75 17.2693 6.84274 17.3435C6.93548 17.4333 7.05242 17.4451 7.10484 17.3826C7.15726 17.3318 7.13306 17.2146 7.05242 17.1404C6.96371 17.0505 6.84274 17.0388 6.79032 17.1013ZM6.33065 16.7576C6.26613 16.6677 6.26613 16.5662 6.33065 16.5271C6.39516 16.4763 6.5 16.5154 6.55645 16.6052C6.62097 16.6951 6.62097 16.7966 6.55645 16.8474C6.50403 16.8865 6.39516 16.8474 6.33065 16.7576Z" fill="#676767"/>
</svg>
