<svg width="24" height="24" fill="none" version="1.1" viewBox="0 0 24 24" xmlns="http://www.w3.org/2000/svg">
  <g fill="#676767">
    <path d="m12.003 7.3778c-2.5522 0-4.6184 2.0685-4.6184 4.6184 0 2.5522 2.0685 4.6184 4.6184 4.6184 2.5522 0 4.6184-2.0684 4.6184-4.6184 0-2.5522-2.0684-4.6184-4.6184-4.6184zm0 7.6161c-1.6567 0-2.9977-1.3417-2.9977-2.9977 0-1.6559 1.3417-2.9977 2.9977-2.9977s2.9977 1.3418 2.9977 2.9977c7e-4 1.656-1.341 2.9977-2.9977 2.9977z"/>
    <path d="m17.884 7.1958c0 0.59604-0.4832 1.0792-1.0792 1.0792-0.5961 0-1.0793-0.48318-1.0793-1.0792 0-0.59605 0.4832-1.0792 1.0793-1.0792 0.596 0 1.0792 0.48318 1.0792 1.0792z"/>
    <path d="m15.711 3.0565c-1.6559-0.07725-5.7576-0.0735-7.4151 0-1.4565 0.06825-2.7412 0.41999-3.7769 1.4557-1.549 1.549-1.5347 3.5796-1.5145 6.4405 0.00236 0.3362 0.00481 0.6839 0.00481 1.0436 0 0.3366-0.0018 0.662-0.00355 0.9766-0.01639 2.9572-0.02752 4.9667 1.5133 6.5075 1.5518 1.5511 3.6048 1.5359 6.4335 1.5148 0.3389-0.0025 0.6889-0.0051 1.0506-0.0051h0.0489c3.4303 0 4.6218 0 5.8423-0.4725 1.6672-0.6472 2.9257-2.1374 3.0487-4.8141 0.078-1.6568 0.0735-5.7577 0-7.4152-0.1485-3.1597-1.8443-5.0759-5.232-5.2319zm2.6213 15.279c-1.0451 1.045-2.4629 1.0417-5.5252 1.0347-0.2626-6e-4 -0.5382-0.0012-0.8257-0.0012l-0.5151 2e-4c-3.3756 0.0024-4.7903 0.0034-5.8358-1.045-1.0877-1.0825-1.0697-2.7297-1.0436-5.1202 0.00423-0.3867 0.00866-0.793 0.00866-1.2194 0-0.3617-0.00324-0.7145-0.00638-1.0574-0.03293-3.5861-0.05591-6.0891 3.7398-6.2835l0.04304-0.00152c0.92147-0.03257 1.2302-0.04348 3.5989-0.04348l0.0337 0.0225c0.3425 0 0.6786-0.00307 1.0071-0.00607 3.5053-0.03205 6.1414-0.05614 6.3135 3.7455 0.0428 0.94873 0.0525 1.2337 0.0525 3.6352 0 0.2152 2e-4 0.423 4e-4 0.6237v0.0022c0.0031 3.2555 0.0044 4.6586-1.0458 5.7138z"/>
  </g>
</svg>
