<svg width="24" height="24" viewBox="0 0 24 24" fill="none" xmlns="http://www.w3.org/2000/svg">
<path d="M11.9997 2C6.47695 2 2 6.4773 2 12C2 17.5227 6.47712 22 11.9997 22C17.5225 22 22 17.5225 22 12C21.9998 6.4773 17.5225 2 11.9997 2ZM15.0264 11.3168C14.8404 15.8789 12.3294 17.5346 12.0112 17.7539C11.7093 17.9622 11.5506 17.7924 11.5506 17.7924C11.5506 17.7924 10.0788 16.2055 9.86475 15.9255C9.65104 15.6463 9.9391 15.4405 9.9391 15.4405C11.4496 14.3011 11.7111 12.9479 11.7479 12.3484H9.91783C9.3481 12.3484 8.88643 11.8866 8.88643 11.3168V7.17377C8.88643 6.60404 9.3481 6.1422 9.91783 6.1422H13.995C14.5648 6.1422 15.0264 6.60404 15.0264 7.17377V11.3168Z" fill="#676767"/>
</svg>
