<svg width="24" height="24" fill="none" version="1.1" viewBox="0 0 24 24" xmlns="http://www.w3.org/2000/svg">
  <g fill="#676767">
    <path d="m13.149 6.5184c0.2011-0.20114 0.5029-0.30175 0.8046-0.10061 0.0236 0.01179 0.0458 0.02358 0.0667 0.03471 0.158 0.08391 0.2468 0.13109 0.3356-0.13525 0.0671-0.1341-0.0447-0.17879-0.1565-0.22349-0.0558-0.02234-0.1117-0.04469-0.1452-0.07822h-0.2011c-0.3018 0-0.6035 0.10056-0.8047 0.30171-0.0874 0.08739-0.0988 0.17478-0.0343 0.26218-0.0149 0.02108-0.0087 0.03952 0.0343 0.03952-0.0131-0.01317-0.0246-0.02635-0.0343-0.03952 0.0199-0.02816 0.0774-0.06103 0.1349-0.06103z"/>
    <path d="m11.193 6.5716c-0.067 0.24259-0.1242 0.44968-0.4574 0.44968-0.3018 0-0.5029-0.30176-0.5029-0.60348 0-0.30171 0.2011-0.60341 0.5029-0.60341 0.4022 0 0.5028 0.3017 0.5028 0.60341-0.0172 0.05178-0.0315 0.10355-0.0454 0.1538z"/>
    <path d="m20.491 17.682c-0.5009-4.0072-1.487-5.7969-1.9802-6.692-0.1009-0.1833-0.1812-0.3291-0.2325-0.4487 0.1006-1.0057 1e-4 -2.0114-0.2011-3.0172-0.3017-1.6092-1.0057-3.0172-2.2125-4.1235-2.4138-2.112-7.4425-2.0115-9.3533 2.3132-0.70401 1.5086-0.80463 3.1178-0.80463 4.8275-0.20115 0.3018-0.60341 1.1063-1.1063 2.5143-0.50286 1.4081-0.90515 2.9167-1.0057 5.0287 0 0.2011 7e-5 0.4022 0.20122 0.4022 0.16238 0.0812 0.25915-0.0342 0.34333-0.1347 0.0201-0.0239 0.03948-0.047 0.05886-0.0664 0.20114-0.1006 0.30174-0.3017 0.40231-0.5029 0.30158-0.4021 0.60361-0.8048 0.90518-1.3074 0.10057 1.7097 0.90515 2.9166 2.0114 4.0229-0.50286 0.1006-0.9052 0.3017-1.3075 0.5028-0.30172 0.1006-0.50276 0.3018-0.40219 0.6035 0 0.3017 0.40223 0.3017 0.60339 0.3017 3.7212 0.2012 8.1463 0.2012 11.365 0 0.0601-0.03 0.1201-0.051 0.1775-0.0712 0.1348-0.0473 0.2548-0.0894 0.3254-0.2305 0-0.2011-0.1005-0.4023-0.3016-0.5028-0.5029-0.3018-0.9052-0.5029-1.5086-0.6035 1.1063-1.0057 1.9109-2.3132 2.0114-4.0229 0.2393 0.2991 0.4431 0.5983 0.6324 0.8762 0.1289 0.1894 0.2511 0.3688 0.3733 0.5318 0.0489 0.0488 0.0977 0.1095 0.1479 0.1719 0.1568 0.1949 0.3276 0.4072 0.5561 0.331 0.3376 0.0844 0.3211-0.2561 0.3071-0.5462-0.0027-0.0556-0.0053-0.1093-0.0053-0.1578zm-7.543-12.672c0.4023-0.50286 1.1063-0.50289 1.5086 0.10055 0.2012 0.30171 0.3017 0.70398 0.3017 1.1063s-0.1005 0.80462-0.3017 1.1063c-0.4023 0.704-1.2068 0.704-1.6091 0-0.4023-0.60344-0.3018-1.7097 0.1005-2.3132zm-3.3189 0c0.40232-0.40229 0.90522-0.40233 1.3075-0.10061 0.6034 0.50286 0.6034 1.8103 0.2011 2.4138-0.5029 0.60343-1.1063 0.6034-1.6092-0.10061-0.20115-0.30172-0.30177-0.70399-0.30177-1.1063s0.1006-0.80455 0.40231-1.1063zm-1.408 4.0229c0-0.14726 0.10783-0.18673 0.24453-0.23678 0.05002-0.01831 0.1039-0.03804 0.15779-0.06498 0.88503-0.32183 1.7701-0.3862 2.6551-0.45057 0.2213-0.01609 0.4425-0.03218 0.6638-0.0523 1.1063 0 2.3131 0.1006 3.3188 0.40232 0.0601 0.03002 0.1201 0.05107 0.1775 0.07119 0.1348 0.04729 0.2548 0.0894 0.3254 0.23051 0 0.20115-0.2011 0.30175-0.4022 0.40232-2.3132 1.2068-4.5258 1.2068-6.839 0-0.10058 0-0.30177 0-0.30177-0.30171zm8.4482 5.1292c0.1005 0.6035 0.1005 1.2069 0 1.8103 0 0.704-0.1005 1.408-0.3017 2.0115-0.704 2.0114-2.4138 3.2183-4.727 3.0171-2.3131-0.2011-3.52-1.7096-4.0229-3.4194-0.30172-1.1063-0.30167-2.2126-0.20109-3.3189 0-0.0381 0.00359-0.0797 0.00738-0.1236 0.01625-0.1881 0.03604-0.4173-0.2086-0.5804 0.14368-0.2155 0.28741-0.1745 0.43112-0.1334 0.05747 0.0164 0.11495 0.0328 0.17241 0.0328 0.2011 0 0.2011 0.2011 0.2011 0.4022v2.2127c0 0.3017 0.10059 0.4023 0.40231 0.5029 0.70385 0.1005 1.3072 0.1005 2.0109 0.1005 0.3017 0 0.4028-0.1006 0.4028-0.4023v-1.9108c0-0.3016 0-0.4023 0.3017-0.4023 1.8103 0.1005 3.5201-0.1006 5.2298-0.4023 0.2011 0 0.3017 0 0.4022 0.2011-0.2011 0-0.2011 0.2012-0.1005 0.4023z"/>
  </g>
</svg>
