<svg width="24" height="24" viewBox="0 0 24 24" fill="none" xmlns="http://www.w3.org/2000/svg">
<path d="M20.6427 13.8472C20.7171 13.3727 20.7589 12.8937 20.7589 12.4006C20.7589 7.27507 16.6073 3.11693 11.4795 3.11693C10.9867 3.11693 10.5032 3.15879 10.0337 3.23321C9.17359 2.70297 8.16475 2.396 7.08619 2.396C3.98995 2.396 1.47949 4.90762 1.47949 8.0053C1.47949 9.08437 1.78633 10.0937 2.31631 10.9495C2.24193 11.4239 2.20474 11.903 2.20474 12.396C2.20474 17.5216 6.35629 21.6751 11.4795 21.6751C11.9723 21.6751 12.4558 21.6379 12.93 21.5634C13.7854 22.0937 14.7942 22.396 15.8728 22.396C18.969 22.396 21.4795 19.8844 21.4795 16.7867C21.4748 15.7123 21.168 14.703 20.6427 13.8472ZM15.8821 16.6193C15.4916 17.1867 14.9151 17.6239 14.162 17.9448C13.4088 18.2611 12.5162 18.4239 11.4841 18.4239C10.2475 18.4239 9.22473 18.2099 8.42045 17.7727C7.84862 17.4611 7.38372 17.0425 7.02575 16.5169C6.66778 15.9913 6.48647 15.4797 6.48647 14.982C6.48647 14.689 6.59804 14.4286 6.81654 14.2239C7.0397 14.0146 7.32329 13.9076 7.65801 13.9076C7.9323 13.9076 8.1694 13.9913 8.36001 14.1541C8.55062 14.3169 8.71334 14.5588 8.84351 14.8704C9.00157 15.2379 9.16894 15.5402 9.3549 15.782C9.53621 16.0239 9.78726 16.2239 10.1173 16.382C10.4428 16.5402 10.8751 16.6193 11.4191 16.6193C12.1582 16.6193 12.758 16.4611 13.2182 16.1402C13.6785 15.8193 13.9016 15.4332 13.9016 14.9634C13.9016 14.5867 13.7807 14.2937 13.539 14.0611C13.2926 13.8239 12.9718 13.6472 12.5767 13.5216C12.1815 13.396 11.6469 13.2611 10.9774 13.1216C10.0801 12.9262 9.327 12.6983 8.72263 12.4332C8.11362 12.1681 7.63012 11.8099 7.2675 11.3588C6.90952 10.8983 6.72821 10.3309 6.72821 9.65646C6.72821 9.0146 6.91882 8.43786 7.29539 7.93553C7.67661 7.43321 8.22519 7.04716 8.94114 6.78204C9.65243 6.51228 10.4939 6.38204 11.4562 6.38204C12.2233 6.38204 12.8881 6.47041 13.4553 6.64716C14.0178 6.8239 14.4827 7.06111 14.8593 7.35879C15.2312 7.65181 15.5055 7.96344 15.6775 8.28902C15.8496 8.6146 15.9379 8.93553 15.9379 9.24716C15.9379 9.53553 15.8263 9.80065 15.6078 10.0286C15.3893 10.2611 15.1104 10.3774 14.7803 10.3774C14.4874 10.3774 14.2549 10.3076 14.0922 10.1634C13.9342 10.0239 13.7714 9.80065 13.5948 9.49367C13.3716 9.06111 13.102 8.72623 12.7905 8.48437C12.4883 8.24716 11.9862 8.12623 11.2842 8.12623C10.638 8.12623 10.122 8.25646 9.73147 8.51693C9.34095 8.77739 9.15034 9.08437 9.15034 9.44251C9.15034 9.66576 9.21543 9.85646 9.3456 10.0146C9.47577 10.1774 9.66173 10.3169 9.89418 10.4379C10.1313 10.5588 10.3684 10.6518 10.6101 10.7169C10.8519 10.7867 11.2563 10.8844 11.8142 11.0193C12.5162 11.1727 13.1531 11.3402 13.725 11.5262C14.2968 11.7123 14.7849 11.9355 15.1894 12.2006C15.5939 12.4658 15.9146 12.8053 16.1378 13.2146C16.3656 13.6239 16.4818 14.1262 16.4818 14.7123C16.4725 15.4193 16.2773 16.0565 15.8821 16.6193Z" fill="#676767"/>
</svg>
