<svg width="24" height="24" viewBox="0 0 24 24" fill="none" xmlns="http://www.w3.org/2000/svg">
<path d="M12.0002 2.00024C6.47741 2.00024 2 6.47684 2 11.9996C2 17.5225 6.47741 21.9998 12.0002 21.9998C17.5226 21.9998 22 17.5225 22 11.9996C22 6.47684 17.5226 2.00024 12.0002 2.00024ZM11.5321 7.28283C11.6135 7.20831 11.6706 7.19795 11.953 7.2066C12.1002 7.2118 12.3168 7.2291 12.4346 7.24295C13.0305 7.31743 13.5121 7.46123 14.0404 7.7193C14.5601 7.97397 14.8926 8.21475 15.3327 8.65301C15.745 9.06703 15.9736 9.38058 16.2161 9.86733C16.5539 10.5464 16.7462 11.3536 16.7791 12.2423C16.7913 12.5454 16.7826 12.613 16.7133 12.6995C16.5817 12.8676 16.2924 12.8399 16.1936 12.6511C16.1624 12.5887 16.1538 12.5351 16.1434 12.2925C16.1261 11.9201 16.1001 11.6793 16.0481 11.3917C15.8437 10.264 15.3033 9.36324 14.4406 8.71713C13.7217 8.17665 12.9785 7.91338 12.005 7.8562C11.6759 7.83715 11.6188 7.82501 11.5443 7.76783C11.4056 7.65871 11.3986 7.40234 11.5321 7.28283ZM13.5969 9.51398C13.2487 9.30614 12.7342 9.15194 12.2648 9.11385C12.095 9.09996 12.0015 9.06536 11.9374 8.99084C11.8387 8.87823 11.8283 8.72582 11.9114 8.59936C12.0015 8.45906 12.14 8.43652 12.5541 8.49889C13.6056 8.65305 14.4197 9.14159 14.9533 9.93494C15.253 10.3819 15.4401 10.9068 15.5042 11.4697C15.5267 11.6759 15.5267 12.0518 15.5024 12.1142C15.4799 12.173 15.4071 12.2528 15.3448 12.2856C15.2772 12.3203 15.1335 12.3168 15.0537 12.2753C14.9203 12.2077 14.8805 12.1003 14.8805 11.8093C14.8805 11.3606 14.7644 10.8877 14.5635 10.5204C14.3349 10.1012 14.0023 9.7548 13.5969 9.51398ZM14.1824 11.8231C14.0802 11.9166 13.8914 11.9201 13.7771 11.8318C13.6939 11.7694 13.6679 11.7036 13.6488 11.5252C13.6263 11.2879 13.5848 11.1216 13.5138 10.9674C13.3613 10.64 13.0928 10.4702 12.639 10.4148C12.4259 10.3888 12.3618 10.3646 12.2925 10.2831C12.1661 10.1324 12.2145 9.88816 12.3895 9.79809C12.4554 9.76515 12.4831 9.7617 12.6286 9.77039C12.7186 9.77559 12.852 9.79114 12.9231 9.80678C13.2643 9.87951 13.5259 10.0094 13.7494 10.2191C14.0369 10.491 14.1946 10.8202 14.2638 11.2931C14.3106 11.6014 14.2915 11.7226 14.1824 11.8231ZM16.7704 16.3738C16.6422 16.7047 16.1434 17.3248 15.7951 17.5898C15.4799 17.8289 15.2564 17.9207 14.9619 17.9346C14.7194 17.9467 14.6189 17.9259 14.3088 17.7977C11.8767 16.7947 9.93486 15.2981 8.39315 13.2419C7.58765 12.1678 6.9744 11.054 6.55518 9.8986C6.31095 9.22476 6.29881 8.932 6.49975 8.58726C6.58641 8.44176 6.95535 8.08142 7.22386 7.88049C7.67082 7.54789 7.87695 7.42488 8.0415 7.39024C8.15407 7.366 8.34981 7.38504 8.47457 7.43008C8.5352 7.45083 8.62872 7.49932 8.68245 7.534C9.01155 7.75228 9.92796 8.92501 10.2276 9.51053C10.3991 9.84483 10.4563 10.0926 10.4026 10.2762C10.3471 10.4737 10.2553 10.5776 9.84475 10.9085C9.6802 11.0419 9.526 11.1787 9.5018 11.2151C9.43942 11.3052 9.38919 11.4819 9.38919 11.6066C9.39093 11.8959 9.57802 12.4208 9.824 12.8244C10.0145 13.1379 10.3558 13.5398 10.6936 13.8482C11.0903 14.212 11.4402 14.4596 11.8351 14.6554C12.3427 14.9083 12.6528 14.9724 12.8797 14.8667C12.9369 14.8407 12.9975 14.8061 13.0166 14.7905C13.0339 14.775 13.1673 14.6121 13.3128 14.432C13.5934 14.0785 13.6575 14.0214 13.8498 13.9556C14.0941 13.8724 14.3435 13.8949 14.5947 14.0231C14.7852 14.1219 15.201 14.38 15.4695 14.5671C15.8228 14.8148 16.5781 15.4315 16.6803 15.5545C16.8605 15.7762 16.8917 16.0602 16.7704 16.3738Z" fill="#676767"/>
</svg>
