<svg width="24" height="24" viewBox="0 0 24 24" fill="none" xmlns="http://www.w3.org/2000/svg">
<path d="M17.9368 12.771C17.6458 12.4035 17.729 12.2399 17.9368 11.9114C17.9405 11.9077 20.3428 8.58807 20.5904 7.46228L20.5919 7.46153C20.7149 7.05127 20.5919 6.74976 19.9971 6.74976H18.029C17.528 6.74976 17.297 7.00851 17.1732 7.29802C17.1732 7.29802 16.1712 9.69661 14.7537 11.2514C14.2961 11.7007 14.0846 11.8447 13.8349 11.8447C13.7119 11.8447 13.5206 11.7007 13.5206 11.2904V7.46153C13.5206 6.96951 13.3804 6.74976 12.9656 6.74976H9.87099C9.55673 6.74976 9.36997 6.97926 9.36997 7.19302C9.36997 7.65954 10.0787 7.76679 10.1522 9.07934V11.9272C10.1522 12.5512 10.039 12.666 9.78774 12.666C9.11871 12.666 7.49491 10.2576 6.53262 7.50128C6.33837 6.96651 6.14861 6.75051 5.64384 6.75051H3.67502C3.11325 6.75051 3 7.00926 3 7.29877C3 7.81029 3.66902 10.3536 6.11111 13.7137C7.73866 16.0073 10.0307 17.2501 12.1158 17.2501C13.3691 17.2501 13.5221 16.9741 13.5221 16.4993C13.5221 14.3078 13.4089 14.1008 14.0366 14.1008C14.3276 14.1008 14.8287 14.2448 15.9987 15.3511C17.336 16.6629 17.5558 17.2501 18.3043 17.2501H20.2723C20.8334 17.2501 21.1176 16.9741 20.9541 16.4296C20.5799 15.2843 18.0508 12.9285 17.9368 12.771Z" fill="#676767"/>
</svg>
