<svg width="24" height="24" version="1.1" viewBox="0 0 24 24" xmlns="http://www.w3.org/2000/svg">
  <path d="m16.864 8.3164c-0.365-0.045-0.735-0.07648-1.1138-0.07648-4.1362 0-7.4998 2.8114-7.4998 6.2671 0 0.4024 0.04978 0.7944 0.13739 1.1768-0.64109-0.0788-1.2413-0.2482-1.8189-0.4539l-2.6936 1.1569 0.98879-1.9828c-1.7412-1.1454-2.8638-2.9155-2.8638-4.9107 0-3.4606 3.3575-6.2667 7.5001-6.2667 3.66 0 6.7037 2.192 7.3636 5.0898zm-3.9262-1.3299c0-0.51905-0.4198-0.94014-0.9374-0.94014-0.5179 0-0.9375 0.42105-0.9375 0.94014 0 0.51921 0.4196 0.94 0.9375 0.94 0.5177 0 0.9374-0.42079 0.9374-0.94zm-6.875 0c0 0.51921 0.41978 0.94 0.93748 0.94 0.51761 0 0.93748-0.42079 0.93753-0.94 0-0.51905-0.41987-0.94014-0.93753-0.94014-0.51765 0-0.93748 0.42109-0.93748 0.94014z" fill="#676767"/>
  <path d="m15.75 9.4932c3.4511 0 6.2501 2.2447 6.2501 5.0136 0 1.6031-0.955 3.0142-2.4151 3.9319l1.1651 2.3348-3.3688-1.4474c-0.5239 0.1139-1.0637 0.1941-1.6313 0.1941-3.4512 0-6.2498-2.2447-6.2498-5.0134 0-2.7689 2.7986-5.0136 6.2498-5.0136zm-2.8124 3.76c0 0.5193 0.4198 0.9402 0.9375 0.9402s0.9374-0.4209 0.9374-0.9402c0-0.5189-0.4196-0.9398-0.9374-0.9398-0.5177 0-0.9375 0.4208-0.9375 0.9398zm3.75 0c0 0.5193 0.4195 0.9402 0.9374 0.9402s0.9375-0.4209 0.9375-0.9402c0-0.5189-0.4196-0.9398-0.9375-0.9398s-0.9374 0.4208-0.9374 0.9398z" fill="#676767"/>
</svg>
