<svg width="24" height="24" version="1.1" viewBox="0 0 24 24" xmlns="http://www.w3.org/2000/svg">
  <path d="m16.142 16.282c0.742-0.3682 1.109-0.9565 1.1211-1.7288 0.0282-0.2081-0.0121-0.3522-0.1734-0.4403-0.0786-0.0408-0.1571-0.0816-0.2356-0.1224-0.6063-0.3152-1.2105-0.6294-1.821-0.9341-0.238-0.12-0.3267-0.08-0.5041 0.1241-0.1828 0.2134-0.3692 0.4233-0.5556 0.6332-0.0932 0.1049-0.1864 0.2099-0.2792 0.3153-0.129 0.148-0.2903 0.16-0.4556 0.08-0.5646-0.2721-1.109-0.5643-1.601-0.9565-0.746-0.5963-1.3106-1.3326-1.7743-2.153-0.10484-0.1801-0.07662-0.3322 0.08065-0.4803 0.18956-0.1761 0.36296-0.3722 0.52826-0.5763 0.1936-0.24009 0.2863-0.50022 0.1371-0.81237-0.0779-0.16236-0.1374-0.33302-0.1968-0.50343-0.0329-0.09421-0.0657-0.18835-0.1016-0.28096-0.0431-0.11206-0.0855-0.22379-0.1278-0.33529-0.1042-0.27472-0.20794-0.548-0.31981-0.82128-0.06049-0.14407-0.15727-0.26813-0.3347-0.28414-0.05343-4e-3 -0.10687-0.00901-0.1603-0.01401-0.16029-0.01501-0.32059-0.03001-0.48088-0.01801-0.16534 0.01601-0.3589 0.06003-0.48795 0.15608-0.64521 0.49224-1.0283 1.1446-1.109 1.961-0.07662 0.76838 0.14114 1.4687 0.50004 2.129 0.50408 0.9325 1.117 1.8049 1.8389 2.5893 0.6533 0.7083 1.367 1.3487 2.2381 1.7769 0.5773 0.283 1.1792 0.5171 1.7789 0.7505 0.0873 0.0339 0.1745 0.0678 0.2616 0.1019 0.7621 0.2961 1.5041 0.2041 2.234-0.1561z" fill="#676767"/>
  <path d="m2.8025 19.619c-0.26211 0.7764-0.52423 1.5528-0.80248 2.3812 0.27807-0.092 0.50821-0.1681 0.73393-0.2401 0.2928-0.093 0.58574-0.1859 0.87879-0.2789 1.2083-0.3834 2.4183-0.7673 3.6256-1.1538 0.14114-0.048 0.25002-0.032 0.37906 0.036 0.79039 0.4242 1.6292 0.7364 2.5083 0.9044 2.9236 0.5643 5.6053 8e-3 7.9966-1.7848 1.7219-1.2887 2.8792-2.9815 3.4841-5.0345 0.4759-1.6208 0.5202-3.2576 0.1331-4.9025-0.4799-2.041-1.5163-3.7579-3.1051-5.1385-1.7058-1.4847-3.7059-2.3051-5.9682-2.3972-3.089-0.12807-5.7021 0.96047-7.795 3.2296-1.2703 1.3807-2.0566 3.0055-2.3671 4.8424-0.36696 2.1691-0.05242 4.2541 1.0041 6.1991 0.19356 0.3602 0.24195 0.6483 0.08871 1.0325-0.20661 0.5237-0.38229 1.0589-0.55783 1.5937-0.07799 0.2375-0.15595 0.4751-0.23659 0.7114zm1.7977-0.1398c-0.01401 0.0035-0.02971 0.0073-0.04758 0.0118 0.08026-0.239 0.15785-0.4753 0.23468-0.7094 0.18951-0.5772 0.37447-1.1406 0.58393-1.6958 0.14517-0.3802 0.15324-0.6644-0.08872-1.0365-1.2017-1.853-1.5324-3.886-1.0848-6.035 0.31454-1.5008 1.0364-2.8054 2.1131-3.91 1.2541-1.2886 2.7744-2.093 4.5528-2.3732 2.0647-0.32416 4.0003 0.06403 5.7586 1.2086 2.0283 1.3247 3.2542 3.1896 3.6333 5.5627 0.2984 1.8649-0.0323 3.6378-0.996 5.2786-1.1251 1.917-2.7704 3.1856-4.9158 3.7819-1.7985 0.4962-3.5769 0.3802-5.3028-0.3442-0.25972-0.109-0.50861-0.2426-0.75722-0.3761-0.15283-0.082-0.30556-0.164-0.46062-0.2402-0.08468-0.04-0.20566-0.064-0.29438-0.036-0.72512 0.2214-1.4479 0.4499-2.1701 0.6783-0.21761 0.0688-0.43518 0.1376-0.65275 0.2061-0.02824 0.0094-0.05649 0.0163-0.10565 0.0283z" fill="#676767"/>
</svg>
