<svg width="24" height="24" viewBox="0 0 24 24" fill="none" xmlns="http://www.w3.org/2000/svg">
<path d="M15.1978 5.73194C13.512 6.02886 11.8759 6.17732 10.3388 6.52373C9.5951 6.67219 6.57062 7.21655 5.97564 6.17732C5.47982 5.48451 5.92606 4.44529 5.97564 4.14837C6.0748 3.6535 6.02522 3.10915 6.17397 2.66377C6.32271 2.26787 6.66978 2.21839 7.06644 2.36685C7.51267 2.56479 8.00849 2.81223 8.45472 2.86171C11.9254 3.10915 15.3961 3.05966 18.8173 2.36685C18.8669 2.36685 18.966 2.31736 19.0156 2.31736C20.5031 1.97095 20.8501 2.11941 21.5938 3.50504C21.7922 3.90094 21.9409 4.29683 21.9905 4.69272C22.0401 4.94016 21.8913 5.33605 21.6434 5.48451C17.3794 8.89909 13.3633 12.7096 9.34719 16.4706C9.14886 16.6685 8.90096 16.817 8.65305 17.0149C8.70263 17.0644 8.75221 17.0644 8.80179 17.1139C9.54552 17.1139 10.2892 17.0644 11.0825 17.1139C12.1733 17.1634 13.3137 17.2129 14.4045 17.3613C15.7432 17.6088 16.7349 18.8954 16.7349 20.1821C16.7349 20.9739 16.5365 21.0728 15.892 20.7264C15.5945 20.578 15.297 20.5285 14.9499 20.5285C12.6692 20.38 10.438 20.7759 8.20681 21.2213C7.41351 21.3697 6.57062 21.5677 5.77731 21.7656C5.13275 21.9141 4.48819 21.8646 3.94279 21.4192C2.90158 20.578 2.20744 19.5387 2.00911 18.2026C1.95953 17.6582 2.10827 17.2129 2.55451 16.7675C5.92606 13.7488 9.24803 10.7301 12.6196 7.71141C13.4129 7.06808 14.3054 6.47424 15.1978 5.73194Z" fill="#676767"/>
</svg>
