<svg width="33" height="33" fill="none" xmlns="http://www.w3.org/2000/svg"><path d="M25.5.31h-18C3.634.31.5 3.44.5 7.3v17.978c0 3.861 3.134 6.991 7 6.991h18c3.866 0 7-3.13 7-6.991V7.3c0-3.86-3.134-6.99-7-6.99z" fill="#FF4B55"/><path d="M7.626 5.752l.795 2.38 2.514.02c.325.003.46.417.198.61l-2.022 1.491.758 2.393a.339.339 0 01-.52.377l-2.044-1.46-2.045 1.46a.339.339 0 01-.52-.377l.759-2.393-2.022-1.49a.338.338 0 01.198-.61l2.514-.02.795-2.38a.339.339 0 01.642 0zM16.752 6.339l.57.776.92-.287a.13.13 0 01.145.2l-.564.781.558.785a.13.13 0 01-.145.199l-.918-.293-.576.772a.13.13 0 01-.234-.077l-.004-.963-.914-.307a.13.13 0 01.001-.246l.916-.302.01-.963a.13.13 0 01.235-.075zM13.281 4.024l.958.104.41-.872a.13.13 0 01.244.028l.197.943.957.119a.13.13 0 01.049.241l-.837.478.182.946a.13.13 0 01-.215.12l-.714-.646-.844.465a.13.13 0 01-.181-.167l.395-.878-.704-.658a.13.13 0 01.103-.223zM14.796 13.354l-.57.777-.92-.287a.13.13 0 00-.144.2l.563.78-.558.786a.13.13 0 00.146.199l.918-.294.575.773a.13.13 0 00.234-.077l.005-.963.913-.308a.13.13 0 000-.246l-.916-.301-.011-.963a.13.13 0 00-.235-.075zM18.268 11.18l-.959.104-.409-.872a.13.13 0 00-.245.029l-.197.942-.956.119a.13.13 0 00-.049.241l.837.479-.183.945a.13.13 0 00.215.12l.714-.646.844.465a.13.13 0 00.182-.166l-.396-.879.704-.657a.13.13 0 00-.102-.224z" fill="#FFE15A"/></svg>