<svg width="33" height="33" fill="none" xmlns="http://www.w3.org/2000/svg"><path d="M32.57 7.685h-32v2.458h32V7.685zM30.899 2.769H2.24A6.97 6.97 0 00.883 5.226h31.374a6.97 6.97 0 00-1.358-2.457zM32.57 12.601h-32v2.458h32v-2.458zM32.57 17.517h-32v2.46h32v-2.46zM32.57 22.436h-32v2.457h32v-2.457zM32.257 27.352H.883c.284.914.751 1.747 1.358 2.458h28.658a6.974 6.974 0 001.358-2.458z" fill="#F5F5F5"/><path d="M25.57.31h-18A6.987 6.987 0 002.24 2.77H30.9A6.987 6.987 0 0025.569.31zM32.57 10.143h-32v2.458h32v-2.458zM32.57 7.3c0-.722-.11-1.418-.313-2.074H.883A6.983 6.983 0 00.57 7.301v.384h32v-.384zM32.57 15.06h-32v2.457h32V15.06zM32.57 25.277v-.384h-32v.384c0 .723.11 1.42.313 2.075h31.374a6.981 6.981 0 00.313-2.075zM30.899 29.81H2.24a6.988 6.988 0 005.329 2.458h18a6.988 6.988 0 005.329-2.458zM32.57 19.977h-32v2.458h32v-2.458z" fill="#FF4B55"/><path d="M17.8.31H7.57c-3.866 0-7 3.13-7 6.99v10.217H17.8V.31z" fill="#41479B"/><path d="M2.43 2.998a.057.057 0 00.086.063l.341-.244.342.244a.057.057 0 00.087-.063l-.127-.4.338-.25a.057.057 0 00-.034-.101l-.42-.003-.07-.215c-.18.157-.352.323-.515.497l.098.072-.127.4zM2.91 5.163l.134.398.42.004c.054 0 .076.07.033.102l-.338.249.126.4a.057.057 0 01-.086.063l-.342-.244-.341.244a.057.057 0 01-.087-.063l.127-.4-.338-.25a.057.057 0 01.033-.101l.42-.004.132-.398a.057.057 0 01.108 0zM2.91 8.842l.134.397.42.004c.054 0 .076.07.033.102l-.338.249.126.4a.057.057 0 01-.086.062l-.342-.244-.341.244a.057.057 0 01-.087-.063l.127-.4-.338-.248a.056.056 0 01.033-.102l.42-.004.132-.397c.018-.052.09-.052.108 0zM2.91 12.222l.134.397.42.004c.054 0 .076.07.033.102l-.338.248.126.4a.057.057 0 01-.086.063l-.342-.244-.341.244a.057.057 0 01-.087-.063l.127-.4-.338-.248a.056.056 0 01.033-.102l.42-.004.132-.397c.018-.052.09-.052.108 0zM2.91 15.297l.134.397.42.004c.054 0 .076.07.033.102l-.338.249.126.4a.057.057 0 01-.086.062l-.342-.244-.341.244a.057.057 0 01-.087-.063l.127-.4-.338-.248a.056.056 0 01.033-.102l.42-.004.132-.397c.018-.052.09-.052.108 0zM4.527 3.417l.133.398.42.003c.054 0 .077.07.033.102l-.338.249.127.4a.057.057 0 01-.087.062l-.341-.243-.342.243a.057.057 0 01-.087-.063l.127-.4-.337-.248a.056.056 0 01.033-.102l.42-.003.132-.398a.057.057 0 01.107 0zM4.527 7.096l.133.397.42.004c.054 0 .077.07.033.101l-.338.25.127.399a.057.057 0 01-.087.063l-.341-.244-.342.244a.057.057 0 01-.087-.063l.127-.4-.338-.249a.056.056 0 01.034-.101l.42-.004.132-.397a.057.057 0 01.107 0zM4.527 10.59l.133.398.42.003c.054 0 .077.07.033.102l-.338.249.127.4a.057.057 0 01-.087.062l-.341-.243-.342.243a.057.057 0 01-.087-.063l.127-.4-.338-.248a.056.056 0 01.034-.102l.42-.003.132-.397c.017-.052.09-.052.107 0zM4.527 13.73l.133.397.42.003c.054 0 .077.07.033.102l-.338.249.127.399a.057.057 0 01-.087.063l-.341-.244-.342.244a.057.057 0 01-.087-.063l.127-.4-.338-.248a.056.056 0 01.034-.102l.42-.003.132-.398c.017-.05.09-.05.107 0zM6.144 1.847l.133.397.42.004c.054 0 .076.07.032.101l-.337.25.126.399a.057.057 0 01-.086.063l-.342-.244-.341.244a.057.057 0 01-.087-.063l.126-.4-.337-.249a.056.056 0 01.033-.101l.42-.004.132-.397c.018-.052.09-.052.108 0zM6.144 5.163l.133.398.42.004c.054 0 .076.07.032.102l-.337.249.126.4a.057.057 0 01-.086.063l-.342-.244-.341.244a.057.057 0 01-.087-.063l.126-.4-.337-.25a.057.057 0 01.033-.101l.42-.004.132-.398a.057.057 0 01.108 0zM6.144 8.842l.133.397.42.004c.054 0 .076.07.032.102l-.337.249.126.4a.057.057 0 01-.086.062l-.342-.244-.341.244a.057.057 0 01-.087-.063l.126-.4-.337-.248a.056.056 0 01.033-.102l.42-.004.132-.397a.057.057 0 01.108 0zM6.144 12.222l.133.397.42.004c.054 0 .076.07.032.102l-.337.248.126.4a.057.057 0 01-.086.063l-.342-.244-.341.244a.057.057 0 01-.087-.063l.126-.4-.337-.248a.056.056 0 01.033-.102l.42-.004.132-.397a.057.057 0 01.108 0zM6.144 15.297l.133.397.42.004c.054 0 .076.07.032.102l-.337.249.126.4a.057.057 0 01-.086.062l-.342-.244-.341.244a.057.057 0 01-.087-.063l.126-.4-.337-.248a.056.056 0 01.033-.102l.42-.004.132-.397a.057.057 0 01.108 0zM7.76 3.417l.133.398.42.003c.054 0 .076.07.033.102l-.338.249.127.4a.057.057 0 01-.087.062l-.341-.243-.342.243a.057.057 0 01-.087-.063l.127-.4-.338-.248a.056.056 0 01.033-.102l.42-.003.133-.398a.057.057 0 01.107 0zM7.76 7.096l.133.397.42.004c.054 0 .076.07.033.101l-.338.25.127.399a.057.057 0 01-.087.063l-.341-.244-.342.244a.057.057 0 01-.087-.063l.127-.4-.338-.249a.056.056 0 01.033-.101l.42-.004.133-.397a.057.057 0 01.107 0zM7.76 10.59l.133.398.42.003c.054 0 .076.07.033.102l-.338.249.127.4a.057.057 0 01-.087.062l-.341-.243-.342.243a.057.057 0 01-.087-.063l.127-.4-.338-.248a.056.056 0 01.033-.102l.42-.003.133-.397c.017-.052.09-.052.107 0zM7.76 13.73l.133.397.42.003c.054 0 .076.07.033.102l-.338.249.127.399a.056.056 0 01-.087.063l-.341-.244-.342.244a.057.057 0 01-.087-.063l.127-.4-.338-.248a.056.056 0 01.033-.102l.42-.003.133-.398c.017-.05.09-.05.107 0zM9.377 1.847l.132.397.42.004c.054 0 .077.07.033.101l-.337.25.126.399a.057.057 0 01-.087.063l-.341-.244-.341.244a.057.057 0 01-.087-.063l.126-.4-.337-.249a.056.056 0 01.033-.101l.42-.004.132-.397a.057.057 0 01.108 0zM9.377 5.163l.132.398.42.003c.054 0 .077.07.033.102l-.337.249.126.4a.057.057 0 01-.087.062l-.341-.243-.341.243a.057.057 0 01-.087-.063l.126-.4-.337-.248a.056.056 0 01.033-.102l.42-.003.132-.398a.057.057 0 01.108 0zM9.377 8.842l.132.397.42.004c.054 0 .077.07.033.102l-.337.249.126.4a.057.057 0 01-.087.062l-.341-.244-.341.244a.057.057 0 01-.087-.063l.126-.4-.337-.248a.056.056 0 01.033-.102l.42-.004.132-.397a.057.057 0 01.108 0zM9.377 12.222l.132.397.42.004c.054 0 .077.07.033.102l-.337.248.126.4a.057.057 0 01-.087.063l-.341-.244-.341.244a.057.057 0 01-.087-.063l.126-.4-.337-.248a.056.056 0 01.033-.102l.42-.004.132-.397a.057.057 0 01.108 0zM9.377 15.297l.132.397.42.004c.054 0 .077.07.033.102l-.337.249.126.4a.057.057 0 01-.087.062l-.341-.244-.341.244a.057.057 0 01-.087-.063l.126-.4-.337-.248a.056.056 0 01.033-.102l.42-.004.132-.397a.057.057 0 01.108 0zM10.993 3.417l.133.398.42.003c.054 0 .076.07.033.102l-.338.249.127.4a.057.057 0 01-.087.062l-.342-.243-.341.243a.057.057 0 01-.087-.063l.127-.4-.338-.248a.056.056 0 01.033-.102l.42-.003.133-.398a.057.057 0 01.107 0zM10.993 7.096l.133.397.42.004c.054 0 .076.07.033.101l-.338.25.127.399a.057.057 0 01-.087.063l-.342-.244-.341.244a.057.057 0 01-.087-.063l.127-.4-.338-.249a.056.056 0 01.033-.101l.42-.004.133-.397a.057.057 0 01.107 0zM10.993 10.59l.133.398.42.003c.054 0 .076.07.033.102l-.338.249.127.4a.057.057 0 01-.087.062l-.342-.243-.341.243a.057.057 0 01-.087-.063l.127-.4-.338-.248a.056.056 0 01.033-.102l.42-.003.133-.397c.017-.052.09-.052.107 0zM10.993 13.73l.133.397.42.003c.054 0 .076.07.033.102l-.338.249.127.399a.057.057 0 01-.087.063l-.342-.244-.341.244a.056.056 0 01-.087-.063l.127-.4-.338-.248a.056.056 0 01.033-.102l.42-.003.133-.398c.017-.05.09-.05.107 0zM12.61 1.847l.132.397.42.004c.054 0 .077.07.033.101l-.338.25.127.399a.057.057 0 01-.087.063l-.341-.244-.342.244a.057.057 0 01-.087-.063l.127-.4-.338-.249a.056.056 0 01.034-.101l.42-.004.132-.397c.018-.052.09-.052.108 0zM12.61 5.163l.132.398.42.004c.054 0 .077.07.033.102l-.338.249.127.4a.057.057 0 01-.087.063l-.341-.244-.342.244a.057.057 0 01-.087-.063l.127-.4-.338-.25a.057.057 0 01.034-.101l.42-.004.132-.398c.018-.051.09-.051.108 0zM12.61 8.842l.132.397.42.004c.054 0 .077.07.033.102l-.338.249.127.4a.057.057 0 01-.087.062l-.341-.244-.342.244a.057.057 0 01-.087-.063l.127-.4-.338-.248a.057.057 0 01.034-.102l.42-.004.132-.397c.018-.052.09-.052.108 0zM12.61 12.222l.132.397.42.004c.054 0 .077.07.033.102l-.338.248.127.4a.057.057 0 01-.087.063l-.341-.244-.342.244a.057.057 0 01-.087-.063l.127-.4-.338-.248a.056.056 0 01.034-.102l.42-.004.132-.397c.018-.052.09-.052.108 0zM12.61 15.297l.132.397.42.004c.054 0 .077.07.033.102l-.338.249.127.4a.057.057 0 01-.087.062l-.341-.244-.342.244a.057.057 0 01-.087-.063l.127-.4-.338-.248a.056.056 0 01.034-.102l.42-.004.132-.397c.018-.052.09-.052.108 0zM14.226 3.417l.133.398.42.003c.054 0 .076.07.033.102l-.338.249.127.4a.057.057 0 01-.087.062l-.342-.243-.341.243a.057.057 0 01-.087-.063l.127-.4-.338-.248a.056.056 0 01.033-.102l.42-.003.132-.398a.057.057 0 01.108 0zM14.226 7.096l.133.397.42.004c.054 0 .076.07.033.101l-.338.25.127.399a.057.057 0 01-.087.063l-.342-.244-.341.244a.057.057 0 01-.087-.063l.127-.4-.338-.249a.057.057 0 01.033-.101l.42-.004.132-.397a.057.057 0 01.108 0zM14.226 10.59l.133.398.42.003c.054 0 .076.07.033.102l-.338.249.127.4a.057.057 0 01-.087.062l-.342-.243-.341.243a.057.057 0 01-.087-.063l.127-.4-.338-.248a.057.057 0 01.033-.102l.42-.003.132-.397c.018-.052.09-.052.108 0zM14.226 13.73l.133.397.42.003c.054 0 .076.07.033.102l-.338.249.127.399a.056.056 0 01-.087.063l-.342-.244-.341.244a.056.056 0 01-.087-.063l.127-.4-.338-.248a.057.057 0 01.033-.102l.42-.003.132-.398c.018-.05.09-.05.108 0zM15.842 1.847l.133.397.42.004c.054 0 .077.07.033.101l-.338.25.127.399a.057.057 0 01-.087.063l-.341-.244-.342.244a.057.057 0 01-.087-.063l.127-.4-.338-.249a.056.056 0 01.034-.101l.42-.004.132-.397c.017-.052.09-.052.107 0zM15.842 5.163l.133.398.42.004c.054 0 .077.07.033.102l-.338.249.127.4a.057.057 0 01-.087.063l-.341-.244-.342.244a.057.057 0 01-.087-.063l.127-.4-.338-.25a.057.057 0 01.034-.101l.42-.004.132-.398c.017-.051.09-.051.107 0zM15.842 8.842l.133.397.42.004c.054 0 .077.07.033.102l-.338.249.127.4a.057.057 0 01-.087.062l-.341-.244-.342.244a.057.057 0 01-.087-.063l.127-.4-.338-.248a.056.056 0 01.034-.102l.42-.004.132-.397c.017-.052.09-.052.107 0zM15.842 12.222l.133.397.42.004c.054 0 .077.07.033.102l-.338.248.127.4a.057.057 0 01-.087.063l-.341-.244-.342.244a.057.057 0 01-.087-.063l.127-.4-.338-.248a.056.056 0 01.034-.102l.42-.004.132-.397c.017-.052.09-.052.107 0zM15.842 15.297l.133.397.42.004c.054 0 .077.07.033.102l-.338.249.127.4a.057.057 0 01-.087.062l-.341-.244-.342.244a.057.057 0 01-.087-.063l.127-.4-.338-.248a.056.056 0 01.034-.102l.42-.004.132-.397c.017-.052.09-.052.107 0z" fill="#F5F5F5"/></svg>