<svg width="40" height="30" viewBox="0 0 40 30" fill="none" xmlns="http://www.w3.org/2000/svg">
<path fill-rule="evenodd" clip-rule="evenodd" d="M3.75 0H36.25C38.3211 0 40 1.67891 40 3.75V26.25C40 28.3211 38.3211 30 36.25 30H3.75C1.67891 30 0 28.3211 0 26.25V3.75C0 1.67891 1.67891 0 3.75 0ZM19.2188 11.7188C19.2188 8.69844 16.7703 6.25 13.75 6.25C10.7297 6.25 8.28125 8.69844 8.28125 11.7188C8.28125 14.7391 10.7297 17.1875 13.75 17.1875C16.7703 17.1875 19.2188 14.7391 19.2188 11.7188ZM22.5 22.1094C22.5 23.0155 21.7655 23.75 20.8594 23.75H6.64062C5.73453 23.75 5 23.0155 5 22.1094V20.8432C5 19.3376 6.02469 18.0251 7.48539 17.6599L9.92289 17.0505C11.9123 18.4815 15.0162 18.8925 17.5771 17.0505L20.0146 17.6599C21.4753 18.0251 22.5 19.3375 22.5 20.8432V22.1094ZM34.0625 20C34.5802 20 35 19.5802 35 19.0625V18.4375C35 17.9198 34.5802 17.5 34.0625 17.5H25.9375C25.4198 17.5 25 17.9198 25 18.4375V19.0625C25 19.5802 25.4198 20 25.9375 20H34.0625ZM35 14.0625C35 14.5802 34.5802 15 34.0625 15H25.9375C25.4198 15 25 14.5802 25 14.0625V13.4375C25 12.9198 25.4198 12.5 25.9375 12.5H34.0625C34.5802 12.5 35 12.9198 35 13.4375V14.0625ZM34.0625 10C34.5802 10 35 9.58023 35 9.0625V8.4375C35 7.91977 34.5802 7.5 34.0625 7.5H25.9375C25.4198 7.5 25 7.91977 25 8.4375V9.0625C25 9.58023 25.4198 10 25.9375 10H34.0625Z" fill="#7E99D0"/>
</svg>
