<svg width="36" height="40" viewBox="0 0 36 40" fill="none" xmlns="http://www.w3.org/2000/svg">
<path fill-rule="evenodd" clip-rule="evenodd" d="M0 36.25V3.75C0 1.67891 1.72688 0 3.85714 0H32.1429C34.2731 0 36 1.67891 36 3.75V36.25C36 38.3211 34.2731 40 32.1429 40H3.85714C1.72688 40 0 38.3211 0 36.25ZM30.8571 14.0625V5.9375C30.8571 5.41977 30.4254 5 29.8928 5H6.10713C5.5746 5 5.14284 5.41977 5.14284 5.9375V14.0625C5.14284 14.5802 5.5746 15 6.10713 15H29.8928C30.4254 15 30.8571 14.5802 30.8571 14.0625ZM10.2857 20.9375V24.0625C10.2857 24.5802 9.85394 25 9.32141 25H6.10713C5.5746 25 5.14284 24.5802 5.14284 24.0625V20.9375C5.14284 20.4198 5.5746 20 6.10713 20H9.32141C9.85394 20 10.2857 20.4198 10.2857 20.9375ZM30.8572 34.0625V20.9375C30.8572 20.4198 30.4254 20 29.8929 20H26.6786C26.1461 20 25.7143 20.4198 25.7143 20.9375V34.0625C25.7143 34.5802 26.1461 35 26.6786 35H29.8929C30.4254 35 30.8572 34.5802 30.8572 34.0625ZM10.2857 30.9375V34.0625C10.2857 34.5802 9.85394 35 9.32141 35H6.10713C5.5746 35 5.14284 34.5802 5.14284 34.0625V30.9375C5.14284 30.4198 5.5746 30 6.10713 30H9.32141C9.85394 30 10.2857 30.4198 10.2857 30.9375ZM20.5714 24.0625V20.9375C20.5714 20.4198 20.1396 20 19.6071 20H16.3928C15.8603 20 15.4285 20.4198 15.4285 20.9375V24.0625C15.4285 24.5802 15.8603 25 16.3928 25H19.6071C20.1396 25 20.5714 24.5802 20.5714 24.0625ZM20.5714 30.9375V34.0625C20.5714 34.5802 20.1396 35 19.6071 35H16.3928C15.8603 35 15.4285 34.5802 15.4285 34.0625V30.9375C15.4285 30.4198 15.8603 30 16.3928 30H19.6071C20.1396 30 20.5714 30.4198 20.5714 30.9375Z" fill="#7E99D0"/>
</svg>
