<svg width="36" height="40" viewBox="0 0 36 40" fill="none" xmlns="http://www.w3.org/2000/svg">
<path fill-rule="evenodd" clip-rule="evenodd" d="M0.964286 12.5H35.0357C35.5661 12.5 36 12.0781 36 11.5625V8.75C36 6.67969 34.2723 5 32.1429 5H28.2857V0.9375C28.2857 0.421875 27.8518 0 27.3214 0H24.1071C23.5768 0 23.1429 0.421875 23.1429 0.9375V5H12.8571V0.9375C12.8571 0.421875 12.4232 0 11.8929 0H8.67857C8.14821 0 7.71429 0.421875 7.71429 0.9375V5H3.85714C1.72768 5 0 6.67969 0 8.75V11.5625C0 12.0781 0.433929 12.5 0.964286 12.5ZM35.0357 15H0.964286C0.433929 15 0 15.4219 0 15.9375V36.25C0 38.3203 1.72768 40 3.85714 40H32.1429C34.2723 40 36 38.3203 36 36.25V15.9375C36 15.4219 35.5661 15 35.0357 15ZM10.2858 30.9375C10.2858 30.4219 9.85189 30 9.32153 30H6.10725C5.57689 30 5.14296 30.4219 5.14296 30.9375V34.0625C5.14296 34.5781 5.57689 35 6.10725 35H9.32153C9.85189 35 10.2858 34.5781 10.2858 34.0625V30.9375ZM9.32153 20C9.85189 20 10.2858 20.4219 10.2858 20.9375V24.0625C10.2858 24.5781 9.85189 25 9.32153 25H6.10725C5.57689 25 5.14296 24.5781 5.14296 24.0625V20.9375C5.14296 20.4219 5.57689 20 6.10725 20H9.32153ZM20.5715 30.9375C20.5715 30.4219 20.1376 30 19.6072 30H16.3929C15.8626 30 15.4286 30.4219 15.4286 30.9375V34.0625C15.4286 34.5781 15.8626 35 16.3929 35H19.6072C20.1376 35 20.5715 34.5781 20.5715 34.0625V30.9375ZM19.6072 20C20.1376 20 20.5715 20.4219 20.5715 20.9375V24.0625C20.5715 24.5781 20.1376 25 19.6072 25H16.3929C15.8626 25 15.4286 24.5781 15.4286 24.0625V20.9375C15.4286 20.4219 15.8626 20 16.3929 20H19.6072ZM30.8572 30.9375C30.8572 30.4219 30.4232 30 29.8929 30H26.6786C26.1483 30 25.7143 30.4219 25.7143 30.9375V34.0625C25.7143 34.5781 26.1483 35 26.6786 35H29.8929C30.4232 35 30.8572 34.5781 30.8572 34.0625V30.9375ZM29.8929 20C30.4232 20 30.8572 20.4219 30.8572 20.9375V24.0625C30.8572 24.5781 30.4232 25 29.8929 25H26.6786C26.1483 25 25.7143 24.5781 25.7143 24.0625V20.9375C25.7143 20.4219 26.1483 20 26.6786 20H29.8929Z" fill="#7E99D0"/>
</svg>
