<svg width="40" height="30" viewBox="0 0 40 30" fill="none" xmlns="http://www.w3.org/2000/svg">
<path fill-rule="evenodd" clip-rule="evenodd" d="M39.0625 25C39.5781 25 40 25.4219 40 25.9375V29.0625C40 29.5781 39.5781 30 39.0625 30H0.9375C0.421875 30 0 29.5781 0 29.0625V0.9375C0 0.421875 0.421875 0 0.9375 0H4.0625C4.57812 0 5 0.421875 5 0.9375V25H39.0625ZM15 21.5625V15.9375C15 15.4219 14.5781 15 14.0625 15H10.9375C10.4219 15 10 15.4219 10 15.9375V21.5625C10 22.0781 10.4219 22.5 10.9375 22.5H14.0625C14.5781 22.5 15 22.0781 15 21.5625ZM30 10.9375V21.5625C30 22.0781 29.5781 22.5 29.0625 22.5H25.9375C25.4219 22.5 25 22.0781 25 21.5625V10.9375C25 10.4219 25.4219 10 25.9375 10H29.0625C29.5781 10 30 10.4219 30 10.9375ZM22.5 21.5625V5.9375C22.5 5.42188 22.0781 5 21.5625 5H18.4375C17.9219 5 17.5 5.42188 17.5 5.9375V21.5625C17.5 22.0781 17.9219 22.5 18.4375 22.5H21.5625C22.0781 22.5 22.5 22.0781 22.5 21.5625ZM37.5 3.4375V21.5625C37.5 22.0781 37.0781 22.5 36.5625 22.5H33.4375C32.9219 22.5 32.5 22.0781 32.5 21.5625V3.4375C32.5 2.92188 32.9219 2.5 33.4375 2.5H36.5625C37.0781 2.5 37.5 2.92188 37.5 3.4375Z" fill="#7E99D0"/>
</svg>
