<svg width="40" height="40" viewBox="0 0 40 40" fill="none" xmlns="http://www.w3.org/2000/svg">
<path fill-rule="evenodd" clip-rule="evenodd" d="M20 39.375C30.7005 39.375 39.375 30.7005 39.375 20C39.375 9.29945 30.7005 0.625 20 0.625C9.29945 0.625 0.625 9.29945 0.625 20C0.625 30.7005 9.29945 39.375 20 39.375ZM32.1339 15.884L17.7589 30.259C17.2707 30.7471 16.4793 30.7471 15.9911 30.2589L7.86609 22.1339C7.37797 21.6458 7.37797 20.8543 7.86609 20.3662L9.63383 18.5984C10.122 18.1103 10.9135 18.1103 11.4016 18.5984L16.875 24.0718L28.5984 12.3485C29.0866 11.8603 29.878 11.8603 30.3662 12.3485L32.1339 14.1162C32.622 14.6044 32.622 15.3958 32.1339 15.884Z" fill="#7E99D0"/>
</svg>
