<svg width="38" height="40" viewBox="0 0 38 40" fill="none" xmlns="http://www.w3.org/2000/svg">
<path fill-rule="evenodd" clip-rule="evenodd" d="M37.0786 24.664L33.7492 22.7422C34.0836 20.9294 34.0836 19.0707 33.7492 17.2579L37.0787 15.3361C37.4589 15.1165 37.6354 14.6627 37.5052 14.2435C36.6403 11.459 35.1637 8.94333 33.2326 6.85395C32.9349 6.53173 32.4538 6.45861 32.0738 6.67786L28.747 8.59935C27.3472 7.39997 25.7379 6.46951 24.0002 5.85481V2.01231C24.0002 1.5727 23.6944 1.19278 23.2655 1.09645C20.3968 0.452001 17.4637 0.48372 14.7328 1.097C14.3045 1.19323 14.0002 1.57352 14.0002 2.01247V5.85489C12.2625 6.46963 10.6532 7.40008 9.25343 8.59942L5.92656 6.67794C5.54661 6.45869 5.06547 6.53181 4.76781 6.85403C2.83664 8.94341 1.36007 11.459 0.495231 14.2436C0.364996 14.6629 0.541481 15.1167 0.921715 15.3361L4.25109 17.2579C3.91668 19.0707 3.91668 20.9294 4.25109 22.7422L0.921637 24.664C0.541402 24.8836 0.364918 25.3374 0.495152 25.7566C1.36 28.5411 2.83664 31.0568 4.76773 33.1461C5.06539 33.4684 5.54653 33.5415 5.92648 33.3222L9.25336 31.4008C10.6531 32.6001 12.2624 33.5306 14.0002 34.1453V37.9878C14.0002 38.4274 14.3059 38.8073 14.7348 38.9036C17.6035 39.5481 20.5366 39.5164 23.2675 38.9031C23.6958 38.8069 24.0001 38.4266 24.0001 37.9876V34.1453C25.7378 33.5305 27.3471 32.6001 28.7469 31.4008L32.0737 33.3222C32.4537 33.5415 32.9348 33.4684 33.2325 33.1461C35.1637 31.0568 36.6402 28.5411 37.5051 25.7566C37.6353 25.3373 37.4588 24.8835 37.0786 24.664ZM19.0001 13.75C22.4463 13.75 25.2501 16.5538 25.2501 20C25.2501 23.4463 22.4463 26.25 19.0001 26.25C15.5538 26.25 12.7501 23.4463 12.7501 20C12.7501 16.5538 15.5538 13.75 19.0001 13.75Z" fill="#7E99D0"/>
</svg>
