<svg width="40" height="36" viewBox="0 0 40 36" fill="none" xmlns="http://www.w3.org/2000/svg">
<path fill-rule="evenodd" clip-rule="evenodd" d="M6.28472 0H11.8264L7.02083 11.25H0L6.28472 0ZM29.632 11.25L24.8264 0H15.1737L10.3681 11.25H29.632ZM40.0001 11.25L33.7154 0H28.1737L32.9793 11.25H40.0001ZM6.99306 13.5H0L15.1875 31.4297C15.3472 31.6125 15.6389 31.4156 15.5347 31.1977L6.99306 13.5ZM10.2916 13.5H29.7083L20.1944 35.8734C20.1249 36.0422 19.8819 36.0422 19.8124 35.8734L10.2916 13.5ZM33.007 13.5L24.4653 31.1977C24.3611 31.4156 24.6528 31.6125 24.8125 31.4227L40 13.5H33.007Z" fill="#08DC1B"/>
</svg>
