<svg width="40" height="36" viewBox="0 0 40 36" fill="none" xmlns="http://www.w3.org/2000/svg">
<path d="M36.0724 20.2958C33.1891 20.2958 31.9404 22.5172 30.3739 22.5172C26.209 22.5172 30 10.125 30 10.125C30 10.125 16.3689 15.75 16.3689 9.89318C16.3689 7.37409 18.8889 6.64123 18.8889 3.84736C18.8889 1.35113 16.9365 0 14.6208 0C12.2142 0 10.012 1.32827 10.012 3.96183C10.012 6.87023 12.2142 8.12974 12.2142 9.70988C12.2142 14.6052 0 11.7252 0 11.7252V35.1559C0 35.1559 12.4052 38.042 12.4052 33.1406C12.4052 31.5605 9.62743 30.3206 9.62743 27.4122C9.62743 24.7785 11.6587 23.4503 14.0425 23.4503C16.3809 23.4503 18.3333 24.8015 18.3333 27.2976C18.3333 30.0915 15.8133 30.8244 15.8133 33.3435C15.8133 37.6187 24.8185 35.1526 28.3988 35.1526C28.3988 35.1526 25.9873 26.708 30.1923 26.708C32.6897 26.708 33.4161 29.2499 36.1859 29.2499C38.6606 29.25 40 27.2805 40 24.9218C40 22.5172 38.6832 20.2958 36.0724 20.2958Z" fill="#7E99D0"/>
</svg>
