<?xml version="1.0" encoding="utf-8"?>
<!-- Generator: Adobe Illustrator 17.1.0, SVG Export Plug-In . SVG Version: 6.00 Build 0)  -->
<!DOCTYPE svg PUBLIC "-//W3C//DTD SVG 1.1//EN" "http://www.w3.org/Graphics/SVG/1.1/DTD/svg11.dtd">
<svg version="1.1" id="Capa_1" xmlns="http://www.w3.org/2000/svg" xmlns:xlink="http://www.w3.org/1999/xlink" x="0px" y="0px"
	 viewBox="0 0 1440 800" enable-background="new 0 0 1440 800" xml:space="preserve">
<g>
	<rect x="320" y="133.3" fill="#FCDD09" width="800" height="533.3"/>
	<path fill="#DA121A" d="M320,310.7v356h800v-356H320z M843.9,513c11.9,1.3,24.9,8.1,31.3,16.6l6.2,7.9l-8-5.1
		c-9.6-6.3-22.4-6.4-35-0.4l-8.9,4.1l6.6,2.2c11.4,3.7,22.7,13.2,27.2,22.7l4.4,9l-6.7-6.7c-8.1-8.1-20.6-10.9-34.2-7.7l-9.6,2.1
		l6,3.5c10.4,6,19.5,17.6,21.9,27.9l2.4,9.8l-5.2-7.9c-6.2-9.7-17.9-14.9-31.8-14.7l-9.8,0.1l5.2,4.7c8.9,8,15.4,21.3,15.6,31.9
		l0.4,10.1l-3.5-8.8c-4.1-10.7-14.4-18.3-28.1-21l-9.6-2l4.1,5.7c7,9.7,10.6,24,8.6,34.4l-1.7,9.9l-1.6-9.4
		c-1.8-11.4-10.2-20.9-23.1-26.3l-9-3.9l2.8,6.4c4.9,10.9,5.4,25.7,1.3,35.5l-3.8,9.3l0.4-9.5c0.6-11.5-5.7-22.6-17.1-30.6l-8-5.7
		l0,0l1.4,6.8c2.5,11.7,0,26.3-6.1,35l-5.6,8.3l2.4-9.2c3-11.1-0.9-23.3-10.4-33.5l-6.6-7.3v7c0,12-5.5,25.7-13.2,32.9l-7.2,7
		l4.2-8.5c5.2-10.2,4-22.9-3.2-34.9l-5-8.5l-1.4,6.8c-2.5,11.7-10.7,24-19.8,29.5l-8.5,5.3l5.9-7.4c7.2-8.9,8.7-21.6,4.1-34.8
		l-3.1-9.3l-2.8,6.4c-4.9,10.9-15.4,21.2-25.4,24.7l-9.4,3.4l7.3-6c8.9-7.2,13-19.3,11.2-33.2l-1.1-9.8l-4.1,5.6
		c-7,9.7-19.5,17.6-30,18.9l-9.9,1.4l8.4-4.4c10.2-5.2,16.7-16.2,17.9-30.2l0.9-9.8l-5.2,4.7c-8.9,8-22.7,13.1-33.3,12.2l-10-0.7
		l9.1-2.5c11.1-2.9,19.7-12.4,23.8-25.8l3-9.4l-6,3.5c-10.4,6-25,8.1-35.1,5l-9.7-2.8l9.5-0.6c11.5-0.6,21.8-8,28.6-20.3l4.8-8.6
		l-6.6,2.2c-11.4,3.7-26.1,2.7-35.4-2.4l-8.9-4.7l9.4,1.4c11.3,1.8,23-3.3,32.2-13.9l6.5-7.4l-6.9,0.7c-11.9,1.3-26.1-2.8-34.1-9.7
		l-7.7-6.5l8.9,3.3c10.7,4.1,23.2,1.6,34.3-6.9l7.9-5.8l-6.9-0.7c-11.9-1.3-24.9-8.1-31.3-16.6l-6.2-7.9l8,5.1
		c9.6,6.3,22.4,6.4,35,0.4l8.9-4.1l-6.6-2.2c-11.4-3.7-22.7-13.2-27.2-22.7l-4.4-9l6.7,6.7c8.1,8.1,20.6,10.9,34.2,7.7l9.6-2.1
		l-6-3.5c-10.4-6-19.5-17.6-21.9-27.9l-2.4-9.8l5.2,7.9c6.2,9.6,17.9,14.9,31.8,14.7l9.8-0.1l-5.2-4.7c-8.9-8-15.4-21.3-15.6-31.9
		l-0.4-10l3.5,8.8c4.1,10.7,14.4,18.3,28.1,21l9.6,2l-4.1-5.6c-7-9.7-10.6-24-8.6-34.4l1.7-9.9l1.6,9.4
		c1.8,11.4,10.2,20.9,23.1,26.3l9,3.9l-2.8-6.4c-4.9-10.9-5.4-25.7-1.3-35.5l3.8-9.3l-0.4,9.5c-0.6,11.5,5.7,22.6,17.1,30.6l8,5.7
		l-1.4-6.8c-2.5-11.7,0-26.3,6.1-35l5.6-8.3l-2.4,9.2c-3,11.1,0.9,23.3,10.4,33.5l6.6,7.3v-7c0-12,5.5-25.7,13.2-32.9l7.2-7
		l-4.2,8.5c-5.2,10.2-4,22.9,3.2,34.9l5,8.5l1.4-6.8c2.5-11.7,10.7-24,19.8-29.5l8.5-5.3l-5.9,7.4c-7.2,8.9-8.7,21.6-4.1,34.8
		l3.1,9.3l2.8-6.4c4.9-10.9,15.4-21.2,25.4-24.7l9.4-3.4l-7.3,6c-8.9,7.2-13,19.3-11.2,33.2l1.1,9.8l4.1-5.7
		c7-9.7,19.5-17.6,30-18.9l9.9-1.4l-8.4,4.4c-10.2,5.2-16.7,16.2-17.9,30.2l-0.9,9.8l5.2-4.7c8.9-8,22.7-13.1,33.3-12.2l10,0.7
		l-9.1,2.5c-11.1,3-19.7,12.4-23.8,25.8l-3,9.4l6-3.5c10.4-6,25-8.1,35.1-5l9.7,2.8l-9.5,0.6c-11.5,0.6-21.8,8-28.6,20.3l-4.8,8.6
		l6.6-2.2c11.4-3.7,26.1-2.7,35.4,2.4l8.9,4.7l-9.4-1.4c-11.3-1.8-23,3.3-32.2,13.9l-6.5,7.4l6.9-0.7c11.9-1.3,26.1,2.8,34.1,9.7
		l7.7,6.5l-8.9-3.3c-10.7-4.1-23.2-1.6-34.3,6.9l-7.9,5.8L843.9,513z"/>
	<g>
		<defs>
			<path id="SVGID_1_" d="M320,310.7v356h800v-356H320z M843.9,513c11.9,1.3,24.9,8.1,31.3,16.6l6.2,7.9l-8-5.1
				c-9.6-6.3-22.4-6.4-35-0.4l-8.9,4.1l6.6,2.2c11.4,3.7,22.7,13.2,27.2,22.7l4.4,9l-6.7-6.7c-8.1-8.1-20.6-10.9-34.2-7.7l-9.6,2.1
				l6,3.5c10.4,6,19.5,17.6,21.9,27.9l2.4,9.8l-5.2-7.9c-6.2-9.7-17.9-14.9-31.8-14.7l-9.8,0.1l5.2,4.7c8.9,8,15.4,21.3,15.6,31.9
				l0.4,10.1l-3.5-8.8c-4.1-10.7-14.4-18.3-28.1-21l-9.6-2l4.1,5.7c7,9.7,10.6,24,8.6,34.4l-1.7,9.9l-1.6-9.4
				c-1.8-11.4-10.2-20.9-23.1-26.3l-9-3.9l2.8,6.4c4.9,10.9,5.4,25.7,1.3,35.5l-3.8,9.3l0.4-9.5c0.6-11.5-5.7-22.6-17.1-30.6l-8-5.7
				l0,0l1.4,6.8c2.5,11.7,0,26.3-6.1,35l-5.6,8.3l2.4-9.2c3-11.1-0.9-23.3-10.4-33.5l-6.6-7.3v7c0,12-5.5,25.7-13.2,32.9l-7.2,7
				l4.2-8.5c5.2-10.2,4-22.9-3.2-34.9l-5-8.5l-1.4,6.8c-2.5,11.7-10.7,24-19.8,29.5l-8.5,5.3l5.9-7.4c7.2-8.9,8.7-21.6,4.1-34.8
				l-3.1-9.3l-2.8,6.4c-4.9,10.9-15.4,21.2-25.4,24.7l-9.4,3.4l7.3-6c8.9-7.2,13-19.3,11.2-33.2l-1.1-9.8l-4.1,5.6
				c-7,9.7-19.5,17.6-30,18.9l-9.9,1.4l8.4-4.4c10.2-5.2,16.7-16.2,17.9-30.2l0.9-9.8l-5.2,4.7c-8.9,8-22.7,13.1-33.3,12.2l-10-0.7
				l9.1-2.5c11.1-2.9,19.7-12.4,23.8-25.8l3-9.4l-6,3.5c-10.4,6-25,8.1-35.1,5l-9.7-2.8l9.5-0.6c11.5-0.6,21.8-8,28.6-20.3l4.8-8.6
				l-6.6,2.2c-11.4,3.7-26.1,2.7-35.4-2.4l-8.9-4.7l9.4,1.4c11.3,1.8,23-3.3,32.2-13.9l6.5-7.4l-6.9,0.7
				c-11.9,1.3-26.1-2.8-34.1-9.7l-7.7-6.5l8.9,3.3c10.7,4.1,23.2,1.6,34.3-6.9l7.9-5.8l-6.9-0.7c-11.9-1.3-24.9-8.1-31.3-16.6
				l-6.2-7.9l8,5.1c9.6,6.3,22.4,6.4,35,0.4l8.9-4.1l-6.6-2.2c-11.4-3.7-22.7-13.2-27.2-22.7l-4.4-9l6.7,6.7
				c8.1,8.1,20.6,10.9,34.2,7.7l9.6-2.1l-6-3.5c-10.4-6-19.5-17.6-21.9-27.9l-2.4-9.8l5.2,7.9c6.2,9.6,17.9,14.9,31.8,14.7l9.8-0.1
				l-5.2-4.7c-8.9-8-15.4-21.3-15.6-31.9l-0.4-10l3.5,8.8c4.1,10.7,14.4,18.3,28.1,21l9.6,2l-4.1-5.6c-7-9.7-10.6-24-8.6-34.4
				l1.7-9.9l1.6,9.4c1.8,11.4,10.2,20.9,23.1,26.3l9,3.9l-2.8-6.4c-4.9-10.9-5.4-25.7-1.3-35.5l3.8-9.3l-0.4,9.5
				c-0.6,11.5,5.7,22.6,17.1,30.6l8,5.7l-1.4-6.8c-2.5-11.7,0-26.3,6.1-35l5.6-8.3l-2.4,9.2c-3,11.1,0.9,23.3,10.4,33.5l6.6,7.3v-7
				c0-12,5.5-25.7,13.2-32.9l7.2-7l-4.2,8.5c-5.2,10.2-4,22.9,3.2,34.9l5,8.5l1.4-6.8c2.5-11.7,10.7-24,19.8-29.5l8.5-5.3l-5.9,7.4
				c-7.2,8.9-8.7,21.6-4.1,34.8l3.1,9.3l2.8-6.4c4.9-10.9,15.4-21.2,25.4-24.7l9.4-3.4l-7.3,6c-8.9,7.2-13,19.3-11.2,33.2l1.1,9.8
				l4.1-5.7c7-9.7,19.5-17.6,30-18.9l9.9-1.4l-8.4,4.4c-10.2,5.2-16.7,16.2-17.9,30.2l-0.9,9.8l5.2-4.7c8.9-8,22.7-13.1,33.3-12.2
				l10,0.7l-9.1,2.5c-11.1,3-19.7,12.4-23.8,25.8l-3,9.4l6-3.5c10.4-6,25-8.1,35.1-5l9.7,2.8l-9.5,0.6c-11.5,0.6-21.8,8-28.6,20.3
				l-4.8,8.6l6.6-2.2c11.4-3.7,26.1-2.7,35.4,2.4l8.9,4.7l-9.4-1.4c-11.3-1.8-23,3.3-32.2,13.9l-6.5,7.4l6.9-0.7
				c11.9-1.3,26.1,2.8,34.1,9.7l7.7,6.5l-8.9-3.3c-10.7-4.1-23.2-1.6-34.3,6.9l-7.9,5.8L843.9,513z"/>
		</defs>
		<clipPath id="SVGID_2_">
			<use xlink:href="#SVGID_1_"  overflow="visible"/>
		</clipPath>
		<g clip-path="url(#SVGID_2_)">
			<path fill="#008000" d="M491.2,390.1c11.6,7.9,21.7,14.1,22.2,13.6c1-1.2-56.8-54.9-60.7-56.4c-1.5-0.5,1.7,5.7,7.4,13.8
				C467.3,371.8,475.4,379.4,491.2,390.1z"/>
			<path fill="#008000" d="M619.8,418.5c-3.5-1.4-7.5-3.3-10.8-5.2c4.2-0.7,3.1-1.9-4.9-3c-0.2-0.2-0.4-0.3-0.6-0.5
				c-2.2-1.8-3.5-2.9-4.3-3.3c-0.1-0.1-0.2-0.3-0.4-0.4c-6.2-7.2-19.5-33.4-19.5-38.3c0-2.7-1.2-4.7-2.7-4.7c-1.7,0-2.2,2.5-1.2,6.4
				c3.3,13.2,16.4,36.8,21.9,40c-0.8-0.1-1.6-0.2-2.4-0.2c-2.4-0.2-4.7-0.5-7-0.7c0.1-1.2-2.2-3.8-7.5-9.7
				c-5.4-5.7-12.6-14.3-16.3-19c-3.7-4.7-6.9-7.7-6.9-6.7c0,2.7,9.6,21.5,15.3,29.4c1.7,2.3,3.5,4.1,5.5,5.3
				c-9.7-0.6-17.4-0.6-22.7,0c-0.9-2.3-3.4-6.5-7.1-11.4c-11.9-16.3-13.7-18-13.7-15.3c0,3.2,13.1,21.6,18.7,27
				c-1.6,0.2-2.9,0.6-3.9,0.9c-0.2-0.1-0.4-0.1-0.6-0.2l-4.3-4.8c-11.6-12.6-29.4-36.8-35.1-47.5c-6.2-11.6-6.9-8.7-1.7,6.2
				c2,5.9,9.9,17.8,17.5,26.2c7.7,8.7,12.6,15.8,11.4,15.8c-3.2,0-24-24.5-38.8-45.7c-16-23.2-16.8-24-12.3-11.1
				c2.2,6.2,7.2,15.3,11.4,20.3c4,5.2,6.4,9.4,5.2,9.4c-2.5,0-13.3-12.4-26.9-30.2c-3.7-5.2-8.9-11.9-11.1-14.8
				c-2.5-3.2-0.7,1,3.7,9.1c7.7,14.6,38.8,48.2,56,61.1c4.7,3.5,13.1,6.9,18.3,7.7l5,0.8c0.1,0.1,0.3,0.2,0.5,0.2c0.6,2,4,6,8.1,9.1
				c4.2,3.2,10.8,7.1,17.8,10.9c0,0,0,0,0,0.1c-1.3,0.5-2.8,1.2-4.3,1.9c-10.2-6.1-22.7-14.7-25.3-17.5c-1.9-2.1-14.7-6.7-31.4-11.8
				c-3.2-2.6-4.4-2.8-3.6-1.1c-4.8-1.5-9.9-2.9-15.1-4.4c0.6-0.9-5.5-4.9-13.5-9.5c-0.1-2.8-26.6-24.2-38-30.6
				c-14.1-8-14.6-8.1-14.9-6.4c-0.1,0.5,4.5,4.1,10.4,8.1c5.8,4,12.6,9.8,14.8,12.7c0.9,1.2,2.8,2.9,5.2,4.6c-2.5-1.1-4.8-2-6.6-2.7
				c-15.3-5.4-15.8-5.4-15.8-3.7c0,0.5,5.2,3.2,11.6,6.2c6.4,3,14.1,7.4,16.8,9.9c1.8,1.7,6.5,4.1,11.6,6.3
				c-22.7-6-43.6-10.7-49.7-10.5c-6.7,0.5-6.9,0.5-1.5,1.5c16.6,3,39.9,9.3,61.4,16.1c0,0.1,0.1,0.2,0.2,0.3
				c-2.7,0.1-6.1,1-12.4,2.9l-1.6,0.5c-2.8-1.8-5.3-3.4-6.8-4.4c-3-1.9-1,0.5,4.2,5.2l-5.7,1.9l7.4,1.2c0.7,0.2,1.5,0.3,2.3,0.4
				c3.5,2.9,8.5,6.2,14.4,9.8c-24.8,2.7-29,4.9-28.5,15.1c0.2,4.9,0.2,4.9,1.5,0c2.2-9.1,5.9-11.1,20-11.1c3.8,0,9.3,0.4,15.7,1
				c7.2,4,15,8,22.6,11.5c-14.8,0-29.1,0.8-36.3,2.5c-10.6,2.5-16.3,6.2-16.3,10.6c0,1.7,1,1.5,2.2-0.5c2-3.2,22.2-9.1,24.2-7.2
				c0.5,0.5-0.2,4.2-1.7,7.9c-1.5,3.7-2,7.4-1.2,8.2c0.7,1,2-1,2.7-3.7c3-10.6,12.1-13.8,34.1-11.9c2.6,0.2,5.2,0.5,7.8,0.7
				c2.1,0.8,4,1.6,5.9,2.2h-1.3c-4,0.2-13.6,2.7-21,5.4c-16.3,6.4-19.8,8.7-19.8,12.1c0,1.5,1.7,1.2,4.4-1
				c2.2-2.2,10.4-5.2,17.8-6.9c7.4-1.7,16.3-4.7,19.8-6.4l3.8-2c0.4,0.1,0.8,0.3,1.2,0.4c1.7,0.5,3.8,0.9,6,1.2
				c-5.1,5.2-8.2,9.8-9.7,14.4c-27.8,8-30.8,12-26.3,26.4c2,5.9,2,5.7,2.2-2c0.2-4.2,2.5-10.1,4.9-12.6c2.3-2.3,9-5,18.3-7.6
				c-0.2,2.3,0,4.8,0.5,7.3c-1.2,1.4-2.4,2.9-3.5,4.6l-6.4,10l8.3-7.8c1-0.9,1.9-1.8,2.8-2.5c0.1,0.2,0.1,0.4,0.2,0.5l3.9,11.2
				l-1.1-11.3c-0.1-0.9-0.2-1.7-0.2-2.6c8.1-5.8,16-6.2,30.3-2.4c-15.4,7.3-20.6,14.6-20.4,27.8l0.2,11.9l2.5-11.1
				c3-14.5,8.7-20.1,26.2-26.1c7.1,2,12.6,3.1,12.8,2.8c0.7-1-2-3-5.9-5.1c7.6-2.5,13.3-4.8,13.3-5.2c0-2.2-11.7-1-20.8,1.8
				c-3.7-1.4-7.5-2.6-10.7-3.1c-13-2.3-21.3-1.6-27.6,3.1c0.1-1.8,0.4-3.5,0.8-5.1c7.4-1.8,16.1-3.6,25.4-5.1
				c5.9-0.7,9.9-2.5,9.1-3.7c-2-3.2-9.9-2.2-31.9,4c-0.3,0.1-0.6,0.2-0.9,0.3c2.1-4.1,5.7-8,11-12.3c2.4,0,4.5-0.2,6.3-0.6l0.7-0.1
				c0.4,0.2,0.8,0.4,1.1,0.6c6.4,3.5,31.4,3.7,29.1,0.2c-0.5-0.9-3-2-6.2-2.8c-0.3-0.2-0.7-0.4-1-0.6c-3.2-1.7-7.4-4.4-9.1-6.4
				c-1.3-1.2-2.9-2.1-4.4-2.6c0.7-0.5,1.2-1,1.8-1.4c13.8,7.2,28.6,13.3,31.4,12.2c2.7-1-1.5-3.7-13.3-8.2c-4.8-1.9-9.6-4-14-6
				c3.2-1.4,6.9-2.5,9.9-3.1c7.1,2,12.4,3,12.4,2c0.1-0.7-1.5-1.9-3.9-3.4c-0.2-0.4-1.2-1.1-3-2.2c-0.7-0.4-1.5-0.7-2.5-0.9
				c-1.5-0.7-3-1.5-4.5-2.2c-0.6-0.4-1.3-0.9-2.1-1.3c-3.2-1.7-7.4-4.4-9.1-6.4c-0.2-0.2-0.5-0.4-0.7-0.6c1.9,0.1,4,0.2,6.2,0.4
				c0.9,0.1,1.8,0.1,2.6,0.1c3.6,6,12.9,10,25.1,11c9,0.6,4.9-3.2-7.7-7.8c-2.4-0.8-5-1.8-7.4-2.9c2.4,0,4.5,0,6.4-0.1
				c1.8,1.4,4,2.8,6.6,3.9v0c5.4,2.5,12.2,4.5,15.7,4.6C628.5,422.5,627.4,421.5,619.8,418.5z M494.6,403.6
				c3.6,1.2,7.1,2.3,10.4,3.5c-0.8,0-1.6,0-2.5-0.1c-1.9-0.1-3.8,0-5.5,0.1c-1.1-0.8-2.2-1.5-3.1-2.2
				C496.7,405,496.9,404.7,494.6,403.6z M480.1,410.1c-0.7-0.5-1.4-1-2.2-1.5c1.7-0.2,3.2-0.6,4.2-1.1c1.5-0.9,4.1-1.6,6.7-2
				c0.4,0.5,0.8,1,1.2,1.5c0.3,0.4,0.6,0.7,1,1.1c-2.5,0.6-4.5,1.4-5.8,2.4c-0.8,0.6-1.5,1.1-1.9,1.6
				C482.2,411.4,481.2,410.8,480.1,410.1z M492.5,417.8c-2.3-1.4-4.8-2.9-7.3-4.5c1.2-0.1,3-0.4,5.2-0.8c1.3-0.2,2.7-0.4,4.2-0.6
				c1.8,1.8,3.8,3.6,5.8,5.2C497.9,417.2,495.3,417.5,492.5,417.8z M515.7,429.2c-1.2,0.4-5.5-1.4-11.9-4.9c2.8,0.3,5.7,0.7,8.6,1.1
				C515,427.4,516.5,428.9,515.7,429.2z M513.9,417.4c-0.3-0.3-1.6-0.5-3.4-0.6c-1.7-1.2-3.5-2.4-5.2-3.6c-1.3-0.9-2.6-1.8-3.7-2.6
				c2.3-0.5,4.4-0.9,5.9-1.3c0.8-0.2,1.4-0.4,2-0.5c1.3,0.5,2.6,0.9,3.8,1.4c0.8,1,1.6,2,2.6,3.2c1.7,2.1,4.7,4.8,8.4,7.7
				C519.5,419.7,515.2,418.3,513.9,417.4z M525.3,414.6c11,4.5,17.6,8,16.1,9.4c-0.2,0.2-1,0.2-2.3,0.1
				C534.1,420.9,529.4,417.6,525.3,414.6z M540.9,435.6c-4.1-2.3-8.6-4.9-13.3-7.8c3.1,0.5,6.2,1.1,9.2,1.6c1.6,0.9,3.1,1.8,4.6,2.6
				c2.7,1.5,5.2,2.9,7.4,4.3C546.3,436,543.7,435.8,540.9,435.6z M561.4,437.8c-2.8-1.5-5.8-3.3-9-5.2c1.2,0.3,2.4,0.6,3.5,0.9
				c3.3,0.9,6.1,1.7,8.5,2.4C563.4,436.5,562.4,437.1,561.4,437.8z M568.3,412.8c0,0.1,0.1,0.1,0.1,0.2c0.5,0.8,1.8,1.9,3.7,3.2
				c-3.1-0.5-7.8-1.8-12.5-3.3C561.8,412.7,564.6,412.7,568.3,412.8z M577.3,441.9c-2.9-0.6-6.2-1.4-9.4-2.2c1-0.7,2-1.5,2.9-2.1
				c0,0,0.1,0,0.1,0C572.3,438.8,574.6,440.4,577.3,441.9z M581.9,425.6c-2.2,1-4.2,2.2-6,3.4c-11.1-5.5-19.4-10.8-21-13.7
				c0.3,0.2,0.6,0.3,1,0.5C561.6,418.7,572.3,422.6,581.9,425.6z"/>
			<path fill="#008000" d="M568,407.3c2-0.7-2.5-7.9-12.1-19.5c-8.6-10.1-16-19-16.8-19.8c-0.7-0.7,2,4.7,5.9,11.9
				C554.5,397.2,564.1,408.6,568,407.3z"/>
			<path fill="#008000" d="M469,395.7c-10.4-3.2-20.7-2.5-26.4,2c-3,2.2-6.2,7.4-6.9,11.6c-1.5,7.2-1.5,7.2,2.5,2.5
				c10.4-13.1,11.1-13.6,24-13.8C472.4,397.7,473.9,397.2,469,395.7z"/>
			<path fill="#008000" d="M584.4,485.2c-3,0-7.4,3-10.4,7.2v0c-3,4-5.2,9.1-5.2,11.9c0,3.2,1.2,2.5,4.7-3.2
				c2.7-4.4,7.4-9.6,10.4-11.9C589.6,485.2,589.6,485.2,584.4,485.2z"/>
			<path fill="#008000" d="M898,544.6c-20-5.6-48.5-14.4-55.8-16c-7.3-1.6-7.4,1.4-1.2,4.1c8,3.5,49.6,14,79,22.6
				c29.2,8.6,63.3,18.4,71.3,19.6c0.6-1.4,1.4-3.4,2.6-6.2C979.2,564.9,921.2,551.3,898,544.6z"/>
			<path fill="#008000" d="M991.5,574.9c-0.1,0-0.1,0-0.2,0C986.4,587.1,1001.3,553.6,991.5,574.9z"/>
			<path fill="#008000" d="M998,563.5c-0.1,0-0.1,0-0.2,0C993.3,575.8,1007,541.8,998,563.5z"/>
			<path fill="#008000" d="M903.5,536.4c-20.2-4.9-49-12.7-56.3-14c-7.3-1.4-7.3,1.7-1.1,4.1h0c8.1,3.2,50.1,12.2,79.8,19.8
				c29.5,7.5,63.9,16.2,71.9,17.1c0.5-1.4,1.3-3.5,2.4-6.3C985.3,553.9,926.9,542.3,903.5,536.4z"/>
			<path fill="#008000" d="M890.9,552c-19.7-6.7-47.7-16.9-54.9-18.9c-7.2-2-7.4,1-1.4,4c7.8,3.9,48.8,16.6,77.8,26.7
				c28.7,10.1,62.2,21.7,70.1,23.3c0.6-1.4,1.6-3.4,2.9-6.1C970.9,576.6,913.7,559.9,890.9,552z"/>
			<path fill="#008000" d="M982.5,587.2c-5.6,11.9,11.1-20.7,0.2,0C982.6,587.2,982.5,587.2,982.5,587.2z"/>
			<path fill="#008000" d="M885,560c-19.3-7.7-46.7-19.4-53.8-21.7s-7.5,0.6-1.7,3.9c7.6,4.3,47.9,19.1,76.3,30.8
				c28.1,11.6,61,24.9,68.8,27c0.7-1.3,1.8-3.3,3.2-5.9C963.6,588.7,907.4,569.1,885,560z"/>
			<path fill="#008000" d="M974.7,599.9c-6.2,11.6,12.1-20.1,0.2,0.1C974.8,600,974.7,599.9,974.7,599.9z"/>
			<path fill="#008000" d="M879.7,568.3c-19.1-8.4-46-21-53-23.6c-7-2.6-7.5,0.4-1.8,3.9c7.5,4.6,47.2,20.8,75.1,33.4
				c27.7,12.5,60.1,27,67.8,29.3c0.8-1.3,1.9-3.2,3.4-5.8C957.2,599.8,901.8,578.2,879.7,568.3z"/>
			<path fill="#008000" d="M967.8,611.3c-6.6,11.4,12.8-19.7,0.2,0.1C968,611.4,967.9,611.4,967.8,611.3z"/>
			<path fill="#008000" d="M959.1,624.6c-7.2,11.1,13.8-19,0.2,0.1C959.2,624.6,959.1,624.6,959.1,624.6z"/>
			<path fill="#008000" d="M873.2,577c-18.6-9.3-44.8-23.4-51.7-26.3c-6.8-3-7.5,0-2,3.8h0c7.2,4.9,46,23.2,73.3,37.3
				c27,14,58.6,30.2,66.2,32.9c0.8-1.3,2-3.1,3.7-5.6C949.1,612.5,894.8,588,873.2,577z"/>
		</g>
	</g>
	<path fill="#002488" d="M320,133.3v178h800v-178H320z M962,152.4c3.4-5.8,8.4-10.1,10.6-10.1s7.2,4.7,10.9,10.4
		c10.1,15.3,10.6,28.9,4,50.9c-3.3,11-6.3,26.9-7.3,34.5c-0.9,6.5-1.2,11.3-1.6,15.4c-2.6,0-8.2,0-10.7,0c-0.3-2.6-0.1-3.7-2-15.6
		c-1.5-8.4-5-23.9-8.2-34.3C951.1,181.4,952.2,168.5,962,152.4z M953.5,256.3c6.8,0,32.9-0.1,39.7,0c0,1.9-0.1,0.7-0.1,3.1
		c-9.3,0-28.5,0-39.7-0.1C953.5,258.2,953.5,257.6,953.5,256.3z M707.2,153.3c3.4-5.8,8.4-10.1,10.6-10.1s7.2,4.7,10.9,10.4
		c10.1,15.3,10.6,28.9,4,50.9c-3.3,11-6.3,26.9-7.3,34.5c-0.9,6.5-1.2,11.3-1.6,15.4c-2.6,0-8.2,0-10.7,0c-0.3-2.6-0.1-3.7-2-15.6
		c-1.5-8.4-5-23.9-8.2-34.3C696.2,182.3,697.4,169.4,707.2,153.3z M698.7,257.2c6.8,0,32.9-0.1,39.7,0c0,1.9-0.1,0.7-0.1,3.1
		c-9.3,0-28.5,0-39.7-0.1C698.7,259,698.7,258.4,698.7,257.2z M460.6,153.3c3.4-5.8,8.4-10.1,10.6-10.1s7.2,4.7,10.9,10.4
		c10.1,15.3,10.6,28.9,4,50.9c-3.3,11-6.3,26.9-7.3,34.5c-0.9,6.5-1.2,11.3-1.6,15.4c-2.6,0-8.2,0-10.7,0c-0.3-2.6-0.1-3.7-2-15.6
		c-1.5-8.4-5-23.9-8.2-34.3C449.7,182.3,450.8,169.4,460.6,153.3z M452.1,257.2c6.8,0,32.9-0.1,39.7,0c0,1.9-0.1,0.7-0.1,3.1
		c-9.3,0-28.5,0-39.7-0.1C452.1,259,452.1,258.4,452.1,257.2z M432.3,236.7c0.2,4.6,2.2,7.1,4.3,9.6c-2.7-0.7-8.3-3.3-12.9-5.9
		c-25.4-15.3-15.4-52.9,11.2-41.5c13.8,5.9,22.1,22.4,26.7,45c0.8,4.3,1,5.8,1.5,10.5c-3,0-4.2,0-7.1,0c-0.6-3.2-1.1-4.9-2.5-9.5
		C448,227.2,431.6,220.1,432.3,236.7z M488,281.1c-5.4-0.5-7.6-0.9-11.2-2.4c1.1,5.5,1.3,7.6,1.4,12c-0.4,6-1.6,9.9-3.5,13.7
		c-1.7,3.4-3.1,3.4-5.4,0.2c-1.7-3.9-2.6-5.9-3.3-13.9c0,0,0-6,0.9-12.2c-3.1,1.5-5.9,2.1-11.1,2.5c-5.2,0.4-10.7-0.2-10.7-0.2
		s6.3-3.2,10.3-7.6c3.1-3.3,3.3-4.4,5.8-9.7c4.6,0,19-0.1,21.8,0c2.3,5.8,1.7,5,4.9,9.5c3.3,4.6,10.7,8.3,10.7,8.3
		S493.5,281.6,488,281.1z M519.8,240.4c-4.6,2.6-10.2,5.2-12.9,5.9c2.1-2.5,4.1-5,4.3-9.6c0.7-16.6-15.7-9.5-21.3,8.2
		c-1.4,4.6-1.9,6.3-2.5,9.5c-2.9,0-4.1,0-7.1,0c0.4-4.8,0.6-6.3,1.5-10.5c4.5-22.6,12.9-39.1,26.7-45
		C535.2,187.5,545.2,225,519.8,240.4z M678.9,236.7c0.2,4.6,2.2,7.1,4.3,9.6c-2.7-0.7-8.3-3.3-12.9-5.9
		c-25.4-15.3-15.4-52.9,11.2-41.5c13.8,5.9,22.1,22.4,26.7,45c0.8,4.3,1,5.8,1.5,10.5c-3,0-4.2,0-7.1,0c-0.6-3.2-1.1-4.9-2.5-9.5
		C694.6,227.2,678.1,220.1,678.9,236.7z M734.6,281.1c-5.4-0.5-7.6-0.9-11.2-2.4c1.1,5.5,1.3,7.6,1.4,12c-0.4,6-1.6,9.9-3.5,13.7
		c-1.7,3.4-3.1,3.4-5.4,0.2c-1.7-3.9-2.6-5.9-3.3-13.9c0,0,0-6,0.9-12.2c-3.1,1.5-5.9,2.1-11.1,2.5c-5.2,0.4-10.7-0.2-10.7-0.2
		s6.3-3.2,10.3-7.6c3.1-3.3,3.3-4.4,5.8-9.7c4.6,0,19-0.1,21.8,0c2.3,5.8,1.7,5,4.9,9.5c3.3,4.6,10.7,8.3,10.7,8.3
		S740,281.6,734.6,281.1z M766.4,240.4c-4.6,2.6-10.2,5.2-12.9,5.9c2.1-2.5,4.1-5,4.3-9.6c0.7-16.6-15.7-9.5-21.3,8.2
		c-1.4,4.6-1.9,6.3-2.5,9.5c-2.9,0-4.1,0-7.1,0c0.4-4.8,0.6-6.3,1.5-10.5c4.5-22.6,12.9-39.1,26.7-45
		C781.8,187.5,791.8,225,766.4,240.4z M933.7,235.8c0.2,4.6,2.2,7.1,4.3,9.6c-2.7-0.7-8.3-3.3-12.9-5.9
		c-25.4-15.3-15.4-52.9,11.2-41.5c13.8,5.9,22.1,22.4,26.7,45c0.8,4.3,1,5.8,1.5,10.5c-3,0-4.2,0-7.1,0c-0.6-3.2-1.1-4.9-2.5-9.5
		C949.4,226.3,933,219.2,933.7,235.8z M989.4,280.2c-5.4-0.5-7.6-0.9-11.2-2.4c1.1,5.5,1.3,7.6,1.4,12c-0.4,6-1.6,9.9-3.5,13.7
		c-1.7,3.4-3.1,3.4-5.4,0.2c-1.7-3.9-2.6-5.9-3.3-13.9c0,0,0-6,0.9-12.2c-3.1,1.5-5.9,2.1-11.1,2.5c-5.2,0.4-10.7-0.2-10.7-0.2
		s6.3-3.2,10.3-7.6c3.1-3.3,3.3-4.4,5.8-9.7c4.6,0,19-0.1,21.8,0c2.3,5.8,1.7,5,4.9,9.5c3.3,4.6,10.7,8.3,10.7,8.3
		S994.9,280.7,989.4,280.2z M1021.2,239.5c-4.6,2.6-10.2,5.2-12.9,5.9c2.1-2.5,4.1-5,4.3-9.6c0.7-16.6-15.7-9.5-21.3,8.2
		c-1.4,4.6-1.9,6.3-2.5,9.5c-2.9,0-4.1,0-7.1,0c0.4-4.8,0.6-6.3,1.5-10.5c4.5-22.6,12.9-39.1,26.7-45
		C1036.6,186.6,1046.6,224.2,1021.2,239.5z"/>
</g>
</svg>
