<?xml version="1.0" encoding="utf-8"?>
<!-- Generator: Adobe Illustrator 22.1.0, SVG Export Plug-In . SVG Version: 6.00 Build 0)  -->
<svg version="1.1" id="Слой_1" xmlns="http://www.w3.org/2000/svg" xmlns:xlink="http://www.w3.org/1999/xlink" x="0px" y="0px"
	 viewBox="0 0 512 512" style="enable-background:new 0 0 512 512;" xml:space="preserve">
<style type="text/css">
	.st0{fill:#CE1126;}
	.st1{fill:#FCD116;stroke:#BD9C08;stroke-width:1.478;}
	.st2{fill:#FCD116;stroke:#BD9C08;stroke-width:1.478;stroke-linejoin:round;}
	.st3{fill:#FCD116;stroke:#BD9C08;stroke-width:1.7736;}
	.st4{fill:#FCD116;stroke:#BD9C08;stroke-width:1.1824;}
	.st5{fill:#FCD116;stroke:#BD9C08;stroke-width:1.1824;stroke-linecap:round;}
	.st6{fill:none;stroke:#BD9C08;stroke-width:1.1824;stroke-linecap:round;}
	.st7{fill:none;stroke:#BD9C08;stroke-width:1.1824;}
	.st8{fill:#BD9C08;}
	.st9{fill:#003F87;}
	.st10{fill:#FFFFFF;}
</style>
<rect y="85.7" class="st0" width="512" height="341.3"/>
<g>
	<path class="st1" d="M298.1,246.4c7.5,2.7,18.8,2,23.9,9.9c-7.5-2.7-16.7,13.4-23.9,9.9c6.3,5.9-92.2,0-84.3,0
		c-7.5-2.7-18.8-2-23.9-9.9c7.5,2.7,16.7-13.4,23.9-9.9c-6.3-5.9-17.3-10.5-19.9-20.2c6.3,5.9,19.2-5.1,25,1.6
		c-4.4-8.4-13.7-17.7-13.5-28c4.4,8.5,19.4,3.9,23.1,12.9c-2-10-8-22.8-5.5-32.5c2,10,17,12.4,18.4,22.6c0.7-10.3-2-25.1,3.2-33.1
		c-0.7,10.3,12.9,19.5,11.5,29.6c3.3-9.3,5.1-24.5,11.5-29.6c-3.3,9.4,7.4,24.1,3.2,33.1c5.5-7.3,10.8-20.8,18.4-22.6
		c-5.5,7.3,0.4,25.9-5.5,32.5c7-4.4,15.3-14.7,23.1-12.9c-7,4.4-6.3,24.5-13.5,28c7.7-0.9,18.1-6.7,25-1.6
		C310.3,227.1,306,246.4,298.1,246.4z"/>
	<path class="st2" d="M220.5,256.3l-27-14.7l29.1-1.5L201,214l27.7,11.9l-13.6-34.4l23,23.8l-3.9-38.5l15.5,32.8l6.2-37.9l6.2,37.9
		l15.5-32.8l-3.9,38.5l23-23.8l-13.6,34.4l27.7-11.9l-21.6,26.1l29.1,1.5l-26.9,14.7l26.9,14.7h-125L220.5,256.3L220.5,256.3z"/>
	<ellipse class="st3" cx="256" cy="256.3" rx="35.3" ry="47.1"/>
	<path class="st4" d="M267.6,142.4l18.9,0.2c0.1-1.1-1.6-3.2-3.1-3.5c-4.8-1-8.4,1.1-14.2,1.1L267.6,142.4L267.6,142.4z"/>
	<path class="st4" d="M229.9,136.5c4.4,7.5,13.1,12.7,21.3,12.8c11.1,0.1,23.4-11.9,38.3-15.5l-48.6-1.3c-6.3-5.7-11.1-5-14.3-1.5
		l-9.3,0.4c-1.3,1,1.1,4.9,3,5.1L229.9,136.5z"/>
	<path class="st4" d="M251.9,132.2c-1.8-10.8-8.3-15.5-16.1-16.9c-9.1-1.6-29.9-3.2-43.7-8.5c6,7.9,18.5,11.8,27.2,13.5
		c9.2,1.9,18.2,4.6,25.3,11.8L251.9,132.2L251.9,132.2z"/>
	<path class="st5" d="M246,139.4c2.9,5,7.4,4.7,12.2,0.4c4.8-4.3,10-16.4,12.6-16.6c17.7-1.4,39-11.3,49.2-19
		c-12.9,2.4-25.7,5.2-38.7,5.3c-22.2,0.1-24.9,13.6-33.9,23.1"/>
	<path class="st6" d="M249.4,133.6c4.7-4,8.6-9.3,13-13.7c7.3-7.3,15.8-7.5,24.9-7.6c8.1-0.1,22.2-4.6,29.9-7"/>
	<path class="st7" d="M244.5,131.7c-1.4-9.7-8.2-12.6-16.8-14.3c-9.3-1.9-18.9-2.9-28.2-6.4c-2.3-0.9-4.5-2.4-6.7-3.5"/>
	<path class="st6" d="M247.5,145.9c8.8,0.9,15.3-2.7,22.8-7.6"/>
	<path class="st6" d="M217.3,133.3h11.1"/>
	<ellipse class="st8" cx="231.9" cy="131.7" rx="1.4" ry="1.8"/>
</g>
<rect y="273.4" class="st9" width="512" height="153.6"/>
<path id="w" class="st10" d="M0,378.2c17.1,0,34.1,14.6,51.2,14.6s34.1-14.6,51.2-14.6s34.1,14.6,51.2,14.6s34.1-14.6,51.2-14.6
	s34.1,14.6,51.2,14.6s34.1-14.6,51.2-14.6c17.1,0,34.1,14.6,51.2,14.6c17.1,0,34.1-14.6,51.2-14.6c17.1,0,34.1,14.6,51.2,14.6
	c17.1,0,34.1-14.6,51.2-14.6v-24.4c-17.1,0-34.1,14.6-51.2,14.6c-17.1,0-34.1-14.6-51.2-14.6c-17.1,0-34.1,14.6-51.2,14.6
	c-17.1,0-34.1-14.6-51.2-14.6c-17.1,0-34.1,14.6-51.2,14.6s-34.1-14.6-51.2-14.6s-34.1,14.6-51.2,14.6s-34.1-14.6-51.2-14.6
	s-34.1,14.6-51.2,14.6S17.1,353.9,0,353.9V378.2z"/>
<g>
	<path id="w_1_" class="st10" d="M0,329.5c17.1,0,34.1,14.6,51.2,14.6s34.1-14.6,51.2-14.6s34.1,14.6,51.2,14.6s34.1-14.6,51.2-14.6
		s34.1,14.6,51.2,14.6s34.1-14.6,51.2-14.6c17.1,0,34.1,14.6,51.2,14.6c17.1,0,34.1-14.6,51.2-14.6c17.1,0,34.1,14.6,51.2,14.6
		c17.1,0,34.1-14.6,51.2-14.6v-24.4c-17.1,0-34.1,14.6-51.2,14.6c-17.1,0-34.1-14.6-51.2-14.6c-17.1,0-34.1,14.6-51.2,14.6
		c-17.1,0-34.1-14.6-51.2-14.6c-17.1,0-34.1,14.6-51.2,14.6s-34.1-14.6-51.2-14.6s-34.1,14.6-51.2,14.6s-34.1-14.6-51.2-14.6
		s-34.1,14.6-51.2,14.6S17.1,305.1,0,305.1V329.5z"/>
</g>
<g>
	<path id="w_2_" class="st10" d="M0,280.7c17.1,0,34.1,14.6,51.2,14.6s34.1-14.6,51.2-14.6s34.1,14.6,51.2,14.6s34.1-14.6,51.2-14.6
		s34.1,14.6,51.2,14.6s34.1-14.6,51.2-14.6c17.1,0,34.1,14.6,51.2,14.6c17.1,0,34.1-14.6,51.2-14.6c17.1,0,34.1,14.6,51.2,14.6
		c17.1,0,34.1-14.6,51.2-14.6v-24.4c-17.1,0-34.1,14.6-51.2,14.6c-17.1,0-34.1-14.6-51.2-14.6c-17.1,0-34.1,14.6-51.2,14.6
		c-17.1,0-34.1-14.6-51.2-14.6c-17.1,0-34.1,14.6-51.2,14.6s-34.1-14.6-51.2-14.6S170.7,271,153.6,271s-34.1-14.6-51.2-14.6
		S68.3,271,51.2,271S17.1,256.3,0,256.3V280.7z"/>
</g>
</svg>
