<?xml version="1.0" encoding="utf-8"?>
<!-- Generator: Adobe Illustrator 17.1.0, SVG Export Plug-In . SVG Version: 6.00 Build 0)  -->
<!DOCTYPE svg PUBLIC "-//W3C//DTD SVG 1.1//EN" "http://www.w3.org/Graphics/SVG/1.1/DTD/svg11.dtd">
<svg version="1.1" id="Capa_1" xmlns="http://www.w3.org/2000/svg" xmlns:xlink="http://www.w3.org/1999/xlink" x="0px" y="0px"
	 viewBox="0 0 24 24" enable-background="new 0 0 24 24" xml:space="preserve">
<rect y="4" fill="#F0F0F0" width="24" height="16"/>
<path fill="#D80027" d="M14.9,12c0,0.7-1.3,2.6-2.9,2.6S9.1,12.7,9.1,12c0-1.6,1.3-2.9,2.9-2.9S14.9,10.4,14.9,12z"/>
<path fill="#0052B4" d="M14.9,12c0,1.6-1.3,2.9-2.9,2.9S9.1,13.6,9.1,12"/>
<rect x="15.2" y="14.1" transform="matrix(-0.7071 0.7071 -0.7071 -0.7071 37.098 13.5405)" width="1.1" height="0.7"/>
<rect x="13.9" y="15.4" transform="matrix(-0.7071 0.7071 -0.7071 -0.7071 35.8063 16.6569)" width="1.1" height="0.7"/>
<rect x="16.7" y="15.6" transform="matrix(-0.7071 0.7071 -0.7071 -0.7071 40.8382 15.0884)" width="1.1" height="0.7"/>
<rect x="15.5" y="16.9" transform="matrix(-0.7071 0.7071 -0.7071 -0.7071 39.5471 18.2066)" width="1.1" height="0.7"/>
<rect x="16" y="14.9" transform="matrix(-0.7071 0.7071 -0.7071 -0.7071 38.9681 14.3145)" width="1.1" height="0.7"/>
<rect x="14.7" y="16.2" transform="matrix(-0.7071 0.7071 -0.7071 -0.7071 37.6767 17.4317)" width="1.1" height="0.7"/>
<rect x="14.4" y="7.8" transform="matrix(0.7071 0.7071 -0.7071 0.7071 10.3953 -8.8448)" width="2.9" height="0.7"/>
<rect x="13.9" y="7.9" transform="matrix(0.7071 0.7071 -0.7071 0.7071 10.0706 -7.8024)" width="1.1" height="0.7"/>
<rect x="15.2" y="9.2" transform="matrix(0.7071 0.7071 -0.7071 0.7071 11.3618 -8.3368)" width="1.1" height="0.7"/>
<rect x="15.5" y="6.3" transform="matrix(0.7071 0.7071 -0.7071 0.7071 9.4285 -9.3512)" width="1.1" height="0.7"/>
<rect x="16.7" y="7.6" transform="matrix(0.7071 0.7071 -0.7071 0.7071 10.72 -9.8865)" width="1.1" height="0.7"/>
<rect x="5.9" y="16.3" transform="matrix(-0.7071 -0.7071 0.7071 -0.7071 0.7783 33.6183)" width="2.9" height="0.7"/>
<rect x="8.2" y="16.2" transform="matrix(-0.7071 -0.7071 0.7071 -0.7071 3.2929 34.4021)" width="1.1" height="0.7"/>
<rect x="6.9" y="14.9" transform="matrix(-0.7071 -0.7071 0.7071 -0.7071 2.0025 31.2851)" width="1.1" height="0.7"/>
<rect x="7.4" y="14.7" transform="matrix(-0.7071 -0.7071 0.7071 -0.7071 4.5186 32.0695)" width="2.9" height="0.7"/>
<rect x="5.9" y="7" transform="matrix(0.7071 -0.7071 0.7071 0.7071 -3.0444 7.3515)" width="2.9" height="0.7"/>
<rect x="6.7" y="7.8" transform="matrix(0.7071 -0.7071 0.7071 0.7071 -3.3658 8.1258)" width="2.9" height="0.7"/>
<rect x="7.4" y="8.5" transform="matrix(0.7071 -0.7071 0.7071 0.7071 -3.6868 8.9006)" width="2.9" height="0.7"/>
</svg>
