<?xml version="1.0" encoding="utf-8"?>
<!-- Generator: Adobe Illustrator 17.1.0, SVG Export Plug-In . SVG Version: 6.00 Build 0)  -->
<!DOCTYPE svg [
	<!ENTITY ns_flows "http://ns.adobe.com/Flows/1.0/">
	<!ENTITY ns_extend "http://ns.adobe.com/Extensibility/1.0/">
	<!ENTITY ns_ai "http://ns.adobe.com/AdobeIllustrator/10.0/">
	<!ENTITY ns_graphs "http://ns.adobe.com/Graphs/1.0/">
	<!ENTITY ns_vars "http://ns.adobe.com/Variables/1.0/">
	<!ENTITY ns_imrep "http://ns.adobe.com/ImageReplacement/1.0/">
	<!ENTITY ns_sfw "http://ns.adobe.com/SaveForWeb/1.0/">
	<!ENTITY ns_custom "http://ns.adobe.com/GenericCustomNamespace/1.0/">
	<!ENTITY ns_adobe_xpath "http://ns.adobe.com/XPath/1.0/">
]>
<svg version="1.2" baseProfile="tiny" id="Capa_1" xmlns:x="&ns_extend;" xmlns:i="&ns_ai;" xmlns:graph="&ns_graphs;"
	 xmlns="http://www.w3.org/2000/svg" xmlns:xlink="http://www.w3.org/1999/xlink" xmlns:a="http://ns.adobe.com/AdobeSVGViewerExtensions/3.0/"
	 x="0px" y="0px" viewBox="0 0 24 24" xml:space="preserve">
<metadata>
	<sfw  xmlns="&ns_sfw;">
		<slices></slices>
		<sliceSourceBounds  width="24" height="15.999" bottomLeftOrigin="true" y="4.0005" x="0"></sliceSourceBounds>
	</sfw>
</metadata>
<title>Flag of New Caledonia</title>
<g>
	<rect y="4.0005" fill="#0035AD" width="24" height="5.316"/>
	<rect y="9.3195" fill="#ED4135" width="24" height="5.313"/>
	<rect y="14.6295" fill="#009543" width="24" height="5.37"/>
	<circle fill="#FAE600" cx="8.871" cy="11.9745" r="5.223"/>
	<path d="M8.871,6.6765c-2.922,0-5.298,2.376-5.298,5.298s2.376,5.298,5.298,5.298s5.298-2.376,5.298-5.298
		C14.166,9.0525,11.79,6.6765,8.871,6.6765z M6.828,16.6995c-1.827-0.792-3.108-2.613-3.108-4.725c0-2.808,2.262-5.097,5.058-5.148
		v1.143c-0.327,0.144-0.591,0.27-0.642,0.558c-0.006,0.039-0.015,0.426-0.024,0.522c0,0,0.054,0.006,0.183-0.099
		c0.057-0.048,0.24-0.078,0.483-0.231v0.6c-0.348,0.045-0.618,0.342-0.618,0.702c0,0.36,0.27,0.657,0.618,0.702v0.147
		c-0.276-0.012-0.519-0.09-0.726-0.513c-0.114-0.231-0.408-0.585-0.408-0.585s0.138,0.399,0.159,0.798
		c0.03,0.594,0.561,0.651,0.972,0.654v0.123H7.98v0.18h0.795v0.12c-0.348,0.027-0.618,0.216-0.618,0.444
		c0,0.228,0.27,0.417,0.618,0.444v0.12H7.98v0.18h0.795v0.123c-0.612,0.021-0.909,0.264-0.942,0.612
		c-0.069,0.75-0.207,1.332-0.207,1.332s0.222-0.276,0.483-0.921c0.123-0.303,0.396-0.492,0.666-0.525v0.075
		c-0.279,0.063-0.495,0.414-0.495,0.84c0,0.426,0.213,0.777,0.495,0.84v0.237c-0.357,0.006-0.708,0.084-0.891,0.228
		C7.644,15.8835,7.035,16.4865,6.828,16.6995z M10.818,16.7385c-0.204-0.216-0.75-0.795-1.062-1.05
		c-0.165-0.135-0.471-0.21-0.795-0.225v-0.24c0.279-0.063,0.495-0.414,0.495-0.84s-0.213-0.777-0.495-0.84v-0.075
		c0.27,0.036,0.543,0.222,0.666,0.525c0.261,0.645,0.483,0.921,0.483,0.921s-0.138-0.582-0.207-1.332
		c-0.033-0.348-0.327-0.591-0.942-0.612v-0.123h0.795v-0.18H8.961v-0.12c0.348-0.027,0.618-0.216,0.618-0.444
		c0-0.228-0.27-0.417-0.618-0.444v-0.12h0.795v-0.18H8.961v-0.123c0.411-0.006,0.942-0.063,0.972-0.654
		c0.021-0.399,0.159-0.798,0.159-0.798s-0.294,0.354-0.408,0.585c-0.207,0.423-0.447,0.501-0.726,0.513v-0.147
		c0.348-0.045,0.618-0.342,0.618-0.702c0-0.36-0.27-0.657-0.618-0.702v-0.729c0.21-0.171,0.453-0.438,0.693-0.873
		c0.129-0.231,0.069-0.336,0.069-0.333l0,0c0,0,0.006,0.015-0.09,0.099c-0.216,0.186-0.45,0.306-0.672,0.405v-1.065
		c2.796,0.048,5.058,2.337,5.058,5.148C14.016,14.1225,12.693,15.9705,10.818,16.7385z"/>
</g>
</svg>
