<?xml version="1.0" encoding="utf-8"?>
<!-- Generator: Adobe Illustrator 22.1.0, SVG Export Plug-In . SVG Version: 6.00 Build 0)  -->
<svg version="1.1" id="Слой_1" xmlns="http://www.w3.org/2000/svg" xmlns:xlink="http://www.w3.org/1999/xlink" x="0px" y="0px"
	 viewBox="0 0 512 512" style="enable-background:new 0 0 512 512;" xml:space="preserve">
<style type="text/css">
	.st0{fill:#FFFFFF;}
	.st1{fill:#CC0000;}
	.st2{fill:#08672F;}
	.st3{fill:#2B5DF2;stroke:#650000;stroke-width:1.1331;}
	.st4{fill:#FFCF00;stroke:#650000;stroke-width:1.1331;}
	.st5{fill:none;stroke:#650000;stroke-width:1.2249;}
	.st6{fill:none;stroke:url(#SVGID_1_);stroke-width:1.2091;}
	.st7{fill:none;stroke:#650000;stroke-width:1.1241;}
	.st8{fill:none;stroke:#650000;stroke-width:1.1331;}
	.st9{fill:none;stroke:#650000;stroke-width:1.03;}
	.st10{fill:none;stroke:url(#SVGID_2_);stroke-width:1.1524;stroke-opacity:0.261;}
	.st11{fill:none;stroke:#650000;stroke-width:1.396;stroke-opacity:8.900003e-02;}
	.st12{fill:none;stroke:#650000;stroke-width:1.4096;}
	.st13{fill:none;stroke:#650000;stroke-width:1.0776;}
	.st14{fill:none;stroke:#650000;stroke-width:1.1331;stroke-linecap:round;}
	.st15{fill:none;stroke:#650000;stroke-width:1.0346;}
	.st16{fill:none;stroke:#650000;stroke-width:1.1411;}
	.st17{fill:url(#SVGID_3_);stroke:#650000;stroke-width:1.1921;}
	.st18{fill:none;stroke:#650000;stroke-width:1.2827;}
	.st19{fill:none;stroke:#650000;stroke-width:1.0425;}
	.st20{fill:none;stroke:#650000;stroke-width:1.1331;stroke-opacity:0.3;}
	.st21{fill:none;stroke:#650000;stroke-width:2.4487;stroke-linecap:round;stroke-opacity:0.102;}
	.st22{fill:none;stroke:#650000;stroke-width:1.1331;stroke-opacity:0.299;}
	.st23{fill:none;stroke:#650000;stroke-width:1.396;stroke-opacity:9.500002e-02;}
	.st24{fill:none;stroke:#650000;stroke-width:2.1983;stroke-linecap:round;}
	.st25{fill:none;stroke:#650000;stroke-width:1.7836;stroke-linecap:round;}
	.st26{fill:none;stroke:#660000;stroke-width:1.3564;}
	.st27{fill:none;stroke:#660000;stroke-width:1.1898;}
	.st28{fill:#390000;fill-opacity:0.599;}
	.st29{fill:#390000;fill-opacity:0.1;}
	.st30{fill:none;stroke:url(#SVGID_4_);stroke-width:1.5921;stroke-opacity:0.261;}
	.st31{fill:none;stroke:url(#SVGID_5_);stroke-width:1.5921;stroke-opacity:0.261;}
	.st32{fill:none;stroke:#770000;stroke-width:2.8963;stroke-opacity:0.102;}
	.st33{fill-opacity:0.1;}
	.st34{fill:none;stroke:#770000;stroke-width:2.1824;stroke-opacity:0.102;}
	.st35{fill:none;stroke:#770000;stroke-width:2.4011;stroke-opacity:0.102;}
	.st36{fill:none;stroke:#650000;stroke-width:1.1921;}
	.st37{fill:none;stroke:#650000;stroke-width:1.3156;}
	.st38{fill:none;stroke:#650000;stroke-width:1.1864;}
	.st39{fill:none;stroke:#650000;stroke-width:1.3099;}
	.st40{fill:none;stroke:#770000;stroke-width:2.3411;stroke-opacity:0.102;}
	.st41{fill:none;stroke:#770000;stroke-width:3.592;stroke-opacity:0.102;}
	.st42{fill:none;stroke:#650000;stroke-width:1.0935;stroke-linecap:round;}
	.st43{fill:none;stroke:#650000;stroke-width:0.8918;stroke-linecap:round;}
	.st44{fill:none;stroke:#650000;stroke-width:0.987;stroke-linecap:round;}
	.st45{fill:none;stroke:#650000;stroke-width:1.1456;}
	.st46{fill:none;stroke:url(#SVGID_6_);stroke-width:1.2091;}
	.st47{fill:none;stroke:url(#SVGID_7_);stroke-width:1.1524;stroke-opacity:0.261;}
	.st48{fill:url(#SVGID_8_);stroke:#650000;stroke-width:1.1921;}
	.st49{fill:none;stroke:url(#SVGID_9_);stroke-width:1.5921;stroke-opacity:0.261;}
	.st50{fill:none;stroke:url(#SVGID_10_);stroke-width:1.5921;stroke-opacity:0.261;}
	.st51{fill:#0092C8;}
	.st52{fill:#FFCF00;stroke:#000000;stroke-width:1.3008;}
	.st53{fill:#0091C8;}
	.st54{fill:none;stroke:#000000;stroke-width:9.9023;stroke-linecap:round;stroke-linejoin:round;}
	.st55{fill:none;stroke:#FFFFFF;stroke-width:9.9023;stroke-linecap:round;stroke-linejoin:round;}
</style>
<title>Flag of New Caledonia</title>
<title>Flag of New Caledonia</title>
<path class="st0" d="M1.3,199.2h138.9v113.4H1.3V199.2z"/>
<path d="M129.1,265.2c-1.2,0.8-2.5,1-3.4,0.5c-0.7-0.4-0.8-0.2-0.2,0.6c0.3,0.4,1,0.8,1.6,1c0.6,0.2,1.6,0.5,2.3,0.8
	c1.6,0.7,3,0.7,4,0c2.2-1.3,0.8-3.7-2.1-3.7C130.6,264.4,130,264.6,129.1,265.2L129.1,265.2z M135.4,268c-0.1,0.3-0.3,1.1-0.3,1.8
	c-0.1,4.7-1.9,9.2-5.4,13c-0.8,0.8-1.4,1.6-1.4,1.7c0,0.3,3.9,0.2,4.4-0.1c0.5-0.2,0.5-0.2,0.7,0.8c0.2,1.3,0.9,2.5,1.8,3.1
	c0.5,0.4,0.8,0.4,1.4,0.1c1-0.5,1.7-1.6,1.8-3c0.1-1,0.2-1.2,0.6-1c0.2,0.1,1.4,0.2,2.6,0.3l2.2,0.1l-1.1-1.4
	c-2.2-2.6-2.9-3.6-3.7-5.3c-1.2-2.3-1.7-4.2-1.9-7c-0.1-1.3-0.3-2.6-0.4-3C136.4,267.4,135.8,267.4,135.4,268L135.4,268z
	 M46.9,256.4c-0.3,0.4-0.7,1.2-0.8,1.7c-0.1,0.5-0.4,1.4-0.7,2.1c-0.7,1.5-0.7,2.8,0.1,3.9c0.9,1.4,2.4,1.4,3.2,0
	c0.7-1.3,0.5-3.1-0.4-4.5c-0.8-1.2-0.9-2.3-0.4-3.5C48.2,255.3,47.6,255.5,46.9,256.4L46.9,256.4z M50.1,264.7
	c-0.5,0.2-1,0.6-1.2,0.8c-1.5,1.9,1.8,4,4.2,2.7c2.6-1.4,2.7-1.4,3.9-1c1,0.3,1.1,0.3,0.9-0.1c-0.4-0.8-1.1-1.2-3.6-2
	C51.5,264.2,51.3,264.2,50.1,264.7L50.1,264.7z M40.2,265.3c-1.2,0.8-2.5,1-3.4,0.5c-0.7-0.4-0.8-0.2-0.2,0.6c0.3,0.4,1,0.8,1.6,1
	c0.6,0.2,1.6,0.5,2.3,0.8c1.6,0.7,3,0.7,4,0c2.2-1.3,0.8-3.7-2.1-3.7C41.7,264.6,41,264.8,40.2,265.3z M46.5,268.2
	c-0.1,0.3-0.3,1.1-0.3,1.8c-0.1,4.7-1.9,9.2-5.4,13c-0.8,0.8-1.4,1.6-1.4,1.7c0,0.3,3.9,0.2,4.4-0.1c0.5-0.2,0.5-0.2,0.7,0.8
	c0.2,1.3,0.9,2.5,1.8,3.1c0.5,0.4,0.8,0.4,1.4,0.1c1-0.5,1.7-1.6,1.8-3c0.1-1,0.2-1.2,0.6-1c0.2,0.1,1.4,0.2,2.6,0.3l2.2,0.1
	l-1.1-1.4c-2.2-2.6-2.9-3.6-3.7-5.3c-1.2-2.3-1.7-4.2-1.9-7c-0.1-1.3-0.3-2.6-0.4-3C47.5,267.6,46.8,267.5,46.5,268.2L46.5,268.2z
	 M90.9,256.2c-0.3,0.4-0.7,1.2-0.8,1.7c-0.1,0.5-0.4,1.4-0.7,2.1c-0.7,1.5-0.7,2.8,0.1,3.9c0.9,1.4,2.4,1.4,3.2,0
	c0.7-1.3,0.5-3.1-0.4-4.5c-0.8-1.2-0.9-2.3-0.4-3.5C92.2,255.2,91.6,255.4,90.9,256.2L90.9,256.2z M94.2,264.6
	c-0.5,0.2-1,0.6-1.2,0.8c-1.5,1.9,1.8,4,4.2,2.7c2.6-1.4,2.7-1.4,3.9-1c1,0.3,1.1,0.3,0.9-0.1c-0.4-0.8-1.1-1.2-3.6-2
	C95.5,264.1,95.4,264.1,94.2,264.6L94.2,264.6z M84.2,265.2c-1.2,0.8-2.5,1-3.4,0.5c-0.7-0.4-0.8-0.2-0.2,0.6c0.3,0.4,1,0.8,1.6,1
	c0.6,0.2,1.6,0.5,2.3,0.8c1.6,0.7,3,0.7,4,0c2.2-1.3,0.8-3.7-2.1-3.7C85.7,264.4,85,264.7,84.2,265.2L84.2,265.2z M90.5,268.1
	c-0.1,0.3-0.3,1.1-0.3,1.8c-0.1,4.7-1.9,9.2-5.4,13c-0.8,0.8-1.4,1.6-1.4,1.7c0,0.3,3.9,0.2,4.4-0.1c0.5-0.2,0.5-0.2,0.7,0.8
	c0.2,1.3,0.9,2.5,1.8,3.1c0.5,0.4,0.8,0.4,1.4,0.1c1-0.5,1.7-1.6,1.8-3c0.1-1,0.2-1.2,0.6-1c0.2,0.1,1.4,0.2,2.6,0.3l2.2,0.1
	l-1.1-1.4c-2.2-2.6-2.9-3.6-3.7-5.3c-1.2-2.3-1.7-4.2-1.9-7c-0.1-1.3-0.3-2.6-0.4-3C91.5,267.5,90.8,267.4,90.5,268.1L90.5,268.1z
	 M3.8,256.2c-0.3,0.4-0.7,1.2-0.8,1.7c-0.1,0.5-0.4,1.5-0.7,2.1c-0.7,1.5-0.7,2.8,0.1,3.9c0.9,1.4,2.4,1.4,3.2,0
	c0.7-1.3,0.5-3.1-0.4-4.5c-0.8-1.2-0.9-2.3-0.4-3.5C5.1,255.1,4.5,255.3,3.8,256.2L3.8,256.2z M7,264.5c-0.5,0.2-1,0.6-1.2,0.8
	c-1.5,1.9,1.8,4,4.2,2.7c2.6-1.4,2.7-1.4,3.9-1c1,0.3,1.1,0.3,0.9-0.1c-0.4-0.8-1.1-1.2-3.6-2C8.3,264,8.2,264,7,264.5L7,264.5z
	 M134.8,194.1c-0.1,0.3-0.3,1.1-0.3,1.8c-0.1,4.7-1.9,9.2-5.4,13c-0.8,0.8-1.4,1.6-1.4,1.7c0,0.3,3.9,0.2,4.4-0.1
	c0.5-0.2,0.5-0.2,0.7,0.8c0.2,1.3,0.9,2.5,1.8,3.1c0.5,0.4,0.8,0.4,1.4,0.1c1-0.5,1.7-1.6,1.8-3c0.1-1,0.2-1.2,0.6-1
	c0.2,0.1,1.4,0.2,2.6,0.3l2.2,0.1l-1.1-1.4c-2.2-2.6-2.9-3.6-3.7-5.3c-1.2-2.3-1.7-4.2-1.9-7c-0.1-1.3-0.3-2.6-0.4-3
	C135.8,193.4,135.2,193.4,134.8,194.1L134.8,194.1z M45.9,194.2c-0.1,0.3-0.3,1.1-0.3,1.8c-0.1,4.7-1.9,9.2-5.4,13
	c-0.8,0.8-1.4,1.6-1.4,1.7c0,0.3,3.9,0.2,4.4-0.1c0.5-0.2,0.5-0.2,0.7,0.8c0.2,1.3,0.9,2.5,1.8,3.1c0.5,0.4,0.8,0.4,1.4,0.1
	c1-0.5,1.7-1.6,1.8-3c0.1-1,0.2-1.2,0.6-1c0.2,0.1,1.4,0.2,2.6,0.3l2.2,0.1l-1.1-1.4c-2.2-2.6-2.9-3.6-3.7-5.3
	c-1.2-2.3-1.7-4.2-1.9-7c-0.1-1.3-0.3-2.6-0.4-3C46.9,193.6,46.2,193.6,45.9,194.2L45.9,194.2z M89.9,194.1
	c-0.1,0.3-0.3,1.1-0.3,1.8c-0.1,4.7-1.9,9.2-5.4,13c-0.8,0.8-1.4,1.6-1.4,1.7c0,0.3,3.9,0.2,4.4-0.1c0.5-0.2,0.5-0.2,0.7,0.8
	c0.2,1.3,0.9,2.5,1.8,3.1c0.5,0.4,0.8,0.4,1.4,0.1c1-0.5,1.7-1.6,1.8-3c0.1-1,0.2-1.2,0.6-1c0.2,0.1,1.4,0.2,2.6,0.3l2.2,0.1
	l-1.1-1.4c-2.2-2.6-2.9-3.6-3.7-5.3c-1.2-2.3-1.7-4.2-1.9-7c-0.1-1.3-0.3-2.6-0.4-3C90.9,193.5,90.2,193.4,89.9,194.1L89.9,194.1z
	 M3.2,194.1c-0.1,0.3-0.3,1.1-0.3,1.8c0,2.4-0.7,5-1.6,7.2l-0.1,8.1c0.2,1.3,0.9,2.5,1.8,3.1c0.5,0.4,0.8,0.4,1.4,0.1
	c1-0.5,1.7-1.6,1.8-3c0.1-1,0.2-1.2,0.6-1c0.2,0.1,1.4,0.2,2.6,0.3l2.2,0.1l-1.1-1.4c-2.2-2.6-2.9-3.6-3.7-5.3
	c-1.2-2.3-1.7-4.2-1.9-7c-0.1-1.3-0.3-2.6-0.4-3C4.2,193.4,3.6,193.4,3.2,194.1L3.2,194.1z M113.7,294.4c-0.3,0.4-0.7,1.2-0.8,1.7
	c-0.1,0.5-0.4,1.4-0.7,2.1c-0.7,1.5-0.7,2.8,0.1,3.9c0.9,1.4,2.4,1.4,3.2,0c0.7-1.3,0.5-3.1-0.4-4.5c-0.8-1.2-0.9-2.3-0.4-3.5
	C115,293.4,114.4,293.6,113.7,294.4L113.7,294.4z M116.9,302.8c-0.5,0.2-1,0.6-1.2,0.8c-1.5,1.9,1.8,4,4.2,2.7
	c2.6-1.4,2.7-1.4,3.9-1c1,0.3,1.1,0.3,0.9-0.1c-0.4-0.8-1.1-1.2-3.6-2C118.2,302.2,118.1,302.2,116.9,302.8L116.9,302.8z M107,303.4
	c-1.2,0.8-2.5,1-3.4,0.5c-0.7-0.4-0.8-0.2-0.2,0.6c0.3,0.4,1,0.8,1.6,1c0.6,0.2,1.6,0.5,2.3,0.8c1.6,0.7,3,0.7,4,0
	c2.2-1.3,0.8-3.7-2.1-3.7C108.4,302.6,107.8,302.8,107,303.4L107,303.4z M113.7,306.1c-0.1,0.3-0.3,1.1-0.3,1.8
	c-0.1,4.7-1.9,9.1-5.4,12.9c-0.8,0.8-1.4,1.5-1.4,1.6c0,0.3,3.9,0.2,4.4-0.1c0.5-0.2,0.5-0.2,0.7,0.8c0.2,1.3,0.9,2.5,1.8,3
	c0.5,0.4,0.8,0.4,1.4,0.1c1-0.5,1.7-1.6,1.8-2.9c0.1-1,0.2-1.2,0.6-1c0.2,0.1,1.4,0.2,2.6,0.3l2.2,0.1l-1.1-1.4
	c-2.2-2.6-2.9-3.5-3.7-5.2c-1.2-2.3-1.7-4.2-1.9-6.9c-0.1-1.3-0.3-2.6-0.4-3C114.7,305.5,114.1,305.4,113.7,306.1L113.7,306.1z
	 M24.7,294.6c-0.3,0.4-0.7,1.2-0.8,1.7c-0.1,0.5-0.4,1.4-0.7,2.1c-0.7,1.5-0.7,2.8,0.1,3.9c0.9,1.4,2.4,1.4,3.2,0
	c0.7-1.3,0.5-3.1-0.4-4.5c-0.8-1.2-0.9-2.3-0.4-3.5C26,293.6,25.5,293.7,24.7,294.6L24.7,294.6z M28,302.9c-0.5,0.2-1,0.6-1.2,0.8
	c-1.5,1.9,1.8,4,4.2,2.7c2.6-1.4,2.7-1.4,3.9-1c1,0.3,1.1,0.3,0.9-0.1c-0.4-0.8-1.1-1.2-3.6-2C29.3,302.4,29.2,302.4,28,302.9
	L28,302.9z M18,303.6c-1.2,0.8-2.5,1-3.4,0.5c-0.7-0.4-0.8-0.2-0.2,0.6c0.3,0.4,1,0.8,1.6,1c0.6,0.2,1.6,0.5,2.3,0.8
	c1.6,0.7,3,0.7,4,0c2.2-1.3,0.8-3.7-2.1-3.7C19.5,302.8,18.9,303,18,303.6L18,303.6z M24.8,306.3c-0.1,0.3-0.3,1.1-0.3,1.8
	c-0.1,4.7-1.9,9.1-5.4,12.9c-0.8,0.8-1.4,1.5-1.4,1.6c0,0.3,3.9,0.2,4.4-0.1c0.5-0.2,0.5-0.2,0.7,0.8c0.2,1.3,0.9,2.5,1.8,3
	c0.5,0.4,0.8,0.4,1.4,0.1c1-0.5,1.7-1.6,1.8-2.9c0.1-1,0.2-1.2,0.6-1c0.2,0.1,1.4,0.2,2.6,0.3l2.2,0.1l-1.1-1.4
	c-2.2-2.6-2.9-3.5-3.7-5.2c-1.2-2.3-1.7-4.2-1.9-6.9c-0.1-1.3-0.3-2.6-0.4-3C25.8,305.6,25.2,305.6,24.8,306.3L24.8,306.3z
	 M68.8,294.5c-0.3,0.4-0.7,1.2-0.8,1.7c-0.1,0.5-0.4,1.4-0.7,2.1c-0.7,1.5-0.7,2.8,0.1,3.9c0.9,1.4,2.4,1.4,3.2,0
	c0.7-1.3,0.5-3.1-0.4-4.5c-0.8-1.2-0.9-2.3-0.4-3.5C70.1,293.5,69.5,293.6,68.8,294.5L68.8,294.5z M72,302.8c-0.5,0.2-1,0.6-1.2,0.8
	c-1.5,1.9,1.8,4,4.2,2.7c2.6-1.4,2.7-1.4,3.9-1c1,0.3,1.1,0.3,0.9-0.1c-0.4-0.8-1.1-1.2-3.6-2C73.3,302.3,73.2,302.3,72,302.8
	L72,302.8z M62,303.5c-1.2,0.8-2.5,1-3.4,0.5c-0.7-0.4-0.8-0.2-0.2,0.6c0.3,0.4,1,0.8,1.6,1c0.6,0.2,1.6,0.5,2.3,0.8
	c1.6,0.7,3,0.7,4,0c2.2-1.3,0.8-3.7-2.1-3.7C63.5,302.7,62.9,302.9,62,303.5L62,303.5z M68.8,306.2c-0.1,0.3-0.3,1.1-0.3,1.8
	c-0.1,4.7-1.9,9.1-5.4,12.9c-0.8,0.8-1.4,1.5-1.4,1.6c0,0.3,3.9,0.2,4.4-0.1c0.5-0.2,0.5-0.2,0.7,0.8c0.2,1.3,0.9,2.5,1.8,3
	c0.5,0.4,0.8,0.4,1.4,0.1c1-0.5,1.7-1.6,1.8-2.9c0.1-1,0.2-1.2,0.6-1c0.2,0.1,1.4,0.2,2.6,0.3l2.2,0.1l-1.1-1.4
	c-2.2-2.6-2.9-3.5-3.7-5.2c-1.2-2.3-1.7-4.2-1.9-6.9c-0.1-1.3-0.3-2.6-0.4-3C69.8,305.5,69.2,305.5,68.8,306.2L68.8,306.2z
	 M113.5,219.5c-0.3,0.4-0.7,1.2-0.8,1.7c-0.1,0.5-0.4,1.4-0.7,2.1c-0.7,1.5-0.7,2.8,0.1,3.9c0.9,1.4,2.4,1.4,3.2,0
	c0.7-1.3,0.5-3.1-0.4-4.5c-0.8-1.2-0.9-2.3-0.4-3.5C114.8,218.4,114.2,218.6,113.5,219.5L113.5,219.5z M116.8,227.8
	c-0.5,0.2-1,0.6-1.2,0.8c-1.5,1.9,1.8,4,4.2,2.7c2.6-1.4,2.7-1.4,3.9-1c1,0.3,1.1,0.3,0.9-0.1c-0.4-0.8-1.1-1.2-3.6-2
	C118.1,227.3,118,227.3,116.8,227.8L116.8,227.8z M106.8,228.5c-1.2,0.8-2.5,1-3.4,0.5c-0.7-0.4-0.8-0.2-0.2,0.6
	c0.3,0.4,1,0.8,1.6,1c0.6,0.2,1.6,0.5,2.3,0.8c1.6,0.7,3,0.7,4,0c2.2-1.3,0.8-3.7-2.1-3.7C108.3,227.7,107.7,227.9,106.8,228.5
	L106.8,228.5z M113.1,231.3c-0.1,0.3-0.3,1.1-0.3,1.8c-0.1,4.7-1.9,9.2-5.4,13c-0.8,0.8-1.4,1.6-1.4,1.7c0,0.3,3.9,0.2,4.4-0.1
	c0.5-0.2,0.5-0.2,0.7,0.8c0.2,1.3,0.9,2.5,1.8,3.1c0.5,0.4,0.8,0.4,1.4,0.1c1-0.5,1.7-1.6,1.8-3c0.1-1,0.2-1.2,0.6-1
	c0.2,0.1,1.4,0.2,2.6,0.3l2.2,0.1l-1.1-1.4c-2.2-2.6-2.9-3.6-3.7-5.3c-1.2-2.3-1.7-4.2-1.9-7c-0.1-1.3-0.3-2.6-0.4-3
	C114.1,230.7,113.5,230.6,113.1,231.3L113.1,231.3z M24.6,219.6c-0.3,0.4-0.7,1.2-0.8,1.7c-0.1,0.5-0.4,1.5-0.7,2.1
	c-0.7,1.5-0.7,2.8,0.1,3.9c0.9,1.4,2.4,1.4,3.2,0c0.7-1.3,0.5-3.1-0.4-4.5c-0.8-1.2-0.9-2.3-0.4-3.5
	C25.9,218.6,25.3,218.8,24.6,219.6L24.6,219.6z M27.8,228c-0.5,0.2-1,0.6-1.2,0.8c-1.5,1.9,1.8,4,4.2,2.7c2.6-1.4,2.7-1.4,3.9-1
	c1,0.3,1.1,0.3,0.9-0.1c-0.4-0.8-1.1-1.2-3.6-2C29.1,227.5,29,227.5,27.8,228z M17.9,228.6c-1.2,0.8-2.5,1-3.4,0.5
	c-0.7-0.4-0.8-0.2-0.2,0.6c0.3,0.4,1,0.8,1.6,1c0.6,0.2,1.6,0.5,2.3,0.8c1.6,0.7,3,0.7,4,0c2.2-1.3,0.8-3.7-2.1-3.7
	C19.3,227.8,18.7,228.1,17.9,228.6L17.9,228.6z M24.2,231.5c-0.1,0.3-0.3,1.1-0.3,1.8c-0.1,4.7-1.9,9.2-5.4,13
	c-0.8,0.8-1.4,1.6-1.4,1.7c0,0.3,3.9,0.2,4.4-0.1c0.5-0.2,0.5-0.2,0.7,0.8c0.2,1.3,0.9,2.5,1.8,3.1c0.5,0.4,0.8,0.4,1.4,0.1
	c1-0.5,1.7-1.6,1.8-3c0.1-1,0.2-1.2,0.6-1c0.2,0.1,1.4,0.2,2.6,0.3l2.2,0.1l-1.1-1.4c-2.2-2.6-2.9-3.6-3.7-5.3
	c-1.2-2.3-1.7-4.2-1.9-7c-0.1-1.3-0.3-2.6-0.4-3C25.2,230.9,24.5,230.8,24.2,231.5L24.2,231.5z M68.6,219.5
	c-0.3,0.4-0.7,1.2-0.8,1.7c-0.1,0.5-0.4,1.5-0.7,2.1c-0.7,1.5-0.7,2.8,0.1,3.9c0.9,1.4,2.4,1.4,3.2,0c0.7-1.3,0.5-3.1-0.4-4.5
	c-0.8-1.2-0.9-2.3-0.4-3.5C69.9,218.5,69.3,218.7,68.6,219.5L68.6,219.5z M71.8,227.9c-0.5,0.2-1,0.6-1.2,0.8
	c-1.5,1.9,1.8,4,4.2,2.7c2.6-1.4,2.7-1.4,3.9-1c1,0.3,1.1,0.3,0.9-0.1c-0.4-0.8-1.1-1.2-3.6-2C73.1,227.4,73,227.4,71.8,227.9
	L71.8,227.9z M61.9,228.5c-1.2,0.8-2.5,1-3.4,0.5c-0.7-0.4-0.8-0.2-0.2,0.6c0.3,0.4,1,0.8,1.6,1c0.6,0.2,1.6,0.5,2.3,0.8
	c1.6,0.7,3,0.7,4,0c2.2-1.3,0.8-3.7-2.1-3.7C63.4,227.7,62.7,228,61.9,228.5L61.9,228.5z M68.2,231.4c-0.1,0.3-0.3,1.1-0.3,1.8
	c-0.1,4.7-1.9,9.2-5.4,13c-0.8,0.8-1.4,1.6-1.4,1.7c0,0.3,3.9,0.2,4.4-0.1c0.5-0.2,0.5-0.2,0.7,0.8c0.2,1.3,0.9,2.5,1.8,3.1
	c0.5,0.4,0.8,0.4,1.4,0.1c1-0.5,1.7-1.6,1.8-3c0.1-1,0.2-1.2,0.6-1c0.2,0.1,1.4,0.2,2.6,0.3l2.2,0.1l-1.1-1.4
	c-2.2-2.6-2.9-3.6-3.7-5.3c-1.2-2.3-1.7-4.2-1.9-7c-0.1-1.3-0.3-2.6-0.4-3C69.2,230.8,68.5,230.7,68.2,231.4L68.2,231.4z M3.3,268.2
	C3.2,268.5,3,269.3,3,270c0,2.4-0.7,5-1.6,7.2l-0.1,8.1c0.2,1.3,0.9,2.5,1.8,3.1c0.5,0.4,0.8,0.4,1.4,0.1c1-0.5,1.7-1.6,1.8-3
	c0.1-1,0.2-1.2,0.6-1c0.2,0.1,1.4,0.2,2.6,0.3l2.2,0.1l-1.1-1.4c-2.2-2.6-2.9-3.6-3.7-5.3c-1.2-2.3-1.7-4.2-1.9-7
	c-0.1-1.3-0.3-2.6-0.4-3C4.3,267.6,3.7,267.5,3.3,268.2L3.3,268.2z"/>
<g transform="matrix(.9955 0 0 .99382 .87233227 -1.2840106)">
	<rect x="0.4" y="87.7" class="st1" width="139.5" height="114.1"/>
	<path class="st2" d="M139.9,102.5V87.7h-17.1L0.4,186.9v14.8h17.1L139.9,102.5z"/>
	<path class="st2" d="M0.4,102.5V87.7h17.1l122.4,99.3l0,14.8l-17.4,0L0.4,102.5z"/>
	<path class="st0" d="M0.4,133.4l139.5-0.1l0,22.7L0.4,156.1L0.4,133.4z"/>
	<path class="st0" d="M58.7,86.5l22.6,0l0.1,116.4l-22.6,0L58.7,86.5z"/>
</g>
<path class="st1" d="M1.3,426h138.9V312.6H1.3V426z"/>
<g id="k">
	<g>
		<path class="st3" d="M73.1,408.6c-0.4,0.7,0.7,3.6,2.4,3.5c-1.1-1.8-1-3.9-1-3.9L73.1,408.6z M68.9,405.5
			c-0.6,0.1-2.1,3.9,0.3,5.3c0.1-2.4,1.2-3.8,1.2-3.8l-1.2-1.1L68.9,405.5z"/>
		<path class="st3" d="M68.6,403.2c-0.6-0.6-3.2,1.2-3.1,4c1.6-1.8,3.5-1.7,3.5-1.7L68.6,403.2z M71.6,400.9c0-0.9-2.3-1.9-3.5-0.1
			c1.7,0.2,2.7,1.8,2.7,1.8L71.6,400.9z M117.3,409c0,0.8,0.2,1.1,0.5,1.5c0.4,0.4,0.8,1.8,0.8,1.8s1.2-3.5,0.9-4
			C119.3,407.9,117.4,409,117.3,409z M110.7,407.5c-0.6-0.1-1.8,2.8-0.8,4.7c0.5-2.3,1.8-3.3,1.8-3.3L110.7,407.5z M107.7,406.7
			c-0.5-0.6-2.6,1.1-2.5,3.4c1.3-1.6,2.8-1.5,2.8-1.5L107.7,406.7z M109.3,403c-0.3-0.7-2.7-0.1-3.1,2.2c1.6-1,3-0.2,3-0.2
			L109.3,403z M31.6,401.4c0.2-0.8-1.5-3.1-3.1-2.2c1.5,1.2,1.9,3.2,1.9,3.2L31.6,401.4z M24.9,406.4c-0.6-0.7-3,1.4-2.9,4.5
			c1.5-2.1,3.3-1.9,3.3-1.9L24.9,406.4z M25.1,402c-0.3-1-3.1-0.9-4.1,1.9c2-0.8,3.5,0.6,3.5,0.6L25.1,402z M28,410.4
			c-0.2,0.8,0,1.1,0.3,1.6c0.3,0.5,0.5,2,0.5,2s1.7-3.1,1.5-3.6C30.1,409.8,28.1,410.4,28,410.4z M20.9,375.1c0-1.1-2.8-2.2-4.3,0
			c2.1,0.2,3.2,2.1,3.2,2.1L20.9,375.1z M18,379.5c-0.6-0.7-3,1.4-2.9,4.5c1.5-2.1,3.3-1.9,3.3-1.9L18,379.5z M28,374.8
			c0.3-1-2-3.4-4.1-2c1.9,1.1,2.5,3.5,2.5,3.5L28,374.8z M31.3,378.5c0.5-0.6-0.4-3.7-2.1-3.9c1,2,0.7,4.1,0.7,4.1L31.3,378.5z"/>
		<path class="st4" d="M40.4,382.2c-1.7-2,0-5.7,1.5-4.1c-0.8-1.5,0.5-2.7,1.1-1.9c-0.3-1.2,1-2,1.6-0.9c-0.2-1.4,1.7-2.2,2.2-0.7
			c0-1.3,1.9-2.4,2.3-0.4c0.4-1.5,2.4-1.7,2.6,0.4c0.6-1.3,2.1-1.2,2.2,0.7c0.7-0.9,2.4,0.4,2.1,1.9c1.1-0.2,2.4,1.9,1.1,3.5
			c2.3-1.2,2.8,2.8,1.4,4.6c0.7,0.4,0.8,0.1,1.4,0.4c0.6,0.3,1.8,0.9,2.9,1.1c1,0,4.5-0.1,5.2-0.2c0.7-0.1,1.7-0.5,2.9-0.9
			c1.2-0.4,3-0.4,4.6-0.8c1.3-0.1,37.3,0.6,38.3,0.5c1-0.1,2.5-1.1,2.5-2.3c-0.1-1.2-1.3-2.1-2.5-2.2c-1.2-0.1-7.3-0.1-8.4,0.1
			c-1.1,0.2-2.7,0.8-3.5,1.6c-0.4,0.2-1,1.2-1.6,1.8c-0.5,0.4-1.9,0.5-1.9-0.1c0-0.4-0.1,0.1-0.5,0.2c-0.5,0.3-2.5,0.4-2.4,0
			c0.2-0.4,0-0.5-0.5-0.1c-0.4,0.3-3.2,0.5-3.7,0.1c0.3-0.5,0.3-0.5-0.5-0.1c-0.5,0.2-2.8,0.4-2.9,0c0-0.4-0.3-0.2-0.6-0.1
			c-2.5,0.7-2.8-0.1-2.4-0.4c0.4-0.3,1-2.2,0.4-2.1c-0.6,0.1-4.6,0.9-6,1.1c-1.4,0.2-11.2,0-12.5-0.1c-1.4-0.1-2.9-1.4-2.9-3.2
			c-0.1-2.9,2.2-3.7,3.7-4.1c1.4-0.4,5-1.1,6.5-1.1c1.4,0,5.5,0.5,6.6,0.1c1.1-0.4,4.5-1.7,5.5-1.8c1.4-0.1,5.5,0.3,7.4,2.7
			c-1,0.5-1.5,0.7-0.3,0.3c1-0.2,5.5-1.2,6.5-1.4c3.6-0.2,2.6,0.4,0.9,0.8c-0.6,1.9-5.9,4.5-7.5,4.8c-1.7,0.3-5.2,0.1-6-0.1
			c-0.8-0.1-4.6-0.2-5.9-1.1c-2.2-1.5-6.3-2.5-8.1-2.5c-1.7,0-6.5,0.5-6.5,2.2c0,2.9,4.5,3.1,6.4,3c1.9-0.1,6.7-0.3,8-0.9
			s4.3-0.7,5.9-0.7c1.6,0,3.9,0.4,4.6,0.2c0.7-0.1,2.4-0.1,3.2-0.7c0.8-0.6,2.5-1.1,4.3-1.1c1.8,0,14.8-0.5,16.5-0.4
			c2.5,0,4.3,2.8,4.4,5.1c0,1.1-0.5,2.7-1,3c0.8,0.1,2.8,0.3,3.4,0.4c1.2,0.2,3.2,1.6,3.4,2.8c-0.9-0.6-2.4-1.4-3.8-1.5
			c-0.3,0-28.6,0-30.9,0c6.1,0.7,10.7,5.4,11.9,8.1c1,1.7,3.6,1,4.5,0.8c1-0.2,2.1-1.2,2.9-2c0.8-0.8,2-1,2.6-0.8
			c1.2-0.1,1.5,1.2,1,1.9c-0.5,0.7,0.1,0.4,1.4,0.4c1.3,0,2.4,0.5,3.1,1.5c-0.7,0.7-1.1,0.1,0,0.2c1,0.1,2.3,2,1.5,2.6
			c-0.7,0.3-0.9,0.2,0,0.3c1.3,0.1,1.7,1,1.8,2.5c-1.1,0.2-0.6-0.1,0,0.4c0.6,0.6,1.4,3-0.6,3.1c-0.7-0.3-0.7-0.4-0.6,0.4
			c0.1,0.8-0.2,2.6-1.4,2.6c-1.5,0.3-2.9-0.6-3.1-1.6c-0.2-1-0.1,1.9-2.3,2.4c-2.1,0.5-3.2-0.7-3.3-1.3c-0.2-0.6-0.1-0.1-0.9-0.2
			c-0.8-0.1-1.8-0.1-2.2-1.4c0-0.8,0.2-1.8,1.6-1.9c0.6-0.1,0.8-0.9,0.3-1.1c-0.5-0.1-0.1-1.8,1-1.3c1,0.4,3.4,0.6,4,1.1
			c0.6,0.6,0.7-0.4-0.2-1.3c-0.9-0.9-6.2-2.7-7.6-2c-3.3,1.7-8.9,1.4-9.9,1.2c-1-0.2-3.7,0.4-5-3.7c-1.1-4.1-5.1-6.2-6.9-6.4
			c-9-0.9-8.5-0.2-2.7,0.1c0,0.8-0.3,2.3,0.7,2.6c1.6-0.2,4.9-0.9,5.7-0.3c0.8,0.7,1.6,1.2,1.4,2.8c-0.2,1.6,0.1,1.1-0.6,1.8
			c-0.7,0.7-0.4,2,0.7,2.4c1.1,0.4,1.6,1,2.3,1.7c0.7,0.7-0.3,2-1,1.6c-0.6-0.4-0.6-0.4-0.7,0.4c-0.1,0.9-0.9,2.6-2.2,2.7
			c-0.3-0.1-0.2-0.6-0.2-0.9c0.1-0.8-0.3,1-0.7,1.4c-0.3,0.3-2.5,1-3.2,0.6c0.3-0.7,0.1-0.4-0.4-0.1c-0.5,0.2-3.5,0.6-2.2-0.8
			c0.3-0.5-0.5,0.6-0.9,0.8c-0.4,0.2-2.1,0.4-2.1-0.3c-0.6,0.5-1.9,0.5-2.1,0.1c-0.4-0.4-0.4,0.3-1.2,0.4c-0.7,0.1-2.3-0.1-2.4-1
			c-0.1-0.9,0.2-0.3-0.7-0.2c-2.1,1.4-3.2-0.6-3.2-1.2c0-0.7-0.1-1.4,0.2-1.9c0.2-0.4-1.5-0.6-1-1.5c0.6-1.1,1.2-1.9,2.4-1.7
			c0.6,0.1,0.5-0.2,0.2-0.7c-0.2-0.4,0.6-0.7,1.7-0.2c1,0.4,1.8,1.6,2.1,2.6s2.8,0.2,3.8,0.3s1.1-1.7,0.5-2.2
			c-0.6-0.6-2.4-2.6-3.1-3.2c-0.7-0.7-0.2-3,0.4-3.6c3.7-2.5,1.7-3.3,0.3-3.1c-1.4,0.2-4.8,1.6-5.9,2.8c-1.1,1.2-9.8,7.2-10.6,7.9
			c-0.8,0.7-2,0.8-2.4,0.1c-0.5-0.8-0.8-0.2-0.7,0.9c0.6,4.2-3.1,5.5-3.8,5.5c-0.5,0-1.1-0.3-1.6-0.7c-0.5,2.3-2.5,2.6-4.4,2.3
			c0-0.3,0.3-0.8,0.1-0.6c-0.6,0.8-2.5,0.7-4.1,0.6c-0.1-0.5,0.6-1.1,0.2-0.7c-0.5,1-1.5,0.8-3,0.7c0-0.2,0.7-0.9,0.4-0.5
			c-0.7,0.7-2,0.5-3.1,0.5c-0.1-0.2,0.6-1.3-0.1-0.6c-0.6,0.6-1.9,0.8-3.1,0.6c-0.2-0.5,0.3-0.6,0.4-0.9c0.3-0.6-0.2,0-0.6,0
			c-0.4,0-1,0.1-1.2-0.4c-0.2-0.6-0.1,0.6-0.3,0.9c-0.2,0.3-0.5,0.9-1.3,1.1c-0.8,0.2-2.9,0.4-3.2-0.6c-0.4-0.5-0.6-1.4-0.3-2
			c0.3-0.6-1.5,1.1-2.3,1.2c-2.3,0.5-2.6-3.2-1.6-3.6c1-0.3,0.9-0.9,0.3-1.3c-0.6-0.4-0.9-2.2-0.2-2.8c0.7-0.6,2.4-0.9,3.4-0.2
			c0.6,0.4,1.9,1.9,1.7,0.8c-0.2-0.7,0.3-1.5,0.8-1.9c0.4-0.4,1.8-0.5,2.2,0.4c0.8,2,1.4,2.9,2.5,2.9c2.2-0.6,5.2-1.3,6.1-1.3
			c1.1-0.3,7.1-0.9,7.1-1.4c-3.6,1.2-5-0.4-5.4-0.3c-0.4,0.1-1.4-0.4-1.4-0.7c0-0.7,0.9-0.6-0.4-0.4c-0.8-0.1-1.4-0.1-2.1-0.9
			c-0.1-0.4,0.8-1.8,1.2-3c-0.8-0.2-2.6,1.3-3.2,2.6c-0.4-0.5-0.6,0-2.1,0.3c-0.7,0.3-1.8,0.2-2.5-0.1c-0.6-0.3-3.1-2.2-1.9-2.5
			c-0.3-0.2-0.7-0.2-0.9-0.3c-0.9-0.4-1.7-1.1-1.4-1.3c-0.2-0.3,0.3-0.3-0.1-0.4c-0.5-0.1-1.7-1-1.4-1.3c-0.3-0.2-1-0.5-1.3-0.7
			c-0.6-0.3-1.1-1.5-1.2-2c-0.5,0-1.6-0.9-1.1-1.2c-0.8-0.6-1.5-1.7-1-2c-0.5-0.4-0.8-1.1-0.5-0.8c-0.5-0.6-0.4-1.3,0-1.3
			c0.4,0,0.2-1.8-0.5-1.8s-1.9,0.6-2.7,0c-0.7-0.5-1.3-2.9-0.6-3.9c0.6-1,1.9-2.1,2.5-2c0.6,0.1,0.3,0.3,0.2-0.7
			c-0.2-1,0.9-1.7,1.6-2c0.8-0.4,2.5-0.1,2.9,0.3c0.5,0.4,0.6,0.4,0.6-0.3c0-0.5,0.6-0.8,1.2-1c0.9-0.2,1.6,0,1.9,0.4
			c0.5,0.7,0.8,1.6,0.2,2.2c-0.6,0.7-0.1,0.1,1-0.1c0.7-0.2,1.9,0.1,2.1,0.8c0.3,0.8,0.5,2.1-0.2,2.8c-0.7,0.7-1.8,2.3-1.2,2.9
			c0.6,0.6,2.3,3,2.7,3.3c0.4,0.3,0.9,1.1,1.5,1c0.6-0.1,1.4-0.2,1.9-0.3c2.2-0.4,3.2-0.7,0.4-0.6c0.6-0.9,2-1.2,2.6-1.3
			C38.5,384,40.4,382.4,40.4,382.2L40.4,382.2z"/>
		<path class="st5" d="M40.4,391.2c-1.5-0.2-5.4,3.1-4.1,7.3"/>
		
			<linearGradient id="SVGID_1_" gradientUnits="userSpaceOnUse" x1="106.2357" y1="-36.0457" x2="106.425" y2="-10.8928" gradientTransform="matrix(0.4552 0 0 -0.3613 -2.5596 386.9931)">
			<stop  offset="0" style="stop-color:#4A0000"/>
			<stop  offset="1" style="stop-color:#FFCF00"/>
		</linearGradient>
		<path class="st6" d="M40.7,387.4c-2.1,13.1,10.6,8,10.7,3.6"/>
		<path class="st7" d="M50.6,392.9c0.2,1.7,0.3,6.5-1.5,7.8c-1.8,1.2-4,1.4-5.7,0.8"/>
		<path class="st8" d="M46.7,395.6c-0.2,1.7-1.9,5.9-5.2,5.3 M20.1,377.4c1.7,0.2,2.6,1.5,2.9,2.7c0.4,1.2,0.6,1.9,0.6,1.9
			 M21.6,387.2c0.7,0.3,2.1,0,2.1,0"/>
		<path class="st9" d="M22.3,389c1.6,0.5,3.3-0.3,3.3-0.3"/>
		
			<linearGradient id="SVGID_2_" gradientUnits="userSpaceOnUse" x1="58.889" y1="34.9699" x2="74.7083" y2="49.8011" gradientTransform="matrix(0.4017 0 0 -0.4095 0.4945 409.8908)">
			<stop  offset="0" style="stop-color:#4A0000"/>
			<stop  offset="1" style="stop-color:#FFCF00"/>
		</linearGradient>
		<path class="st10" d="M25.9,393.1c4.4,0,6.3-6.3,6.3-6.3"/>
		<path class="st11" d="M35,390.1c-1.2,3.3-1.1,3.3-2.7,3.9l-1.6,0.7"/>
		<path class="st8" d="M29.9,396.4c1.7-0.5,2.8-1.5,2.8-1.5 M28.1,376.7c-1,1.2-0.9,3.4-0.9,3.4 M48.4,376.8
			c0.2,2.2-0.7,3.4-1.4,3.4c-0.6,0-1.3,0.8-0.9,2.2 M50.9,376.4c-1.1,1.5-1.4,3.3-1,4.6c0.4,1.4,0,1.8,0,1.8"/>
		<path class="st12" d="M37.8,389.1c-2,0.5-2.8,4.2-1.7,6.1"/>
		<path class="st8" d="M55.9,383.9h-1.4c0,0-0.9,1.9-2.3,1.4c-1.5-0.5-0.1,0-0.1,0 M48.6,382.4c2.1,0.1,1.7,1.7,0.1,1.6
			c0.1,2.1-2.3,1.8-2.1,0.2c-1.5,0-2.1-2,0.1-1.7 M98.4,383.9c0.4-1.3,2.4-2.5,2.4-2.5 M95.5,383.9c0.9-1.6,2.4-2.5,2.4-2.5
			 M91.3,384c1.3-0.8,1.7-1.1,2.1-1.5c0.5-0.5,1.4-1.3,1.4-1.3"/>
		<path class="st13" d="M87.6,384c1-0.5,1.7-0.8,2.4-1.3c0.8-0.6,1.4-1.3,1.4-1.3"/>
		<path class="st8" d="M88.4,379.8c-3.1-1-4.4-3.1-4.4-3.1 M93.5,375.3c-2,0.9-6.2,0.5-6.3,0.5 M56.8,402.3c0.6-2.2,1.7-2.7,3.2-3.4
			c1.5-0.6,3.7-2.4,2.3-1.1c-1.4,1.3-3.4,2.2-4.1,2.7c-0.7,0.5-1.1,1.6-0.8,2.1"/>
		<path class="st14" d="M53.9,394.1c1.3,2.2,0.5,5.2-1.1,6"/>
		<path class="st8" d="M58.2,386.6c2.1,0.9,2.2,3,2.5,4.2c-0.7-0.3-1.3-0.2-1.8-0.4"/>
		<path class="st15" d="M57.4,387.8c1.4,2,2,3.2,2.1,3.9c0.1,1.2,0.1,4.1-3.2,4.1c0.3-0.9,0.7-3.2,0.2-4.1"/>
		<path class="st8" d="M56.6,393.7c0,1.9-1.3,2.7-1.9,3 M51.5,385.1c0.1,2.3-4.1,4-4,0.5"/>
		<path class="st16" d="M47.5,385.7c-0.1,1.7-2.4,2.1-3.2,0.6c-0.6-1-1-1.4-1.4-1.6c-0.4-0.1-0.4-1.5-0.5-1.7
			c-0.1-0.3-0.3-1-0.5-1.3"/>
		
			<linearGradient id="SVGID_3_" gradientUnits="userSpaceOnUse" x1="124.1796" y1="102.2741" x2="123.1748" y2="94.5603" gradientTransform="matrix(0.338 0 0 -0.4867 4.1255 439.9786)">
			<stop  offset="0" style="stop-color:#000000"/>
			<stop  offset="1" style="stop-color:#2B5DF2"/>
		</linearGradient>
		<path class="st17" d="M44.1,386.2c1.1,1.9,3.6,0.7,4.3,1.5c0.7,0.7-0.6,3.3-1,4.8c-0.9,1.3-3,1.2-3.8,0.2c0.4-1.8,0.5-5.6,0.5-5.7
			L44.1,386.2z"/>
		<path class="st8" d="M25.1,375.3c0.2,1.1-0.1,1.3-0.3,2.3c-0.3,1,0.1,2.7,0.1,2.7 M24.6,405.6c0.9-0.2,2.7,0,2.7,0 M27.9,408.5
			c0.5-1,1.7-1.8,1.7-1.8 M37.6,409.7c0.4-0.6,0.4-2.5,0.4-2.5 M40.7,409.7c0.7-0.8,0.7-2.5,0.7-2.5 M43.3,409.7
			c0.7-1.3,0.6-2.9,0.6-2.9 M47.2,409.8c0.4-0.7,0.4-2.4,0.4-2.4 M75.3,406c-1.6-0.4-2.5,1.8-2.5,1.8 M77.3,405.7
			c-0.2,1.6-1.4,3-1.4,3 M79.8,405.5c-0.1,1.3-1.5,3.1-1.5,3.1 M82.8,405c-0.2,1.8-1.5,3.1-1.5,3.1 M85.1,404.4
			c0.1,1.6-0.7,4-1.2,4.5 M87.8,405c0.3,0.8,0,2.1,0,2.1 M70.8,401.7c1,0.2,1.6,1.4,1.6,1.4 M69.1,404.8c0.5-1.9,2.9-1,3.2-0.5
			 M113.5,396c-0.9-0.1-2.2,0.4-2.2,0.4 M117.6,397.7c-1.2,0.5-2.6,0.6-2.6,0.6 M119.1,400.5c-1-0.1-1.8-0.1-1.8-0.1 M121.1,403.1
			c-1-0.1-2.7,0-2.7,0 M120.3,406.5c-0.3-1-1.4-1.2-1.4-1.2 M110.1,408.7c0.3-1.4,2-2.6,2.9-2.6h1 M108.7,405.5
			c1-0.4,2.7-0.5,2.7-0.5 M41.3,399.8c1-0.8,1.9-2.6,1.9-2.6 M54,378.7c-1,1.1-1.1,1.2-1.1,1.2 M55,380.8c-1.4,0.1-1.5,0.1-1.5,0.1"
			/>
		<path class="st18" d="M50.1,380c1-0.4,3.4-0.1,3.4,0.8c0,1.1-0.9,1.1-3.4,0.1l0-0.8V380z"/>
		<path class="st19" d="M46.8,380.1c0.1-1.3-2.4-2.5-3-1.8c-0.7,1.2,1.4,2.2,1.9,2.2c0.5,0,0.2,0.1,0.2,0.1"/>
		<path class="st20" d="M54.2,389.7c0.8,1.5,1,4.1,0.1,5.4"/>
		<path class="st8" d="M53.6,384.9c-0.9,2.6-0.2,5-0.2,5 M42.4,385.5c-0.8,0.7-1.4,0.4-1.4,0.4"/>
		<path class="st20" d="M51.4,393.2c0.8,0.4,1.9,3.1,1.7,3.9L53,398 M51.1,394.3c0.5,1.3,1.1,3.3,0.9,3.9l-0.2,0.7 M48.3,395.6
			c0.3,1.3,0.2,3.5-0.3,3.9l-0.5,0.4 M47.5,395.8c-0.5,1.5-0.9,3.7-0.9,3.7"/>
		<path class="st21" d="M40.6,386.4c-0.9,1.3-2.2,2.6-2.2,2.6"/>
		<path class="st22" d="M39.9,391.7c-0.8,0.7-1.9,2.2-1.9,2.2 M40.9,393.9c-1.3-0.9-2.7,0.7-2.7,0.7"/>
		<path class="st23" d="M33.1,396.2c-0.3,0.9-2.7,1.5-2.7,1.5"/>
		<path class="st24" d="M52.4,380.3l-0.2,1"/>
		<path class="st25" d="M45.9,378.5c-0.2,0.7-0.5,1.5-0.5,1.5"/>
	</g>
	<path class="st8" d="M38.5,386.2c-2.9,1.5-3.4,2.9-2.9,6.1"/>
	<path class="st26" d="M58.2,381.8c-0.8,0.4-0.7,2.4-0.7,2.4"/>
	<path class="st27" d="M40.6,379c0.9,0.6,0.5,2.5,0.5,2.5"/>
	<path class="st28" d="M34.7,409.4c-0.1,1.9-1.8,1.4-2.6,1.4l0.6-1.2c0.1,0,0.3,0.1,0.6-0.1L34.7,409.4z"/>
	<path class="st29" d="M50.2,393.2c0.2,0.9,0.2,1.5,0.1,2.5c-0.2,1.6-0.3,1.6-0.9,2.9c-0.2,0.4-0.1,0-0.7,1.2l-2.1-1.4
		c0.1,0.5,0-0.3,0.1-0.5c0.3-0.6,0.3-0.7,0.4-1.5c0-0.7,0.6-1.9,0.9-0.7L50.2,393.2z M42.8,399.1c0.5,0.1,1.6-0.3,2.1-0.4
		c0.8-0.3,0.1-0.4,0.7-1c0.2-0.2,0.4-1,0.5-1.2l-0.9-0.1c-0.1,0.8-0.8,0.1-0.9,0.2c-0.3,0.3-0.3,0.1-0.7,0.2
		c-0.4,0.1-0.8-0.1-0.2,0.2L42.8,399.1z M88.6,394.4c-0.3,1.5-0.6,2.3-1.3,3.5c-1.2,1.8-2.3,2.7-3.9,3.5c-0.5,0.1-1,0.2-1.5,0.3
		l-0.2-5.1c0.2,0,0.4,0,0.7-0.1c0.8-0.4,1.3-0.8,1.9-1.7c0.5-0.9,0.7-2.2,0.4-0.2L88.6,394.4z"/>
	
		<linearGradient id="SVGID_4_" gradientUnits="userSpaceOnUse" x1="62.7377" y1="38.0655" x2="76.7078" y2="51.1642" gradientTransform="matrix(0.3957 0 0 -0.4157 0.8353 412.8281)">
		<stop  offset="0" style="stop-color:#4A0000"/>
		<stop  offset="1" style="stop-color:#FFCF00"/>
	</linearGradient>
	<path class="st30" d="M27.6,394.6c3.4-0.8,5.3-5.4,5.3-5.4"/>
	
		<linearGradient id="SVGID_5_" gradientUnits="userSpaceOnUse" x1="51.6158" y1="-73.2338" x2="64.2407" y2="-61.3963" gradientTransform="matrix(0.4896 0 0 -0.336 -4.5162 368.3826)">
		<stop  offset="0" style="stop-color:#4A0000"/>
		<stop  offset="1" style="stop-color:#FFCF00"/>
	</linearGradient>
	<path class="st31" d="M23.7,390.5c3.4,0.2,6-3.7,6-3.7"/>
	<path class="st32" d="M106,400.6c0.1-0.2,0.1-0.3,0.2-0.5c-0.4,1-0.3,0.6,1-0.5h2.5c1.1,0,1.6,0.2,2.5,0.5c0.6,0.3,1.1,0.8,1.7,1.2
		"/>
	<path class="st29" d="M39.7,397c-0.1,0.5,1.2,1.2,2,1.3c0.8-0.5,0.8-0.7,1.4-1.6c0.1-0.3,0-0.1,0.1-0.4l-1.7-1.7
		c-0.2,0.1-0.4,0.3-0.4,0.4c-0.3,0.4-0.3,0.7-0.7,0.9c-0.4,0.2-0.4,0.1-0.1,0.2l-0.3,0.5L39.7,397z M55,396.9c0.5-0.5,0.7-1,1-1.8
		c0.4-1.4,0.4-2.5,0.4-4c-0.1-0.4-0.1-0.9-0.2-1.3l-1.9,0.9c0,0.2,0.1,0.4,0.1,0.6c0.1,0.7,0,1.2-0.2,1.9c-0.2,0.6-0.6,1,0,0.4
		L55,396.9z"/>
	<path class="st33" d="M56.3,388c0.6,0.1,1,0.3,1.5,0.8c0.8,0.9,1.3,1.8,1.8,3.1c0.1,0.4,0.2,0.9,0.3,1.3l-2,0.8
		c0-0.2-0.1-0.4-0.1-0.6c-0.2-0.7-0.5-1.1-0.9-1.5c-0.4-0.3-0.9-0.4-0.1-0.4L56.3,388z"/>
	<path class="st29" d="M53.3,399.5c0.5-0.9,1-0.4,1.1-1.4c0.1-1.8-0.1-3.1-0.7-4.8c-0.2-0.5-0.5-0.9-0.7-1.4l-2.4,1.9
		c0.1,0.2,0.2,0.4,0.3,0.6c0.3,0.8,0.4,1.4,0.3,2.3c-0.1,0.8,0,1,0.6,1.3L53.3,399.5z"/>
	<path class="st32" d="M118,403.8c1.1,0,1.6,0.2,2.5,0.5c0.6,0.3,1.1,0.8,1.7,1.2 M113,397c1-0.3,1.6-0.2,2.6-0.2
		c0.6,0.2,1.2,0.5,1.8,0.7"/>
	<path class="st34" d="M96.6,399.9c-0.7,0-1-0.2-1.7-0.3c-0.4-0.3-0.7-0.7-1.1-1"/>
	<path class="st35" d="M103.2,387.1c-3.4-0.1-5.9-0.2-8.2-0.2c-2.2-0.1-5.8-0.2-8.2-0.2"/>
	<path class="st34" d="M75.9,389.9c0.6-0.4,1-0.4,1.6-0.6c0.4,0,0.9,0.2,1.3,0.3"/>
	<path class="st29" d="M23.5,385.3c-0.3,0.6-0.5,0.9-0.8,1.2c-0.6,0.5-0.9,0.4-1.4,0.4c-0.2-0.1-0.2-1.4-0.3-1.5l0.3-0.9
		c0.1,0.1,0.1,0.1,0.2,0.1c0.3,0,0.5,0,0.8-0.3c0.3-0.3,0.5-0.8,0.1,0L23.5,385.3z"/>
	<path class="st36" d="M44,385.7c-0.1,2.4-1.4,3.7-1.4,3.7"/>
	<path class="st37" d="M42.7,384.5c-0.7,2.6,0.2,4.7,0.2,4.7"/>
	<path class="st38" d="M49.2,387.6c-0.2,2.4,1,3.8,1,3.8"/>
	<path class="st39" d="M50.7,386.7c0.4,2.7-0.7,4.6-0.7,4.6"/>
	<path class="st29" d="M41.3,408.1c-0.1,1.9-2.5,1.4-3.6,1.4L38,409c0.1,0,1-0.6,1.4-0.8L41.3,408.1z"/>
	<path class="st29" d="M43.7,407.2c-0.1,2.7-2.2,2-3.1,2l0.3-0.7c0.1,0,0.9-0.9,1.2-1.2L43.7,407.2z M47.5,407.4c-0.1,4-3,3-4.2,3
		l0.3-1.1c0.2,0,1.2-1.3,1.6-1.7L47.5,407.4z"/>
	<path class="st29" d="M51.3,407.3c-0.1,4-3,3-4.2,3l0.3-1.1c0.2,0,1.2-1.3,1.6-1.7L51.3,407.3z M37.6,407.3c-0.1,4-2.5,3-3.6,3
		l0.3-1.1c0.1,0,1-1.3,1.4-1.7L37.6,407.3z"/>
	<path class="st28" d="M39.5,396.3c-0.3,1-0.9,1.8-0.8,2.5l-0.5-0.2c0.4,0.1-0.5-1.7-0.7-1.3l0.5-0.4l0.1-0.2l0.2-0.1L39.5,396.3z"
		/>
	<path class="st8" d="M58.5,385.2c0.3,0.1,0.9,0,2.1,0.5c-0.5,0.7-1.8,1.2-2.3,1"/>
	<path class="st40" d="M88.6,402.4c-0.8,0.2-1.2,0.1-1.9,0.1c-0.5-0.2-0.9-0.5-1.4-0.7"/>
	<path class="st41" d="M81.1,405.1c1.4,0.4,2.3,0.4,3.7,0.5c0.9-0.1,1.9-0.4,2.9-0.5"/>
	<path class="st14" d="M61.5,401.2c-1.5,0.5-2.2,0.5-2.7,0.1"/>
	<path class="st42" d="M63.2,399.9c-1.3,0.5-2.1,0.7-2.7,0.3"/>
	<path class="st43" d="M65.4,398.4c-0.9,0.5-1.4,0.7-1.8,0.3"/>
	<path class="st44" d="M67,397.2c-1.1,0.5-1.7,0.7-2.2,0.3"/>
	<path class="st8" d="M25,375.3c0.2,1.1-0.1,1.3-0.3,2.3s0.1,2.7,0.1,2.7 M28.2,376.7c-1,1.2-0.9,3.4-0.9,3.4"/>
	<path class="st45" d="M20.2,377.2c1.8,0.2,2.6,1.5,3,2.7c0.4,1.2,0.6,1.9,0.6,1.9"/>
</g>
<g transform="translate(-.00000225 -98.986392)">
	<g id="k_1_">
		<g>
			<path class="st3" d="M73.1,360.5c-0.4,0.7,0.7,3.6,2.4,3.5c-1.1-1.8-1-3.9-1-3.9L73.1,360.5z M68.9,357.3
				c-0.6,0.1-2.1,3.9,0.3,5.3c0.1-2.4,1.2-3.8,1.2-3.8l-1.2-1.1L68.9,357.3z"/>
			<path class="st3" d="M68.6,355.1c-0.6-0.6-3.2,1.2-3.1,4c1.6-1.8,3.5-1.7,3.5-1.7L68.6,355.1z M71.6,352.8c0-0.9-2.3-1.9-3.5-0.1
				c1.7,0.2,2.7,1.8,2.7,1.8L71.6,352.8z M117.3,360.9c0,0.8,0.2,1.1,0.5,1.5c0.4,0.4,0.8,1.8,0.8,1.8s1.2-3.5,0.9-4
				C119.3,359.7,117.4,360.9,117.3,360.9z M110.7,359.4c-0.6-0.1-1.8,2.8-0.8,4.7c0.5-2.3,1.8-3.3,1.8-3.3L110.7,359.4z
				 M107.7,358.6c-0.5-0.6-2.6,1.1-2.5,3.4c1.3-1.6,2.8-1.5,2.8-1.5L107.7,358.6z M109.3,354.9c-0.3-0.7-2.7-0.1-3.1,2.2
				c1.6-1,3-0.2,3-0.2L109.3,354.9z M31.6,353.2c0.2-0.8-1.5-3.1-3.1-2.2c1.5,1.2,1.9,3.2,1.9,3.2L31.6,353.2z M24.9,358.3
				c-0.6-0.7-3,1.4-2.9,4.5c1.5-2.1,3.3-1.9,3.3-1.9L24.9,358.3z M25.1,353.9c-0.3-1-3.1-0.9-4.1,1.9c2-0.8,3.5,0.6,3.5,0.6
				L25.1,353.9z M28,362.3c-0.2,0.8,0,1.1,0.3,1.6c0.3,0.5,0.5,2,0.5,2s1.7-3.1,1.5-3.6C30.1,361.7,28.1,362.3,28,362.3z M20.9,327
				c0-1.1-2.8-2.2-4.3,0c2.1,0.2,3.2,2.1,3.2,2.1L20.9,327z M18,331.4c-0.6-0.7-3,1.4-2.9,4.5c1.5-2.1,3.3-1.9,3.3-1.9L18,331.4z
				 M28,326.7c0.3-1-2-3.4-4.1-2c1.9,1.1,2.5,3.5,2.5,3.5L28,326.7z M31.3,330.4c0.5-0.6-0.4-3.7-2.1-3.9c1,2,0.7,4.1,0.7,4.1
				L31.3,330.4z"/>
			<path class="st4" d="M40.4,334c-1.7-2,0-5.7,1.5-4.1c-0.8-1.5,0.5-2.7,1.1-1.9c-0.3-1.2,1-2,1.6-0.9c-0.2-1.4,1.7-2.2,2.2-0.7
				c0-1.3,1.9-2.4,2.3-0.4c0.4-1.5,2.4-1.7,2.6,0.4c0.6-1.3,2.1-1.2,2.2,0.7c0.7-0.9,2.4,0.4,2.1,1.9c1.1-0.2,2.4,1.9,1.1,3.5
				c2.3-1.2,2.8,2.8,1.4,4.6c0.7,0.4,0.8,0.1,1.4,0.4c0.6,0.3,1.8,0.9,2.9,1.1c1,0,4.5-0.1,5.2-0.2c0.7-0.1,1.7-0.5,2.9-0.9
				c1.2-0.4,3-0.4,4.6-0.8c1.3-0.1,37.3,0.6,38.3,0.5c1-0.1,2.5-1.1,2.5-2.3c-0.1-1.2-1.3-2.1-2.5-2.2c-1.2-0.1-7.3-0.1-8.4,0.1
				c-1.1,0.2-2.7,0.8-3.5,1.6c-0.4,0.2-1,1.2-1.6,1.8c-0.5,0.4-1.9,0.5-1.9-0.1c0-0.4-0.1,0.1-0.5,0.2c-0.5,0.3-2.5,0.4-2.4,0
				c0.2-0.4,0-0.5-0.5-0.1c-0.4,0.3-3.2,0.5-3.7,0.1c0.3-0.5,0.3-0.5-0.5-0.1c-0.5,0.2-2.8,0.4-2.9,0c0-0.4-0.3-0.2-0.6-0.1
				c-2.5,0.7-2.8-0.1-2.4-0.4c0.4-0.3,1-2.2,0.4-2.1c-0.6,0.1-4.6,0.9-6,1.1c-1.4,0.2-11.2,0-12.5-0.1c-1.4-0.1-2.9-1.4-2.9-3.2
				c-0.1-2.9,2.2-3.7,3.7-4.1c1.4-0.4,5-1.1,6.5-1.1c1.4,0,5.5,0.5,6.6,0.1c1.1-0.4,4.5-1.7,5.5-1.8c1.4-0.1,5.5,0.3,7.4,2.7
				c-1,0.5-1.5,0.7-0.3,0.3c1-0.2,5.5-1.2,6.5-1.4c3.6-0.2,2.6,0.4,0.9,0.8c-0.6,1.9-5.9,4.5-7.5,4.8c-1.7,0.3-5.2,0.1-6-0.1
				c-0.8-0.1-4.6-0.2-5.9-1.1c-2.2-1.5-6.3-2.5-8.1-2.5c-1.7,0-6.5,0.5-6.5,2.2c0,2.9,4.5,3.1,6.4,3c1.9-0.1,6.7-0.3,8-0.9
				c1.4-0.6,4.3-0.7,5.9-0.7s3.9,0.4,4.6,0.2c0.7-0.1,2.4-0.1,3.2-0.7c0.8-0.6,2.5-1.1,4.3-1.1c1.8,0,14.8-0.5,16.5-0.4
				c2.5,0,4.3,2.8,4.4,5.1c0,1.1-0.5,2.7-1,3c0.8,0.1,2.8,0.3,3.4,0.4c1.2,0.2,3.2,1.6,3.4,2.8c-0.9-0.6-2.4-1.4-3.8-1.5
				c-0.3,0-28.6,0-30.9,0c6.1,0.7,10.7,5.4,11.9,8.1c1,1.7,3.6,1,4.5,0.8c1-0.2,2.1-1.2,2.9-2c0.8-0.8,2-1,2.6-0.8
				c1.2-0.1,1.5,1.2,1,1.9c-0.5,0.7,0.1,0.4,1.4,0.4c1.3,0,2.4,0.5,3.1,1.5c-0.7,0.7-1.1,0.1,0,0.2c1,0.1,2.3,2,1.5,2.6
				c-0.7,0.3-0.9,0.2,0,0.3c1.3,0.1,1.7,1,1.8,2.5c-1.1,0.2-0.6-0.1,0,0.4c0.6,0.6,1.4,3-0.6,3.1c-0.7-0.3-0.7-0.4-0.6,0.4
				c0.1,0.8-0.2,2.6-1.4,2.6c-1.5,0.3-2.9-0.6-3.1-1.6c-0.2-1-0.1,1.9-2.3,2.4c-2.1,0.5-3.2-0.7-3.3-1.3c-0.2-0.6-0.1-0.1-0.9-0.2
				c-0.8-0.1-1.8-0.1-2.2-1.4c0-0.8,0.2-1.8,1.6-1.9c0.6-0.1,0.8-0.9,0.3-1.1c-0.5-0.1-0.1-1.8,1-1.3c1,0.4,3.4,0.6,4,1.1
				c0.6,0.6,0.7-0.4-0.2-1.3c-0.9-0.9-6.2-2.7-7.6-2c-3.3,1.7-8.9,1.4-9.9,1.2c-1-0.2-3.7,0.4-5-3.7c-1.1-4.1-5.1-6.2-6.9-6.4
				c-9-0.9-8.5-0.2-2.7,0.1c0,0.8-0.3,2.3,0.7,2.6c1.6-0.2,4.9-0.9,5.7-0.3c0.8,0.7,1.6,1.2,1.4,2.8c-0.2,1.6,0.1,1.1-0.6,1.8
				c-0.7,0.7-0.4,2,0.7,2.4c1.1,0.4,1.6,1,2.3,1.7c0.7,0.7-0.3,2-1,1.6c-0.6-0.4-0.6-0.4-0.7,0.4c-0.1,0.9-0.9,2.6-2.2,2.7
				c-0.3-0.1-0.2-0.6-0.2-0.9c0.1-0.8-0.3,1-0.7,1.4c-0.3,0.3-2.5,1-3.2,0.6c0.3-0.7,0.1-0.4-0.4-0.1c-0.5,0.2-3.5,0.6-2.2-0.8
				c0.3-0.5-0.5,0.6-0.9,0.8c-0.4,0.2-2.1,0.4-2.1-0.3c-0.6,0.5-1.9,0.5-2.1,0.1c-0.4-0.4-0.4,0.3-1.2,0.4c-0.7,0.1-2.3-0.1-2.4-1
				c-0.1-0.9,0.2-0.3-0.7-0.2c-2.1,1.4-3.2-0.6-3.2-1.2s-0.1-1.4,0.2-1.9c0.2-0.4-1.5-0.6-1-1.5c0.6-1.1,1.2-1.9,2.4-1.7
				c0.6,0.1,0.5-0.2,0.2-0.7c-0.2-0.4,0.6-0.7,1.7-0.2c1,0.4,1.8,1.6,2.1,2.6c0.3,1,2.8,0.2,3.8,0.3c1,0.1,1.1-1.7,0.5-2.2
				c-0.6-0.6-2.4-2.6-3.1-3.2c-0.7-0.7-0.2-3,0.4-3.6c3.7-2.5,1.7-3.3,0.3-3.1c-1.4,0.2-4.8,1.6-5.9,2.8c-1.1,1.2-9.8,7.2-10.6,7.9
				c-0.8,0.7-2,0.8-2.4,0.1c-0.5-0.8-0.8-0.2-0.7,0.9c0.6,4.2-3.1,5.5-3.8,5.5c-0.5,0-1.1-0.3-1.6-0.7c-0.5,2.3-2.5,2.6-4.4,2.3
				c0-0.3,0.3-0.8,0.1-0.6c-0.6,0.8-2.5,0.7-4.1,0.6c-0.1-0.5,0.6-1.1,0.2-0.7c-0.5,1-1.5,0.8-3,0.7c0-0.2,0.7-0.9,0.4-0.5
				c-0.7,0.7-2,0.5-3.1,0.5c-0.1-0.2,0.6-1.3-0.1-0.6c-0.6,0.6-1.9,0.8-3.1,0.6c-0.2-0.5,0.3-0.6,0.4-0.9c0.3-0.6-0.2,0-0.6,0
				c-0.4,0-1,0.1-1.2-0.4c-0.2-0.6-0.1,0.6-0.3,0.9c-0.2,0.3-0.5,0.9-1.3,1.1c-0.8,0.2-2.9,0.4-3.2-0.6c-0.4-0.5-0.6-1.4-0.3-2
				s-1.5,1.1-2.3,1.2c-2.3,0.5-2.6-3.2-1.6-3.6c1-0.3,0.9-0.9,0.3-1.3c-0.6-0.4-0.9-2.2-0.2-2.8c0.7-0.6,2.4-0.9,3.4-0.2
				c0.6,0.4,1.9,1.9,1.7,0.8c-0.2-0.7,0.3-1.5,0.8-1.9c0.4-0.4,1.8-0.5,2.2,0.4c0.8,2,1.4,2.9,2.5,2.9c2.2-0.6,5.2-1.3,6.1-1.3
				c1.1-0.3,7.1-0.9,7.1-1.4c-3.6,1.2-5-0.4-5.4-0.3c-0.4,0.1-1.4-0.4-1.4-0.7c0-0.7,0.9-0.6-0.4-0.4c-0.8-0.1-1.4-0.1-2.1-0.9
				c-0.1-0.4,0.8-1.8,1.2-3c-0.8-0.2-2.6,1.3-3.2,2.6c-0.4-0.5-0.6,0-2.1,0.3c-0.7,0.3-1.8,0.2-2.5-0.1c-0.6-0.3-3.1-2.2-1.9-2.5
				c-0.3-0.2-0.7-0.2-0.9-0.3c-0.9-0.4-1.7-1.1-1.4-1.3c-0.2-0.3,0.3-0.3-0.1-0.4c-0.5-0.1-1.7-1-1.4-1.3c-0.3-0.2-1-0.5-1.3-0.7
				c-0.6-0.3-1.1-1.5-1.2-2c-0.5,0-1.6-0.9-1.1-1.2c-0.8-0.6-1.5-1.7-1-2c-0.5-0.4-0.8-1.1-0.5-0.8c-0.5-0.6-0.4-1.3,0-1.3
				c0.4,0,0.2-1.8-0.5-1.8s-1.9,0.6-2.7,0c-0.7-0.5-1.3-2.9-0.6-3.9c0.6-1,1.9-2.1,2.5-2c0.6,0.1,0.3,0.3,0.2-0.7
				c-0.2-1,0.9-1.7,1.6-2c0.8-0.4,2.5-0.1,2.9,0.3c0.5,0.4,0.6,0.4,0.6-0.3c0-0.5,0.6-0.8,1.2-1c0.9-0.2,1.6,0,1.9,0.4
				c0.5,0.7,0.8,1.6,0.2,2.2c-0.6,0.7-0.1,0.1,1-0.1c0.7-0.2,1.9,0.1,2.1,0.8c0.3,0.8,0.5,2.1-0.2,2.8c-0.7,0.7-1.8,2.3-1.2,2.9
				c0.6,0.6,2.3,3,2.7,3.3c0.4,0.3,0.9,1.1,1.5,1c0.6-0.1,1.4-0.2,1.9-0.3c2.2-0.4,3.2-0.7,0.4-0.6c0.6-0.9,2-1.2,2.6-1.3
				C38.5,335.9,40.4,334.3,40.4,334L40.4,334z"/>
			<path class="st5" d="M40.4,343.1c-1.5-0.2-5.4,3.1-4.1,7.3"/>
			
				<linearGradient id="SVGID_6_" gradientUnits="userSpaceOnUse" x1="106.2357" y1="-20.3124" x2="106.425" y2="4.8405" gradientTransform="matrix(0.4552 0 0 -0.3613 -2.5596 344.5703)">
				<stop  offset="0" style="stop-color:#4A0000"/>
				<stop  offset="1" style="stop-color:#FFCF00"/>
			</linearGradient>
			<path class="st46" d="M40.7,339.3c-2.1,13.1,10.6,8,10.7,3.6"/>
			<path class="st7" d="M50.6,344.8c0.2,1.7,0.3,6.5-1.5,7.8c-1.8,1.2-4,1.4-5.7,0.8"/>
			<path class="st8" d="M46.7,347.5c-0.2,1.7-1.9,5.9-5.2,5.3 M20.1,329.3c1.7,0.2,2.6,1.5,2.9,2.7c0.4,1.2,0.6,1.9,0.6,1.9
				 M21.6,339.1c0.7,0.3,2.1,0,2.1,0"/>
			<path class="st9" d="M22.3,340.9c1.6,0.5,3.3-0.3,3.3-0.3"/>
			
				<linearGradient id="SVGID_7_" gradientUnits="userSpaceOnUse" x1="58.889" y1="48.8518" x2="74.7083" y2="63.6831" gradientTransform="matrix(0.4017 0 0 -0.4095 0.4945 367.4681)">
				<stop  offset="0" style="stop-color:#4A0000"/>
				<stop  offset="1" style="stop-color:#FFCF00"/>
			</linearGradient>
			<path class="st47" d="M25.9,345c4.4,0,6.3-6.3,6.3-6.3"/>
			<path class="st11" d="M35,342c-1.2,3.3-1.1,3.3-2.7,3.9l-1.6,0.7"/>
			<path class="st8" d="M29.9,348.3c1.7-0.5,2.8-1.5,2.8-1.5 M28.1,328.6c-1,1.2-0.9,3.4-0.9,3.4 M48.4,328.6
				c0.2,2.2-0.7,3.4-1.4,3.4c-0.6,0-1.3,0.8-0.9,2.2 M50.9,328.3c-1.1,1.5-1.4,3.3-1,4.6c0.4,1.4,0,1.8,0,1.8"/>
			<path class="st12" d="M37.8,341c-2,0.5-2.8,4.2-1.7,6.1"/>
			<path class="st8" d="M55.9,335.8h-1.4c0,0-0.9,1.9-2.3,1.4c-1.5-0.5-0.1,0-0.1,0 M48.6,334.3c2.1,0.1,1.7,1.7,0.1,1.6
				c0.1,2.1-2.3,1.8-2.1,0.2c-1.5,0-2.1-2,0.1-1.7 M98.4,335.8c0.4-1.3,2.4-2.5,2.4-2.5 M95.5,335.8c0.9-1.6,2.4-2.5,2.4-2.5
				 M91.3,335.9c1.3-0.8,1.7-1.1,2.1-1.5c0.5-0.5,1.4-1.3,1.4-1.3"/>
			<path class="st13" d="M87.6,335.9c1-0.5,1.7-0.8,2.4-1.3c0.8-0.6,1.4-1.3,1.4-1.3"/>
			<path class="st8" d="M88.4,331.7c-3.1-1-4.4-3.1-4.4-3.1 M93.5,327.2c-2,0.9-6.2,0.5-6.3,0.5 M56.8,354.2
				c0.6-2.2,1.7-2.7,3.2-3.4c1.5-0.6,3.7-2.4,2.3-1.1c-1.4,1.3-3.4,2.2-4.1,2.7c-0.7,0.5-1.1,1.6-0.8,2.1"/>
			<path class="st14" d="M53.9,346c1.3,2.2,0.5,5.2-1.1,6"/>
			<path class="st8" d="M58.2,338.5c2.1,0.9,2.2,3,2.5,4.2c-0.7-0.3-1.3-0.2-1.8-0.4"/>
			<path class="st15" d="M57.4,339.7c1.4,2,2,3.2,2.1,3.9c0.1,1.2,0.1,4.1-3.2,4.1c0.3-0.9,0.7-3.2,0.2-4.1"/>
			<path class="st8" d="M56.6,345.6c0,1.9-1.3,2.7-1.9,3 M51.5,337c0.1,2.3-4.1,4-4,0.5"/>
			<path class="st16" d="M47.5,337.6c-0.1,1.7-2.4,2.1-3.2,0.6c-0.6-1-1-1.4-1.4-1.6c-0.4-0.1-0.4-1.5-0.5-1.7
				c-0.1-0.3-0.3-1-0.5-1.3"/>
			
				<linearGradient id="SVGID_8_" gradientUnits="userSpaceOnUse" x1="124.1796" y1="113.9545" x2="123.1748" y2="106.2407" gradientTransform="matrix(0.338 0 0 -0.4867 4.1255 397.5558)">
				<stop  offset="0" style="stop-color:#000000"/>
				<stop  offset="1" style="stop-color:#2B5DF2"/>
			</linearGradient>
			<path class="st48" d="M44.1,338.1c1.1,1.9,3.6,0.7,4.3,1.5c0.7,0.7-0.6,3.3-1,4.8c-0.9,1.3-3,1.2-3.8,0.2
				c0.4-1.8,0.5-5.6,0.5-5.7L44.1,338.1z"/>
			<path class="st8" d="M25.1,327.2c0.2,1.1-0.1,1.3-0.3,2.3c-0.3,1,0.1,2.7,0.1,2.7 M24.6,357.5c0.9-0.2,2.7,0,2.7,0 M27.9,360.4
				c0.5-1,1.7-1.8,1.7-1.8 M37.6,361.6c0.4-0.6,0.4-2.5,0.4-2.5 M40.7,361.6c0.7-0.8,0.7-2.5,0.7-2.5 M43.3,361.6
				c0.7-1.3,0.6-2.9,0.6-2.9 M47.2,361.7c0.4-0.7,0.4-2.4,0.4-2.4 M75.3,357.9c-1.6-0.4-2.5,1.8-2.5,1.8 M77.3,357.5
				c-0.2,1.6-1.4,3-1.4,3 M79.8,357.4c-0.1,1.3-1.5,3.1-1.5,3.1 M82.8,356.9c-0.2,1.8-1.5,3.1-1.5,3.1 M85.1,356.3
				c0.1,1.6-0.7,4-1.2,4.5 M87.8,356.9c0.3,0.8,0,2.1,0,2.1 M70.8,353.6c1,0.2,1.6,1.4,1.6,1.4 M69.1,356.7c0.5-1.9,2.9-1,3.2-0.5
				 M113.5,347.9c-0.9-0.1-2.2,0.4-2.2,0.4 M117.6,349.6c-1.2,0.5-2.6,0.6-2.6,0.6 M119.1,352.4c-1-0.1-1.8-0.1-1.8-0.1 M121.1,355
				c-1-0.1-2.7,0-2.7,0 M120.3,358.4c-0.3-1-1.4-1.2-1.4-1.2 M110.1,360.6c0.3-1.4,2-2.6,2.9-2.6h1 M108.7,357.4
				c1-0.4,2.7-0.5,2.7-0.5 M41.3,351.7c1-0.8,1.9-2.6,1.9-2.6 M54,330.6c-1,1.1-1.1,1.2-1.1,1.2 M55,332.7c-1.4,0.1-1.5,0.1-1.5,0.1
				"/>
			<path class="st18" d="M50.1,331.9c1-0.4,3.4-0.1,3.4,0.8c0,1.1-0.9,1.1-3.4,0.1l0-0.8V331.9z"/>
			<path class="st19" d="M46.8,332c0.1-1.3-2.4-2.5-3-1.8c-0.7,1.2,1.4,2.2,1.9,2.2c0.5,0,0.2,0.1,0.2,0.1"/>
			<path class="st20" d="M54.2,341.6c0.8,1.5,1,4.1,0.1,5.4"/>
			<path class="st8" d="M53.6,336.8c-0.9,2.6-0.2,5-0.2,5 M42.4,337.4c-0.8,0.7-1.4,0.4-1.4,0.4"/>
			<path class="st20" d="M51.4,345.1c0.8,0.4,1.9,3.1,1.7,3.9l-0.2,0.9 M51.1,346.2c0.5,1.3,1.1,3.3,0.9,3.9l-0.2,0.7 M48.3,347.5
				c0.3,1.3,0.2,3.5-0.3,3.9l-0.5,0.4 M47.5,347.7c-0.5,1.5-0.9,3.7-0.9,3.7"/>
			<path class="st21" d="M40.6,338.3c-0.9,1.3-2.2,2.6-2.2,2.6"/>
			<path class="st22" d="M39.9,343.6c-0.8,0.7-1.9,2.2-1.9,2.2 M40.9,345.7c-1.3-0.9-2.7,0.7-2.7,0.7"/>
			<path class="st23" d="M33.1,348.1c-0.3,0.9-2.7,1.5-2.7,1.5"/>
			<path class="st24" d="M52.4,332.2l-0.2,1"/>
			<path class="st25" d="M45.9,330.4c-0.2,0.7-0.5,1.5-0.5,1.5"/>
		</g>
		<path class="st8" d="M38.5,338.1c-2.9,1.5-3.4,2.9-2.9,6.1"/>
		<path class="st26" d="M58.2,333.7c-0.8,0.4-0.7,2.4-0.7,2.4"/>
		<path class="st27" d="M40.6,330.9c0.9,0.6,0.5,2.5,0.5,2.5"/>
		<path class="st28" d="M34.7,361.3c-0.1,1.9-1.8,1.4-2.6,1.4l0.6-1.2c0.1,0,0.3,0.1,0.6-0.1L34.7,361.3z"/>
		<path class="st29" d="M50.2,345.1c0.2,0.9,0.2,1.5,0.1,2.5c-0.2,1.6-0.3,1.6-0.9,2.9c-0.2,0.4-0.1,0-0.7,1.2l-2.1-1.4
			c0.1,0.5,0-0.3,0.1-0.5c0.3-0.6,0.3-0.7,0.4-1.5c0-0.7,0.6-1.9,0.9-0.7L50.2,345.1z M42.8,351c0.5,0.1,1.6-0.3,2.1-0.4
			c0.8-0.3,0.1-0.4,0.7-1c0.2-0.2,0.4-1,0.5-1.2l-0.9-0.1c-0.1,0.8-0.8,0.1-0.9,0.2c-0.3,0.3-0.3,0.1-0.7,0.2
			c-0.4,0.1-0.8-0.1-0.2,0.2L42.8,351z M88.6,346.3c-0.3,1.5-0.6,2.3-1.3,3.5c-1.2,1.8-2.3,2.7-3.9,3.5c-0.5,0.1-1,0.2-1.5,0.3
			l-0.2-5.1c0.2,0,0.4,0,0.7-0.1c0.8-0.4,1.3-0.8,1.9-1.7c0.5-0.9,0.7-2.2,0.4-0.2L88.6,346.3z"/>
		
			<linearGradient id="SVGID_9_" gradientUnits="userSpaceOnUse" x1="62.7377" y1="51.7406" x2="76.7078" y2="64.8393" gradientTransform="matrix(0.3957 0 0 -0.4157 0.8353 370.4054)">
			<stop  offset="0" style="stop-color:#4A0000"/>
			<stop  offset="1" style="stop-color:#FFCF00"/>
		</linearGradient>
		<path class="st49" d="M27.6,346.5c3.4-0.8,5.3-5.4,5.3-5.4"/>
		
			<linearGradient id="SVGID_10_" gradientUnits="userSpaceOnUse" x1="51.6158" y1="-56.3138" x2="64.2407" y2="-44.4763" gradientTransform="matrix(0.4896 0 0 -0.336 -4.5162 325.9599)">
			<stop  offset="0" style="stop-color:#4A0000"/>
			<stop  offset="1" style="stop-color:#FFCF00"/>
		</linearGradient>
		<path class="st50" d="M23.7,342.4c3.4,0.2,6-3.7,6-3.7"/>
		<path class="st32" d="M106,352.5c0.1-0.2,0.1-0.3,0.2-0.5c-0.4,1-0.3,0.6,1-0.5h2.5c1.1,0,1.6,0.2,2.5,0.5
			c0.6,0.3,1.1,0.8,1.7,1.2"/>
		<path class="st29" d="M39.7,348.9c-0.1,0.5,1.2,1.2,2,1.3c0.8-0.5,0.8-0.7,1.4-1.6c0.1-0.3,0-0.1,0.1-0.4l-1.7-1.7
			c-0.2,0.1-0.4,0.3-0.4,0.4c-0.3,0.4-0.3,0.7-0.7,0.9c-0.4,0.2-0.4,0.1-0.1,0.2l-0.3,0.5L39.7,348.9z M55,348.8
			c0.5-0.5,0.7-1,1-1.8c0.4-1.4,0.4-2.5,0.4-4c-0.1-0.4-0.1-0.9-0.2-1.3l-1.9,0.9c0,0.2,0.1,0.4,0.1,0.6c0.1,0.7,0,1.2-0.2,1.9
			c-0.2,0.6-0.6,1,0,0.4L55,348.8z"/>
		<path class="st33" d="M56.3,339.9c0.6,0.1,1,0.3,1.5,0.8c0.8,0.9,1.3,1.8,1.8,3.1c0.1,0.4,0.2,0.9,0.3,1.3l-2,0.8
			c0-0.2-0.1-0.4-0.1-0.6c-0.2-0.7-0.5-1.1-0.9-1.5c-0.4-0.3-0.9-0.4-0.1-0.4L56.3,339.9z"/>
		<path class="st29" d="M53.3,351.4c0.5-0.9,1-0.4,1.1-1.4c0.1-1.8-0.1-3.1-0.7-4.8c-0.2-0.5-0.5-0.9-0.7-1.4l-2.4,1.9
			c0.1,0.2,0.2,0.4,0.3,0.6c0.3,0.8,0.4,1.4,0.3,2.3c-0.1,0.8,0,1,0.6,1.3L53.3,351.4z"/>
		<path class="st32" d="M118,355.7c1.1,0,1.6,0.2,2.5,0.5c0.6,0.3,1.1,0.8,1.7,1.2 M113,348.9c1-0.3,1.6-0.2,2.6-0.2
			c0.6,0.2,1.2,0.5,1.8,0.7"/>
		<path class="st34" d="M96.6,351.8c-0.7,0-1-0.2-1.7-0.3c-0.4-0.3-0.7-0.7-1.1-1"/>
		<path class="st35" d="M103.2,339c-3.4-0.1-5.9-0.2-8.2-0.2c-2.2-0.1-5.8-0.2-8.2-0.2"/>
		<path class="st34" d="M75.9,341.8c0.6-0.4,1-0.4,1.6-0.6c0.4,0,0.9,0.2,1.3,0.3"/>
		<path class="st29" d="M23.5,337.2c-0.3,0.6-0.5,0.9-0.8,1.2c-0.6,0.5-0.9,0.4-1.4,0.4c-0.2-0.1-0.2-1.4-0.3-1.5l0.3-0.9
			c0.1,0.1,0.1,0.1,0.2,0.1c0.3,0,0.5,0,0.8-0.3c0.3-0.3,0.5-0.8,0.1,0L23.5,337.2z"/>
		<path class="st36" d="M44,337.5c-0.1,2.4-1.4,3.7-1.4,3.7"/>
		<path class="st37" d="M42.7,336.4c-0.7,2.6,0.2,4.7,0.2,4.7"/>
		<path class="st38" d="M49.2,339.5c-0.2,2.4,1,3.8,1,3.8"/>
		<path class="st39" d="M50.7,338.6c0.4,2.7-0.7,4.6-0.7,4.6"/>
		<path class="st29" d="M41.3,360c-0.1,1.9-2.5,1.4-3.6,1.4l0.3-0.5c0.1,0,1-0.6,1.4-0.8L41.3,360z"/>
		<path class="st29" d="M43.7,359.1c-0.1,2.7-2.2,2-3.1,2l0.3-0.7c0.1,0,0.9-0.9,1.2-1.2L43.7,359.1z M47.5,359.3c-0.1,4-3,3-4.2,3
			l0.3-1.1c0.2,0,1.2-1.3,1.6-1.7L47.5,359.3z"/>
		<path class="st29" d="M51.3,359.2c-0.1,4-3,3-4.2,3l0.3-1.1c0.2,0,1.2-1.3,1.6-1.7L51.3,359.2z M37.6,359.2c-0.1,4-2.5,3-3.6,3
			l0.3-1.1c0.1,0,1-1.3,1.4-1.7L37.6,359.2z"/>
		<path class="st28" d="M39.5,348.2c-0.3,1-0.9,1.8-0.8,2.5l-0.5-0.2c0.4,0.1-0.5-1.7-0.7-1.3l0.5-0.4l0.1-0.2l0.2-0.1L39.5,348.2z"
			/>
		<path class="st8" d="M58.5,337.1c0.3,0.1,0.9,0,2.1,0.5c-0.5,0.7-1.8,1.2-2.3,1"/>
		<path class="st40" d="M88.6,354.3c-0.8,0.2-1.2,0.1-1.9,0.1c-0.5-0.2-0.9-0.5-1.4-0.7"/>
		<path class="st41" d="M81.1,357c1.4,0.4,2.3,0.4,3.7,0.5c0.9-0.1,1.9-0.4,2.9-0.5"/>
		<path class="st14" d="M61.5,353.1c-1.5,0.5-2.2,0.5-2.7,0.1"/>
		<path class="st42" d="M63.2,351.8c-1.3,0.5-2.1,0.7-2.7,0.3"/>
		<path class="st43" d="M65.4,350.3c-0.9,0.5-1.4,0.7-1.8,0.3"/>
		<path class="st44" d="M67,349.1c-1.1,0.5-1.7,0.7-2.2,0.3"/>
		<path class="st8" d="M25,327.2c0.2,1.1-0.1,1.3-0.3,2.3c-0.3,1,0.1,2.7,0.1,2.7 M28.2,328.6c-1,1.2-0.9,3.4-0.9,3.4"/>
		<path class="st45" d="M20.2,329.1c1.8,0.2,2.6,1.5,3,2.7c0.4,1.2,0.6,1.9,0.6,1.9"/>
	</g>
</g>
<path d="M135.9,256.2c-0.3,0.4-0.7,1.2-0.8,1.7c-0.1,0.5-0.4,1.5-0.7,2.1c-0.7,1.5-0.7,2.8,0.1,3.9c0.9,1.4,2.4,1.4,3.2,0
	c0.7-1.3,0.5-3.1-0.4-4.5c-0.8-1.2-0.9-2.3-0.4-3.5C137.2,255.1,136.6,255.3,135.9,256.2L135.9,256.2z M139.1,264.5
	c-0.5,0.2-1,0.6-1.2,0.8c-1.5,1.9,1.8,4,4.2,2.7c2.6-1.4,2.7-1.4,3.9-1c1,0.3,1.1,0.3,0.9-0.1c-0.4-0.8-1.1-1.2-3.6-2
	C140.4,264,140.3,264,139.1,264.5L139.1,264.5z"/>
<path class="st51" d="M140.2,85.8h370.5V426H140.2V85.8z"/>
<path class="st52" d="M337.4,113.8c-1.1,1.1-1.4,2.1-1.2,3.5c0.3,2,0.3,2-2.5,1.5c-5.3-0.9-15.3-0.4-21.5,1.1
	c-8.4,2.1-12.4,2-22.1-1c-1.1-0.4-1.1,0,0.7,3.2c2.1,3.9,3.1,4.7,8,6.4l3.2,1.1l-5.7,1.5c-3.1,0.8-6.2,1.6-6.8,1.6
	c-2.3,0-1.2,1.3,2.1,2.4c4.8,1.6,9.8,1.4,20.2-1.1c7.3-1.7,10.4-2.1,15-1.9c3.2,0.1,6,0.5,6.3,0.8c0.4,0.3-1.3,2.3-3.6,4.4
	c-3.4,3.1-4.7,3.8-6.7,3.9c-1.4,0-3.6,0.2-4.8,0.4c-2.1,0.4-2.2,0.6-2.2,4.5v4.1l-16.3,15.4c-9,8.5-17.4,15.9-18.7,16.7
	c-1.3,0.8-2.5,1.9-2.9,2.5c-0.8,1.4,0.1,3.9,1.6,4.5c0.9,0.4,0.4,1.6-2.8,5.9c-4.6,6.3-8.1,13.1-10.8,20.7l-2,5.3l-1.1-3.9
	c-1.8-6.2-3.2-15.2-3.2-21.1c0-5.4,0-5.4,3.7-10.6c4.4-6.3,14.8-17.2,20.6-21.6c2.3-1.8,6.3-4.2,8.8-5.4c5.6-2.6,7-3.8,7-5.8
	c0-2.3-1.7-3.5-4.4-2.9c-1.5,0.3-7.8-0.7-18.5-2.9c-8.8-1.8-16.2-3.3-16.3-3.3c0-0.1,0.7-3.1,1.7-6.8c1.1-4.3,2.3-7.3,3.4-8.5
	c2.1-2.3,2.2-4.9,0.1-6.8c-3.5-3.3-8.8-0.4-8,4.4l0.4,2.4l-4.6,0.5c-2.5,0.3-8.6,1.6-13.3,2.9c-9.7,2.7-17.3,3.1-22.3,1.3
	c-1.5-0.6-2.9-1.1-2.9-1.1c-0.1,0-0.2,0.8-0.2,1.8c0,3,1.9,5.7,5,7.3l2.9,1.5l-2,0.5c-1.1,0.3-4.2,0.3-7.1,0.1
	c-2.9-0.2-5.2-0.2-5.2,0c0,1.5,3.4,5.4,5.7,6.6c4.9,2.5,15.2,1.6,26.5-2.4c5.7-2,13.1-2.5,12.6-1c-0.3,0.8-10.2,8.3-27.2,20.5
	c-8.6,6.1-9.9,7.8-8.6,10.8c0.7,1.6,0.5,2.3-1.6,5.8c-4.6,7.8-8.8,21.1-8.8,27.8c0,3.4-0.2,3.7-4.8,8.6c-9.5,10-28,33.3-32,40.3
	l-1.3,2.2l-1.3-1.7c-2.7-3.4-8.3-1.5-8.3,2.8c0,3,1.8,4.7,5.1,4.7c1.8,0,5.5,1.4,11.8,4.7l9.2,4.6l-1.8,1.9c-3.4,3.7-4.1,6.6-2.3,9
	c0.8,1.1,1.9,1.3,5.8,1.3c4.2,0,5.6,0.4,10.5,2.7c4.8,2.4,6.6,3.9,13.6,11.2c21.7,22.8,27,27.5,40,35.5c7.5,4.7,21.2,11.4,27.9,13.9
	c21.9,7.9,46.1,9.4,68.9,4.2c10.5-2.4,18.3-5.1,28.4-10.2c5.6-2.9,8.4-3.9,8.5-3.3c0.2,0.5,0.8,2.5,1.5,4.5
	c1.2,3.9,4.7,9.8,6.2,10.4c0.5,0.1,11.7-1.4,25.1-3.5c13.3-2,24.4-3.7,24.7-3.8c1.3-0.1,2.9-7.8,2.9-13.7c0-6.1-0.1-6.6-3.1-12.3
	c-3.8-7.3-9.6-13.4-15.1-15.9l-3.9-1.8l1.7-2.2c7.8-10.4,17-25.2,20.6-33.2l2-5.3l3.7-0.1c2,0,3.8-0.3,4-0.6
	c0.2-0.3-0.1-2.5-0.6-5.7c-0.6-3.2-1.1-6-1.1-6.1c0-0.1,1.3-0.1,2.8-0.1h2.8v-16l12.1-23.2c6.6-12.8,12.8-24,13.7-24.8
	c2.2-2.2,1.9-5.5-0.7-7.4c-1.6-1.2-2.2-1.3-3.9-0.6c-2.2,0.9-3.9,3.7-3.2,5.2c0.2,0.6-0.4,2.1-1.1,3.5c-1.3,2.2-1.8,2.5-3.4,2.2
	c-1.1-0.2-9.1-1.6-17.8-3l-15.9-2.7l-7.8,14.1c-4.3,7.8-7.7,14.2-7.7,14.3c0.1,0.1,8.3,0.7,18.1,1.3c9.8,0.6,18,1.3,18.2,1.5
	c0.1,0.1-2.2,4.5-5.3,9.8l-5.5,9.5h-16.2c-14,0-16.2,0.1-16.9,1.1c-0.7,1-1.1-0.1-2.4-6.1c-2.2-10.2-4.3-23.7-4.3-27.2
	c0-3.5,3.1-10.6,8.7-20.2c8.4-14.2,20.3-28.1,25.1-29c4.1-0.8,7-3,7-5.3c0-2.4-1.1-3.5-3.9-3.9c-1.9-0.2-26.7-10-27.8-11
	c-0.7-0.6,2.8-12.7,4.1-14.2c3.7-4.2-3.4-10.3-7.4-6.3c-1.5,1.6-1.8,4.9-0.5,6.3c0.9,1.1,0,0.9-3.7,0.3c-7.1-0.8-13.8-0.5-20.2,1.1
	c-7,1.8-12.5,1.9-18.7,0.1c-2.7-0.7-4.7-1-4.7-0.6c0,1.6,3,6,5.1,7.4c1.3,0.8,3.5,1.8,5.1,2.1l2.7,0.6l-4.2,1.2
	c-2.2,0.6-5.5,1.6-7.3,2l-3.2,0.8l2.8,1.3c4.2,1.9,11.6,1.7,20.6-0.6c5.1-1.3,9.6-1.8,14-1.9c5.5-0.1,8.2,0.4,7.2,1.2
	c-9.4,7.5-41.8,32.1-45.4,34.5c-5.6,3.8-6.5,4.9-6.5,8.2c0,1.8,0.4,2.4,2,3l2,0.7l-2.5,3.9c-1.4,2.1-3.6,6.3-4.9,9.2l-2.5,5.4
	l-1.3-2.5c-1.2-2.5-2.4-7.1-3.1-12.4c-0.4-2.5,0-3.6,2.9-8.7c4.1-7.3,10.8-16.3,14.6-19.8c1.6-1.5,3.2-3.1,3.4-3.5
	c0.6-1-1.5-3.5-2.9-3.5c-1.1,0-26.2-17.5-26.2-18.2c0-2,3.8-12.1,4.9-13.2c0.8-0.7,1.4-2.2,1.4-3.3
	C345.8,112.8,340.4,110.6,337.4,113.8L337.4,113.8z M351.7,145.4c5.2,3.7,9.5,6.8,9.6,7c0,0.5-18.4,7.1-18.8,6.8
	c-0.1-0.1,0.8-2.5,2.2-5.3c1.4-2.7,2.5-5.4,2.5-6c0-1.1-6.6-4.2-8.7-4.7c-1.7-0.3-2-1.2-1.1-4.2l0.8-2.8l2,1.3
	C341.4,138.1,346.5,141.7,351.7,145.4L351.7,145.4z M440,148.2c0,0.4-28.2,9.2-28.6,9c-0.1-0.1,3.9-14.6,5.1-17.9
	c0.2-0.6,4.1,0.8,11.9,3.9C434.7,145.7,440,148,440,148.2z M330.8,140.4c-0.2,0.4-0.8,0.8-1.2,0.8c-0.4,0-0.4-0.4,0.1-1.1
	C330.7,138.9,331.5,139.2,330.8,140.4L330.8,140.4z M406.1,150.1c-1.5,5-3.1,9.3-3.4,9.6c-0.4,0.5-10.1,3.7-26,8.5
	c-5.2,1.6-6.4,1.9-4.2,0.5c1-0.8,9.3-7.3,18.6-14.4c9.3-7.1,17.5-13.5,17.7-13.5C409.1,140.7,407.6,145.2,406.1,150.1z M272.8,148.6
	c14.7,3,15,3.1,12.3,3.9c-1.1,0.4-8.2,2.3-15.7,4.4l-13.6,3.8l0.5-1.9c1.5-6.5,3.4-12.8,3.7-12.8C260.3,146.1,266,147.2,272.8,148.6
	L272.8,148.6z M251.4,151.9c-0.1,0.5-0.9,3.2-1.8,5.9l-1.4,5.1l-5.5,1.5c-2.9,0.8-7.6,2.1-10.3,2.9c-2.7,0.7-4.6,1.2-4.5,1
	c0.6-0.5,23.3-17.2,23.5-17.2C251.6,151,251.6,151.5,251.4,151.9z M317.7,155.1c0.8-0.2,1.5-0.2,1.5-0.1c0,1.1-13,17.6-14.3,18.1
	c-0.8,0.4-5,1.8-9.1,3.4l-7.7,2.7l5.8-5.5c3.2-3,9.3-8.7,13.6-12.7c5.1-4.8,7.9-7,8.2-6.4C316,155.1,316.8,155.3,317.7,155.1
	L317.7,155.1z M324,160.8l-2.1,6.3l-5.3,1.8c-2.9,1-5.4,1.8-5.5,1.6c-0.1-0.1,2.5-3.7,5.7-8.1c4.7-6.3,6.2-7.9,7.6-7.9h1.8
	L324,160.8z M339.7,158.7l2,1.3l-6,2.1c-3.3,1.2-5.9,1.8-5.8,1.3c0.1-0.4,0.8-2.5,1.5-4.4l1.2-3.7l2.6,1.1
	C336.6,157,338.6,158,339.7,158.7L339.7,158.7z M349,201.6l1.8,3.7l-1.8,5.8c-2.1,7.2-3.6,14.3-4.7,23c-0.7,5.6-1.3,7.3-3.7,11.2
	c-1.5,2.5-3.1,5.5-3.4,6.6c-1.9,4.3-2.1,1.2-2.4-8.6c-0.5-10.6,0.4-21.3,2.6-31.4c1.5-6.7,5-17.6,6.8-21.1l1.1-2.1l0.9,4.5
	C346.8,195.8,348,199.5,349,201.6L349,201.6z M257.3,201.6c0.1,4.1,1.8,12.2,3.9,18.5c1.4,4.2,1.6,5.6,1.1,8
	c-0.4,1.6-1,6.3-1.4,10.5c-1.3,13.5,0.8,26.3,6.6,38.2c1.8,3.5,3.3,7.1,3.6,8l0.5,1.7l-2-1.5c-5.8-4.2-11.9-12.3-15.3-20.4
	c-2.1-5-2.2-5.8-0.8-5.8c0.9,0,1.1-1.5,1.1-8.8v-8.8h-2.1c-1.8,0-2.2-0.4-2.9-3c-0.6-1.8-0.9-6.8-0.9-12.5c0-10.4,1-14.8,5.5-24.9
	C256.7,194.2,257.4,194.6,257.3,201.6L257.3,201.6z M407.6,214.6c0.9,6.5,3.7,20.4,5.2,26.4c0.9,3.6,0.9,4.2-0.4,7.9
	c-0.8,2.2-1.2,4.4-1.1,4.8c0.2,0.5-1.2,2.5-3,4.6c-3.3,3.7-3.4,3.7-4.2,2.2c-3.4-6.4-4.6-22.7-2.5-33.8c0.9-4.9,4.5-17.8,4.9-17.8
	C406.7,208.8,407.2,211.4,407.6,214.6L407.6,214.6z M207.9,227.6l1,4.3l-5.8,21.4l-5.9,21.4l-2.2-0.2c-2.9-0.4-23.9-10-23.9-11.1
	c0-2.7,20-28.5,31.3-40.5l4.2-4.4l0.2,2.3C206.8,222.2,207.4,225.3,207.9,227.6L207.9,227.6z M230,226.9c0,0.4-0.9,3.6-2,7.3l-2,6.7
	l-4.8,0.2c-2.7,0.1-5.1-0.1-5.5-0.5c-1-1,0.1-6.1,1.8-8.7c1.8-2.7,6.9-5.5,10.1-5.5C228.9,226.5,230,226.7,230,226.9L230,226.9z
	 M245.1,236.9c1.3,1.8,2.4,3.5,2.4,3.7c0,0.4-2.9,0.6-6.4,0.6h-6.4l0.4-2c0.3-1.1,1-3.6,1.5-5.6l1.1-3.7l2.5,1.9
	C241.6,232.9,243.8,235.2,245.1,236.9L245.1,236.9z M212.3,240.8c1.3,3,1.5,5.1,1.5,10.9v7.2h4.6l0.1,6.2c0.1,3.4,0.8,8.7,1.5,11.7
	c1.4,6,1.1,8.9-1.1,8.9c-0.6,0-4.4-1.9-8.3-4.2c-3.9-2.3-8-4.5-9.2-4.9l-2.1-0.8l5.3-19.3c2.9-10.6,5.2-20.1,5.4-20.1
	C210.3,236.3,211.4,238.7,212.3,240.8L212.3,240.8z M345.6,264.7c1.6,8.2,4.6,15.9,9.1,23.9c2.2,3.8,3.9,7,3.7,7.2
	c-0.7,0.6-7.9,1.8-8.5,1.4c-1-0.6-4.9-9.2-7.6-16.5c-3-8.2-5.8-19.7-5.3-21.8c0.2-1,1.8-4.5,3.4-7.8l2.9-6l0.6,6.9
	C344.2,255.8,344.9,261.5,345.6,264.7L345.6,264.7z M398.2,262.4c2.7,1.4,3.5,2.1,3.4,3.3c-0.1,1.3,0.2,1.6,2.1,1.8
	c3.7,0.4,3.1,2-2.7,7.1c-3,2.6-5.8,4.7-6.2,4.7c-1.6,0-8.5-8.4-10.7-13l-2.3-4.9l1.9-0.5C387.6,259.9,394.5,260.6,398.2,262.4
	L398.2,262.4z M388.7,277l4.1,4.1l-1.8,1.3c-2.5,1.7-18.6,9.7-19,9.4c-0.1-0.1,1.6-6.5,3.8-14.1l4.1-13.9l2.4,4.6
	C383.6,270.9,386.4,274.7,388.7,277L388.7,277z M364.8,281.6c-2,6.3-3.9,11.8-4.2,12.1c-0.9,0.9-1.6-4.2-1.1-7.9
	c0.8-5.7,2.5-9.8,5.5-13.2c1.5-1.8,3.7-4.2,3.9-4C369,268.8,366.8,275.2,364.8,281.6L364.8,281.6z M287.4,271
	c-0.2,0.5-1.7,5-3.4,10.1c-1.6,5-3.2,9.4-3.5,9.7c-0.3,0.4-1.8,0-3.3-0.8c-2.3-1.2-2.9-1.9-3.7-5c-0.8-3.5-0.8-3.7,0.9-6.8
	c2.2-3.8,5.5-6.4,9.3-7.3C287.6,270,287.8,270,287.4,271L287.4,271z M299.3,272c1.3,0.4,1.8,1.4,2.7,6.2c0.8,3.7,2.6,8.3,5,13
	l3.7,7.3l-3.7-0.4c-2-0.2-6.9-1.1-10.7-1.9l-7.2-1.5l1.7-5.4c0.9-3,2.5-8.1,3.6-11.6C296.2,271.6,296.5,271.2,299.3,272L299.3,272z
	 M314.8,277.9l7.3,3.5l-3.2,3.7c-1.8,2-3.8,5.1-4.4,6.9c-0.6,1.8-1.3,3.5-1.6,3.7c-1.3,1.4-9.1-16.9-9.1-21.2
	C303.7,273,306.3,273.9,314.8,277.9L314.8,277.9z M329.6,285.7c7.7,4.7,18,12.5,16.6,12.7c-0.4,0-4.4,0.3-8.8,0.6
	c-4.4,0.3-11.3,0.4-15.2,0.2l-7.2-0.4l0.4-2.2c0.6-3.4,2.8-7.3,6-10.7c1.5-1.7,2.9-3.1,3.1-3.1C324.7,282.8,327,284.1,329.6,285.7
	L329.6,285.7z"/>
<path d="M337.3,113.6c-1,1.1-1.4,2.3-1.2,3.6l0.3,1.9l-3.6-0.5c-6.1-0.9-14.3-0.3-20.2,1.4c-6.9,1.8-12,1.9-18.2,0.1
	c-2.6-0.7-4.8-1.4-4.8-1.1c0,1.2,2,4.9,3.8,6.5c0.9,0.9,3.2,2.2,5.1,2.9l3.4,1.3l-4.2,1.2c-2.2,0.6-5.2,1.3-6.5,1.6
	c-4.2,0.1-3.6,1.1,0.6,2.6c5.1,1.6,8.6,1.4,19.7-1.1c7.6-1.7,11-2.1,15.3-1.9c3,0.1,5.8,0.5,6.1,0.8c0.3,0.3-1.3,2.3-3.7,4.4
	c-3.1,2.8-4.8,3.8-6.3,3.8c-1.1,0-3.3,0.2-4.7,0.4l-2.4,0.7l-0.3,3.8v4.1l-16,15.1c-8.8,8.3-17.3,16-19,17c-2.4,1.6-2.9,2.3-2.9,4
	c0,1.3,0.5,2.3,1.4,2.8c1.3,0.7,1.1,1.1-2.6,6.2c-4.6,6.5-6.6,10.3-10.1,19.2l-2.6,6.7l-1.5-4.9c-2-6.7-2.9-12.9-2.9-20
	c0-5.9,0-5.9,3.1-10.2c9.4-13.1,22.8-24.5,31.5-28.3c3.7-1.3,5.5-2.9,5.5-4.9c0-2-2.2-3.3-4.5-2.7c-1.3,0.3-33.9-5.6-34.6-6.3
	c-0.1-0.1,0.6-3.2,1.6-6.8c1.1-4.2,2.5-7.3,3.5-8.5c2.1-2.3,2.2-4.9,0.1-6.8c-3.5-3.3-8.8-0.3-7.9,4.5l0.4,2.2l-5.8,0.8
	c-3.2,0.4-9.1,1.8-13.1,3c-9,2.1-16.9,3-21.3,1.1c-3.4-1.5-3.2-1.6-3.2,0.8c0,2.7,2.4,5.6,5.9,7.2l2.1,1.3l-1.2,0.5
	c-1.1,0.2-4.4,0.3-7.5,0.1c-3-0.2-5.5-0.1-5.5,0.2c0,1.3,4.6,5.8,6.8,6.7c4.7,2,15.2,0.7,26.5-3.2c4.7-1.7,11.9-2,11.5-0.6
	c-0.2,0.5-7.6,6.2-16.4,12.6c-8.8,6.5-16.9,12.5-18,13.5c-2.2,2-2.5,4.2-1,5.6c0.1,1,0.4,1.3-0.4,2.8c-4.6,6.5-10.4,23.7-10.4,30.7
	c0,3-0.4,3.5-6.2,9.9c-11.7,12.9-25.8,30.7-29.9,37.6l-1.9,3.2l-1.7-1.7c-2-2-4.8-2.2-6.7-0.3c-3.1,3.1-0.7,7.8,3.9,7.8
	c1.6,0,5.5,1.6,11.7,4.6l9.1,4.7l-2.1,2.5c-5.1,5.7-2.8,11,4.1,9.8c6.3-1.1,15.9,4.8,25.8,15.7c15.7,17.3,24.4,25,37.1,32.8
	c3.5,2.2,6.7,4.2,7,4.5c1.5,1.2,17.1,8.5,22,10.3c21.9,7.9,46.1,9.4,68.9,4.2c10.5-2.4,18.3-5.1,28.4-10.2c5.6-2.9,8.4-3.9,8.5-3.3
	c0.2,0.5,0.8,2.5,1.5,4.5c1.2,3.9,4.7,9.8,6.2,10.4c0.5,0.1,11.7-1.4,25.1-3.5c13.3-2,24.4-3.7,24.7-3.8c1.3-0.1,2.9-7.8,2.9-13.7
	c0-6.1-0.1-6.6-3.1-12.3c-3.8-7.3-9.3-13.2-15-15.9c-3.7-1.8-3.9-2-3.2-3.2c0.5-0.7,2.9-4.1,5.4-7.5c5.3-7.5,13.4-20.9,16.2-27.3
	l2.1-4.7h3.9c3.7,0,3.9-0.1,3.5-1.6c-0.5-2.3-1.8-9.8-1.8-10.5c0-0.3,1.3-0.6,2.9-0.6h2.9l-0.4-7.5l0.1-8.2l11.8-23
	c6.8-13,13.1-24.5,14-25.5c2.9-3,1.8-6.7-2.2-8c-2.2-0.7-5.5,1.8-5.5,4.5c0,1.2-0.4,3.4-1.1,4.7c-1.3,2-1.8,2.3-3.4,2
	c-7.2-1.6-32.9-6.1-33.6-5.9c-0.5,0.5-15.1,26.8-15.3,28.1c0,0.4,1.4,0.6,2.7,0.6c1.2,0,8.6,0.5,16.3,1.1c7.7,0.6,15,1.3,16.1,1.3
	c1.8,0,1.7-0.2-4,9.6l-5.7,9.9h-16.3c-16.3,0-16.3,0-16.9,1.4c-0.9,0-0.5-0.1-0.7-0.3c-0.6-0.6-4.4-19.3-5.5-27.5l-0.4-7.5l3.5-8.8
	c8.4-17.5,24.2-37.5,30.2-38.6c4.1-0.7,7-2.9,7-5.2c0-2.4-1.1-3.7-3.3-3.7c-1.6,0-27.4-10.1-28.5-11.2c-0.7-0.7,2.6-12.3,4.1-14.4
	c1.5-2.2,1.3-4.2-0.6-6c-2.1-2-4.8-2-6.7,0.1c-1.6,1.7-2.1,5-0.8,5.8c1.6,1,0.5,1.6-1.9,1c-5-1.4-15.8-1-21.6,0.8
	c-7.1,1.8-13.8,1.8-19.2,0.1c-2.4-0.7-4.3-1.2-4.3-1.1c0,0.2,0.4,1.3,1,2.6c1.4,3.3,4.5,5.9,8.4,7l3.4,1l-5.1,1.5
	c-2.9,0.8-6.1,1.8-7.3,2l-2.1,0.6l2.5,1.1c4.6,2,11,1.9,21.6-0.5c9.3-2,16.1-2,19.7-1.6c1.4,0.4-1.4,2.8-20,17.1
	c-11.9,9.2-23.2,17.7-25.1,19c-4.4,2.9-5.9,4.8-6,7.1c-0.5,2.1,1.7,4.3,3.4,4.2c0.6,0,0.4,0.7-0.6,2c-1.8,2.6-8,14.4-8,15.5
	c0,0.4-0.3,0.8-0.6,0.8c-1.1,0-3.2-6.5-4.1-12l-0.2-5.4l3-6.2c3.9-6.6,11-16.1,15-19.9c3.8-2.6,3.6-4.7,0.7-6
	c-2.7-1.1-26.3-17.5-26.7-18.4c-0.4-1.3,3-11.3,4.6-13.5c1.8-2.4,1.9-4.8,0.1-6.6C342.5,111.8,339.1,111.6,337.3,113.6L337.3,113.6z
	 M343,115.4c1.3,1.6,0.2,4-1.9,3.7c-2.4-0.3-3.6-2.2-2.4-3.7C339.9,114.1,341.9,114,343,115.4L343,115.4z M420.3,117.6
	c1,1.2,0.4,3.6-1.1,4.2c-1.5,0.6-3.8-0.8-3.8-2.3C415.4,116.8,418.6,115.5,420.3,117.6z M335.2,121.6c2.4,0.4,4.5,1,4.7,1.3
	c0.1,0.3-0.4,2.5-1.1,4.9c-1.2,3.5-1.7,4.3-2.7,3.9c-0.6-0.3-3-0.9-5.3-1.4c-4.8-1.1-9.6-0.6-21.8,2.2c-4.2,0.9-9,1.8-10.5,1.7
	l-2.8-0.1l2.1-0.7c7-2.3,9.5-3.6,9.5-4.9c0-1.1-0.6-1.3-3.3-1.3c-3.7,0-8.4-1.8-10-3.9c-1-1.2-0.9-1.3,0.4-0.8
	c3.1,1.3,12.6,1.3,17.2,0.1C319.9,120.2,326,120,335.2,121.6L335.2,121.6z M264.7,123.7c0.9,1.5-0.1,3.6-1.8,3.9
	c-1.1,0.2-3.4-1.6-3.4-2.7c0-1.1,2.2-2.9,3.4-2.7C263.4,122.4,264.2,123.1,264.7,123.7z M412.3,125c2.2,0.5,4.4,1.1,4.7,1.3
	c0.6,0.6-1.5,9.2-2.2,9.2c-0.2,0-2-0.5-3.9-1.1c-5.2-1.6-11.5-1.3-22,1.1c-5.1,1.1-10.7,2.1-12.4,2h-2.9l4.2-1.6
	c6.6-2.5,6.7-2.7,6.5-3.9c-0.1-0.8-1.3-1.3-4.1-1.6c-3.9-0.4-7.9-2-8.8-3.5c-0.4-0.5,0.5-0.6,2.9-0.1c5,0.8,10.5,0.4,16.4-1.1
	C396.8,124.2,406.1,123.8,412.3,125L412.3,125z M260.9,131.7c0,0.2-0.6,3-1.5,6.3l-1.5,5.8l-6-0.4c-5.4-0.3-6.9-0.1-12.8,1.8
	c-12.8,4.1-20.9,4.7-25.1,1.8l-2-1.3l5.6-0.4c3.1-0.2,7.3-0.9,9.4-1.6l3.9-1.3l-5.8-1.8c-5.1-1.7-8.7-3.7-7.8-4.5
	c0.1-0.1,2.5,0.1,5.2,0.4c5.3,0.8,7.2,0.5,21.1-3.3C249.4,131.5,260.9,130.6,260.9,131.7L260.9,131.7z M336.5,135.1
	c-0.2,0.6-0.8,2.3-1.3,3.9c-0.5,1.6-1.3,2.9-1.8,2.9c-0.9,0-0.7-0.8,1.5-6.9c0.1-0.4,0.6-0.8,1.1-0.8
	C336.5,134.1,336.7,134.5,336.5,135.1L336.5,135.1z M349.8,144.1c6.1,4.2,11.2,8,11.3,8.3c0.2,0.6-18.1,7.3-18.6,6.8
	c-0.1-0.1,0.9-2.7,2.4-5.7l2.7-5.4l-1.6-1.3c-0.8-0.7-3.1-1.8-4.9-2.5c-1.8-0.6-3.6-1.5-3.9-1.7c-0.5-0.4,0.8-6.3,1.3-6.3
	C338.7,136.2,343.7,139.8,349.8,144.1L349.8,144.1z M414,138.6c0,0.6-0.6,3-1.3,5.4c-0.8,2.5-2,6.8-2.8,9.5
	c-1.1,3.8-1.8,5.1-2.9,5.4c-1,0.3-1.3,0.1-1.1-0.5c0.2-0.5,1.7-5.1,3.3-10.4c1.6-5.2,3.1-9.7,3.3-10
	C412.8,137.3,414,137.6,414,138.6L414,138.6z M439.9,148.3c0,0.4-28.2,9.3-28.5,8.9c-0.2-0.2,3.9-15,4.9-17.9
	c0.3-0.6,4.1,0.6,11.9,3.9C434.7,145.8,439.9,148,439.9,148.3z M330.7,140.7c-0.5,0.4-1.2,0.5-1.1,0.7c-0.4-0.2-0.3-0.8,0.2-1.4
	C330.8,138.8,331.3,139.1,330.7,140.7L330.7,140.7z M406.2,150.1c-1.5,5-3.2,9.4-3.7,9.9c-0.8,0.7-8.5,3.2-24.9,8.1
	c-3.7,1.1-6.4,1.8-6.2,1.6c0.9-0.9,37.3-28.9,37.4-28.8C409,140.8,407.7,145,406.2,150.1z M325.5,147.2c-0.6,5.2-1.4,5.7-1.4,0.8
	c0-3.1-0.2-4-1.1-4c-0.8,0-0.7,0.9-0.8,3.9l-0.5,4.2l-0.8-2.4c-0.2-1.9,0-5-0.4-5.5c-0.6-0.7-0.1-0.9,2.4-0.9h3.1L325.5,147.2z
	 M329.2,143.8c0.1,0.4-0.1,2.5-0.6,4.8l-0.8,4.2l-0.3-4.8c-0.2-3.3-0.1-4.7,0.6-4.7C328.5,143.3,329,143.5,329.2,143.8z
	 M319.1,148.2c0,2.3-0.3,4.2-0.7,4.2c-0.4,0-0.7-1.9-0.7-4.2c0-2.3,0.3-4.2,0.7-4.2C318.9,144,319.1,145.9,319.1,148.2z
	 M333.3,145.2c-0.4,0.7-0.9,2.6-1.2,4.2c-0.3,1.7-0.8,3-1.2,3s-0.6-0.8-0.3-2.2c0.2-1.2,0.4-3.1,0.4-4.2c0-1.6,0.4-2,1.4-2
	C333.7,144,333.8,144.3,333.3,145.2z M341.5,146.8c1.6,0.7,2.9,1.7,2.9,2.1c0,0.4-0.8,2.4-1.8,4.4c-1.2,2.4-2,3.3-2.5,2.8
	c-0.4-0.4-0.2-1.6,0.8-3.5c0.8-1.6,1.5-3.4,1.5-4c0-2.1-1.5-1-2.9,2.3c-2,4.2-1.9,4-2.3,3.6c-0.2-0.2,0.1-1.7,0.7-3.4
	c1.3-3.7,1.3-4.9,0.1-4.9c-0.5,0-1.5,1.8-2.2,4c-1.5,4.5-2.2,3.7-1.1-1.2c0.4-1.7,0.5-3.4,0.3-3.7
	C334.2,144.3,337.6,145.1,341.5,146.8L341.5,146.8z M256.6,147.4c0,2.3-3.4,13.7-4.4,14.3c-1.4,0.9-1.5,0.3-0.3-3.9
	c0.6-2.2,1.6-5.7,2.2-7.8C255.3,146.2,256.6,144.8,256.6,147.4L256.6,147.4z M273.2,148.6c7,1.4,12.7,2.8,13.3,3.1
	c0.6,0.2-5.6,2.2-14.3,4.6c-8.7,2.4-15.9,4.3-16.1,4.2c-0.1-0.1,0.2-2,0.8-4.3c0.6-2.3,1.5-5.4,1.9-7.1c0.4-1.6,1-3,1.3-3
	C260.3,146.1,266.2,147.2,273.2,148.6z M447.7,150.6c0,1.5-1.6,2.5-6.1,3.9c-2.2,0.7-13.6,4.7-25.1,8.8
	c-11.6,4.2-27.7,9.9-35.7,12.8c-11,3.9-15.4,5.2-17.6,5.1c-2.1-0.1-2.9-0.6-3.1-1.5c-0.5-2.5,2.7-4.7,10.7-7.2
	c33.7-10.7,73.5-22.8,75.1-22.8C446.9,149.6,447.7,150,447.7,150.6L447.7,150.6z M250.2,156.5c-0.8,3-1.7,5.7-1.9,6
	c-0.4,0.5-6.5,2.3-17.9,5.4c-1.5,0.4-2.5,0.4-2.1,0.1c1-0.9,22.8-17,23.1-17C251.5,151,251,153.5,250.2,156.5L250.2,156.5z
	 M297.4,153.2c0,1.1-2.3,2-23.6,8.4c-45.4,13.6-52.9,15.7-54,15.4c-0.8-0.4-0.9-0.8-0.2-2.2c0.8-2,1.2-2.1,17.1-6.3
	c5.1-1.3,19.4-5.3,32-8.8c28.4-7.9,27.6-7.7,28.3-7.3C297.2,152.4,297.4,152.8,297.4,153.2z M318.4,154.8c1.3-0.3,0.1,1.6-5.1,8.7
	l-7.8,9.4l-7.8,3c-4.9,1.8-9,3.2-9.1,3.1c-0.1-0.1,5.9-5.8,13.3-12.7c9.6-8.9,13.6-12.3,14.2-11.8
	C315.9,155.6,317.4,155,318.4,154.8L318.4,154.8z M324,160.8l-2.1,6.3l-5.3,1.9c-2.9,1.1-5.4,1.8-5.5,1.7c-0.1-0.1,2.3-3.8,5.5-8.2
	c4.8-6.6,6-7.9,7.6-8h1.9L324,160.8z M330,155.4c-2.7,8.7-3.4,10.4-4.4,10.4c-0.6,0-0.9-0.4-0.8-0.9c0.2-0.4,1.1-3,1.9-5.6
	c1-2.8,2-4.7,2.6-4.7C329.9,154.6,330.2,155,330,155.4L330,155.4z M365.8,155.2c-0.4,0.4-8.9,3.9-19,7.8c-10,3.9-27.6,10.9-39,15.3
	c-11.4,4.5-21.8,8.5-23.2,8.7c-2.9,0.7-4.9,0.2-4.9-1.1c0-1.2,2.7-2.3,24.6-10.2c9.8-3.5,26.9-9.7,37.9-13.7
	C360.3,155.4,367.8,153.3,365.8,155.2z M339.7,158.7l2,1.3l-5.8,2.1c-3.2,1.2-5.7,1.6-5.7,1.6c-0.1-0.1,0.1-1.3,0.7-3.2
	c0.6-1.9,1.2-3.9,1.4-4.4C332.5,155.1,335.9,156.3,339.7,158.7L339.7,158.7z M431.8,162.5c-21.3,22.4-36.4,60.7-33.4,84.4
	c0.4,3.4,1.4,8,2.2,10.2c0.8,2.3,1.4,4.2,1.4,4.3c0,0.1-1.5-0.5-3.4-1.3l-3.4-1.6l-3.2-10.7c-1.7-5.9-3.2-10.6-3.3-10.4
	c-0.2,0.2,2.9,16.3,3.8,19.5c0.3,1.1-0.1,1.3-2.1,1.3c-2.7,0-2.1,1.4-6.5-14.4c-1.1-3.8-2-6.6-2.1-6.3c-0.1,0.4,0.7,5.1,1.8,10.5
	c1.1,5.4,2,9.8,2,9.9c-0.1,0.1-1,0.3-2,0.6c-1.8,0.4-1.8,0.4-4.8-10.2c-1.7-5.8-3.1-10.5-3.2-10.4c-0.2,0.2,2.6,15.9,3.6,20
	c0.3,1.1-0.1,1.8-1.1,2.4c-2,1.1-2.1,0.8-4.8-9c-1.3-4.4-2.5-7.8-2.6-7.7c-0.2,0.1,0.5,4.4,1.5,9.4l1.9,9l-1.6,1.3
	c-1.8,1.6-1.9,1.5-4.1-6.3c-0.9-3.2-1.8-5.7-1.9-5.6c-0.1,0.1,0.2,3.1,0.8,6.5c1.4,8,1.4,8.5-0.2,9.4c-1.3,0.6-1.5,0.4-2.6-3.5
	c-1.5-5.4-2-5-0.9,0.7c0.6,3.5,0.6,4.7-0.1,6.1c-1.3,2.3-1.8,2.1-2.7-1c-0.7-2.5-0.7-2.3-0.4,1.3c0.4,4.3-0.6,6.8-1.9,4.9
	c-0.6-0.8-0.6-0.5-0.4,1.4c0.2,1.3,0,4.4-0.5,6.7l-0.9,4.2l-2.5-5.2c-5.8-12-7.8-21.1-7.9-36.7c0-9.1,0.4-13.5,1.5-19.9
	c4.1-22.3,14.6-44.3,21.1-44.3c0.6,0,0.8,0.5,0.5,1.6c-0.4,1.3-0.2,1.2,1-0.5c0.8-1.1,2-2.3,2.9-2.6c1.4-0.5,1.4-0.5,0.3,1.6
	c-0.6,1.2-0.9,2.3-0.7,2.5c0.1,0.2,0.8-0.6,1.4-1.8c2.6-5,5.2-5.9,3.2-1.1c-1.6,3.9-1.3,3.7,1.8-0.9c1.2-1.8,2.9-3.6,3.7-3.9
	c1.5-0.6,1.5-0.4-0.8,4.3c-1.3,2.7-2.4,4.9-2.2,4.9c0.1,0,1.9-2.5,3.9-5.6c2-3,4.3-5.7,5-5.9c1.1-0.3,0.9,0.5-1.5,5.2
	c-1.5,3-2.6,5.6-2.5,5.6c0.1,0,1.9-2.5,3.9-5.7c3.4-5.1,5.8-7.7,7.2-7.7c0.3,0-1.1,2.7-3,6.1c-6.6,11.5-6.4,11.6,1.1,0.6
	c3-4.4,6-8.1,6.5-8.1c0.8,0,0.7,0.5-0.4,2.3c-4.5,7.6-8.5,14.7-8.2,14.7c0.1,0,3.2-4.2,6.7-9.4c3.9-5.7,7-9.6,7.9-9.9
	c0.8-0.2,1.5-0.3,1.7-0.2c0.1,0.1-2.5,4.3-5.6,9.4c-9.4,14.7-9.1,14.7,1.6-0.3c6.3-8.7,9.3-12.1,10.2-11.3c0.1,0.1-2.3,4.2-5.3,9
	c-6.5,10.2-7.3,11.6-6.5,11.1c0.3-0.2,3.9-5.1,7.9-11c5.4-7.8,7.9-10.8,9.4-11.3c1.1-0.4,2.2-0.6,2.4-0.4c0.1,0.2-3.7,6.2-8.6,13.4
	c-4.9,7.2-8.8,13.1-8.6,13.1c0.1,0,5.1-6.4,10.9-14.3l10.5-14.3l4.4-1.5c2.5-0.8,4.6-1.6,4.7-1.6C435.8,158.1,434,160.1,431.8,162.5
	L431.8,162.5z M357.3,164.6c-11.3,14.3-19.5,32.6-23.2,52.2c-1.8,9.4-1.8,32.8,0.1,42.4c1.6,8.8,5.2,20.7,8.4,28.3
	c1.3,3.2,2.3,5.8,2.2,5.8c-0.6,0-7-5.1-7.4-5.9c-0.3-0.4-3.1-9.9-6.3-21c-3.2-11.1-6-20.2-6.1-20c-0.1,0.1,2,9,4.6,19.7
	c2.7,10.7,4.7,19.5,4.6,19.5c-0.2,0-1.2-0.5-2.2-1.1c-1.7-1-2.5-3-7.1-18.7c-2.9-9.6-5.3-17.4-5.4-17.3c-0.1,0.1,1.5,7.4,3.7,16.1
	c2.1,8.8,3.9,16.1,3.9,16.4c0,0.2-0.9-0.1-2-0.7c-2.2-1.1-2.2-1.1-8.2-21.6c-1.5-5-2.7-8.9-2.9-8.7c-0.1,0.1,1.1,6.2,2.9,13.5
	c1.7,7.3,3,13.4,2.9,13.5c-0.1,0.1-1.3-0.3-2.6-0.8c-2.4-1-2.5-1.1-5.8-13.4c-1.9-6.8-3.6-12.3-3.7-12.1c-0.1,0.1,0.8,5.4,2.2,11.6
	c2.5,11.8,2.4,12.3-0.8,10.4c-1.3-0.7-2.3-2.8-4.4-9c-3-9-3.4-9-1.4,0.4c0.8,3.5,1.3,6.4,1.1,6.6c-0.1,0.1-1.3,0-2.6-0.3
	c-2.2-0.6-2.6-1.1-4.4-5.9c-1.1-3-1.8-4.2-1.5-2.7c0.3,1.3,0.6,3.5,0.8,4.7c0.4,2.1,0.2,2.3-1.3,2.3c-2.4,0-3-0.6-4.8-4.2
	c-1.4-3-1.5-2.8-0.5,1.6c0.4,1.8,0.3,2-2,2c-1.7,0-2.5-0.4-2.7-1.3c-0.3-0.9-0.4-0.9-0.4,0.3c-0.1,1.8-3.6,2.8-4.4,1.5
	c-0.4-0.6-0.6-0.5-0.6,0.2c0,0.6-1.1,1.8-2.3,2.6c-1.3,0.9-3.1,2.9-4,4.4c-1,1.6-2,2.8-2.3,2.8c-0.8,0-4.6-8.8-6.2-14.7
	c-2.1-7.8-2.6-22.3-1-31.8c2.2-13.7,8.1-27.5,15.6-37.3c3.7-4.7,4.6-5.4,9-7.3c2.7-1.1,5.3-1.8,5.8-1.7c0.5,0.2,0.9,0.1,0.9-0.4
	c0-0.6,2.9-2.1,3.4-1.7c0.1,0.1-0.1,1.1-0.6,2.2l-0.7,2l1.3-1.7c3.4-4.9,5.1-5.8,3.7-1.8c-1.2,3.1-0.3,2.9,1.3-0.3
	c0.8-1.6,2.1-3.2,2.9-3.6c1.3-0.7,1.3-0.7-0.1,2.5c-2,4.7-1.2,4.6,1.4,0c1.2-2.1,2.8-4.2,3.6-4.7c1.8-1,1.8-0.8-0.7,5
	c-1.1,2.7-1.9,4.9-1.8,4.9c0.1,0,1.8-2.7,3.8-5.9c2-3.2,4.1-6.1,4.6-6.3c1.4-0.5,1.4-0.6-1.7,6.3c-1.5,3.3-2.7,6-2.6,6
	c0.1,0,1.9-2.7,4-6.1c2-3.4,4.3-6.7,5-7.4c2.9-3,2.5-0.8-1.1,6.1c-2.2,4.1-3.8,7.4-3.7,7.4c0.1,0,2.7-3.8,5.7-8.5
	c4.7-7.3,6.7-9.7,6.7-8c0,0.3-1.9,4.1-4.3,8.5c-2.3,4.4-4.1,8-3.9,8c0.2,0,2.9-4.2,6.1-9.2c4.9-7.8,7.9-11.1,9-10.1
	c0.2,0.2-6.2,11.5-11,19.4c-2.8,4.6,1.1-0.7,7.5-10.4c6.2-9.2,8.7-12.2,9.6-11.3c0.1,0.1-2,4-4.8,8.7c-8.1,14-8.4,14.4-8,14.4
	c0.1,0,3.9-5.6,8.4-12.5c6.6-10.1,8.6-12.7,10.4-13.3c1.3-0.5,2.4-0.8,2.5-0.7c0.1,0.1-2.5,4.3-5.6,9.3
	c-10.1,16.1-11.7,18.7-11.4,18.7c0.1,0,4.8-6.6,10.4-14.8c8.2-12.1,10.5-14.9,12.5-15.8C361.4,158.8,361.4,159.4,357.3,164.6
	L357.3,164.6z M280.9,163.2c-11.6,9.6-22.1,22.8-28.2,35.5c-4.8,10.1-6.8,18-6.8,28.1c0,6.3-0.1,7.4-0.9,6.8c-0.6-0.4-1-2.3-1.1-4.1
	c0-1.8-0.3-4.9-0.6-6.8c-0.5-3.4-0.5-3.4-0.6,1.9c0,3-0.2,5.5-0.4,5.5c-2.2,0-2.5-1.1-2.6-7.7c-0.1-5.7-0.2-6.3-0.7-3.6
	c-0.3,1.8-0.6,4.5-0.6,6.1c-0.1,2.3-0.3,2.9-1.1,2.6c-0.6-0.3-1.1-2.5-1.5-7.5l-0.6-7.2l-0.2,6.5c-0.1,3.6-0.3,6.6-0.5,6.6
	c-1.9,0-2.5-1.2-2.5-5.2c-0.1-6.1-1.2-9.2-1.3-3.6c-0.1,5.3-0.6,7.4-1.9,7.4c-0.7,0-1-0.9-1.1-3c0-1.6-0.3-4.2-0.6-5.8
	c-0.6-2.4-0.6-2-0.7,3c-0.1,4.5-0.3,5.8-1.1,5.8c-1.2,0-1.8-2.1-1.9-7c-0.1-3.8-0.1-3.8-0.7,1.4c-0.7,6-1,7-2,7
	c-0.4,0-0.7-1.6-0.7-3.7c0-2.6-0.2-3.4-0.7-2.6c-0.4,0.6-0.7,2.7-0.7,4.7c0,2-0.3,3.9-0.7,4.1c-0.4,0.3-0.7-0.5-0.7-1.9
	c0-1.8-0.2-2-0.7-1.3c-0.4,0.6-0.7,1.9-0.7,3c0,2.8-0.8,4.4-1.5,3.2c-0.4-0.6-0.6,0.1-0.6,2c0,1.7-0.3,3-0.6,3
	c-1.5,0-3.8-10.4-4.1-18.7c-0.3-7.5-0.1-9.3,1.5-15.4c1.8-7.3,6.9-18.6,9.7-21.8c0.8-1,2.4-2,3.3-2.3c1.5-0.4,1.6-0.4,1.2,0.8
	c-0.4,1,0,0.8,1.5-0.6c2.4-2.2,4.5-2.7,2.9-0.7c-0.6,0.8-0.2,0.6,0.8-0.3c2-1.8,5.6-3.3,5.6-2.3c0,0.4-0.3,0.8-0.7,1.1
	c-0.4,0.2-1.1,1.1-1.5,2c-0.5,0.9,0.7,0.1,2.7-1.8c5.3-4.9,6.2-4.6,2.3,0.9c-1.3,1.9-0.8,1.6,2.5-1.5c3.7-3.6,6.6-5.5,6.6-4.4
	c0,0.3-1.2,1.9-2.7,3.7c-4.9,6-4.6,6.1,1.1,0.2c3.2-3.2,6-5.8,6.5-5.8c1,0,0.6,0.6-4.1,6.7l-3.7,4.9l6.2-6.5
	c5.3-5.5,9.3-8.5,9.3-6.9c0,0.2-2.5,3.4-5.6,7c-3.1,3.7-5.6,6.8-5.6,7c0,0.2,2.6-2.4,5.8-5.7c8.8-9.4,9.2-9.9,11-10.4
	c1.3-0.4,0.8,0.6-2.9,5c-8.4,10.4-10.1,12.8-4.7,7c10.3-11.1,12.9-13.7,15-14.2c2-0.5,2-0.5,1.1,0.9c-0.6,0.8-4.5,5.6-8.7,10.6
	c-13.1,15.5-12.8,15.3,2.3-1.2c9.8-10.7,12.7-13.2,15.9-13.3C284.1,160.2,282.8,161.5,280.9,163.2L280.9,163.2z M483.8,185.6
	c1,3-3.2,4.7-4.3,1.7c-0.7-1.8,0.3-3.2,2.1-3.2C482.8,184.2,483.5,184.7,483.8,185.6z M349.1,201.2l2,4l-1.9,6.2
	c-2.4,7.8-3.8,14.7-4.7,23c-0.6,5.1-1.2,7.1-2.8,9.7c-1.1,1.8-2.7,4.7-3.6,6.5c-0.9,1.9-1.8,3.4-2.1,3.4c-0.8,0-1.5-13.5-1.1-22.2
	c0.7-13.7,3.5-26.6,8.4-38.3l2.2-5.4l0.8,4.6C346.7,195.2,347.9,199,349.1,201.2z M458.8,193c10.2,1.7,18.6,3.2,18.8,3.4
	c0.3,0.4-9.3,18.7-10.1,19.6c-0.4,0.4-33.3-1.6-39.3-2.3c-1.3-0.2-1-1.1,4.6-11.1c6.2-11,7.2-12.7,7.4-12.7
	C440.2,189.8,448.6,191.2,458.8,193z M480.2,190.9c0.7,0.7-0.8,3.1-2,3.1c-1.3,0-1.3-0.4-0.4-2.2
	C478.6,190.5,479.4,190.2,480.2,190.9L480.2,190.9z M257.4,200c0,5.1,1.8,14.2,3.9,20.2c1.8,4.8,1.8,4.9,0.6,10.6
	c-1.6,7.2-1.8,22.1-0.1,29c1.3,6.9,2.7,10.9,6.5,18.7c1.8,3.6,3,6.9,2.9,7.3c-0.4,1-5.7-3.5-9.2-7.7c-3.1-3.7-6.8-10.2-8.8-15.5
	c-1.3-3.6-0.9-3.4-0.1-3.7c1.3-0.4,1.4-0.5,1.4-8.8v-8.8h-2.1c-1.8,0-2.2-0.4-2.9-2.7c-0.4-1.4-1-6.3-1.1-10.7
	c0.3-6.2,0-9.2,1.1-14.2c1.5-6.3,6.1-17.5,7.2-17.5C257.1,196.1,257.4,197.8,257.4,200z M408.6,220.1c1,6,2.6,14.2,3.6,18.1l1.4,7.1
	l-1,4.1c-0.8,2.2-1.2,4.2-1,4.6c0.2,0.4-1.2,2.3-3.2,4.4l-3.4,3.3l-1.4-2.8c-3.7-10-4-27.9,1.3-45.4c0.8-2.6,1.5-4.6,1.7-4.4
	C406.7,209,407.6,214.1,408.6,220.1L408.6,220.1z M207.8,227.2l1,5.3l-5.8,21.1l-5.8,21.1l-2.4-0.2c-2.9-0.2-23.8-9.9-23.8-11.1
	c0-2.7,17.3-25.3,31.3-40.7c4-4.4,4.2-4.6,4.4-2.8C206.7,221,207.3,224.3,207.8,227.2L207.8,227.2z M465.9,219.3
	c0,0.1-2.1,4.4-4.7,9.4c-4.6,8.8-4.8,9.1-7,9.1c-1.3,0-2.3-0.2-2.3-0.4c0-0.3,2.4-4.7,5.3-9.7c4.8-8.4,5.5-9.3,7-9
	C465.1,218.7,465.9,219.1,465.9,219.3L465.9,219.3z M229.6,228.5c-0.2,1.1-1.1,4.4-2,7.3l-1.6,5.1l-5.4,0.2c-5.2,0.2-5.3,0-5.3-1.5
	c0-7.2,5.7-12.7,12-13.1C230,226.5,230,226.5,229.6,228.5L229.6,228.5z M235.1,230.6c-2.4,9.7-2.6,10.3-4.7,10.5
	c-1.7,0.2-2,0-1.7-1.1c3.8-13.7,3.4-12.8,5.2-12.1C235.2,228.6,235.4,229.1,235.1,230.6L235.1,230.6z M245.5,237.2
	c1.1,1.6,2,3.1,2,3.5c0,0.3-2.8,0.6-6.3,0.6c-3.4,0-6.3-0.2-6.3-0.4c0-0.5,2-8.7,2.5-10C237.8,229.6,242.8,233.5,245.5,237.2
	L245.5,237.2z M212.1,240c1.5,3.2,1.8,4.8,1.8,11.3v7.6h4.7v5.4c0.1,3,0.8,8.4,1.6,12c1.6,6.9,1.3,9.4-1.3,9.4
	c-0.7,0-4.3-1.8-7.9-3.9c-3.6-2.2-7.7-4.5-9.1-5.1l-2.5-1.1l5.3-19.5c2.9-10.8,5.4-19.6,5.5-19.6C210.3,236.3,211.1,238,212.1,240
	L212.1,240z M456.1,242.1c0,1.3,0.2,4,0.4,6l0.5,3.7h-43l1.8-5.1c0.9-2.7,1.8-5.5,2-6c0.2-0.6,4.8-0.8,19.3-0.8h19L456.1,242.1z
	 M252.4,249.7v6.3h-36.5v-12.7h36.5L252.4,249.7z M344.5,257.3c1.3,11.4,4.9,22.5,10.3,31.3c4.4,7.3,4.4,7.3,0.1,8.2
	c-2,0.4-4.1,0.5-4.6,0.5c-2,0-10.8-22.5-13-33.1c-0.9-4.7-0.5-6.6,3.4-14.2l2.5-4.9l0.1,2.8C343.7,249.5,344.1,253.7,344.5,257.3z
	 M451.8,258.9c0.4,2.8,0.7,5.1,0.6,5.3c-0.1,0.2-10.6,0.2-23.2,0.1l-23-0.2l4.4-5.1l4.4-5.1h18l18-0.1L451.8,258.9z M246.4,264.7
	c6,18.6,21.6,32.1,43.6,37.9c14,3.7,29,4.8,46.3,3.6c35.5-2.5,51.9-9.3,72.5-30.2l9.3-9.4h13.3c8.7,0,13.4,0.3,13.4,0.7
	c0,2-9.2,18.3-15.9,27.9c-5.1,7.4-6.5,8.4-18.6,13.3c-15,6-36.6,10.7-58.9,12.8c-14.5,1.4-48.7,1-60.7-0.7
	c-15.7-2.3-27.7-5.1-39.7-9.3c-9.8-3.5-14-5.4-25.6-12.1c-12.4-7.2-19.7-10.8-26.3-13.2c-6.4-2.3-12.3-2.6-15-0.8
	c-2.1,1.4-2.4,0.7-0.8-2.3c1.8-3.4,5.7-5.6,9.9-5.6c4.8,0,7.9,1.2,16.5,6.3c8.1,4.8,10.3,5.2,12.5,2.5c1.8-2.3,1.8-3,0.1-10.3
	c-0.8-3.2-1.4-8.3-1.4-11.3v-5.4h23.7L246.4,264.7z M251.3,263.7c4.1,10.8,12.3,21,20.9,26.1c11.9,7,28.2,10.9,50.6,11.8
	c33.4,1.5,65.4-9.9,84.3-30c2.8-3,5.3-5,6.1-5c0.8,0,1.4,0.3,1.4,0.7c0,1.3-14.4,15.3-20,19.5c-17.3,12.8-38.2,18.1-71.3,18.1
	c-13.5,0-20.6-0.8-31.3-3.5c-23.7-5.9-39-19.2-44.9-38.9l-1.1-3.7h1.7C249.3,258.9,249.8,259.7,251.3,263.7L251.3,263.7z
	 M399.1,262.7c2.7,1.6,1.8,2.5,2.7,3.1c-0.6,0.8,0,1.4,1.5,1.6c1.1,0.1,2.1,0.1,2.5,0.8c0.8,1.4-1.1,3.8-7.1,8.4
	c-4.3,3.4-4.8,3.2-9.7-2.3c-2.6-3-7.4-11.2-7.4-12.8c0-0.8,3.2-1.1,8.4-0.9C394.1,260.7,396.2,261.2,399.1,262.7L399.1,262.7z
	 M165.2,261.8c1.3,1.3,1,3.2-0.6,3.7c-1.5,0.5-3.5-0.6-3.5-2c0-1.1,1.4-2.5,2.5-2.5C164,261,164.7,261.3,165.2,261.8L165.2,261.8z
	 M373.2,278.5l-4.4,14.8l-2.7,0.7c-1.5,0.4-2.7,0.5-2.7,0.2c0-0.2,2-6.7,4.4-14.4c4.3-13.7,4.4-14,6.9-15.3c1.3-0.7,2.5-1.2,2.7-1.1
	C377.4,263.5,375.5,270.3,373.2,278.5L373.2,278.5z M382,267.8c1.1,2.2,3.9,6.1,6.4,8.7l4.5,4.8l-5.1,3c-6.8,3.2-15.6,7.9-15.9,7.1
	c-0.1-0.3,1.5-6.4,3.7-13.7c2.1-7.3,3.9-13.3,3.9-13.5C379.5,263.1,380.2,264.2,382,267.8L382,267.8z M188.8,274.2
	c1.2,0.4,1.2,0.4-0.4,1.2c-1.5,0.8-2.6,0.4-11.3-3.9c-7-3.5-9.6-5.1-9.3-5.8c0.3-0.8,2.5,0,10,3.6C183.1,271.8,188,274,188.8,274.2
	L188.8,274.2z M364.9,281.4c-2.1,7-4.1,12.5-4.4,12.5c-0.8,0-1.5-4.6-1-8.1c0.8-5.8,2.5-9.9,5.8-13.5c1.8-1.9,3.2-3.5,3.4-3.5
	C368.7,268.7,367,274.5,364.9,281.4z M287.4,271c-0.2,0.5-1.7,5-3.4,10.1c-1.6,5-3.2,9.4-3.5,9.7c-0.3,0.4-1.8-0.1-3.4-0.8
	c-2.4-1.3-2.9-1.9-3.7-4.9c-0.7-3-0.6-3.7,0.6-6.1c2-3.8,5.1-6.6,8.6-7.7C286.6,270,287.8,269.9,287.4,271L287.4,271z M293.7,271.2
	c0.1,0.1-1.3,5.3-3.4,11.5l-3.5,11.3l-2.1-0.7c-1.1-0.4-1.9-1.1-1.8-1.6c0.1-0.5,1.6-5,3.2-10c3.7-11.5,3.8-11.8,5.8-11.2
	C292.8,270.8,293.6,271.1,293.7,271.2z M300.8,273.4c0.3,0.4,0.8,1.4,0.8,2.4c0,2.8,3.9,13,6.6,17.7c1.4,2.4,2.4,4.5,2.2,4.7
	c-0.4,0.5-10-0.9-16.4-2.4c-3.4-0.7-5-1.4-4.8-2c0.2-0.5,1.9-5.7,3.7-11.6l3.5-10.1l2-0.3C299.6,272.1,300.5,272.9,300.8,273.4
	L300.8,273.4z M312.8,276.8c11.7,5.9,10,4,6.5,7.8c-3,3.5-5.1,8.2-5.9,10.1c-0.7,1.7-1.3,1.1-3.8-3.2c-2.6-4.6-5.9-13.8-5.9-16.3
	c0-0.8,0.4-1.5,0.8-1.5C304.9,273.7,308.6,275.1,312.8,276.8L312.8,276.8z M330.3,286.2c2.9,1.8,7.8,5.2,10.9,7.5l5.1,4.4l-1.6,0.5
	c-2.4,0.8-28.7,1.1-29.4,0.4c-0.3-0.2,0-2.2,0.6-4.4c0.8-2.7,2.2-5,4.7-7.8c2-2.2,3.8-3.9,4-3.9
	C324.8,282.8,327.4,284.3,330.3,286.2L330.3,286.2z M198.5,288.2c6.5,2.3,13.8,6,26.1,13.1c14.9,8.6,24.9,12.7,41.1,16.8
	c18.9,4.7,35.7,6.6,59.4,6.6c36.8,0,66.6-5.6,94.5-17.6c0.6-0.3-0.1,0.9-1.5,2.7c-1.5,1.8-4.1,3.9-6.3,5c-5.6,2.8-18,6.7-28.7,9
	c-8.4,1.8-8.9,2-4.6,1.7c9.2-0.7,20.2-3.5,31.6-7.7c0.8-0.4,0.3,0.6-1.7,2.7c-2.7,2.7-4.1,3.5-9.8,5.4c-3.7,1.2-13.1,3.2-20.8,4.5
	c-7.7,1.3-13.3,2.5-12.6,2.5c3.4,0.1,23-2.9,29.4-4.5c3.8-1,7-1.6,7.2-1.5c0.2,0.1-1.5,1.7-3.6,3.5c-4.1,3.3-7.6,4.5-19.1,6.5
	c-3.4,0.6-4.6,0.9-3.1,1c1.3,0,5.3-0.6,8.8-1.3c3.5-0.7,6.4-1.2,6.5-1.1c0.4,0.4-9,6-16,9.5c-8.5,4.3-20.5,8.5-30.9,10.7
	c-10.8,2.3-35.5,2.3-46.3,0c-21.9-4.8-48.8-18.1-63.6-31.5l-3.5-3.2l4.6,2.1c5.1,2.3,14.9,5.2,19.7,5.9c2,0.3,0.5-0.4-3.9-1.7
	c-10.6-3.2-23.2-9.7-28.4-14.5c-2.4-2.2-4.3-4.2-4.3-4.5c0-0.3,3.6,1.3,7.9,3.5c9.8,5.1,19,8.5,31.1,11.7c11.4,2.9,15.3,3.1,5.5,0.3
	c-23.4-6.8-44.5-17.1-55.4-26.7c-7.2-6.3-13.4-9.5-18.8-9.6c-2.2,0-3.8-0.2-3.6-0.6C186.2,285.7,193.6,286.4,198.5,288.2
	L198.5,288.2z M421.2,310.5c-0.4,0.5-1.9,2.5-3.4,4.4l-2.7,3.5l4.4-4.2c4.8-4.7,6.4-4.9,2.9-0.3l-2.3,3l3.2-2.9
	c3.4-3.3,5.5-3.5,3.7-0.4c-1.2,1.9-1.2,1.9,0.2,0.6c0.8-0.6,1.7-1.2,2-1.2c0.3,0,2.2,1.6,4.4,3.6c4.5,4.4,8.4,11.6,9.3,17.4
	c0.6,4.1,0.6,5.6-0.7,11.5l-0.7,3.2l-23.2,3.7c-17,2.7-23.6,3.5-24.5,3c-1.8-1-4.6-5.9-5.8-10.4l-1.1-3.6l6.4-4.7
	c3.8-2.7,11-9.4,17.3-15.9C420.6,310.5,422.9,308.3,421.2,310.5L421.2,310.5z"/>
<path d="M420.2,246.5v3.2h6.3v-6.3h-6.3V246.5z M432.8,246.5v3.2h6.3v-6.3h-6.3V246.5z M445.4,246.5v3.2h6.3v-6.3h-6.3V246.5z
	 M418,259.9v3.2h6.3v-6.3H418V259.9z M438.4,259.9v3.2h6.3v-6.3h-6.3V259.9z M415.2,275.4c0,2.5,0,2.5,3.2,2.5c3.2,0,3.2,0,3.2-2.5
	c0-2.5,0-2.5-3.2-2.5C415.2,273,415.2,273,415.2,275.4z M430,275.4c0,2.5,0,2.5,3.2,2.5c3.2,0,3.2,0,3.2-2.5c0-2.5,0-2.5-3.2-2.5
	C430,273,430,273,430,275.4z M267.8,305.7v4.6h6.3v-9.2h-6.3V305.7z M374.5,308.6v4.6h6.3V304h-6.3V308.6z M321.8,314.9v4.6h6.3
	v-9.2h-6.3V314.9z M220,250.1v3.2h6.3v-6.3H220V250.1z M232.7,250.1v3.2h6.3v-6.3h-6.3V250.1z M245.3,250.1v3.2h6.3v-6.3h-6.3V250.1
	z M379.4,339.8c0.5,0.2,1.4,0.2,2,0c0.5-0.2,0.1-0.4-1-0.4S378.9,339.5,379.4,339.8L379.4,339.8z"/>
<path class="st53" d="M510.7,340.2V426H140.4v-91.1c0.4,1.5,6,3.2,10,4.7c7.3,2.5,7.8,2.5,15-2.2c9.7-6.4,15.7-6.2,26.6,0.7
	c16.4,10.4,20.8,10.5,25.7,1.5c3.6-7.1,11.9-7.1,25.9,0.2c6,3.1,12.2,5.5,14,5.5c1.6,0,5.7-2.9,8.8-6.4c6.9-8,10.9-7.5,28.8,2.9
	c14.4,8.5,19.3,9.1,20.8,2c2-8.9,3.6-10.4,12-10.4c5.1,0.2,12.8,2.4,20.6,6c6.7,3.3,13.7,5.8,15,5.8c1.5,0,3.1-2.5,3.8-5.6
	c0.5-3.1,2.9-6.7,4.9-8.2c4.9-3.1,10-1.8,26.1,6.4c16.1,8,20.6,7.3,20.6-3.5c0-3.3,3.5-5.5,8.8-5.5c1.6,0,8.4,3.3,15.1,7.5
	c14.6,8.7,18.6,8.7,19.9-0.2c1.3-9.1,7.3-9.3,23-1.1C497.6,341.4,510.7,344,510.7,340.2L510.7,340.2z"/>
<path class="st54" d="M142.6,335.1c0.4,1.5,3.4,3.6,7.4,5.1c7.3,2.5,7.8,2.5,14.9-2.2c9.6-6.4,15.6-6.2,26.6,0.7
	c16.4,10.4,20.7,10.5,25.7,1.5c3.6-7.1,11.8-7.1,25.8,0.2c6,3.1,12.2,5.5,14,5.5c1.6,0,5.6-2.9,8.7-6.4c6.9-8,10.9-7.5,28.7,2.9
	c14.4,8.5,19.3,9.1,20.7,2c2-8.9,3.6-10.4,12-10.4c5.1,0.2,12.7,2.4,20.6,6c6.7,3.3,13.6,5.8,14.9,5.8c1.5,0,3.1-2.5,3.8-5.6
	c0.5-3.1,2.9-6.7,4.9-8.2c4.9-3.1,10-1.8,26,6.4c16,8,20.6,7.3,20.6-3.5c0-3.3,3.5-5.5,8.7-5.5c1.6,0,8.4,3.3,15.1,7.5
	c14.6,8.7,18.6,8.7,19.8-0.2c1.3-9.1,7.3-9.3,22.9-1.1c11.6,6.4,23.8,8.5,23.8,4.7"/>
<path class="st55" d="M143.4,339.6c0.4,1.5,4.2,3.6,8.2,5.1c7.3,2.5,7.8,2.5,14.9-2.2c9.6-6.4,15.6-6.2,26.6,0.7
	c16.4,10.4,20.7,10.5,25.7,1.5c3.6-7.1,11.8-7.1,25.8,0.2c6,3.1,12.2,5.5,14,5.5c1.6,0,5.6-2.9,8.7-6.4c6.9-8,10.9-7.5,28.7,2.9
	c14.4,8.5,19.3,9.1,20.7,2c2-8.9,3.6-10.4,12-10.4c5.1,0.2,12.7,2.4,20.6,6c6.7,3.3,13.6,5.8,14.9,5.8c1.5,0,3.1-2.5,3.8-5.6
	c0.5-3.1,2.9-6.7,4.9-8.2c4.9-3.1,10-1.8,26,6.4c16,8,20.6,7.3,20.6-3.5c0-3.3,3.5-5.5,8.7-5.5c1.6,0,8.4,3.3,15.1,7.5
	c14.6,8.7,18.6,8.7,19.8-0.2c1.3-9.1,7.3-9.3,22.9-1.1c11.6,6.4,22.6,8.5,22.6,4.7"/>
<path class="st0" d="M175.3,364.7c-3.1,2-2.8,2.2,2.8,1.4c4.7-0.6,7.8,0.2,14,3.7c11.9,6.9,17,7.4,24.9,2.5
	c9.5-5.7,13.3-6.8,20.8-5.2c5.7,1.1,6.2,1.1,4-0.9c-4.8-4.5-14.4-4.5-22.9,0c-9.7,4.9-14.4,5.1-25.3,0.2
	C183.8,361.8,180.2,361.5,175.3,364.7L175.3,364.7z M354,369.4c-6.6,3.9-13.9,6.9-16.3,6.9s-9.9-2.9-16.4-6.5
	c-11.3-6-12.3-6.3-17.5-4.5c-14.4,5.2-23.7,6.9-30.6,5.2c-8-1.8-8.7-0.6-1.7,3.1c6.8,3.5,12.6,3.4,25.8-0.8
	c10.9-3.4,11.1-3.4,16.4-0.5c21.6,11.6,27.9,12.2,39.1,4.2c13-9.2,18.4-10,36.9-4.6c11.1,3.2,11.9,3.2,17.3,0.9l5.7-2.6h-7.1
	c-4-0.2-12.5-1.8-18.7-4c-6.4-2.2-13.7-3.9-16.3-3.9C367.9,362.4,360.8,365.4,354,369.4L354,369.4z M455.8,368.6
	c-2.1,0.8-4.3,2-5,2.9c-1.4,2.2-10.4,2.2-15.2,0c-2.9-1.2-2.8-0.8,1,2.3c5.9,4.8,10.2,5.1,17.8,0.9c5.4-3.1,6.1-3.1,12.1-0.8
	c10.2,3.7,12.1,2.6,4-2.3C462.4,366.7,461.4,366.6,455.8,368.6L455.8,368.6z M401.5,388.6c-5,3.4-11.1,6.2-13.3,6.2
	c-2.1,0-8.7-2.2-14.2-4.8l-10.4-4.9l-6.6,3.4c-3.6,1.8-8.7,4.2-11.3,5.1c-2.8,1.1-4.8,2.5-4.8,3.1c0,2.3,5.5,1.2,13.2-2.8
	c8.5-4.5,13.3-4.2,21.6,0.9c11.4,7.4,15.1,7.1,27.7-1.8c8-5.7,13.5-5.9,27-0.6c10,3.7,11.3,3.9,16.4,1.8l5.7-2.2l-6.1-0.2
	c-3.3-0.2-11.1-2.3-17-4.8c-6.1-2.6-12.8-4.6-14.9-4.6C412.6,382.5,406.5,385.2,401.5,388.6L401.5,388.6z M259.7,389.4
	c-8.1,6.6-13.3,6.8-21.8,0.8c-7.8-5.5-13-5.7-23.4-0.8c-5.9,2.8-7.1,3.9-4.8,4.6c1.6,0.6,5.2-0.2,8.1-1.4c7.6-3.5,11.4-3.1,21.1,2.9
	c4.8,2.9,9.5,5.4,10.2,5.4c0.7,0,4.5-2.2,8.5-4.6c12.1-7.9,14.5-8.2,26.3-3.9c10.7,4.2,13.9,3.9,19-1.7c2.3-2.5,2.1-2.5-1.4-0.9
	c-5.5,2.6-9.5,2.3-19.9-2C269.7,382.9,267.6,382.9,259.7,389.4z M165.1,399.6c-2.1,0.9-4.7,2.9-5.7,4.6c-2.1,2.8-1.9,2.9,1.2,1.5
	c4.3-2.2,11.8-2.2,13.2,0c0.7,0.9,4.3,3.7,8.1,6.2c9,5.7,16.4,5.9,25.6,0.5c6.9-4,11.6-4.3,21.6-1.4c2.4,0.8,2.1-0.2-1.7-2.9
	c-6.6-5.1-13.3-5.1-23.4,0c-9.2,4.6-12.3,4.2-23.7-4C170.8,397.4,170.5,397.2,165.1,399.6L165.1,399.6z M288.9,406.5
	c-3.3,2.2-7.3,4.5-8.7,5.2c-1.4,0.8-2.1,1.7-1.6,2.2c0.5,0.6,4.7-0.8,9.2-2.9c4.5-2.2,9.5-3.9,11.1-3.9c1.7,0,6.8,2.8,11.6,6.3
	c9.5,6.9,12.5,7.1,23.2,0.5c8-4.8,9.7-4.6,19.2,0.9c9.9,5.9,13.9,5.9,25.6-0.2c10.6-5.2,14.4-5.1,24.9,1.1c3.6,2,7.8,3.7,9.2,3.7
	c4,0,11.6-3.9,15.6-7.7l3.5-3.4l-6.1,3.2c-8.1,4.3-13.2,4-23.4-1.4c-10.9-5.7-14-5.7-23.5,0c-9.7,5.7-14.7,5.9-24.2,0
	c-9.7-5.7-14.7-5.9-23.4,0c-8.5,5.7-10.6,5.7-18,0.3c-7.1-5.2-12.8-8-15.9-8C296,402.6,292.2,404.3,288.9,406.5L288.9,406.5z"/>
</svg>
