<?xml version="1.0" encoding="utf-8"?>
<!-- Generator: Adobe Illustrator 22.1.0, SVG Export Plug-In . SVG Version: 6.00 Build 0)  -->
<svg version="1.1" id="Слой_1" xmlns="http://www.w3.org/2000/svg" xmlns:xlink="http://www.w3.org/1999/xlink" x="0px" y="0px"
	 viewBox="0 0 512 512" style="enable-background:new 0 0 512 512;" xml:space="preserve">
<style type="text/css">
	.st0{fill:#012169;}
	.st1{stroke:#FFFFFF;stroke-width:29.0104;}
	.st2{clip-path:url(#SVGID_2_);stroke:#C8102E;stroke-width:19.3403;}
	.st3{stroke:#FFFFFF;stroke-width:48.3506;}
	.st4{stroke:#C8102E;stroke-width:29.0104;}
	.st5{fill:#128BBF;}
	.st6{fill:#E8ECE9;}
	.st7{fill:#69522B;}
	.st8{fill:#BCA76B;}
	.st9{fill:#CFA763;}
	.st10{fill:#D7C99C;}
	.st11{fill:#7FB8C1;}
	.st12{fill:none;stroke:#000000;stroke-width:0.967;}
	.st13{fill:none;stroke:#000000;stroke-width:0.2418;}
	.st14{fill:#666666;}
	.st15{fill:#BCA76B;stroke:#472B1F;stroke-width:0.1387;}
	.st16{fill:#333333;stroke:#000000;stroke-width:0.4835;}
	.st17{fill:#472B1F;}
	.st18{fill:#FFFFFF;}
	.st19{fill:#C8102E;}
	.st20{fill:none;stroke:#472B1F;stroke-width:0.4835;}
	.st21{fill:#BCA76B;stroke:#472B1F;stroke-width:0.1451;}
	.st22{fill:#BCA76B;stroke:#472B1F;stroke-width:0.14;}
	.st23{fill:#BCA76B;stroke:#472B1F;stroke-width:0.1922;}
	.st24{fill:#BCA76B;stroke:#472B1F;stroke-width:0.2348;}
	.st25{fill:#BCA76B;stroke:#472B1F;stroke-width:0.2011;}
	.st26{fill:#BCA76B;stroke:#472B1F;stroke-width:0.1946;}
	.st27{fill:#BCA76B;stroke:#472B1F;stroke-width:0.2051;}
	.st28{fill:#BCA76B;stroke:#472B1F;stroke-width:0.2506;}
	.st29{fill:#BCA76B;stroke:#472B1F;stroke-width:0.2146;}
	.st30{fill:#BCA76B;stroke:#472B1F;stroke-width:0.2078;}
	.st31{fill:#BCA76B;stroke:#472B1F;stroke-width:0.2103;}
	.st32{fill:#BCA76B;stroke:#472B1F;stroke-width:0.257;}
	.st33{fill:#BCA76B;stroke:#472B1F;stroke-width:0.22;}
	.st34{fill:#BCA76B;stroke:#472B1F;stroke-width:0.213;}
	.st35{fill:#BCA76B;stroke:#472B1F;stroke-width:0.1237;}
	.st36{stroke:#000000;stroke-width:0.1451;}
	.st37{fill:#BCA76B;stroke:#472B1F;stroke-width:0.1393;}
	.st38{fill:#BCA76B;stroke:#472B1F;stroke-width:0.1202;}
	.st39{fill:#BCA76B;stroke:#472B1F;stroke-width:0.1097;}
	.st40{fill:#BCA76B;stroke:#472B1F;stroke-width:0.1185;}
	.st41{fill:#333333;}
	.st42{fill:#BCA76B;stroke:#472B1F;stroke-width:0.1296;}
	.st43{fill:#BCA76B;stroke:#472B1F;stroke-width:0.1678;}
	.st44{stroke:#000000;stroke-width:0.3385;}
	.st45{fill:#BCA76B;stroke:#472B1F;stroke-width:0.1597;}
	.st46{fill:#BCA76B;stroke:#472B1F;stroke-width:0.1951;}
	.st47{fill:#BCA76B;stroke:#472B1F;stroke-width:0.1671;}
	.st48{fill:#BCA76B;stroke:#472B1F;stroke-width:0.1617;}
	.st49{fill:#BCA76B;stroke:#472B1F;stroke-width:0.2215;}
	.st50{fill:#BCA76B;stroke:#472B1F;stroke-width:0.1844;}
	.st51{fill:#BCA76B;stroke:#472B1F;stroke-width:0.1885;}
	.st52{fill:#BCA76B;stroke:#472B1F;stroke-width:0.1932;}
	.st53{fill:#BCA76B;stroke:#472B1F;stroke-width:0.2764;}
	.st54{fill:#BCA76B;stroke:#472B1F;stroke-width:0.2022;}
	.st55{fill:#BCA76B;stroke:#472B1F;stroke-width:0.2005;}
	.st56{fill:#BCA76B;stroke:#472B1F;stroke-width:0.2093;}
	.st57{fill:#BCA76B;stroke:#472B1F;stroke-width:0.2557;}
	.st58{fill:#BCA76B;stroke:#472B1F;stroke-width:0.219;}
	.st59{fill:#BCA76B;stroke:#472B1F;stroke-width:0.2315;}
	.st60{fill:#BCA76B;stroke:#472B1F;stroke-width:0.1009;}
	.st61{fill:#BCA76B;stroke:#472B1F;stroke-width:0.1039;}
	.st62{fill:none;stroke:#000000;stroke-width:0.4835;}
	.st63{fill:#69737C;stroke:#000000;stroke-width:0.7253;}
	.st64{fill:#66452B;stroke:#000000;stroke-width:0.7253;}
	.st65{fill:#69737C;}
	.st66{fill:none;stroke:#000000;stroke-width:0.7253;}
	.st67{stroke:#000000;stroke-width:0.4835;}
</style>
<title>Flag of New Caledonia</title>
<title>Flag of New Caledonia</title>
<path id="path5" class="st0" d="M-0.2,96.7H511V426H-0.2V96.7z"/>
<path id="path7" class="st1" d="M-0.2,96.7l255.6,164.6 M255.4,96.7L-0.2,261.4"/>
<g>
	<defs>
		<path id="SVGID_1_" d="M-0.2,96.7V179H298v82.3h-42.6L-0.2,96.7z M255.4,96.7H127.6v192.1H-0.2v-27.4L255.4,96.7z"/>
	</defs>
	<clipPath id="SVGID_2_">
		<use xlink:href="#SVGID_1_"  style="overflow:visible;"/>
	</clipPath>
	<path id="path9" class="st2" d="M-0.2,96.7l255.6,164.6 M255.4,96.7L-0.2,261.4"/>
</g>
<path id="path11" class="st3" d="M127.6,96.7v192.1 M-0.2,179H298"/>
<path id="path13" class="st4" d="M127.6,96.7v192.1 M-0.2,179H298"/>
<path id="path15" class="st0" d="M-0.2,261.4h255.6V96.7H511V426H-0.2V261.4z"/>
<path id="path17" class="st5" d="M425.6,237.8c-0.1,37.2-4.7,77.4-42.4,96.5c-37.7-19.1-42.3-59.2-42.4-96.5H425.6z"/>
<path id="path19" class="st6" d="M383.2,334.2c17.1-8.7,27.7-22.8,33.8-37.9c-1-0.4-2.9-0.5-3.7-0.1c-0.9-0.1-36.4-3.4-40.6-5.4
	c-3.6-1.7-17.5,1.4-23.9,4.4C354.8,311.3,365.3,325.1,383.2,334.2z"/>
<path id="path21" class="st7" d="M356.9,311.1c0.6-0.2,1.7-0.2,2.1-0.1c0.5,0.1,0.6,0.2,0.8-0.5c0.2-0.7,0.6-0.5,0.9-0.2
	c0.3,0.4,1.2,0.2,1.5-0.4c0.3-0.6,0.4-0.5,0.7-0.1c0.3,0.4,0.5,0.3,0.8,0.2c0.3-0.1,0.9-0.6,1.2-1.2c0.3-0.7,0.7-0.9,0.9-0.5
	c0.2,0.4,0.5,0.5,0.8,0.5c0.3-0.1,0.4,0.4,0.4,0.9c0,0.5,0.1,0.7,0.9-0.2c0.7,0.9,0.9,0.5,0.9-0.4c0-0.9-0.2-4.4-0.5-4.9
	s-0.6-1.8-0.6-2.9c-0.1-2-0.1-2.1-2-3.4c0-0.7-0.1-1-1.5-0.9c0-0.2-0.2-0.9-0.5-1.2c-0.3-0.3-0.3-0.4-0.2-1.2
	c0.6,0.1,1.2-0.1,1.5-0.7c0.3-0.6,1.4-0.5,2-0.1c0.6,0.4,1.5,0.4,2.7,0.2c0.5-0.5,1.3-1,2.1-1.6c0.8-0.6,1.1-0.8,1.1-1.7
	c0.1-2.1-0.5-4.6-0.9-5.7c-0.5-1.1-0.6-2.5-1.2-4.3c-0.7-1.9-0.7-2.4-1.5-3.6c-0.2-0.3-0.5-0.6-0.5-1.2c0-0.7-0.2-1.5-0.8-2.2
	c-1.4-1.6-1.9-6.9-2.5-10.8c-0.3-2.2-0.1-7.5-0.8-8.4c-1.3-1.3-1.9-1.1-2.7-1.5c-0.6-1.1-0.9-3.2-1.4-5.1c-0.9,0.2-1.5,1.4-2.1,1.8
	c-0.6,0.4-0.7,0.4-0.7,1.5c0,1.1-0.5,2.5-1.3,4.2c-0.8,1.7-2.2,1.2-3.4,3.7c-2.5-4-2.6-5.1-2.8-6.2c-0.2-1.1-0.6-1.4-2-3
	c0-0.5-0.2-2.4,0-3.4c-1.1-1.1-1.9-0.9-2.4-0.1c-0.5,0.8-0.9,2.1-1.7,2.5c-0.5,0.8-1.9,2.7-3.1,5
	C342.3,274.3,345.9,294.8,356.9,311.1L356.9,311.1z"/>
<path id="path23" class="st8" d="M425.6,237.8c0-14-0.6-27.6-0.3-39.6c-14.1-8.1-32.6-9.7-42.1-9.7c-9.5,0-28,1.7-42.1,9.7
	c0.3,11.9-0.3,25.6-0.3,39.6H425.6z"/>
<path id="path27" class="st9" d="M343.1,254c0.5,0.9,1.3,2.6,1.4,3.5c0.3-0.9,0.6-1.2,0.6-1.8c0.1-0.5,0.6-1.6,0.4-2.1
	s-0.3-1,0.2-0.6c0.5,0.4,0.4,1.1,0.3,2.2c-0.3,2.9-1.2,3.5-1.4,5.5c1.4,4.1,0.3,5.6,1.8,9.6c0.2,0.2,0.9-0.1,1-0.1
	c0.8-0.7,1.4-0.5,2.5-0.2c1.1,0.3,1.7,1.3,1.7,2.2c0,0.9,0,1.1,0.2,1.7c0.2,0.5,0.7,1.4,0.6,2c-0.1,0.6,0.1,0.9,0.2,1.2
	c0.1,0.3,0,0.9-0.2,1.4s-0.1,0.9,0.5,1.8c0.6,0.9,1.9,4.6,1.9,6.8c0,2.2,0.1,3.2,0.8,3.6c0.7,0.4,0.9,0.8,0.8,1.7
	c-0.1,0.9,0.3,5.9,0.4,6.6c0.1,0.8,0.3,0.6,0.6,1c0.3,0.4,0.5,0.9,1.4,0.9s1.8-0.2,2.4,0c0.8,1.5,1.3,3.5,1.5,4.7s0.2,2.9,0.5,2.9
	c0.3,0,0.6,0.1,0.6-1.5c-0.1-1.5-0.2-1.8-0.6-2.5c-0.4-0.8-0.6-1.1-0.4-1.6c0.2-0.5,0.3-1.2,0.2-1.8c-0.1-0.6-0.2-1.5,0.6-0.3
	c0.8,1.2,1,1.5,1.3,1.9s0.3,1.2,0.3,1.9c0,0.7,0,1,0.4,0.6c0.3-0.4,0.7,0.2,0.6,1c-0.2,0.8,0,1.2,0.6,1.5c0.6,0.2,0.8,0.4,0.9,0.9
	c0.1,0.5,0.6,0.8,0.6-0.3c0-1.1-0.3-3.3-0.6-4c-0.2-0.7-0.4-2.3-0.5-3.1c0-0.9-0.2-1.1-0.5-1.3c-0.3-0.2-0.6-0.5-0.6-0.9
	s-0.3-0.6-0.5-0.6c-0.2,0-0.4-0.2-0.5-0.5c-0.1-0.3-0.2-0.3-0.5-0.4c-0.2,0-0.6,0.1-0.7-0.3c-0.1-0.5-0.3-1.2-0.5-1.5
	c-0.2-0.4-0.4-0.5-0.5-1.8c0-1.3,0-1.5-0.4-2c-0.3-0.5-0.9-1.7-1.1-2.3c-0.2-0.5-0.5-1.1-0.5,0.1c0,1.1,0,1.7,0.6,2.1
	c0.6,0.4,0.7,0.4,0.5,1c-0.2,0.6,0,1,0.1,1.4s0.3,0.8,0,1.2c-0.3,0.4-0.6,0.3-0.5-0.4c0-0.7-0.1-1.4-0.4-2c-0.2-0.5-0.4-0.9-0.7-0.6
	c-0.3,0.3-0.5-0.1-0.3-0.3c0.2-0.2,0.1-0.4,0-0.6c-0.1-0.2-0.2-0.4,0-0.7c0.2-0.4,0.2-0.5,0.1-1.4c-0.1-0.8-1.2-5-1.6-5.9
	c-0.5-0.9-0.4-1.7,0.2-0.7c0.6,0.9,1.1,1.8,1.2,2.5c0,0.8,0.2,1.2,0.4,1.5c0.2,0.3,0.3,0.2,0.4-0.5s0.5-0.4-0.2-1.7
	c-0.6-1.2-1.9-3.3-2.3-7.1c-0.5-3.7-0.6-6.2-1.1-7.2c-0.5-1-0.6-1.2-0.6-2.2c0-0.9,0-1.9-0.3-2.6c-0.3-0.7-0.6-0.8-0.6,0.2
	c0,1.1,0,3.4,0.3,3.9s0.1,1.5,0,2.1c0,0.6-0.8,1.2,0.7,2.4c0.6,0.5,0.5,1.1,0.4,1.5c-0.1,0.4-0.2,0.4-0.5-0.3
	c-0.3-0.7-0.6-1.2-1-1.5c-0.3-0.4-0.4-0.6-0.3-1.4c0-0.8,0.2-1.4,0-1.7c-0.2-0.3-0.3-0.1-0.4,0.4c-0.1,0.5-0.2,1.8-0.4,2.1
	c-0.2,0.4-0.3,0.1-0.4-0.7c-0.1-0.8,0-2,0.4-3.3s0.5-2.8,0.2-4.6c-0.3-1.8-0.1-2.3-1.2-3.8c-1.1-1.5-2.3-2.9-2.8-4.7
	c-0.5-1.8-0.6-3.4-1.2-4.3c-0.6-0.8-1.3-1.9-1.9-2.2c0-1.4,0-2.1,0-2.7c0-0.7-0.2-1.1-0.8-0.9s-1,0.8-1.3,1.7
	c-0.4,0.9-0.6,0.5-1.2,2C343.9,251.6,343.1,252.3,343.1,254L343.1,254z"/>
<path id="path29" class="st9" d="M346.5,271.4c0.4,0.3,0.7,0.5,1.3,0.1c0.6-0.4,1.2-1.4,2-0.4c0.7,1,1.2,2.7,1.2,4
	c0,1.3,0,3.7,1.2,5.1c1.2,1.4,1.8,2.8,1.8,4.6c0,1.8,0.6,4.5,0.7,5.2c0.1,0.7,0.5,1.5,0.8,2c0.4,0.5,0.6,1.8,0.7,3.3
	c0,1.4-0.1,2.4,0,3.1s0,1.3-0.4,0.9c-0.4-0.4-0.5-0.5-0.7-1.1s-0.5-0.5-0.3,0.4c0.2,0.9,0.9,1.7,1.5,1.7c0.6,0,0.8,0.1,1.2,0.6
	c0.4,0.5,0.4,0.7,1.1,0.7s0.7,0,1.3,0.2c0.6,0.2,0.6,0.1,0.9,0c0.3-0.1,0.6,0.2,0.9,1c0.2,0.8,0.8,2.9,0.8,3.5s0,1.2,0.3,1.8
	s0.2,1.2-0.1,0.8c-0.4-0.4-0.4-0.2-0.6-0.2s-0.5-0.1-0.8-0.4c-0.4-0.3-0.1-0.2-0.5-0.9s-0.6-0.9-0.6-0.4s0,1.2-0.3,0.9
	c-0.3-0.3-0.4-0.3-0.6,0c-0.2,0.3-0.3,0.5-0.6-0.1c-0.3-0.6-0.6-0.6-0.9-0.7s-0.3-0.1-0.4-0.7c-0.1-0.5-0.6-0.7-0.9-0.7
	s-0.6-0.2-0.6-0.6c0-0.4-0.3-0.6-0.5-0.8s-0.1-0.6-0.1-1s-0.3-0.2-0.5-0.4c-0.2-0.1-0.3-0.1-0.3-0.7c0-0.6-0.2-0.8-0.3-1.2
	c-0.1-0.4,0-0.8,0.1-1.3c0.1-0.5,0-0.8-0.2-1.2c-0.3-0.4,0-0.8-0.8-1.7c-0.7-0.8-1.1-0.1-1.3-2.1c-0.2-2-0.7-6-1.1-6.6
	c-0.4-0.7-0.7-1.1-1.1-1.3c-0.4-0.2-0.7-0.1-0.7-1.2c0-1.1-0.3-2.5-0.9-3.3c-0.6-0.7-0.8-0.9-1.1-1.2c-0.3-0.3-0.4-0.8,0-1.8
	c0.4-1,0.2-2.4,0.2-3c0-0.6-0.2-1.5-0.1-2.2c0.1-0.7,0-1.6-0.1-2.1C346.4,271.8,346.2,271.7,346.5,271.4L346.5,271.4z"/>
<path id="path95" class="st10" d="M360.5,303.8c-0.3,0.7-0.6,0.5-0.9,0.1c-0.3-0.4-0.6-0.4-0.5-1c0.1-0.7,0.1-0.8-0.3-1.1
	c0,0-0.1-0.1-0.1-0.1c-0.1,0-0.3,0-0.4,0c-0.6,0-0.7-0.2-1.1-0.7c-0.1-0.1-0.2-0.2-0.2-0.3c0,0.1,0,0.3,0,0.4c0,0.7,0,0.5-0.5,0.7
	c-0.5,0.2-0.4-0.7-0.5-1.2c0-0.1-0.1-0.2-0.1-0.3c-0.6-0.1-1.1-0.9-1.4-1.7c-0.2-0.9,0-1,0.3-0.4s0.3,0.8,0.7,1.1
	c0.4,0.4,0.6-0.2,0.4-0.9c0-0.2-0.1-0.5,0-0.8c-0.1-0.2-0.2-0.4-0.4-0.5c-0.7-0.4-0.5-0.5-0.5-1.3c0-0.8-0.1-0.8-0.6-0.4
	c-0.5,0.4-0.5-0.1-0.5-1.2c0-1.2-0.6-1.2-0.7-0.4c-0.1,0.8-0.4,0.3-0.6-0.9c-0.3-1.2-0.6-1.5-0.7-0.4c0,1-0.2,1.2-0.7,0.7
	c0.1,0.7,0.2,1.3,0.2,1.8c0.2,2,0.6,1.2,1.3,2.1c0.7,0.8,0.5,1.2,0.8,1.7c0.3,0.4,0.3,0.7,0.2,1.2c-0.1,0.5-0.2,0.9-0.1,1.3
	c0.1,0.4,0.3,0.6,0.3,1.2c0,0.6,0.1,0.5,0.3,0.7c0.1,0.1,0.3,0,0.4,0.1c0.1-0.2,0.2-0.4,0.4-0.6c0.6-0.7,1.4,0.1,1.7,0.9
	c0.3,0.9,0.6,1.1,1,0.4s0.3-0.6,0.7,0.1c0.5,0.7,0.6,0.5,0.6,0.5s0.5-0.2,0.8,0.1c0.3,0.4,0.5,0.3,1.1-0.8
	C361.7,302.7,360.8,303.1,360.5,303.8L360.5,303.8z"/>
<g id="g187" transform="translate(-8e-5,-2.56e-4)">
	<path id="path97" class="st11" d="M361,312.1c1.1-0.1,4.1-1.2,4.4-1.6c0.7,0.7,2,1.5,2.6,1.5c-1.1,0.3-1.8,0.1-2-0.1
		c0.1,0.4,0.5,1.1,0.7,1.1c-1-0.1-2.2-0.4-2.5-0.8C363.3,312.7,361.8,312.8,361,312.1L361,312.1z"/>
	<path id="path99" class="st11" d="M363,313.8c0.4,0.1,2.4,0.6,2.6,0.6c-0.6,0.7-0.1,1.4,1,1.3c-0.5,0.1-1.1,0.3-0.7,0.4
		c1,0.2,3.5-0.7,4-1C369,316.6,364.7,317.9,363,313.8L363,313.8z"/>
	<path id="path101" class="st11" d="M364.7,317.5c0.5-0.4,1.9-0.2,2.5,0.1C366.5,317.9,365.1,317.9,364.7,317.5z"/>
	<path id="path103" class="st11" d="M366.7,317.4c1-0.2,3.6,0.6,4.6-0.1c-0.3,1.1-2,1.2-2.6,1c-0.6-0.2-1.1-0.5-1.5-0.5
		C367.4,317.6,367,317.6,366.7,317.4L366.7,317.4z"/>
	<path id="path105" class="st11" d="M367.7,319.1c0.7,0.1,3.3-0.3,4.1-0.7c0.8,0.4,2.5,0.9,2.8,0.9c-0.8,0.6-2.3,0.3-2.8,0
		C370.4,319.9,369.3,320.1,367.7,319.1z"/>
	<path id="path107" class="st11" d="M368.9,319.6c1,0.3,1.9,0.1,2.9-0.3c0.3,0.2,1.1,0.4,1.8,0.3c0.5,0.3,1.1,0.8,1.7,0.9
		c-0.6,0.3-2.9,0-3.4-0.3c-1.2,0-3.2,0.4-3.6,0.9C368.2,320.6,368.4,320.1,368.9,319.6z"/>
	<path id="path109" class="st11" d="M367.7,313c0.8,0.3,3.7,0.2,5.2-0.7c0.6-0.4,0.9,0.2,0.3,0.5c-2.4,1.1-4.3,1.5-5.7,0.5
		C366.9,312.9,366.8,312.6,367.7,313L367.7,313z"/>
	<path id="path111" class="st11" d="M381.9,307.9c-3.6,2.1-5.9,2.8-10.9,0.8c-0.5-0.2-0.8,0-0.3,0.4c0.5,0.4,3.2,1.4,3.9,1.4
		c0.6,0.1,0.4,0.4,0,0.6s-0.5,0.5,0,0.2c0.5-0.3,3.5-0.4,4.7,0.4c0.5,0.4,0.7,0.3,0.6,0s0.2-0.4,0.6-0.5c0.4-0.1,0.6-0.2,0.3-0.4
		c-0.3-0.1-0.3-0.2-0.1-0.4c0.2-0.1,0.3-0.3-0.1-0.4c-0.3-0.1-0.6-0.2-0.3-0.4c0.3-0.2,0.8-0.4,1.2-0.4
		C381.8,309.1,381.6,308.2,381.9,307.9z"/>
	<path id="path113" class="st11" d="M376,308.5c2,0.2,5.8-1,7.8-3.5c0.7,0.5,1.7,1.1,2.2,1.2c0.5,0.1,1,0.7,0.2,0.7
		s-1.9-0.4-2.4-0.7c-2.6,2.1-5.7,2.8-7.7,2.5C375.5,308.7,375.3,308.4,376,308.5z"/>
	<path id="path115" class="st11" d="M372.8,301c-0.3,0.1-1.5,0.4-1.8,0.4c-0.3,0-0.6,0.1-0.6,0.4s0.1,0.5-0.4,0.4
		c-0.5-0.1-0.9,0.2-1,0.4c-0.1,0.2-0.2,0.4,0.3,0.4c0.5,0.1,0.7,0.1,1.3-0.2s1.1-0.8,1.7-0.9C372.8,301.9,373.4,300.9,372.8,301z"/>
	<path id="path117" class="st11" d="M371.1,302.9c0.5,0.4,3,1.5,3.9,1.4s0.7,0.5,0,0.7c-1.4,0.4-3.1-0.4-4.3-1.6
		C370.2,302.8,370.7,302.6,371.1,302.9L371.1,302.9z"/>
	<path id="path119" class="st11" d="M383,304.5c-1.9,0.8-3.9,0.5-4.7,0.2c-0.8-0.3-1.5-0.3-1,0.3c0.5,0.6,2.2,1.1,3.2,0.8
		c-3.5,1-4.4,0.9-5.2,0.7c-0.9-0.2-2.5-0.1-3.2-0.1c-0.5,0.1-1.2,0-1.5-0.3c-0.3-0.2-0.4-0.7,0.5-0.6c0.9,0.1,1-0.1,0.2-0.3
		c-0.8-0.1-1.9,0.3-0.8,1.1c1.1,0.9,3.4-0.1,4.9,0.5c1.5,0.5,4.6,0.9,7.6-2.2C383.3,304.7,383.5,304.2,383,304.5L383,304.5z"/>
	<path id="path121" class="st11" d="M378.5,302c-0.4,0-1.1-0.3-1.5-0.5c-0.4-0.2-0.9-0.2-0.5,0.4c0.4,0.7,2.1,1.1,2.7,0.7
		c0.6-0.3,0.3-0.7,0.9-0.2c0.6,0.5,1.2,0.8,1.7,0.8c0.4,0,0.6,0,0.1-0.4c-0.5-0.4-0.7-0.4-0.8-0.7s-0.1-0.5,0.3-0.3
		c0.4,0.2,1,0.5,1.3,0.3c0.3-0.2,1-0.8,1.6-0.8l0.1-0.4c-0.8-0.1-1.4,0.2-1.6,0.4s-0.6,0.2-1.1,0.1c-0.4-0.1-1-0.1-1.2-0.3
		c-0.1-0.1-0.1-0.3,0.2-0.4c0.4-0.1,0.5-0.4,0-0.3c-0.5,0.1-1.9,0.1-2.6-0.2c-0.7-0.3-1-0.3-1.3-0.2c-0.3,0.1-0.3,0.6,0.2,0.6
		c0.4,0,1.4,0.1,1.8,0.6c0.3,0.4,0.3,0.4-0.1,0.2C378.5,301.2,377.7,301.3,378.5,302L378.5,302z"/>
	<path id="path123" class="st11" d="M395.3,300.4c-1.4,1.3-3.1,1.6-5,1.8c-0.6,0.1-0.4,0.3,0.1,0.3c2.1,0.3,4.5-0.7,5.3-1.8
		C395.8,300.4,395.8,299.9,395.3,300.4z"/>
	<path id="path125" class="st11" d="M385.8,303.4c0.6,0,2.7,0.7,3.4,1c0.5-0.1,0.6-0.2,0.6-0.4c-0.1-0.2-0.2-0.5,0.8-0.4
		c0.9,0.1,3.1,0,3.5,0c0.3-0.2,1-0.9,1.4-0.9c-0.8,0.1-4.3,0.3-4.7,0.2c-0.4-0.1-0.7,0-1,0.2c-0.3,0.2-0.4,0.3-0.8,0.1
		c-0.3-0.2-1-0.4-1.3-0.1C387.1,303.3,386.4,303.1,385.8,303.4L385.8,303.4z"/>
	<path id="path127" class="st11" d="M393.9,303.6c0.3-0.2,1-0.9,1.4-0.9c0.6-0.1,1.3,0.3,1.6,0.3s0.7,0,0.4-0.4
		c-0.2-0.3,0-0.9,0.9-0.7c0.9,0.1,1.4,0.4,2.4,0.2c0.9-0.1,1.3,0.8,3.1-0.1c-0.1,0.9,0.2,0.9,0.5,0.8c0.3-0.2,0.7-0.1,1.3,0.4
		s3.9,0.6,4.7,0.4c0.8-0.2,1.2,0.4,0.6,0.6c-0.6,0.2-0.7,0.6-0.6,0.8c0.1,0.2,0.3,0.5-0.5,0.4c-0.7-0.1-0.9,0.2-1.3,0.5
		c-0.4,0.4-0.5,0.5-1.5,0.2c-1-0.2-1.2-0.1-1.8,0.1c-0.6,0.1-0.7,0.1-1.3-0.1c-0.6-0.2-1.8-0.5-2.5-0.2c-0.7,0.3-1.3,0.6-1.9,0.4
		c-0.6-0.2-0.7-0.1-0.3-0.7c0.4-0.5,0.5-0.5,1.3-0.6c0.8-0.1,1.4-0.4,0.8-0.8c-0.6-0.4-0.7-0.4-1.5,0.1c-0.7,0.5-1.1,0.8-1.9,0.2
		c-0.8-0.6-1.3-0.5-1.8-0.3C395.6,304.4,394.7,304,393.9,303.6L393.9,303.6z"/>
	<path id="path129" class="st11" d="M396.7,305.3c-1.1,0.2-1.3-0.7-2.5-0.5c-0.4,0.1-1,0.6-0.1,0.6c0.9-0.1,1.8,0.5,2.6,0.4
		C397.5,305.7,397.2,305.3,396.7,305.3z"/>
	<path id="path131" class="st11" d="M395.5,306.4c0.6-0.3,1.7,0.2,2.2,0.1c0.5-0.1,1,0.3,0.4,0.5c-0.5,0.2-1.7-0.4-2.3-0.2
		C395.3,307,394.7,306.7,395.5,306.4L395.5,306.4z"/>
	<path id="path133" class="st11" d="M384.4,310.2c0.8,0,3.5-0.1,4.6-3.1c0.1-0.2,0.2-0.3,0.5,0c0.3,0.3,1.6,1.3,4,1.5
		c0.7,0.1,1.4,0.5,0,0.4c-1.3-0.1-3.5-0.6-4.2-1.2c-1.2,2.4-3.4,2.7-5,2.7C383.4,310.5,383.6,310.2,384.4,310.2L384.4,310.2z"/>
	<path id="path135" class="st11" d="M390.3,306.2c-0.4,0.7-1.6,1.8-2.2,1.8c-0.6,0.1-2.3-0.1-2.8-0.4c-0.4-0.2-1-0.1-0.3,0.4
		c0.6,0.6,2.2,0.9,2.8,0.8c0.6-0.2,1.3-0.4,1.8-0.1c0.5,0.4,1.4,1.1,1.9,1c0.5-0.1,1.6-0.1,2,0.1c0.3,0.2,1,0.8,0,0.5
		c-0.9-0.4-1.6-0.1-2.1-0.3c0.5,0.8,1.5,2.2,2.4,2.2c0.2,0,0.3,0.5-0.1,0.7c0.4,0.3,1.5,0.5,2-0.1c-0.1,0.2-0.1,0.4,0.2,0.5
		c0.2,0.1,0.5,0.4,0.1,0.4c-0.4,0.1-1.4,0.2-1.6,0.1c0.9,0.7,3.2,1.9,5.6,1.3c0.5-0.1,0.7-0.4,0-0.3c-1.5,0.1-1.6,0-1.9-0.2
		c-0.3-0.2-0.2-0.4,0.2-0.6c0.4-0.2,1.6-0.4,2-0.4c0.5,0,0.9-0.2,0-0.2c-1,0-2.1,0-2.6-0.2c-0.5-0.2-0.8-0.5-0.3-0.9s1-0.3,1.2-0.7
		c-1.5,0-3.4-1.1-2.4-2c0.2-0.2,0.2-0.2-0.2-0.3c-0.4-0.1-1.6-0.5-2-0.8c-0.5-0.4-0.2-0.7,0.2-0.7
		C393.4,307.9,391.5,307.3,390.3,306.2L390.3,306.2z"/>
	<path id="path137" class="st11" d="M403.9,306.1c-0.8,0.8-2.4,1.1-3.1,1.1s-0.8,0.3-0.2,0.4c0.5,0.1,1.1,0.2,1.3,0.1
		c0.2-0.1,0.4-0.1,0.7,0.1c0.3,0.2,1.1,0.3,1.7,0.1c0.6-0.3,1.7-0.4,2.2-0.4s0.9,0.1,0-0.3c-0.9-0.3-2.3-0.1-2.7,0
		c-0.3,0.1-1.3,0-0.8-0.2s1-0.5,1.2-0.8C404.2,306.2,404.1,306.2,403.9,306.1L403.9,306.1z"/>
	<path id="path139" class="st11" d="M403.5,308.4c-0.7,0.7-1.8,1.3-2.8,1.4c1,0.4,1.8,1.7,2.4,1.7c-0.3,0.2-0.7,0.6-1.1,0.7
		c0.6,0.2,1.6,0,2.5-0.6c1.4,0.5,3.2,0.2,3.8-0.5c-0.9,0-2-0.4-2.5-0.9c0.4,0,0.9-0.4,1.1-0.7C405.8,309.6,404,309,403.5,308.4
		L403.5,308.4z"/>
	<path id="path141" class="st11" d="M402,312.1c0.4-0.1,0.8-0.4,1.1-0.7c-0.8,0.3-4.1-0.4-5.1-1.5c-1-1.1-1-0.3-0.3,0.5
		C398.4,311.3,399.6,312.5,402,312.1z"/>
	<path id="path143" class="st11" d="M404.5,314.9c-0.4,0.3-2.4,0.5-3.1,0.3c-0.6-0.2-0.9-0.1-0.8,0.2c0.2,0.3,0.2,0.6-0.3,0.5
		s-1.5,0.1-1.9,0.2c-0.4,0.2-0.9,0.6,0,0.4c0.8-0.2,1.6-0.4,2.2-0.2c0.6,0.2,2.8,0.3,3.3,0c0.4-0.2,0.1-0.2-0.1-0.2
		c-0.2,0-0.3-0.2,0-0.4C404.2,315.7,404.4,315.2,404.5,314.9L404.5,314.9z"/>
	<path id="path145" class="st11" d="M385.2,311.4c-0.8,0.5-3.6,1.4-4.4,1.5c-0.9,0.5-1.7,0.8-2.1,0.8c0.3,0.4,1.6,0.7,2.1,0.5
		c-0.3,0.4-0.9,0.8-1.2,0.9c0.7-0.1,1.6,0.1,2,0.2c-1,0.7-2.3,0.9-3,0.8c0.2,0.4,0.6,0.8,1,0.8c-0.9,0.3-1.9,0.3-2.5,0.1
		c0.2,0.6,0.5,0.9,0.8,1c-0.7,0.1-1.7,0.3-2.5-0.3c0.6,1,1.9,1.4,3.9,1.1c2-0.3,3.7-1.4,4.1-1.9c-0.8,0.1-1.9,0.2-2.5,0.1
		c1.1-0.4,3.5-1.7,3.9-2.2c-0.5,0-0.9-0.2-1.3-0.5c0.6,0.1,2.9-0.2,3.6-0.6c-0.8-0.2-1.3-0.9-1.6-1.3c2.9,1.2,6.2,0.8,7.7,0.3
		c0.4-0.1,0.4-0.7-0.3-0.7c-1.3,0.1-3.8-0.4-4.4-0.8c0.6,0.6,1.3,0.9,1.9,1.1C389.3,312.8,387.7,313.1,385.2,311.4L385.2,311.4z"/>
	<path id="path147" class="st11" d="M379.6,315.2c0.2-0.2,0.9-0.6,1.2-0.9c-0.5,0.2-1.8-0.2-2.1-0.5c0.5,0,1.2-0.3,2.1-0.8
		c-1.7-0.1-2.8-0.1-3.4-0.5s-1.7-0.3-2.1-0.2c-0.4,0.1-0.3,1,1.5,0.8c-0.7,0.7-2.7,0.9-3.5,0.7c0.2,0.8,0.3,1.5,0.1,2
		c1,0.7,3.5,1.6,4.8,1.5c-1.1-0.5-1.7-1.1-0.8-1.2S378.9,315.5,379.6,315.2L379.6,315.2z"/>
	<path id="path149" class="st11" d="M376.8,319.1c2.2-0.2,5.2-0.3,7.6-2.8c0.6-0.7,1-0.4,0.4,0.2c-1.2,1.4-4.4,3.4-7.3,3.4
		C376.2,319.9,375.7,319.2,376.8,319.1z"/>
	<path id="path151" class="st11" d="M393.4,314.4c-0.6,0.3-2.1,0.6-2.6,0.5c-0.5-0.1-1.1-0.1-1.5,0.2c-0.4,0.3-0.4,0.5,0.1,0.5
		c0.5,0.1,1.2,0.1,1.5,0.1c-0.4,0.3-0.7,0.7-0.8,0.9c0.7-0.2,2.1,0.2,2.5,0.5c-0.3,0.1-0.6,0-0.9-0.2c1.3,1.7,5,1.7,5.6,1.4
		c-0.3,0.3-0.5,0.5-0.8,0.6c1,0.2,2.2,0.2,3.4-0.7c-0.4,0.1-1.6-0.1-1.9-0.1c0.2-0.3,0.6-0.6,0.9-0.7c-0.5-0.1-1.9-0.1-2.3,0.2
		c0.1-0.4,0.4-0.8,0.7-0.9c-1.8,0-4.1,0-4.9-0.6c1.3,0.2,2.7-0.8,3.3-0.8C394.8,315.2,393.7,314.9,393.4,314.4L393.4,314.4z"/>
	<path id="path153" class="st11" d="M388.7,315.7c-0.9,0.2-2.3,0.7-2.6,1c-0.4,0.3-0.8,0.4,0,0.4s3,0.1,3.5,0.2
		c-1.2-0.2-2.9-0.3-3.2-0.3s-0.7,0-0.1-0.3C386.9,316.5,387.7,315.9,388.7,315.7L388.7,315.7z"/>
	<path id="path155" class="st11" d="M386.9,318.4c0.3,0,1.7,0,2.3-0.6c0.6,0.6,1.7,1.4,2.4,1.4c0.7,0,0.6,0.2,0,0.3
		c-0.6,0.1-1.9-0.4-2.5-1C388.3,318.9,387.6,318.6,386.9,318.4L386.9,318.4z"/>
	<path id="path157" class="st11" d="M376.2,326.4c1.4,0.7,3.3,1.2,4.7,0.7c0.8,0.9,2.4,0.9,3.3,0.7c0.9-0.2,1.7-0.4,2.6,0.1
		c1,0.4,3,0.4,3.5,1c-0.5,0-1.6,0-1.9,0.1c-0.3,0.1-0.1,0.3,0.3,0.6c-1.6-0.1-4.3,0.7-5.1,1.7c0.3-0.9,1.2-2.2,2.7-2.2
		c-0.8-0.4-3.5-0.4-4.4,0.3c-0.3-0.4-0.6-0.9-0.6-1.2C380.1,329.2,377.3,327.7,376.2,326.4L376.2,326.4z"/>
	<path id="path159" class="st11" d="M372.5,323.1c1.7-0.3,2.9-1,3.4-1.7c0.3,0.4,1.6,0.7,2.9,0.2c-0.3,0.3-0.3,0.8-0.2,1
		c-0.9,0-2.6,0.6-3.2,1c-0.6,0.4-2.3,0.6-2.8,0.3C372,323.5,372,323.2,372.5,323.1L372.5,323.1z"/>
	<path id="path161" class="st11" d="M378.6,322.6c-0.9,0-2.6,0.6-3.2,1c0.1,0.3,0.2,0.8,0.2,1.1c1.7-0.8,5.5-1.2,7-0.9
		c-0.7,0.1-2,1-2.8,1.1c1.8-0.2,3.6,0.3,4,0.4c0.5,0.1,0.6,0.6,0.2,1c-0.3,0.4-0.5,0.5,0.2,0.5c0.7,0,2.3-0.1,3-0.9
		c-0.3-0.4-1-0.2-1.2-0.5c0.5-0.2,1-0.7,1.3-1c-1.3,0-1.7-0.1-2.1-0.2c-0.4-0.1-0.7-0.3-0.2-0.6c0.5-0.4,0.7-0.7,0.9-0.9
		c-0.9,0.3-2.3,0.6-3.5-0.6c0.4,0.1,1.5,0.1,1.9-0.1c-0.4-0.3-0.7-0.5-1-0.5c0.9-0.6,2.8-1.1,5.1,0.1c1.2-0.1,2.4-0.1,3.3,0.2
		c0.4-0.5,1.2-1.6,1.6-1.9c-2.7,0.3-7.6-0.4-7.6-2.2c-0.9,1.5-2.9,2.3-3.8,2.1c-0.1,0.5,0.3,1.2,0.6,1.5c-0.9,0.2-2.5,0.4-3.2,0.2
		c0.4,0.5,1.2,1,1.7,0.9C379.9,322.5,379.4,322.7,378.6,322.6L378.6,322.6z"/>
	<path id="path163" class="st11" d="M384.3,326.8c0.7,0,2.3-0.1,3-0.9c-0.3-0.4-1-0.2-1.2-0.5c0.5-0.2,1-0.7,1.3-1
		c1.9-0.2,3.7-0.1,4.5-0.4c0.8-0.3,3-0.1,3.4-0.3c-1.9,0.4-2.2,0.6-2.3,1c-0.1,0.4,0.6,0.7,1,0.7c-0.8-0.1-1.9,1.1-2,1.5
		c-1.1-0.8-1.6,0.1-1.8,0.5c-0.5-0.2-2-0.2-2.8,0.7c-1-0.4-1.7-0.6-2.7-0.4C385.3,327.5,385.2,326.9,384.3,326.8L384.3,326.8z"/>
	<path id="path165" class="st11" d="M393.2,319.9c0.6,0,2,0.1,2.5,0c-0.3,0.2-0.7,0.6-0.8,0.8c1.6-0.2,3.7-0.4,4.4-0.3
		c-0.8-0.1-1.6,0.5-1.9,0.8c-0.4,0.3-0.2,0.5,0.4,0.6c0.5,0.1,1.3,0.6,0.3,0.4c-1-0.2-2.9-0.2-3.4-0.1c-0.5,0.1-0.7-0.2,0-0.3
		c0.7-0.1,1.1-0.4,1.5-0.7c-0.6,0.2-1.6,0.2-1.9,0.1c-0.3-0.1-0.5-0.4-0.2-0.5c0.4-0.1,0.1-0.3-0.3-0.2c-0.4,0.1-1.4,0.6-1.9,1.3
		C392.2,321,392.7,320.3,393.2,319.9L393.2,319.9z"/>
	<path id="path167" class="st11" d="M386.1,321.2c0.8,1.1,1.7,1.7,3.1,1.8c0.3,0,0.9,0.5,0.1,0.6c-1.9,0.1-2.9-0.5-3.8-2.1
		C385.4,321.1,385.7,320.7,386.1,321.2z"/>
	<path id="path169" class="st11" d="M410.8,307.7c-0.6,0.5-1.3,1.4-0.8,2.6c0.1,0,0.1-0.1,0.2-0.1c2.3-3.5,4.2-7.2,5.9-11
		c0-0.1,0-0.3,0-0.4c-0.6,0.7-1.7,1.4-2.1,1.6c0.3,0.9-1,2.2-1.7,2.5c0.3,0.6,0.2,1.5-0.4,1.7c0.1,0.5-0.3,0.5-0.9,0.8
		c-0.6,0.3-0.8,0.5-1,0.9c0.3-0.2,0.7-0.4,0.9-0.3c0.2,0.1,0.3,0.5-0.1,0.7s-0.7,0.4-0.8,0.7C410.5,307.1,411.4,307.2,410.8,307.7
		L410.8,307.7z"/>
	<path id="path171" class="st11" d="M370,294.2c0.7,0.6,1.9,1.7,3.5,1.5c0.8,0.8,2,1.5,2.6,1.6c-1.1,0.6-2.2,1-2.5,1.5
		c-0.5-0.6-1.1-0.5-1.3-0.8c-0.5,0.5-0.4,0.8-0.1,1s2.6,0.7,3.2,0.5c0.6-0.2,0.7,0.4,0.3,0.6c-1.3,0.6-3.7,0-4.5-1.7
		c-0.8-1.7-1.6-2.4-3.8-0.8c-0.3-0.8-0.3-1-0.7-1c-0.4,0-1.3-0.7-0.6-0.7C366.6,296,368.4,295.7,370,294.2L370,294.2z"/>
	<path id="path173" class="st11" d="M370.5,298.1c-0.4,0.1-1.5,0.9-1.9,0.9c-0.4,0.1-1.1,0.8-0.4,0.8c0.7,0,1.6-1,2.2-1.1
		C370.9,298.6,371,297.9,370.5,298.1z"/>
	<path id="path175" class="st11" d="M373.5,300.8c0.1,0.3,0.1,0.6,0,0.8c-0.1,0.2-0.1,0.5,0.2,0.2c0.3-0.3,0.5-0.7,0.8-0.4
		c0.3,0.2,1.1,0.2,1.4,0.1c0.3-0.1,0.5-0.1,0-0.4c-0.5-0.3-1-0.4-1.3-0.3c-0.3,0-0.6-0.1-0.9-0.2S373.5,300.5,373.5,300.8
		L373.5,300.8z"/>
	<path id="path177" class="st11" d="M384.5,300.9l-0.1,0.4c0.9,0,2.9,0.2,3.6,0.8c0.6-0.7,0.5-0.9,1-0.7s1,0.3,1.3,0.1
		s0.4-0.1,0.7-0.1c0.3,0.1,0.9-0.1,1.2-0.4c0.3-0.3,1.1-0.6,1.5-0.6s0.9-0.1,0.2-0.3c-0.8-0.1-1.9,0.1-2.3,0.3
		c-0.4,0.2-1.6,0.3-2.3,0.3c-0.7,0-1.6,0.4-2.4,0.2C386.1,300.8,385,300.9,384.5,300.9L384.5,300.9z"/>
	<path id="path179" class="st11" d="M397.7,300.5c1,0.6,3.1,1.2,4.7,1.1c0.3,0,0.8,0.4,0.1,0.4c-1.8,0.2-3.4-0.1-4.9-1.2
		C397.2,300.5,397.3,300.3,397.7,300.5L397.7,300.5z"/>
	<path id="path181" class="st11" d="M398.8,300.5c1.6-0.1,2.8,0,3.2,0.6c0.9-0.4,2.5-0.6,2.9-0.5c0.4,0.1,0.8-0.1-0.1-0.4
		c-0.9-0.3-2.8-0.4-3.5-0.2c-0.6,0.1-2.6,0.2-3.2,0.1C398.4,300.2,398.6,300.2,398.8,300.5L398.8,300.5z"/>
	<path id="path183" class="st11" d="M404.9,301.3c0.7-0.5,2.9,0,3.5-0.4c-0.5,0.7,1.5,0.8,3.2,0.2c-0.6,0.5-2,0.6-2.6,0.9
		c-0.6,0.3-0.9,0.1-1.4-0.2C407.1,301.6,405.9,301.1,404.9,301.3L404.9,301.3z"/>
	<path id="path185" class="st11" d="M411.6,301.1c-1.7,0.6-3.6,0.5-3.2-0.2c-0.6,0.4-2.8-0.1-3.5,0.4c0.8-0.6,1.3-0.1,1.9-1.3
		c0.3,0.1,1.2,0.2,1.4-0.3c0.5,0.1,1.3,0.4,1.6,0.7c0.3,0.3,0.6-0.1,0.3-0.6c0.8-0.4,0.3,0.4,2.1-0.1c0.4-0.1,1.3-0.3,1.6-0.4
		C413.2,299.9,412.4,300.6,411.6,301.1L411.6,301.1z"/>
</g>
<path id="path191" class="st12" d="M425.6,237.8c-0.1,37.2-4.7,77.4-42.4,96.5c-37.7-19.1-42.3-59.2-42.4-96.5H425.6z"/>
<g id="g207" transform="translate(-8e-5,-2.56e-4)">
	<path id="path193" class="st9" d="M357.6,254.5c-0.6,1-1.3,1.9-2.2,2.7c-0.9,0.8-2,1.4-1.4,2.8c0.6,1.3,1.1,1.5,1.2,2.5
		c0.1,1,0.3,1.9,0.9,2.1c0.6,0.2,0.9,0.1,0.9,1.7c0,1.7,0,2.3,0.6,2.9c0.6,0.6,0.5,1.3,0.7,2.8c0.2,1.5,0.2,4.7,1,7
		c0.7,2.2,2.4,6.4,2.2,7.3c-0.2,0.9-0.4,1.5,0.3,2.5c0.7,1,1.2,2.5,1.3,3.4c0.1,0.9,0.2,1.2,0.9,0.9c0.7-0.3,1.1-0.6,1.4-1
		c0.2-0.4,0.7-0.3,1.4,0.2c0.7,0.5,1.7,0.9,2.3,0.5c0.6-0.5,0.9-1.2,1.5-1.2c0.9-0.8,1.2-2.5,1.4-2.9c0.2-0.5,0.1-0.5-0.3-0.9
		c-0.4-0.5-0.2-1.3-0.2-2.1c-0.1-0.8-0.3-2-1.1-3.7c-0.7-1.7-1.2-3.9-1.7-4.4c-0.5-0.6-0.7-1.9-0.8-2.5c-0.1-0.6-0.6-1.2-1-1.7
		c-0.4-0.5-0.7-1.2-1.2-3.9c-0.4-2.8-0.7-4.7-0.7-5.2c0-0.5-0.1-0.6-0.4-0.7c-0.4-0.2-0.6-0.9-0.4-1.3c0.1-0.4-0.1-0.8-0.2-1.3
		c-0.1-0.5,0-1.3,0.2-1.8c0.2-0.5,0.2-1.8-0.1-2.9c-0.2-1.1-0.5-2.1-1.5-2.2c-1-0.2-1.2-0.5-1.5-1.5c-0.4-1-0.7-2.8-0.9-3.2
		c-0.1-0.4-0.3-0.5-1.1,0.3c-0.7,0.8-1,1.1-1,2.5c0,0.9,0.1,1.3,0.4,1.8c0.2,0.6,0.3,0.7,0.5,2.2c0.2,1.5,1.2,3.9-0.1,5.2
		c-1.4,1.3-1.2,1.7-1.1,2.6c0.1,0.9-0.4,1.6-0.6,0.2c-0.2-1.3,0-2.1,0.7-2.8c0.7-0.6,1.4-1.4,0.9-2.3c-0.5-0.9-0.7-2.9-0.7-3.9
		C358.2,254.1,358.1,253.8,357.6,254.5L357.6,254.5z"/>
	<g id="g205">
		<path id="path195" class="st10" d="M346.6,274.7c0,0.6,0.1,1.3,0.1,1.9c0,0.7,0.2,2-0.2,3c-0.4,1-0.3,1.5,0,1.8c0,0,0,0,0,0
			c0.8-0.3,0.9-1.4,0.7-1.9c-0.2-0.6-0.2-1.2,0.1-1.8c0.2-0.6,0.2-0.9,0-1.3c-0.2-0.4-0.2-0.4,0-1.5
			C347.6,274,347.1,274,346.6,274.7L346.6,274.7z"/>
		<path id="path197" class="st10" d="M354.5,290c-0.1-0.7-0.6-3.4-0.7-5.2c0-1.8-0.6-3.2-1.8-4.6c-0.9-1.1-1.1-2.8-1.1-4.1
			c-0.7-0.5-1-0.3-0.9,0.7c0.1,1.1,0.9,1.6,0.8,3.1c-0.1,1.5-0.1,1.1,0.5,1.9s0.8,1.5,0.5,1.8c-0.3,0.3-0.3,0.9,0.1,1.1
			c0.4,0.2,0.5,0.8,0.4,1.3c-0.1,0.6,0.3,0.7,0.6,1.1c0.2,0.4,0.3,1.3,0,1.9c-0.2,0.6-0.3,1.4,0.2,0.9c0.4-0.5,0.6,0,1,0.7
			c0.3,0.6,0.5,0.4,0.9,0.2C354.7,290.6,354.6,290.3,354.5,290z"/>
		<path id="path199" class="st10" d="M350.9,257.1c-0.5,0-0.8,0.6-0.5,2.4c0.2,1.1-0.5,0.9-0.7,0.3c-0.2-0.6-0.4-1.7-0.9-2.8
			c-0.5-1-0.2,0.7-0.3,1.7c-0.1,0.9,0.4,0.9,0.9,1.7c0.4,0.8,0.1,1.1-0.4,1.1c-0.5,0-0.2,1.3-0.1,2.1c0.1,0.9-0.1,1-0.5,0.3
			c-0.4-0.7-0.1-1.8-0.1-3.2c0.1-1.3,0.1-1-0.6-1.3c-0.7-0.3-0.6-0.5-0.3-1.3c0.2-0.8,0.5-1.2,0.2-1.6c-0.3-0.4-0.2-0.6,0.2-0.7
			c0.5-0.1,0.3-0.6,0.7-0.7c0.4-0.2,0.6,0.1,0.7-0.9c0.1-0.9,0.3-1.4,0.8-1.1C350.2,254.4,350.6,256.5,350.9,257.1L350.9,257.1z"/>
		<path id="path201" class="st10" d="M362.2,271.3c0.2-1.7,0.1-3.5,0.6-4.1c0.6-0.6,1.2-1.9,1.2,0.8c-0.1,2.7-0.1,2.5-0.6,3.2
			c-0.4,0.6-0.8,0.8-0.4,1.8c0.4,1,0.5,1.1,0.4,2.7c-0.1,1.6-0.1,2.2,0.4,3c0.5,0.8,0.6,0.9,0.7,1.7c0.1,0.9,0.6,2.1,1.1,2.7
			c0.6,0.6,1.2,2.4,1.2,3.7c0.1,1.3,0.9,1.6,1.7,2.4c0.8,0.9-0.2,1.5-0.8,1.1c-0.6-0.4-0.4,0-0.7,0.6c-0.4,0.6-0.5,0.6-0.8-0.3
			c-0.3-0.9-1.4-1.6-1.9-1.8c-0.5-0.2-0.9-1.3-1.4-2.3c-0.4-0.9-1.1-1.5-1.8-1.6c0.2,0.7,0.3,1.2,0.2,1.4c-0.2,0.9-0.4,1.5,0.3,2.5
			c0.7,1,1.2,2.5,1.3,3.4c0.1,0.9,0.2,1.2,0.9,0.9c0.7-0.3,1.1-0.6,1.4-1c0.2-0.4,0.7-0.3,1.4,0.2c0.7,0.5,1.7,0.9,2.3,0.5
			c0.6-0.5,0.9-1.2,1.5-1.2c0.9-0.8,1.2-2.5,1.4-2.9c0.2-0.5,0.1-0.5-0.3-0.9c-0.4-0.5-0.2-1.3-0.2-2.1c-0.1-0.8-0.3-2-1.1-3.7
			c-0.7-1.7-1.2-3.9-1.7-4.4c-0.5-0.6-0.7-1.9-0.8-2.5c-0.1-0.6-0.6-1.2-1-1.7c-0.4-0.5-0.7-1.2-1.2-3.9c-0.3-2.2-0.6-3.8-0.7-4.7
			c-0.4,0.9-0.7,1.1-0.9,0.5c-0.2-0.7-0.4-1.1-0.7-0.6c-0.2,0.5-0.3-0.4-0.3-0.8c0-0.4-0.1-0.5-0.4-0.5c-0.3,0-0.1-0.6-0.2-1.8
			c-0.1-1.2-0.3-1.3-0.4,0.1c-0.1,1.4-0.7,2.3-0.5,2.6c0.2,0.3,0.1,0.9-0.1,1.9c-0.2,0.9-0.1,1.5,0.1,2.1c0.2,0.6-0.1,1.8-0.2,2.8
			C361.4,272,362,273,362.2,271.3L362.2,271.3z"/>
		<path id="path203" class="st10" d="M357.1,266.4c0,1.7,0,2.3,0.6,2.9s0.5,1.3,0.7,2.8c0.2,1.5,0.2,4.7,1,7
			c0.2,0.7,0.5,1.5,0.8,2.4c0.4-0.4,0.8-1.1,0.9-1.5c0.2-0.6-0.4-1.7-0.8-2.6c-0.4-0.9,0.1-1.3,0.5-2.5c0.4-1.2-0.1-1.3-0.7-1.6
			c-0.7-0.3-0.7-1.1-1.1-2.4c-0.4-1.3-0.3-1.8-0.1-2.5c0.2-0.7,0.1-1.3-0.4-1.4c-0.5-0.2-0.4-0.6-0.2-1.4c0.2-0.8,0.3-0.9-0.4-0.7
			c-0.6,0.2-0.7,0.3-0.9,0.6C357.1,265.6,357.1,265.9,357.1,266.4L357.1,266.4z"/>
	</g>
</g>
<g id="g607" transform="matrix(1.3129567,0,0,1.3129567,-857.55727,-110.01291)">
	<g id="g221">
		<path id="path209" class="st13" d="M934,286.2l-1.1,15.9"/>
		<path id="path211" class="st13" d="M937.4,295.9c-0.5,2.7-1.1,5.7-1.7,8.3"/>
		<path id="path213" class="st13" d="M952.2,288.3c0.9,1,2,1.3,3.3,2.1"/>
		<path id="path215" class="st13" d="M957.9,295.3l-0.6,6.1"/>
		<path id="path217" class="st13" d="M957.2,295.6l-1.1,6.3"/>
		<path id="path219" class="st13" d="M936.7,296.1c-0.5,2.6-1.2,5-1.9,7.4"/>
	</g>
	<path id="path223" class="st14" d="M961.2,310.9C961.1,310.9,961.1,310.9,961.2,310.9c-0.1,0-0.2,0-0.2,0c0,0-0.1,0-0.1,0
		c0,0-0.1,0-0.1,0c0,0-0.1,0-0.1,0c0,0-0.1,0-0.1,0c0,0,0,0-0.1,0.1c0,0,0,0.1,0,0.1c0,0,0,0,0,0.1c0,0,0,0,0,0.1c0,0,0,0,0,0.1
		c0,0,0,0-0.1,0.1s0,0-0.1,0.1c0,0,0,0,0,0.1c0,0,0,0.1,0,0.1c0,0,0,0.1,0,0.1c-0.2,0.2-0.5,0.4-0.9,0.5c-0.2,0.1-0.8,0.1-1,0
		c-0.4,0-0.9,0-1.2-0.3c-0.3-0.2-0.7-0.1-1,0.1c-0.2,0.1-0.2,0.4-0.5,0.5c-0.1,0.2-0.7,0.2-1,0.1c-0.5,0-0.8-0.2-1.2-0.3
		c-0.2-0.2-0.6-0.4-0.9-0.1c-0.2,0.2-0.4,0.4-0.7,0.5c-0.5,0-1.1,0.1-1.5-0.2c-0.4,0-0.6-0.3-1-0.5c-0.4-0.1-0.6,0.2-0.9,0.3
		c-0.2,0.3-0.6,0.3-1,0.3c-0.5,0-1,0.1-1.3-0.2c-0.4-0.1-0.6-0.3-0.9-0.5c-0.3-0.3-0.8,0-1,0.2c-0.4,0.1-0.6,0.5-1.1,0.4
		c-0.4-0.1-0.7-0.3-1.1-0.4c-0.4-0.2-0.7-0.5-1.3-0.5c-0.2,0.3-0.5,0.4-0.9,0.4c-0.3,0-0.7,0-0.9-0.1c-0.7,0-1-1-1.5-1.4
		c-0.8-1-1.6-2.1-2.5-3.1c0.1-0.6,0.2-0.7,0-1c0.1-0.6-0.2-0.6-0.1-1.2c0.2-0.4-0.3-0.4-0.5-0.6c-0.3-0.1-0.4-0.4-0.7-0.5
		c-0.2-0.2-0.5-0.3-0.8-0.5c-0.3-0.1-0.5-0.3-0.7-0.5c-0.2-0.2-0.4-0.3-0.6-0.5c-0.2-0.1-0.4-0.3-0.6-0.5c-0.2-0.1-0.4-0.3-0.6-0.5
		c-0.2-0.2-0.4-0.4-0.6-0.5c-0.3-0.1-0.6-0.4-0.9-0.5c-0.2,0-0.3-0.7,0.1-0.6c0.3,0,0.5,0.3,0.7,0.4c0.4,0.2,0.7,0.4,1.1,0.5
		c0.2,0.2,0.5,0.3,0.8,0.4c0.2,0.2,0.6,0.3,0.9,0.5c0.3,0.2,0.6,0.4,0.8,0.5c0.2,0.1,0.4,0.4,0.6,0.5c0.1,0.1,0.3,0.2,0.4,0.4
		c0.3,0.1,0.5,0.3,0.7,0.4c0.2,0.2,0.4,0.2,0.5,0.4c0.2,0.1,1.6,1,1.5,0.9c1.3,0.3,1.9,0.4,3.3,0.7c3.2,0.1,6.5,0.1,9.7,0.2
		c1.2-0.6,2.4-1.3,3.5-1.9c0.4-0.7,0.7-1.5,1.1-2.2c1.7-0.4,3.5-0.8,5.2-1.2c-0.1-0.1,9.2-0.4,9.4,0.6c0.1,0.4,0.3,1.3,0,1.5
		c-0.2,0.1-8.7-1.4-8.9-0.4c-0.1,0.4,0,3.1,0.1,3.5c0,0.4,0.1,0.9,0.1,1.3s0.1,0.9,0.1,1.3c0,0.4,0.1,0.9,0.1,1.3
		C961.1,310,961.1,310.5,961.2,310.9L961.2,310.9L961.2,310.9L961.2,310.9L961.2,310.9z"/>
	<g id="g261">
		<path id="path225" class="st13" d="M934.7,294c-1.6,2.3-3.1,4.1-4.8,5.9"/>
		<path id="path227" class="st13" d="M943.4,284.6l5.1-5.7"/>
		<path id="path229" class="st13" d="M941.1,290.2c1,0.9,2.2,1.7,3.7,2.3"/>
		<path id="path231" class="st13" d="M940.4,281.6c0.6,1.3,1.4,2.5,3.6,3.3"/>
		<path id="path233" class="st13" d="M938.9,268.7c-0.7,1.2-1.8,2.3-3.2,3.2"/>
		<path id="path235" class="st13" d="M940.7,276.7c0.7,0.9,1.7,1.4,2.8,1.9"/>
		<path id="path237" class="st13" d="M940.7,296.4c0.5,3.2,1,5.8,1.5,8.5"/>
		<path id="path239" class="st13" d="M940.3,304.8c2.6-3.5,4.9-7.2,6.4-11.5"/>
		<path id="path241" class="st13" d="M952.1,280.7c0.8,1.2,1.7,2,3.1,2.5"/>
		<path id="path243" class="st13" d="M955.7,276.5c0.7,1.7,1.6,2.9,2.4,4.3"/>
		<path id="path245" class="st13" d="M947.9,271.3c-0.1,1.6-0.9,3.3-1.4,4.7"/>
		<path id="path247" class="st13" d="M949.8,272.1c-0.9,1.3-1.8,2.8-3.1,3.6"/>
		<path id="path249" class="st13" d="M949.9,266.3c-0.6,0.6-1.5,1.2-2.2,1.6"/>
		<path id="path251" class="st13" d="M959.5,278.8c-0.8,1.2-1.6,2.6-2.8,3.6"/>
		<path id="path253" class="st13" d="M959.7,288.7c-1,1.2-1.9,2.6-3,3.6"/>
		<path id="path255" class="st13" d="M965.4,295.7c-1.8,1.8-3.6,3.5-5.6,4.8"/>
		<path id="path257" class="st13" d="M960.8,300.8c1.7-1.3,3.2-3.2,4.6-5"/>
		<path id="path259" class="st13" d="M960.3,279c0.3,1.1,1.1,2.3,1.8,3"/>
	</g>
	<path id="path263" class="st15" d="M959.2,268.2l-0.1,32.6l1.8-0.1l-0.8-32.5L959.2,268.2z"/>
	<g id="g273">
		<path id="path265" class="st16" d="M960.4,310.2c0.4,0.3,0.7,0.6,1.1,1.1c0.8,1,1.3,1,2.5,0c0.4,0.1,0.9,0.4,1.3,0.2
			c0.4,0,0.8-0.1,1.2-0.2c0.5-0.2,0.6-0.9,0.7-1.4c0.2-0.6,0.5-1.2,0.8-1.7c0.4-0.4,0.9-0.7,1.2-1.3c0.3-0.5,0.3-1.2,0.2-1.8
			c0-0.6-0.1-1.1-0.1-1.7c-0.1-0.7,0.4-1.3,0.3-2c-0.3-0.3-0.8-0.4-1.1-0.6c-0.7-0.2-1.4-0.3-2-0.4c-0.6-0.1-1.1-0.1-1.7-0.2
			c-0.6-0.1-1.1-0.1-1.7-0.1c-0.6,0-1.3-0.1-1.9,0.1c-0.4,0.1-1,0.1-1.3,0.3c-0.2,0.5-0.3,1.1-0.3,1.7c-0.1,0.5-0.1,1-0.1,1.5
			c0,0.9-0.1,1.9,0.1,2.8c0.1,0.7,0.2,1.5,0.3,2.2C960.1,309.2,960.1,309.8,960.4,310.2L960.4,310.2z"/>
		<g id="g271">
			<path id="path267" class="st13" d="M962.6,294.4l2.5,6"/>
			<path id="path269" class="st13" d="M968.8,300.7c-0.7-1-1.3-2.2-1.8-3.6"/>
		</g>
	</g>
	<g id="g287">
		<path id="path275" class="st17" d="M968.6,291.3l0.8,0.7l0.1,0C969.3,291.7,969,291.4,968.6,291.3
			C968.6,291.3,968.6,291.3,968.6,291.3L968.6,291.3z"/>
		<path id="path277" class="st17" d="M966.9,291.6C966.9,291.6,966.8,291.6,966.9,291.6l-1.3,5.9L966.9,291.6z"/>
		<path id="path279" class="st17" d="M972.4,291.8c-0.3,0-0.6,0.2-0.8,0.4l0.5-0.2l0.6-0.1C972.6,291.8,972.5,291.8,972.4,291.8
			L972.4,291.8z"/>
		<path id="path281" class="st17" d="M967,297.1l-0.2,0.1C966.9,297.2,967,297.2,967,297.1c0.1,0.1,0.3,0.2,0.3,0.2L967,297.1z"/>
		<path id="path283" class="st17" d="M967.5,297.5c0.3,0.2,0.5,0.5,0.9,0.6L967.5,297.5z"/>
		<path id="path285" class="st17" d="M970.2,297.8l-1.5,0.4C969.2,298.2,969.7,297.9,970.2,297.8z"/>
	</g>
	<path id="path289" class="st18" d="M967,291.2l-1.3,6.2l1.4-0.4l1.5,1.1l2.2-0.6l1.1,0.2c0.3-2,0.2-4.4,1.2-6.1l-0.9,0.2l-1.5,0.7
		l-1.2-0.6l-0.9-0.8L967,291.2z"/>
	<path id="path291" class="st19" d="M969.1,292c-0.2,0.6-0.5,1.2-0.5,1.8c0,0-0.6-0.3-1-0.4c-0.4-0.1-1.1,0-1.1,0l0,0l-0.3,1.5
		c0,0,0.9-0.1,1.3-0.1c0.3,0.1,0.8,0.4,0.8,0.4c-0.1,0.8-0.3,1.6-0.4,2.4l0.3,0.2l0.6,0.2l0,0l0.3-0.1c0.1-0.8,0.2-1.7,0.5-2.2
		c0,0,0.9,0.3,1.4,0.3c0.3,0,1.1-0.1,1.2-0.2c0-0.5,0.1-1,0.2-1.5c-0.2,0.1-0.9,0.3-1.4,0.2c-0.4,0-1.1-0.5-1.1-0.5
		c0.1-0.5,0.3-1,0.5-1.5L969.1,292z"/>
	<path id="path293" class="st13" d="M966,291.2c-0.6-2.1-1.3-5.5-1.6-8.2"/>
	<g id="g303">
		<path id="path295" class="st20" d="M966.5,291.7c0,0,1.5-0.4,2.1-0.3c0.6,0.2,1,1.1,1.7,1.2c0.7,0.1,1.4-0.8,2.1-0.8
			c0.4,0,1.1,0.2,1.1,0.2l-0.5,2.3l-0.4,1.9v1.7c0,0-1.2-0.4-1.9-0.3c-0.8,0.1-1.4,0.7-2.2,0.5c-0.6-0.1-0.9-0.7-1.4-0.9
			c-0.5-0.2-1.7,0.2-1.7,0.2L966.5,291.7z"/>
		<g id="g301">
			<path id="path297" class="st21" d="M966.8,291.6l-0.6,0l-1.8,8.4l0.9,0L966.8,291.6z"/>
			<path id="path299" class="st21" d="M966.2,291.7c-0.3-0.2-0.4-0.7-0.3-1.1c0.1-0.4,0.6-0.5,1-0.4c0.3,0.1,0.8,0.6,0.7,1.1
				C967.4,291.9,966.6,292,966.2,291.7z"/>
		</g>
	</g>
	<path id="path305" class="st17" d="M972.9,291.9c-0.9,1.7-0.8,3.9-1.2,5.9c0.4,0.1,0.8,0.2,0.8,0.2v-1.7l0.4-1.9l0.5-2.3
		C973.5,292,973.2,291.9,972.9,291.9z"/>
	<g id="g335">
		<path id="path307" class="st13" d="M962.5,285.1c0.9,0.8,1.8,2.9,3.1,4.6"/>
		<path id="path309" class="st13" d="M964.2,282c-0.7-2.3-1.2-6-1.3-8.8"/>
		<path id="path311" class="st13" d="M961.5,295.5l1.4,4.8"/>
		<path id="path313" class="st13" d="M962.9,271c-1.2-0.4-2.4-1.5-2.6-2.4"/>
		<path id="path315" class="st13" d="M954.8,272.5c0.8,0.1,3.6-2.6,4-4"/>
		<path id="path317" class="st13" d="M962,294.8l2,5.4"/>
		<path id="path319" class="st13" d="M961.8,296.6l1.4-0.7"/>
		<path id="path321" class="st13" d="M962.1,297.6l1.5-0.8"/>
		<path id="path323" class="st13" d="M962.7,299.7l1.7-0.9"/>
		<path id="path325" class="st13" d="M961,289l2,2.8"/>
		<path id="path327" class="st13" d="M956.7,295.7l-1.4,6.1"/>
		<path id="path329" class="st13" d="M956.3,297.1l1.4,0"/>
		<path id="path331" class="st13" d="M956,298.6l1.6,0.1"/>
		<path id="path333" class="st13" d="M955.6,300.1l1.8,0.4"/>
	</g>
	<g id="g369">
		<path id="path337" class="st22" d="M960.3,267.4c-0.3-0.1-1.2-0.2-1.5,0.2c-0.2,0.2,0,0.8,0.2,0.8c0.5,0,1.1,0,1.2-0.1
			C960.4,268.1,960.5,267.5,960.3,267.4L960.3,267.4z"/>
		<path id="path339" class="st23" d="M955.2,272.5c0.6,3.2,3.2,2.7,3.1-0.3"/>
		<path id="path341" class="st24" d="M957.6,272.3c0.8,3.7,4.2,3,4-0.3"/>
		<path id="path343" class="st25" d="M960.5,272.3c0.8,2.7,1.8,2.2,3.1-0.3"/>
		<path id="path345" class="st26" d="M964.4,271l-9.6,0.7l0,0.8l9.7-0.6L964.4,271z"/>
		<path id="path347" class="st27" d="M955.6,283.4c0.6,3.5,3.3,3,3.2-0.2"/>
		<path id="path349" class="st28" d="M958.1,283.3c0.8,4,4.3,3.4,4.2-0.2"/>
		<path id="path351" class="st29" d="M961.1,283.3c0.8,3,1.9,2.4,3.3-0.2"/>
		<path id="path353" class="st30" d="M965.1,282l-10,0.6l0,0.9l10.1-0.5L965.1,282z"/>
		<path id="path355" class="st31" d="M955.3,293.3c0.6,3.6,3.4,3,3.3-0.3"/>
		<path id="path357" class="st32" d="M957.9,293.1c0.7,5.3,4.5,3.4,4.3-0.3"/>
		<path id="path359" class="st33" d="M960.9,293c0.8,3,2,2.4,3.3-0.3"/>
		<path id="path361" class="st34" d="M965.1,291.6l-10.2,0.8l0,0.9l10.3-0.7L965.1,291.6z"/>
		<g id="g367">
			<path id="path363" class="st35" d="M961.7,277.4l-3.8,0.1l0,1.2l3.8,0L961.7,277.4z"/>
			<path id="path365" class="st35" d="M961.7,287.7l-3.8,0.1l0,1.2l3.8,0L961.7,287.7z"/>
		</g>
	</g>
	<g id="g389">
		<path id="path371" class="st13" d="M952.2,293.4l2.8,8.7"/>
		<path id="path373" class="st13" d="M938,296.1c-0.3,2.7-0.8,6.2-1.3,8.9"/>
		<path id="path375" class="st36" d="M969.4,301.3c-1.6-0.3-3.2-0.7-4.8-0.8c-1.3-0.1-2.5,0-3.8,0.2c-1.8,0.2-3.7,0.3-5.5,1
			c-0.2,0.1-0.5,0.2-0.7,0.4c-0.5,0.6-0.5,1.7-1,2.4c-0.4,0.7-2,1.9-2.5,2.3c-4.1,0.1-8.6,0.1-13.7-0.9l-0.7-1l-0.3-0.4l0.8,0.4
			l1.8,0.1l4.4-0.2c0,0,3.7,0,5.6-0.1c1.1-0.1,2.1-0.1,3.2-0.3c0.2,0,0.5,0,0.7-0.2c0.3-0.3,0.4-0.8,0.6-1.2
			c0.2-0.4,0.3-0.8,0.6-1.1c0.8-0.8,1.8-0.7,2.7-0.9c1-0.3,2-0.3,3.1-0.5c1.2-0.2,2.4-0.3,3.7-0.4c0.8-0.1,1.6-0.1,2.4-0.1
			c1.2,0.1,2.5,0,3.5,0.8c0.2,0.1,0.5,0.4,0.4,0.7C969.8,301.6,969.6,301.4,969.4,301.3L969.4,301.3z"/>
		<g id="g387">
			<path id="path377" class="st13" d="M950.8,266.3c0.6,0.6,1.7,1.1,2.8,1.3"/>
			<path id="path379" class="st13" d="M949.5,288.3c-1.3,1.2-2.6,2-4,2.6"/>
			<path id="path381" class="st13" d="M953.2,303.8l-2.2-7.5"/>
			<path id="path383" class="st13" d="M951.4,293.8l2.6,8.6"/>
			<path id="path385" class="st13" d="M951.1,296l1.7-0.8"/>
		</g>
	</g>
	<path id="path391" class="st37" d="M949.9,265.2l-0.5,40l1.8-0.1l-0.3-39.9L949.9,265.2z"/>
	<path id="path393" class="st13" d="M952.1,271.3c0.7,1.8,1.9,3.2,3.6,4.2"/>
	<g id="g411">
		<path id="path395" class="st27" d="M946.1,268.8c0.6,3.5,3.3,3,3.2-0.2"/>
		<path id="path397" class="st28" d="M948.6,268.7c0.8,4,4.3,3.4,4.2-0.2"/>
		<path id="path399" class="st29" d="M951.6,268.7c0.8,3,2.1,3.2,3.3-0.2"/>
		<path id="path401" class="st30" d="M955.6,267.4l-10,0.6l0,0.9l10.1-0.5L955.6,267.4z"/>
		<path id="path403" class="st27" d="M946.1,276.9c0.6,3.5,3.3,3,3.2-0.2"/>
		<path id="path405" class="st28" d="M948.6,276.8c0.8,4,4.3,3.4,4.2-0.2"/>
		<path id="path407" class="st29" d="M951.6,276.8c0.8,3,3,2.5,3.3-0.2"/>
		<path id="path409" class="st30" d="M955.6,275.5l-10,0.6l0,0.9l10.1-0.5L955.6,275.5z"/>
	</g>
	<path id="path413" class="st13" d="M949,281.4c-0.9,0.8-1.7,1.7-2.9,2.2"/>
	<g id="g423">
		<path id="path415" class="st27" d="M945.8,284.5c0.6,3.5,3.3,3,3.2-0.2"/>
		<path id="path417" class="st28" d="M948.3,284.4c0.8,4,4.3,3.4,4.2-0.2"/>
		<path id="path419" class="st29" d="M951.3,284.4c0.8,3,2.8,2,3.3-0.2"/>
		<path id="path421" class="st30" d="M955.3,283.1l-10,0.6l0,0.9l10.1-0.5L955.3,283.1z"/>
	</g>
	<g id="g431">
		<path id="path425" class="st13" d="M947,293.7c-0.3,4-1.5,7.5-2.3,11.3"/>
		<path id="path427" class="st13" d="M948.1,293.7c-0.3,3.8-1.2,7.5-2,11.1"/>
		<path id="path429" class="st13" d="M949.1,293.3c-0.4,4.3-0.8,7.8-1.5,11.4"/>
	</g>
	<g id="g447">
		<path id="path433" class="st27" d="M945.9,291.7c0.6,3.5,3.3,3,3.2-0.2"/>
		<path id="path435" class="st28" d="M948.4,291.6c0.8,4,4.3,3.4,4.2-0.2"/>
		<path id="path437" class="st29" d="M951.4,291.6c0.8,3,2.8,2.4,3.3-0.2"/>
		<path id="path439" class="st30" d="M955.5,290.3l-10,0.6l0,0.9l10.1-0.5L955.5,290.3z"/>
		<path id="path441" class="st38" d="M952.3,272.9l-3.6,0.1l0,1.2l3.6,0L952.3,272.9z"/>
		<path id="path443" class="st39" d="M952.1,280.7l-3.2,0.1l0,1.1l3.2,0L952.1,280.7z"/>
		<path id="path445" class="st40" d="M952.3,288.3l-3.5,0.1l0,1.2l3.5,0L952.3,288.3z"/>
	</g>
	<g id="g469">
		<path id="path449" class="st13" d="M947,295.1l1.9,0.5"/>
		<path id="path451" class="st13" d="M946.5,297.3l2.1,0.1"/>
		<path id="path453" class="st13" d="M946.2,298.9l2.2,0.8"/>
		<path id="path455" class="st13" d="M945.6,301.5l2.6-0.2"/>
		<path id="path457" class="st13" d="M945.1,303.5l2.8-0.1"/>
		<path id="path459" class="st13" d="M944.5,293.6c-0.3,4,1.7,7.9,2.7,11.3"/>
		<path id="path461" class="st13" d="M952.9,302.7l1.8-0.7"/>
		<path id="path463" class="st13" d="M952.5,301.5l2-1.1"/>
		<path id="path465" class="st13" d="M951.8,299.6l2.1-0.8"/>
		<path id="path467" class="st13" d="M951.4,297.8l2-0.7"/>
	</g>
	<path id="path471" d="M940.6,312c-0.2,0-0.5-0.1-0.7-0.1c-0.2-0.1-0.5-0.2-0.7-0.3c-0.2-0.1-0.4-0.3-0.6-0.5
		c-0.2-0.2-0.4-0.4-0.6-0.6c-0.2-0.3-0.4-0.5-0.6-0.8c-0.2-0.3-0.4-0.5-0.6-0.8c-0.2-0.3-0.4-0.5-0.6-0.8c-0.2-0.2-0.2-0.6-0.3-0.9
		c-0.2-0.1-0.6-0.1-0.6-0.5c-0.1-0.3-0.1-0.6-0.4-0.5c-0.1,0-0.1,0.2-0.1,0.1c-0.1-0.1-0.1,0.3-0.1,0.1c-0.1,0.2-0.2,0.5-0.2,0.5
		c-0.1,0.3-0.1,0.6,0.2,0.6c0.3,0.1,0.3,0.4,0.5,0.6c0.2,0.2,0.4,0.5,0.6,0.7c0.2,0.3,0.3,0.5,0.5,0.8c0.1,0.2,0.3,0.4,0.5,0.6
		c0.1,0.3,0.3,0.5,0.4,0.7c0.2,0.2,0.4,0.5,0.6,0.6c0.2,0.1,0.4,0.3,0.6,0.4c0.2,0.1,0.4,0.3,0.6,0.4c0.2,0.2,0.5,0.1,0.8,0.2
		c0.3,0,0.5,0,0.8-0.2C940.9,312,940.7,312,940.6,312L940.6,312z"/>
	<path id="path473" d="M955.1,302.9c-0.3,1-0.9,2.4-1.5,3.3c2.1,0.5,3.9-0.2,5.8-0.7c-0.2-1.1-0.2-2.2-0.1-3.5
		C957.8,302.2,956.7,302.7,955.1,302.9z"/>
	<path id="path475" class="st41" d="M955.3,303.2c-0.3,0.9-0.5,1.8-1,2.6c1.8,0.5,3.2-0.2,4.8-0.6c-0.3-0.8-0.2-1.7-0.1-2.6
		C957.7,302.7,956.6,303,955.3,303.2L955.3,303.2z"/>
	<path id="path477" d="M936.8,307.2l6.2,0.6c5,0.2,10.7-0.1,15.6-0.8c0.2,0,0.5-0.1,0.6,0.1c0.1,0.3-0.2,0.7-0.5,0.7
		c-5.7,1-11.4,0.6-17.1,0.5l-3.4-0.5L936.8,307.2z"/>
	<path id="path479" class="st13" d="M939.1,289.2c-1.6,1.6-3.2,3.2-5,4.1"/>
	<path id="path481" class="st13" d="M939.4,281.7c-1.5,1.4-2.9,3-4.5,3.9"/>
	<path id="path483" class="st42" d="M938.8,267.9l0,37.4l1.6-0.1l-0.9-37.5L938.8,267.9z"/>
	<path id="path485" class="st13" d="M939.5,267.7c1.3,1.8,2.3,2.8,3.4,4"/>
	<path id="path487" class="st43" d="M939.9,266.6c-0.3-0.2-1.2-0.3-1.5,0.3c-0.2,0.3,0,1.2,0.2,1.2c0.5,0,1,0.1,1.2-0.2
		C940,267.7,940.1,266.8,939.9,266.6z"/>
	<path id="path489" class="st44" d="M939,310.2c0-0.3,0.2-0.4,0.5-0.5c0.3,0,0.6,0,0.7,0.1c0.2,0.1,0.3,0.2,0.5,0.3
		c0.1,0.2,0.3,0.3,0.4,0.4c0.5,0.3,0.2-0.5,0.5-0.5c0.3,0,0.5-0.1,0.7,0c0.2,0,0.3,0.2,0.4,0.4c0.1,0.1,0.2,0.2,0.3,0.4
		c0,0.2,0.6,0.5,0.6,0.1c0.1-0.3,0.1-0.9,0.5-0.8c0.4,0,0.8,0.1,1.2,0.2c0.2,0.1,0.4,0.1,0.6,0.4c0.2,0.1,0.1,0.3,0.3,0.3
		c0.4,0.4,0.3-0.3,0.4-0.5c0.1-0.2,0.4-0.1,0.5-0.3c0.3-0.1,0.5-0.2,0.9-0.2c0.1,0.1,0.4,0.3,0.6,0.4c0.1,0.1,0.3,0.3,0.4,0.6
		c0,0.2,0.2,0.4,0.4,0.3c0.1-0.3,0.3-0.3,0.4-0.4c0.2,0,0.3-0.2,0.4-0.3c0.1,0,0.2-0.3,0.3-0.4c0.2-0.2,0.5-0.1,0.8-0.2
		c0.3,0.1,0.6,0.2,0.7,0.3c0.1,0.1,0.2,0.3,0.3,0.4c0.1,0.2,0.3,0,0.5,0c0.1-0.1,0.3-0.2,0.5-0.3c0.1-0.2,0.3-0.3,0.6-0.3
		c0.3,0,0.5,0.2,0.7,0.2c0.2,0.1,0.5,0.2,0.7,0.3c0.2,0.2,0.4,0.3,0.6,0.1c0.2,0,0.1-0.6,0.1-0.7c0.3-0.3,0.9-0.2,1.2-0.1
		c0.3,0,0.6,0,0.8,0.1c0.2,0.1,0.2,0.3,0.3,0.5c0.1,0.2,0.6,0.2,0.7,0c0.2,0,0-0.3-0.1-0.4c-0.1-0.1-0.2-0.3-0.3-0.4
		c0.2-0.2,0.4,0.1,0.6,0.2c0.1,0.1,0.3,0.2,0.4,0.3c0.2,0.1,0.4,0.2,0.7,0.2c0.3,0.1,0.2,0.6-0.2,0.5c-0.2,0.1-0.6,0-0.9,0
		c-0.4-0.1-0.9,0-1.3,0c-0.2,0.1-0.6,0.1-0.9,0.2c-0.3,0-0.5,0.1-0.8,0c-0.3,0.1-0.6,0-0.9,0c-0.3,0.1-0.5,0.1-0.8,0.1
		c-0.3,0-0.5,0.1-0.8,0c-0.4,0.1-0.9,0-1.3,0c-0.3,0.1-0.5,0-0.8,0.1c-0.3,0-0.5,0.1-0.8,0.1c-0.3,0-0.5,0.1-0.8,0
		c-0.5,0.1-1,0-1.5,0c-0.2-0.1-0.5,0-0.8-0.1c-0.2,0-0.4-0.1-0.7,0c-0.2-0.1-0.6,0-0.8-0.1c-0.4,0-0.7-0.1-1.1,0h-2.1
		c-0.2-0.1-0.5,0-0.7,0c-0.4,0-0.9,0-1.2,0c-0.3-0.1-0.7,0-0.9-0.2C939.5,310.8,938.9,310.6,939,310.2L939,310.2z"/>
	<g id="g499">
		<path id="path491" class="st45" d="M935.4,272.5c0.5,2.4,2.9,2.1,2.8-0.1"/>
		<path id="path493" class="st46" d="M937.6,272.5c0.7,2.8,3.8,2.4,3.7-0.2"/>
		<path id="path495" class="st47" d="M940.3,272.5c0.7,2,1.9,2.2,2.9-0.2"/>
		<path id="path497" class="st48" d="M943.8,271.6l-8.7,0.4l0,0.6l8.8-0.3L943.8,271.6z"/>
	</g>
	<path id="path501" class="st13" d="M937.8,277c-0.8,0.9-2.2,2-2.8,1.9"/>
	<path id="path503" class="st13" d="M936.3,273.9c-1.9,9.2-4.3,19-6.6,26.9"/>
	<g id="g523">
		<path id="path505" class="st43" d="M935.3,279.5c0.5,2.6,3,2.2,2.9-0.2"/>
		<path id="path507" class="st49" d="M937.4,279.5c0.7,3.5,3.9,3,3.8-0.2"/>
		<path id="path509" class="st50" d="M940.3,279.4c0.8,2.2,2.1,2.4,3.3-0.2"/>
		<path id="path511" class="st51" d="M943.9,278.2l-9,0.5l0,0.8l9-0.4L943.9,278.2z"/>
		<path id="path513" class="st52" d="M934.9,286.2c0.6,3.2,3.2,2.7,3.1-0.2"/>
		<path id="path515" class="st53" d="M937.3,286.1c0.8,4.7,4.5,4,4.4-0.3"/>
		<path id="path517" class="st54" d="M940.2,286.1c0.7,2.7,2.1,2.9,3.2-0.2"/>
		<path id="path519" class="st55" d="M944.2,284.9l-10.2,0.5l0,0.8l10.3-0.4L944.2,284.9z"/>
		<path id="path521" class="st56" d="M934.7,294c0.6,3.5,3.5,2.9,3.4-0.2"/>
	</g>
	<path id="path525" class="st13" d="M942.2,295.8c0.6,3.3,1.4,6.3,2.1,9.1"/>
	<path id="path527" class="st13" d="M941.5,295.6c0.3,3.2,1,6.2,1.7,9.2"/>
	<g id="g541">
		<path id="path529" class="st57" d="M937.3,293.9c0.7,4.6,4.5,4.2,4.4-0.2"/>
		<path id="path531" class="st58" d="M940.5,293.9c0.8,2.9,2.3,3.2,3.4-0.2"/>
		<path id="path533" class="st59" d="M944.8,292.4l-11.4,0.6l0,1l11.4-0.5L944.8,292.4z"/>
		<path id="path535" class="st60" d="M941.1,275.9l-3.3,0.1l0,0.9l3.3,0L941.1,275.9z"/>
		<path id="path537" class="st60" d="M941.1,282.7l-3.3,0.1l0,0.9l3.3,0L941.1,282.7z"/>
		<path id="path539" class="st61" d="M941.3,290.2l-3.5,0.1l0,0.9l3.5,0L941.3,290.2z"/>
	</g>
	<g id="g571">
		<g id="g559">
			<path id="path543" class="st13" d="M942.6,296.7l-1.9,0.5"/>
			<path id="path545" class="st13" d="M942.9,298.5L941,299"/>
			<path id="path547" class="st13" d="M943.3,300.5l-1.9-0.1"/>
			<path id="path549" class="st13" d="M943.8,302.4l-1.9,0.4"/>
			<path id="path551" class="st13" d="M935.1,302l2,0.5"/>
			<path id="path553" class="st13" d="M935.7,300l1.8,0.5"/>
			<path id="path555" class="st13" d="M936.1,298.4l1.6,0.5"/>
			<path id="path557" class="st13" d="M936.4,297l1.5,0.4"/>
		</g>
		<g id="g569">
			<path id="path561" class="st62" d="M959.7,305.4c3.3-0.2,7.2-0.7,9.8,0.6"/>
			<path id="path563" class="st62" d="M959.9,306.8c3-0.6,6.5-0.9,9.1,0.4"/>
			<path id="path565" class="st62" d="M960.2,309.6c2.2-0.6,5.1-0.8,7.1-0.1"/>
			<path id="path567" class="st62" d="M960.4,310.2c2.2,0.6,4.7,0.8,6.8,0.1"/>
		</g>
	</g>
	<path id="path573" d="M928.8,300.5l7,5.5l0.2-0.2l-2.2-2C932.1,302.4,930.5,301.2,928.8,300.5z"/>
	<g id="g605">
		<g id="g601">
			<path id="path575" class="st13" d="M962.5,304.9l-0.1-3"/>
			<path id="path577" class="st13" d="M963.2,301.9l0,3.1"/>
			<path id="path579" class="st13" d="M964.6,305.1v-3.2"/>
			<path id="path581" class="st13" d="M966,302.1l0,3.1"/>
			<path id="path583" class="st13" d="M966.9,302.1l0,3.2"/>
			<path id="path585" class="st13" d="M968.1,302.4v2.9"/>
			<path id="path587" class="st13" d="M968.7,302.4l0,3.3"/>
			<path id="path589" class="st13" d="M962.8,306.2l0,2.8"/>
			<path id="path591" class="st13" d="M962.1,306.4v2.7"/>
			<path id="path593" class="st13" d="M964,306.3l-0.1,2.7"/>
			<path id="path595" class="st13" d="M964.7,306.3l0,2.7"/>
			<path id="path597" class="st13" d="M965.8,306.2l-0.1,2.6"/>
			<path id="path599" class="st13" d="M966.8,306.6l-0.4,2.4"/>
		</g>
		<path id="path603" class="st62" d="M959.7,302.1c3.2-0.5,6.4,0.1,9.7,0.5"/>
	</g>
</g>
<path id="path609" class="st12" d="M425.6,237.8c0-14-0.6-27.6-0.3-39.6c-14.1-8.1-32.6-9.7-42.1-9.7c-9.5,0-28,1.7-42.1,9.7
	c0.3,11.9-0.3,25.6-0.3,39.6H425.6z"/>
<g id="g1387" transform="matrix(0.48583726,0,0,0.48583726,180.7078,93.349805)">
	<path id="path1116" class="st63" d="M411.6,250.4c0,0,3.1,6,4,9.2c0.4,1.6,0.6,3.3,0.5,5c-0.2,3-1.1,5.9-1.8,8.8
		c-0.5,2-1.6,3.5-1,5.5c0.3,0.9,0.6,1.8,1.4,1.7c0.5-0.1,0.7-0.9,1.1-1.2c0.3-0.3,0.5-0.6,0.8-0.8c0.5-0.2,1.1,0.1,1.4-0.3
		c0.3-0.4,0.5-1.1,0.2-1.6c-0.2-0.4-0.7,0-1.1,0c-0.5,0-1.1,0.5-1.6,0.2c-0.5-0.3-0.7-1.9-0.7-1.9s0.9-3.3,1.4-5
		c0.4-1.4,1.1-2.6,1.3-4c0.1-0.5,0-0.9,0-1.4c0-0.7-0.1-1.6,0.2-2.2c0.3-0.4,0.9,0.1,1.1-0.3c0.5-1.7-1.9-2.8-2.4-4.5
		c-0.2-0.6-0.1-1.4-0.2-2c-0.4-1.4-1.7-3.9-1.7-3.9L411.6,250.4z"/>
	<path id="path1140" class="st64" d="M421.3,255c0,0,2.8,4.5,3.1,7.2c0.1,0.6-0.3,1.2-0.3,1.8c0,1,0.4,1.9,0.4,2.8
		c-0.1,3.1-1.4,5.9-1.9,8.8c-0.5,2.5-1.3,7.6-1.3,7.6l1.8-0.2l0.3-3.8c0,0,0.9-4.4,1.4-6.6c0.3-1.5,0.5-3.1,0.9-4.6
		c0.3-1,0.9-1.8,1-2.8c0.2-1.3,0.5-2.8,0.1-4.1c-0.2-0.4-0.6-0.5-0.9-0.8c-0.6-0.8-1.1-1.8-1.5-2.8c-0.4-1-0.9-3.2-0.9-3.2
		C423.2,254.5,421.3,255,421.3,255L421.3,255z"/>
	<path id="path1344" class="st18" d="M408.2,246.9l2,2l3.4,2.7l1.6,0.1l1.8,0.8l2.2-0.1l1.7,2.2l0.5,0.4l1.8-0.3l0.7-1l3.5-6.9
		l-0.8-11.3l-16.7,1.4L408.2,246.9z"/>
	<path id="path1171" class="st18" d="M426.2,227.7c2.3,2.4,4.4,4.8,6.2,7.8c1.4,2.1,2.2,4.9,4.2,6.2c2.8,3.9,14.8,8.3,14.9,9.5
		c-2.8-1.5-4,3.4-6.7,2.6c-2.5,0.9-4.6-1.2-6.7-2.3c-3.2-0.1-6.6,0.1-9.5,2.2c-1.6,1.1-3.5-0.6-4.7,0l-0.1,0.4l-0.2,0.2
		 M408.2,246.9c-1.9-1.2-3.3-3.5-5.1-4.9c-1.4-2.5-3.2-5-3.1-8.3c-0.2-3.4-0.9-8.1,0.3-11.4c-0.9-2.5-2.2-3.2-3.2-5.7
		c-0.7-3.5-3.5-5.5-1.8-8.1c1.8-2.1,3.1-4.6,5.4-5.6c1.9-0.6,3.9-0.3,5.8,0.5c2.4,0.4,3.7,3,5,5.3c1.5,3.1,2.6,6.6,3,10.3
		c1.1,3,4.1,3.6,6.3,4.9c1.9,1.1,3.7,2.1,5.3,4"/>
	<path id="path1332" d="M439.4,247.8c-0.9-0.2-3.2,1-2.6-0.8c-2.3-0.2-4.8,0.4-7-0.6c-2.3-1.5-4.8-2.4-7.3-3.2
		c-2.4-0.2-5.3,0.6-7.1-2c-1.9-1.5-4.8-0.4-6.5-2.5c-1.8-2-2.9-4.7-2.8-7.7c-0.4-3-1.2-7,1.4-8.7c1.7-0.7,3.3-0.1,4.3-2.3
		c2.1-0.5,4.1,0.6,6,1.9c2.2,1.4,4.6,2.2,6.7,3.8c2,1.7,3.7,4,5.6,5.9c1.5,2.2,3.2,4.2,4.2,6.9c1.1,2.9,3.5,4.4,5.5,6.1
		c1.2,0.4,4.1,2.1,1.4,2.6C440.5,247.4,439.9,247.8,439.4,247.8z"/>
	<path id="path1327" class="st65" d="M415.7,238.1c-1.2-0.2-2.4-0.5-3.3-1.5c-0.8-0.6-2.7-2-1.4-3.1c1-0.2,2.2,0.5,3.1-0.4
		c1.4-0.4,2.8-0.4,4.1-1.3c1.2-0.8,2.6-0.3,3.8-0.8c0.9-0.6,0.8-3,2.2-2.6c1.3-0.4,0.9,2.7-0.2,1.7c-0.7,1.3,1.3,1.7,1.8,2.5
		c1.1,1.5-1.3,1.9-1.5,3c-1.5,0.6-2.6-1.8-4-1.2c-0.3,0.6,0,1.9-1,1.6c-1.2-1-2.3,0.1-3.5,0.3C416,236.9,415.2,238.1,415.7,238.1
		L415.7,238.1z"/>
	<path id="path1258" class="st65" d="M441.3,249.4c-0.7-0.5-1.6-0.1-2.3,0c-0.5,0-1,0-1.5-0.2c-0.8,0-2.2-1.1-2.4,0.3
		c0.1,0.6,1.3,0.9,0.3,1.1c-1,0.2-2-0.4-2.9-0.9c-0.4-0.5-1.2-1.1-1,0.1c0.3,1-0.5,1.4-1.1,1.4c-0.9-0.1-2-0.4-2.7-1.3
		c-0.5,0.8,0.7,1.9,1.4,1.9c0.7,0.8-1.1,0.5-1.4,0.4c-0.6-0.1-1.3-0.2-1.8,0.2c-0.8,0.2-0.8,1.3,0.1,1.2c0.9,0.4,1.9,0.7,2.8,0.1
		c1-0.7,2-1.3,3.2-1.5c0.9-0.3,1.8-0.4,2.7-0.5c1.2-0.2,2.4-0.2,3.6-0.2c0.9,0.6,1.9,0.1,2.7-0.5c0.5-0.2,2.1-1,0.9-1.5
		C441.5,249.6,441.4,249.3,441.3,249.4L441.3,249.4z"/>
	<path id="path1255" d="M438.1,251.6c0.5,0,0.9,0,1.3-0.3c0.5-0.3,0.9-0.4,1.4-0.7c0.6,0,0.9-1.1,0.3-1.3c-0.3-0.3-0.7-0.5-1.1-0.7
		c-0.4-0.4-0.9-0.5-1.2-1c0.3-0.4,0.5-0.9,0.8-1.4c0.4-0.2,1-0.1,1.4-0.3c0.3-0.1,0.7-0.1,1.1-0.1c0.5,0.3,1,0.5,1.5,0.9
		c0.5,0.3,1,0.6,1.5,0.8c0.4,0.2,0.9,0.4,1.3,0.6c0.5,0.3,1,0.4,1.5,0.6c0.5,0.1,0.7,0.9,1.3,0.8c0.6,0.1,1.1,0.3,1.6,0.8
		c0.3,0.2,0.9,0.6,0.9,0.9c-0.5,0.1-0.9-0.5-1.4-0.3c-0.4,0.1-0.6,0.6-1.1,0.5c-0.2,0.8-1,0.6-1.3,1.3c-0.5,0.5-1,0.9-1.6,1.2
		c-0.5,0.2-1,0.2-1.4-0.1c-0.5-0.2-1.1,0-1.6-0.1c-0.6,0.2-1.1,0-1.6-0.2c-0.5-0.2-0.8-0.6-1.2-0.9c-0.5-0.3-1.4-0.6-1.9-0.8
		c-0.3-0.2-0.2-0.3-0.5-0.3L438.1,251.6z"/>
	<path id="path1245" d="M402.2,202.4c-0.5,0-1,0-1.5,0.3c-0.8,0.2-1.5,0.9-2.1,1.7c-0.7,1-1.5,1.9-2.3,2.7c-0.4,0.4-0.8,0.9-1,1.5
		c0.5,0.4,1.3,0.5,1.6-0.2c0.5-0.8,1.2-1.5,2-1.9c0.7-0.2,1.4,0.2,2.1,0.3c0.6,0.4,1.1,0.7,1.8,0.8c0.3,0.2,0.9,0.2,1.4,0.4
		c0.6,0.3,1.3,0.5,2,0.7c0.8,0.2,1.5,0.1,2.3,0c0.2,0,0.3,0,0.5,0c-0.1,0.3-0.2,0.6-0.2,0.8c0,0.6,0.2,1.1,0.4,1.6
		c0.2,0.5,0.5,1,0.7,1.5c0.2,0.6,0.4,1.2,0.6,1.8c0.2,0.5,0.4,1,0.5,1.4c0.1,0.6,0.3,1.1,0.6,1.5c0.3,0.5,0.7,1,0.9,1.5
		c0.2,0.5,0.4,1,0.6,1.5c0.3,0.4,0.7,0.9,1.1,0.8c0.5,0.1,0.9-0.2,1.4-0.2c-0.1,0-0.1,0-0.2-0.1c-0.4-0.3-0.6-0.9-0.9-1.4
		c-0.1-0.6-0.1-1.2-0.2-1.7c0-0.6-0.2-1.1-0.3-1.7c-0.1-0.5-0.3-0.9-0.4-1.4c-0.2-0.5-0.3-1-0.5-1.5c-0.2-0.5-0.3-1.1-0.5-1.6
		c-0.2-0.5-0.4-1.1-0.6-1.6c-0.3-0.5-0.4-1.1-0.7-1.5c-0.1-0.3-0.3-0.4-0.5-0.5c0.1-0.3,0-0.6-0.2-0.9c-0.3-0.5-0.8-1-1-1.6
		c-0.5-0.8-1.4-1.1-2.1-1.5c-0.8-0.5-1.8-0.7-2.7-1c-0.7-0.2-1.4-0.4-2.2-0.3C402.5,202.4,402.4,202.4,402.2,202.4z"/>
	<path id="path1239" class="st65" d="M410.6,217.7c0-0.8-0.9-0.5-1.2-0.1c-0.4,0.6-0.7,1.3-1.2,1.8c-0.8,0.7-1.8,0.8-2.6,1.6
		c-0.4,0.6-0.8,1.3-1.4,1.7c-0.6,0.4-1.3,0.9-1.6,1.7c-0.1,0.6-0.5,1.4,0,1.9c0.6,0.3,0,1,0.1,1.6c0.3,0.6,1,0.8,1.5,0.4
		c0.6-0.5,1.2-0.9,1.6-1.7c0.6-0.9,1.2-1.8,2-2.3c0.5-0.2,1-0.6,1.3-1.1c0.4-0.4,0.1-1.2,0.6-1.3c0.5-0.3,0.8-0.9,1.2-1.5
		c0.3-0.6-0.3-1.2-0.2-1.9C410.9,218.2,410.9,217.8,410.6,217.7L410.6,217.7z"/>
	<path id="path1157" class="st64" d="M419.9,283.8c-1.1,0-2.2,0-3.3,0c-0.5-0.3-0.9-1.4-1.6-1c-0.6,0.3-1.2,0.7-1.8,1.1
		c-0.6,0.4-1,0.9-1.4,1.5c-0.1,0.4-1.1,0.9-0.2,1c0.7,0.1,1.2-0.9,1.9-1c0.6-0.3,1.2-0.1,1.8-0.2c0.5,0.1,1,0.2,1.5,0.1
		c0.6-0.1,1.1,0.1,1.7,0.1c0.8,0.1-0.3,0.7-0.6,0.9c-0.6,0.4-1.3,0.5-2,0.7c-0.7,0-1.4,0-2,0.4c-0.6,0.4-1.3,0.8-1.8,1.3
		c-0.3,0.2-1.1,0.8-0.3,0.8c0.6,0.1,1.2-0.1,1.7-0.3c1-0.5,2-0.8,3-1c0.7-0.2,1.3-0.6,2-0.7c0.4,0,1.5-0.3,1.2,0.7
		c-0.4,0.7-1,1.1-1.6,1.5c-0.5,0.4-1,1-1.6,0.9c-0.5-0.2-1.5,0.3-0.8,0.9c0.4,0.8,1.1,0.3,1.6,0c0.6-0.4,1.1-0.6,1.7-0.9
		c0.7-0.3,1.3-0.7,2-1c0.5-0.4,1.2-0.6,1.7-1.1c0.6-0.4,1.3-0.8,1.5-1.6c0.2-0.7,0.6-1.1,1.1-1.4c0.6-0.2,1.2-0.1,1.8-0.2
		c0.7,0,0.5-1.6-0.1-1.6c-0.5-0.5-1-1-1.6-1.4c-0.7-0.3-1.4-0.5-2.1-0.4c-0.6,0.1-1.1,0.5-1.3,1.2c-0.4,0.6-0.5,1.5-1.2,1.3
		C420.5,284.1,420.2,284,419.9,283.8L419.9,283.8z"/>
	<path id="path1136" class="st64" d="M404,289c0,0,0.6-2.9,1.4-3.9c1.6-2.1,6.3-3.6,6.3-3.6c-2,1-4.4,0.3-6.3,1
		c-1.6,0.6-4.3,3.3-4.3,3.3s1-2.8,1.8-3.9c2.3-3.2,6-3.6,8.7-3.1l3.1,0.6c0,0,0.5,0.4,0.3,1c-0.5,1.3-2,2-3,2.6
		C409.3,284.8,405.8,286.3,404,289z"/>
	<path id="path1134" class="st63" d="M413.6,278.7c-2.5,2.2-8.4,6.1-8.1,6.3c0,0,5-1.5,7.2-2.9c0.8-0.5,1.9-0.8,2.2-1.9
		c0.1-0.5-0.1-1.3-0.4-1.6C414.2,278.4,413.8,278.5,413.6,278.7z"/>
	<path id="path1138" class="st65" d="M425.6,261.7c-0.6-0.1-0.7,1.4-0.7,2.2c0,0.5,0,1.5,0.4,1.6c0.5,0,0.7-1.2,0.7-1.9
		C426.1,262.9,426.1,261.7,425.6,261.7L425.6,261.7z"/>
	<path id="path1142" class="st63" d="M423,283c0-0.6-0.6-0.3-0.9-0.2c-0.6,0.2-1.1,0.6-1.7,1c-0.4,0.4-0.9,0.6-1.3,1
		c-0.8,0.5-1.6,1.2-2.5,1.8c-0.4,0.2-0.7,0.4-1.1,0.5c-0.3,0.1-0.2,0.3,0.1,0.3c0.6,0.2,1.2,0.1,1.7-0.2c0.6-0.3,1.3-0.5,1.9-0.8
		c0.3-0.4,1-0.5,1.4-0.8c0.3-0.3,1.1-0.4,1.5-0.6c0.6-0.4,0.3-0.9,1-0.9c0.4,0,0.5-0.8,0.1-0.9C423.1,283.2,423.1,283.1,423,283
		L423,283z"/>
	<path id="path1149" class="st63" d="M417.3,289.9c0.4-0.2,0.9-0.1,1.4-0.3c0.5-0.2,1.1-0.4,1.6-0.6c0.3-0.2,0.5-0.3,0.8-0.5
		c0.4-0.4,0.8-1,1-1.6c0.2-0.5,0.4-1,0.6-1.5c0.1-0.4-0.3-0.6-0.5-0.3c-0.3,0.3-0.6,0.6-0.8,0.8c-0.3,0.3-0.6,0.5-0.9,0.9
		c-0.3,0.5-0.5,1.1-0.9,1.6c-0.2,0.2-0.4,0.4-0.6,0.5c-0.5,0.3-1,0.5-1.4,0.8C417.5,289.7,417.4,289.8,417.3,289.9L417.3,289.9z"/>
	<path id="path1163" class="st66" d="M423.4,247.5c0.2,0.4,0.3,0.8,0.3,1.3c0.1,0.5,0.2,1.1,0.2,1.6c0,0.6-0.5,0.9-0.6,1.4
		c0,0.4,0,0.7-0.1,1.1c-0.1,0.6,0,1.2-0.1,1.8c-0.2,0.5-0.8,0.1-1.2,0.3c-0.4,0.1-0.8,0.1-1.1-0.3c-0.3-0.4-0.6-0.9-1-1.3
		c-0.4-0.5-0.9-1.1-1.2-1.8c-0.3-0.5-0.5-1-0.7-1.5c-0.1-0.2-0.2-0.5-0.2-0.6"/>
	<path id="path1165" class="st66" d="M419.2,252.4c-0.4,0-0.7,0.2-1.1,0.1c-0.4,0-0.7,0-1.1,0c-0.3-0.1-0.8-0.1-1.1-0.4
		c-0.3-0.1-0.5-0.3-0.7-0.5c-0.2-0.2-0.4,0-0.6,0c-0.2-0.4-0.5-0.9-0.7-1.2c-0.2-0.1-0.4-0.2-0.6-0.6c-0.2-0.1-0.4-0.6-0.5-0.7
		c-0.2-0.3-0.2-0.6-0.4-0.9c-0.2-0.3-0.2-0.6-0.4-0.9c0-0.1,0-0.2,0-0.2"/>
	<path id="path1167" class="st66" d="M414.6,251.7c-0.1,0.7-0.7,0-1-0.1c-0.2-0.1-0.4-0.3-0.7-0.4c-0.2-0.2-0.4-0.3-0.6-0.4
		c-0.2-0.2-0.5-0.3-0.7-0.5c-0.3-0.1-0.6-0.5-0.9-0.6c-0.3-0.3-0.6-0.6-0.9-0.9c-0.3-0.3-0.7-0.6-1-1c-0.3-0.3-0.6-0.7-0.6-1.2
		c0-0.5-0.1-1-0.3-1.3c0-0.3-0.1-0.4-0.1-0.6"/>
	<path id="path1187" class="st8" d="M439.4,252c0.3,0,0.7,0,1-0.1c0.4,0,0.7-0.2,1-0.3c0.3-0.2,0.6-0.6,1-0.6c0.4,0,0.8,0.1,1.1-0.1
		c0.2-0.4,0.5-0.5,0.8-0.4c0.3-0.1,0.7,0.1,1,0.2c0.3,0.1,0.6,0.2,0.9,0.4c0.3,0.2,0.6,0.4,0.9,0.6c0.3,0.2-0.2,0.5-0.3,0.7
		c-0.3,0.2-0.7,0-1,0.3c-0.3,0.2-0.5,0.5-0.7,0.9c-0.2,0.4-0.6,0.3-0.9,0.5c-0.3,0.1-0.6,0-0.9,0.1c-0.3,0-0.5,0.1-0.8,0
		c-0.3-0.1-0.7-0.2-1-0.2c-0.3-0.2-0.5-0.6-0.8-0.6c-0.5-0.1-0.8-0.5-1.3-0.7C439.5,252.3,439.4,252.2,439.4,252L439.4,252z"/>
	<path id="path1181" class="st67" d="M397.4,213.3c-0.8-0.2-1.5,0.3-2.3,0.2c-0.7,0.2-1.5,0.1-2.2,0.1c-0.8-0.2-1.6-0.1-2.3,0.1
		c-1.1,0.2-2.2,0.8-3.4,1c-1.6,0.1-3.1,0-4.7,0.1c-1.1,0.1,0.1-1.7,0.7-1.6c1.4-0.5,2.8-1.2,4.3-1.4c1.1-0.2,2.2-0.6,3.3-0.9
		c0.9-0.3,1.8-0.6,2.7-0.9c0.9-0.2,1.8-0.4,2.8-0.2c1-0.3,1.9-0.6,2.8-1.1c0.8-0.5,1.8-0.2,2.6-0.8c0.5-0.9,1.4-0.9,2.2-0.8
		c0.8,0.2,1.7,0.6,2.3,1.5c0.6,1.1-1.3,1-0.7,2.2c-0.3,0.4-1,0.5-1.5,0.5c-0.4,0-0.9,0.1-1.3-0.2c-0.7-0.3-1.3-1-1.9-1.5
		c-0.7-0.1-0.7,1.5-1.6,1.3c-1.1,0.5-2.3,0.4-3.4,0.4c0.7,0.3,1.5,0.7,2.1,1.3C398.1,213.1,397.7,213.2,397.4,213.3L397.4,213.3z"/>
	<path id="path1185" class="st18" d="M402,209.3l0.7-0.4l0.4-0.8c0,0,0.6,1.2,0.3,1.6C403.1,210.1,402,209.3,402,209.3L402,209.3z"
		/>
	<path id="path1191" class="st18" d="M403.9,207.1c0.1-0.1-0.6-0.7,0-0.9c0.6-0.9,1.5-0.2,2.2,0.1c1.3,0.5,2.7,1.2,3.6,2.6
		c1.3,1.9,1.5,4.4,2.5,6.5c0.4,1,0.7,2.1,1,3.1c0.2,0.8,1.2,1.7,0.7,2.6c-0.6,0.5-1.2-0.2-1.8-0.4c-0.8-0.1-0.4,1,0.1,1.2
		c0.6,0.3,0.7,1.4-0.1,1.4c-0.8-0.1-1.5-0.2-2.3-0.3c-0.6-0.4,0.2-1.2,0.5-1.5c0.4-0.3,1-0.8,1-1.6c0-1.4-0.8-2.6-0.9-4
		c-0.2-1-0.4-2.1-0.8-3c-0.3-2.2-1.9-3.7-3.5-4.4c-0.7-0.4-1.4-0.8-2.1-1.3C403.9,207.2,403.9,207.1,403.9,207.1L403.9,207.1z"/>
	<path id="path1193" class="st8" d="M409.6,208.2c0.2,0.2,0.4,0.3,0.7,0.5c0.2,0.2,0.6,1.1,0.7,1.4c0.1,0.2,0.1,0.5,0.2,0.8
		c0,0.3,0.2,0.6,0.4,0.8c0.1,0.4,0.2,0.8,0.3,1.2c0.2,0.3,0.3,0.6,0.4,1c0.1,0.3,0.1,0.6,0.2,0.9c0.1,0.2,0.2,0.7-0.1,0.7
		c-0.2-0.1-0.4-0.2-0.6-0.5c-0.2-0.3-0.4-0.7-0.6-1c-0.1-0.2-0.2-0.5-0.2-0.8c-0.1-0.3-0.2-0.6-0.3-1c-0.1-0.3-0.2-0.6-0.3-0.9
		c-0.2-0.3-0.2-0.7-0.4-1c-0.1-0.4-0.6-1.3-0.5-1.8C409.6,208.3,409.6,208.2,409.6,208.2L409.6,208.2z"/>
	<path id="path1195" class="st8" d="M404.4,205.7c-0.2-0.1-0.3-0.3-0.4-0.4c-0.1-0.1-0.4-0.2-0.5-0.3c-0.3,0.2-0.1-0.3-0.2-0.2
		c-0.1-0.2-0.1-0.3-0.1-0.5c-0.1-0.2-0.2-0.3-0.3-0.4c0-0.1-0.1-0.2,0-0.2c0.2,0,0.4,0,0.5,0.1c0.2,0,0.3,0.1,0.5,0.1
		c0.2,0,0.5,0,0.7,0c0.1-0.1,0.1,0.1,0.3,0.1c0.1,0,0.1,0.1,0.2,0.1c0.2,0,0.2,0.3,0.3,0.4c0.1,0.1,0.2,0.3,0.2,0.5
		c0,0.1,0.1,0.3,0.1,0.2c0-0.1,0,0.2-0.1,0.2c-0.1,0.2-0.3,0.2-0.4,0.3c-0.2,0-0.3,0.2-0.5,0.2C404.6,205.8,404.5,205.7,404.4,205.7
		L404.4,205.7z"/>
	<path id="path1210" class="st18" d="M404,205.3c-0.2,0.1-0.5,0.3-0.8,0.2c-0.2,0.1-0.3,0.2-0.5,0.4c-0.2,0.1-0.4,0.2-0.5,0.2
		c-0.1,0-0.3-0.2-0.4-0.2c-0.1-0.1-0.1-0.3-0.3-0.3c-0.1-0.1-0.3-0.2-0.4-0.3c-0.1-0.1-0.1-0.3-0.1-0.4c0-0.2,0-0.3,0.1-0.5
		c0-0.2,0.2-0.3,0.3-0.3c0.3,0,0.6,0,0.9,0c0.2-0.1,0.3-0.2,0.5-0.2c0.2,0.1,0.3,0.3,0.4,0.4C403.5,204.6,403.7,204.9,404,205.3
		L404,205.3z"/>
	<path id="path1212" class="st18" d="M405.4,204.4c0.2-0.1,0.4-0.3,0.6-0.3c0.2,0,0.4,0.1,0.6,0.2c0.2,0.1,0.5,0.2,0.7,0.3
		c0.2,0.1,0.5,0.3,0.7,0.4c0.2,0.1,0.4,0.3,0.6,0.4c0.2,0.1,0.4,0.3,0.6,0.4c0.2,0.2,0.4,0.4,0.5,0.7c0.1,0.2,0,0.6-0.2,0.4
		c-0.2-0.2-0.4-0.3-0.7-0.4c-0.2,0-0.4-0.1-0.6-0.2c-0.2-0.1-0.4-0.2-0.6-0.3c-0.3-0.2-0.6-0.3-0.9-0.5c-0.1-0.1-0.3-0.1-0.4-0.2
		c-0.3-0.2-0.5-0.3-0.8-0.5C405.5,204.7,405.3,204.6,405.4,204.4L405.4,204.4z"/>
	<path id="path1232" d="M408.6,210.3c-0.9-0.1-1.8,0.4-2.6,0.1c-0.7-0.1-1.2,0.5-1.7,0.8c-0.7-0.1-0.9,1.3-1.5,1.2
		c-0.6-0.1-1.2-0.6-1.7-0.4c1.1,0.6,2.3,1.3,3.3,2.2c0.5,0.7,1.2,1.2,1.9,1.5c0.5,0.3,1.1,0.9,0.8,1.7c-0.2,0.9-1.3,1-1.3,2.1
		c-0.1,0.9-0.9,1.3-1.1,2.1c-0.3,0.6-0.9,1-0.9,1.8c0.1,0.9,1,0.2,1-0.5c0.1-0.6,0.5-1.5,1.1-1.2c0.5,0.9,1.1-0.6,1.6-0.3
		c0.3,0.5,0.9,0.8,1.1,0.1c0.4-0.2,1-0.5,0.6-1.2c0-0.7,0.7-0.7,1-1.1c0.4-0.3,0.9-1,0.4-1.5c-0.4-0.8,0-1.9-0.5-2.6
		c-0.4-0.8,0-1.9-0.3-2.7C409.5,211.6,409.3,210.6,408.6,210.3L408.6,210.3z"/>
	<path id="path1253" class="st65" d="M432.2,241.1c-1,0-1.8,1-2.8,1.1c-1.2,0.2,0.3,0.9,0.7,1.3c1,0.8,2.1,1.1,3.2,1.6
		c1,0.6,2.1,1,3.2,0.7c1-0.3,0.3-1.6,0-2.3c-0.6-1.1-1.6-1.7-2.4-2.6C433.4,240.1,432.6,240.3,432.2,241.1L432.2,241.1z"/>
	<path id="path1264" class="st18" d="M431.5,243.8c-0.4,0.1-0.7,0.2-1.1,0.2c-0.4,0-0.9,0.2-1.3-0.1c-0.4-0.1-0.9-0.3-1.3-0.6
		c-0.3-0.3-0.7-0.4-0.9-0.8c-0.3-0.5,0.3-0.5,0.5-0.6c0.4-0.1,0.9-0.2,1.4-0.1c0.5,0.3,1,0.5,1.5,0.8c0.4,0.2,0.8,0.5,1.1,0.9
		C431.4,243.5,431.5,243.7,431.5,243.8L431.5,243.8z"/>
	<path id="path1266" class="st18" d="M436.4,243.4c0.1,0.6-0.7,0-1,0.2c-0.5,0.1-1-0.1-1.4-0.4c-0.7-0.5-1.5-0.9-2.3-1.1
		c-0.4-0.1-1.1-0.6-0.6-1.1c0.4-0.4,1-0.8,1.5-0.9c0.6,0,1.1,0.4,1.6,0.7c0.5,0.3,1.1,0.6,1.5,1.1
		C436.1,242.3,436.5,242.8,436.4,243.4L436.4,243.4z"/>
	<path id="path1270" class="st65" d="M422.8,237.2c-0.7,0.6-1.6,0.8-2.4,0.8c-0.8,0.4-2-0.5-2.3,0.8c-0.4,1,0.6,1.5,1.1,1.9
		c1.5,1.1,3.3,1.1,5.1,1.2c0.5,0,2-0.2,1.2-1c-0.9-0.8-1.5-2-2.2-3C423.1,237.7,422.9,237.5,422.8,237.2L422.8,237.2z"/>
	<path id="path1272" class="st65" d="M431.4,237.9c-0.3-0.1-0.7-0.2-1-0.4c-0.5-0.2-0.8-0.6-1.3-0.9c-0.6-0.4-1.2-0.9-1.8-1.3
		c-0.3-0.1-0.2-0.5,0.1-0.5c0.3,0,0.4-0.6,0.7-0.2c0.4,0.3,0.8,0.7,1.1,1.1c0.4,0.4,0.7,0.9,1.2,1
		C430.8,237.1,431.4,237.3,431.4,237.9L431.4,237.9z"/>
	<path id="path1274" class="st65" d="M430.3,239.9c0,0-1.6,0.5-2.3,0.1c-0.5-0.2-1.1-0.3-1.6-0.7c-0.6-0.4-1.3-0.7-1.7-1.4
		c-0.4-0.6,0.1-1.6,0.7-1.4c0.4-0.1,0.2-1.3,0.8-0.8c0.8,0.5,1.6,1,2.3,1.7c0.4,0.5,0.9,0.9,1.3,1.5
		C429.9,239.3,430.3,239.9,430.3,239.9z"/>
	<path id="path1296" class="st65" d="M418.7,225.9c1,0.3,2.2,1,2.9,2.1c0.9,1.4-0.9,2.2-1.7,1.4c-1.3-0.8-2.6-1.7-4.1-2.2
		c-1.4,0.2,0.6,1.2,1,1.7c0.6,0.5,1.1,1.3,1.1,2.2c-0.9,0.9-2-0.1-3-0.2c-1.1-0.2-1.7-1.4-2.4-2.3c-0.5-0.7-1.1-1.1-1.7-0.7
		c0,1.2,0.7,1.4,1.1,2.4c0.4,0.6,1.8,2.1,0.4,2.1c-1-0.4-1.9-1.2-2.5-2.4c-0.6-0.8-1.1-2.5,0.2-2.7c1.1-0.8,2.4-1.3,3.6-1.3
		c1.4-0.2,2.8,0.1,4.1-0.3C417.9,225.9,418.8,225.3,418.7,225.9z"/>
	<path id="path1298" class="st18" d="M408.2,226.9c-0.2,0.4-0.3,0.7-0.3,1.1c0,0.5,0,0.9,0.1,1.4c0.1,0.4,0.2,0.8,0.3,1.1
		c0.2,0.4,0.4,0.7,0.7,0.9c0.2,0.3,0.4,0.5,0.7,0.6c0.2,0.2,0.4,0.3,0.6,0.4c0.2,0.1,0.5,0.2,0.8,0.3c0.3,0.1,0.5,0,0.6-0.3
		c0.3-0.3,0.1-0.5-0.2-0.5c-0.2-0.1-0.4-0.3-0.7-0.5c-0.2-0.3-0.4-0.6-0.5-0.9c-0.1-0.3-0.2-0.6-0.4-0.9c-0.2-0.2-0.3-0.5-0.5-0.7
		c-0.2-0.3-0.4-0.6-0.6-0.9c-0.1-0.3-0.4-0.6-0.6-0.9C408.2,227.1,408.2,227,408.2,226.9L408.2,226.9z"/>
	<path id="path1300" class="st18" d="M417.3,231.5c-0.6-0.1-1.5-0.4-2.2-0.6c-0.8-0.3-1.5-0.9-2-1.8c-0.6-0.7-1.1-1.4-1.8-2
		c-0.7-0.3-1,1-0.5,1.5c0.4,0.8,0.9,1.4,1.4,2.2c0.5,0.7,1.1,1.2,1.8,1.6c0.8,0.6,1.8,0.8,2.7,0.9c0.5-0.1,1.2-0.5,1.3-1.3
		C418,231.6,417.6,231.5,417.3,231.5z"/>
	<path id="path1304" class="st18" d="M415.3,237.5c-0.5,0.1-1.1,0.1-1.5-0.3c-0.4-0.3-0.7-0.8-1-1.3c-0.3-0.5-0.8-1.1-1.3-1.3
		c-0.5-0.2-1,0.3-0.9,0.9c0.1,0.6,0.4,1,0.7,1.4c0.5,0.6,1.2,0.9,1.8,1.3c0.3,0.2,0.7,0.3,1.1,0.3c0.4,0,0.9,0.2,1.1-0.4
		C415.3,237.9,415.3,237.7,415.3,237.5L415.3,237.5z"/>
	<path id="path1306" class="st18" d="M420.3,235.6c0.4,0.2,0.7,1,0.4,1.5c-0.3,0.6-0.9,0.9-1.5,0.8c-0.5,0-0.9,0.1-1.4-0.1
		c-0.5-0.2-1-0.5-1.5-0.8c-0.5-0.2-0.6-1-0.9-1.5c-0.2-0.5,0.5-0.8,0.8-0.6c0.5,0.2,0.8,0.8,1.3,1.1c0.4,0.3,0.8,0.5,1.2,0.6
		c0.4,0.1,0.9,0.2,1.1-0.3C420.1,236,420.2,235.8,420.3,235.6L420.3,235.6z"/>
	<path id="path1308" class="st18" d="M424.8,234.2c0.4,0.5,0.1,1.4-0.4,1.6c-0.4,0.1-0.9,0.2-1.3,0.1c-0.6-0.2-1.2-0.7-1.8-1.1
		c-0.3-0.4-0.9-0.5-1.1-1c-0.1-0.7,0.4-1.2,0.9-1c0.7,0.3,1.5,0.4,2.1,0.9C423.7,233.9,424.2,234.2,424.8,234.2L424.8,234.2z"/>
	<path id="path1342" class="st66" d="M426.2,227.7c2.3,2.4,4.4,4.8,6.2,7.8c1.4,2.1,2.2,4.9,4.2,6.2c2.8,3.9,14.8,8.3,14.9,9.5
		c-2.8-1.5-4,3.4-6.7,2.6c-2.5,0.9-4.6-1.2-6.7-2.3c-3.2-0.1-6.6,0.1-9.5,2.2c-1.6,1.1-3.5-0.6-4.7,0l-0.1,0.4l-0.2,0.2
		 M408.2,246.9c-1.9-1.2-3.3-3.5-5.1-4.9c-1.4-2.5-3.2-5-3.1-8.3c-0.2-3.4-0.9-8.1,0.3-11.4c-0.9-2.5-2.2-3.2-3.2-5.7
		c-0.7-3.5-3.5-5.5-1.8-8.1c1.8-2.1,3.1-4.6,5.4-5.6c1.9-0.6,3.9-0.3,5.8,0.5c2.4,0.4,3.7,3,5,5.3c1.5,3.1,2.6,6.6,3,10.3
		c1.1,3,4.1,3.6,6.3,4.9c1.9,1.1,3.7,2.1,5.3,4"/>
</g>
</svg>
