<?xml version="1.0" encoding="utf-8"?>
<!-- Generator: Adobe Illustrator 17.1.0, SVG Export Plug-In . SVG Version: 6.00 Build 0)  -->
<!DOCTYPE svg [
	<!ENTITY ns_flows "http://ns.adobe.com/Flows/1.0/">
	<!ENTITY ns_extend "http://ns.adobe.com/Extensibility/1.0/">
	<!ENTITY ns_ai "http://ns.adobe.com/AdobeIllustrator/10.0/">
	<!ENTITY ns_graphs "http://ns.adobe.com/Graphs/1.0/">
	<!ENTITY ns_vars "http://ns.adobe.com/Variables/1.0/">
	<!ENTITY ns_imrep "http://ns.adobe.com/ImageReplacement/1.0/">
	<!ENTITY ns_sfw "http://ns.adobe.com/SaveForWeb/1.0/">
	<!ENTITY ns_custom "http://ns.adobe.com/GenericCustomNamespace/1.0/">
	<!ENTITY ns_adobe_xpath "http://ns.adobe.com/XPath/1.0/">
]>
<svg version="1.2" baseProfile="tiny" id="Слой_1" xmlns:x="&ns_extend;" xmlns:i="&ns_ai;" xmlns:graph="&ns_graphs;"
	 xmlns="http://www.w3.org/2000/svg" xmlns:xlink="http://www.w3.org/1999/xlink" xmlns:a="http://ns.adobe.com/AdobeSVGViewerExtensions/3.0/"
	 x="0px" y="0px" viewBox="0 0 24 24" xml:space="preserve">
<metadata>
	<sfw  xmlns="&ns_sfw;">
		<slices></slices>
		<sliceSourceBounds  width="24" height="15.999" bottomLeftOrigin="true" y="4.0005" x="0"></sliceSourceBounds>
	</sfw>
</metadata>
<g>
	<path fill="#3E5EB9" d="M0,4.0005h24v15.999H0V4.0005z"/>
	<path fill="#FFD900" d="M0,7.0005h24v9.999H0V7.0005z"/>
	<path fill="#B10C0C" d="M0,7.9995h24v8.001H0V7.9995z"/>
	<path fill="#FFFFFF" d="M19.761,10.1565l-0.972,0.342l0.972,0.342l0.972-0.342L19.761,10.1565z"/>
	<path fill="#FFFFFF" d="M18.792,10.8435l-0.972,0.342l0.972,0.342l0.972-0.342L18.792,10.8435z"/>
	<path fill="#FFD900" d="M2.61,12.1635h4.128v-0.348H2.61c-0.096,0-0.174,0.078-0.174,0.174v0.003
		C2.436,12.0855,2.514,12.1635,2.61,12.1635z"/>
	<path fill="#FFD900" d="M4.125,11.3025h2.856l0.24-0.228H4.125c-0.063,0-0.114,0.051-0.114,0.114v0.003
		C4.011,11.2515,4.062,11.3025,4.125,11.3025z"/>
	<path fill="#FFD900" d="M5.061,10.6125h2.856l0.24-0.228H5.061c-0.063,0-0.114,0.051-0.114,0.114v0.003
		C4.947,10.5645,4.998,10.6125,5.061,10.6125z"/>
	<path fill="#3D5DA7" d="M4.455,12.0885c-0.174-0.183-0.423-0.033-0.558-0.042c-0.051-0.003-0.378-0.114-0.477-0.12
		c0.042,0.096,0.027,0.099-0.009,0.117c-0.096,0.063-0.099-0.024-0.177-0.057c0.054,0.066,0.036,0.075,0.045,0.165
		c-0.246-0.132-0.588,0.279-0.669,0.831c0.084-0.072,0.03-0.048,0.114-0.108c-0.021,0.144,0.033,0.195,0.066,0.411
		c0.078-0.108,0.075-0.081,0.117-0.153c0.051,0.129,0.063,0.243,0.108,0.42c0.042-0.129,0.024-0.117,0.063-0.195
		c0.222,0.186,0.12,0.468,0.402,0.597c0.03-0.054,0.054-0.09,0.084-0.111c0.072,0.084,0.144,0.075,0.303,0.168
		c-0.177-0.15,0.285-0.279,0.354-0.426c0.027,0.048,0.003,0.03,0.03,0.12c0-0.231,0.084-0.273,0.156-0.471
		c0.027,0.054,0.024,0.03,0.051,0.084c0-0.216,0.057-0.582,0.003-0.786c0.072,0.084,0.039,0.099,0.105,0.132
		C4.566,12.4305,4.62,12.2565,4.455,12.0885z M2.934,13.0545L2.934,13.0545L2.934,13.0545L2.934,13.0545
		c0.072-0.177,0.138-0.234,0.186-0.348c0.084-0.201,0.096-0.363,0.165-0.339c0.069,0.024,0.069,0.108-0.024,0.306
		C3.168,12.8715,3.123,12.9135,2.934,13.0545z M3.42,13.1265c-0.042,0.18-0.072,0.222-0.21,0.375l0,0l0,0l0,0
		c0.03-0.159,0.075-0.219,0.093-0.321c0.033-0.18,0.015-0.315,0.081-0.309C3.447,12.8775,3.462,12.9465,3.42,13.1265z M3.69,13.4295
		c-0.018,0.177-0.042,0.219-0.153,0.378c0.009-0.156,0.045-0.216,0.051-0.315c0.009-0.177-0.024-0.3,0.039-0.303
		C3.687,13.1925,3.711,13.2555,3.69,13.4295z M4.164,13.3185c-0.183-0.084-0.228-0.111-0.336-0.261
		c-0.108-0.147-0.12-0.216-0.066-0.249c0.057-0.033,0.09,0.099,0.192,0.252C4.011,13.1475,4.077,13.1805,4.164,13.3185
		L4.164,13.3185z M3.798,12.5775c-0.162-0.144-0.195-0.222-0.141-0.27c0.054-0.051,0.129,0.093,0.282,0.243
		c0.087,0.087,0.168,0.111,0.303,0.246C4.017,12.7425,3.96,12.7215,3.798,12.5775z"/>
	<path fill="#FFD900" d="M21.678,12.1635H17.55v-0.348h4.128c0.096,0,0.174,0.078,0.174,0.174v0.003
		C21.852,12.0855,21.774,12.1635,21.678,12.1635z"/>
	<g>
		<path fill="#3D5DA7" d="M20.493,11.8395L20.493,11.8395L20.493,11.8395z"/>
		<path fill="#3D5DA7" d="M21.633,12.7545c0-0.171-0.12-0.417-0.258-0.51c-0.747-0.501-1.053-0.102-0.879-0.402
			c-0.51,0.237-0.864,0.714-0.933,1.119c0.072-0.054,0.135-0.096,0.207-0.141c-0.102,0.24,0.09,0.555,0.141,0.837
			c0.132-0.072,0.198-0.108,0.243-0.207c0.051,0.177,0.45,0.51,0.606,0.648c0.012-0.081,0.213-0.342,0.27-0.414
			c0.009,0.03,0.021,0.072,0.066,0.099c0.003-0.06,0.102-0.222,0.105-0.285c0.024,0.021,0.081,0.063,0.135,0.117
			c-0.015-0.132,0.045-0.258,0.012-0.375c0.048,0.015,0.042,0.09,0.135,0.114c-0.045-0.102-0.018-0.369-0.027-0.468
			c0.039,0.081,0.027,0.111,0.144,0.177c-0.015-0.117-0.12-0.366-0.066-0.42C21.57,12.6765,21.597,12.7305,21.633,12.7545z
			 M20.175,13.0155c-0.093,0.159-0.138,0.195-0.33,0.309c0.072-0.144,0.138-0.189,0.186-0.282c0.081-0.162,0.093-0.291,0.165-0.273
			C20.268,12.7905,20.268,12.8565,20.175,13.0155z M20.334,13.6695L20.334,13.6695c-0.009-0.108,0.021-0.156,0.018-0.225
			c-0.009-0.123-0.06-0.21,0.006-0.216s0.096,0.036,0.096,0.162C20.454,13.5135,20.433,13.5465,20.334,13.6695z M20.703,13.8825
			L20.703,13.8825L20.703,13.8825L20.703,13.8825c-0.03-0.153-0.006-0.219-0.027-0.318c-0.033-0.174-0.096-0.288-0.033-0.303
			c0.06-0.015,0.099,0.039,0.12,0.216C20.787,13.6515,20.775,13.6995,20.703,13.8825z M20.781,13.1325
			c-0.063-0.108-0.057-0.159,0-0.183c0.06-0.024,0.06,0.072,0.114,0.183c0.03,0.063,0.081,0.087,0.129,0.186
			C20.877,13.2585,20.844,13.2405,20.781,13.1325z M21.087,12.8115L21.087,12.8115c-0.147-0.003-0.183-0.009-0.291-0.078
			c-0.108-0.072-0.132-0.117-0.099-0.156c0.033-0.042,0.084,0.042,0.186,0.12C20.943,12.7395,20.997,12.7455,21.087,12.8115
			L21.087,12.8115L21.087,12.8115z"/>
	</g>
	<path fill="#FFD900" d="M19.113,10.6125h-2.856l-0.24-0.228h3.099c0.063,0,0.114,0.051,0.114,0.114v0.003
		C19.227,10.5615,19.176,10.6125,19.113,10.6125z"/>
	<path fill="#FFD900" d="M18.183,11.2995h-2.856l-0.24-0.228h3.099c0.063,0,0.114,0.051,0.114,0.114v0.003
		C18.297,11.2485,18.246,11.2995,18.183,11.2995z"/>
	<path fill="#FFFFFF" d="M12.03,8.5695c-2.667,0-4.572,2.286-5.715,3.429c1.143,1.143,3.048,3.429,5.715,3.429
		c3.048,0,4.572-2.286,5.715-3.429C16.602,10.8555,15.078,8.5695,12.03,8.5695z M11.349,10.7145
		c-0.108-0.066-0.159-0.057-0.195-0.138c0,0.114,0.096,0.186,0.096,0.36c-0.066-0.051-0.135-0.099-0.207-0.138
		c0.102,0.174-0.183,0.513-0.042,0.627c-0.249-0.036-0.504-0.195-0.603-0.369c-0.054,0.036-0.06,0.093-0.06,0.153
		c0.009,0.006-0.378-0.288-0.342-0.399c-0.051,0.072-0.06,0.114-0.072,0.195c-0.141-0.141-0.273-0.279-0.318-0.462
		c-0.063,0.081-0.066,0.081-0.129,0.165c-0.048-0.288-0.048-0.276,0.048-0.522c-0.066,0.045-0.123,0.09-0.189,0.144
		c0.063-0.414,0.387-0.903,0.852-1.143l0,0l0,0l0,0c-0.159,0.306,0.276-0.102,0.96,0.411c0.126,0.096,0.309,0.471,0.309,0.645
		c-0.144-0.03-0.402-0.174-0.402-0.174S11.349,10.3635,11.349,10.7145z"/>
	<rect x="13.824" y="10.7805" width="0.207" height="0.915"/>
	<rect x="12.714" y="10.7805" width="0.207" height="0.915"/>
	<rect x="13.269" y="10.7805" width="0.207" height="0.915"/>
	<rect x="13.824" y="12.3045" width="0.207" height="0.915"/>
	<rect x="12.714" y="12.3045" width="0.207" height="0.915"/>
	<rect x="13.269" y="12.3045" width="0.207" height="0.915"/>
	<rect x="14.931" y="10.7805" width="0.207" height="0.915"/>
	<rect x="15.486" y="10.7805" width="0.207" height="0.915"/>
	<rect x="14.376" y="10.7805" width="0.207" height="0.915"/>
	<rect x="14.376" y="12.3045" width="0.207" height="0.915"/>
	<rect x="14.931" y="12.3045" width="0.207" height="0.915"/>
	<rect x="15.486" y="12.3045" width="0.207" height="0.915"/>
	<g>
		<path fill="#3D5DA7" d="M10.179,9.1485L10.179,9.1485L10.179,9.1485z"/>
		<path fill="#3D5DA7" d="M11.151,10.5435c0.036,0.081,0.09,0.072,0.195,0.138c0-0.348-0.303-0.651-0.303-0.651
			s0.258,0.144,0.402,0.174c0-0.174-0.18-0.552-0.309-0.645c-0.684-0.513-1.119-0.105-0.96-0.411
			c-0.465,0.24-0.789,0.729-0.852,1.143c0.066-0.054,0.123-0.099,0.189-0.144c-0.096,0.246-0.096,0.237-0.048,0.522
			c0.063-0.081,0.066-0.081,0.129-0.165c0.048,0.18,0.177,0.321,0.318,0.462c0.012-0.081,0.018-0.123,0.072-0.195
			c-0.036,0.114,0.351,0.405,0.342,0.399c0.003-0.06,0.009-0.117,0.06-0.153c0.102,0.174,0.354,0.333,0.603,0.369
			c-0.141-0.114,0.141-0.45,0.042-0.627c0.072,0.039,0.144,0.087,0.207,0.138C11.247,10.7295,11.151,10.6575,11.151,10.5435
			c-0.15-0.024-0.213-0.054-0.351-0.156c-0.165-0.123-0.201-0.192-0.147-0.243c0.054-0.051,0.132,0.075,0.291,0.207
			c0.09,0.075,0.171,0.093,0.312,0.207l0,0C11.214,10.5525,11.181,10.5495,11.151,10.5435z M10.056,10.1565
			c-0.042,0.237-0.078,0.297-0.243,0.504l0,0c0.024-0.21,0.081-0.291,0.096-0.426c0.03-0.24-0.006-0.414,0.078-0.408
			C10.074,9.8295,10.098,9.9165,10.056,10.1565z M10.254,11.0475L10.254,11.0475L10.254,11.0475L10.254,11.0475
			c-0.018-0.177,0.015-0.255,0.006-0.369c-0.018-0.201-0.081-0.339-0.006-0.351s0.111,0.054,0.12,0.258
			C10.38,10.7895,10.359,10.8435,10.254,11.0475z M10.758,11.0625c0.048,0.099,0.114,0.144,0.189,0.3
			c-0.186-0.114-0.228-0.15-0.324-0.321c-0.096-0.171-0.099-0.243-0.033-0.27C10.653,10.7475,10.671,10.8885,10.758,11.0625z
			 M10.623,9.8895c-0.225-0.102-0.282-0.174-0.24-0.243c0.045-0.069,0.171,0.057,0.387,0.171c0.123,0.066,0.222,0.066,0.411,0.168
			l0,0C10.914,9.9975,10.845,9.9915,10.623,9.8895z"/>
	</g>
	<path d="M21.684,11.8005h-4.089c-0.126-0.132-0.258-0.279-0.396-0.429c-0.018-0.018-0.033-0.036-0.051-0.054h1.014l0.648,0.228
		l0.006,0.003l1.017-0.36l-1.011-0.357l-0.006-0.003l-0.651,0.231h-0.204l0,0l0,0h-0.114l0,0l0,0H17.73l0,0l0,0h-0.816
		c-0.129-0.141-0.264-0.282-0.408-0.426h2.592l0.645,0.228l0.006,0.003l1.017-0.36l-1.011-0.357l-0.006-0.003l-0.651,0.231h-0.204
		l0,0l0,0H18.78l0,0l0,0h-0.114l0,0l0,0h-2.418c-0.996-0.948-2.307-1.836-4.212-1.836c-1.671,0-3.036,0.888-4.11,1.836h-2.85
		c-0.078,0-0.138,0.057-0.138,0.129c0,0.072,0.063,0.129,0.138,0.129h2.568c-0.153,0.144-0.3,0.288-0.441,0.426H4.14
		c-0.078,0-0.138,0.057-0.138,0.129s0.063,0.129,0.138,0.129h2.799c-0.09,0.09-0.174,0.18-0.258,0.264
		c-0.072,0.075-0.144,0.147-0.213,0.219H2.595c-0.102,0-0.186,0.084-0.186,0.189c0,0.105,0.084,0.189,0.186,0.189h0.363
		c-0.18,0.141-0.336,0.447-0.387,0.792l-0.009,0.063l0.048-0.042c0.042-0.036,0.051-0.051,0.06-0.063
		c0.003-0.003,0.006-0.006,0.009-0.012c0,0.06,0.012,0.108,0.027,0.168c0.015,0.051,0.03,0.108,0.042,0.192l0.009,0.057l0.033-0.048
		c0.039-0.051,0.057-0.072,0.069-0.087c0.009-0.009,0.015-0.015,0.024-0.027c0.021,0.066,0.036,0.132,0.051,0.204
		c0.012,0.048,0.024,0.105,0.039,0.168l0.021,0.081l0.027-0.078c0.018-0.057,0.024-0.087,0.03-0.108
		c0.006-0.021,0.009-0.033,0.018-0.054c0.075,0.075,0.108,0.165,0.135,0.255c0.042,0.123,0.084,0.249,0.249,0.324l0.021,0.009
		l0.012-0.018c0.024-0.039,0.042-0.072,0.063-0.09c0.042,0.042,0.084,0.06,0.138,0.081c0.042,0.018,0.093,0.039,0.156,0.075
		l0.027-0.039c-0.024-0.018-0.033-0.036-0.033-0.054c0.003-0.051,0.099-0.114,0.186-0.168c0.066-0.042,0.135-0.087,0.177-0.132
		c0,0.015,0.003,0.033,0.015,0.072l0.048-0.006c0-0.147,0.036-0.213,0.078-0.297c0.018-0.033,0.036-0.072,0.057-0.117
		c0,0,0,0.003,0.003,0.003c0.006,0.006,0.009,0.012,0.021,0.036l0.045-0.012c0-0.069,0.006-0.15,0.012-0.24
		c0.009-0.144,0.021-0.303,0.009-0.435c0.009,0.015,0.024,0.027,0.054,0.042l0.033,0.015v-0.039c0-0.048,0.003-0.093,0.006-0.138
		c0.006-0.123,0.012-0.234-0.039-0.339h1.935c0.069,0.069,0.138,0.144,0.213,0.219c1.176,1.212,2.949,3.045,5.349,3.045
		c2.586,0,4.08-1.638,5.169-2.835c0.138-0.15,0.267-0.294,0.393-0.426h2.391c-0.237,0.231-0.405,0.516-0.453,0.792l-0.009,0.048
		l0.039-0.027c0.06-0.042,0.108-0.078,0.159-0.111c-0.042,0.159,0.021,0.342,0.078,0.519c0.03,0.093,0.063,0.189,0.078,0.276
		l0.006,0.027l0.039-0.021c0.105-0.06,0.171-0.096,0.216-0.171c0.084,0.171,0.381,0.429,0.546,0.573
		c0.018,0.015,0.036,0.03,0.048,0.042l0.027,0.024l0.006-0.033c0.009-0.06,0.147-0.252,0.246-0.378
		c0.009,0.024,0.027,0.054,0.063,0.075l0.027,0.018v-0.033c0-0.027,0.027-0.084,0.051-0.135c0.021-0.042,0.039-0.084,0.048-0.117
		l0.003,0.003c0.03,0.024,0.069,0.054,0.105,0.093l0.039,0.039l-0.006-0.054c-0.006-0.057,0.003-0.114,0.009-0.171
		c0.006-0.048,0.015-0.096,0.012-0.147c0.018,0.027,0.042,0.063,0.099,0.078l0.039,0.012l-0.018-0.039
		c-0.03-0.066-0.027-0.219-0.024-0.33c0-0.012,0-0.024,0-0.036c0.018,0.033,0.045,0.06,0.114,0.099l0.033,0.018l-0.006-0.039
		c-0.006-0.042-0.021-0.096-0.036-0.153c-0.024-0.081-0.054-0.186-0.045-0.231c0.009,0.012,0.018,0.021,0.027,0.033
		c0.018,0.024,0.036,0.045,0.057,0.06l0.03,0.021v-0.036c0-0.18-0.129-0.432-0.267-0.525c-0.033-0.024-0.066-0.042-0.099-0.063
		h0.405c0.102,0,0.186-0.084,0.186-0.189S21.786,11.8005,21.684,11.8005z M4.53,12.5115c-0.003,0.03-0.003,0.063-0.003,0.093
		c-0.003-0.006-0.006-0.012-0.009-0.018c-0.009-0.018-0.021-0.045-0.054-0.081l-0.042,0.021c0.036,0.135,0.021,0.348,0.009,0.537
		c-0.003,0.057-0.009,0.111-0.009,0.162c-0.003-0.003-0.003-0.009-0.006-0.012l-0.024-0.051l-0.018,0.054
		c-0.024,0.066-0.048,0.111-0.072,0.159c-0.03,0.057-0.057,0.108-0.072,0.183l-0.021-0.033l-0.018,0.042
		c-0.024,0.051-0.108,0.105-0.189,0.156c-0.105,0.066-0.201,0.129-0.207,0.204c0,0.006,0,0.009,0,0.015
		c-0.033-0.015-0.063-0.027-0.087-0.039c-0.057-0.024-0.096-0.039-0.135-0.084l-0.015-0.015l-0.018,0.012
		c-0.03,0.021-0.054,0.054-0.081,0.099c-0.129-0.066-0.165-0.171-0.204-0.288c-0.033-0.102-0.069-0.21-0.174-0.297l-0.024-0.021
		l-0.015,0.027c-0.024,0.048-0.027,0.066-0.033,0.093c0,0.006-0.003,0.012-0.003,0.018c-0.006-0.027-0.012-0.054-0.018-0.078
		c-0.021-0.093-0.036-0.171-0.069-0.258l-0.018-0.045l-0.024,0.042c-0.021,0.036-0.03,0.045-0.045,0.06
		c-0.009,0.009-0.021,0.024-0.039,0.048c-0.012-0.06-0.024-0.105-0.033-0.141c-0.021-0.075-0.033-0.123-0.021-0.204l0.009-0.054
		l-0.045,0.033c-0.042,0.03-0.054,0.042-0.063,0.054c0.075-0.372,0.297-0.759,0.534-0.759c0.03,0,0.06,0.006,0.087,0.021
		l0.009,0.006l0.027-0.012l-0.003-0.018c-0.003-0.021-0.003-0.039-0.003-0.054c0-0.009,0-0.018,0-0.027
		c0.015,0.012,0.033,0.024,0.057,0.024c0.021,0,0.042-0.009,0.069-0.024l0.006-0.003c0.045-0.024,0.051-0.048,0.03-0.105
		c0.066,0.012,0.171,0.042,0.258,0.069c0.099,0.027,0.153,0.045,0.177,0.045c0.042,0.003,0.096-0.009,0.15-0.024
		c0.057-0.012,0.123-0.03,0.189-0.03c0.084,0,0.15,0.027,0.204,0.084C4.545,12.2205,4.536,12.3495,4.53,12.5115z M4.518,12.1425
		c-0.018-0.027-0.039-0.054-0.063-0.081c-0.063-0.066-0.141-0.099-0.24-0.099c-0.069,0-0.138,0.015-0.198,0.03
		c-0.051,0.012-0.102,0.024-0.138,0.021c-0.018,0-0.093-0.024-0.168-0.045c-0.117-0.033-0.249-0.072-0.309-0.075l-0.039-0.003
		l0.015,0.036c0.024,0.057,0.024,0.069,0.024,0.072c0,0.003-0.009,0.006-0.015,0.009l-0.009,0.003
		c-0.018,0.012-0.033,0.018-0.045,0.018s-0.024-0.009-0.042-0.027c-0.018-0.018-0.039-0.036-0.069-0.051l-0.027,0.036
		c0.033,0.042,0.036,0.054,0.036,0.093c0,0.006,0,0.012,0,0.018c-0.024-0.006-0.048-0.012-0.072-0.012
		c-0.054,0-0.108,0.018-0.162,0.051H2.586c-0.084,0-0.153-0.069-0.153-0.156c0-0.087,0.069-0.156,0.153-0.156h3.846
		c-0.048,0.048-0.093,0.096-0.138,0.138l-0.015,0.015l0.015,0.015c0.045,0.045,0.09,0.09,0.138,0.138H4.518V12.1425z M6.969,11.2875
		H4.14c-0.06,0-0.108-0.045-0.108-0.099s0.048-0.099,0.108-0.099h3.027C7.098,11.1555,7.032,11.2215,6.969,11.2875z M7.668,10.6005
		H5.07c-0.06,0-0.108-0.045-0.108-0.099c0-0.054,0.048-0.099,0.108-0.099h2.817C7.812,10.4685,7.74,10.5345,7.668,10.6005z
		 M18.816,10.8615l0.927,0.327l-0.927,0.327l-0.585-0.207c0.051-0.018,0.087-0.066,0.087-0.12s-0.036-0.102-0.087-0.12
		L18.816,10.8615z M18.177,11.0895c0.06,0,0.108,0.045,0.108,0.099s-0.048,0.099-0.108,0.099h-0.141
		c0.03-0.024,0.051-0.063,0.051-0.099c0-0.039-0.021-0.075-0.051-0.099H18.177z M17.961,11.0895c0.048,0,0.099,0.051,0.099,0.099
		c0,0.048-0.051,0.099-0.099,0.099l0,0h-0.036c0.03-0.024,0.051-0.063,0.051-0.099c0-0.039-0.021-0.075-0.051-0.099H17.961z
		 M17.847,11.0895c0.048,0,0.099,0.051,0.099,0.099c0,0.048-0.051,0.099-0.099,0.099l0,0h-0.036c0.03-0.024,0.051-0.063,0.051-0.099
		c0-0.039-0.021-0.075-0.051-0.099H17.847z M17.73,11.0895c0.048,0,0.099,0.051,0.099,0.099c0,0.048-0.051,0.099-0.099,0.099l0,0
		h-0.606c-0.06-0.066-0.12-0.132-0.183-0.198C16.941,11.0895,17.73,11.0895,17.73,11.0895z M19.746,10.1745l0.927,0.327
		l-0.927,0.327l-0.585-0.207c0.051-0.018,0.087-0.066,0.087-0.12c0-0.054-0.036-0.102-0.087-0.12L19.746,10.1745z M19.107,10.4025
		c0.06,0,0.108,0.045,0.108,0.099c0,0.054-0.048,0.099-0.108,0.099h-0.141c0.03-0.024,0.051-0.063,0.051-0.099
		c0-0.039-0.021-0.075-0.051-0.099H19.107z M18.891,10.4025c0.048,0,0.099,0.051,0.099,0.099s-0.051,0.099-0.099,0.099l0,0h-0.036
		c0.03-0.024,0.051-0.063,0.051-0.099c0-0.039-0.021-0.075-0.051-0.099H18.891z M18.777,10.4025c0.048,0,0.099,0.051,0.099,0.099
		s-0.051,0.099-0.099,0.099l0,0h-0.036c0.03-0.024,0.051-0.063,0.051-0.099c0-0.039-0.021-0.075-0.051-0.099H18.777z
		 M18.663,10.4025c0.048,0,0.099,0.051,0.099,0.099s-0.051,0.099-0.099,0.099l0,0h-2.184c-0.066-0.066-0.132-0.132-0.201-0.198
		C16.278,10.4025,18.663,10.4025,18.663,10.4025z M10.413,11.0175l-0.009-0.018l-0.018,0.012c-0.048,0.033-0.063,0.081-0.066,0.132
		c-0.102-0.078-0.333-0.282-0.309-0.357l-0.033-0.015c-0.045,0.063-0.06,0.105-0.069,0.168c-0.129-0.129-0.246-0.261-0.288-0.426
		l-0.009-0.036l-0.024,0.03c-0.03,0.042-0.048,0.06-0.066,0.081c-0.012,0.015-0.024,0.027-0.039,0.048
		c-0.039-0.234-0.036-0.243,0.045-0.453l0.027-0.072l-0.048,0.033c-0.054,0.036-0.099,0.072-0.153,0.114
		c0.081-0.411,0.396-0.834,0.786-1.056c-0.012,0.036-0.015,0.057-0.003,0.075c0.018,0.027,0.057,0.03,0.099,0.03
		c0.012,0,0.027,0,0.045,0s0.039,0,0.063,0c0.18,0,0.456,0.03,0.789,0.279c0.117,0.09,0.285,0.432,0.3,0.606
		c-0.144-0.039-0.372-0.165-0.375-0.168l-0.021,0.03c0.003,0.003,0.279,0.282,0.297,0.606c-0.024-0.015-0.048-0.024-0.066-0.033
		c-0.048-0.021-0.072-0.033-0.093-0.081l-0.036,0.006c0,0.054,0.021,0.099,0.042,0.147c0.021,0.048,0.045,0.102,0.051,0.174
		c-0.057-0.042-0.117-0.081-0.177-0.114l-0.057-0.033l0.033,0.057c0.045,0.078,0.006,0.195-0.033,0.309
		c-0.036,0.108-0.072,0.21-0.036,0.279C10.731,11.3235,10.506,11.1795,10.413,11.0175z M8.694,13.2075H8.487v-0.915h0.207V13.2075z
		 M8.7,11.6835H8.694H8.493H8.487v-0.915h0.006h0.201H8.7V11.6835z M9.246,13.2075H9.039v-0.915h0.207V13.2075z M9.255,11.6835
		H9.249H9.048H9.042v-0.915h0.006h0.201h0.006V11.6835z M9.801,13.2075H9.594v-0.915h0.207V13.2075z M9.801,11.6835H9.6H9.594
		v-0.915H9.6h0.108c0.03,0.042,0.063,0.081,0.099,0.12v0.795H9.801z M10.356,13.2075h-0.207v-0.915h0.207V13.2075z M10.356,11.6835
		h-0.201h-0.006v-0.636c0.066,0.063,0.138,0.123,0.171,0.144l0.006,0.006l0,0c0.006,0.003,0.009,0.006,0.012,0.006l0,0h0.012
		l0.009-0.024l-0.003-0.003c0-0.021,0.003-0.042,0.006-0.06v0.57h-0.006V11.6835z M10.911,13.2075h-0.207v-0.915h0.207V13.2075z
		 M10.911,11.6835H10.71h-0.006v-0.363c0.069,0.036,0.141,0.063,0.213,0.081v0.282H10.911z M11.463,13.2075h-0.207v-0.915h0.207
		V13.2075z M11.469,11.6835h-0.006h-0.201h-0.006v-0.744l0.012,0.009v-0.039c0-0.039-0.006-0.072-0.012-0.105v-0.039h0.006h0.201
		h0.006V11.6835z M17.562,12.1425c-0.009,0.012-0.021,0.021-0.03,0.033c-0.057,0.063-0.117,0.126-0.177,0.192
		c-0.003,0.003-0.003,0.003-0.006,0.006c-0.027,0.03-0.054,0.06-0.084,0.09c-0.003,0.006-0.009,0.009-0.012,0.015
		c-0.03,0.03-0.057,0.063-0.087,0.096c-0.906,0.996-2.094,2.298-3.96,2.7c-0.132-0.567-1.422-0.729-1.401-0.93
		c0.042-0.225,0.987-0.192,0.999-0.39c0.012-0.198-0.873-0.321-0.849-0.54c0.021-0.234,0.459-0.258,0.474-0.621
		c0-0.021,0-0.042,0.003-0.063c0-0.006,0-0.012,0.003-0.018c0-0.012,0.003-0.027,0.003-0.039c0-0.006,0.003-0.015,0.003-0.021
		c0.003-0.012,0.003-0.024,0.006-0.033c0-0.006,0.003-0.012,0.003-0.021c0.003-0.012,0.006-0.021,0.009-0.03
		c0.003-0.006,0.003-0.012,0.006-0.018c0.003-0.012,0.006-0.021,0.012-0.033c0.003-0.003,0.003-0.009,0.006-0.012
		c0.006-0.015,0.012-0.027,0.018-0.042c0-0.003,0.003-0.003,0.003-0.006c0.006-0.012,0.012-0.021,0.018-0.033
		c0.003-0.003,0.006-0.009,0.009-0.012c0.006-0.009,0.009-0.015,0.015-0.024c0.003-0.003,0.006-0.009,0.009-0.012
		c0.006-0.006,0.009-0.015,0.015-0.021c0.003-0.003,0.006-0.009,0.009-0.012c0.006-0.006,0.012-0.012,0.018-0.018
		c0.003-0.003,0.006-0.006,0.009-0.009c0.006-0.006,0.015-0.015,0.021-0.021c0.003-0.003,0.003-0.003,0.006-0.006
		c0.009-0.009,0.018-0.018,0.027-0.024c0,0,0.003,0,0.003-0.003c0.009-0.006,0.018-0.015,0.024-0.021
		c0.003-0.003,0.006-0.003,0.006-0.006c0.006-0.006,0.015-0.012,0.021-0.015c0.003-0.003,0.006-0.003,0.009-0.006
		c0.006-0.006,0.015-0.009,0.021-0.015c0.003,0,0.003-0.003,0.006-0.003c0.009-0.006,0.018-0.012,0.027-0.018l0,0
		c0.018-0.012,0.036-0.021,0.051-0.033c0.009-0.006,0.018-0.012,0.027-0.018c0.003,0,0.003-0.003,0.006-0.003
		c0.006-0.006,0.015-0.009,0.021-0.015c0.003-0.003,0.003-0.003,0.006-0.006c0.009-0.006,0.015-0.012,0.024-0.018
		c0,0,0,0,0.003-0.003c0.006-0.006,0.012-0.012,0.018-0.015c0.003-0.003,0.003-0.003,0.006-0.006
		c0.006-0.006,0.009-0.009,0.012-0.015l0.003-0.003c0.006-0.006,0.009-0.012,0.012-0.018c0-0.003,0-0.003,0.003-0.006
		c0.003-0.006,0.003-0.012,0.006-0.015c0-0.003,0-0.003,0-0.006c0-0.006,0.003-0.015,0.003-0.024c0-0.009,0-0.015,0-0.021
		c0-0.003,0-0.003,0-0.006c0-0.006-0.003-0.012-0.003-0.015c0,0,0,0,0-0.003c0-0.006-0.003-0.009-0.006-0.015v-0.003
		c-0.003-0.003-0.003-0.006-0.006-0.009c0,0,0,0,0-0.003c-0.003-0.003-0.006-0.006-0.009-0.009c0,0-0.003,0-0.003-0.003
		c-0.003-0.003-0.006-0.003-0.006-0.006c0,0-0.003,0-0.003-0.003c-0.003-0.003-0.006-0.003-0.009-0.006c0,0-0.003,0-0.006-0.003
		c-0.003,0-0.003,0-0.006-0.003c-0.003,0-0.003,0-0.006-0.003h-0.003c-0.036-0.009-0.087-0.009-0.147-0.039l0,0
		c-0.03-0.015-0.063-0.039-0.099-0.075l-0.003-0.003c-0.006-0.006-0.012-0.015-0.018-0.021c-0.003-0.003-0.003-0.003-0.006-0.006
		c-0.009-0.009-0.015-0.018-0.024-0.03c-0.006-0.009-0.012-0.021-0.018-0.03c-0.003-0.003-0.003-0.006-0.006-0.009
		c-0.003-0.009-0.009-0.018-0.012-0.027c-0.003-0.003-0.003-0.009-0.003-0.012c-0.003-0.012-0.009-0.021-0.012-0.033
		c0-0.003,0-0.003-0.003-0.006c-0.003-0.015-0.006-0.03-0.009-0.045c0-0.003,0-0.006,0-0.006c-0.003-0.012-0.006-0.027-0.006-0.039
		c0-0.003,0-0.006,0-0.009c-0.003-0.015-0.003-0.03-0.006-0.045v-0.003c-0.003-0.036-0.006-0.072-0.006-0.111l0,0
		c0-0.009,0-0.021,0-0.03l0,0c0-0.033,0-0.066,0-0.099c0-0.003,0-0.003,0-0.006c0-0.033,0-0.063,0.003-0.093l0,0
		c0-0.009,0-0.021,0-0.03c0-0.012,0-0.027,0-0.039c0-0.003,0-0.003,0-0.006c0-0.036,0-0.069,0-0.102c0-0.003,0-0.006,0-0.006
		c0-0.009,0-0.018,0-0.027c0-0.003,0-0.006,0-0.009c0-0.009,0-0.018,0-0.027c0-0.003,0-0.006,0-0.009c0-0.009,0-0.015,0-0.024
		c0-0.003,0-0.006,0-0.009c0-0.009,0-0.015-0.003-0.024c0-0.003,0-0.006,0-0.006c0-0.006-0.003-0.015-0.003-0.021
		c0-0.003,0-0.003,0-0.006c0-0.006-0.003-0.015-0.003-0.021v-0.003c-0.003-0.006-0.003-0.012-0.006-0.018c0,0,0,0,0-0.003
		c-0.012-0.036-0.027-0.06-0.051-0.069l0,0c-0.006-0.003-0.012-0.003-0.021-0.003c-0.057-0.003-0.096-0.018-0.123-0.042
		c0,0,0,0-0.003-0.003c-0.006-0.006-0.012-0.012-0.018-0.018c0,0,0,0,0-0.003c-0.012-0.015-0.018-0.03-0.027-0.045v-0.003
		c-0.003-0.009-0.006-0.015-0.009-0.024c0-0.003-0.003-0.006-0.003-0.009c-0.003-0.006-0.003-0.009-0.006-0.015
		c-0.006-0.021-0.015-0.045-0.024-0.066c-0.003-0.009-0.009-0.021-0.015-0.03c-0.009-0.015-0.018-0.03-0.027-0.042
		c0,0,0,0-0.003-0.003c-0.006-0.006-0.012-0.012-0.015-0.018c0,0,0,0-0.003-0.003c-0.006-0.006-0.012-0.012-0.021-0.015
		c0,0-0.003,0-0.003-0.003c-0.006-0.003-0.012-0.009-0.021-0.012c-0.003,0-0.003-0.003-0.006-0.003
		c-0.009-0.003-0.018-0.006-0.027-0.012h-0.003c-0.009-0.003-0.018-0.006-0.03-0.006c-0.003,0-0.006,0-0.009-0.003
		c-0.012-0.003-0.024-0.003-0.039-0.006c-0.321-0.021-0.069-0.159-0.372-0.501l0,0c-0.351-0.42,0.246-1.041,0.375-1.17
		c0.009,0,0.015,0,0.024,0c0.051,0,0.102,0,0.153,0.003c0.012,0,0.027,0,0.039,0c0.045,0,0.09,0.003,0.135,0.006
		c0.006,0,0.012,0,0.018,0c0.051,0.003,0.099,0.006,0.147,0.012c0.012,0,0.024,0.003,0.036,0.003
		c0.042,0.003,0.081,0.009,0.12,0.012c0.009,0,0.018,0.003,0.027,0.003c0.048,0.006,0.096,0.012,0.141,0.018
		c0.012,0.003,0.021,0.003,0.033,0.006c0.039,0.006,0.078,0.012,0.114,0.018c0.012,0.003,0.021,0.003,0.033,0.006
		c0.045,0.009,0.09,0.018,0.135,0.027c0.009,0.003,0.018,0.003,0.027,0.006c0.039,0.009,0.075,0.015,0.114,0.024
		c0.012,0.003,0.021,0.006,0.033,0.009c0.045,0.012,0.087,0.021,0.132,0.033c0.006,0,0.009,0.003,0.015,0.003
		c0.039,0.012,0.078,0.021,0.117,0.033c0.012,0.003,0.021,0.006,0.033,0.009c0.087,0.027,0.171,0.054,0.252,0.084
		c0.009,0.003,0.021,0.006,0.03,0.012c0.036,0.015,0.075,0.027,0.111,0.042c0.003,0.003,0.009,0.003,0.012,0.006
		c0.039,0.015,0.081,0.033,0.12,0.048c0.009,0.003,0.018,0.009,0.027,0.012c0.033,0.015,0.069,0.03,0.102,0.045
		c0.006,0.003,0.012,0.006,0.018,0.009c0.039,0.018,0.078,0.036,0.117,0.054c0.009,0.003,0.015,0.006,0.021,0.012
		c0.033,0.015,0.066,0.033,0.096,0.048c0.006,0.003,0.015,0.006,0.021,0.012c0.039,0.021,0.075,0.039,0.111,0.06
		c0.006,0.003,0.009,0.006,0.015,0.009c0.033,0.018,0.066,0.036,0.096,0.054c0.006,0.003,0.015,0.009,0.021,0.012
		c0.036,0.021,0.072,0.042,0.108,0.066c0.003,0,0.003,0.003,0.006,0.003c0.033,0.021,0.069,0.042,0.102,0.063
		c0.006,0.003,0.015,0.009,0.021,0.012c0.072,0.045,0.141,0.093,0.207,0.141c0.006,0.003,0.012,0.009,0.018,0.012
		c0.069,0.048,0.135,0.096,0.201,0.147c0.006,0.003,0.009,0.006,0.015,0.012c0.03,0.024,0.063,0.048,0.093,0.072
		c0.003,0,0.003,0.003,0.006,0.003c0.033,0.027,0.066,0.054,0.099,0.078c0.003,0.003,0.006,0.006,0.009,0.006
		c0.03,0.024,0.06,0.051,0.09,0.075c0.003,0.003,0.006,0.003,0.006,0.006c0.033,0.027,0.063,0.054,0.096,0.081l0,0
		c0.03,0.027,0.063,0.054,0.093,0.081c0.003,0.003,0.006,0.003,0.006,0.006c0.063,0.057,0.123,0.111,0.183,0.168l0.003,0.003l0,0
		c0.045,0.042,0.087,0.084,0.132,0.126c0.003,0.003,0.003,0.003,0.006,0.006c0.033,0.033,0.066,0.063,0.099,0.096l0,0l0,0
		c0.009,0.009,0.021,0.021,0.03,0.03l0,0l0,0c0.033,0.033,0.066,0.066,0.099,0.102c0.003,0.003,0.006,0.006,0.009,0.012
		c0.03,0.033,0.063,0.066,0.093,0.096c0.003,0.003,0.009,0.009,0.012,0.012c0.03,0.033,0.06,0.063,0.09,0.096
		c0.003,0.003,0.006,0.006,0.009,0.012c0.039,0.042,0.081,0.087,0.12,0.129l0,0c0.063,0.066,0.123,0.132,0.18,0.198l0,0
		c0.036,0.039,0.072,0.078,0.105,0.117c0.03,0.033,0.06,0.063,0.087,0.096c0.003,0.003,0.009,0.009,0.012,0.012
		c0.027,0.03,0.057,0.063,0.084,0.093l0.003,0.003c0.06,0.066,0.12,0.129,0.18,0.192c0.009,0.012,0.021,0.021,0.03,0.033
		c0.024,0.024,0.048,0.051,0.072,0.075c0.003,0.003,0.003,0.003,0.006,0.006c0.024,0.024,0.048,0.051,0.072,0.075
		c-0.024,0.024-0.048,0.048-0.072,0.075c-0.003,0.003-0.006,0.006-0.006,0.006C17.61,12.0945,17.586,12.1185,17.562,12.1425z
		 M17.625,12.1425c0.045-0.048,0.09-0.096,0.135-0.138l0.015-0.015l-0.015-0.015c-0.045-0.045-0.09-0.09-0.135-0.138h2.847
		l-0.003,0.003c-0.165,0.078-0.318,0.183-0.45,0.306h-2.394V12.1425z M21.354,12.2685c0.117,0.078,0.228,0.282,0.249,0.447
		c-0.006-0.006-0.009-0.012-0.015-0.018c-0.015-0.021-0.03-0.039-0.051-0.057l-0.015-0.012l-0.012,0.012
		c-0.045,0.045-0.009,0.162,0.027,0.288c0.012,0.039,0.021,0.075,0.03,0.108c-0.054-0.036-0.063-0.06-0.081-0.102
		c-0.006-0.015-0.012-0.027-0.021-0.045l-0.036,0.009c0.003,0.03,0,0.075,0,0.129c-0.003,0.102-0.006,0.222,0.015,0.303
		c-0.021-0.015-0.033-0.033-0.042-0.048c-0.012-0.021-0.027-0.042-0.054-0.051l-0.033-0.009l0.009,0.033
		c0.018,0.06,0.006,0.123-0.003,0.189c-0.006,0.042-0.012,0.087-0.012,0.132c-0.027-0.024-0.054-0.045-0.075-0.063
		c-0.012-0.009-0.021-0.015-0.027-0.021l-0.03-0.024l-0.003,0.039c-0.003,0.027-0.027,0.084-0.051,0.135
		c-0.018,0.042-0.039,0.084-0.048,0.117c-0.021-0.021-0.027-0.045-0.033-0.069l-0.009-0.036l-0.024,0.03
		c-0.009,0.012-0.216,0.273-0.264,0.393c-0.009-0.009-0.018-0.015-0.027-0.024c-0.177-0.153-0.504-0.441-0.549-0.597l-0.015-0.051
		l-0.021,0.048c-0.039,0.09-0.099,0.123-0.213,0.186c-0.018-0.084-0.048-0.171-0.075-0.255c-0.063-0.192-0.129-0.387-0.063-0.543
		l0.024-0.054l-0.051,0.03c-0.06,0.036-0.111,0.069-0.168,0.114c0.09-0.402,0.432-0.813,0.858-1.032
		c-0.021,0.042-0.024,0.063-0.015,0.081c0.012,0.021,0.039,0.021,0.069,0.021c0.009,0,0.021,0,0.033,0c0.015,0,0.033,0,0.051,0
		C20.67,11.9955,20.949,11.9955,21.354,12.2685z M21.684,12.1425h-0.462c-0.333-0.186-0.561-0.186-0.645-0.186
		c-0.021,0-0.036,0-0.054,0c-0.012,0-0.024,0-0.033,0c-0.027,0-0.033-0.003-0.033-0.003c-0.003-0.012,0.03-0.072,0.045-0.096
		l0.018-0.03h1.164c0.084,0,0.153,0.069,0.153,0.156C21.837,12.0735,21.768,12.1425,21.684,12.1425z"/>
</g>
</svg>
