<svg width="20" height="16" viewBox="0 0 20 16" fill="none" xmlns="http://www.w3.org/2000/svg">
<path fill-rule="evenodd" clip-rule="evenodd" d="M18.125 0.5H1.875C0.839453 0.5 0 1.33945 0 2.375V13.625C0 14.6605 0.839453 15.5 1.875 15.5H18.125C19.1605 15.5 20 14.6605 20 13.625V2.375C20 1.33945 19.1605 0.5 18.125 0.5ZM18.125 2.375V3.96895C17.2491 4.68219 15.8528 5.79125 12.8677 8.12871C12.7571 8.21568 12.6283 8.32316 12.4862 8.44172C11.783 9.02854 10.7543 9.8869 10 9.87484C9.24577 9.88703 8.21676 9.02836 7.51357 8.44157C7.37154 8.32306 7.2428 8.21563 7.1323 8.12871C4.14766 5.7916 2.75098 4.6823 1.875 3.96895V2.375H18.125ZM1.875 6.37492V13.625H18.125V6.37496C17.2299 7.08793 15.9602 8.08863 14.0255 9.60359C13.8991 9.70311 13.7604 9.81846 13.6107 9.94303C12.7171 10.6863 11.4291 11.7577 10 11.75C8.5647 11.7577 7.2625 10.6718 6.38169 9.93738C6.23345 9.81376 6.09714 9.7001 5.97414 9.60328C4.03941 8.08828 2.77008 7.08785 1.875 6.37492Z" fill="#676767"/>
</svg>
