<svg width="20" height="22" viewBox="0 0 20 22" fill="none" xmlns="http://www.w3.org/2000/svg">
<path d="M9.99965 0.473633C4.47695 0.473633 0 5.18658 0 10.9999C0 16.8133 4.47712 21.5263 9.99965 21.5263C15.5225 21.5263 20 16.8131 20 10.9999C19.9998 5.18658 15.5225 0.473633 9.99965 0.473633ZM13.0264 10.2808C12.8404 15.083 10.3294 16.8259 10.0112 17.0567C9.70934 17.276 9.55061 17.0973 9.55061 17.0973C9.55061 17.0973 8.07881 15.4268 7.86475 15.1321C7.65104 14.8382 7.9391 14.6216 7.9391 14.6216C9.44963 13.4221 9.71107 11.9977 9.7479 11.3667H7.91783C7.3481 11.3667 6.88643 10.8806 6.88643 10.2808V5.91971C6.88643 5.31999 7.3481 4.83384 7.91783 4.83384H11.995C12.5648 4.83384 13.0264 5.31999 13.0264 5.91971V10.2808Z" fill="#676767"/>
</svg>
