<svg width="24" height="24" viewBox="0 0 24 24" fill="none" xmlns="http://www.w3.org/2000/svg">
<path d="M20.3997 17.5C19.7997 12.7 18.4996 11.1 18.1996 10.4C18.2996 9.40001 18.1996 8.40001 17.9996 7.40001C17.6996 5.80001 16.9997 4.39997 15.7997 3.29997C13.3997 1.19997 8.39963 1.29996 6.49963 5.59996C5.79963 7.09996 5.69958 8.70001 5.69958 10.4C5.49958 10.7 5.09961 11.5 4.59961 12.9C4.09961 14.3 3.69961 15.8 3.59961 17.9C3.59961 18.1 3.59968 18.3 3.79968 18.3C3.99968 18.4 4.09958 18.2 4.19958 18.1C4.39958 18 4.49961 17.8 4.59961 17.6C4.89961 17.2 5.19963 16.8 5.49963 16.3C5.59963 18 6.39963 19.2 7.49963 20.3C6.99963 20.4 6.59959 20.6 6.19958 20.8C5.89959 20.9 5.69968 21.1 5.79968 21.4C5.79968 21.7 6.19966 21.7 6.39966 21.7C10.0997 21.9 14.4996 21.9 17.6996 21.7C17.8996 21.6 18.0996 21.6 18.1996 21.4C18.1996 21.2 18.0997 21 17.8997 20.9C17.3997 20.6 16.9997 20.4 16.3997 20.3C17.4997 19.3 18.2997 18 18.3997 16.3C18.7997 16.8 19.0997 17.3 19.3997 17.7C19.5997 17.9 19.7996 18.3 20.0996 18.2C20.4996 18.3 20.3997 17.8 20.3997 17.5ZM12.8997 4.90001C13.2997 4.40001 13.9997 4.39998 14.3997 4.99998C14.5997 5.29998 14.6996 5.69996 14.6996 6.09996C14.6996 6.49996 14.5997 6.9 14.3997 7.2C13.9997 7.9 13.1997 7.9 12.7997 7.2C12.3997 6.6 12.4997 5.50001 12.8997 4.90001ZM9.59961 4.90001C9.99961 4.50001 10.4997 4.49997 10.8997 4.79997C11.4997 5.29997 11.4996 6.6 11.0996 7.2C10.5996 7.8 9.99963 7.79996 9.49963 7.09996C9.29963 6.79996 9.19958 6.39998 9.19958 5.99998C9.19958 5.59998 9.29961 5.20001 9.59961 4.90001ZM8.19958 8.90001C8.19958 8.70001 8.39961 8.69996 8.59961 8.59996C9.69961 8.19996 10.7997 8.19996 11.8997 8.09996C12.9997 8.09996 14.1996 8.19998 15.1996 8.49998C15.3996 8.59998 15.5996 8.59997 15.6996 8.79997C15.6996 8.99997 15.4997 9.1 15.2997 9.2C12.9997 10.4 10.7996 10.4 8.49963 9.2C8.39963 9.2 8.19958 9.20001 8.19958 8.90001ZM16.5996 14C16.6996 14.6 16.6996 15.2 16.5996 15.8C16.5996 16.5 16.4997 17.2 16.2997 17.8C15.5997 19.8 13.8996 21 11.5996 20.8C9.29961 20.6 8.09961 19.1 7.59961 17.4C7.29961 16.3 7.29966 15.2 7.39966 14.1C7.39966 13.9 7.49958 13.6 7.19958 13.4C7.39959 13.1 7.59968 13.3 7.79968 13.3C7.99968 13.3 7.99963 13.5 7.99963 13.7C7.99963 14.4 7.99963 15.1 7.99963 15.9C7.99963 16.2 8.09966 16.3 8.39966 16.4C9.09966 16.5 9.69966 16.5 10.3997 16.5C10.6997 16.5 10.7997 16.4 10.7997 16.1C10.7997 15.5 10.7997 14.8 10.7997 14.2C10.7997 13.9 10.7996 13.8 11.0996 13.8C12.8996 13.9 14.5997 13.7 16.2997 13.4C16.4997 13.4 16.5996 13.4 16.6996 13.6C16.4996 13.6 16.4996 13.8 16.5996 14Z" fill="#585858"/>
<path d="M13.0998 6.3999C13.2998 6.1999 13.5998 6.09987 13.8998 6.29987C14.0998 6.39987 14.1999 6.49989 14.2999 6.19989C14.3999 5.99989 14.0998 5.9999 13.9998 5.8999C13.8998 5.8999 13.7999 5.8999 13.7999 5.8999C13.4999 5.8999 13.1998 5.99989 12.9998 6.19989C12.8998 6.29989 12.8998 6.39988 12.9998 6.49988C12.8998 6.49988 12.9998 6.3999 13.0998 6.3999Z" fill="#585858"/>
<path d="M10.6992 6.90021C11.0992 6.90021 11.0992 6.60017 11.1992 6.30017C11.1992 6.00017 11.0992 5.7002 10.6992 5.7002C10.3992 5.7002 10.1992 6.00017 10.1992 6.30017C10.1992 6.60017 10.3992 6.90021 10.6992 6.90021Z" fill="#585858"/>
</svg>
