<svg width="20" height="22" viewBox="0 0 20 22" fill="none" xmlns="http://www.w3.org/2000/svg">
<path d="M19.1632 12.5219C19.2376 12.0227 19.2794 11.5187 19.2794 10.9999C19.2794 5.60711 15.1278 1.23215 10 1.23215C9.50721 1.23215 9.02371 1.2762 8.55416 1.3545C7.6941 0.796616 6.68526 0.473633 5.60669 0.473633C2.51046 0.473633 0 3.11622 0 6.37542C0 7.51075 0.306834 8.57268 0.83682 9.47312C0.762436 9.97227 0.725244 10.4763 0.725244 10.9951C0.725244 16.3879 4.8768 20.758 10 20.758C10.4928 20.758 10.9763 20.7188 11.4505 20.6405C12.3059 21.1984 13.3147 21.5165 14.3933 21.5165C17.4895 21.5165 20 18.8739 20 15.6147C19.9953 14.4843 19.6885 13.4223 19.1632 12.5219ZM14.4026 15.4385C14.0121 16.0356 13.4356 16.4956 12.6825 16.8332C11.9293 17.166 11.0367 17.3373 10.0046 17.3373C8.76801 17.3373 7.74523 17.1122 6.94096 16.6522C6.36913 16.3243 5.90423 15.8838 5.54626 15.3309C5.18828 14.7779 5.00697 14.2396 5.00697 13.7159C5.00697 13.4076 5.11855 13.1336 5.33705 12.9183C5.5602 12.6981 5.84379 12.5855 6.17852 12.5855C6.45281 12.5855 6.68991 12.6736 6.88052 12.8449C7.07113 13.0161 7.23384 13.2706 7.36402 13.5985C7.52208 13.9851 7.68945 14.3032 7.87541 14.5577C8.05672 14.8121 8.30776 15.0226 8.63784 15.1889C8.96327 15.3553 9.39563 15.4385 9.93956 15.4385C10.6788 15.4385 11.2785 15.2721 11.7387 14.9345C12.199 14.5968 12.4221 14.1906 12.4221 13.6964C12.4221 13.3 12.3013 12.9917 12.0595 12.747C11.8131 12.4974 11.4923 12.3115 11.0972 12.1793C10.702 12.0472 10.1674 11.9053 9.49791 11.7585C8.60065 11.5529 7.84751 11.3131 7.24314 11.0342C6.63412 10.7553 6.15063 10.3785 5.78801 9.90376C5.43003 9.41929 5.24872 8.82226 5.24872 8.11268C5.24872 7.43735 5.43933 6.83053 5.8159 6.30201C6.19712 5.77349 6.7457 5.36732 7.46165 5.08838C8.17294 4.80454 9.01441 4.66752 9.97676 4.66752C10.7438 4.66752 11.4086 4.7605 11.9758 4.94646C12.5384 5.13242 13.0033 5.382 13.3798 5.69519C13.7517 6.0035 14.026 6.33137 14.198 6.67393C14.3701 7.01649 14.4584 7.35415 14.4584 7.68203C14.4584 7.98544 14.3468 8.26438 14.1283 8.50417C13.9098 8.74885 13.6309 8.8712 13.3008 8.8712C13.0079 8.8712 12.7755 8.79779 12.6127 8.64609C12.4547 8.49928 12.292 8.26438 12.1153 7.9414C11.8921 7.48628 11.6225 7.13394 11.311 6.87947C11.0088 6.62989 10.5067 6.50265 9.80474 6.50265C9.15853 6.50265 8.64249 6.63968 8.25198 6.91372C7.86146 7.18777 7.67085 7.51075 7.67085 7.88757C7.67085 8.12246 7.73594 8.3231 7.86611 8.48949C7.99628 8.66077 8.18224 8.80758 8.41469 8.93481C8.65179 9.06205 8.88889 9.15992 9.13064 9.22843C9.37238 9.30184 9.77685 9.40461 10.3347 9.54652C11.0367 9.70802 11.6736 9.88419 12.2455 10.0799C12.8173 10.2757 13.3054 10.5106 13.7099 10.7895C14.1144 11.0685 14.4351 11.4257 14.6583 11.8563C14.8861 12.287 15.0023 12.8155 15.0023 13.4321C14.993 14.1759 14.7978 14.8464 14.4026 15.4385Z" fill="#676767"/>
</svg>
