<svg width="20" height="20" viewBox="0 0 20 20" fill="none" xmlns="http://www.w3.org/2000/svg">
<path d="M10.0002 0C4.47741 0 0 4.4766 0 9.99939C0 15.5222 4.47741 19.9996 10.0002 19.9996C15.5226 19.9996 20 15.5222 20 9.99939C20 4.4766 15.5226 0 10.0002 0ZM9.53205 5.28259C9.61347 5.20807 9.67061 5.19771 9.95301 5.20636C10.1002 5.21156 10.3168 5.22886 10.4346 5.24271C11.0305 5.31718 11.5121 5.46098 12.0404 5.71906C12.5601 5.97373 12.8926 6.2145 13.3327 6.65276C13.745 7.06678 13.9736 7.38033 14.2161 7.86708C14.5539 8.54612 14.7462 9.35337 14.7791 10.242C14.7913 10.5451 14.7826 10.6127 14.7133 10.6993C14.5817 10.8673 14.2924 10.8397 14.1936 10.6508C14.1624 10.5884 14.1538 10.5348 14.1434 10.2923C14.1261 9.91984 14.1001 9.67906 14.0481 9.3915C13.8437 8.2638 13.3033 7.36299 12.4406 6.71689C11.7217 6.17641 10.9785 5.91314 10.005 5.85596C9.67589 5.83691 9.61875 5.82477 9.54428 5.76759C9.40559 5.65847 9.39865 5.4021 9.53205 5.28259ZM11.5969 7.51374C11.2487 7.30589 10.7342 7.1517 10.2648 7.11361C10.095 7.09972 10.0015 7.06512 9.93738 6.9906C9.83866 6.87799 9.82826 6.72558 9.91139 6.59912C10.0015 6.45881 10.14 6.43627 10.5541 6.49865C11.6056 6.65281 12.4197 7.14134 12.9533 7.9347C13.253 8.38161 13.4401 8.90654 13.5042 9.46947C13.5267 9.67565 13.5267 10.0515 13.5024 10.1139C13.4799 10.1728 13.4071 10.2525 13.3448 10.2854C13.2772 10.32 13.1335 10.3166 13.0537 10.275C12.9203 10.2074 12.8805 10.1 12.8805 9.80901C12.8805 9.36035 12.7644 8.88745 12.5635 8.52017C12.3349 8.101 12.0023 7.75455 11.5969 7.51374ZM12.1824 9.82286C12.0802 9.91638 11.8914 9.91988 11.7771 9.83155C11.6939 9.76917 11.6679 9.70335 11.6488 9.52495C11.6263 9.28762 11.5848 9.12132 11.5138 8.96713C11.3613 8.63973 11.0928 8.46998 10.639 8.41455C10.4259 8.38856 10.3618 8.36431 10.2925 8.28289C10.1661 8.13215 10.2145 7.88792 10.3895 7.79784C10.4554 7.76491 10.4831 7.76146 10.6286 7.77015C10.7186 7.77535 10.852 7.7909 10.9231 7.80653C11.2643 7.87927 11.5259 8.00918 11.7494 8.21881C12.0369 8.49077 12.1946 8.81992 12.2638 9.29282C12.3106 9.60113 12.2915 9.72239 12.1824 9.82286ZM14.7704 14.3736C14.6422 14.7044 14.1434 15.3246 13.7951 15.5896C13.4799 15.8286 13.2564 15.9204 12.9619 15.9343C12.7194 15.9464 12.6189 15.9256 12.3088 15.7975C9.87671 14.7945 7.93486 13.2979 6.39315 11.2416C5.58765 10.1676 4.9744 9.05379 4.55518 7.89835C4.31095 7.22451 4.29881 6.93176 4.49975 6.58702C4.58641 6.44151 4.95535 6.08118 5.22386 5.88024C5.67082 5.54765 5.87695 5.42464 6.0415 5.39C6.15407 5.36575 6.34981 5.3848 6.47457 5.42984C6.5352 5.45059 6.62872 5.49908 6.68245 5.53376C7.01155 5.75204 7.92796 6.92477 8.22762 7.51028C8.39907 7.84459 8.45625 8.09231 8.40257 8.27594C8.34709 8.47343 8.25531 8.57735 7.84475 8.90824C7.6802 9.04161 7.526 9.17846 7.5018 9.21485C7.43942 9.30492 7.38919 9.48161 7.38919 9.60633C7.39093 9.89563 7.57802 10.4205 7.824 10.8241C8.01454 11.1377 8.35578 11.5395 8.69358 11.8479C9.09026 12.2117 9.44019 12.4594 9.83512 12.6552C10.3427 12.908 10.6528 12.9722 10.8797 12.8665C10.9369 12.8405 10.9975 12.8059 11.0166 12.7903C11.0339 12.7747 11.1673 12.6119 11.3128 12.4318C11.5934 12.0783 11.6575 12.0212 11.8498 11.9554C12.0941 11.8722 12.3435 11.8947 12.5947 12.0229C12.7852 12.1217 13.201 12.3798 13.4695 12.5668C13.8228 12.8146 14.5781 13.4313 14.6803 13.5543C14.8605 13.776 14.8917 14.06 14.7704 14.3736Z" fill="#676767"/>
</svg>
