<svg width="20" height="18" viewBox="0 0 20 18" fill="none" xmlns="http://www.w3.org/2000/svg">
<path d="M13.7499 5.01337C14.1287 5.01337 14.4987 5.04485 14.8637 5.08985C14.2038 2.19197 11.1601 0 7.50012 0C3.35749 0 0 2.80614 0 6.26672C0 8.26191 1.12257 10.032 2.86375 11.1774L1.87496 13.1602L4.56859 12.0034C5.1462 12.2091 5.74642 12.3784 6.38751 12.4573C6.2999 12.0748 6.25011 11.6828 6.25011 11.2804C6.25011 7.82473 9.61369 5.01337 13.7499 5.01337ZM10.0001 2.81984C10.5177 2.81984 10.9375 3.24093 10.9375 3.75997C10.9375 4.27919 10.5178 4.69998 10.0001 4.69998C9.48221 4.69998 9.0626 4.27919 9.0626 3.75997C9.0626 3.24088 9.48221 2.81984 10.0001 2.81984ZM5.00002 4.69998C4.48232 4.69998 4.06254 4.27919 4.06254 3.75997C4.06254 3.24093 4.48237 2.81984 5.00002 2.81984C5.51768 2.81984 5.93755 3.24093 5.93755 3.75997C5.9375 4.27919 5.51763 4.69998 5.00002 4.69998Z" fill="#676767"/>
<path d="M19.9999 11.2802C19.9999 8.51131 17.2009 6.2666 13.7498 6.2666C10.2986 6.2666 7.5 8.51131 7.5 11.2802C7.5 14.0489 10.2986 16.2936 13.7498 16.2936C14.3174 16.2936 14.8572 16.2134 15.3811 16.0995L18.7499 17.5469L17.5848 15.2121C19.0449 14.2944 19.9999 12.8833 19.9999 11.2802ZM11.8749 10.9668C11.3572 10.9668 10.9374 10.5459 10.9374 10.0266C10.9374 9.50753 11.3572 9.08674 11.8749 9.08674C12.3927 9.08674 12.8123 9.5077 12.8123 10.0266C12.8123 10.5459 12.3926 10.9668 11.8749 10.9668ZM15.6248 10.9668C15.1069 10.9668 14.6874 10.5459 14.6874 10.0266C14.6874 9.50753 15.1069 9.08674 15.6248 9.08674C16.1427 9.08674 16.5623 9.5077 16.5623 10.0266C16.5623 10.5459 16.1427 10.9668 15.6248 10.9668Z" fill="#676767"/>
</svg>
